<?xml version="1.0" encoding="utf-8" standalone="no"?>
<!DOCTYPE svg PUBLIC "-//W3C//DTD SVG 1.1//EN"
  "http://www.w3.org/Graphics/SVG/1.1/DTD/svg11.dtd">
<svg xmlns:xlink="http://www.w3.org/1999/xlink" width="469.19952pt" height="353.99952pt" viewBox="0 0 469.19952 353.99952" xmlns="http://www.w3.org/2000/svg" version="1.1">
 <metadata>
  <rdf:RDF xmlns:dc="http://purl.org/dc/elements/1.1/" xmlns:cc="http://creativecommons.org/ns#" xmlns:rdf="http://www.w3.org/1999/02/22-rdf-syntax-ns#">
   <cc:Work>
    <dc:type rdf:resource="http://purl.org/dc/dcmitype/StillImage"/>
    <dc:date>2024-09-16T23:29:17.242883</dc:date>
    <dc:format>image/svg+xml</dc:format>
    <dc:creator>
     <cc:Agent>
      <dc:title>Matplotlib v3.9.2, https://matplotlib.org/</dc:title>
     </cc:Agent>
    </dc:creator>
   </cc:Work>
  </rdf:RDF>
 </metadata>
 <defs>
  <style type="text/css">*{stroke-linejoin: round; stroke-linecap: butt}</style>
 </defs>
 <g id="figure_1">
  <g id="patch_1">
   <path d="M 0 353.99952 
L 469.19952 353.99952 
L 469.19952 0 
L 0 0 
z
" style="fill: #ffffff"/>
  </g>
  <g id="axes_1">
   <g id="patch_2">
    <path d="M 42.194267 326.874223 
L 461.99952 326.874223 
L 461.99952 7.2 
L 42.194267 7.2 
z
" style="fill: #ffffff"/>
   </g>
   <g id="matplotlib.axis_1">
    <g id="xtick_1">
     <g id="line2d_1">
      <defs>
       <path id="me100a2ea94" d="M 0 0 
L 0 3.5 
" style="stroke: #5a5758; stroke-width: 0.8"/>
      </defs>
      <g>
       <use xlink:href="#me100a2ea94" x="42.194267" y="326.874223" style="fill: #5a5758; stroke: #5a5758; stroke-width: 0.8"/>
      </g>
     </g>
     <g id="text_1">
      <!-- 0 -->
      <g style="fill: #5a5758" transform="translate(38.258342 344.295053) scale(0.14994 -0.14994)">
       <defs>
        <path id="CMUBright-Roman-30" d="M 333 1984 
L 333 2086 
Q 333 2291 339 2438 
Q 346 2586 371 2832 
Q 397 3078 461 3267 
Q 525 3456 621 3657 
Q 717 3859 880 4006 
Q 1043 4154 1261 4230 
Q 1446 4301 1677 4301 
Q 1856 4301 2025 4256 
Q 2195 4211 2380 4070 
Q 2566 3930 2704 3709 
Q 2842 3488 2931 3104 
Q 3021 2720 3021 2214 
Q 3021 1683 2982 1347 
Q 2944 1011 2803 685 
Q 2618 250 2307 70 
Q 1997 -109 1677 -109 
Q 1498 -109 1328 -64 
Q 1158 -19 972 121 
Q 787 262 649 483 
Q 512 704 422 1091 
Q 333 1478 333 1984 
z
M 742 2413 
Q 742 2374 745 2326 
Q 749 2278 749 2272 
L 749 2150 
Q 749 1779 758 1548 
Q 768 1318 838 1014 
Q 909 710 1037 538 
Q 1286 218 1677 218 
Q 2086 218 2330 557 
Q 2451 730 2518 1037 
Q 2586 1344 2595 1568 
Q 2605 1792 2605 2163 
L 2605 2272 
Q 2605 2278 2608 2323 
Q 2611 2368 2611 2406 
Q 2611 3302 2336 3661 
Q 2099 3981 1677 3981 
Q 1242 3981 1005 3642 
Q 742 3264 742 2413 
z
" transform="scale(0.015625)"/>
       </defs>
       <use xlink:href="#CMUBright-Roman-30"/>
      </g>
     </g>
    </g>
    <g id="xtick_2">
     <g id="line2d_2">
      <g>
       <use xlink:href="#me100a2ea94" x="122.157172" y="326.874223" style="fill: #5a5758; stroke: #5a5758; stroke-width: 0.8"/>
      </g>
     </g>
     <g id="text_2">
      <!-- 20 -->
      <g style="fill: #5a5758" transform="translate(114.285322 344.295053) scale(0.14994 -0.14994)">
       <defs>
        <path id="CMUBright-Roman-32" d="M 275 3226 
Q 595 4301 1587 4301 
L 1594 4301 
Q 2214 4294 2617 3923 
Q 3021 3552 3021 2989 
Q 3021 2746 2937 2531 
Q 2854 2317 2668 2115 
Q 2483 1914 2384 1821 
Q 2285 1728 2061 1549 
Q 1754 1299 1642 1203 
Q 1530 1107 698 358 
L 3021 358 
L 3021 0 
L 333 0 
L 333 339 
L 1683 1562 
Q 2144 1965 2368 2278 
Q 2592 2592 2592 2982 
Q 2592 3418 2278 3690 
Q 1965 3962 1498 3962 
Q 1069 3962 854 3693 
Q 640 3424 512 2938 
L 275 3226 
z
" transform="scale(0.015625)"/>
       </defs>
       <use xlink:href="#CMUBright-Roman-32"/>
       <use xlink:href="#CMUBright-Roman-30" x="52.499985"/>
      </g>
     </g>
    </g>
    <g id="xtick_3">
     <g id="line2d_3">
      <g>
       <use xlink:href="#me100a2ea94" x="202.120077" y="326.874223" style="fill: #5a5758; stroke: #5a5758; stroke-width: 0.8"/>
      </g>
     </g>
     <g id="text_3">
      <!-- 40 -->
      <g style="fill: #5a5758" transform="translate(194.248227 344.295053) scale(0.14994 -0.14994)">
       <defs>
        <path id="CMUBright-Roman-34" d="M 186 1158 
L 186 1504 
L 1952 4250 
L 2438 4250 
L 2438 1498 
L 3168 1498 
L 3168 1158 
L 2438 1158 
L 2438 0 
L 2035 0 
L 2035 1158 
L 186 1158 
z
M 602 1498 
L 2054 1498 
L 2054 3885 
Q 1971 3667 1606 3085 
L 602 1498 
z
" transform="scale(0.015625)"/>
       </defs>
       <use xlink:href="#CMUBright-Roman-34"/>
       <use xlink:href="#CMUBright-Roman-30" x="52.499985"/>
      </g>
     </g>
    </g>
    <g id="xtick_4">
     <g id="line2d_4">
      <g>
       <use xlink:href="#me100a2ea94" x="282.082983" y="326.874223" style="fill: #5a5758; stroke: #5a5758; stroke-width: 0.8"/>
      </g>
     </g>
     <g id="text_4">
      <!-- 60 -->
      <g style="fill: #5a5758" transform="translate(274.211133 344.295053) scale(0.14994 -0.14994)">
       <defs>
        <path id="CMUBright-Roman-36" d="M 346 2061 
Q 346 3072 864 3686 
Q 1382 4301 2074 4301 
L 2086 4301 
Q 2426 4301 2797 4179 
L 2797 3846 
Q 2374 3981 2074 3981 
L 2061 3981 
Q 1478 3981 1123 3491 
Q 768 3002 768 2208 
Q 768 2195 771 2166 
Q 774 2138 774 2125 
Q 928 2445 1238 2665 
Q 1549 2886 1952 2886 
Q 2387 2886 2682 2483 
Q 3008 2029 3008 1408 
Q 3008 768 2618 326 
Q 2240 -109 1690 -109 
Q 1510 -109 1340 -57 
Q 1171 -6 985 141 
Q 800 288 662 521 
Q 525 755 435 1152 
Q 346 1549 346 2061 
z
M 794 1389 
Q 813 1171 854 1004 
Q 896 838 985 643 
Q 1075 448 1254 336 
Q 1434 224 1690 224 
Q 2138 224 2381 550 
Q 2515 736 2550 921 
Q 2586 1107 2586 1434 
Q 2586 1645 2573 1776 
Q 2560 1907 2480 2089 
Q 2400 2272 2253 2400 
Q 2054 2566 1728 2566 
Q 1325 2566 1062 2265 
Q 800 1965 800 1555 
Q 800 1440 806 1389 
L 794 1389 
z
" transform="scale(0.015625)"/>
       </defs>
       <use xlink:href="#CMUBright-Roman-36"/>
       <use xlink:href="#CMUBright-Roman-30" x="52.499985"/>
      </g>
     </g>
    </g>
    <g id="xtick_5">
     <g id="line2d_5">
      <g>
       <use xlink:href="#me100a2ea94" x="362.045888" y="326.874223" style="fill: #5a5758; stroke: #5a5758; stroke-width: 0.8"/>
      </g>
     </g>
     <g id="text_5">
      <!-- 80 -->
      <g style="fill: #5a5758" transform="translate(354.174038 344.295053) scale(0.14994 -0.14994)">
       <defs>
        <path id="CMUBright-Roman-38" d="M 275 1158 
Q 275 1517 518 1817 
Q 762 2118 1248 2266 
Q 909 2349 640 2598 
Q 371 2848 371 3206 
Q 371 3642 745 3971 
Q 1120 4301 1677 4301 
Q 2221 4301 2601 3981 
Q 2982 3661 2982 3213 
Q 2982 2918 2787 2684 
Q 2592 2451 2285 2323 
L 2099 2266 
Q 2464 2176 2768 1885 
Q 3072 1594 3072 1158 
Q 3072 646 2665 268 
Q 2259 -109 1670 -109 
Q 1075 -109 675 275 
Q 275 659 275 1158 
z
M 698 1158 
Q 698 704 970 464 
Q 1242 224 1670 224 
Q 2118 224 2384 470 
Q 2650 717 2650 1165 
Q 2650 1619 2371 1862 
Q 2093 2106 1670 2106 
Q 1280 2106 989 1878 
Q 698 1651 698 1158 
z
M 755 3206 
Q 755 2886 982 2656 
Q 1210 2426 1670 2426 
Q 2093 2426 2342 2634 
Q 2592 2842 2592 3206 
Q 2592 3507 2387 3744 
Q 2182 3981 1683 3981 
Q 1171 3981 963 3744 
Q 755 3507 755 3206 
z
" transform="scale(0.015625)"/>
       </defs>
       <use xlink:href="#CMUBright-Roman-38"/>
       <use xlink:href="#CMUBright-Roman-30" x="52.499985"/>
      </g>
     </g>
    </g>
    <g id="xtick_6">
     <g id="line2d_6">
      <g>
       <use xlink:href="#me100a2ea94" x="442.008794" y="326.874223" style="fill: #5a5758; stroke: #5a5758; stroke-width: 0.8"/>
      </g>
     </g>
     <g id="text_6">
      <!-- 100 -->
      <g style="fill: #5a5758" transform="translate(430.201019 344.295053) scale(0.14994 -0.14994)">
       <defs>
        <path id="CMUBright-Roman-31" d="M 672 3558 
L 672 3885 
Q 1427 3885 1862 4301 
L 1965 4301 
L 1965 320 
L 2803 320 
L 2803 0 
L 710 0 
L 710 320 
L 1549 320 
L 1549 3744 
Q 1178 3558 672 3558 
z
" transform="scale(0.015625)"/>
       </defs>
       <use xlink:href="#CMUBright-Roman-31"/>
       <use xlink:href="#CMUBright-Roman-30" x="52.499985"/>
       <use xlink:href="#CMUBright-Roman-30" x="104.999969"/>
      </g>
     </g>
    </g>
   </g>
   <g id="matplotlib.axis_2">
    <g id="ytick_1">
     <g id="line2d_7">
      <defs>
       <path id="m08a5ffe425" d="M 0 0 
L -3.5 0 
" style="stroke: #5a5758; stroke-width: 0.8"/>
      </defs>
      <g>
       <use xlink:href="#m08a5ffe425" x="42.194267" y="283.239232" style="fill: #5a5758; stroke: #5a5758; stroke-width: 0.8"/>
      </g>
     </g>
     <g id="text_7">
      <!-- 0.75 -->
      <g style="fill: #5a5758" transform="translate(7.2 288.449647) scale(0.14994 -0.14994)">
       <defs>
        <path id="CMUBright-Roman-2e" d="M 678 0 
L 678 499 
L 1178 499 
L 1178 0 
L 678 0 
z
" transform="scale(0.015625)"/>
        <path id="CMUBright-Roman-37" d="M 275 3840 
L 275 4192 
L 3072 4192 
L 3072 3853 
Q 2400 3149 1958 2147 
Q 1517 1146 1517 -51 
L 1088 -51 
Q 1088 1030 1523 2048 
Q 1958 3066 2797 3840 
L 275 3840 
z
" transform="scale(0.015625)"/>
        <path id="CMUBright-Roman-35" d="M 301 518 
L 486 819 
Q 896 224 1581 224 
Q 1971 224 2268 473 
Q 2566 723 2566 1312 
Q 2566 1626 2489 1846 
Q 2413 2067 2285 2176 
Q 2157 2285 2032 2329 
Q 1907 2374 1773 2374 
Q 1210 2374 941 1901 
L 582 1901 
L 582 4192 
L 2797 4192 
L 2797 3853 
L 973 3853 
L 973 2381 
Q 1325 2701 1779 2701 
Q 2285 2701 2653 2291 
Q 3021 1882 3021 1306 
Q 3021 723 2601 307 
Q 2182 -109 1574 -109 
Q 813 -109 301 518 
z
" transform="scale(0.015625)"/>
       </defs>
       <use xlink:href="#CMUBright-Roman-30"/>
       <use xlink:href="#CMUBright-Roman-2e" x="52.499985"/>
       <use xlink:href="#CMUBright-Roman-37" x="81.699982"/>
       <use xlink:href="#CMUBright-Roman-35" x="134.199966"/>
      </g>
     </g>
    </g>
    <g id="ytick_2">
     <g id="line2d_8">
      <g>
       <use xlink:href="#m08a5ffe425" x="42.194267" y="239.576672" style="fill: #5a5758; stroke: #5a5758; stroke-width: 0.8"/>
      </g>
     </g>
     <g id="text_8">
      <!-- 1.00 -->
      <g style="fill: #5a5758" transform="translate(7.2 244.787087) scale(0.14994 -0.14994)">
       <use xlink:href="#CMUBright-Roman-31"/>
       <use xlink:href="#CMUBright-Roman-2e" x="52.499985"/>
       <use xlink:href="#CMUBright-Roman-30" x="81.699982"/>
       <use xlink:href="#CMUBright-Roman-30" x="134.199966"/>
      </g>
     </g>
    </g>
    <g id="ytick_3">
     <g id="line2d_9">
      <g>
       <use xlink:href="#m08a5ffe425" x="42.194267" y="195.914112" style="fill: #5a5758; stroke: #5a5758; stroke-width: 0.8"/>
      </g>
     </g>
     <g id="text_9">
      <!-- 1.25 -->
      <g style="fill: #5a5758" transform="translate(7.2 201.124527) scale(0.14994 -0.14994)">
       <use xlink:href="#CMUBright-Roman-31"/>
       <use xlink:href="#CMUBright-Roman-2e" x="52.499985"/>
       <use xlink:href="#CMUBright-Roman-32" x="81.699982"/>
       <use xlink:href="#CMUBright-Roman-35" x="134.199966"/>
      </g>
     </g>
    </g>
    <g id="ytick_4">
     <g id="line2d_10">
      <g>
       <use xlink:href="#m08a5ffe425" x="42.194267" y="152.251552" style="fill: #5a5758; stroke: #5a5758; stroke-width: 0.8"/>
      </g>
     </g>
     <g id="text_10">
      <!-- 1.50 -->
      <g style="fill: #5a5758" transform="translate(7.2 157.461967) scale(0.14994 -0.14994)">
       <use xlink:href="#CMUBright-Roman-31"/>
       <use xlink:href="#CMUBright-Roman-2e" x="52.499985"/>
       <use xlink:href="#CMUBright-Roman-35" x="81.699982"/>
       <use xlink:href="#CMUBright-Roman-30" x="134.199966"/>
      </g>
     </g>
    </g>
    <g id="ytick_5">
     <g id="line2d_11">
      <g>
       <use xlink:href="#m08a5ffe425" x="42.194267" y="108.588992" style="fill: #5a5758; stroke: #5a5758; stroke-width: 0.8"/>
      </g>
     </g>
     <g id="text_11">
      <!-- 1.75 -->
      <g style="fill: #5a5758" transform="translate(7.2 113.799407) scale(0.14994 -0.14994)">
       <use xlink:href="#CMUBright-Roman-31"/>
       <use xlink:href="#CMUBright-Roman-2e" x="52.499985"/>
       <use xlink:href="#CMUBright-Roman-37" x="81.699982"/>
       <use xlink:href="#CMUBright-Roman-35" x="134.199966"/>
      </g>
     </g>
    </g>
    <g id="ytick_6">
     <g id="line2d_12">
      <g>
       <use xlink:href="#m08a5ffe425" x="42.194267" y="64.926431" style="fill: #5a5758; stroke: #5a5758; stroke-width: 0.8"/>
      </g>
     </g>
     <g id="text_12">
      <!-- 2.00 -->
      <g style="fill: #5a5758" transform="translate(7.2 70.136846) scale(0.14994 -0.14994)">
       <use xlink:href="#CMUBright-Roman-32"/>
       <use xlink:href="#CMUBright-Roman-2e" x="52.499985"/>
       <use xlink:href="#CMUBright-Roman-30" x="81.699982"/>
       <use xlink:href="#CMUBright-Roman-30" x="134.199966"/>
      </g>
     </g>
    </g>
    <g id="ytick_7">
     <g id="line2d_13">
      <g>
       <use xlink:href="#m08a5ffe425" x="42.194267" y="21.263871" style="fill: #5a5758; stroke: #5a5758; stroke-width: 0.8"/>
      </g>
     </g>
     <g id="text_13">
      <!-- 2.25 -->
      <g style="fill: #5a5758" transform="translate(7.2 26.474286) scale(0.14994 -0.14994)">
       <use xlink:href="#CMUBright-Roman-32"/>
       <use xlink:href="#CMUBright-Roman-2e" x="52.499985"/>
       <use xlink:href="#CMUBright-Roman-32" x="81.699982"/>
       <use xlink:href="#CMUBright-Roman-35" x="134.199966"/>
      </g>
     </g>
    </g>
   </g>
   <g id="line2d_14">
    <path d="M 42.194267 7.2 
L 46.192412 8.866288 
L 50.190557 10.544417 
L 54.188702 12.234595 
L 58.186848 13.937038 
L 62.184993 15.651967 
L 66.183138 17.379608 
L 70.181283 19.120195 
L 74.179429 20.87397 
L 78.177574 22.64118 
L 82.175719 24.42208 
L 86.173865 26.216933 
L 90.17201 28.026011 
L 94.170155 29.849593 
L 98.1683 31.687967 
L 102.166446 33.541431 
L 106.164591 35.410291 
L 110.162736 37.294865 
L 114.160881 39.19548 
L 118.159027 41.112474 
L 122.157172 43.046197 
L 126.155317 44.99701 
L 130.153463 46.965287 
L 134.151608 48.951415 
L 138.149753 50.955795 
L 142.147898 52.978841 
L 146.146044 55.020984 
L 150.144189 57.08267 
L 154.142334 59.16436 
L 158.140479 61.266535 
L 162.138625 63.389693 
L 166.13677 65.534351 
L 170.134915 67.701046 
L 174.133061 69.890338 
L 178.131206 72.102808 
L 182.129351 74.339061 
L 186.127496 76.599729 
L 190.125642 78.885468 
L 194.123787 81.196963 
L 198.121932 83.534929 
L 202.120077 85.900112 
L 206.118223 88.293292 
L 210.116368 90.715285 
L 214.114513 93.166942 
L 218.112658 95.649157 
L 222.110804 98.162865 
L 226.108949 100.709045 
L 230.107094 103.288727 
L 234.10524 105.902991 
L 238.103385 108.552971 
L 242.10153 111.239861 
L 246.099675 113.964919 
L 250.097821 116.729467 
L 254.095966 119.534902 
L 258.094111 122.382697 
L 262.092256 125.274408 
L 266.090402 128.211683 
L 270.088547 131.196262 
L 274.086692 134.229993 
L 278.084838 137.314834 
L 282.082983 140.452864 
L 286.081128 143.646295 
L 290.079273 146.897477 
L 294.077419 150.208918 
L 298.075564 153.583289 
L 302.073709 157.023444 
L 306.071854 160.532432 
L 310.07 164.113517 
L 314.068145 167.770195 
L 318.06629 171.506212 
L 322.064436 175.325589 
L 326.062581 179.232646 
L 330.060726 183.232023 
L 334.058871 187.328709 
L 338.057017 191.528067 
L 342.055162 195.83586 
L 346.053307 200.258277 
L 350.051452 204.801949 
L 354.049598 209.473963 
L 358.047743 214.281857 
L 362.045888 219.233595 
L 366.044034 224.337501 
L 370.042179 229.602136 
L 374.040324 235.036088 
L 378.038469 240.647607 
L 382.036615 246.444039 
L 386.03476 252.430903 
L 390.032905 258.610462 
L 394.03105 264.979494 
L 398.029196 271.525871 
L 402.027341 278.223389 
L 406.025486 285.024192 
L 410.023631 291.848227 
L 414.021777 298.570083 
L 418.019922 305.006339 
L 422.018067 310.912631 
L 426.016213 316.008509 
L 430.014358 320.04919 
L 434.012503 322.93246 
L 438.010648 324.765866 
L 442.008794 325.814343 
L 446.006939 326.367364 
L 450.005084 326.644311 
L 454.003229 326.779011 
L 458.001375 326.84354 
L 461.99952 326.874223 
" clip-path="url(#p197ca5dca4)" style="fill: none; stroke: #e29400; stroke-width: 2; stroke-linecap: square"/>
   </g>
   <g id="patch_3">
    <path d="M 42.194267 326.874223 
L 42.194267 7.2 
" style="fill: none; stroke: #5a5758; stroke-width: 0.8; stroke-linejoin: miter; stroke-linecap: square"/>
   </g>
   <g id="patch_4">
    <path d="M 42.194267 326.874223 
L 461.99952 326.874223 
" style="fill: none; stroke: #5a5758; stroke-width: 0.8; stroke-linejoin: miter; stroke-linecap: square"/>
   </g>
  </g>
 </g>
 <defs>
  <clipPath id="p197ca5dca4">
   <rect x="42.194267" y="7.2" width="419.805253" height="319.674223"/>
  </clipPath>
 </defs>
</svg>