<?xml version="1.0" encoding="utf-8" standalone="no"?>
<!DOCTYPE svg PUBLIC "-//W3C//DTD SVG 1.1//EN"
  "http://www.w3.org/Graphics/SVG/1.1/DTD/svg11.dtd">
<svg xmlns:xlink="http://www.w3.org/1999/xlink" width="469.19952pt" height="353.99952pt" viewBox="0 0 469.19952 353.99952" xmlns="http://www.w3.org/2000/svg" version="1.1">
 <metadata>
  <rdf:RDF xmlns:dc="http://purl.org/dc/elements/1.1/" xmlns:cc="http://creativecommons.org/ns#" xmlns:rdf="http://www.w3.org/1999/02/22-rdf-syntax-ns#">
   <cc:Work>
    <dc:type rdf:resource="http://purl.org/dc/dcmitype/StillImage"/>
    <dc:date>2024-09-12T14:08:24.289415</dc:date>
    <dc:format>image/svg+xml</dc:format>
    <dc:creator>
     <cc:Agent>
      <dc:title>Matplotlib v3.9.2, https://matplotlib.org/</dc:title>
     </cc:Agent>
    </dc:creator>
   </cc:Work>
  </rdf:RDF>
 </metadata>
 <defs>
  <style type="text/css">*{stroke-linejoin: round; stroke-linecap: butt}</style>
 </defs>
 <g id="figure_1">
  <g id="patch_1">
   <path d="M 0 353.99952 
L 469.19952 353.99952 
L 469.19952 0 
L 0 0 
z
" style="fill: #ffffff"/>
  </g>
  <g id="axes_1">
   <g id="patch_2">
    <path d="M 75.086879 291.357661 
L 451.938312 291.357661 
L 451.938312 10.2 
L 75.086879 10.2 
z
" style="fill: #ffffff"/>
   </g>
   <g id="matplotlib.axis_1">
    <g id="xtick_1">
     <g id="line2d_1">
      <defs>
       <path id="m11ec4a85de" d="M 0 0 
L 0 3.5 
" style="stroke: #5a5758; stroke-width: 0.8"/>
      </defs>
      <g>
       <use xlink:href="#m11ec4a85de" x="75.086879" y="303.357661" style="fill: #5a5758; stroke: #5a5758; stroke-width: 0.8"/>
      </g>
     </g>
     <g id="text_1">
      <!-- 0.0 -->
      <g style="fill: #5a5758" transform="translate(65.025671 320.778491) scale(0.14994 -0.14994)">
       <defs>
        <path id="CMUBright-Roman-30" d="M 333 1984 
L 333 2086 
Q 333 2291 339 2438 
Q 346 2586 371 2832 
Q 397 3078 461 3267 
Q 525 3456 621 3657 
Q 717 3859 880 4006 
Q 1043 4154 1261 4230 
Q 1446 4301 1677 4301 
Q 1856 4301 2025 4256 
Q 2195 4211 2380 4070 
Q 2566 3930 2704 3709 
Q 2842 3488 2931 3104 
Q 3021 2720 3021 2214 
Q 3021 1683 2982 1347 
Q 2944 1011 2803 685 
Q 2618 250 2307 70 
Q 1997 -109 1677 -109 
Q 1498 -109 1328 -64 
Q 1158 -19 972 121 
Q 787 262 649 483 
Q 512 704 422 1091 
Q 333 1478 333 1984 
z
M 742 2413 
Q 742 2374 745 2326 
Q 749 2278 749 2272 
L 749 2150 
Q 749 1779 758 1548 
Q 768 1318 838 1014 
Q 909 710 1037 538 
Q 1286 218 1677 218 
Q 2086 218 2330 557 
Q 2451 730 2518 1037 
Q 2586 1344 2595 1568 
Q 2605 1792 2605 2163 
L 2605 2272 
Q 2605 2278 2608 2323 
Q 2611 2368 2611 2406 
Q 2611 3302 2336 3661 
Q 2099 3981 1677 3981 
Q 1242 3981 1005 3642 
Q 742 3264 742 2413 
z
" transform="scale(0.015625)"/>
        <path id="CMUBright-Roman-2e" d="M 678 0 
L 678 499 
L 1178 499 
L 1178 0 
L 678 0 
z
" transform="scale(0.015625)"/>
       </defs>
       <use xlink:href="#CMUBright-Roman-30"/>
       <use xlink:href="#CMUBright-Roman-2e" x="52.499985"/>
       <use xlink:href="#CMUBright-Roman-30" x="81.699982"/>
      </g>
     </g>
    </g>
    <g id="xtick_2">
     <g id="line2d_2">
      <g>
       <use xlink:href="#m11ec4a85de" x="150.457166" y="303.357661" style="fill: #5a5758; stroke: #5a5758; stroke-width: 0.8"/>
      </g>
     </g>
     <g id="text_2">
      <!-- 0.2 -->
      <g style="fill: #5a5758" transform="translate(140.395957 320.778491) scale(0.14994 -0.14994)">
       <defs>
        <path id="CMUBright-Roman-32" d="M 275 3226 
Q 595 4301 1587 4301 
L 1594 4301 
Q 2214 4294 2617 3923 
Q 3021 3552 3021 2989 
Q 3021 2746 2937 2531 
Q 2854 2317 2668 2115 
Q 2483 1914 2384 1821 
Q 2285 1728 2061 1549 
Q 1754 1299 1642 1203 
Q 1530 1107 698 358 
L 3021 358 
L 3021 0 
L 333 0 
L 333 339 
L 1683 1562 
Q 2144 1965 2368 2278 
Q 2592 2592 2592 2982 
Q 2592 3418 2278 3690 
Q 1965 3962 1498 3962 
Q 1069 3962 854 3693 
Q 640 3424 512 2938 
L 275 3226 
z
" transform="scale(0.015625)"/>
       </defs>
       <use xlink:href="#CMUBright-Roman-30"/>
       <use xlink:href="#CMUBright-Roman-2e" x="52.499985"/>
       <use xlink:href="#CMUBright-Roman-32" x="81.699982"/>
      </g>
     </g>
    </g>
    <g id="xtick_3">
     <g id="line2d_3">
      <g>
       <use xlink:href="#m11ec4a85de" x="225.827452" y="303.357661" style="fill: #5a5758; stroke: #5a5758; stroke-width: 0.8"/>
      </g>
     </g>
     <g id="text_3">
      <!-- 0.4 -->
      <g style="fill: #5a5758" transform="translate(215.766244 320.778491) scale(0.14994 -0.14994)">
       <defs>
        <path id="CMUBright-Roman-34" d="M 186 1158 
L 186 1504 
L 1952 4250 
L 2438 4250 
L 2438 1498 
L 3168 1498 
L 3168 1158 
L 2438 1158 
L 2438 0 
L 2035 0 
L 2035 1158 
L 186 1158 
z
M 602 1498 
L 2054 1498 
L 2054 3885 
Q 1971 3667 1606 3085 
L 602 1498 
z
" transform="scale(0.015625)"/>
       </defs>
       <use xlink:href="#CMUBright-Roman-30"/>
       <use xlink:href="#CMUBright-Roman-2e" x="52.499985"/>
       <use xlink:href="#CMUBright-Roman-34" x="81.699982"/>
      </g>
     </g>
    </g>
    <g id="xtick_4">
     <g id="line2d_4">
      <g>
       <use xlink:href="#m11ec4a85de" x="301.197739" y="303.357661" style="fill: #5a5758; stroke: #5a5758; stroke-width: 0.8"/>
      </g>
     </g>
     <g id="text_4">
      <!-- 0.6 -->
      <g style="fill: #5a5758" transform="translate(291.13653 320.778491) scale(0.14994 -0.14994)">
       <defs>
        <path id="CMUBright-Roman-36" d="M 346 2061 
Q 346 3072 864 3686 
Q 1382 4301 2074 4301 
L 2086 4301 
Q 2426 4301 2797 4179 
L 2797 3846 
Q 2374 3981 2074 3981 
L 2061 3981 
Q 1478 3981 1123 3491 
Q 768 3002 768 2208 
Q 768 2195 771 2166 
Q 774 2138 774 2125 
Q 928 2445 1238 2665 
Q 1549 2886 1952 2886 
Q 2387 2886 2682 2483 
Q 3008 2029 3008 1408 
Q 3008 768 2618 326 
Q 2240 -109 1690 -109 
Q 1510 -109 1340 -57 
Q 1171 -6 985 141 
Q 800 288 662 521 
Q 525 755 435 1152 
Q 346 1549 346 2061 
z
M 794 1389 
Q 813 1171 854 1004 
Q 896 838 985 643 
Q 1075 448 1254 336 
Q 1434 224 1690 224 
Q 2138 224 2381 550 
Q 2515 736 2550 921 
Q 2586 1107 2586 1434 
Q 2586 1645 2573 1776 
Q 2560 1907 2480 2089 
Q 2400 2272 2253 2400 
Q 2054 2566 1728 2566 
Q 1325 2566 1062 2265 
Q 800 1965 800 1555 
Q 800 1440 806 1389 
L 794 1389 
z
" transform="scale(0.015625)"/>
       </defs>
       <use xlink:href="#CMUBright-Roman-30"/>
       <use xlink:href="#CMUBright-Roman-2e" x="52.499985"/>
       <use xlink:href="#CMUBright-Roman-36" x="81.699982"/>
      </g>
     </g>
    </g>
    <g id="xtick_5">
     <g id="line2d_5">
      <g>
       <use xlink:href="#m11ec4a85de" x="376.568025" y="303.357661" style="fill: #5a5758; stroke: #5a5758; stroke-width: 0.8"/>
      </g>
     </g>
     <g id="text_5">
      <!-- 0.8 -->
      <g style="fill: #5a5758" transform="translate(366.506817 320.778491) scale(0.14994 -0.14994)">
       <defs>
        <path id="CMUBright-Roman-38" d="M 275 1158 
Q 275 1517 518 1817 
Q 762 2118 1248 2266 
Q 909 2349 640 2598 
Q 371 2848 371 3206 
Q 371 3642 745 3971 
Q 1120 4301 1677 4301 
Q 2221 4301 2601 3981 
Q 2982 3661 2982 3213 
Q 2982 2918 2787 2684 
Q 2592 2451 2285 2323 
L 2099 2266 
Q 2464 2176 2768 1885 
Q 3072 1594 3072 1158 
Q 3072 646 2665 268 
Q 2259 -109 1670 -109 
Q 1075 -109 675 275 
Q 275 659 275 1158 
z
M 698 1158 
Q 698 704 970 464 
Q 1242 224 1670 224 
Q 2118 224 2384 470 
Q 2650 717 2650 1165 
Q 2650 1619 2371 1862 
Q 2093 2106 1670 2106 
Q 1280 2106 989 1878 
Q 698 1651 698 1158 
z
M 755 3206 
Q 755 2886 982 2656 
Q 1210 2426 1670 2426 
Q 2093 2426 2342 2634 
Q 2592 2842 2592 3206 
Q 2592 3507 2387 3744 
Q 2182 3981 1683 3981 
Q 1171 3981 963 3744 
Q 755 3507 755 3206 
z
" transform="scale(0.015625)"/>
       </defs>
       <use xlink:href="#CMUBright-Roman-30"/>
       <use xlink:href="#CMUBright-Roman-2e" x="52.499985"/>
       <use xlink:href="#CMUBright-Roman-38" x="81.699982"/>
      </g>
     </g>
    </g>
    <g id="xtick_6">
     <g id="line2d_6">
      <g>
       <use xlink:href="#m11ec4a85de" x="451.938312" y="303.357661" style="fill: #5a5758; stroke: #5a5758; stroke-width: 0.8"/>
      </g>
     </g>
     <g id="text_6">
      <!-- 1.0 -->
      <g style="fill: #5a5758" transform="translate(441.877103 320.778491) scale(0.14994 -0.14994)">
       <defs>
        <path id="CMUBright-Roman-31" d="M 672 3558 
L 672 3885 
Q 1427 3885 1862 4301 
L 1965 4301 
L 1965 320 
L 2803 320 
L 2803 0 
L 710 0 
L 710 320 
L 1549 320 
L 1549 3744 
Q 1178 3558 672 3558 
z
" transform="scale(0.015625)"/>
       </defs>
       <use xlink:href="#CMUBright-Roman-31"/>
       <use xlink:href="#CMUBright-Roman-2e" x="52.499985"/>
       <use xlink:href="#CMUBright-Roman-30" x="81.699982"/>
      </g>
     </g>
    </g>
    <g id="text_7">
     <!-- $x$ -->
     <g style="fill: #5a5758" transform="translate(259.372595 343.792957) scale(0.18 -0.18)">
      <defs>
       <path id="CMUBright-SemiBold-78" d="M 0 0 
L 1184 1562 
L 1184 1568 
L 38 3021 
L 698 3021 
L 1446 2022 
L 2163 3021 
L 2816 3021 
L 1709 1568 
L 1709 1562 
L 2931 0 
L 2272 0 
L 1446 1197 
L 1440 1197 
L 653 0 
L 0 0 
z
" transform="scale(0.015625)"/>
      </defs>
      <use xlink:href="#CMUBright-SemiBold-78" transform="translate(0 0.796875)"/>
     </g>
    </g>
   </g>
   <g id="matplotlib.axis_2">
    <g id="ytick_1">
     <g id="line2d_7">
      <defs>
       <path id="mf0cd3af0b3" d="M 0 0 
L -3.5 0 
" style="stroke: #5a5758; stroke-width: 0.8"/>
      </defs>
      <g>
       <use xlink:href="#mf0cd3af0b3" x="63.086879" y="290.511699" style="fill: #5a5758; stroke: #5a5758; stroke-width: 0.8"/>
      </g>
     </g>
     <g id="text_8">
      <!-- -0.2 -->
      <g style="fill: #5a5758" transform="translate(30.716563 295.722114) scale(0.14994 -0.14994)">
       <defs>
        <path id="CMUBright-Roman-2d" d="M 70 1350 
L 70 1670 
L 1862 1670 
L 1862 1350 
L 70 1350 
z
" transform="scale(0.015625)"/>
       </defs>
       <use xlink:href="#CMUBright-Roman-2d"/>
       <use xlink:href="#CMUBright-Roman-30" x="34.999985"/>
       <use xlink:href="#CMUBright-Roman-2e" x="87.499969"/>
       <use xlink:href="#CMUBright-Roman-32" x="116.699966"/>
      </g>
     </g>
    </g>
    <g id="ytick_2">
     <g id="line2d_8">
      <g>
       <use xlink:href="#mf0cd3af0b3" x="63.086879" y="258.845914" style="fill: #5a5758; stroke: #5a5758; stroke-width: 0.8"/>
      </g>
     </g>
     <g id="text_9">
      <!-- -0.1 -->
      <g style="fill: #5a5758" transform="translate(30.716563 264.056329) scale(0.14994 -0.14994)">
       <use xlink:href="#CMUBright-Roman-2d"/>
       <use xlink:href="#CMUBright-Roman-30" x="34.999985"/>
       <use xlink:href="#CMUBright-Roman-2e" x="87.499969"/>
       <use xlink:href="#CMUBright-Roman-31" x="116.699966"/>
      </g>
     </g>
    </g>
    <g id="ytick_3">
     <g id="line2d_9">
      <g>
       <use xlink:href="#mf0cd3af0b3" x="63.086879" y="227.18013" style="fill: #5a5758; stroke: #5a5758; stroke-width: 0.8"/>
      </g>
     </g>
     <g id="text_10">
      <!-- 0.0 -->
      <g style="fill: #5a5758" transform="translate(35.964463 232.390545) scale(0.14994 -0.14994)">
       <use xlink:href="#CMUBright-Roman-30"/>
       <use xlink:href="#CMUBright-Roman-2e" x="52.499985"/>
       <use xlink:href="#CMUBright-Roman-30" x="81.699982"/>
      </g>
     </g>
    </g>
    <g id="ytick_4">
     <g id="line2d_10">
      <g>
       <use xlink:href="#mf0cd3af0b3" x="63.086879" y="195.514346" style="fill: #5a5758; stroke: #5a5758; stroke-width: 0.8"/>
      </g>
     </g>
     <g id="text_11">
      <!-- 0.1 -->
      <g style="fill: #5a5758" transform="translate(35.964463 200.724761) scale(0.14994 -0.14994)">
       <use xlink:href="#CMUBright-Roman-30"/>
       <use xlink:href="#CMUBright-Roman-2e" x="52.499985"/>
       <use xlink:href="#CMUBright-Roman-31" x="81.699982"/>
      </g>
     </g>
    </g>
    <g id="ytick_5">
     <g id="line2d_11">
      <g>
       <use xlink:href="#mf0cd3af0b3" x="63.086879" y="163.848561" style="fill: #5a5758; stroke: #5a5758; stroke-width: 0.8"/>
      </g>
     </g>
     <g id="text_12">
      <!-- 0.2 -->
      <g style="fill: #5a5758" transform="translate(35.964463 169.058976) scale(0.14994 -0.14994)">
       <use xlink:href="#CMUBright-Roman-30"/>
       <use xlink:href="#CMUBright-Roman-2e" x="52.499985"/>
       <use xlink:href="#CMUBright-Roman-32" x="81.699982"/>
      </g>
     </g>
    </g>
    <g id="ytick_6">
     <g id="line2d_12">
      <g>
       <use xlink:href="#mf0cd3af0b3" x="63.086879" y="132.182777" style="fill: #5a5758; stroke: #5a5758; stroke-width: 0.8"/>
      </g>
     </g>
     <g id="text_13">
      <!-- 0.3 -->
      <g style="fill: #5a5758" transform="translate(35.964463 137.393192) scale(0.14994 -0.14994)">
       <defs>
        <path id="CMUBright-Roman-33" d="M 282 653 
Q 282 666 285 685 
Q 288 704 304 774 
Q 320 845 339 941 
Q 557 640 861 464 
Q 1165 288 1341 256 
Q 1517 224 1683 224 
Q 2112 224 2368 486 
Q 2624 749 2624 1165 
Q 2624 1574 2381 1824 
Q 2138 2074 1773 2099 
L 1555 2106 
L 1114 2106 
L 1114 2426 
Q 1709 2470 1862 2528 
Q 2099 2618 2281 2838 
Q 2464 3059 2464 3360 
Q 2464 3642 2256 3811 
Q 2048 3981 1702 3981 
Q 973 3981 570 3258 
L 371 3539 
Q 845 4301 1702 4301 
Q 2202 4301 2544 4025 
Q 2886 3750 2886 3360 
Q 2886 3059 2704 2761 
Q 2522 2464 2106 2272 
Q 2579 2144 2825 1833 
Q 3072 1523 3072 1158 
Q 3072 666 2685 278 
Q 2298 -109 1690 -109 
Q 1402 -109 1126 -9 
Q 851 90 675 221 
Q 499 352 390 473 
Q 282 595 282 653 
z
" transform="scale(0.015625)"/>
       </defs>
       <use xlink:href="#CMUBright-Roman-30"/>
       <use xlink:href="#CMUBright-Roman-2e" x="52.499985"/>
       <use xlink:href="#CMUBright-Roman-33" x="81.699982"/>
      </g>
     </g>
    </g>
    <g id="ytick_7">
     <g id="line2d_13">
      <g>
       <use xlink:href="#mf0cd3af0b3" x="63.086879" y="100.516992" style="fill: #5a5758; stroke: #5a5758; stroke-width: 0.8"/>
      </g>
     </g>
     <g id="text_14">
      <!-- 0.4 -->
      <g style="fill: #5a5758" transform="translate(35.964463 105.727407) scale(0.14994 -0.14994)">
       <use xlink:href="#CMUBright-Roman-30"/>
       <use xlink:href="#CMUBright-Roman-2e" x="52.499985"/>
       <use xlink:href="#CMUBright-Roman-34" x="81.699982"/>
      </g>
     </g>
    </g>
    <g id="ytick_8">
     <g id="line2d_14">
      <g>
       <use xlink:href="#mf0cd3af0b3" x="63.086879" y="68.851208" style="fill: #5a5758; stroke: #5a5758; stroke-width: 0.8"/>
      </g>
     </g>
     <g id="text_15">
      <!-- 0.5 -->
      <g style="fill: #5a5758" transform="translate(35.964463 74.061623) scale(0.14994 -0.14994)">
       <defs>
        <path id="CMUBright-Roman-35" d="M 301 518 
L 486 819 
Q 896 224 1581 224 
Q 1971 224 2268 473 
Q 2566 723 2566 1312 
Q 2566 1626 2489 1846 
Q 2413 2067 2285 2176 
Q 2157 2285 2032 2329 
Q 1907 2374 1773 2374 
Q 1210 2374 941 1901 
L 582 1901 
L 582 4192 
L 2797 4192 
L 2797 3853 
L 973 3853 
L 973 2381 
Q 1325 2701 1779 2701 
Q 2285 2701 2653 2291 
Q 3021 1882 3021 1306 
Q 3021 723 2601 307 
Q 2182 -109 1574 -109 
Q 813 -109 301 518 
z
" transform="scale(0.015625)"/>
       </defs>
       <use xlink:href="#CMUBright-Roman-30"/>
       <use xlink:href="#CMUBright-Roman-2e" x="52.499985"/>
       <use xlink:href="#CMUBright-Roman-35" x="81.699982"/>
      </g>
     </g>
    </g>
    <g id="ytick_9">
     <g id="line2d_15">
      <g>
       <use xlink:href="#mf0cd3af0b3" x="63.086879" y="37.185423" style="fill: #5a5758; stroke: #5a5758; stroke-width: 0.8"/>
      </g>
     </g>
     <g id="text_16">
      <!-- 0.6 -->
      <g style="fill: #5a5758" transform="translate(35.964463 42.395838) scale(0.14994 -0.14994)">
       <use xlink:href="#CMUBright-Roman-30"/>
       <use xlink:href="#CMUBright-Roman-2e" x="52.499985"/>
       <use xlink:href="#CMUBright-Roman-36" x="81.699982"/>
      </g>
     </g>
    </g>
    <g id="text_17">
     <!-- $y$ -->
     <g style="fill: #5a5758" transform="translate(19.476563 154.91883) rotate(-90) scale(0.18 -0.18)">
      <defs>
       <path id="CMUBright-SemiBold-79" d="M 90 3021 
L 704 3021 
Q 1344 1344 1440 979 
Q 1485 787 1510 614 
Q 1536 979 2138 2733 
Q 2208 2925 2240 3021 
L 2835 3021 
L 1722 -128 
Q 1562 -576 1331 -848 
Q 1101 -1120 685 -1120 
Q 538 -1120 205 -1075 
L 154 -544 
Q 480 -640 691 -640 
Q 749 -640 797 -630 
Q 845 -621 883 -608 
Q 922 -595 960 -563 
Q 998 -531 1020 -512 
Q 1043 -493 1075 -441 
Q 1107 -390 1120 -368 
Q 1133 -346 1158 -282 
Q 1184 -218 1193 -195 
Q 1203 -173 1228 -96 
Q 1254 -19 1261 0 
L 90 3021 
z
" transform="scale(0.015625)"/>
      </defs>
      <use xlink:href="#CMUBright-SemiBold-79" transform="translate(0 0.796875)"/>
     </g>
    </g>
   </g>
   <g id="line2d_16">
    <path d="M 75.086879 168.199373 
L 78.104708 162.584874 
L 81.122538 157.479616 
L 84.140367 152.837112 
L 87.158196 148.61337 
L 90.176026 144.766831 
L 93.193855 141.258316 
L 96.588913 137.669486 
L 99.983971 134.412853 
L 103.756257 131.128767 
L 107.528544 128.141283 
L 111.678059 125.135293 
L 116.582032 121.878462 
L 122.240462 118.4065 
L 129.785035 114.060679 
L 152.041526 101.407662 
L 160.717785 96.129728 
L 169.771273 90.358723 
L 183.351505 81.392352 
L 195.045593 73.764518 
L 201.835709 69.585686 
L 207.494139 66.348854 
L 212.398112 63.784219 
L 216.924856 61.659814 
L 221.074371 59.951823 
L 224.846658 58.624198 
L 228.618944 57.534485 
L 232.014002 56.775783 
L 235.40906 56.244178 
L 238.804118 55.955438 
L 241.821947 55.915043 
L 244.839777 56.089006 
L 247.857606 56.487288 
L 250.875435 57.119386 
L 253.893265 57.994282 
L 256.911094 59.120383 
L 259.928923 60.505473 
L 262.946752 62.156651 
L 265.964582 64.080284 
L 268.982411 66.281945 
L 272.00024 68.766368 
L 275.01807 71.537383 
L 278.035899 74.597871 
L 281.053728 77.949702 
L 284.448786 82.069724 
L 287.843844 86.558929 
L 291.238902 91.41489 
L 294.63396 96.633194 
L 298.406247 102.848305 
L 302.178533 109.490606 
L 306.328048 117.271854 
L 310.477564 125.52525 
L 315.004308 135.030315 
L 319.90828 145.86231 
L 325.189482 158.066613 
L 331.602369 173.483041 
L 340.278628 194.985771 
L 352.727174 225.808733 
L 358.385604 239.204837 
L 362.912348 249.377418 
L 366.684634 257.358497 
L 370.079692 264.067118 
L 373.097522 269.58772 
L 376.115351 274.631693 
L 378.755951 278.606686 
L 381.019323 281.654509 
L 383.282695 284.341533 
L 385.168839 286.284535 
L 387.054982 287.940146 
L 388.941125 289.290889 
L 390.45004 290.139937 
L 391.958955 290.772997 
L 393.467869 291.180473 
L 394.976784 291.352577 
L 396.485699 291.279325 
L 397.994613 290.950534 
L 399.503528 290.355819 
L 401.012442 289.484597 
L 402.521357 288.326079 
L 404.030272 286.869272 
L 405.539186 285.102977 
L 407.048101 283.015784 
L 408.557016 280.596077 
L 410.443159 277.085801 
L 412.329302 273.013894 
L 414.215446 268.356254 
L 416.101589 263.088248 
L 417.987732 257.184706 
L 419.873876 250.619915 
L 422.137247 241.832304 
L 424.400619 232.008223 
L 426.663991 221.100086 
L 428.927363 209.059135 
L 431.190735 195.835428 
L 433.454107 181.377825 
L 435.717479 165.633977 
L 438.35808 145.568944 
L 440.998681 123.59302 
L 443.639281 99.61669 
L 446.279882 73.548089 
L 448.920482 45.292982 
L 451.561083 14.754732 
L 451.938312 10.2 
L 451.938312 10.2 
" style="fill: none; stroke: #e29400; stroke-width: 2; stroke-linecap: square"/>
   </g>
   <g id="line2d_17">
    <defs>
     <path id="m9e12f758fe" d="M 0 3 
C 0.795609 3 1.55874 2.683901 2.12132 2.12132 
C 2.683901 1.55874 3 0.795609 3 0 
C 3 -0.795609 2.683901 -1.55874 2.12132 -2.12132 
C 1.55874 -2.683901 0.795609 -3 0 -3 
C -0.795609 -3 -1.55874 -2.683901 -2.12132 -2.12132 
C -2.683901 -1.55874 -3 -0.795609 -3 0 
C -3 0.795609 -2.683901 1.55874 -2.12132 2.12132 
C -1.55874 2.683901 -0.795609 3 0 3 
z
" style="stroke: #ffffff"/>
    </defs>
    <g>
     <use xlink:href="#m9e12f758fe" x="75.086879" y="168.199373" style="fill: #1e90ff; stroke: #ffffff"/>
     <use xlink:href="#m9e12f758fe" x="123.343393" y="117.755615" style="fill: #1e90ff; stroke: #ffffff"/>
     <use xlink:href="#m9e12f758fe" x="151.817355" y="101.540597" style="fill: #1e90ff; stroke: #ffffff"/>
     <use xlink:href="#m9e12f758fe" x="233.223176" y="56.559584" style="fill: #1e90ff; stroke: #ffffff"/>
     <use xlink:href="#m9e12f758fe" x="293.234658" y="94.438899" style="fill: #1e90ff; stroke: #ffffff"/>
     <use xlink:href="#m9e12f758fe" x="451.938312" y="10.2" style="fill: #1e90ff; stroke: #ffffff"/>
    </g>
   </g>
   <g id="patch_3">
    <path d="M 63.086879 291.357661 
L 63.086879 10.2 
" style="fill: none; stroke: #5a5758; stroke-width: 0.8; stroke-linejoin: miter; stroke-linecap: square"/>
   </g>
   <g id="patch_4">
    <path d="M 75.086879 303.357661 
L 451.938312 303.357661 
" style="fill: none; stroke: #5a5758; stroke-width: 0.8; stroke-linejoin: miter; stroke-linecap: square"/>
   </g>
   <g id="legend_1">
    <g id="line2d_18">
     <path d="M 91.286879 240.254536 
L 109.286879 240.254536 
L 127.286879 240.254536 
" style="fill: none; stroke: #e29400; stroke-width: 2; stroke-linecap: square"/>
    </g>
    <g id="text_18">
     <!-- P(x) -->
     <g style="fill: #e29400" transform="translate(141.686879 246.554536) scale(0.18 -0.18)">
      <defs>
       <path id="CMUBright-Roman-50" d="M 627 0 
L 627 4448 
L 2150 4448 
Q 2739 4448 3155 4218 
Q 3475 4038 3654 3756 
Q 3834 3475 3834 3162 
Q 3834 2957 3741 2745 
Q 3648 2534 3462 2336 
Q 3277 2138 2937 2013 
Q 2598 1888 2163 1888 
L 1075 1888 
L 1075 0 
L 627 0 
z
M 1069 2221 
L 2080 2221 
Q 2477 2221 2758 2310 
Q 3040 2400 3171 2553 
Q 3302 2707 3356 2851 
Q 3411 2995 3411 3162 
Q 3411 3322 3356 3469 
Q 3302 3616 3168 3769 
Q 3034 3923 2755 4012 
Q 2477 4102 2080 4102 
L 1069 4102 
L 1069 2221 
z
" transform="scale(0.015625)"/>
       <path id="CMUBright-Roman-28" d="M 582 1690 
Q 582 3731 1914 4800 
L 2234 4800 
Q 1926 4512 1773 4314 
Q 992 3296 992 1702 
Q 992 -288 2202 -1395 
Q 2227 -1414 2234 -1421 
L 1914 -1421 
Q 1242 -877 912 -70 
Q 582 736 582 1690 
z
" transform="scale(0.015625)"/>
       <path id="CMUBright-Roman-78" d="M 0 0 
L 1261 1555 
L 1261 1562 
L 38 3021 
L 499 3021 
L 1446 1850 
L 2362 3021 
L 2816 3021 
L 1626 1555 
L 2931 0 
L 2470 0 
L 1446 1325 
L 1440 1325 
L 454 0 
L 0 0 
z
" transform="scale(0.015625)"/>
       <path id="CMUBright-Roman-29" d="M 371 -1421 
Q 762 -1069 986 -717 
Q 1613 262 1613 1702 
Q 1613 3693 410 4768 
Q 378 4794 371 4800 
L 691 4800 
Q 1363 4262 1692 3459 
Q 2022 2656 2022 1702 
Q 2022 813 1715 -16 
Q 1408 -845 691 -1421 
L 371 -1421 
z
" transform="scale(0.015625)"/>
      </defs>
      <use xlink:href="#CMUBright-Roman-50"/>
      <use xlink:href="#CMUBright-Roman-28" x="65.799988"/>
      <use xlink:href="#CMUBright-Roman-78" x="106.599976"/>
      <use xlink:href="#CMUBright-Roman-29" x="152.399963"/>
     </g>
    </g>
    <g id="line2d_19">
     <g>
      <use xlink:href="#m9e12f758fe" x="109.286879" y="265.851098" style="fill: #1e90ff; stroke: #ffffff"/>
     </g>
    </g>
    <g id="text_19">
     <!-- Datapoints -->
     <g style="fill: #1e90ff" transform="translate(141.686879 272.151098) scale(0.18 -0.18)">
      <defs>
       <path id="CMUBright-Roman-44" d="M 627 0 
L 627 4448 
L 2253 4448 
Q 2778 4448 3200 4240 
Q 3622 4032 3875 3696 
Q 4128 3360 4262 2973 
Q 4397 2586 4397 2189 
Q 4397 1312 3853 704 
Q 3309 96 2560 13 
Q 2451 0 2227 0 
L 627 0 
z
M 1069 339 
L 2144 339 
Q 2560 339 2886 460 
Q 3213 582 3411 771 
Q 3610 960 3734 1213 
Q 3859 1466 3907 1702 
Q 3955 1939 3955 2189 
Q 3955 2445 3907 2688 
Q 3859 2931 3734 3193 
Q 3610 3456 3411 3651 
Q 3213 3846 2886 3974 
Q 2560 4102 2144 4102 
L 1069 4102 
L 1069 339 
z
" transform="scale(0.015625)"/>
       <path id="CMUBright-Roman-61" d="M 352 736 
Q 352 896 435 1046 
Q 518 1197 707 1347 
Q 896 1498 1283 1590 
Q 1670 1683 2214 1696 
L 2214 1965 
Q 2214 2381 2042 2579 
Q 1856 2803 1568 2803 
Q 1331 2803 1107 2736 
Q 883 2669 809 2624 
Q 736 2579 557 2470 
L 525 2829 
Q 1043 3104 1574 3104 
Q 2054 3104 2326 2806 
Q 2598 2509 2624 2144 
L 2630 1926 
L 2630 0 
L 2227 0 
L 2227 442 
Q 1830 -51 1107 -51 
L 1062 -51 
Q 710 -51 531 205 
Q 352 461 352 736 
z
M 749 749 
Q 749 518 950 393 
Q 1152 269 1408 269 
Q 1523 269 1644 297 
Q 1766 326 1904 390 
Q 2042 454 2128 595 
Q 2214 736 2214 928 
L 2214 1498 
Q 1568 1491 1158 1286 
Q 749 1082 749 749 
z
" transform="scale(0.015625)"/>
       <path id="CMUBright-Roman-74" d="M 122 2701 
L 122 3021 
L 736 3021 
L 736 3885 
L 1126 3885 
L 1126 3021 
L 2118 3021 
L 2118 2701 
L 1126 2701 
L 1126 883 
Q 1126 282 1491 282 
Q 1568 282 1638 291 
Q 1709 301 1769 323 
Q 1830 346 1878 365 
Q 1926 384 1974 416 
Q 2022 448 2048 464 
Q 2074 480 2109 512 
Q 2144 544 2150 544 
L 2234 230 
Q 1779 -51 1261 -51 
Q 730 -51 730 838 
L 730 2701 
L 122 2701 
z
" transform="scale(0.015625)"/>
       <path id="CMUBright-Roman-70" d="M 512 -1069 
L 512 3021 
L 915 3021 
L 915 2586 
Q 1318 3072 1888 3072 
Q 2355 3072 2678 2621 
Q 3002 2170 3002 1523 
Q 3002 826 2621 387 
Q 2240 -51 1754 -51 
Q 1530 -51 1328 61 
Q 1126 173 1075 237 
Q 1024 301 928 422 
L 928 -1069 
L 512 -1069 
z
M 928 832 
Q 928 634 1110 451 
Q 1293 269 1555 269 
Q 1971 269 2281 630 
Q 2592 992 2592 1517 
Q 2592 2022 2304 2384 
Q 2016 2746 1619 2746 
Q 1286 2746 1056 2490 
Q 960 2368 944 2333 
Q 928 2298 928 2189 
L 928 832 
z
" transform="scale(0.015625)"/>
       <path id="CMUBright-Roman-6f" d="M 256 1510 
Q 256 2182 675 2640 
Q 1094 3098 1677 3098 
Q 2272 3098 2681 2627 
Q 3091 2157 3091 1510 
Q 3091 838 2668 393 
Q 2246 -51 1677 -51 
Q 1088 -51 672 406 
Q 256 864 256 1510 
z
M 666 1587 
Q 666 1190 771 915 
Q 877 640 1046 512 
Q 1216 384 1369 333 
Q 1523 282 1677 282 
Q 1843 282 2006 342 
Q 2170 403 2330 537 
Q 2490 672 2586 937 
Q 2682 1203 2682 1568 
Q 2682 1914 2586 2163 
Q 2490 2413 2330 2541 
Q 2170 2669 2006 2723 
Q 1843 2778 1676 2778 
Q 1510 2778 1347 2723 
Q 1184 2669 1024 2544 
Q 864 2419 765 2172 
Q 666 1926 666 1587 
z
" transform="scale(0.015625)"/>
       <path id="CMUBright-Roman-69" d="M 509 4019 
L 509 4422 
L 912 4422 
L 912 4019 
L 509 4019 
z
M 512 0 
L 512 3021 
L 915 3021 
L 915 0 
L 512 0 
z
" transform="scale(0.015625)"/>
       <path id="CMUBright-Roman-6e" d="M 512 0 
L 512 3021 
L 909 3021 
L 909 2400 
Q 1030 2682 1273 2877 
Q 1517 3072 1869 3072 
Q 2125 3072 2307 2992 
Q 2490 2912 2579 2809 
Q 2669 2707 2720 2540 
Q 2771 2374 2777 2272 
Q 2784 2170 2784 2016 
L 2784 0 
L 2374 0 
L 2374 1990 
Q 2374 2106 2371 2176 
Q 2368 2246 2329 2368 
Q 2291 2490 2220 2563 
Q 2150 2637 2006 2694 
Q 1862 2752 1658 2752 
Q 1370 2752 1149 2518 
Q 928 2285 928 1677 
L 928 0 
L 512 0 
z
" transform="scale(0.015625)"/>
       <path id="CMUBright-Roman-73" d="M 186 250 
L 250 621 
Q 787 282 1325 282 
Q 1715 282 1881 442 
Q 2048 602 2048 806 
Q 2048 998 1910 1120 
Q 1773 1242 1606 1299 
Q 1536 1318 1235 1372 
Q 934 1427 726 1523 
Q 518 1619 371 1818 
Q 224 2022 224 2253 
Q 224 2400 272 2531 
Q 320 2662 429 2800 
Q 538 2938 765 3021 
Q 992 3104 1312 3104 
L 1331 3104 
Q 1818 3104 2304 2886 
L 2240 2534 
Q 1747 2784 1267 2784 
Q 890 2784 742 2633 
Q 595 2483 595 2304 
Q 595 2163 697 2038 
Q 800 1914 998 1856 
Q 1037 1843 1344 1782 
Q 1651 1722 1760 1683 
Q 2029 1587 2224 1372 
Q 2419 1158 2419 845 
Q 2419 499 2172 224 
Q 1926 -51 1331 -51 
Q 736 -51 186 250 
z
" transform="scale(0.015625)"/>
      </defs>
      <use xlink:href="#CMUBright-Roman-44"/>
      <use xlink:href="#CMUBright-Roman-61" x="74.599991"/>
      <use xlink:href="#CMUBright-Roman-74" x="123.799988"/>
      <use xlink:href="#CMUBright-Roman-61" x="161.699982"/>
      <use xlink:href="#CMUBright-Roman-70" x="210.899979"/>
      <use xlink:href="#CMUBright-Roman-6f" x="262.599976"/>
      <use xlink:href="#CMUBright-Roman-69" x="315.09996"/>
      <use xlink:href="#CMUBright-Roman-6e" x="337.599945"/>
      <use xlink:href="#CMUBright-Roman-74" x="389.299942"/>
      <use xlink:href="#CMUBright-Roman-73" x="427.199936"/>
     </g>
    </g>
   </g>
  </g>
 </g>
</svg>