<?xml version="1.0" encoding="utf-8" standalone="no"?>
<!DOCTYPE svg PUBLIC "-//W3C//DTD SVG 1.1//EN"
  "http://www.w3.org/Graphics/SVG/1.1/DTD/svg11.dtd">
<svg xmlns:xlink="http://www.w3.org/1999/xlink" width="469.19952pt" height="353.99952pt" viewBox="0 0 469.19952 353.99952" xmlns="http://www.w3.org/2000/svg" version="1.1">
 <metadata>
  <rdf:RDF xmlns:dc="http://purl.org/dc/elements/1.1/" xmlns:cc="http://creativecommons.org/ns#" xmlns:rdf="http://www.w3.org/1999/02/22-rdf-syntax-ns#">
   <cc:Work>
    <dc:type rdf:resource="http://purl.org/dc/dcmitype/StillImage"/>
    <dc:date>2024-09-30T14:47:46.194888</dc:date>
    <dc:format>image/svg+xml</dc:format>
    <dc:creator>
     <cc:Agent>
      <dc:title>Matplotlib v3.9.2, https://matplotlib.org/</dc:title>
     </cc:Agent>
    </dc:creator>
   </cc:Work>
  </rdf:RDF>
 </metadata>
 <defs>
  <style type="text/css">*{stroke-linejoin: round; stroke-linecap: butt}</style>
 </defs>
 <g id="figure_1">
  <g id="patch_1">
   <path d="M 0 353.99952 
L 469.19952 353.99952 
L 469.19952 0 
L 0 0 
z
" style="fill: #ffffff"/>
  </g>
  <g id="axes_1">
   <g id="patch_2">
    <path d="M 57.588412 291.357661 
L 458.063595 291.357661 
L 458.063595 12.410415 
L 57.588412 12.410415 
z
" style="fill: #ffffff"/>
   </g>
   <g id="matplotlib.axis_1">
    <g id="xtick_1">
     <g id="line2d_1">
      <defs>
       <path id="m20c4d6ccc2" d="M 0 0 
L 0 3.5 
" style="stroke: #5a5758; stroke-width: 0.8"/>
      </defs>
      <g>
       <use xlink:href="#m20c4d6ccc2" x="57.588412" y="303.357661" style="fill: #5a5758; stroke: #5a5758; stroke-width: 0.8"/>
      </g>
     </g>
     <g id="text_1">
      <!-- 0 -->
      <g style="fill: #5a5758" transform="translate(53.652487 320.778491) scale(0.14994 -0.14994)">
       <defs>
        <path id="CMUBright-Roman-30" d="M 333 1984 
L 333 2086 
Q 333 2291 339 2438 
Q 346 2586 371 2832 
Q 397 3078 461 3267 
Q 525 3456 621 3657 
Q 717 3859 880 4006 
Q 1043 4154 1261 4230 
Q 1446 4301 1677 4301 
Q 1856 4301 2025 4256 
Q 2195 4211 2380 4070 
Q 2566 3930 2704 3709 
Q 2842 3488 2931 3104 
Q 3021 2720 3021 2214 
Q 3021 1683 2982 1347 
Q 2944 1011 2803 685 
Q 2618 250 2307 70 
Q 1997 -109 1677 -109 
Q 1498 -109 1328 -64 
Q 1158 -19 972 121 
Q 787 262 649 483 
Q 512 704 422 1091 
Q 333 1478 333 1984 
z
M 742 2413 
Q 742 2374 745 2326 
Q 749 2278 749 2272 
L 749 2150 
Q 749 1779 758 1548 
Q 768 1318 838 1014 
Q 909 710 1037 538 
Q 1286 218 1677 218 
Q 2086 218 2330 557 
Q 2451 730 2518 1037 
Q 2586 1344 2595 1568 
Q 2605 1792 2605 2163 
L 2605 2272 
Q 2605 2278 2608 2323 
Q 2611 2368 2611 2406 
Q 2611 3302 2336 3661 
Q 2099 3981 1677 3981 
Q 1242 3981 1005 3642 
Q 742 3264 742 2413 
z
" transform="scale(0.015625)"/>
       </defs>
       <use xlink:href="#CMUBright-Roman-30"/>
      </g>
     </g>
    </g>
    <g id="xtick_2">
     <g id="line2d_2">
      <g>
       <use xlink:href="#m20c4d6ccc2" x="458.063595" y="303.357661" style="fill: #5a5758; stroke: #5a5758; stroke-width: 0.8"/>
      </g>
     </g>
     <g id="text_2">
      <!-- 2 -->
      <g style="fill: #5a5758" transform="translate(454.12767 320.778491) scale(0.14994 -0.14994)">
       <defs>
        <path id="CMUBright-Roman-32" d="M 275 3226 
Q 595 4301 1587 4301 
L 1594 4301 
Q 2214 4294 2617 3923 
Q 3021 3552 3021 2989 
Q 3021 2746 2937 2531 
Q 2854 2317 2668 2115 
Q 2483 1914 2384 1821 
Q 2285 1728 2061 1549 
Q 1754 1299 1642 1203 
Q 1530 1107 698 358 
L 3021 358 
L 3021 0 
L 333 0 
L 333 339 
L 1683 1562 
Q 2144 1965 2368 2278 
Q 2592 2592 2592 2982 
Q 2592 3418 2278 3690 
Q 1965 3962 1498 3962 
Q 1069 3962 854 3693 
Q 640 3424 512 2938 
L 275 3226 
z
" transform="scale(0.015625)"/>
       </defs>
       <use xlink:href="#CMUBright-Roman-32"/>
      </g>
     </g>
    </g>
    <g id="text_3">
     <!-- $x$ -->
     <g style="fill: #5a5758" transform="translate(253.686004 343.792957) scale(0.18 -0.18)">
      <defs>
       <path id="CMUBright-SemiBold-78" d="M 0 0 
L 1184 1562 
L 1184 1568 
L 38 3021 
L 698 3021 
L 1446 2022 
L 2163 3021 
L 2816 3021 
L 1709 1568 
L 1709 1562 
L 2931 0 
L 2272 0 
L 1446 1197 
L 1440 1197 
L 653 0 
L 0 0 
z
" transform="scale(0.015625)"/>
      </defs>
      <use xlink:href="#CMUBright-SemiBold-78" transform="translate(0 0.796875)"/>
     </g>
    </g>
   </g>
   <g id="matplotlib.axis_2">
    <g id="ytick_1">
     <g id="line2d_3">
      <defs>
       <path id="m6973455a94" d="M 0 0 
L -3.5 0 
" style="stroke: #5a5758; stroke-width: 0.8"/>
      </defs>
      <g>
       <use xlink:href="#m6973455a94" x="45.588412" y="291.357661" style="fill: #5a5758; stroke: #5a5758; stroke-width: 0.8"/>
      </g>
     </g>
     <g id="text_4">
      <!-- 1 -->
      <g style="fill: #5a5758" transform="translate(30.716562 296.568076) scale(0.14994 -0.14994)">
       <defs>
        <path id="CMUBright-Roman-31" d="M 672 3558 
L 672 3885 
Q 1427 3885 1862 4301 
L 1965 4301 
L 1965 320 
L 2803 320 
L 2803 0 
L 710 0 
L 710 320 
L 1549 320 
L 1549 3744 
Q 1178 3558 672 3558 
z
" transform="scale(0.015625)"/>
       </defs>
       <use xlink:href="#CMUBright-Roman-31"/>
      </g>
     </g>
    </g>
    <g id="ytick_2">
     <g id="line2d_4">
      <g>
       <use xlink:href="#m6973455a94" x="45.588412" y="12.410415" style="fill: #5a5758; stroke: #5a5758; stroke-width: 0.8"/>
      </g>
     </g>
     <g id="text_5">
      <!-- 4 -->
      <g style="fill: #5a5758" transform="translate(30.716562 17.62083) scale(0.14994 -0.14994)">
       <defs>
        <path id="CMUBright-Roman-34" d="M 186 1158 
L 186 1504 
L 1952 4250 
L 2438 4250 
L 2438 1498 
L 3168 1498 
L 3168 1158 
L 2438 1158 
L 2438 0 
L 2035 0 
L 2035 1158 
L 186 1158 
z
M 602 1498 
L 2054 1498 
L 2054 3885 
Q 1971 3667 1606 3085 
L 602 1498 
z
" transform="scale(0.015625)"/>
       </defs>
       <use xlink:href="#CMUBright-Roman-34"/>
      </g>
     </g>
    </g>
    <g id="text_6">
     <!-- $T$ -->
     <g style="fill: #5a5758" transform="translate(19.71 158.454038) rotate(-90) scale(0.18 -0.18)">
      <defs>
       <path id="CMUBright-SemiBold-54" d="M 237 3910 
L 237 4416 
L 4390 4416 
L 4390 3910 
L 2650 3910 
L 2650 0 
L 1978 0 
L 1978 3910 
L 237 3910 
z
" transform="scale(0.015625)"/>
      </defs>
      <use xlink:href="#CMUBright-SemiBold-54"/>
     </g>
    </g>
   </g>
   <g id="line2d_5">
    <path d="M 57.588412 291.357661 
L 61.633616 286.148719 
L 65.67882 280.942184 
L 69.724024 275.740463 
L 73.769228 270.545956 
L 77.814432 265.361055 
L 81.859636 260.188146 
L 85.90484 255.029598 
L 89.950043 249.88777 
L 93.995247 244.765002 
L 98.040451 239.663614 
L 102.085655 234.585907 
L 106.130859 229.534155 
L 110.176063 224.510609 
L 114.221267 219.517489 
L 118.26647 214.556986 
L 122.311674 209.631258 
L 126.356878 204.742428 
L 130.402082 199.89258 
L 134.447286 195.083762 
L 138.49249 190.317978 
L 142.537694 185.597189 
L 146.582898 180.923313 
L 150.628101 176.298218 
L 154.673305 171.723723 
L 158.718509 167.201599 
L 162.763713 162.733561 
L 166.808917 158.321271 
L 170.854121 153.966335 
L 174.899325 149.6703 
L 178.944528 145.434656 
L 182.989732 141.26083 
L 187.034936 137.150188 
L 191.08014 133.104031 
L 195.125344 129.123596 
L 199.170548 125.210055 
L 203.215752 121.364511 
L 207.260955 117.587999 
L 211.306159 113.881484 
L 215.351363 110.245862 
L 219.396567 106.681956 
L 223.441771 103.190517 
L 227.486975 99.772224 
L 231.532179 96.427681 
L 235.577383 93.15742 
L 239.622586 89.961896 
L 243.66779 86.841489 
L 247.712994 83.796505 
L 251.758198 80.827172 
L 255.803402 77.933642 
L 259.848606 75.115993 
L 263.89381 72.374225 
L 267.939013 69.70826 
L 271.984217 67.117947 
L 276.029421 64.603055 
L 280.074625 62.163282 
L 284.119829 59.798245 
L 288.165033 57.507489 
L 292.210237 55.290485 
L 296.25544 53.146626 
L 300.300644 51.075234 
L 304.345848 49.075559 
L 308.391052 47.146776 
L 312.436256 45.28799 
L 316.48146 43.498236 
L 320.526664 41.776479 
L 324.571868 40.121615 
L 328.617071 38.532474 
L 332.662275 37.007819 
L 336.707479 35.546347 
L 340.752683 34.146694 
L 344.797887 32.80743 
L 348.843091 31.527068 
L 352.888295 30.30406 
L 356.933498 29.136801 
L 360.978702 28.023627 
L 365.023906 26.962823 
L 369.06911 25.952621 
L 373.114314 24.991199 
L 377.159518 24.07669 
L 381.204722 23.207176 
L 385.249925 22.380697 
L 389.295129 21.595246 
L 393.340333 20.848779 
L 397.385537 20.139209 
L 401.430741 19.464413 
L 405.475945 18.822235 
L 409.521149 18.210484 
L 413.566353 17.626937 
L 417.611556 17.069347 
L 421.65676 16.535437 
L 425.701964 16.022908 
L 429.747168 15.529438 
L 433.792372 15.052687 
L 437.837576 14.590299 
L 441.88278 14.139901 
L 445.927983 13.699111 
L 449.973187 13.265534 
L 454.018391 12.836771 
L 458.063595 12.410415 
" style="fill: none; stroke: #e29400; stroke-width: 2; stroke-linecap: square"/>
   </g>
   <g id="line2d_6">
    <path d="M 57.588412 291.357661 
L 191.08014 126.797349 
L 324.571867 33.814934 
L 458.063595 12.410415 
" style="fill: none; stroke: #1e90ff; stroke-width: 2; stroke-linecap: square"/>
    <defs>
     <path id="m012d191b1a" d="M 0 3 
C 0.795609 3 1.55874 2.683901 2.12132 2.12132 
C 2.683901 1.55874 3 0.795609 3 0 
C 3 -0.795609 2.683901 -1.55874 2.12132 -2.12132 
C 1.55874 -2.683901 0.795609 -3 0 -3 
C -0.795609 -3 -1.55874 -2.683901 -2.12132 -2.12132 
C -2.683901 -1.55874 -3 -0.795609 -3 0 
C -3 0.795609 -2.683901 1.55874 -2.12132 2.12132 
C -1.55874 2.683901 -0.795609 3 0 3 
z
" style="stroke: #ffffff"/>
    </defs>
    <g>
     <use xlink:href="#m012d191b1a" x="57.588412" y="291.357661" style="fill: #1e90ff; stroke: #ffffff"/>
     <use xlink:href="#m012d191b1a" x="191.08014" y="126.797349" style="fill: #1e90ff; stroke: #ffffff"/>
     <use xlink:href="#m012d191b1a" x="324.571867" y="33.814934" style="fill: #1e90ff; stroke: #ffffff"/>
     <use xlink:href="#m012d191b1a" x="458.063595" y="12.410415" style="fill: #1e90ff; stroke: #ffffff"/>
    </g>
   </g>
   <g id="patch_3">
    <path d="M 45.588412 291.357661 
L 45.588412 12.410415 
" style="fill: none; stroke: #5a5758; stroke-width: 0.8; stroke-linejoin: miter; stroke-linecap: square"/>
   </g>
   <g id="patch_4">
    <path d="M 57.588412 303.357661 
L 458.063595 303.357661 
" style="fill: none; stroke: #5a5758; stroke-width: 0.8; stroke-linejoin: miter; stroke-linecap: square"/>
   </g>
   <g id="legend_1">
    <g id="line2d_7">
     <path d="M 288.807345 241.244536 
L 306.807345 241.244536 
L 324.807345 241.244536 
" style="fill: none; stroke: #e29400; stroke-width: 2; stroke-linecap: square"/>
    </g>
    <g id="text_7">
     <!-- True solution -->
     <g style="fill: #e29400" transform="translate(339.207345 247.544536) scale(0.18 -0.18)">
      <defs>
       <path id="CMUBright-Roman-54" d="M 237 4090 
L 237 4429 
L 4390 4429 
L 4390 4090 
L 2541 4090 
L 2541 0 
L 2093 0 
L 2093 4090 
L 237 4090 
z
" transform="scale(0.015625)"/>
       <path id="CMUBright-Roman-72" d="M 512 0 
L 512 3021 
L 896 3021 
L 896 2534 
L 902 2234 
Q 954 2362 1043 2490 
Q 1133 2618 1273 2755 
Q 1414 2893 1632 2979 
Q 1850 3066 2112 3072 
L 2112 2714 
Q 1907 2707 1708 2643 
Q 1510 2579 1324 2444 
Q 1139 2310 1027 2070 
Q 915 1830 915 1510 
L 915 0 
L 512 0 
z
" transform="scale(0.015625)"/>
       <path id="CMUBright-Roman-75" d="M 512 851 
L 512 3021 
L 928 3021 
L 928 781 
Q 928 486 1037 368 
Q 1146 250 1517 250 
Q 1875 250 2124 477 
Q 2374 704 2374 1120 
L 2374 3021 
L 2784 3021 
L 2784 0 
L 2381 0 
L 2381 550 
Q 2214 269 1910 109 
Q 1606 -51 1254 -51 
Q 1005 -51 845 29 
Q 685 109 617 262 
Q 550 416 531 541 
Q 512 666 512 851 
z
" transform="scale(0.015625)"/>
       <path id="CMUBright-Roman-65" d="M 269 1536 
Q 269 2163 646 2630 
Q 1024 3098 1587 3098 
Q 1786 3098 1968 3037 
Q 2150 2976 2342 2829 
Q 2534 2682 2652 2365 
Q 2771 2048 2771 1600 
L 653 1600 
L 653 1549 
Q 653 966 966 617 
Q 1280 269 1690 269 
Q 2234 269 2726 710 
L 2758 358 
Q 2266 -51 1690 -51 
Q 1101 -51 685 406 
Q 269 864 269 1536 
z
M 685 1856 
L 2426 1856 
Q 2381 2342 2134 2560 
Q 1888 2778 1587 2778 
Q 1261 2778 1008 2515 
Q 755 2253 685 1856 
z
" transform="scale(0.015625)"/>
       <path id="CMUBright-Roman-20" transform="scale(0.015625)"/>
       <path id="CMUBright-Roman-73" d="M 186 250 
L 250 621 
Q 787 282 1325 282 
Q 1715 282 1881 442 
Q 2048 602 2048 806 
Q 2048 998 1910 1120 
Q 1773 1242 1606 1299 
Q 1536 1318 1235 1372 
Q 934 1427 726 1523 
Q 518 1619 371 1818 
Q 224 2022 224 2253 
Q 224 2400 272 2531 
Q 320 2662 429 2800 
Q 538 2938 765 3021 
Q 992 3104 1312 3104 
L 1331 3104 
Q 1818 3104 2304 2886 
L 2240 2534 
Q 1747 2784 1267 2784 
Q 890 2784 742 2633 
Q 595 2483 595 2304 
Q 595 2163 697 2038 
Q 800 1914 998 1856 
Q 1037 1843 1344 1782 
Q 1651 1722 1760 1683 
Q 2029 1587 2224 1372 
Q 2419 1158 2419 845 
Q 2419 499 2172 224 
Q 1926 -51 1331 -51 
Q 736 -51 186 250 
z
" transform="scale(0.015625)"/>
       <path id="CMUBright-Roman-6f" d="M 256 1510 
Q 256 2182 675 2640 
Q 1094 3098 1677 3098 
Q 2272 3098 2681 2627 
Q 3091 2157 3091 1510 
Q 3091 838 2668 393 
Q 2246 -51 1677 -51 
Q 1088 -51 672 406 
Q 256 864 256 1510 
z
M 666 1587 
Q 666 1190 771 915 
Q 877 640 1046 512 
Q 1216 384 1369 333 
Q 1523 282 1677 282 
Q 1843 282 2006 342 
Q 2170 403 2330 537 
Q 2490 672 2586 937 
Q 2682 1203 2682 1568 
Q 2682 1914 2586 2163 
Q 2490 2413 2330 2541 
Q 2170 2669 2006 2723 
Q 1843 2778 1676 2778 
Q 1510 2778 1347 2723 
Q 1184 2669 1024 2544 
Q 864 2419 765 2172 
Q 666 1926 666 1587 
z
" transform="scale(0.015625)"/>
       <path id="CMUBright-Roman-6c" d="M 512 0 
L 512 4448 
L 915 4448 
L 915 0 
L 512 0 
z
" transform="scale(0.015625)"/>
       <path id="CMUBright-Roman-74" d="M 122 2701 
L 122 3021 
L 736 3021 
L 736 3885 
L 1126 3885 
L 1126 3021 
L 2118 3021 
L 2118 2701 
L 1126 2701 
L 1126 883 
Q 1126 282 1491 282 
Q 1568 282 1638 291 
Q 1709 301 1769 323 
Q 1830 346 1878 365 
Q 1926 384 1974 416 
Q 2022 448 2048 464 
Q 2074 480 2109 512 
Q 2144 544 2150 544 
L 2234 230 
Q 1779 -51 1261 -51 
Q 730 -51 730 838 
L 730 2701 
L 122 2701 
z
" transform="scale(0.015625)"/>
       <path id="CMUBright-Roman-69" d="M 509 4019 
L 509 4422 
L 912 4422 
L 912 4019 
L 509 4019 
z
M 512 0 
L 512 3021 
L 915 3021 
L 915 0 
L 512 0 
z
" transform="scale(0.015625)"/>
       <path id="CMUBright-Roman-6e" d="M 512 0 
L 512 3021 
L 909 3021 
L 909 2400 
Q 1030 2682 1273 2877 
Q 1517 3072 1869 3072 
Q 2125 3072 2307 2992 
Q 2490 2912 2579 2809 
Q 2669 2707 2720 2540 
Q 2771 2374 2777 2272 
Q 2784 2170 2784 2016 
L 2784 0 
L 2374 0 
L 2374 1990 
Q 2374 2106 2371 2176 
Q 2368 2246 2329 2368 
Q 2291 2490 2220 2563 
Q 2150 2637 2006 2694 
Q 1862 2752 1658 2752 
Q 1370 2752 1149 2518 
Q 928 2285 928 1677 
L 928 0 
L 512 0 
z
" transform="scale(0.015625)"/>
      </defs>
      <use xlink:href="#CMUBright-Roman-54"/>
      <use xlink:href="#CMUBright-Roman-72" x="72.499985"/>
      <use xlink:href="#CMUBright-Roman-75" x="107.099976"/>
      <use xlink:href="#CMUBright-Roman-65" x="158.799973"/>
      <use xlink:href="#CMUBright-Roman-20" x="205.499969"/>
      <use xlink:href="#CMUBright-Roman-73" x="238.799957"/>
      <use xlink:href="#CMUBright-Roman-6f" x="278.999954"/>
      <use xlink:href="#CMUBright-Roman-6c" x="331.499939"/>
      <use xlink:href="#CMUBright-Roman-75" x="353.999924"/>
      <use xlink:href="#CMUBright-Roman-74" x="405.699921"/>
      <use xlink:href="#CMUBright-Roman-69" x="443.599915"/>
      <use xlink:href="#CMUBright-Roman-6f" x="466.099899"/>
      <use xlink:href="#CMUBright-Roman-6e" x="518.599884"/>
     </g>
    </g>
    <g id="line2d_8">
     <path d="M 288.807345 265.851098 
L 306.807345 265.851098 
L 324.807345 265.851098 
" style="fill: none; stroke: #1e90ff; stroke-width: 2; stroke-linecap: square"/>
     <g>
      <use xlink:href="#m012d191b1a" x="306.807345" y="265.851098" style="fill: #1e90ff; stroke: #ffffff"/>
     </g>
    </g>
    <g id="text_8">
     <!-- FD solution -->
     <g style="fill: #1e90ff" transform="translate(339.207345 272.151098) scale(0.18 -0.18)">
      <defs>
       <path id="CMUBright-Roman-46" d="M 627 0 
L 627 4435 
L 3533 4435 
L 3533 4096 
L 1075 4096 
L 1075 2387 
L 3251 2387 
L 3251 2048 
L 1075 2048 
L 1075 0 
L 627 0 
z
" transform="scale(0.015625)"/>
       <path id="CMUBright-Roman-44" d="M 627 0 
L 627 4448 
L 2253 4448 
Q 2778 4448 3200 4240 
Q 3622 4032 3875 3696 
Q 4128 3360 4262 2973 
Q 4397 2586 4397 2189 
Q 4397 1312 3853 704 
Q 3309 96 2560 13 
Q 2451 0 2227 0 
L 627 0 
z
M 1069 339 
L 2144 339 
Q 2560 339 2886 460 
Q 3213 582 3411 771 
Q 3610 960 3734 1213 
Q 3859 1466 3907 1702 
Q 3955 1939 3955 2189 
Q 3955 2445 3907 2688 
Q 3859 2931 3734 3193 
Q 3610 3456 3411 3651 
Q 3213 3846 2886 3974 
Q 2560 4102 2144 4102 
L 1069 4102 
L 1069 339 
z
" transform="scale(0.015625)"/>
      </defs>
      <use xlink:href="#CMUBright-Roman-46"/>
      <use xlink:href="#CMUBright-Roman-44" x="59.599991"/>
      <use xlink:href="#CMUBright-Roman-20" x="134.199982"/>
      <use xlink:href="#CMUBright-Roman-73" x="167.499969"/>
      <use xlink:href="#CMUBright-Roman-6f" x="207.699966"/>
      <use xlink:href="#CMUBright-Roman-6c" x="260.199951"/>
      <use xlink:href="#CMUBright-Roman-75" x="282.699936"/>
      <use xlink:href="#CMUBright-Roman-74" x="334.399933"/>
      <use xlink:href="#CMUBright-Roman-69" x="372.299927"/>
      <use xlink:href="#CMUBright-Roman-6f" x="394.799911"/>
      <use xlink:href="#CMUBright-Roman-6e" x="447.299896"/>
     </g>
    </g>
   </g>
  </g>
 </g>
</svg>