<?xml version="1.0" encoding="utf-8" standalone="no"?>
<!DOCTYPE svg PUBLIC "-//W3C//DTD SVG 1.1//EN"
  "http://www.w3.org/Graphics/SVG/1.1/DTD/svg11.dtd">
<svg xmlns:xlink="http://www.w3.org/1999/xlink" width="469.19952pt" height="353.99952pt" viewBox="0 0 469.19952 353.99952" xmlns="http://www.w3.org/2000/svg" version="1.1">
 <metadata>
  <rdf:RDF xmlns:dc="http://purl.org/dc/elements/1.1/" xmlns:cc="http://creativecommons.org/ns#" xmlns:rdf="http://www.w3.org/1999/02/22-rdf-syntax-ns#">
   <cc:Work>
    <dc:type rdf:resource="http://purl.org/dc/dcmitype/StillImage"/>
    <dc:date>2024-11-13T16:46:40.782964</dc:date>
    <dc:format>image/svg+xml</dc:format>
    <dc:creator>
     <cc:Agent>
      <dc:title>Matplotlib v3.9.2, https://matplotlib.org/</dc:title>
     </cc:Agent>
    </dc:creator>
   </cc:Work>
  </rdf:RDF>
 </metadata>
 <defs>
  <style type="text/css">*{stroke-linejoin: round; stroke-linecap: butt}</style>
 </defs>
 <g id="figure_1">
  <g id="patch_1">
   <path d="M 0 353.99952 
L 469.19952 353.99952 
L 469.19952 0 
L 0 0 
z
" style="fill: #ffffff"/>
  </g>
  <g id="axes_1">
   <g id="patch_2">
    <path d="M 80.3286 291.357661 
L 458.99952 291.357661 
L 458.99952 10.2 
L 80.3286 10.2 
z
" style="fill: #ffffff"/>
   </g>
   <g id="matplotlib.axis_1">
    <g id="xtick_1">
     <g id="line2d_1">
      <defs>
       <path id="m98d2b2b4c4" d="M 0 0 
L 0 3.5 
" style="stroke: #5a5758; stroke-width: 0.8"/>
      </defs>
      <g>
       <use xlink:href="#m98d2b2b4c4" x="207.786192" y="303.357661" style="fill: #5a5758; stroke: #5a5758; stroke-width: 0.8"/>
      </g>
     </g>
     <g id="text_1">
      <!-- $\mathdefault{10^{-2}}$ -->
      <g style="fill: #5a5758" transform="translate(193.541892 320.778491) scale(0.14994 -0.14994)">
       <defs>
        <path id="CMUBright-Roman-31" d="M 672 3558 
L 672 3885 
Q 1427 3885 1862 4301 
L 1965 4301 
L 1965 320 
L 2803 320 
L 2803 0 
L 710 0 
L 710 320 
L 1549 320 
L 1549 3744 
Q 1178 3558 672 3558 
z
" transform="scale(0.015625)"/>
        <path id="CMUBright-Roman-30" d="M 333 1984 
L 333 2086 
Q 333 2291 339 2438 
Q 346 2586 371 2832 
Q 397 3078 461 3267 
Q 525 3456 621 3657 
Q 717 3859 880 4006 
Q 1043 4154 1261 4230 
Q 1446 4301 1677 4301 
Q 1856 4301 2025 4256 
Q 2195 4211 2380 4070 
Q 2566 3930 2704 3709 
Q 2842 3488 2931 3104 
Q 3021 2720 3021 2214 
Q 3021 1683 2982 1347 
Q 2944 1011 2803 685 
Q 2618 250 2307 70 
Q 1997 -109 1677 -109 
Q 1498 -109 1328 -64 
Q 1158 -19 972 121 
Q 787 262 649 483 
Q 512 704 422 1091 
Q 333 1478 333 1984 
z
M 742 2413 
Q 742 2374 745 2326 
Q 749 2278 749 2272 
L 749 2150 
Q 749 1779 758 1548 
Q 768 1318 838 1014 
Q 909 710 1037 538 
Q 1286 218 1677 218 
Q 2086 218 2330 557 
Q 2451 730 2518 1037 
Q 2586 1344 2595 1568 
Q 2605 1792 2605 2163 
L 2605 2272 
Q 2605 2278 2608 2323 
Q 2611 2368 2611 2406 
Q 2611 3302 2336 3661 
Q 2099 3981 1677 3981 
Q 1242 3981 1005 3642 
Q 742 3264 742 2413 
z
" transform="scale(0.015625)"/>
        <path id="CMUBright-Roman-2212" d="M 378 1690 
Q 378 1856 602 1856 
L 3526 1856 
Q 3725 1850 3725 1690 
Q 3725 1530 3520 1530 
L 582 1530 
Q 378 1530 378 1690 
z
" transform="scale(0.015625)"/>
        <path id="CMUBright-Roman-32" d="M 275 3226 
Q 595 4301 1587 4301 
L 1594 4301 
Q 2214 4294 2617 3923 
Q 3021 3552 3021 2989 
Q 3021 2746 2937 2531 
Q 2854 2317 2668 2115 
Q 2483 1914 2384 1821 
Q 2285 1728 2061 1549 
Q 1754 1299 1642 1203 
Q 1530 1107 698 358 
L 3021 358 
L 3021 0 
L 333 0 
L 333 339 
L 1683 1562 
Q 2144 1965 2368 2278 
Q 2592 2592 2592 2982 
Q 2592 3418 2278 3690 
Q 1965 3962 1498 3962 
Q 1069 3962 854 3693 
Q 640 3424 512 2938 
L 275 3226 
z
" transform="scale(0.015625)"/>
       </defs>
       <use xlink:href="#CMUBright-Roman-31" transform="translate(0 0.915625)"/>
       <use xlink:href="#CMUBright-Roman-30" transform="translate(52.499985 0.915625)"/>
       <use xlink:href="#CMUBright-Roman-2212" transform="translate(105.826024 33.957813) scale(0.7)"/>
       <use xlink:href="#CMUBright-Roman-32" transform="translate(150.766022 33.957813) scale(0.7)"/>
      </g>
     </g>
    </g>
    <g id="xtick_2">
     <g id="line2d_2">
      <g>
       <use xlink:href="#m98d2b2b4c4" x="387.488702" y="303.357661" style="fill: #5a5758; stroke: #5a5758; stroke-width: 0.8"/>
      </g>
     </g>
     <g id="text_2">
      <!-- $\mathdefault{10^{-1}}$ -->
      <g style="fill: #5a5758" transform="translate(373.244402 320.778491) scale(0.14994 -0.14994)">
       <use xlink:href="#CMUBright-Roman-31" transform="translate(0 0.915625)"/>
       <use xlink:href="#CMUBright-Roman-30" transform="translate(52.499985 0.915625)"/>
       <use xlink:href="#CMUBright-Roman-2212" transform="translate(105.826024 33.957813) scale(0.7)"/>
       <use xlink:href="#CMUBright-Roman-31" transform="translate(150.766022 33.957813) scale(0.7)"/>
      </g>
     </g>
    </g>
    <g id="xtick_3">
     <g id="line2d_3">
      <defs>
       <path id="mc247dcc3f9" d="M 0 0 
L 0 2 
" style="stroke: #5a5758; stroke-width: 0.6"/>
      </defs>
      <g>
       <use xlink:href="#mc247dcc3f9" x="82.179528" y="303.357661" style="fill: #5a5758; stroke: #5a5758; stroke-width: 0.6"/>
      </g>
     </g>
    </g>
    <g id="xtick_4">
     <g id="line2d_4">
      <g>
       <use xlink:href="#mc247dcc3f9" x="113.823569" y="303.357661" style="fill: #5a5758; stroke: #5a5758; stroke-width: 0.6"/>
      </g>
     </g>
    </g>
    <g id="xtick_5">
     <g id="line2d_5">
      <g>
       <use xlink:href="#mc247dcc3f9" x="136.275374" y="303.357661" style="fill: #5a5758; stroke: #5a5758; stroke-width: 0.6"/>
      </g>
     </g>
    </g>
    <g id="xtick_6">
     <g id="line2d_6">
      <g>
       <use xlink:href="#mc247dcc3f9" x="153.690346" y="303.357661" style="fill: #5a5758; stroke: #5a5758; stroke-width: 0.6"/>
      </g>
     </g>
    </g>
    <g id="xtick_7">
     <g id="line2d_7">
      <g>
       <use xlink:href="#mc247dcc3f9" x="167.919415" y="303.357661" style="fill: #5a5758; stroke: #5a5758; stroke-width: 0.6"/>
      </g>
     </g>
    </g>
    <g id="xtick_8">
     <g id="line2d_8">
      <g>
       <use xlink:href="#mc247dcc3f9" x="179.949921" y="303.357661" style="fill: #5a5758; stroke: #5a5758; stroke-width: 0.6"/>
      </g>
     </g>
    </g>
    <g id="xtick_9">
     <g id="line2d_9">
      <g>
       <use xlink:href="#mc247dcc3f9" x="190.371219" y="303.357661" style="fill: #5a5758; stroke: #5a5758; stroke-width: 0.6"/>
      </g>
     </g>
    </g>
    <g id="xtick_10">
     <g id="line2d_10">
      <g>
       <use xlink:href="#mc247dcc3f9" x="199.563456" y="303.357661" style="fill: #5a5758; stroke: #5a5758; stroke-width: 0.6"/>
      </g>
     </g>
    </g>
    <g id="xtick_11">
     <g id="line2d_11">
      <g>
       <use xlink:href="#mc247dcc3f9" x="261.882038" y="303.357661" style="fill: #5a5758; stroke: #5a5758; stroke-width: 0.6"/>
      </g>
     </g>
    </g>
    <g id="xtick_12">
     <g id="line2d_12">
      <g>
       <use xlink:href="#mc247dcc3f9" x="293.526079" y="303.357661" style="fill: #5a5758; stroke: #5a5758; stroke-width: 0.6"/>
      </g>
     </g>
    </g>
    <g id="xtick_13">
     <g id="line2d_13">
      <g>
       <use xlink:href="#mc247dcc3f9" x="315.977883" y="303.357661" style="fill: #5a5758; stroke: #5a5758; stroke-width: 0.6"/>
      </g>
     </g>
    </g>
    <g id="xtick_14">
     <g id="line2d_14">
      <g>
       <use xlink:href="#mc247dcc3f9" x="333.392856" y="303.357661" style="fill: #5a5758; stroke: #5a5758; stroke-width: 0.6"/>
      </g>
     </g>
    </g>
    <g id="xtick_15">
     <g id="line2d_15">
      <g>
       <use xlink:href="#mc247dcc3f9" x="347.621925" y="303.357661" style="fill: #5a5758; stroke: #5a5758; stroke-width: 0.6"/>
      </g>
     </g>
    </g>
    <g id="xtick_16">
     <g id="line2d_16">
      <g>
       <use xlink:href="#mc247dcc3f9" x="359.652431" y="303.357661" style="fill: #5a5758; stroke: #5a5758; stroke-width: 0.6"/>
      </g>
     </g>
    </g>
    <g id="xtick_17">
     <g id="line2d_17">
      <g>
       <use xlink:href="#mc247dcc3f9" x="370.073729" y="303.357661" style="fill: #5a5758; stroke: #5a5758; stroke-width: 0.6"/>
      </g>
     </g>
    </g>
    <g id="xtick_18">
     <g id="line2d_18">
      <g>
       <use xlink:href="#mc247dcc3f9" x="379.265966" y="303.357661" style="fill: #5a5758; stroke: #5a5758; stroke-width: 0.6"/>
      </g>
     </g>
    </g>
    <g id="xtick_19">
     <g id="line2d_19">
      <g>
       <use xlink:href="#mc247dcc3f9" x="441.584547" y="303.357661" style="fill: #5a5758; stroke: #5a5758; stroke-width: 0.6"/>
      </g>
     </g>
    </g>
    <g id="text_3">
     <!-- $\Delta x$ -->
     <g style="fill: #5a5758" transform="translate(257.60406 343.792957) scale(0.18 -0.18)">
      <defs>
       <path id="CMUBright-SemiBold-394" d="M 275 0 
L 2419 4499 
L 3168 4499 
L 5312 0 
L 275 0 
z
M 1216 634 
L 4269 634 
L 2746 3834 
L 1216 634 
z
" transform="scale(0.015625)"/>
       <path id="CMUBright-SemiBold-78" d="M 0 0 
L 1184 1562 
L 1184 1568 
L 38 3021 
L 698 3021 
L 1446 2022 
L 2163 3021 
L 2816 3021 
L 1709 1568 
L 1709 1562 
L 2931 0 
L 2272 0 
L 1446 1197 
L 1440 1197 
L 653 0 
L 0 0 
z
" transform="scale(0.015625)"/>
      </defs>
      <use xlink:href="#CMUBright-SemiBold-394" transform="translate(0 0.703125)"/>
      <use xlink:href="#CMUBright-SemiBold-78" transform="translate(87.499985 0.703125)"/>
     </g>
    </g>
   </g>
   <g id="matplotlib.axis_2">
    <g id="ytick_1">
     <g id="line2d_20">
      <defs>
       <path id="m715d422fcb" d="M 0 0 
L -3.5 0 
" style="stroke: #5a5758; stroke-width: 0.8"/>
      </defs>
      <g>
       <use xlink:href="#m715d422fcb" x="68.3286" y="268.058592" style="fill: #5a5758; stroke: #5a5758; stroke-width: 0.8"/>
      </g>
     </g>
     <g id="text_4">
      <!-- $\mathdefault{10^{-6}}$ -->
      <g style="fill: #5a5758" transform="translate(32.84 273.269007) scale(0.14994 -0.14994)">
       <defs>
        <path id="CMUBright-Roman-36" d="M 346 2061 
Q 346 3072 864 3686 
Q 1382 4301 2074 4301 
L 2086 4301 
Q 2426 4301 2797 4179 
L 2797 3846 
Q 2374 3981 2074 3981 
L 2061 3981 
Q 1478 3981 1123 3491 
Q 768 3002 768 2208 
Q 768 2195 771 2166 
Q 774 2138 774 2125 
Q 928 2445 1238 2665 
Q 1549 2886 1952 2886 
Q 2387 2886 2682 2483 
Q 3008 2029 3008 1408 
Q 3008 768 2618 326 
Q 2240 -109 1690 -109 
Q 1510 -109 1340 -57 
Q 1171 -6 985 141 
Q 800 288 662 521 
Q 525 755 435 1152 
Q 346 1549 346 2061 
z
M 794 1389 
Q 813 1171 854 1004 
Q 896 838 985 643 
Q 1075 448 1254 336 
Q 1434 224 1690 224 
Q 2138 224 2381 550 
Q 2515 736 2550 921 
Q 2586 1107 2586 1434 
Q 2586 1645 2573 1776 
Q 2560 1907 2480 2089 
Q 2400 2272 2253 2400 
Q 2054 2566 1728 2566 
Q 1325 2566 1062 2265 
Q 800 1965 800 1555 
Q 800 1440 806 1389 
L 794 1389 
z
" transform="scale(0.015625)"/>
       </defs>
       <use xlink:href="#CMUBright-Roman-31" transform="translate(0 0.915625)"/>
       <use xlink:href="#CMUBright-Roman-30" transform="translate(52.499985 0.915625)"/>
       <use xlink:href="#CMUBright-Roman-2212" transform="translate(105.826024 33.957813) scale(0.7)"/>
       <use xlink:href="#CMUBright-Roman-36" transform="translate(150.766022 33.957813) scale(0.7)"/>
      </g>
     </g>
    </g>
    <g id="ytick_2">
     <g id="line2d_21">
      <g>
       <use xlink:href="#m715d422fcb" x="68.3286" y="200.995131" style="fill: #5a5758; stroke: #5a5758; stroke-width: 0.8"/>
      </g>
     </g>
     <g id="text_5">
      <!-- $\mathdefault{10^{-5}}$ -->
      <g style="fill: #5a5758" transform="translate(32.84 206.205546) scale(0.14994 -0.14994)">
       <defs>
        <path id="CMUBright-Roman-35" d="M 301 518 
L 486 819 
Q 896 224 1581 224 
Q 1971 224 2268 473 
Q 2566 723 2566 1312 
Q 2566 1626 2489 1846 
Q 2413 2067 2285 2176 
Q 2157 2285 2032 2329 
Q 1907 2374 1773 2374 
Q 1210 2374 941 1901 
L 582 1901 
L 582 4192 
L 2797 4192 
L 2797 3853 
L 973 3853 
L 973 2381 
Q 1325 2701 1779 2701 
Q 2285 2701 2653 2291 
Q 3021 1882 3021 1306 
Q 3021 723 2601 307 
Q 2182 -109 1574 -109 
Q 813 -109 301 518 
z
" transform="scale(0.015625)"/>
       </defs>
       <use xlink:href="#CMUBright-Roman-31" transform="translate(0 0.107813)"/>
       <use xlink:href="#CMUBright-Roman-30" transform="translate(52.499985 0.107813)"/>
       <use xlink:href="#CMUBright-Roman-2212" transform="translate(105.826024 33.15) scale(0.7)"/>
       <use xlink:href="#CMUBright-Roman-35" transform="translate(150.766022 33.15) scale(0.7)"/>
      </g>
     </g>
    </g>
    <g id="ytick_3">
     <g id="line2d_22">
      <g>
       <use xlink:href="#m715d422fcb" x="68.3286" y="133.93167" style="fill: #5a5758; stroke: #5a5758; stroke-width: 0.8"/>
      </g>
     </g>
     <g id="text_6">
      <!-- $\mathdefault{10^{-4}}$ -->
      <g style="fill: #5a5758" transform="translate(32.84 139.142085) scale(0.14994 -0.14994)">
       <defs>
        <path id="CMUBright-Roman-34" d="M 186 1158 
L 186 1504 
L 1952 4250 
L 2438 4250 
L 2438 1498 
L 3168 1498 
L 3168 1158 
L 2438 1158 
L 2438 0 
L 2035 0 
L 2035 1158 
L 186 1158 
z
M 602 1498 
L 2054 1498 
L 2054 3885 
Q 1971 3667 1606 3085 
L 602 1498 
z
" transform="scale(0.015625)"/>
       </defs>
       <use xlink:href="#CMUBright-Roman-31" transform="translate(0 0.473438)"/>
       <use xlink:href="#CMUBright-Roman-30" transform="translate(52.499985 0.473438)"/>
       <use xlink:href="#CMUBright-Roman-2212" transform="translate(105.826024 33.515625) scale(0.7)"/>
       <use xlink:href="#CMUBright-Roman-34" transform="translate(150.766022 33.515625) scale(0.7)"/>
      </g>
     </g>
    </g>
    <g id="ytick_4">
     <g id="line2d_23">
      <g>
       <use xlink:href="#m715d422fcb" x="68.3286" y="66.868208" style="fill: #5a5758; stroke: #5a5758; stroke-width: 0.8"/>
      </g>
     </g>
     <g id="text_7">
      <!-- $\mathdefault{10^{-3}}$ -->
      <g style="fill: #5a5758" transform="translate(32.84 72.078623) scale(0.14994 -0.14994)">
       <defs>
        <path id="CMUBright-Roman-33" d="M 282 653 
Q 282 666 285 685 
Q 288 704 304 774 
Q 320 845 339 941 
Q 557 640 861 464 
Q 1165 288 1341 256 
Q 1517 224 1683 224 
Q 2112 224 2368 486 
Q 2624 749 2624 1165 
Q 2624 1574 2381 1824 
Q 2138 2074 1773 2099 
L 1555 2106 
L 1114 2106 
L 1114 2426 
Q 1709 2470 1862 2528 
Q 2099 2618 2281 2838 
Q 2464 3059 2464 3360 
Q 2464 3642 2256 3811 
Q 2048 3981 1702 3981 
Q 973 3981 570 3258 
L 371 3539 
Q 845 4301 1702 4301 
Q 2202 4301 2544 4025 
Q 2886 3750 2886 3360 
Q 2886 3059 2704 2761 
Q 2522 2464 2106 2272 
Q 2579 2144 2825 1833 
Q 3072 1523 3072 1158 
Q 3072 666 2685 278 
Q 2298 -109 1690 -109 
Q 1402 -109 1126 -9 
Q 851 90 675 221 
Q 499 352 390 473 
Q 282 595 282 653 
z
" transform="scale(0.015625)"/>
       </defs>
       <use xlink:href="#CMUBright-Roman-31" transform="translate(0 0.915625)"/>
       <use xlink:href="#CMUBright-Roman-30" transform="translate(52.499985 0.915625)"/>
       <use xlink:href="#CMUBright-Roman-2212" transform="translate(105.826024 33.957813) scale(0.7)"/>
       <use xlink:href="#CMUBright-Roman-33" transform="translate(150.766022 33.957813) scale(0.7)"/>
      </g>
     </g>
    </g>
    <g id="ytick_5">
     <g id="line2d_24">
      <defs>
       <path id="ma28f4db07e" d="M 0 0 
L -2 0 
" style="stroke: #5a5758; stroke-width: 0.6"/>
      </defs>
      <g>
       <use xlink:href="#ma28f4db07e" x="68.3286" y="288.246705" style="fill: #5a5758; stroke: #5a5758; stroke-width: 0.6"/>
      </g>
     </g>
    </g>
    <g id="ytick_6">
     <g id="line2d_25">
      <g>
       <use xlink:href="#ma28f4db07e" x="68.3286" y="282.936537" style="fill: #5a5758; stroke: #5a5758; stroke-width: 0.6"/>
      </g>
     </g>
    </g>
    <g id="ytick_7">
     <g id="line2d_26">
      <g>
       <use xlink:href="#ma28f4db07e" x="68.3286" y="278.446853" style="fill: #5a5758; stroke: #5a5758; stroke-width: 0.6"/>
      </g>
     </g>
    </g>
    <g id="ytick_8">
     <g id="line2d_27">
      <g>
       <use xlink:href="#ma28f4db07e" x="68.3286" y="274.557713" style="fill: #5a5758; stroke: #5a5758; stroke-width: 0.6"/>
      </g>
     </g>
    </g>
    <g id="ytick_9">
     <g id="line2d_28">
      <g>
       <use xlink:href="#ma28f4db07e" x="68.3286" y="271.127247" style="fill: #5a5758; stroke: #5a5758; stroke-width: 0.6"/>
      </g>
     </g>
    </g>
    <g id="ytick_10">
     <g id="line2d_29">
      <g>
       <use xlink:href="#ma28f4db07e" x="68.3286" y="247.870478" style="fill: #5a5758; stroke: #5a5758; stroke-width: 0.6"/>
      </g>
     </g>
    </g>
    <g id="ytick_11">
     <g id="line2d_30">
      <g>
       <use xlink:href="#ma28f4db07e" x="68.3286" y="236.061189" style="fill: #5a5758; stroke: #5a5758; stroke-width: 0.6"/>
      </g>
     </g>
    </g>
    <g id="ytick_12">
     <g id="line2d_31">
      <g>
       <use xlink:href="#ma28f4db07e" x="68.3286" y="227.682365" style="fill: #5a5758; stroke: #5a5758; stroke-width: 0.6"/>
      </g>
     </g>
    </g>
    <g id="ytick_13">
     <g id="line2d_32">
      <g>
       <use xlink:href="#ma28f4db07e" x="68.3286" y="221.183244" style="fill: #5a5758; stroke: #5a5758; stroke-width: 0.6"/>
      </g>
     </g>
    </g>
    <g id="ytick_14">
     <g id="line2d_33">
      <g>
       <use xlink:href="#ma28f4db07e" x="68.3286" y="215.873076" style="fill: #5a5758; stroke: #5a5758; stroke-width: 0.6"/>
      </g>
     </g>
    </g>
    <g id="ytick_15">
     <g id="line2d_34">
      <g>
       <use xlink:href="#ma28f4db07e" x="68.3286" y="211.383392" style="fill: #5a5758; stroke: #5a5758; stroke-width: 0.6"/>
      </g>
     </g>
    </g>
    <g id="ytick_16">
     <g id="line2d_35">
      <g>
       <use xlink:href="#ma28f4db07e" x="68.3286" y="207.494252" style="fill: #5a5758; stroke: #5a5758; stroke-width: 0.6"/>
      </g>
     </g>
    </g>
    <g id="ytick_17">
     <g id="line2d_36">
      <g>
       <use xlink:href="#ma28f4db07e" x="68.3286" y="204.063786" style="fill: #5a5758; stroke: #5a5758; stroke-width: 0.6"/>
      </g>
     </g>
    </g>
    <g id="ytick_18">
     <g id="line2d_37">
      <g>
       <use xlink:href="#ma28f4db07e" x="68.3286" y="180.807017" style="fill: #5a5758; stroke: #5a5758; stroke-width: 0.6"/>
      </g>
     </g>
    </g>
    <g id="ytick_19">
     <g id="line2d_38">
      <g>
       <use xlink:href="#ma28f4db07e" x="68.3286" y="168.997728" style="fill: #5a5758; stroke: #5a5758; stroke-width: 0.6"/>
      </g>
     </g>
    </g>
    <g id="ytick_20">
     <g id="line2d_39">
      <g>
       <use xlink:href="#ma28f4db07e" x="68.3286" y="160.618904" style="fill: #5a5758; stroke: #5a5758; stroke-width: 0.6"/>
      </g>
     </g>
    </g>
    <g id="ytick_21">
     <g id="line2d_40">
      <g>
       <use xlink:href="#ma28f4db07e" x="68.3286" y="154.119783" style="fill: #5a5758; stroke: #5a5758; stroke-width: 0.6"/>
      </g>
     </g>
    </g>
    <g id="ytick_22">
     <g id="line2d_41">
      <g>
       <use xlink:href="#ma28f4db07e" x="68.3286" y="148.809615" style="fill: #5a5758; stroke: #5a5758; stroke-width: 0.6"/>
      </g>
     </g>
    </g>
    <g id="ytick_23">
     <g id="line2d_42">
      <g>
       <use xlink:href="#ma28f4db07e" x="68.3286" y="144.319931" style="fill: #5a5758; stroke: #5a5758; stroke-width: 0.6"/>
      </g>
     </g>
    </g>
    <g id="ytick_24">
     <g id="line2d_43">
      <g>
       <use xlink:href="#ma28f4db07e" x="68.3286" y="140.43079" style="fill: #5a5758; stroke: #5a5758; stroke-width: 0.6"/>
      </g>
     </g>
    </g>
    <g id="ytick_25">
     <g id="line2d_44">
      <g>
       <use xlink:href="#ma28f4db07e" x="68.3286" y="137.000325" style="fill: #5a5758; stroke: #5a5758; stroke-width: 0.6"/>
      </g>
     </g>
    </g>
    <g id="ytick_26">
     <g id="line2d_45">
      <g>
       <use xlink:href="#ma28f4db07e" x="68.3286" y="113.743556" style="fill: #5a5758; stroke: #5a5758; stroke-width: 0.6"/>
      </g>
     </g>
    </g>
    <g id="ytick_27">
     <g id="line2d_46">
      <g>
       <use xlink:href="#ma28f4db07e" x="68.3286" y="101.934267" style="fill: #5a5758; stroke: #5a5758; stroke-width: 0.6"/>
      </g>
     </g>
    </g>
    <g id="ytick_28">
     <g id="line2d_47">
      <g>
       <use xlink:href="#ma28f4db07e" x="68.3286" y="93.555443" style="fill: #5a5758; stroke: #5a5758; stroke-width: 0.6"/>
      </g>
     </g>
    </g>
    <g id="ytick_29">
     <g id="line2d_48">
      <g>
       <use xlink:href="#ma28f4db07e" x="68.3286" y="87.056322" style="fill: #5a5758; stroke: #5a5758; stroke-width: 0.6"/>
      </g>
     </g>
    </g>
    <g id="ytick_30">
     <g id="line2d_49">
      <g>
       <use xlink:href="#ma28f4db07e" x="68.3286" y="81.746153" style="fill: #5a5758; stroke: #5a5758; stroke-width: 0.6"/>
      </g>
     </g>
    </g>
    <g id="ytick_31">
     <g id="line2d_50">
      <g>
       <use xlink:href="#ma28f4db07e" x="68.3286" y="77.25647" style="fill: #5a5758; stroke: #5a5758; stroke-width: 0.6"/>
      </g>
     </g>
    </g>
    <g id="ytick_32">
     <g id="line2d_51">
      <g>
       <use xlink:href="#ma28f4db07e" x="68.3286" y="73.367329" style="fill: #5a5758; stroke: #5a5758; stroke-width: 0.6"/>
      </g>
     </g>
    </g>
    <g id="ytick_33">
     <g id="line2d_52">
      <g>
       <use xlink:href="#ma28f4db07e" x="68.3286" y="69.936864" style="fill: #5a5758; stroke: #5a5758; stroke-width: 0.6"/>
      </g>
     </g>
    </g>
    <g id="ytick_34">
     <g id="line2d_53">
      <g>
       <use xlink:href="#ma28f4db07e" x="68.3286" y="46.680095" style="fill: #5a5758; stroke: #5a5758; stroke-width: 0.6"/>
      </g>
     </g>
    </g>
    <g id="ytick_35">
     <g id="line2d_54">
      <g>
       <use xlink:href="#ma28f4db07e" x="68.3286" y="34.870806" style="fill: #5a5758; stroke: #5a5758; stroke-width: 0.6"/>
      </g>
     </g>
    </g>
    <g id="ytick_36">
     <g id="line2d_55">
      <g>
       <use xlink:href="#ma28f4db07e" x="68.3286" y="26.491982" style="fill: #5a5758; stroke: #5a5758; stroke-width: 0.6"/>
      </g>
     </g>
    </g>
    <g id="ytick_37">
     <g id="line2d_56">
      <g>
       <use xlink:href="#ma28f4db07e" x="68.3286" y="19.992861" style="fill: #5a5758; stroke: #5a5758; stroke-width: 0.6"/>
      </g>
     </g>
    </g>
    <g id="ytick_38">
     <g id="line2d_57">
      <g>
       <use xlink:href="#ma28f4db07e" x="68.3286" y="14.682692" style="fill: #5a5758; stroke: #5a5758; stroke-width: 0.6"/>
      </g>
     </g>
    </g>
    <g id="text_8">
     <!-- $||T_{FD} - T_{true}||_2$ -->
     <g style="fill: #5a5758" transform="translate(20.7 207.11883) rotate(-90) scale(0.18 -0.18)">
      <defs>
       <path id="CMUBright-SemiBold-7c" d="M 774 -1203 
L 774 4582 
Q 774 4794 928 4794 
Q 1088 4794 1088 4576 
L 1088 -1203 
Q 1088 -1421 934 -1421 
Q 774 -1421 774 -1203 
z
" transform="scale(0.015625)"/>
       <path id="CMUBright-SemiBold-54" d="M 237 3910 
L 237 4416 
L 4390 4416 
L 4390 3910 
L 2650 3910 
L 2650 0 
L 1978 0 
L 1978 3910 
L 237 3910 
z
" transform="scale(0.015625)"/>
       <path id="CMUBright-SemiBold-46" d="M 512 0 
L 512 4429 
L 3526 4429 
L 3526 3923 
L 1184 3923 
L 1184 2470 
L 3245 2470 
L 3245 1958 
L 1184 1958 
L 1184 0 
L 512 0 
z
" transform="scale(0.015625)"/>
       <path id="CMUBright-SemiBold-44" d="M 518 0 
L 518 4448 
L 2272 4448 
Q 2771 4448 3180 4249 
Q 3590 4051 3849 3724 
Q 4109 3398 4249 3001 
Q 4390 2605 4390 2189 
Q 4390 1306 3846 701 
Q 3302 96 2566 13 
Q 2451 0 2221 0 
L 518 0 
z
M 1171 512 
L 1914 512 
Q 1946 512 2006 509 
Q 2067 506 2099 506 
Q 2566 506 2902 653 
Q 3238 800 3411 1056 
Q 3584 1312 3661 1590 
Q 3738 1869 3738 2189 
Q 3738 2522 3661 2810 
Q 3584 3098 3411 3363 
Q 3238 3629 2902 3782 
Q 2566 3936 2093 3936 
L 1178 3936 
L 1171 3757 
L 1171 512 
z
" transform="scale(0.015625)"/>
       <path id="CMUBright-SemiBold-2212" d="M 387 1597 
Q 371 1645 371 1689 
Q 371 1734 387 1782 
Q 403 1830 476 1881 
Q 550 1933 672 1933 
L 3424 1933 
Q 3725 1933 3725 1689 
Q 3725 1446 3430 1446 
L 659 1446 
Q 544 1446 473 1497 
Q 403 1549 387 1597 
z
" transform="scale(0.015625)"/>
       <path id="CMUBright-SemiBold-74" d="M 122 2541 
L 122 3021 
L 646 3021 
L 646 3885 
L 1222 3885 
L 1222 3021 
L 2118 3021 
L 2118 2541 
L 1222 2541 
L 1222 1075 
Q 1222 448 1555 448 
Q 1805 448 2106 672 
L 2234 211 
Q 1754 -51 1197 -51 
Q 634 -51 634 1005 
L 634 2541 
L 122 2541 
z
" transform="scale(0.015625)"/>
       <path id="CMUBright-SemiBold-72" d="M 416 0 
L 416 3021 
L 992 3021 
L 992 2368 
Q 1370 3059 2112 3072 
L 2112 2528 
Q 1939 2528 1769 2480 
Q 1600 2432 1421 2326 
Q 1242 2221 1130 2013 
Q 1018 1805 1018 1517 
L 1018 0 
L 416 0 
z
" transform="scale(0.015625)"/>
       <path id="CMUBright-SemiBold-75" d="M 410 838 
L 410 3021 
L 1024 3021 
L 1024 883 
Q 1030 570 1069 506 
Q 1139 403 1510 403 
Q 1888 403 2064 601 
Q 2240 800 2266 998 
Q 2272 1062 2272 1197 
L 2272 3021 
L 2886 3021 
L 2886 0 
L 2285 0 
L 2285 480 
Q 1830 -51 1088 -51 
Q 858 -51 710 29 
Q 563 109 502 262 
Q 442 416 426 537 
Q 410 659 410 838 
z
" transform="scale(0.015625)"/>
       <path id="CMUBright-SemiBold-65" d="M 186 1530 
Q 186 2189 605 2646 
Q 1024 3104 1606 3104 
Q 1766 3104 1920 3069 
Q 2074 3034 2243 2931 
Q 2413 2829 2534 2669 
Q 2656 2509 2739 2233 
Q 2822 1958 2822 1600 
L 762 1600 
L 762 1536 
Q 762 1062 1040 745 
Q 1318 429 1709 429 
Q 2240 429 2739 794 
L 2784 275 
Q 2278 -51 1709 -51 
Q 1043 -51 614 419 
Q 186 890 186 1530 
z
M 838 1978 
L 2298 1978 
Q 2144 2618 1600 2618 
Q 1363 2618 1148 2448 
Q 934 2278 838 1978 
z
" transform="scale(0.015625)"/>
       <path id="CMUBright-SemiBold-32" d="M 275 3373 
Q 602 4301 1581 4301 
Q 2240 4301 2630 3894 
Q 3021 3488 3021 2918 
Q 3021 2739 2957 2569 
Q 2893 2400 2822 2285 
Q 2752 2170 2573 2000 
Q 2394 1830 2298 1753 
Q 2202 1677 1952 1478 
Q 1773 1338 877 538 
L 3021 538 
L 3021 0 
L 333 0 
L 333 512 
Q 1158 1286 1574 1645 
Q 1984 1990 2182 2272 
Q 2381 2554 2381 2906 
Q 2381 3283 2134 3539 
Q 1888 3795 1491 3795 
Q 851 3795 627 2938 
L 275 3373 
z
" transform="scale(0.015625)"/>
      </defs>
      <use xlink:href="#CMUBright-SemiBold-7c" transform="translate(0 0.09375)"/>
      <use xlink:href="#CMUBright-SemiBold-7c" transform="translate(29.199997 0.09375)"/>
      <use xlink:href="#CMUBright-SemiBold-54" transform="translate(58.399994 0.09375)"/>
      <use xlink:href="#CMUBright-SemiBold-46" transform="translate(131.726033 -14.067188) scale(0.7)"/>
      <use xlink:href="#CMUBright-SemiBold-44" transform="translate(173.446027 -14.067188) scale(0.7)"/>
      <use xlink:href="#CMUBright-SemiBold-2212" transform="translate(247.508599 0.09375)"/>
      <use xlink:href="#CMUBright-SemiBold-54" transform="translate(331.191017 0.09375)"/>
      <use xlink:href="#CMUBright-SemiBold-74" transform="translate(404.517057 -14.067188) scale(0.7)"/>
      <use xlink:href="#CMUBright-SemiBold-72" transform="translate(431.047053 -14.067188) scale(0.7)"/>
      <use xlink:href="#CMUBright-SemiBold-75" transform="translate(455.267046 -14.067188) scale(0.7)"/>
      <use xlink:href="#CMUBright-SemiBold-65" transform="translate(491.457044 -14.067188) scale(0.7)"/>
      <use xlink:href="#CMUBright-SemiBold-7c" transform="translate(526.787194 0.09375)"/>
      <use xlink:href="#CMUBright-SemiBold-7c" transform="translate(555.987191 0.09375)"/>
      <use xlink:href="#CMUBright-SemiBold-32" transform="translate(586.013242 -14.067188) scale(0.7)"/>
     </g>
    </g>
   </g>
   <g id="line2d_58">
    <path d="M 458.99952 10.2 
L 404.903674 49.912758 
L 350.807829 89.896384 
L 296.711983 130.060805 
L 242.616137 170.32721 
L 188.520291 210.647541 
L 134.424446 250.995571 
L 80.3286 291.357661 
" style="fill: none; stroke: #e29400; stroke-width: 2; stroke-linecap: square"/>
    <defs>
     <path id="m30625f6146" d="M 0 3 
C 0.795609 3 1.55874 2.683901 2.12132 2.12132 
C 2.683901 1.55874 3 0.795609 3 0 
C 3 -0.795609 2.683901 -1.55874 2.12132 -2.12132 
C 1.55874 -2.683901 0.795609 -3 0 -3 
C -0.795609 -3 -1.55874 -2.683901 -2.12132 -2.12132 
C -2.683901 -1.55874 -3 -0.795609 -3 0 
C -3 0.795609 -2.683901 1.55874 -2.12132 2.12132 
C -1.55874 2.683901 -0.795609 3 0 3 
z
" style="stroke: #ffffff"/>
    </defs>
    <g>
     <use xlink:href="#m30625f6146" x="458.99952" y="10.2" style="fill: #e29400; stroke: #ffffff"/>
     <use xlink:href="#m30625f6146" x="404.903674" y="49.912758" style="fill: #e29400; stroke: #ffffff"/>
     <use xlink:href="#m30625f6146" x="350.807829" y="89.896384" style="fill: #e29400; stroke: #ffffff"/>
     <use xlink:href="#m30625f6146" x="296.711983" y="130.060805" style="fill: #e29400; stroke: #ffffff"/>
     <use xlink:href="#m30625f6146" x="242.616137" y="170.32721" style="fill: #e29400; stroke: #ffffff"/>
     <use xlink:href="#m30625f6146" x="188.520291" y="210.647541" style="fill: #e29400; stroke: #ffffff"/>
     <use xlink:href="#m30625f6146" x="134.424446" y="250.995571" style="fill: #e29400; stroke: #ffffff"/>
     <use xlink:href="#m30625f6146" x="80.3286" y="291.357661" style="fill: #e29400; stroke: #ffffff"/>
    </g>
   </g>
   <g id="patch_3">
    <path d="M 68.3286 291.357661 
L 68.3286 10.2 
" style="fill: none; stroke: #5a5758; stroke-width: 0.8; stroke-linejoin: miter; stroke-linecap: square"/>
   </g>
   <g id="patch_4">
    <path d="M 80.3286 303.357661 
L 458.99952 303.357661 
" style="fill: none; stroke: #5a5758; stroke-width: 0.8; stroke-linejoin: miter; stroke-linecap: square"/>
   </g>
   <g id="text_9">
    <!-- Convergence rate: 1.99 -->
    <g style="fill: #5a5758" transform="translate(242.616137 223.444416) scale(0.18 -0.18)">
     <defs>
      <path id="CMUBright-Roman-43" d="M 777 1085 
Q 518 1613 518 2221 
Q 518 2829 777 3357 
Q 1037 3885 1533 4217 
Q 2029 4550 2643 4550 
Q 3251 4550 3878 4333 
L 3795 3891 
Q 3597 4000 3485 4051 
Q 3373 4102 3136 4156 
Q 2899 4211 2637 4211 
Q 1920 4211 1443 3625 
Q 966 3040 966 2221 
Q 966 1414 1440 822 
Q 1914 230 2643 230 
Q 2970 230 3222 297 
Q 3475 365 3568 413 
Q 3661 461 3917 621 
L 3949 250 
Q 3718 122 3590 61 
Q 3462 0 3212 -54 
Q 2963 -109 2643 -109 
Q 2029 -109 1533 224 
Q 1037 557 777 1085 
z
" transform="scale(0.015625)"/>
      <path id="CMUBright-Roman-6f" d="M 256 1510 
Q 256 2182 675 2640 
Q 1094 3098 1677 3098 
Q 2272 3098 2681 2627 
Q 3091 2157 3091 1510 
Q 3091 838 2668 393 
Q 2246 -51 1677 -51 
Q 1088 -51 672 406 
Q 256 864 256 1510 
z
M 666 1587 
Q 666 1190 771 915 
Q 877 640 1046 512 
Q 1216 384 1369 333 
Q 1523 282 1677 282 
Q 1843 282 2006 342 
Q 2170 403 2330 537 
Q 2490 672 2586 937 
Q 2682 1203 2682 1568 
Q 2682 1914 2586 2163 
Q 2490 2413 2330 2541 
Q 2170 2669 2006 2723 
Q 1843 2778 1676 2778 
Q 1510 2778 1347 2723 
Q 1184 2669 1024 2544 
Q 864 2419 765 2172 
Q 666 1926 666 1587 
z
" transform="scale(0.015625)"/>
      <path id="CMUBright-Roman-6e" d="M 512 0 
L 512 3021 
L 909 3021 
L 909 2400 
Q 1030 2682 1273 2877 
Q 1517 3072 1869 3072 
Q 2125 3072 2307 2992 
Q 2490 2912 2579 2809 
Q 2669 2707 2720 2540 
Q 2771 2374 2777 2272 
Q 2784 2170 2784 2016 
L 2784 0 
L 2374 0 
L 2374 1990 
Q 2374 2106 2371 2176 
Q 2368 2246 2329 2368 
Q 2291 2490 2220 2563 
Q 2150 2637 2006 2694 
Q 1862 2752 1658 2752 
Q 1370 2752 1149 2518 
Q 928 2285 928 1677 
L 928 0 
L 512 0 
z
" transform="scale(0.015625)"/>
      <path id="CMUBright-Roman-76" d="M 90 3021 
L 499 3021 
L 1466 416 
L 2432 3021 
L 2835 3021 
L 1696 -19 
L 1222 -19 
L 90 3021 
z
" transform="scale(0.015625)"/>
      <path id="CMUBright-Roman-65" d="M 269 1536 
Q 269 2163 646 2630 
Q 1024 3098 1587 3098 
Q 1786 3098 1968 3037 
Q 2150 2976 2342 2829 
Q 2534 2682 2652 2365 
Q 2771 2048 2771 1600 
L 653 1600 
L 653 1549 
Q 653 966 966 617 
Q 1280 269 1690 269 
Q 2234 269 2726 710 
L 2758 358 
Q 2266 -51 1690 -51 
Q 1101 -51 685 406 
Q 269 864 269 1536 
z
M 685 1856 
L 2426 1856 
Q 2381 2342 2134 2560 
Q 1888 2778 1587 2778 
Q 1261 2778 1008 2515 
Q 755 2253 685 1856 
z
" transform="scale(0.015625)"/>
      <path id="CMUBright-Roman-72" d="M 512 0 
L 512 3021 
L 896 3021 
L 896 2534 
L 902 2234 
Q 954 2362 1043 2490 
Q 1133 2618 1273 2755 
Q 1414 2893 1632 2979 
Q 1850 3066 2112 3072 
L 2112 2714 
Q 1907 2707 1708 2643 
Q 1510 2579 1324 2444 
Q 1139 2310 1027 2070 
Q 915 1830 915 1510 
L 915 0 
L 512 0 
z
" transform="scale(0.015625)"/>
      <path id="CMUBright-Roman-67" d="M 294 1517 
Q 294 2176 675 2624 
Q 1056 3072 1555 3072 
Q 2074 3072 2381 2515 
L 2381 3072 
L 2784 3072 
L 2784 58 
Q 2784 -499 2461 -838 
Q 2138 -1178 1645 -1178 
Q 1056 -1178 461 -890 
L 461 -544 
Q 653 -640 771 -694 
Q 890 -749 1133 -803 
Q 1376 -858 1632 -858 
Q 1933 -858 2153 -627 
Q 2374 -397 2374 77 
L 2374 576 
L 2368 800 
Q 2266 538 2051 323 
Q 1837 109 1485 109 
Q 1005 109 649 515 
Q 294 922 294 1517 
z
M 710 1517 
Q 710 1050 1001 739 
Q 1293 429 1664 429 
Q 1862 429 2009 537 
Q 2157 646 2230 828 
Q 2304 1011 2339 1200 
Q 2374 1389 2374 1600 
L 2381 1600 
L 2381 2022 
Q 2381 2253 2214 2502 
Q 2048 2752 1741 2752 
Q 1331 2752 1020 2393 
Q 710 2035 710 1517 
z
" transform="scale(0.015625)"/>
      <path id="CMUBright-Roman-63" d="M 294 1517 
Q 294 2157 691 2630 
Q 1088 3104 1709 3104 
Q 2042 3104 2250 3046 
Q 2458 2989 2758 2829 
L 2694 2477 
Q 2502 2592 2403 2640 
Q 2304 2688 2125 2729 
Q 1946 2771 1709 2771 
Q 1254 2771 982 2432 
Q 710 2093 710 1523 
Q 717 915 1008 598 
Q 1299 282 1696 282 
Q 1958 282 2192 365 
Q 2426 448 2525 518 
Q 2624 589 2765 710 
L 2797 352 
Q 2304 -51 1690 -51 
Q 1107 -51 700 403 
Q 294 858 294 1517 
z
" transform="scale(0.015625)"/>
      <path id="CMUBright-Roman-20" transform="scale(0.015625)"/>
      <path id="CMUBright-Roman-61" d="M 352 736 
Q 352 896 435 1046 
Q 518 1197 707 1347 
Q 896 1498 1283 1590 
Q 1670 1683 2214 1696 
L 2214 1965 
Q 2214 2381 2042 2579 
Q 1856 2803 1568 2803 
Q 1331 2803 1107 2736 
Q 883 2669 809 2624 
Q 736 2579 557 2470 
L 525 2829 
Q 1043 3104 1574 3104 
Q 2054 3104 2326 2806 
Q 2598 2509 2624 2144 
L 2630 1926 
L 2630 0 
L 2227 0 
L 2227 442 
Q 1830 -51 1107 -51 
L 1062 -51 
Q 710 -51 531 205 
Q 352 461 352 736 
z
M 749 749 
Q 749 518 950 393 
Q 1152 269 1408 269 
Q 1523 269 1644 297 
Q 1766 326 1904 390 
Q 2042 454 2128 595 
Q 2214 736 2214 928 
L 2214 1498 
Q 1568 1491 1158 1286 
Q 749 1082 749 749 
z
" transform="scale(0.015625)"/>
      <path id="CMUBright-Roman-74" d="M 122 2701 
L 122 3021 
L 736 3021 
L 736 3885 
L 1126 3885 
L 1126 3021 
L 2118 3021 
L 2118 2701 
L 1126 2701 
L 1126 883 
Q 1126 282 1491 282 
Q 1568 282 1638 291 
Q 1709 301 1769 323 
Q 1830 346 1878 365 
Q 1926 384 1974 416 
Q 2022 448 2048 464 
Q 2074 480 2109 512 
Q 2144 544 2150 544 
L 2234 230 
Q 1779 -51 1261 -51 
Q 730 -51 730 838 
L 730 2701 
L 122 2701 
z
" transform="scale(0.015625)"/>
      <path id="CMUBright-Roman-3a" d="M 678 0 
L 678 499 
L 1178 499 
L 1178 0 
L 678 0 
z
M 678 2496 
L 678 2995 
L 1178 2995 
L 1178 2496 
L 678 2496 
z
" transform="scale(0.015625)"/>
      <path id="CMUBright-Roman-2e" d="M 678 0 
L 678 499 
L 1178 499 
L 1178 0 
L 678 0 
z
" transform="scale(0.015625)"/>
      <path id="CMUBright-Roman-39" d="M 346 2803 
Q 346 3443 768 3885 
Q 1158 4301 1696 4301 
Q 1875 4301 2038 4253 
Q 2202 4205 2384 4061 
Q 2566 3917 2700 3686 
Q 2835 3456 2921 3053 
Q 3008 2650 3008 2125 
Q 3008 1171 2537 531 
Q 2067 -109 1382 -109 
Q 909 -109 486 186 
L 653 480 
L 723 435 
Q 794 384 838 358 
Q 883 333 969 297 
Q 1056 262 1158 243 
Q 1261 224 1376 224 
Q 1690 224 1933 381 
Q 2176 538 2313 797 
Q 2451 1056 2518 1357 
Q 2586 1658 2586 1984 
L 2586 2074 
Q 2438 1754 2121 1530 
Q 1805 1306 1402 1306 
Q 973 1306 678 1709 
Q 346 2157 346 2803 
z
M 768 2656 
Q 768 2240 966 1936 
Q 1165 1632 1632 1632 
Q 2035 1632 2297 1936 
Q 2560 2240 2560 2656 
Q 2560 2752 2554 2803 
L 2566 2803 
Q 2522 3462 2272 3721 
Q 2022 3981 1696 3981 
Q 1242 3981 986 3648 
Q 768 3366 768 2822 
L 768 2656 
z
" transform="scale(0.015625)"/>
     </defs>
     <use xlink:href="#CMUBright-Roman-43"/>
     <use xlink:href="#CMUBright-Roman-6f" x="67.099991"/>
     <use xlink:href="#CMUBright-Roman-6e" x="119.599976"/>
     <use xlink:href="#CMUBright-Roman-76" x="171.299973"/>
     <use xlink:href="#CMUBright-Roman-65" x="217.09996"/>
     <use xlink:href="#CMUBright-Roman-72" x="263.799957"/>
     <use xlink:href="#CMUBright-Roman-67" x="298.399948"/>
     <use xlink:href="#CMUBright-Roman-65" x="350.099945"/>
     <use xlink:href="#CMUBright-Roman-6e" x="396.799942"/>
     <use xlink:href="#CMUBright-Roman-63" x="448.499939"/>
     <use xlink:href="#CMUBright-Roman-65" x="495.199936"/>
     <use xlink:href="#CMUBright-Roman-20" x="541.899933"/>
     <use xlink:href="#CMUBright-Roman-72" x="575.199921"/>
     <use xlink:href="#CMUBright-Roman-61" x="609.799911"/>
     <use xlink:href="#CMUBright-Roman-74" x="658.999908"/>
     <use xlink:href="#CMUBright-Roman-65" x="696.899902"/>
     <use xlink:href="#CMUBright-Roman-3a" x="743.599899"/>
     <use xlink:href="#CMUBright-Roman-20" x="772.799896"/>
     <use xlink:href="#CMUBright-Roman-31" x="806.099884"/>
     <use xlink:href="#CMUBright-Roman-2e" x="858.599869"/>
     <use xlink:href="#CMUBright-Roman-39" x="887.799866"/>
     <use xlink:href="#CMUBright-Roman-39" x="940.29985"/>
    </g>
   </g>
  </g>
 </g>
</svg>