<?xml version="1.0" encoding="utf-8" standalone="no"?>
<!DOCTYPE svg PUBLIC "-//W3C//DTD SVG 1.1//EN"
  "http://www.w3.org/Graphics/SVG/1.1/DTD/svg11.dtd">
<svg xmlns:xlink="http://www.w3.org/1999/xlink" width="728.39952pt" height="440.39952pt" viewBox="0 0 728.39952 440.39952" xmlns="http://www.w3.org/2000/svg" version="1.1">
 <metadata>
  <rdf:RDF xmlns:dc="http://purl.org/dc/elements/1.1/" xmlns:cc="http://creativecommons.org/ns#" xmlns:rdf="http://www.w3.org/1999/02/22-rdf-syntax-ns#">
   <cc:Work>
    <dc:type rdf:resource="http://purl.org/dc/dcmitype/StillImage"/>
    <dc:date>2024-09-30T14:47:10.719564</dc:date>
    <dc:format>image/svg+xml</dc:format>
    <dc:creator>
     <cc:Agent>
      <dc:title>Matplotlib v3.9.2, https://matplotlib.org/</dc:title>
     </cc:Agent>
    </dc:creator>
   </cc:Work>
  </rdf:RDF>
 </metadata>
 <defs>
  <style type="text/css">*{stroke-linejoin: round; stroke-linecap: butt}</style>
 </defs>
 <g id="figure_1">
  <g id="patch_1">
   <path d="M 0 440.39952 
L 728.39952 440.39952 
L 728.39952 0 
L 0 0 
z
" style="fill: #ffffff"/>
  </g>
  <g id="axes_1">
   <g id="patch_2">
    <path d="M 74.29185 377.757661 
L 598.766707 377.757661 
L 598.766707 20.369531 
L 74.29185 20.369531 
z
" style="fill: #ffffff"/>
   </g>
   <g id="PolyCollection_1">
    <defs>
     <path id="md205de5cc2" d="M 74.29185 -62.641859 
L 74.29185 -62.641859 
L 75.603037 -62.641859 
L 76.914224 -62.641859 
L 78.225411 -62.641859 
L 79.536599 -62.641859 
L 80.847786 -62.641859 
L 82.158973 -62.641859 
L 83.47016 -62.641859 
L 84.781347 -62.641859 
L 86.092534 -62.641859 
L 87.403721 -62.641859 
L 88.714909 -62.641859 
L 90.026096 -62.641859 
L 91.337283 -62.641859 
L 92.64847 -62.641859 
L 93.959657 -62.641859 
L 95.270844 -62.641859 
L 96.582031 -62.641859 
L 97.893219 -62.641859 
L 99.204406 -62.641859 
L 100.515593 -62.641859 
L 101.82678 -62.641859 
L 103.137967 -62.641859 
L 104.449154 -62.641859 
L 105.760341 -62.641859 
L 107.071529 -62.641859 
L 108.382716 -62.641859 
L 109.693903 -62.641859 
L 111.00509 -62.641859 
L 112.316277 -62.641859 
L 113.627464 -62.641859 
L 114.938651 -62.641859 
L 116.249839 -62.641859 
L 117.561026 -62.641859 
L 118.872213 -62.641859 
L 120.1834 -62.641859 
L 121.494587 -62.641859 
L 122.805774 -62.641859 
L 124.116961 -62.641859 
L 125.428149 -62.641859 
L 126.739336 -62.641859 
L 128.050523 -62.641859 
L 129.36171 -62.641859 
L 130.672897 -62.641859 
L 131.984084 -62.641859 
L 133.295271 -62.641859 
L 134.606459 -62.641859 
L 135.917646 -62.641859 
L 137.228833 -62.641859 
L 138.54002 -62.641859 
L 139.851207 -62.641859 
L 141.162394 -62.641859 
L 142.473581 -62.641859 
L 143.784769 -62.641859 
L 145.095956 -62.641859 
L 146.407143 -62.641859 
L 147.71833 -62.641859 
L 149.029517 -62.641859 
L 150.340704 -62.641859 
L 151.651891 -62.641859 
L 152.963079 -62.641859 
L 154.274266 -62.641859 
L 155.585453 -62.641859 
L 156.89664 -62.641859 
L 158.207827 -62.641859 
L 159.519014 -62.641859 
L 160.830201 -62.641859 
L 162.141389 -62.641859 
L 163.452576 -62.641859 
L 164.763763 -62.641859 
L 166.07495 -62.641859 
L 167.386137 -62.641859 
L 168.697324 -62.641859 
L 170.008511 -62.641859 
L 171.319699 -62.641859 
L 172.630886 -62.641859 
L 173.942073 -62.641859 
L 175.25326 -62.641859 
L 176.564447 -62.641859 
L 177.875634 -62.641859 
L 179.186822 -62.641859 
L 180.498009 -62.641859 
L 181.809196 -62.641859 
L 183.120383 -62.641859 
L 184.43157 -62.641859 
L 185.742757 -62.641859 
L 187.053944 -62.641859 
L 188.365132 -62.641859 
L 189.676319 -62.641859 
L 190.987506 -62.641859 
L 192.298693 -62.641859 
L 193.60988 -62.641859 
L 194.921067 -62.641859 
L 196.232254 -62.641859 
L 197.543442 -62.641859 
L 198.854629 -62.641859 
L 200.165816 -62.641859 
L 201.477003 -62.641859 
L 202.78819 -62.641859 
L 204.099377 -62.641859 
L 205.410564 -62.641859 
L 206.721752 -62.641859 
L 208.032939 -62.641859 
L 209.344126 -62.641859 
L 210.655313 -62.641859 
L 211.9665 -62.641859 
L 213.277687 -62.641859 
L 214.588874 -62.641859 
L 215.900062 -62.641859 
L 217.211249 -62.641859 
L 218.522436 -62.641859 
L 219.833623 -62.641859 
L 221.14481 -62.641859 
L 222.455997 -62.641859 
L 223.767184 -62.641859 
L 225.078372 -62.641859 
L 226.389559 -62.641859 
L 227.700746 -62.641859 
L 229.011933 -62.641859 
L 230.32312 -62.641859 
L 231.634307 -62.641859 
L 232.945494 -62.641859 
L 234.256682 -62.641859 
L 235.567869 -62.641859 
L 236.879056 -62.641859 
L 238.190243 -62.641859 
L 239.50143 -62.641859 
L 240.812617 -62.641859 
L 242.123804 -62.641859 
L 243.434992 -62.641859 
L 244.746179 -62.641859 
L 246.057366 -62.641859 
L 247.368553 -62.641859 
L 248.67974 -62.641859 
L 249.990927 -62.641859 
L 251.302114 -62.641859 
L 252.613302 -62.641859 
L 253.924489 -62.641859 
L 255.235676 -62.641859 
L 256.546863 -62.641859 
L 257.85805 -62.641859 
L 259.169237 -62.641859 
L 260.480424 -62.641859 
L 261.791612 -62.641859 
L 263.102799 -62.641859 
L 264.413986 -62.641859 
L 265.725173 -62.641859 
L 267.03636 -62.641859 
L 268.347547 -62.641859 
L 269.658734 -62.641859 
L 270.969922 -62.641859 
L 272.281109 -62.641859 
L 273.592296 -62.641859 
L 274.903483 -62.641859 
L 276.21467 -62.641859 
L 277.525857 -62.641859 
L 278.837044 -62.641859 
L 280.148232 -62.641859 
L 281.459419 -62.641859 
L 282.770606 -62.641859 
L 284.081793 -62.641859 
L 285.39298 -62.641859 
L 286.704167 -62.641859 
L 288.015354 -62.641859 
L 289.326542 -62.641859 
L 290.637729 -62.641859 
L 291.948916 -62.641859 
L 293.260103 -62.641859 
L 294.57129 -62.641859 
L 295.882477 -62.641859 
L 297.193664 -62.641859 
L 298.504852 -62.641859 
L 299.816039 -62.641859 
L 301.127226 -62.641859 
L 302.438413 -62.641859 
L 303.7496 -62.641859 
L 305.060787 -62.641859 
L 306.371974 -62.641859 
L 307.683162 -62.641859 
L 308.994349 -62.641859 
L 310.305536 -62.641859 
L 311.616723 -62.641859 
L 312.92791 -62.641859 
L 314.239097 -62.641859 
L 315.550284 -62.641859 
L 316.861472 -62.641859 
L 318.172659 -62.641859 
L 319.483846 -62.641859 
L 320.795033 -62.641859 
L 322.10622 -62.641859 
L 323.417407 -62.641859 
L 324.728594 -62.641859 
L 326.039782 -62.641859 
L 327.350969 -62.641859 
L 328.662156 -62.641859 
L 329.973343 -62.641859 
L 331.28453 -62.641859 
L 332.595717 -62.641859 
L 333.906904 -62.641859 
L 335.218092 -62.641859 
L 336.529279 -62.641859 
L 337.840466 -62.641859 
L 339.151653 -62.641859 
L 340.46284 -62.641859 
L 341.774027 -62.641859 
L 343.085214 -62.641859 
L 344.396402 -62.641859 
L 345.707589 -62.641859 
L 347.018776 -62.641859 
L 348.329963 -62.641859 
L 349.64115 -62.641859 
L 350.952337 -62.641859 
L 352.263524 -62.641859 
L 353.574712 -62.641859 
L 354.885899 -62.641859 
L 356.197086 -62.641859 
L 357.508273 -62.641859 
L 358.81946 -62.641859 
L 360.130647 -62.641859 
L 361.441834 -62.641859 
L 362.753022 -62.641859 
L 364.064209 -62.641859 
L 365.375396 -62.641859 
L 366.686583 -62.641859 
L 367.99777 -62.641859 
L 369.308957 -62.641859 
L 370.620144 -62.641859 
L 371.931332 -62.641859 
L 373.242519 -62.641859 
L 374.553706 -62.641859 
L 375.864893 -62.641859 
L 377.17608 -62.641859 
L 378.487267 -62.641859 
L 379.798454 -62.641859 
L 381.109642 -62.641859 
L 382.420829 -62.641859 
L 383.732016 -62.641859 
L 385.043203 -62.641859 
L 386.35439 -62.641859 
L 387.665577 -62.641859 
L 388.976765 -62.641859 
L 390.287952 -62.641859 
L 391.599139 -62.641859 
L 392.910326 -62.641859 
L 394.221513 -62.641859 
L 395.5327 -62.641859 
L 396.843887 -62.641859 
L 398.155075 -62.641859 
L 399.466262 -62.641859 
L 400.777449 -62.641859 
L 402.088636 -62.641859 
L 403.399823 -62.641859 
L 404.71101 -62.641859 
L 406.022197 -62.641859 
L 407.333385 -62.641859 
L 408.644572 -62.641859 
L 409.955759 -62.641859 
L 411.266946 -62.641859 
L 412.578133 -62.641859 
L 413.88932 -62.641859 
L 415.200507 -62.641859 
L 416.511695 -62.641859 
L 417.822882 -62.641859 
L 419.134069 -62.641859 
L 420.445256 -62.641859 
L 421.756443 -62.641859 
L 423.06763 -62.641859 
L 424.378817 -62.641859 
L 425.690005 -62.641859 
L 427.001192 -62.641859 
L 428.312379 -62.641859 
L 429.623566 -62.641859 
L 430.934753 -62.641859 
L 432.24594 -62.641859 
L 433.557127 -62.641859 
L 434.868315 -62.641859 
L 436.179502 -62.641859 
L 437.490689 -62.641859 
L 438.801876 -62.641859 
L 440.113063 -62.641859 
L 441.42425 -62.641859 
L 442.735437 -62.641859 
L 444.046625 -62.641859 
L 445.357812 -62.641859 
L 446.668999 -62.641859 
L 447.980186 -62.641859 
L 449.291373 -62.641859 
L 450.60256 -62.641859 
L 451.913747 -62.641859 
L 453.224935 -62.641859 
L 454.536122 -62.641859 
L 455.847309 -62.641859 
L 457.158496 -62.641859 
L 458.469683 -62.641859 
L 459.78087 -62.641859 
L 461.092057 -62.641859 
L 462.403245 -62.641859 
L 463.714432 -62.641859 
L 465.025619 -62.641859 
L 466.336806 -62.641859 
L 467.647993 -62.641859 
L 468.95918 -62.641859 
L 470.270367 -62.641859 
L 471.581555 -62.641859 
L 472.892742 -62.641859 
L 474.203929 -62.641859 
L 475.515116 -62.641859 
L 476.826303 -62.641859 
L 478.13749 -62.641859 
L 479.448677 -62.641859 
L 480.759865 -62.641859 
L 482.071052 -62.641859 
L 483.382239 -62.641859 
L 484.693426 -62.641859 
L 486.004613 -62.641859 
L 487.3158 -62.641859 
L 488.626987 -62.641859 
L 489.938175 -62.641859 
L 491.249362 -62.641859 
L 492.560549 -62.641859 
L 493.871736 -62.641859 
L 495.182923 -62.641859 
L 496.49411 -62.641859 
L 497.805297 -62.641859 
L 499.116485 -62.641859 
L 500.427672 -62.641859 
L 501.738859 -62.641859 
L 503.050046 -62.641859 
L 504.361233 -62.641859 
L 505.67242 -62.641859 
L 506.983607 -62.641859 
L 508.294795 -62.641859 
L 509.605982 -62.641859 
L 510.917169 -62.641859 
L 512.228356 -62.641859 
L 513.539543 -62.641859 
L 514.85073 -62.641859 
L 516.161917 -62.641859 
L 517.473105 -62.641859 
L 518.784292 -62.641859 
L 520.095479 -62.641859 
L 521.406666 -62.641859 
L 522.717853 -62.641859 
L 524.02904 -62.641859 
L 525.340227 -62.641859 
L 526.651415 -62.641859 
L 527.962602 -62.641859 
L 529.273789 -62.641859 
L 530.584976 -62.641859 
L 531.896163 -62.641859 
L 533.20735 -62.641859 
L 534.518537 -62.641859 
L 535.829725 -62.641859 
L 537.140912 -62.641859 
L 538.452099 -62.641859 
L 539.763286 -62.641859 
L 541.074473 -62.641859 
L 542.38566 -62.641859 
L 543.696847 -62.641859 
L 545.008035 -62.641859 
L 546.319222 -62.641859 
L 547.630409 -62.641859 
L 548.941596 -62.641859 
L 550.252783 -62.641859 
L 551.56397 -62.641859 
L 552.875157 -62.641859 
L 554.186345 -62.641859 
L 555.497532 -62.641859 
L 556.808719 -62.641859 
L 558.119906 -62.641859 
L 559.431093 -62.641859 
L 560.74228 -62.641859 
L 562.053467 -62.641859 
L 563.364655 -62.641859 
L 564.675842 -62.641859 
L 565.987029 -62.641859 
L 567.298216 -62.641859 
L 568.609403 -62.641859 
L 569.92059 -62.641859 
L 571.231777 -62.641859 
L 572.542965 -62.641859 
L 573.854152 -62.641859 
L 575.165339 -62.641859 
L 576.476526 -62.641859 
L 577.787713 -62.641859 
L 579.0989 -62.641859 
L 580.410087 -62.641859 
L 581.721275 -62.641859 
L 583.032462 -62.641859 
L 584.343649 -62.641859 
L 585.654836 -62.641859 
L 586.966023 -62.641859 
L 588.27721 -62.641859 
L 589.588397 -62.641859 
L 590.899585 -62.641859 
L 592.210772 -62.641859 
L 593.521959 -62.641859 
L 594.833146 -62.641859 
L 596.144333 -62.641859 
L 597.45552 -62.641859 
L 598.766707 -62.641859 
L 598.766707 -420.029989 
L 598.766707 -420.029989 
L 597.45552 -420.029989 
L 596.144333 -420.029989 
L 594.833146 -420.029989 
L 593.521959 -420.029989 
L 592.210772 -420.029989 
L 590.899585 -420.029989 
L 589.588397 -420.029989 
L 588.27721 -420.029989 
L 586.966023 -420.029989 
L 585.654836 -420.029989 
L 584.343649 -420.029989 
L 583.032462 -420.029989 
L 581.721275 -420.029989 
L 580.410087 -420.029989 
L 579.0989 -420.029989 
L 577.787713 -420.029989 
L 576.476526 -420.029989 
L 575.165339 -420.029989 
L 573.854152 -420.029989 
L 572.542965 -420.029989 
L 571.231777 -420.029989 
L 569.92059 -420.029989 
L 568.609403 -420.029989 
L 567.298216 -420.029989 
L 565.987029 -420.029989 
L 564.675842 -420.029989 
L 563.364655 -420.029989 
L 562.053467 -420.029989 
L 560.74228 -420.029989 
L 559.431093 -420.029989 
L 558.119906 -420.029989 
L 556.808719 -420.029989 
L 555.497532 -420.029989 
L 554.186345 -420.029989 
L 552.875157 -420.029989 
L 551.56397 -420.029989 
L 550.252783 -420.029989 
L 548.941596 -420.029989 
L 547.630409 -420.029989 
L 546.319222 -420.029989 
L 545.008035 -420.029989 
L 543.696847 -420.029989 
L 542.38566 -420.029989 
L 541.074473 -420.029989 
L 539.763286 -420.029989 
L 538.452099 -420.029989 
L 537.140912 -420.029989 
L 535.829725 -420.029989 
L 534.518537 -420.029989 
L 533.20735 -420.029989 
L 531.896163 -420.029989 
L 530.584976 -420.029989 
L 529.273789 -420.029989 
L 527.962602 -420.029989 
L 526.651415 -420.029989 
L 525.340227 -420.029989 
L 524.02904 -420.029989 
L 522.717853 -420.029989 
L 521.406666 -420.029989 
L 520.095479 -420.029989 
L 518.784292 -420.029989 
L 517.473105 -420.029989 
L 516.161917 -420.029989 
L 514.85073 -420.029989 
L 513.539543 -420.029989 
L 512.228356 -420.029989 
L 510.917169 -420.029989 
L 509.605982 -420.029989 
L 508.294795 -420.029989 
L 506.983607 -420.029989 
L 505.67242 -420.029989 
L 504.361233 -420.029989 
L 503.050046 -420.029989 
L 501.738859 -420.029989 
L 500.427672 -420.029989 
L 499.116485 -420.029989 
L 497.805297 -420.029989 
L 496.49411 -420.029989 
L 495.182923 -420.029989 
L 493.871736 -420.029989 
L 492.560549 -420.029989 
L 491.249362 -420.029989 
L 489.938175 -420.029989 
L 488.626987 -420.029989 
L 487.3158 -420.029989 
L 486.004613 -420.029989 
L 484.693426 -420.029989 
L 483.382239 -420.029989 
L 482.071052 -420.029989 
L 480.759865 -420.029989 
L 479.448677 -420.029989 
L 478.13749 -420.029989 
L 476.826303 -420.029989 
L 475.515116 -420.029989 
L 474.203929 -420.029989 
L 472.892742 -420.029989 
L 471.581555 -420.029989 
L 470.270367 -420.029989 
L 468.95918 -420.029989 
L 467.647993 -420.029989 
L 466.336806 -420.029989 
L 465.025619 -420.029989 
L 463.714432 -420.029989 
L 462.403245 -420.029989 
L 461.092057 -420.029989 
L 459.78087 -420.029989 
L 458.469683 -420.029989 
L 457.158496 -420.029989 
L 455.847309 -420.029989 
L 454.536122 -420.029989 
L 453.224935 -420.029989 
L 451.913747 -420.029989 
L 450.60256 -420.029989 
L 449.291373 -420.029989 
L 447.980186 -420.029989 
L 446.668999 -420.029989 
L 445.357812 -420.029989 
L 444.046625 -420.029989 
L 442.735437 -420.029989 
L 441.42425 -420.029989 
L 440.113063 -420.029989 
L 438.801876 -420.029989 
L 437.490689 -420.029989 
L 436.179502 -420.029989 
L 434.868315 -420.029989 
L 433.557127 -420.029989 
L 432.24594 -420.029989 
L 430.934753 -420.029989 
L 429.623566 -420.029989 
L 428.312379 -420.029989 
L 427.001192 -420.029989 
L 425.690005 -420.029989 
L 424.378817 -420.029989 
L 423.06763 -420.029989 
L 421.756443 -420.029989 
L 420.445256 -420.029989 
L 419.134069 -420.029989 
L 417.822882 -420.029989 
L 416.511695 -420.029989 
L 415.200507 -420.029989 
L 413.88932 -420.029989 
L 412.578133 -420.029989 
L 411.266946 -420.029989 
L 409.955759 -420.029989 
L 408.644572 -420.029989 
L 407.333385 -420.029989 
L 406.022197 -420.029989 
L 404.71101 -420.029989 
L 403.399823 -420.029989 
L 402.088636 -420.029989 
L 400.777449 -420.029989 
L 399.466262 -420.029989 
L 398.155075 -420.029989 
L 396.843887 -420.029989 
L 395.5327 -420.029989 
L 394.221513 -420.029989 
L 392.910326 -420.029989 
L 391.599139 -420.029989 
L 390.287952 -420.029989 
L 388.976765 -420.029989 
L 387.665577 -420.029989 
L 386.35439 -420.029989 
L 385.043203 -420.029989 
L 383.732016 -420.029989 
L 382.420829 -420.029989 
L 381.109642 -420.029989 
L 379.798454 -420.029989 
L 378.487267 -420.029989 
L 377.17608 -420.029989 
L 375.864893 -420.029989 
L 374.553706 -420.029989 
L 373.242519 -420.029989 
L 371.931332 -420.029989 
L 370.620144 -420.029989 
L 369.308957 -420.029989 
L 367.99777 -420.029989 
L 366.686583 -420.029989 
L 365.375396 -420.029989 
L 364.064209 -420.029989 
L 362.753022 -420.029989 
L 361.441834 -420.029989 
L 360.130647 -420.029989 
L 358.81946 -420.029989 
L 357.508273 -420.029989 
L 356.197086 -420.029989 
L 354.885899 -420.029989 
L 353.574712 -420.029989 
L 352.263524 -420.029989 
L 350.952337 -420.029989 
L 349.64115 -420.029989 
L 348.329963 -420.029989 
L 347.018776 -420.029989 
L 345.707589 -420.029989 
L 344.396402 -420.029989 
L 343.085214 -420.029989 
L 341.774027 -420.029989 
L 340.46284 -420.029989 
L 339.151653 -420.029989 
L 337.840466 -420.029989 
L 336.529279 -420.029989 
L 335.218092 -420.029989 
L 333.906904 -420.029989 
L 332.595717 -420.029989 
L 331.28453 -420.029989 
L 329.973343 -420.029989 
L 328.662156 -420.029989 
L 327.350969 -420.029989 
L 326.039782 -420.029989 
L 324.728594 -420.029989 
L 323.417407 -420.029989 
L 322.10622 -420.029989 
L 320.795033 -420.029989 
L 319.483846 -420.029989 
L 318.172659 -420.029989 
L 316.861472 -420.029989 
L 315.550284 -420.029989 
L 314.239097 -420.029989 
L 312.92791 -420.029989 
L 311.616723 -420.029989 
L 310.305536 -420.029989 
L 308.994349 -420.029989 
L 307.683162 -420.029989 
L 306.371974 -420.029989 
L 305.060787 -420.029989 
L 303.7496 -420.029989 
L 302.438413 -420.029989 
L 301.127226 -420.029989 
L 299.816039 -420.029989 
L 298.504852 -420.029989 
L 297.193664 -420.029989 
L 295.882477 -420.029989 
L 294.57129 -420.029989 
L 293.260103 -420.029989 
L 291.948916 -420.029989 
L 290.637729 -420.029989 
L 289.326542 -420.029989 
L 288.015354 -420.029989 
L 286.704167 -420.029989 
L 285.39298 -420.029989 
L 284.081793 -420.029989 
L 282.770606 -420.029989 
L 281.459419 -420.029989 
L 280.148232 -420.029989 
L 278.837044 -420.029989 
L 277.525857 -420.029989 
L 276.21467 -420.029989 
L 274.903483 -420.029989 
L 273.592296 -420.029989 
L 272.281109 -420.029989 
L 270.969922 -420.029989 
L 269.658734 -420.029989 
L 268.347547 -420.029989 
L 267.03636 -420.029989 
L 265.725173 -420.029989 
L 264.413986 -420.029989 
L 263.102799 -420.029989 
L 261.791612 -420.029989 
L 260.480424 -420.029989 
L 259.169237 -420.029989 
L 257.85805 -420.029989 
L 256.546863 -420.029989 
L 255.235676 -420.029989 
L 253.924489 -420.029989 
L 252.613302 -420.029989 
L 251.302114 -420.029989 
L 249.990927 -420.029989 
L 248.67974 -420.029989 
L 247.368553 -420.029989 
L 246.057366 -420.029989 
L 244.746179 -420.029989 
L 243.434992 -420.029989 
L 242.123804 -420.029989 
L 240.812617 -420.029989 
L 239.50143 -420.029989 
L 238.190243 -420.029989 
L 236.879056 -420.029989 
L 235.567869 -420.029989 
L 234.256682 -420.029989 
L 232.945494 -420.029989 
L 231.634307 -420.029989 
L 230.32312 -420.029989 
L 229.011933 -420.029989 
L 227.700746 -420.029989 
L 226.389559 -420.029989 
L 225.078372 -420.029989 
L 223.767184 -420.029989 
L 222.455997 -420.029989 
L 221.14481 -420.029989 
L 219.833623 -420.029989 
L 218.522436 -420.029989 
L 217.211249 -420.029989 
L 215.900062 -420.029989 
L 214.588874 -420.029989 
L 213.277687 -420.029989 
L 211.9665 -420.029989 
L 210.655313 -420.029989 
L 209.344126 -420.029989 
L 208.032939 -420.029989 
L 206.721752 -420.029989 
L 205.410564 -420.029989 
L 204.099377 -416.456107 
L 202.78819 -412.882226 
L 201.477003 -409.308345 
L 200.165816 -405.734464 
L 198.854629 -402.160582 
L 197.543442 -398.586701 
L 196.232254 -395.01282 
L 194.921067 -391.438938 
L 193.60988 -387.865057 
L 192.298693 -384.291176 
L 190.987506 -380.717294 
L 189.676319 -377.143413 
L 188.365132 -373.569532 
L 187.053944 -369.995651 
L 185.742757 -366.421769 
L 184.43157 -362.847888 
L 183.120383 -359.274007 
L 181.809196 -355.700125 
L 180.498009 -352.126244 
L 179.186822 -348.552363 
L 177.875634 -344.978482 
L 176.564447 -341.4046 
L 175.25326 -337.830719 
L 173.942073 -334.256838 
L 172.630886 -330.682956 
L 171.319699 -327.109075 
L 170.008511 -323.535194 
L 168.697324 -319.961312 
L 167.386137 -316.387431 
L 166.07495 -312.81355 
L 164.763763 -309.239669 
L 163.452576 -305.665787 
L 162.141389 -302.091906 
L 160.830201 -298.518025 
L 159.519014 -294.944143 
L 158.207827 -291.370262 
L 156.89664 -287.796381 
L 155.585453 -284.222499 
L 154.274266 -280.648618 
L 152.963079 -277.074737 
L 151.651891 -273.500856 
L 150.340704 -269.926974 
L 149.029517 -266.353093 
L 147.71833 -262.779212 
L 146.407143 -259.20533 
L 145.095956 -255.631449 
L 143.784769 -252.057568 
L 142.473581 -248.483687 
L 141.162394 -244.909805 
L 139.851207 -241.335924 
L 138.54002 -237.762043 
L 137.228833 -234.188161 
L 135.917646 -230.61428 
L 134.606459 -227.040399 
L 133.295271 -223.466517 
L 131.984084 -219.892636 
L 130.672897 -216.318755 
L 129.36171 -212.744874 
L 128.050523 -209.170992 
L 126.739336 -205.597111 
L 125.428149 -202.02323 
L 124.116961 -198.449348 
L 122.805774 -194.875467 
L 121.494587 -191.301586 
L 120.1834 -187.727704 
L 118.872213 -184.153823 
L 117.561026 -180.579942 
L 116.249839 -177.006061 
L 114.938651 -173.432179 
L 113.627464 -169.858298 
L 112.316277 -166.284417 
L 111.00509 -162.710535 
L 109.693903 -159.136654 
L 108.382716 -155.562773 
L 107.071529 -151.988891 
L 105.760341 -148.41501 
L 104.449154 -144.841129 
L 103.137967 -141.267248 
L 101.82678 -137.693366 
L 100.515593 -134.119485 
L 99.204406 -130.545604 
L 97.893219 -126.971722 
L 96.582031 -123.397841 
L 95.270844 -119.82396 
L 93.959657 -116.250079 
L 92.64847 -112.676197 
L 91.337283 -109.102316 
L 90.026096 -105.528435 
L 88.714909 -101.954553 
L 87.403721 -98.380672 
L 86.092534 -94.806791 
L 84.781347 -91.232909 
L 83.47016 -87.659028 
L 82.158973 -84.085147 
L 80.847786 -80.511266 
L 79.536599 -76.937384 
L 78.225411 -73.363503 
L 76.914224 -69.789622 
L 75.603037 -66.21574 
L 74.29185 -62.641859 
z
" style="stroke: #1e90ff; stroke-opacity: 0.5"/>
    </defs>
    <g clip-path="url(#p1b91390401)">
     <use xlink:href="#md205de5cc2" x="0" y="440.39952" style="fill: #1e90ff; fill-opacity: 0.5; stroke: #1e90ff; stroke-opacity: 0.5"/>
    </g>
   </g>
   <g id="PolyCollection_2">
    <defs>
     <path id="m0b889f078a" d="M 74.29185 -62.641859 
L 74.29185 -62.641859 
L 75.603037 -64.4288 
L 76.914224 -66.21574 
L 78.225411 -68.002681 
L 79.536599 -69.789622 
L 80.847786 -71.576562 
L 82.158973 -73.363503 
L 83.47016 -75.150444 
L 84.781347 -76.937384 
L 86.092534 -78.724325 
L 87.403721 -80.511266 
L 88.714909 -82.298206 
L 90.026096 -84.085147 
L 91.337283 -85.872087 
L 92.64847 -87.659028 
L 93.959657 -89.445969 
L 95.270844 -91.232909 
L 96.582031 -93.01985 
L 97.893219 -94.806791 
L 99.204406 -96.593731 
L 100.515593 -98.380672 
L 101.82678 -100.167613 
L 103.137967 -101.954553 
L 104.449154 -103.741494 
L 105.760341 -105.528435 
L 107.071529 -107.315375 
L 108.382716 -109.102316 
L 109.693903 -110.889257 
L 111.00509 -112.676197 
L 112.316277 -114.463138 
L 113.627464 -116.250079 
L 114.938651 -118.037019 
L 116.249839 -119.82396 
L 117.561026 -121.6109 
L 118.872213 -123.397841 
L 120.1834 -125.184782 
L 121.494587 -126.971722 
L 122.805774 -128.758663 
L 124.116961 -130.545604 
L 125.428149 -132.332544 
L 126.739336 -134.119485 
L 128.050523 -135.906426 
L 129.36171 -137.693366 
L 130.672897 -139.480307 
L 131.984084 -141.267248 
L 133.295271 -143.054188 
L 134.606459 -144.841129 
L 135.917646 -146.62807 
L 137.228833 -148.41501 
L 138.54002 -150.201951 
L 139.851207 -151.988891 
L 141.162394 -153.775832 
L 142.473581 -155.562773 
L 143.784769 -157.349713 
L 145.095956 -159.136654 
L 146.407143 -160.923595 
L 147.71833 -162.710535 
L 149.029517 -164.497476 
L 150.340704 -166.284417 
L 151.651891 -168.071357 
L 152.963079 -169.858298 
L 154.274266 -171.645239 
L 155.585453 -173.432179 
L 156.89664 -175.21912 
L 158.207827 -177.006061 
L 159.519014 -178.793001 
L 160.830201 -180.579942 
L 162.141389 -182.366883 
L 163.452576 -184.153823 
L 164.763763 -185.940764 
L 166.07495 -187.727704 
L 167.386137 -189.514645 
L 168.697324 -191.301586 
L 170.008511 -193.088526 
L 171.319699 -194.875467 
L 172.630886 -196.662408 
L 173.942073 -198.449348 
L 175.25326 -200.236289 
L 176.564447 -202.02323 
L 177.875634 -203.81017 
L 179.186822 -205.597111 
L 180.498009 -207.384052 
L 181.809196 -209.170992 
L 183.120383 -210.957933 
L 184.43157 -212.744874 
L 185.742757 -214.531814 
L 187.053944 -216.318755 
L 188.365132 -218.105695 
L 189.676319 -219.892636 
L 190.987506 -221.679577 
L 192.298693 -223.466517 
L 193.60988 -225.253458 
L 194.921067 -227.040399 
L 196.232254 -228.827339 
L 197.543442 -230.61428 
L 198.854629 -232.401221 
L 200.165816 -234.188161 
L 201.477003 -235.975102 
L 202.78819 -237.762043 
L 204.099377 -239.548983 
L 205.410564 -241.335924 
L 206.721752 -241.335924 
L 208.032939 -241.335924 
L 209.344126 -241.335924 
L 210.655313 -241.335924 
L 211.9665 -241.335924 
L 213.277687 -241.335924 
L 214.588874 -241.335924 
L 215.900062 -241.335924 
L 217.211249 -241.335924 
L 218.522436 -241.335924 
L 219.833623 -241.335924 
L 221.14481 -241.335924 
L 222.455997 -241.335924 
L 223.767184 -241.335924 
L 225.078372 -241.335924 
L 226.389559 -241.335924 
L 227.700746 -241.335924 
L 229.011933 -241.335924 
L 230.32312 -241.335924 
L 231.634307 -241.335924 
L 232.945494 -241.335924 
L 234.256682 -241.335924 
L 235.567869 -241.335924 
L 236.879056 -241.335924 
L 238.190243 -241.335924 
L 239.50143 -241.335924 
L 240.812617 -241.335924 
L 242.123804 -241.335924 
L 243.434992 -241.335924 
L 244.746179 -241.335924 
L 246.057366 -241.335924 
L 247.368553 -241.335924 
L 248.67974 -241.335924 
L 249.990927 -241.335924 
L 251.302114 -241.335924 
L 252.613302 -241.335924 
L 253.924489 -241.335924 
L 255.235676 -241.335924 
L 256.546863 -241.335924 
L 257.85805 -241.335924 
L 259.169237 -241.335924 
L 260.480424 -241.335924 
L 261.791612 -241.335924 
L 263.102799 -241.335924 
L 264.413986 -241.335924 
L 265.725173 -241.335924 
L 267.03636 -241.335924 
L 268.347547 -241.335924 
L 269.658734 -241.335924 
L 270.969922 -241.335924 
L 272.281109 -241.335924 
L 273.592296 -241.335924 
L 274.903483 -241.335924 
L 276.21467 -241.335924 
L 277.525857 -241.335924 
L 278.837044 -241.335924 
L 280.148232 -241.335924 
L 281.459419 -241.335924 
L 282.770606 -241.335924 
L 284.081793 -241.335924 
L 285.39298 -241.335924 
L 286.704167 -241.335924 
L 288.015354 -241.335924 
L 289.326542 -241.335924 
L 290.637729 -241.335924 
L 291.948916 -241.335924 
L 293.260103 -241.335924 
L 294.57129 -241.335924 
L 295.882477 -241.335924 
L 297.193664 -241.335924 
L 298.504852 -241.335924 
L 299.816039 -241.335924 
L 301.127226 -241.335924 
L 302.438413 -241.335924 
L 303.7496 -241.335924 
L 305.060787 -241.335924 
L 306.371974 -241.335924 
L 307.683162 -241.335924 
L 308.994349 -241.335924 
L 310.305536 -241.335924 
L 311.616723 -241.335924 
L 312.92791 -241.335924 
L 314.239097 -241.335924 
L 315.550284 -241.335924 
L 316.861472 -241.335924 
L 318.172659 -241.335924 
L 319.483846 -241.335924 
L 320.795033 -241.335924 
L 322.10622 -241.335924 
L 323.417407 -241.335924 
L 324.728594 -241.335924 
L 326.039782 -241.335924 
L 327.350969 -241.335924 
L 328.662156 -241.335924 
L 329.973343 -241.335924 
L 331.28453 -241.335924 
L 332.595717 -241.335924 
L 333.906904 -241.335924 
L 335.218092 -241.335924 
L 336.529279 -241.335924 
L 337.840466 -241.335924 
L 339.151653 -241.335924 
L 340.46284 -241.335924 
L 341.774027 -241.335924 
L 343.085214 -241.335924 
L 344.396402 -241.335924 
L 345.707589 -241.335924 
L 347.018776 -241.335924 
L 348.329963 -241.335924 
L 349.64115 -241.335924 
L 350.952337 -241.335924 
L 352.263524 -241.335924 
L 353.574712 -241.335924 
L 354.885899 -241.335924 
L 356.197086 -241.335924 
L 357.508273 -241.335924 
L 358.81946 -241.335924 
L 360.130647 -241.335924 
L 361.441834 -241.335924 
L 362.753022 -241.335924 
L 364.064209 -241.335924 
L 365.375396 -241.335924 
L 366.686583 -241.335924 
L 367.99777 -241.335924 
L 369.308957 -241.335924 
L 370.620144 -241.335924 
L 371.931332 -241.335924 
L 373.242519 -241.335924 
L 374.553706 -241.335924 
L 375.864893 -241.335924 
L 377.17608 -241.335924 
L 378.487267 -241.335924 
L 379.798454 -241.335924 
L 381.109642 -241.335924 
L 382.420829 -241.335924 
L 383.732016 -241.335924 
L 385.043203 -241.335924 
L 386.35439 -241.335924 
L 387.665577 -241.335924 
L 388.976765 -241.335924 
L 390.287952 -241.335924 
L 391.599139 -241.335924 
L 392.910326 -241.335924 
L 394.221513 -241.335924 
L 395.5327 -241.335924 
L 396.843887 -241.335924 
L 398.155075 -241.335924 
L 399.466262 -241.335924 
L 400.777449 -241.335924 
L 402.088636 -241.335924 
L 403.399823 -241.335924 
L 404.71101 -241.335924 
L 406.022197 -241.335924 
L 407.333385 -241.335924 
L 408.644572 -241.335924 
L 409.955759 -241.335924 
L 411.266946 -241.335924 
L 412.578133 -241.335924 
L 413.88932 -241.335924 
L 415.200507 -241.335924 
L 416.511695 -241.335924 
L 417.822882 -241.335924 
L 419.134069 -241.335924 
L 420.445256 -241.335924 
L 421.756443 -241.335924 
L 423.06763 -241.335924 
L 424.378817 -241.335924 
L 425.690005 -241.335924 
L 427.001192 -241.335924 
L 428.312379 -241.335924 
L 429.623566 -241.335924 
L 430.934753 -241.335924 
L 432.24594 -241.335924 
L 433.557127 -241.335924 
L 434.868315 -241.335924 
L 436.179502 -241.335924 
L 437.490689 -241.335924 
L 438.801876 -241.335924 
L 440.113063 -241.335924 
L 441.42425 -241.335924 
L 442.735437 -241.335924 
L 444.046625 -241.335924 
L 445.357812 -241.335924 
L 446.668999 -241.335924 
L 447.980186 -241.335924 
L 449.291373 -241.335924 
L 450.60256 -241.335924 
L 451.913747 -241.335924 
L 453.224935 -241.335924 
L 454.536122 -241.335924 
L 455.847309 -241.335924 
L 457.158496 -241.335924 
L 458.469683 -241.335924 
L 459.78087 -241.335924 
L 461.092057 -241.335924 
L 462.403245 -241.335924 
L 463.714432 -241.335924 
L 465.025619 -241.335924 
L 466.336806 -241.335924 
L 467.647993 -241.335924 
L 468.95918 -241.335924 
L 470.270367 -241.335924 
L 471.581555 -241.335924 
L 472.892742 -241.335924 
L 474.203929 -241.335924 
L 475.515116 -241.335924 
L 476.826303 -241.335924 
L 478.13749 -241.335924 
L 479.448677 -241.335924 
L 480.759865 -241.335924 
L 482.071052 -241.335924 
L 483.382239 -241.335924 
L 484.693426 -241.335924 
L 486.004613 -241.335924 
L 487.3158 -241.335924 
L 488.626987 -241.335924 
L 489.938175 -241.335924 
L 491.249362 -241.335924 
L 492.560549 -241.335924 
L 493.871736 -241.335924 
L 495.182923 -241.335924 
L 496.49411 -241.335924 
L 497.805297 -241.335924 
L 499.116485 -241.335924 
L 500.427672 -241.335924 
L 501.738859 -241.335924 
L 503.050046 -241.335924 
L 504.361233 -241.335924 
L 505.67242 -241.335924 
L 506.983607 -241.335924 
L 508.294795 -241.335924 
L 509.605982 -241.335924 
L 510.917169 -241.335924 
L 512.228356 -241.335924 
L 513.539543 -241.335924 
L 514.85073 -241.335924 
L 516.161917 -241.335924 
L 517.473105 -241.335924 
L 518.784292 -241.335924 
L 520.095479 -241.335924 
L 521.406666 -241.335924 
L 522.717853 -241.335924 
L 524.02904 -241.335924 
L 525.340227 -241.335924 
L 526.651415 -241.335924 
L 527.962602 -241.335924 
L 529.273789 -241.335924 
L 530.584976 -241.335924 
L 531.896163 -241.335924 
L 533.20735 -241.335924 
L 534.518537 -241.335924 
L 535.829725 -241.335924 
L 537.140912 -241.335924 
L 538.452099 -241.335924 
L 539.763286 -241.335924 
L 541.074473 -241.335924 
L 542.38566 -241.335924 
L 543.696847 -241.335924 
L 545.008035 -241.335924 
L 546.319222 -241.335924 
L 547.630409 -241.335924 
L 548.941596 -241.335924 
L 550.252783 -241.335924 
L 551.56397 -241.335924 
L 552.875157 -241.335924 
L 554.186345 -241.335924 
L 555.497532 -241.335924 
L 556.808719 -241.335924 
L 558.119906 -241.335924 
L 559.431093 -241.335924 
L 560.74228 -241.335924 
L 562.053467 -241.335924 
L 563.364655 -241.335924 
L 564.675842 -241.335924 
L 565.987029 -241.335924 
L 567.298216 -241.335924 
L 568.609403 -241.335924 
L 569.92059 -241.335924 
L 571.231777 -241.335924 
L 572.542965 -241.335924 
L 573.854152 -241.335924 
L 575.165339 -241.335924 
L 576.476526 -241.335924 
L 577.787713 -241.335924 
L 579.0989 -241.335924 
L 580.410087 -241.335924 
L 581.721275 -241.335924 
L 583.032462 -241.335924 
L 584.343649 -241.335924 
L 585.654836 -241.335924 
L 586.966023 -241.335924 
L 588.27721 -241.335924 
L 589.588397 -241.335924 
L 590.899585 -241.335924 
L 592.210772 -241.335924 
L 593.521959 -241.335924 
L 594.833146 -241.335924 
L 596.144333 -241.335924 
L 597.45552 -241.335924 
L 598.766707 -241.335924 
L 598.766707 -420.029989 
L 598.766707 -420.029989 
L 597.45552 -420.029989 
L 596.144333 -420.029989 
L 594.833146 -420.029989 
L 593.521959 -420.029989 
L 592.210772 -420.029989 
L 590.899585 -420.029989 
L 589.588397 -420.029989 
L 588.27721 -420.029989 
L 586.966023 -420.029989 
L 585.654836 -420.029989 
L 584.343649 -420.029989 
L 583.032462 -420.029989 
L 581.721275 -420.029989 
L 580.410087 -420.029989 
L 579.0989 -420.029989 
L 577.787713 -420.029989 
L 576.476526 -420.029989 
L 575.165339 -420.029989 
L 573.854152 -420.029989 
L 572.542965 -420.029989 
L 571.231777 -420.029989 
L 569.92059 -420.029989 
L 568.609403 -420.029989 
L 567.298216 -420.029989 
L 565.987029 -420.029989 
L 564.675842 -420.029989 
L 563.364655 -420.029989 
L 562.053467 -420.029989 
L 560.74228 -420.029989 
L 559.431093 -420.029989 
L 558.119906 -420.029989 
L 556.808719 -420.029989 
L 555.497532 -420.029989 
L 554.186345 -420.029989 
L 552.875157 -420.029989 
L 551.56397 -420.029989 
L 550.252783 -420.029989 
L 548.941596 -420.029989 
L 547.630409 -420.029989 
L 546.319222 -420.029989 
L 545.008035 -420.029989 
L 543.696847 -420.029989 
L 542.38566 -420.029989 
L 541.074473 -420.029989 
L 539.763286 -420.029989 
L 538.452099 -420.029989 
L 537.140912 -420.029989 
L 535.829725 -420.029989 
L 534.518537 -420.029989 
L 533.20735 -420.029989 
L 531.896163 -420.029989 
L 530.584976 -420.029989 
L 529.273789 -420.029989 
L 527.962602 -420.029989 
L 526.651415 -420.029989 
L 525.340227 -420.029989 
L 524.02904 -420.029989 
L 522.717853 -420.029989 
L 521.406666 -420.029989 
L 520.095479 -420.029989 
L 518.784292 -420.029989 
L 517.473105 -420.029989 
L 516.161917 -420.029989 
L 514.85073 -420.029989 
L 513.539543 -420.029989 
L 512.228356 -420.029989 
L 510.917169 -420.029989 
L 509.605982 -420.029989 
L 508.294795 -420.029989 
L 506.983607 -420.029989 
L 505.67242 -420.029989 
L 504.361233 -420.029989 
L 503.050046 -420.029989 
L 501.738859 -420.029989 
L 500.427672 -420.029989 
L 499.116485 -420.029989 
L 497.805297 -420.029989 
L 496.49411 -420.029989 
L 495.182923 -420.029989 
L 493.871736 -420.029989 
L 492.560549 -420.029989 
L 491.249362 -420.029989 
L 489.938175 -420.029989 
L 488.626987 -420.029989 
L 487.3158 -420.029989 
L 486.004613 -420.029989 
L 484.693426 -420.029989 
L 483.382239 -420.029989 
L 482.071052 -420.029989 
L 480.759865 -420.029989 
L 479.448677 -420.029989 
L 478.13749 -420.029989 
L 476.826303 -420.029989 
L 475.515116 -420.029989 
L 474.203929 -420.029989 
L 472.892742 -420.029989 
L 471.581555 -420.029989 
L 470.270367 -420.029989 
L 468.95918 -420.029989 
L 467.647993 -420.029989 
L 466.336806 -420.029989 
L 465.025619 -420.029989 
L 463.714432 -420.029989 
L 462.403245 -420.029989 
L 461.092057 -420.029989 
L 459.78087 -420.029989 
L 458.469683 -420.029989 
L 457.158496 -420.029989 
L 455.847309 -420.029989 
L 454.536122 -420.029989 
L 453.224935 -420.029989 
L 451.913747 -420.029989 
L 450.60256 -420.029989 
L 449.291373 -420.029989 
L 447.980186 -420.029989 
L 446.668999 -420.029989 
L 445.357812 -420.029989 
L 444.046625 -420.029989 
L 442.735437 -420.029989 
L 441.42425 -420.029989 
L 440.113063 -420.029989 
L 438.801876 -420.029989 
L 437.490689 -420.029989 
L 436.179502 -420.029989 
L 434.868315 -420.029989 
L 433.557127 -420.029989 
L 432.24594 -420.029989 
L 430.934753 -420.029989 
L 429.623566 -420.029989 
L 428.312379 -420.029989 
L 427.001192 -420.029989 
L 425.690005 -420.029989 
L 424.378817 -420.029989 
L 423.06763 -420.029989 
L 421.756443 -420.029989 
L 420.445256 -420.029989 
L 419.134069 -420.029989 
L 417.822882 -420.029989 
L 416.511695 -420.029989 
L 415.200507 -420.029989 
L 413.88932 -420.029989 
L 412.578133 -420.029989 
L 411.266946 -420.029989 
L 409.955759 -420.029989 
L 408.644572 -420.029989 
L 407.333385 -420.029989 
L 406.022197 -420.029989 
L 404.71101 -420.029989 
L 403.399823 -420.029989 
L 402.088636 -420.029989 
L 400.777449 -420.029989 
L 399.466262 -420.029989 
L 398.155075 -420.029989 
L 396.843887 -420.029989 
L 395.5327 -420.029989 
L 394.221513 -420.029989 
L 392.910326 -420.029989 
L 391.599139 -420.029989 
L 390.287952 -420.029989 
L 388.976765 -420.029989 
L 387.665577 -420.029989 
L 386.35439 -420.029989 
L 385.043203 -420.029989 
L 383.732016 -420.029989 
L 382.420829 -420.029989 
L 381.109642 -420.029989 
L 379.798454 -420.029989 
L 378.487267 -420.029989 
L 377.17608 -420.029989 
L 375.864893 -420.029989 
L 374.553706 -420.029989 
L 373.242519 -420.029989 
L 371.931332 -420.029989 
L 370.620144 -420.029989 
L 369.308957 -420.029989 
L 367.99777 -420.029989 
L 366.686583 -420.029989 
L 365.375396 -420.029989 
L 364.064209 -420.029989 
L 362.753022 -420.029989 
L 361.441834 -420.029989 
L 360.130647 -420.029989 
L 358.81946 -420.029989 
L 357.508273 -420.029989 
L 356.197086 -420.029989 
L 354.885899 -420.029989 
L 353.574712 -420.029989 
L 352.263524 -420.029989 
L 350.952337 -420.029989 
L 349.64115 -420.029989 
L 348.329963 -420.029989 
L 347.018776 -420.029989 
L 345.707589 -420.029989 
L 344.396402 -420.029989 
L 343.085214 -420.029989 
L 341.774027 -420.029989 
L 340.46284 -420.029989 
L 339.151653 -420.029989 
L 337.840466 -420.029989 
L 336.529279 -420.029989 
L 335.218092 -418.243048 
L 333.906904 -416.456107 
L 332.595717 -414.669167 
L 331.28453 -412.882226 
L 329.973343 -411.095286 
L 328.662156 -409.308345 
L 327.350969 -407.521404 
L 326.039782 -405.734464 
L 324.728594 -403.947523 
L 323.417407 -402.160582 
L 322.10622 -400.373642 
L 320.795033 -398.586701 
L 319.483846 -396.79976 
L 318.172659 -395.01282 
L 316.861472 -393.225879 
L 315.550284 -391.438938 
L 314.239097 -389.651998 
L 312.92791 -387.865057 
L 311.616723 -386.078116 
L 310.305536 -384.291176 
L 308.994349 -382.504235 
L 307.683162 -380.717294 
L 306.371974 -378.930354 
L 305.060787 -377.143413 
L 303.7496 -375.356473 
L 302.438413 -373.569532 
L 301.127226 -371.782591 
L 299.816039 -369.995651 
L 298.504852 -368.20871 
L 297.193664 -366.421769 
L 295.882477 -364.634829 
L 294.57129 -362.847888 
L 293.260103 -361.060947 
L 291.948916 -359.274007 
L 290.637729 -357.487066 
L 289.326542 -355.700125 
L 288.015354 -353.913185 
L 286.704167 -352.126244 
L 285.39298 -350.339303 
L 284.081793 -348.552363 
L 282.770606 -346.765422 
L 281.459419 -344.978482 
L 280.148232 -343.191541 
L 278.837044 -341.4046 
L 277.525857 -339.61766 
L 276.21467 -337.830719 
L 274.903483 -336.043778 
L 273.592296 -334.256838 
L 272.281109 -332.469897 
L 270.969922 -330.682956 
L 269.658734 -328.896016 
L 268.347547 -327.109075 
L 267.03636 -325.322134 
L 265.725173 -323.535194 
L 264.413986 -321.748253 
L 263.102799 -319.961312 
L 261.791612 -318.174372 
L 260.480424 -316.387431 
L 259.169237 -314.60049 
L 257.85805 -312.81355 
L 256.546863 -311.026609 
L 255.235676 -309.239669 
L 253.924489 -307.452728 
L 252.613302 -305.665787 
L 251.302114 -303.878847 
L 249.990927 -302.091906 
L 248.67974 -300.304965 
L 247.368553 -298.518025 
L 246.057366 -296.731084 
L 244.746179 -294.944143 
L 243.434992 -293.157203 
L 242.123804 -291.370262 
L 240.812617 -289.583321 
L 239.50143 -287.796381 
L 238.190243 -286.00944 
L 236.879056 -284.222499 
L 235.567869 -282.435559 
L 234.256682 -280.648618 
L 232.945494 -278.861678 
L 231.634307 -277.074737 
L 230.32312 -275.287796 
L 229.011933 -273.500856 
L 227.700746 -271.713915 
L 226.389559 -269.926974 
L 225.078372 -268.140034 
L 223.767184 -266.353093 
L 222.455997 -264.566152 
L 221.14481 -262.779212 
L 219.833623 -260.992271 
L 218.522436 -259.20533 
L 217.211249 -257.41839 
L 215.900062 -255.631449 
L 214.588874 -253.844508 
L 213.277687 -252.057568 
L 211.9665 -250.270627 
L 210.655313 -248.483687 
L 209.344126 -246.696746 
L 208.032939 -244.909805 
L 206.721752 -243.122865 
L 205.410564 -241.335924 
L 204.099377 -241.335924 
L 202.78819 -241.335924 
L 201.477003 -241.335924 
L 200.165816 -241.335924 
L 198.854629 -241.335924 
L 197.543442 -241.335924 
L 196.232254 -241.335924 
L 194.921067 -241.335924 
L 193.60988 -241.335924 
L 192.298693 -241.335924 
L 190.987506 -241.335924 
L 189.676319 -241.335924 
L 188.365132 -241.335924 
L 187.053944 -241.335924 
L 185.742757 -241.335924 
L 184.43157 -241.335924 
L 183.120383 -241.335924 
L 181.809196 -241.335924 
L 180.498009 -241.335924 
L 179.186822 -241.335924 
L 177.875634 -241.335924 
L 176.564447 -241.335924 
L 175.25326 -241.335924 
L 173.942073 -241.335924 
L 172.630886 -241.335924 
L 171.319699 -241.335924 
L 170.008511 -241.335924 
L 168.697324 -241.335924 
L 167.386137 -241.335924 
L 166.07495 -241.335924 
L 164.763763 -241.335924 
L 163.452576 -241.335924 
L 162.141389 -241.335924 
L 160.830201 -241.335924 
L 159.519014 -241.335924 
L 158.207827 -241.335924 
L 156.89664 -241.335924 
L 155.585453 -241.335924 
L 154.274266 -241.335924 
L 152.963079 -241.335924 
L 151.651891 -241.335924 
L 150.340704 -241.335924 
L 149.029517 -241.335924 
L 147.71833 -241.335924 
L 146.407143 -241.335924 
L 145.095956 -241.335924 
L 143.784769 -241.335924 
L 142.473581 -241.335924 
L 141.162394 -241.335924 
L 139.851207 -241.335924 
L 138.54002 -237.762043 
L 137.228833 -234.188161 
L 135.917646 -230.61428 
L 134.606459 -227.040399 
L 133.295271 -223.466517 
L 131.984084 -219.892636 
L 130.672897 -216.318755 
L 129.36171 -212.744874 
L 128.050523 -209.170992 
L 126.739336 -205.597111 
L 125.428149 -202.02323 
L 124.116961 -198.449348 
L 122.805774 -194.875467 
L 121.494587 -191.301586 
L 120.1834 -187.727704 
L 118.872213 -184.153823 
L 117.561026 -180.579942 
L 116.249839 -177.006061 
L 114.938651 -173.432179 
L 113.627464 -169.858298 
L 112.316277 -166.284417 
L 111.00509 -162.710535 
L 109.693903 -159.136654 
L 108.382716 -155.562773 
L 107.071529 -151.988891 
L 105.760341 -148.41501 
L 104.449154 -144.841129 
L 103.137967 -141.267248 
L 101.82678 -137.693366 
L 100.515593 -134.119485 
L 99.204406 -130.545604 
L 97.893219 -126.971722 
L 96.582031 -123.397841 
L 95.270844 -119.82396 
L 93.959657 -116.250079 
L 92.64847 -112.676197 
L 91.337283 -109.102316 
L 90.026096 -105.528435 
L 88.714909 -101.954553 
L 87.403721 -98.380672 
L 86.092534 -94.806791 
L 84.781347 -91.232909 
L 83.47016 -87.659028 
L 82.158973 -84.085147 
L 80.847786 -80.511266 
L 79.536599 -76.937384 
L 78.225411 -73.363503 
L 76.914224 -69.789622 
L 75.603037 -66.21574 
L 74.29185 -62.641859 
z
" style="stroke: #00a650; stroke-opacity: 0.5"/>
    </defs>
    <g clip-path="url(#p1b91390401)">
     <use xlink:href="#m0b889f078a" x="0" y="440.39952" style="fill: #00a650; fill-opacity: 0.5; stroke: #00a650; stroke-opacity: 0.5"/>
    </g>
   </g>
   <g id="matplotlib.axis_1">
    <g id="xtick_1">
     <g id="line2d_1">
      <defs>
       <path id="mb012977f65" d="M 0 0 
L 0 3.5 
" style="stroke: #5a5758; stroke-width: 0.8"/>
      </defs>
      <g>
       <use xlink:href="#mb012977f65" x="74.29185" y="389.757661" style="fill: #5a5758; stroke: #5a5758; stroke-width: 0.8"/>
      </g>
     </g>
     <g id="text_1">
      <!-- 0 -->
      <g style="fill: #5a5758" transform="translate(70.355925 407.178491) scale(0.14994 -0.14994)">
       <defs>
        <path id="CMUBright-Roman-30" d="M 333 1984 
L 333 2086 
Q 333 2291 339 2438 
Q 346 2586 371 2832 
Q 397 3078 461 3267 
Q 525 3456 621 3657 
Q 717 3859 880 4006 
Q 1043 4154 1261 4230 
Q 1446 4301 1677 4301 
Q 1856 4301 2025 4256 
Q 2195 4211 2380 4070 
Q 2566 3930 2704 3709 
Q 2842 3488 2931 3104 
Q 3021 2720 3021 2214 
Q 3021 1683 2982 1347 
Q 2944 1011 2803 685 
Q 2618 250 2307 70 
Q 1997 -109 1677 -109 
Q 1498 -109 1328 -64 
Q 1158 -19 972 121 
Q 787 262 649 483 
Q 512 704 422 1091 
Q 333 1478 333 1984 
z
M 742 2413 
Q 742 2374 745 2326 
Q 749 2278 749 2272 
L 749 2150 
Q 749 1779 758 1548 
Q 768 1318 838 1014 
Q 909 710 1037 538 
Q 1286 218 1677 218 
Q 2086 218 2330 557 
Q 2451 730 2518 1037 
Q 2586 1344 2595 1568 
Q 2605 1792 2605 2163 
L 2605 2272 
Q 2605 2278 2608 2323 
Q 2611 2368 2611 2406 
Q 2611 3302 2336 3661 
Q 2099 3981 1677 3981 
Q 1242 3981 1005 3642 
Q 742 3264 742 2413 
z
" transform="scale(0.015625)"/>
       </defs>
       <use xlink:href="#CMUBright-Roman-30"/>
      </g>
     </g>
    </g>
    <g id="xtick_2">
     <g id="line2d_2">
      <g>
       <use xlink:href="#mb012977f65" x="205.410564" y="389.757661" style="fill: #5a5758; stroke: #5a5758; stroke-width: 0.8"/>
      </g>
     </g>
     <g id="text_2">
      <!-- 1 -->
      <g style="fill: #5a5758" transform="translate(201.474639 407.178491) scale(0.14994 -0.14994)">
       <defs>
        <path id="CMUBright-Roman-31" d="M 672 3558 
L 672 3885 
Q 1427 3885 1862 4301 
L 1965 4301 
L 1965 320 
L 2803 320 
L 2803 0 
L 710 0 
L 710 320 
L 1549 320 
L 1549 3744 
Q 1178 3558 672 3558 
z
" transform="scale(0.015625)"/>
       </defs>
       <use xlink:href="#CMUBright-Roman-31"/>
      </g>
     </g>
    </g>
    <g id="xtick_3">
     <g id="line2d_3">
      <g>
       <use xlink:href="#mb012977f65" x="336.529279" y="389.757661" style="fill: #5a5758; stroke: #5a5758; stroke-width: 0.8"/>
      </g>
     </g>
     <g id="text_3">
      <!-- 2 -->
      <g style="fill: #5a5758" transform="translate(332.593354 407.178491) scale(0.14994 -0.14994)">
       <defs>
        <path id="CMUBright-Roman-32" d="M 275 3226 
Q 595 4301 1587 4301 
L 1594 4301 
Q 2214 4294 2617 3923 
Q 3021 3552 3021 2989 
Q 3021 2746 2937 2531 
Q 2854 2317 2668 2115 
Q 2483 1914 2384 1821 
Q 2285 1728 2061 1549 
Q 1754 1299 1642 1203 
Q 1530 1107 698 358 
L 3021 358 
L 3021 0 
L 333 0 
L 333 339 
L 1683 1562 
Q 2144 1965 2368 2278 
Q 2592 2592 2592 2982 
Q 2592 3418 2278 3690 
Q 1965 3962 1498 3962 
Q 1069 3962 854 3693 
Q 640 3424 512 2938 
L 275 3226 
z
" transform="scale(0.015625)"/>
       </defs>
       <use xlink:href="#CMUBright-Roman-32"/>
      </g>
     </g>
    </g>
    <g id="xtick_4">
     <g id="line2d_4">
      <g>
       <use xlink:href="#mb012977f65" x="598.766707" y="389.757661" style="fill: #5a5758; stroke: #5a5758; stroke-width: 0.8"/>
      </g>
     </g>
     <g id="text_4">
      <!-- 4 -->
      <g style="fill: #5a5758" transform="translate(594.830782 407.178491) scale(0.14994 -0.14994)">
       <defs>
        <path id="CMUBright-Roman-34" d="M 186 1158 
L 186 1504 
L 1952 4250 
L 2438 4250 
L 2438 1498 
L 3168 1498 
L 3168 1158 
L 2438 1158 
L 2438 0 
L 2035 0 
L 2035 1158 
L 186 1158 
z
M 602 1498 
L 2054 1498 
L 2054 3885 
Q 1971 3667 1606 3085 
L 602 1498 
z
" transform="scale(0.015625)"/>
       </defs>
       <use xlink:href="#CMUBright-Roman-34"/>
      </g>
     </g>
    </g>
    <g id="text_5">
     <!-- $r$ -->
     <g style="fill: #5a5758" transform="translate(333.379279 430.192957) scale(0.18 -0.18)">
      <defs>
       <path id="CMUBright-SemiBold-72" d="M 416 0 
L 416 3021 
L 992 3021 
L 992 2368 
Q 1370 3059 2112 3072 
L 2112 2528 
Q 1939 2528 1769 2480 
Q 1600 2432 1421 2326 
Q 1242 2221 1130 2013 
Q 1018 1805 1018 1517 
L 1018 0 
L 416 0 
z
" transform="scale(0.015625)"/>
      </defs>
      <use xlink:href="#CMUBright-SemiBold-72"/>
     </g>
    </g>
   </g>
   <g id="matplotlib.axis_2">
    <g id="ytick_1">
     <g id="line2d_5">
      <defs>
       <path id="m3ae54f531c" d="M 0 0 
L -3.5 0 
" style="stroke: #5a5758; stroke-width: 0.8"/>
      </defs>
      <g>
       <use xlink:href="#m3ae54f531c" x="62.29185" y="377.757661" style="fill: #5a5758; stroke: #5a5758; stroke-width: 0.8"/>
      </g>
     </g>
     <g id="text_6">
      <!-- 0 -->
      <g style="fill: #5a5758" transform="translate(47.42 382.968076) scale(0.14994 -0.14994)">
       <use xlink:href="#CMUBright-Roman-30"/>
      </g>
     </g>
    </g>
    <g id="ytick_2">
     <g id="line2d_6">
      <g>
       <use xlink:href="#m3ae54f531c" x="62.29185" y="199.063596" style="fill: #5a5758; stroke: #5a5758; stroke-width: 0.8"/>
      </g>
     </g>
     <g id="text_7">
      <!-- 1 -->
      <g style="fill: #5a5758" transform="translate(47.42 204.274011) scale(0.14994 -0.14994)">
       <use xlink:href="#CMUBright-Roman-31"/>
      </g>
     </g>
    </g>
    <g id="ytick_3">
     <g id="line2d_7">
      <g>
       <use xlink:href="#m3ae54f531c" x="62.29185" y="20.369531" style="fill: #5a5758; stroke: #5a5758; stroke-width: 0.8"/>
      </g>
     </g>
     <g id="text_8">
      <!-- 2 -->
      <g style="fill: #5a5758" transform="translate(47.42 25.579946) scale(0.14994 -0.14994)">
       <use xlink:href="#CMUBright-Roman-32"/>
      </g>
     </g>
    </g>
    <g id="text_9">
     <!-- $\phi(r)$ -->
     <g style="fill: #5a5758" transform="translate(7.2 194.923596) scale(0.18 -0.18)">
      <defs>
       <path id="STIXNonUnicode-Regular-e1b1" d="M 2246 4333 
L 2246 2950 
Q 2995 2944 3398 2496 
Q 3802 2048 3802 1433 
Q 3802 819 3398 374 
Q 2995 -70 2246 -77 
L 2246 -1229 
L 1792 -1382 
L 1734 -1350 
L 1734 -77 
Q 986 -70 582 374 
Q 179 819 179 1434 
Q 179 2054 582 2499 
Q 986 2944 1734 2950 
L 1734 4192 
L 2202 4378 
L 2246 4333 
z
M 2240 2496 
L 2240 378 
Q 2758 384 3027 678 
Q 3296 973 3296 1446 
Q 3296 1894 3005 2188 
Q 2714 2483 2240 2496 
z
M 1741 378 
L 1741 2496 
Q 1222 2490 953 2202 
Q 685 1914 685 1446 
Q 685 973 953 678 
Q 1222 384 1741 378 
z
" transform="scale(0.015625)"/>
       <path id="CMUBright-SemiBold-28" d="M 1747 -1421 
Q 499 -358 499 1690 
Q 499 3738 1747 4800 
L 2234 4800 
Q 2086 4653 1990 4544 
Q 1894 4435 1708 4147 
Q 1523 3859 1411 3552 
Q 1299 3245 1206 2752 
Q 1114 2259 1114 1689 
Q 1114 1120 1206 627 
Q 1299 134 1411 -173 
Q 1523 -480 1708 -768 
Q 1894 -1056 1990 -1165 
Q 2086 -1274 2234 -1421 
L 1747 -1421 
z
" transform="scale(0.015625)"/>
       <path id="CMUBright-SemiBold-29" d="M 371 -1421 
Q 525 -1267 614 -1164 
Q 704 -1062 893 -768 
Q 1082 -474 1194 -173 
Q 1306 128 1398 624 
Q 1491 1120 1491 1690 
Q 1491 2246 1404 2732 
Q 1318 3219 1206 3523 
Q 1094 3827 921 4105 
Q 749 4384 646 4502 
Q 544 4621 416 4755 
Q 384 4787 371 4800 
L 851 4800 
Q 2106 3731 2106 1689 
Q 2106 -352 851 -1421 
L 371 -1421 
z
" transform="scale(0.015625)"/>
      </defs>
      <use xlink:href="#STIXNonUnicode-Regular-e1b1"/>
      <use xlink:href="#CMUBright-SemiBold-28" transform="translate(62.199997 0)"/>
      <use xlink:href="#CMUBright-SemiBold-72" transform="translate(102.999985 0)"/>
      <use xlink:href="#CMUBright-SemiBold-29" transform="translate(137.599976 0)"/>
     </g>
    </g>
   </g>
   <g id="line2d_8">
    <path d="M 74.29185 377.757661 
L 205.410564 199.063596 
L 598.766707 199.063596 
L 598.766707 199.063596 
" style="fill: none; stroke: #e29400; stroke-width: 4; stroke-linecap: square"/>
   </g>
   <g id="line2d_9">
    <path d="M 74.29185 377.757661 
L 139.851207 199.063596 
L 205.410564 199.063596 
L 336.529279 20.369531 
L 598.766707 20.369531 
L 598.766707 20.369531 
" style="fill: none; stroke: #1e90ff; stroke-width: 4; stroke-linecap: square"/>
   </g>
   <g id="line2d_10">
    <path d="M 74.29185 377.757661 
L 78.225411 367.348298 
L 82.158973 357.528144 
L 86.092534 348.248549 
L 90.026096 339.466076 
L 93.959657 331.141818 
L 97.893219 323.240828 
L 101.82678 315.731622 
L 107.071529 306.280035 
L 112.316277 297.414593 
L 117.561026 289.082411 
L 122.805774 281.236779 
L 128.050523 273.83629 
L 133.295271 266.844103 
L 138.54002 260.227336 
L 143.784769 253.956544 
L 149.029517 248.005283 
L 154.274266 242.349736 
L 159.519014 236.968398 
L 166.07495 230.597843 
L 172.630886 224.59132 
L 179.186822 218.918492 
L 185.742757 213.552304 
L 192.298693 208.468547 
L 198.854629 203.645495 
L 205.410564 199.063596 
L 213.277687 193.858915 
L 221.14481 188.948838 
L 229.011933 184.30904 
L 236.879056 179.917803 
L 244.746179 175.755675 
L 253.924489 171.16621 
L 263.102799 166.840076 
L 272.281109 162.75524 
L 281.459419 158.892062 
L 291.948916 154.725971 
L 302.438413 150.803155 
L 312.92791 147.102911 
L 324.728594 143.183322 
L 336.529279 139.498908 
L 349.64115 135.656025 
L 362.753022 132.053322 
L 375.864893 128.668964 
L 390.287952 125.175434 
L 404.71101 121.90025 
L 420.445256 118.553083 
L 437.490689 115.167444 
L 454.536122 112.007513 
L 472.892742 108.83194 
L 492.560549 105.665028 
L 513.539543 102.527722 
L 534.518537 99.613019 
L 556.808719 96.734516 
L 580.410087 93.906183 
L 598.766707 91.847157 
L 598.766707 91.847157 
" style="fill: none; stroke: #e21a1a; stroke-width: 4; stroke-linecap: square"/>
   </g>
   <g id="patch_3">
    <path d="M 62.29185 377.757661 
L 62.29185 20.369531 
" style="fill: none; stroke: #5a5758; stroke-width: 0.8; stroke-linejoin: miter; stroke-linecap: square"/>
   </g>
   <g id="patch_4">
    <path d="M 74.29185 389.757661 
L 598.766707 389.757661 
" style="fill: none; stroke: #5a5758; stroke-width: 0.8; stroke-linejoin: miter; stroke-linecap: square"/>
   </g>
   <g id="text_10">
    <!-- TVD -->
    <g style="fill: #5a5758" transform="translate(467.647993 354.877317) scale(0.3 -0.3)">
     <defs>
      <path id="CMUBright-Roman-54" d="M 237 4090 
L 237 4429 
L 4390 4429 
L 4390 4090 
L 2541 4090 
L 2541 0 
L 2093 0 
L 2093 4090 
L 237 4090 
z
" transform="scale(0.015625)"/>
      <path id="CMUBright-Roman-56" d="M 90 4448 
L 563 4448 
L 2093 646 
L 2176 416 
L 2733 1824 
L 3795 4448 
L 4218 4448 
L 2406 -32 
L 1907 -32 
L 90 4448 
z
" transform="scale(0.015625)"/>
      <path id="CMUBright-Roman-44" d="M 627 0 
L 627 4448 
L 2253 4448 
Q 2778 4448 3200 4240 
Q 3622 4032 3875 3696 
Q 4128 3360 4262 2973 
Q 4397 2586 4397 2189 
Q 4397 1312 3853 704 
Q 3309 96 2560 13 
Q 2451 0 2227 0 
L 627 0 
z
M 1069 339 
L 2144 339 
Q 2560 339 2886 460 
Q 3213 582 3411 771 
Q 3610 960 3734 1213 
Q 3859 1466 3907 1702 
Q 3955 1939 3955 2189 
Q 3955 2445 3907 2688 
Q 3859 2931 3734 3193 
Q 3610 3456 3411 3651 
Q 3213 3846 2886 3974 
Q 2560 4102 2144 4102 
L 1069 4102 
L 1069 339 
z
" transform="scale(0.015625)"/>
     </defs>
     <use xlink:href="#CMUBright-Roman-54"/>
     <use xlink:href="#CMUBright-Roman-56" x="72.499985"/>
     <use xlink:href="#CMUBright-Roman-44" x="139.999969"/>
    </g>
   </g>
   <g id="text_11">
    <!-- Second-order -->
    <g style="fill: #5a5758" transform="translate(416.843899 59.088938) scale(0.3 -0.3)">
     <defs>
      <path id="CMUBright-Roman-53" d="M 294 339 
L 371 781 
Q 1082 256 1843 256 
Q 2342 256 2643 531 
Q 2944 806 2944 1152 
Q 2944 1402 2781 1622 
Q 2618 1843 2323 1958 
Q 2176 2016 1769 2096 
Q 1363 2176 1059 2317 
Q 755 2458 557 2746 
Q 365 3014 365 3341 
Q 365 3808 781 4179 
Q 1197 4550 1882 4550 
Q 2515 4550 3110 4243 
L 3034 3802 
Q 2848 3930 2745 3990 
Q 2643 4051 2400 4124 
Q 2157 4198 1882 4198 
Q 1389 4198 1081 3958 
Q 774 3718 774 3392 
Q 774 3168 931 2973 
Q 1088 2778 1376 2669 
Q 1491 2630 1910 2534 
Q 2330 2438 2438 2394 
Q 2899 2221 3126 1885 
Q 3354 1549 3354 1197 
Q 3354 678 2925 284 
Q 2496 -109 1837 -109 
Q 1030 -109 294 339 
z
" transform="scale(0.015625)"/>
      <path id="CMUBright-Roman-65" d="M 269 1536 
Q 269 2163 646 2630 
Q 1024 3098 1587 3098 
Q 1786 3098 1968 3037 
Q 2150 2976 2342 2829 
Q 2534 2682 2652 2365 
Q 2771 2048 2771 1600 
L 653 1600 
L 653 1549 
Q 653 966 966 617 
Q 1280 269 1690 269 
Q 2234 269 2726 710 
L 2758 358 
Q 2266 -51 1690 -51 
Q 1101 -51 685 406 
Q 269 864 269 1536 
z
M 685 1856 
L 2426 1856 
Q 2381 2342 2134 2560 
Q 1888 2778 1587 2778 
Q 1261 2778 1008 2515 
Q 755 2253 685 1856 
z
" transform="scale(0.015625)"/>
      <path id="CMUBright-Roman-63" d="M 294 1517 
Q 294 2157 691 2630 
Q 1088 3104 1709 3104 
Q 2042 3104 2250 3046 
Q 2458 2989 2758 2829 
L 2694 2477 
Q 2502 2592 2403 2640 
Q 2304 2688 2125 2729 
Q 1946 2771 1709 2771 
Q 1254 2771 982 2432 
Q 710 2093 710 1523 
Q 717 915 1008 598 
Q 1299 282 1696 282 
Q 1958 282 2192 365 
Q 2426 448 2525 518 
Q 2624 589 2765 710 
L 2797 352 
Q 2304 -51 1690 -51 
Q 1107 -51 700 403 
Q 294 858 294 1517 
z
" transform="scale(0.015625)"/>
      <path id="CMUBright-Roman-6f" d="M 256 1510 
Q 256 2182 675 2640 
Q 1094 3098 1677 3098 
Q 2272 3098 2681 2627 
Q 3091 2157 3091 1510 
Q 3091 838 2668 393 
Q 2246 -51 1677 -51 
Q 1088 -51 672 406 
Q 256 864 256 1510 
z
M 666 1587 
Q 666 1190 771 915 
Q 877 640 1046 512 
Q 1216 384 1369 333 
Q 1523 282 1677 282 
Q 1843 282 2006 342 
Q 2170 403 2330 537 
Q 2490 672 2586 937 
Q 2682 1203 2682 1568 
Q 2682 1914 2586 2163 
Q 2490 2413 2330 2541 
Q 2170 2669 2006 2723 
Q 1843 2778 1676 2778 
Q 1510 2778 1347 2723 
Q 1184 2669 1024 2544 
Q 864 2419 765 2172 
Q 666 1926 666 1587 
z
" transform="scale(0.015625)"/>
      <path id="CMUBright-Roman-6e" d="M 512 0 
L 512 3021 
L 909 3021 
L 909 2400 
Q 1030 2682 1273 2877 
Q 1517 3072 1869 3072 
Q 2125 3072 2307 2992 
Q 2490 2912 2579 2809 
Q 2669 2707 2720 2540 
Q 2771 2374 2777 2272 
Q 2784 2170 2784 2016 
L 2784 0 
L 2374 0 
L 2374 1990 
Q 2374 2106 2371 2176 
Q 2368 2246 2329 2368 
Q 2291 2490 2220 2563 
Q 2150 2637 2006 2694 
Q 1862 2752 1658 2752 
Q 1370 2752 1149 2518 
Q 928 2285 928 1677 
L 928 0 
L 512 0 
z
" transform="scale(0.015625)"/>
      <path id="CMUBright-Roman-64" d="M 294 1510 
Q 294 2189 659 2630 
Q 1024 3072 1504 3072 
Q 2016 3072 2381 2624 
L 2381 4448 
L 2784 4448 
L 2784 0 
L 2374 0 
L 2374 269 
L 2368 467 
Q 2016 -51 1459 -51 
Q 966 -51 630 413 
Q 294 877 294 1510 
z
M 710 1510 
Q 710 1139 809 876 
Q 909 614 1065 492 
Q 1222 371 1369 320 
Q 1517 269 1664 269 
Q 2022 269 2259 582 
Q 2278 614 2304 652 
Q 2330 691 2339 707 
Q 2349 723 2358 752 
Q 2368 781 2371 816 
Q 2374 851 2374 902 
L 2374 2253 
Q 2374 2438 2179 2595 
Q 1984 2752 1722 2752 
Q 1619 2752 1504 2726 
Q 1389 2701 1241 2621 
Q 1094 2541 982 2413 
Q 870 2285 790 2048 
Q 710 1811 710 1510 
z
" transform="scale(0.015625)"/>
      <path id="CMUBright-Roman-2d" d="M 70 1350 
L 70 1670 
L 1862 1670 
L 1862 1350 
L 70 1350 
z
" transform="scale(0.015625)"/>
      <path id="CMUBright-Roman-72" d="M 512 0 
L 512 3021 
L 896 3021 
L 896 2534 
L 902 2234 
Q 954 2362 1043 2490 
Q 1133 2618 1273 2755 
Q 1414 2893 1632 2979 
Q 1850 3066 2112 3072 
L 2112 2714 
Q 1907 2707 1708 2643 
Q 1510 2579 1324 2444 
Q 1139 2310 1027 2070 
Q 915 1830 915 1510 
L 915 0 
L 512 0 
z
" transform="scale(0.015625)"/>
     </defs>
     <use xlink:href="#CMUBright-Roman-53"/>
     <use xlink:href="#CMUBright-Roman-65" x="58.299988"/>
     <use xlink:href="#CMUBright-Roman-63" x="104.999985"/>
     <use xlink:href="#CMUBright-Roman-6f" x="151.699982"/>
     <use xlink:href="#CMUBright-Roman-6e" x="204.199966"/>
     <use xlink:href="#CMUBright-Roman-64" x="255.899963"/>
     <use xlink:href="#CMUBright-Roman-2d" x="307.59996"/>
     <use xlink:href="#CMUBright-Roman-6f" x="342.599945"/>
     <use xlink:href="#CMUBright-Roman-72" x="395.09993"/>
     <use xlink:href="#CMUBright-Roman-64" x="429.699921"/>
     <use xlink:href="#CMUBright-Roman-65" x="481.399918"/>
     <use xlink:href="#CMUBright-Roman-72" x="528.099915"/>
    </g>
   </g>
   <g id="text_12">
    <!-- Minmod -->
    <g style="fill: #e29400" transform="translate(604.766707 206.983127) scale(0.3 -0.3)">
     <defs>
      <path id="CMUBright-Roman-4d" d="M 646 0 
L 646 4448 
L 1235 4448 
L 2528 1274 
L 2822 518 
L 2912 774 
L 4397 4448 
L 4992 4448 
L 4992 0 
L 4589 0 
L 4589 4032 
L 4090 2752 
L 3008 109 
L 2624 109 
L 1280 3418 
L 1050 4032 
L 1050 0 
L 646 0 
z
" transform="scale(0.015625)"/>
      <path id="CMUBright-Roman-69" d="M 509 4019 
L 509 4422 
L 912 4422 
L 912 4019 
L 509 4019 
z
M 512 0 
L 512 3021 
L 915 3021 
L 915 0 
L 512 0 
z
" transform="scale(0.015625)"/>
      <path id="CMUBright-Roman-6d" d="M 512 0 
L 512 3021 
L 909 3021 
L 909 2400 
Q 1011 2650 1251 2861 
Q 1491 3072 1875 3072 
Q 2138 3072 2320 2998 
Q 2502 2925 2592 2797 
Q 2682 2669 2710 2595 
Q 2739 2522 2765 2413 
Q 2771 2394 2771 2387 
Q 2886 2650 3123 2861 
Q 3360 3072 3744 3072 
Q 4000 3072 4182 2992 
Q 4365 2912 4454 2813 
Q 4544 2714 4592 2544 
Q 4640 2374 4646 2272 
Q 4653 2170 4653 2016 
L 4653 0 
L 4243 0 
L 4243 1990 
Q 4243 2106 4236 2176 
Q 4230 2246 4192 2368 
Q 4154 2490 4083 2563 
Q 4013 2637 3869 2694 
Q 3725 2752 3520 2752 
Q 3174 2752 2982 2470 
Q 2790 2189 2790 1728 
L 2790 0 
L 2374 0 
L 2374 1990 
Q 2374 2106 2371 2176 
Q 2368 2246 2329 2368 
Q 2291 2490 2220 2563 
Q 2150 2637 2006 2694 
Q 1862 2752 1658 2752 
Q 1312 2752 1117 2470 
Q 922 2189 922 1728 
Q 922 1715 925 1702 
Q 928 1690 928 1677 
L 928 0 
L 512 0 
z
" transform="scale(0.015625)"/>
     </defs>
     <use xlink:href="#CMUBright-Roman-4d"/>
     <use xlink:href="#CMUBright-Roman-69" x="88.299988"/>
     <use xlink:href="#CMUBright-Roman-6e" x="110.799973"/>
     <use xlink:href="#CMUBright-Roman-6d" x="162.499969"/>
     <use xlink:href="#CMUBright-Roman-6f" x="243.299957"/>
     <use xlink:href="#CMUBright-Roman-64" x="295.799942"/>
    </g>
   </g>
   <g id="text_13">
    <!-- Superbee -->
    <g style="fill: #1e90ff" transform="translate(604.766707 28.528125) scale(0.3 -0.3)">
     <defs>
      <path id="CMUBright-Roman-75" d="M 512 851 
L 512 3021 
L 928 3021 
L 928 781 
Q 928 486 1037 368 
Q 1146 250 1517 250 
Q 1875 250 2124 477 
Q 2374 704 2374 1120 
L 2374 3021 
L 2784 3021 
L 2784 0 
L 2381 0 
L 2381 550 
Q 2214 269 1910 109 
Q 1606 -51 1254 -51 
Q 1005 -51 845 29 
Q 685 109 617 262 
Q 550 416 531 541 
Q 512 666 512 851 
z
" transform="scale(0.015625)"/>
      <path id="CMUBright-Roman-70" d="M 512 -1069 
L 512 3021 
L 915 3021 
L 915 2586 
Q 1318 3072 1888 3072 
Q 2355 3072 2678 2621 
Q 3002 2170 3002 1523 
Q 3002 826 2621 387 
Q 2240 -51 1754 -51 
Q 1530 -51 1328 61 
Q 1126 173 1075 237 
Q 1024 301 928 422 
L 928 -1069 
L 512 -1069 
z
M 928 832 
Q 928 634 1110 451 
Q 1293 269 1555 269 
Q 1971 269 2281 630 
Q 2592 992 2592 1517 
Q 2592 2022 2304 2384 
Q 2016 2746 1619 2746 
Q 1286 2746 1056 2490 
Q 960 2368 944 2333 
Q 928 2298 928 2189 
L 928 832 
z
" transform="scale(0.015625)"/>
      <path id="CMUBright-Roman-62" d="M 512 0 
L 512 4448 
L 915 4448 
L 915 2592 
Q 1312 3072 1875 3072 
Q 2349 3072 2675 2621 
Q 3002 2170 3002 1523 
Q 3002 858 2634 403 
Q 2266 -51 1754 -51 
Q 1261 -51 928 422 
L 928 0 
L 512 0 
z
M 922 838 
Q 922 634 1107 451 
Q 1293 269 1555 269 
Q 1728 269 1891 326 
Q 2054 384 2220 512 
Q 2387 640 2489 896 
Q 2592 1152 2592 1510 
Q 2592 1882 2493 2147 
Q 2394 2413 2234 2534 
Q 2074 2656 1926 2704 
Q 1779 2752 1632 2752 
Q 1293 2752 1050 2490 
Q 954 2362 941 2333 
Q 928 2304 928 2195 
L 928 928 
Q 928 909 925 883 
Q 922 858 922 838 
z
" transform="scale(0.015625)"/>
     </defs>
     <use xlink:href="#CMUBright-Roman-53"/>
     <use xlink:href="#CMUBright-Roman-75" x="58.299988"/>
     <use xlink:href="#CMUBright-Roman-70" x="109.999985"/>
     <use xlink:href="#CMUBright-Roman-65" x="161.699982"/>
     <use xlink:href="#CMUBright-Roman-72" x="208.399979"/>
     <use xlink:href="#CMUBright-Roman-62" x="242.999969"/>
     <use xlink:href="#CMUBright-Roman-65" x="294.699966"/>
     <use xlink:href="#CMUBright-Roman-65" x="341.399963"/>
    </g>
   </g>
   <g id="text_14">
    <!-- van Leer -->
    <g style="fill: #e21a1a" transform="translate(604.766707 99.766688) scale(0.3 -0.3)">
     <defs>
      <path id="CMUBright-Roman-76" d="M 90 3021 
L 499 3021 
L 1466 416 
L 2432 3021 
L 2835 3021 
L 1696 -19 
L 1222 -19 
L 90 3021 
z
" transform="scale(0.015625)"/>
      <path id="CMUBright-Roman-61" d="M 352 736 
Q 352 896 435 1046 
Q 518 1197 707 1347 
Q 896 1498 1283 1590 
Q 1670 1683 2214 1696 
L 2214 1965 
Q 2214 2381 2042 2579 
Q 1856 2803 1568 2803 
Q 1331 2803 1107 2736 
Q 883 2669 809 2624 
Q 736 2579 557 2470 
L 525 2829 
Q 1043 3104 1574 3104 
Q 2054 3104 2326 2806 
Q 2598 2509 2624 2144 
L 2630 1926 
L 2630 0 
L 2227 0 
L 2227 442 
Q 1830 -51 1107 -51 
L 1062 -51 
Q 710 -51 531 205 
Q 352 461 352 736 
z
M 749 749 
Q 749 518 950 393 
Q 1152 269 1408 269 
Q 1523 269 1644 297 
Q 1766 326 1904 390 
Q 2042 454 2128 595 
Q 2214 736 2214 928 
L 2214 1498 
Q 1568 1491 1158 1286 
Q 749 1082 749 749 
z
" transform="scale(0.015625)"/>
      <path id="CMUBright-Roman-20" transform="scale(0.015625)"/>
      <path id="CMUBright-Roman-4c" d="M 627 0 
L 627 4448 
L 1075 4448 
L 1075 339 
L 3347 339 
L 3347 0 
L 627 0 
z
" transform="scale(0.015625)"/>
     </defs>
     <use xlink:href="#CMUBright-Roman-76"/>
     <use xlink:href="#CMUBright-Roman-61" x="45.799988"/>
     <use xlink:href="#CMUBright-Roman-6e" x="94.999985"/>
     <use xlink:href="#CMUBright-Roman-20" x="146.699982"/>
     <use xlink:href="#CMUBright-Roman-4c" x="179.999969"/>
     <use xlink:href="#CMUBright-Roman-65" x="236.699966"/>
     <use xlink:href="#CMUBright-Roman-65" x="283.399963"/>
     <use xlink:href="#CMUBright-Roman-72" x="330.09996"/>
    </g>
   </g>
  </g>
 </g>
 <defs>
  <clipPath id="p1b91390401">
   <rect x="74.29185" y="20.369531" width="524.474857" height="357.38813"/>
  </clipPath>
 </defs>
</svg>