<?xml version="1.0" encoding="utf-8" standalone="no"?>
<!DOCTYPE svg PUBLIC "-//W3C//DTD SVG 1.1//EN"
  "http://www.w3.org/Graphics/SVG/1.1/DTD/svg11.dtd">
<svg xmlns:xlink="http://www.w3.org/1999/xlink" width="469.19952pt" height="353.99952pt" viewBox="0 0 469.19952 353.99952" xmlns="http://www.w3.org/2000/svg" version="1.1">
 <metadata>
  <rdf:RDF xmlns:dc="http://purl.org/dc/elements/1.1/" xmlns:cc="http://creativecommons.org/ns#" xmlns:rdf="http://www.w3.org/1999/02/22-rdf-syntax-ns#">
   <cc:Work>
    <dc:type rdf:resource="http://purl.org/dc/dcmitype/StillImage"/>
    <dc:date>2024-09-12T15:02:42.433795</dc:date>
    <dc:format>image/svg+xml</dc:format>
    <dc:creator>
     <cc:Agent>
      <dc:title>Matplotlib v3.9.2, https://matplotlib.org/</dc:title>
     </cc:Agent>
    </dc:creator>
   </cc:Work>
  </rdf:RDF>
 </metadata>
 <defs>
  <style type="text/css">*{stroke-linejoin: round; stroke-linecap: butt}</style>
 </defs>
 <g id="figure_1">
  <g id="patch_1">
   <path d="M 0 353.99952 
L 469.19952 353.99952 
L 469.19952 0 
L 0 0 
z
" style="fill: #ffffff"/>
  </g>
  <g id="axes_1">
   <g id="patch_2">
    <path d="M 63.682417 291.357661 
L 396.95952 291.357661 
L 396.95952 12.410415 
L 63.682417 12.410415 
z
" style="fill: #ffffff"/>
   </g>
   <g id="line2d_1">
    <path d="M 63.682417 291.357661 
L 80.346272 263.462936 
L 97.010127 235.568212 
L 113.673982 207.673487 
L 130.337837 179.778763 
L 147.001692 151.884038 
L 163.665548 123.989313 
L 180.329403 96.094589 
L 196.993258 68.199864 
L 213.657113 40.30514 
L 230.320968 12.410415 
L 246.984823 40.30514 
L 263.648679 68.199864 
L 280.312534 96.094589 
L 296.976389 123.989313 
L 313.640244 151.884038 
L 330.304099 179.778763 
L 346.967954 207.673487 
L 363.63181 235.568212 
L 380.295665 263.462936 
L 396.95952 291.357661 
" style="fill: none; stroke: #808080; stroke-opacity: 0.5; stroke-width: 2; stroke-linecap: square"/>
    <defs>
     <path id="mad0dda5972" d="M 0 3 
C 0.795609 3 1.55874 2.683901 2.12132 2.12132 
C 2.683901 1.55874 3 0.795609 3 0 
C 3 -0.795609 2.683901 -1.55874 2.12132 -2.12132 
C 1.55874 -2.683901 0.795609 -3 0 -3 
C -0.795609 -3 -1.55874 -2.683901 -2.12132 -2.12132 
C -2.683901 -1.55874 -3 -0.795609 -3 0 
C -3 0.795609 -2.683901 1.55874 -2.12132 2.12132 
C -1.55874 2.683901 -0.795609 3 0 3 
z
" style="stroke: #ffffff; stroke-opacity: 0.5"/>
    </defs>
    <g>
     <use xlink:href="#mad0dda5972" x="63.682417" y="291.357661" style="fill: #808080; fill-opacity: 0.5; stroke: #ffffff; stroke-opacity: 0.5"/>
     <use xlink:href="#mad0dda5972" x="80.346272" y="263.462936" style="fill: #808080; fill-opacity: 0.5; stroke: #ffffff; stroke-opacity: 0.5"/>
     <use xlink:href="#mad0dda5972" x="97.010127" y="235.568212" style="fill: #808080; fill-opacity: 0.5; stroke: #ffffff; stroke-opacity: 0.5"/>
     <use xlink:href="#mad0dda5972" x="113.673982" y="207.673487" style="fill: #808080; fill-opacity: 0.5; stroke: #ffffff; stroke-opacity: 0.5"/>
     <use xlink:href="#mad0dda5972" x="130.337837" y="179.778763" style="fill: #808080; fill-opacity: 0.5; stroke: #ffffff; stroke-opacity: 0.5"/>
     <use xlink:href="#mad0dda5972" x="147.001692" y="151.884038" style="fill: #808080; fill-opacity: 0.5; stroke: #ffffff; stroke-opacity: 0.5"/>
     <use xlink:href="#mad0dda5972" x="163.665548" y="123.989313" style="fill: #808080; fill-opacity: 0.5; stroke: #ffffff; stroke-opacity: 0.5"/>
     <use xlink:href="#mad0dda5972" x="180.329403" y="96.094589" style="fill: #808080; fill-opacity: 0.5; stroke: #ffffff; stroke-opacity: 0.5"/>
     <use xlink:href="#mad0dda5972" x="196.993258" y="68.199864" style="fill: #808080; fill-opacity: 0.5; stroke: #ffffff; stroke-opacity: 0.5"/>
     <use xlink:href="#mad0dda5972" x="213.657113" y="40.30514" style="fill: #808080; fill-opacity: 0.5; stroke: #ffffff; stroke-opacity: 0.5"/>
     <use xlink:href="#mad0dda5972" x="230.320968" y="12.410415" style="fill: #808080; fill-opacity: 0.5; stroke: #ffffff; stroke-opacity: 0.5"/>
     <use xlink:href="#mad0dda5972" x="246.984823" y="40.30514" style="fill: #808080; fill-opacity: 0.5; stroke: #ffffff; stroke-opacity: 0.5"/>
     <use xlink:href="#mad0dda5972" x="263.648679" y="68.199864" style="fill: #808080; fill-opacity: 0.5; stroke: #ffffff; stroke-opacity: 0.5"/>
     <use xlink:href="#mad0dda5972" x="280.312534" y="96.094589" style="fill: #808080; fill-opacity: 0.5; stroke: #ffffff; stroke-opacity: 0.5"/>
     <use xlink:href="#mad0dda5972" x="296.976389" y="123.989313" style="fill: #808080; fill-opacity: 0.5; stroke: #ffffff; stroke-opacity: 0.5"/>
     <use xlink:href="#mad0dda5972" x="313.640244" y="151.884038" style="fill: #808080; fill-opacity: 0.5; stroke: #ffffff; stroke-opacity: 0.5"/>
     <use xlink:href="#mad0dda5972" x="330.304099" y="179.778763" style="fill: #808080; fill-opacity: 0.5; stroke: #ffffff; stroke-opacity: 0.5"/>
     <use xlink:href="#mad0dda5972" x="346.967954" y="207.673487" style="fill: #808080; fill-opacity: 0.5; stroke: #ffffff; stroke-opacity: 0.5"/>
     <use xlink:href="#mad0dda5972" x="363.63181" y="235.568212" style="fill: #808080; fill-opacity: 0.5; stroke: #ffffff; stroke-opacity: 0.5"/>
     <use xlink:href="#mad0dda5972" x="380.295665" y="263.462936" style="fill: #808080; fill-opacity: 0.5; stroke: #ffffff; stroke-opacity: 0.5"/>
     <use xlink:href="#mad0dda5972" x="396.95952" y="291.357661" style="fill: #808080; fill-opacity: 0.5; stroke: #ffffff; stroke-opacity: 0.5"/>
    </g>
   </g>
   <g id="line2d_2">
    <path d="M 63.682417 239.750521 
L 80.346272 235.059253 
L 97.010127 221.769877 
L 113.673982 201.884681 
L 130.337837 177.843445 
L 147.001692 151.884038 
L 163.665548 125.924631 
L 180.329403 101.883395 
L 196.993258 81.998199 
L 213.657113 68.708823 
L 230.320968 64.017555 
L 246.984823 68.708823 
L 263.648679 81.998199 
L 280.312534 101.883395 
L 296.976389 125.924631 
L 313.640244 151.884038 
L 330.304099 177.843445 
L 346.967954 201.884681 
L 363.63181 221.769877 
L 380.295665 235.059253 
L 396.95952 239.750521 
" style="fill: none; stroke: #00ffff; stroke-width: 2; stroke-linecap: square"/>
    <defs>
     <path id="me591ca3593" d="M 0 3 
C 0.795609 3 1.55874 2.683901 2.12132 2.12132 
C 2.683901 1.55874 3 0.795609 3 0 
C 3 -0.795609 2.683901 -1.55874 2.12132 -2.12132 
C 1.55874 -2.683901 0.795609 -3 0 -3 
C -0.795609 -3 -1.55874 -2.683901 -2.12132 -2.12132 
C -2.683901 -1.55874 -3 -0.795609 -3 0 
C -3 0.795609 -2.683901 1.55874 -2.12132 2.12132 
C -1.55874 2.683901 -0.795609 3 0 3 
z
" style="stroke: #ffffff"/>
    </defs>
    <g>
     <use xlink:href="#me591ca3593" x="63.682417" y="239.750521" style="fill: #00ffff; stroke: #ffffff"/>
     <use xlink:href="#me591ca3593" x="80.346272" y="235.059253" style="fill: #00ffff; stroke: #ffffff"/>
     <use xlink:href="#me591ca3593" x="97.010127" y="221.769877" style="fill: #00ffff; stroke: #ffffff"/>
     <use xlink:href="#me591ca3593" x="113.673982" y="201.884681" style="fill: #00ffff; stroke: #ffffff"/>
     <use xlink:href="#me591ca3593" x="130.337837" y="177.843445" style="fill: #00ffff; stroke: #ffffff"/>
     <use xlink:href="#me591ca3593" x="147.001692" y="151.884038" style="fill: #00ffff; stroke: #ffffff"/>
     <use xlink:href="#me591ca3593" x="163.665548" y="125.924631" style="fill: #00ffff; stroke: #ffffff"/>
     <use xlink:href="#me591ca3593" x="180.329403" y="101.883395" style="fill: #00ffff; stroke: #ffffff"/>
     <use xlink:href="#me591ca3593" x="196.993258" y="81.998199" style="fill: #00ffff; stroke: #ffffff"/>
     <use xlink:href="#me591ca3593" x="213.657113" y="68.708823" style="fill: #00ffff; stroke: #ffffff"/>
     <use xlink:href="#me591ca3593" x="230.320968" y="64.017555" style="fill: #00ffff; stroke: #ffffff"/>
     <use xlink:href="#me591ca3593" x="246.984823" y="68.708823" style="fill: #00ffff; stroke: #ffffff"/>
     <use xlink:href="#me591ca3593" x="263.648679" y="81.998199" style="fill: #00ffff; stroke: #ffffff"/>
     <use xlink:href="#me591ca3593" x="280.312534" y="101.883395" style="fill: #00ffff; stroke: #ffffff"/>
     <use xlink:href="#me591ca3593" x="296.976389" y="125.924631" style="fill: #00ffff; stroke: #ffffff"/>
     <use xlink:href="#me591ca3593" x="313.640244" y="151.884038" style="fill: #00ffff; stroke: #ffffff"/>
     <use xlink:href="#me591ca3593" x="330.304099" y="177.843445" style="fill: #00ffff; stroke: #ffffff"/>
     <use xlink:href="#me591ca3593" x="346.967954" y="201.884681" style="fill: #00ffff; stroke: #ffffff"/>
     <use xlink:href="#me591ca3593" x="363.63181" y="221.769877" style="fill: #00ffff; stroke: #ffffff"/>
     <use xlink:href="#me591ca3593" x="380.295665" y="235.059253" style="fill: #00ffff; stroke: #ffffff"/>
     <use xlink:href="#me591ca3593" x="396.95952" y="239.750521" style="fill: #00ffff; stroke: #ffffff"/>
    </g>
   </g>
   <g id="line2d_3">
    <path d="M 63.682417 216.42342 
L 80.346272 213.240305 
L 97.010127 204.022607 
L 113.673982 189.716262 
L 130.337837 171.752918 
L 147.001692 151.884038 
L 163.665548 132.015158 
L 180.329403 114.051814 
L 196.993258 99.745469 
L 213.657113 90.527771 
L 230.320968 87.344656 
L 246.984823 90.527771 
L 263.648679 99.745469 
L 280.312534 114.051814 
L 296.976389 132.015158 
L 313.640244 151.884038 
L 330.304099 171.752918 
L 346.967954 189.716262 
L 363.63181 204.022607 
L 380.295665 213.240305 
L 396.95952 216.42342 
" style="fill: none; stroke: #40bfff; stroke-width: 2; stroke-linecap: square"/>
    <defs>
     <path id="m4ed497b336" d="M 0 3 
C 0.795609 3 1.55874 2.683901 2.12132 2.12132 
C 2.683901 1.55874 3 0.795609 3 0 
C 3 -0.795609 2.683901 -1.55874 2.12132 -2.12132 
C 1.55874 -2.683901 0.795609 -3 0 -3 
C -0.795609 -3 -1.55874 -2.683901 -2.12132 -2.12132 
C -2.683901 -1.55874 -3 -0.795609 -3 0 
C -3 0.795609 -2.683901 1.55874 -2.12132 2.12132 
C -1.55874 2.683901 -0.795609 3 0 3 
z
" style="stroke: #ffffff"/>
    </defs>
    <g>
     <use xlink:href="#m4ed497b336" x="63.682417" y="216.42342" style="fill: #40bfff; stroke: #ffffff"/>
     <use xlink:href="#m4ed497b336" x="80.346272" y="213.240305" style="fill: #40bfff; stroke: #ffffff"/>
     <use xlink:href="#m4ed497b336" x="97.010127" y="204.022607" style="fill: #40bfff; stroke: #ffffff"/>
     <use xlink:href="#m4ed497b336" x="113.673982" y="189.716262" style="fill: #40bfff; stroke: #ffffff"/>
     <use xlink:href="#m4ed497b336" x="130.337837" y="171.752918" style="fill: #40bfff; stroke: #ffffff"/>
     <use xlink:href="#m4ed497b336" x="147.001692" y="151.884038" style="fill: #40bfff; stroke: #ffffff"/>
     <use xlink:href="#m4ed497b336" x="163.665548" y="132.015158" style="fill: #40bfff; stroke: #ffffff"/>
     <use xlink:href="#m4ed497b336" x="180.329403" y="114.051814" style="fill: #40bfff; stroke: #ffffff"/>
     <use xlink:href="#m4ed497b336" x="196.993258" y="99.745469" style="fill: #40bfff; stroke: #ffffff"/>
     <use xlink:href="#m4ed497b336" x="213.657113" y="90.527771" style="fill: #40bfff; stroke: #ffffff"/>
     <use xlink:href="#m4ed497b336" x="230.320968" y="87.344656" style="fill: #40bfff; stroke: #ffffff"/>
     <use xlink:href="#m4ed497b336" x="246.984823" y="90.527771" style="fill: #40bfff; stroke: #ffffff"/>
     <use xlink:href="#m4ed497b336" x="263.648679" y="99.745469" style="fill: #40bfff; stroke: #ffffff"/>
     <use xlink:href="#m4ed497b336" x="280.312534" y="114.051814" style="fill: #40bfff; stroke: #ffffff"/>
     <use xlink:href="#m4ed497b336" x="296.976389" y="132.015158" style="fill: #40bfff; stroke: #ffffff"/>
     <use xlink:href="#m4ed497b336" x="313.640244" y="151.884038" style="fill: #40bfff; stroke: #ffffff"/>
     <use xlink:href="#m4ed497b336" x="330.304099" y="171.752918" style="fill: #40bfff; stroke: #ffffff"/>
     <use xlink:href="#m4ed497b336" x="346.967954" y="189.716262" style="fill: #40bfff; stroke: #ffffff"/>
     <use xlink:href="#m4ed497b336" x="363.63181" y="204.022607" style="fill: #40bfff; stroke: #ffffff"/>
     <use xlink:href="#m4ed497b336" x="380.295665" y="213.240305" style="fill: #40bfff; stroke: #ffffff"/>
     <use xlink:href="#m4ed497b336" x="396.95952" y="216.42342" style="fill: #40bfff; stroke: #ffffff"/>
    </g>
   </g>
   <g id="line2d_4">
    <path d="M 63.682417 199.779036 
L 80.346272 197.433363 
L 97.010127 190.627211 
L 113.673982 180.029551 
L 130.337837 166.679712 
L 147.001692 151.884038 
L 163.665548 137.088364 
L 180.329403 123.738525 
L 196.993258 113.140864 
L 213.657113 106.334713 
L 230.320968 103.98904 
L 246.984823 106.334713 
L 263.648679 113.140864 
L 280.312534 123.738525 
L 296.976389 137.088364 
L 313.640244 151.884038 
L 330.304099 166.679712 
L 346.967954 180.029551 
L 363.63181 190.627211 
L 380.295665 197.433363 
L 396.95952 199.779036 
" style="fill: none; stroke: #807fff; stroke-width: 2; stroke-linecap: square"/>
    <defs>
     <path id="md406f5c597" d="M 0 3 
C 0.795609 3 1.55874 2.683901 2.12132 2.12132 
C 2.683901 1.55874 3 0.795609 3 0 
C 3 -0.795609 2.683901 -1.55874 2.12132 -2.12132 
C 1.55874 -2.683901 0.795609 -3 0 -3 
C -0.795609 -3 -1.55874 -2.683901 -2.12132 -2.12132 
C -2.683901 -1.55874 -3 -0.795609 -3 0 
C -3 0.795609 -2.683901 1.55874 -2.12132 2.12132 
C -1.55874 2.683901 -0.795609 3 0 3 
z
" style="stroke: #ffffff"/>
    </defs>
    <g>
     <use xlink:href="#md406f5c597" x="63.682417" y="199.779036" style="fill: #807fff; stroke: #ffffff"/>
     <use xlink:href="#md406f5c597" x="80.346272" y="197.433363" style="fill: #807fff; stroke: #ffffff"/>
     <use xlink:href="#md406f5c597" x="97.010127" y="190.627211" style="fill: #807fff; stroke: #ffffff"/>
     <use xlink:href="#md406f5c597" x="113.673982" y="180.029551" style="fill: #807fff; stroke: #ffffff"/>
     <use xlink:href="#md406f5c597" x="130.337837" y="166.679712" style="fill: #807fff; stroke: #ffffff"/>
     <use xlink:href="#md406f5c597" x="147.001692" y="151.884038" style="fill: #807fff; stroke: #ffffff"/>
     <use xlink:href="#md406f5c597" x="163.665548" y="137.088364" style="fill: #807fff; stroke: #ffffff"/>
     <use xlink:href="#md406f5c597" x="180.329403" y="123.738525" style="fill: #807fff; stroke: #ffffff"/>
     <use xlink:href="#md406f5c597" x="196.993258" y="113.140864" style="fill: #807fff; stroke: #ffffff"/>
     <use xlink:href="#md406f5c597" x="213.657113" y="106.334713" style="fill: #807fff; stroke: #ffffff"/>
     <use xlink:href="#md406f5c597" x="230.320968" y="103.98904" style="fill: #807fff; stroke: #ffffff"/>
     <use xlink:href="#md406f5c597" x="246.984823" y="106.334713" style="fill: #807fff; stroke: #ffffff"/>
     <use xlink:href="#md406f5c597" x="263.648679" y="113.140864" style="fill: #807fff; stroke: #ffffff"/>
     <use xlink:href="#md406f5c597" x="280.312534" y="123.738525" style="fill: #807fff; stroke: #ffffff"/>
     <use xlink:href="#md406f5c597" x="296.976389" y="137.088364" style="fill: #807fff; stroke: #ffffff"/>
     <use xlink:href="#md406f5c597" x="313.640244" y="151.884038" style="fill: #807fff; stroke: #ffffff"/>
     <use xlink:href="#md406f5c597" x="330.304099" y="166.679712" style="fill: #807fff; stroke: #ffffff"/>
     <use xlink:href="#md406f5c597" x="346.967954" y="180.029551" style="fill: #807fff; stroke: #ffffff"/>
     <use xlink:href="#md406f5c597" x="363.63181" y="190.627211" style="fill: #807fff; stroke: #ffffff"/>
     <use xlink:href="#md406f5c597" x="380.295665" y="197.433363" style="fill: #807fff; stroke: #ffffff"/>
     <use xlink:href="#md406f5c597" x="396.95952" y="199.779036" style="fill: #807fff; stroke: #ffffff"/>
    </g>
   </g>
   <g id="line2d_5">
    <path d="M 63.682417 187.458108 
L 80.346272 185.716893 
L 97.010127 180.663771 
L 113.673982 172.793547 
L 130.337837 162.876736 
L 147.001692 151.884038 
L 163.665548 140.89134 
L 180.329403 130.974529 
L 196.993258 123.104305 
L 213.657113 118.051183 
L 230.320968 116.309968 
L 246.984823 118.051183 
L 263.648679 123.104305 
L 280.312534 130.974529 
L 296.976389 140.89134 
L 313.640244 151.884038 
L 330.304099 162.876736 
L 346.967954 172.793547 
L 363.63181 180.663771 
L 380.295665 185.716893 
L 396.95952 187.458108 
" style="fill: none; stroke: #c03fff; stroke-width: 2; stroke-linecap: square"/>
    <defs>
     <path id="m968fe2f3ec" d="M 0 3 
C 0.795609 3 1.55874 2.683901 2.12132 2.12132 
C 2.683901 1.55874 3 0.795609 3 0 
C 3 -0.795609 2.683901 -1.55874 2.12132 -2.12132 
C 1.55874 -2.683901 0.795609 -3 0 -3 
C -0.795609 -3 -1.55874 -2.683901 -2.12132 -2.12132 
C -2.683901 -1.55874 -3 -0.795609 -3 0 
C -3 0.795609 -2.683901 1.55874 -2.12132 2.12132 
C -1.55874 2.683901 -0.795609 3 0 3 
z
" style="stroke: #ffffff"/>
    </defs>
    <g>
     <use xlink:href="#m968fe2f3ec" x="63.682417" y="187.458108" style="fill: #c03fff; stroke: #ffffff"/>
     <use xlink:href="#m968fe2f3ec" x="80.346272" y="185.716893" style="fill: #c03fff; stroke: #ffffff"/>
     <use xlink:href="#m968fe2f3ec" x="97.010127" y="180.663771" style="fill: #c03fff; stroke: #ffffff"/>
     <use xlink:href="#m968fe2f3ec" x="113.673982" y="172.793547" style="fill: #c03fff; stroke: #ffffff"/>
     <use xlink:href="#m968fe2f3ec" x="130.337837" y="162.876736" style="fill: #c03fff; stroke: #ffffff"/>
     <use xlink:href="#m968fe2f3ec" x="147.001692" y="151.884038" style="fill: #c03fff; stroke: #ffffff"/>
     <use xlink:href="#m968fe2f3ec" x="163.665548" y="140.89134" style="fill: #c03fff; stroke: #ffffff"/>
     <use xlink:href="#m968fe2f3ec" x="180.329403" y="130.974529" style="fill: #c03fff; stroke: #ffffff"/>
     <use xlink:href="#m968fe2f3ec" x="196.993258" y="123.104305" style="fill: #c03fff; stroke: #ffffff"/>
     <use xlink:href="#m968fe2f3ec" x="213.657113" y="118.051183" style="fill: #c03fff; stroke: #ffffff"/>
     <use xlink:href="#m968fe2f3ec" x="230.320968" y="116.309968" style="fill: #c03fff; stroke: #ffffff"/>
     <use xlink:href="#m968fe2f3ec" x="246.984823" y="118.051183" style="fill: #c03fff; stroke: #ffffff"/>
     <use xlink:href="#m968fe2f3ec" x="263.648679" y="123.104305" style="fill: #c03fff; stroke: #ffffff"/>
     <use xlink:href="#m968fe2f3ec" x="280.312534" y="130.974529" style="fill: #c03fff; stroke: #ffffff"/>
     <use xlink:href="#m968fe2f3ec" x="296.976389" y="140.89134" style="fill: #c03fff; stroke: #ffffff"/>
     <use xlink:href="#m968fe2f3ec" x="313.640244" y="151.884038" style="fill: #c03fff; stroke: #ffffff"/>
     <use xlink:href="#m968fe2f3ec" x="330.304099" y="162.876736" style="fill: #c03fff; stroke: #ffffff"/>
     <use xlink:href="#m968fe2f3ec" x="346.967954" y="172.793547" style="fill: #c03fff; stroke: #ffffff"/>
     <use xlink:href="#m968fe2f3ec" x="363.63181" y="180.663771" style="fill: #c03fff; stroke: #ffffff"/>
     <use xlink:href="#m968fe2f3ec" x="380.295665" y="185.716893" style="fill: #c03fff; stroke: #ffffff"/>
     <use xlink:href="#m968fe2f3ec" x="396.95952" y="187.458108" style="fill: #c03fff; stroke: #ffffff"/>
    </g>
   </g>
   <g id="line2d_6">
    <path d="M 63.682417 167.983289 
L 80.346272 167.195336 
L 97.010127 164.908606 
L 113.673982 161.34694 
L 130.337837 156.85898 
L 147.001692 151.884038 
L 163.665548 146.909096 
L 180.329403 142.421136 
L 196.993258 138.85947 
L 213.657113 136.57274 
L 230.320968 135.784787 
L 246.984823 136.57274 
L 263.648679 138.85947 
L 280.312534 142.421136 
L 296.976389 146.909096 
L 313.640244 151.884038 
L 330.304099 156.85898 
L 346.967954 161.34694 
L 363.63181 164.908606 
L 380.295665 167.195336 
L 396.95952 167.983289 
" style="fill: none; stroke: #ff00ff; stroke-width: 2; stroke-linecap: square"/>
    <defs>
     <path id="m048622fe78" d="M 0 3 
C 0.795609 3 1.55874 2.683901 2.12132 2.12132 
C 2.683901 1.55874 3 0.795609 3 0 
C 3 -0.795609 2.683901 -1.55874 2.12132 -2.12132 
C 1.55874 -2.683901 0.795609 -3 0 -3 
C -0.795609 -3 -1.55874 -2.683901 -2.12132 -2.12132 
C -2.683901 -1.55874 -3 -0.795609 -3 0 
C -3 0.795609 -2.683901 1.55874 -2.12132 2.12132 
C -1.55874 2.683901 -0.795609 3 0 3 
z
" style="stroke: #ffffff"/>
    </defs>
    <g>
     <use xlink:href="#m048622fe78" x="63.682417" y="167.983289" style="fill: #ff00ff; stroke: #ffffff"/>
     <use xlink:href="#m048622fe78" x="80.346272" y="167.195336" style="fill: #ff00ff; stroke: #ffffff"/>
     <use xlink:href="#m048622fe78" x="97.010127" y="164.908606" style="fill: #ff00ff; stroke: #ffffff"/>
     <use xlink:href="#m048622fe78" x="113.673982" y="161.34694" style="fill: #ff00ff; stroke: #ffffff"/>
     <use xlink:href="#m048622fe78" x="130.337837" y="156.85898" style="fill: #ff00ff; stroke: #ffffff"/>
     <use xlink:href="#m048622fe78" x="147.001692" y="151.884038" style="fill: #ff00ff; stroke: #ffffff"/>
     <use xlink:href="#m048622fe78" x="163.665548" y="146.909096" style="fill: #ff00ff; stroke: #ffffff"/>
     <use xlink:href="#m048622fe78" x="180.329403" y="142.421136" style="fill: #ff00ff; stroke: #ffffff"/>
     <use xlink:href="#m048622fe78" x="196.993258" y="138.85947" style="fill: #ff00ff; stroke: #ffffff"/>
     <use xlink:href="#m048622fe78" x="213.657113" y="136.57274" style="fill: #ff00ff; stroke: #ffffff"/>
     <use xlink:href="#m048622fe78" x="230.320968" y="135.784787" style="fill: #ff00ff; stroke: #ffffff"/>
     <use xlink:href="#m048622fe78" x="246.984823" y="136.57274" style="fill: #ff00ff; stroke: #ffffff"/>
     <use xlink:href="#m048622fe78" x="263.648679" y="138.85947" style="fill: #ff00ff; stroke: #ffffff"/>
     <use xlink:href="#m048622fe78" x="280.312534" y="142.421136" style="fill: #ff00ff; stroke: #ffffff"/>
     <use xlink:href="#m048622fe78" x="296.976389" y="146.909096" style="fill: #ff00ff; stroke: #ffffff"/>
     <use xlink:href="#m048622fe78" x="313.640244" y="151.884038" style="fill: #ff00ff; stroke: #ffffff"/>
     <use xlink:href="#m048622fe78" x="330.304099" y="156.85898" style="fill: #ff00ff; stroke: #ffffff"/>
     <use xlink:href="#m048622fe78" x="346.967954" y="161.34694" style="fill: #ff00ff; stroke: #ffffff"/>
     <use xlink:href="#m048622fe78" x="363.63181" y="164.908606" style="fill: #ff00ff; stroke: #ffffff"/>
     <use xlink:href="#m048622fe78" x="380.295665" y="167.195336" style="fill: #ff00ff; stroke: #ffffff"/>
     <use xlink:href="#m048622fe78" x="396.95952" y="167.983289" style="fill: #ff00ff; stroke: #ffffff"/>
    </g>
   </g>
   <g id="matplotlib.axis_1">
    <g id="xtick_1">
     <g id="line2d_7">
      <defs>
       <path id="m4e03e7ea15" d="M 0 0 
L 0 3.5 
" style="stroke: #5a5758; stroke-width: 0.8"/>
      </defs>
      <g>
       <use xlink:href="#m4e03e7ea15" x="63.682417" y="303.357661" style="fill: #5a5758; stroke: #5a5758; stroke-width: 0.8"/>
      </g>
     </g>
     <g id="text_1">
      <!-- 0.0 -->
      <g style="fill: #5a5758" transform="translate(53.621208 320.778491) scale(0.14994 -0.14994)">
       <defs>
        <path id="CMUBright-Roman-30" d="M 333 1984 
L 333 2086 
Q 333 2291 339 2438 
Q 346 2586 371 2832 
Q 397 3078 461 3267 
Q 525 3456 621 3657 
Q 717 3859 880 4006 
Q 1043 4154 1261 4230 
Q 1446 4301 1677 4301 
Q 1856 4301 2025 4256 
Q 2195 4211 2380 4070 
Q 2566 3930 2704 3709 
Q 2842 3488 2931 3104 
Q 3021 2720 3021 2214 
Q 3021 1683 2982 1347 
Q 2944 1011 2803 685 
Q 2618 250 2307 70 
Q 1997 -109 1677 -109 
Q 1498 -109 1328 -64 
Q 1158 -19 972 121 
Q 787 262 649 483 
Q 512 704 422 1091 
Q 333 1478 333 1984 
z
M 742 2413 
Q 742 2374 745 2326 
Q 749 2278 749 2272 
L 749 2150 
Q 749 1779 758 1548 
Q 768 1318 838 1014 
Q 909 710 1037 538 
Q 1286 218 1677 218 
Q 2086 218 2330 557 
Q 2451 730 2518 1037 
Q 2586 1344 2595 1568 
Q 2605 1792 2605 2163 
L 2605 2272 
Q 2605 2278 2608 2323 
Q 2611 2368 2611 2406 
Q 2611 3302 2336 3661 
Q 2099 3981 1677 3981 
Q 1242 3981 1005 3642 
Q 742 3264 742 2413 
z
" transform="scale(0.015625)"/>
        <path id="CMUBright-Roman-2e" d="M 678 0 
L 678 499 
L 1178 499 
L 1178 0 
L 678 0 
z
" transform="scale(0.015625)"/>
       </defs>
       <use xlink:href="#CMUBright-Roman-30"/>
       <use xlink:href="#CMUBright-Roman-2e" x="52.499985"/>
       <use xlink:href="#CMUBright-Roman-30" x="81.699982"/>
      </g>
     </g>
    </g>
    <g id="xtick_2">
     <g id="line2d_8">
      <g>
       <use xlink:href="#m4e03e7ea15" x="147.001692" y="303.357661" style="fill: #5a5758; stroke: #5a5758; stroke-width: 0.8"/>
      </g>
     </g>
     <g id="text_2">
      <!-- 0.5 -->
      <g style="fill: #5a5758" transform="translate(136.940484 320.778491) scale(0.14994 -0.14994)">
       <defs>
        <path id="CMUBright-Roman-35" d="M 301 518 
L 486 819 
Q 896 224 1581 224 
Q 1971 224 2268 473 
Q 2566 723 2566 1312 
Q 2566 1626 2489 1846 
Q 2413 2067 2285 2176 
Q 2157 2285 2032 2329 
Q 1907 2374 1773 2374 
Q 1210 2374 941 1901 
L 582 1901 
L 582 4192 
L 2797 4192 
L 2797 3853 
L 973 3853 
L 973 2381 
Q 1325 2701 1779 2701 
Q 2285 2701 2653 2291 
Q 3021 1882 3021 1306 
Q 3021 723 2601 307 
Q 2182 -109 1574 -109 
Q 813 -109 301 518 
z
" transform="scale(0.015625)"/>
       </defs>
       <use xlink:href="#CMUBright-Roman-30"/>
       <use xlink:href="#CMUBright-Roman-2e" x="52.499985"/>
       <use xlink:href="#CMUBright-Roman-35" x="81.699982"/>
      </g>
     </g>
    </g>
    <g id="xtick_3">
     <g id="line2d_9">
      <g>
       <use xlink:href="#m4e03e7ea15" x="230.320968" y="303.357661" style="fill: #5a5758; stroke: #5a5758; stroke-width: 0.8"/>
      </g>
     </g>
     <g id="text_3">
      <!-- 1.0 -->
      <g style="fill: #5a5758" transform="translate(220.25976 320.778491) scale(0.14994 -0.14994)">
       <defs>
        <path id="CMUBright-Roman-31" d="M 672 3558 
L 672 3885 
Q 1427 3885 1862 4301 
L 1965 4301 
L 1965 320 
L 2803 320 
L 2803 0 
L 710 0 
L 710 320 
L 1549 320 
L 1549 3744 
Q 1178 3558 672 3558 
z
" transform="scale(0.015625)"/>
       </defs>
       <use xlink:href="#CMUBright-Roman-31"/>
       <use xlink:href="#CMUBright-Roman-2e" x="52.499985"/>
       <use xlink:href="#CMUBright-Roman-30" x="81.699982"/>
      </g>
     </g>
    </g>
    <g id="xtick_4">
     <g id="line2d_10">
      <g>
       <use xlink:href="#m4e03e7ea15" x="313.640244" y="303.357661" style="fill: #5a5758; stroke: #5a5758; stroke-width: 0.8"/>
      </g>
     </g>
     <g id="text_4">
      <!-- 1.5 -->
      <g style="fill: #5a5758" transform="translate(303.579036 320.778491) scale(0.14994 -0.14994)">
       <use xlink:href="#CMUBright-Roman-31"/>
       <use xlink:href="#CMUBright-Roman-2e" x="52.499985"/>
       <use xlink:href="#CMUBright-Roman-35" x="81.699982"/>
      </g>
     </g>
    </g>
    <g id="xtick_5">
     <g id="line2d_11">
      <g>
       <use xlink:href="#m4e03e7ea15" x="396.95952" y="303.357661" style="fill: #5a5758; stroke: #5a5758; stroke-width: 0.8"/>
      </g>
     </g>
     <g id="text_5">
      <!-- 2.0 -->
      <g style="fill: #5a5758" transform="translate(386.898312 320.778491) scale(0.14994 -0.14994)">
       <defs>
        <path id="CMUBright-Roman-32" d="M 275 3226 
Q 595 4301 1587 4301 
L 1594 4301 
Q 2214 4294 2617 3923 
Q 3021 3552 3021 2989 
Q 3021 2746 2937 2531 
Q 2854 2317 2668 2115 
Q 2483 1914 2384 1821 
Q 2285 1728 2061 1549 
Q 1754 1299 1642 1203 
Q 1530 1107 698 358 
L 3021 358 
L 3021 0 
L 333 0 
L 333 339 
L 1683 1562 
Q 2144 1965 2368 2278 
Q 2592 2592 2592 2982 
Q 2592 3418 2278 3690 
Q 1965 3962 1498 3962 
Q 1069 3962 854 3693 
Q 640 3424 512 2938 
L 275 3226 
z
" transform="scale(0.015625)"/>
       </defs>
       <use xlink:href="#CMUBright-Roman-32"/>
       <use xlink:href="#CMUBright-Roman-2e" x="52.499985"/>
       <use xlink:href="#CMUBright-Roman-30" x="81.699982"/>
      </g>
     </g>
    </g>
    <g id="text_6">
     <!-- $x$ -->
     <g style="fill: #5a5758" transform="translate(226.180968 343.792957) scale(0.18 -0.18)">
      <defs>
       <path id="CMUBright-SemiBold-78" d="M 0 0 
L 1184 1562 
L 1184 1568 
L 38 3021 
L 698 3021 
L 1446 2022 
L 2163 3021 
L 2816 3021 
L 1709 1568 
L 1709 1562 
L 2931 0 
L 2272 0 
L 1446 1197 
L 1440 1197 
L 653 0 
L 0 0 
z
" transform="scale(0.015625)"/>
      </defs>
      <use xlink:href="#CMUBright-SemiBold-78" transform="translate(0 0.796875)"/>
     </g>
    </g>
   </g>
   <g id="matplotlib.axis_2">
    <g id="ytick_1">
     <g id="line2d_12">
      <defs>
       <path id="m77f2855974" d="M 0 0 
L -3.5 0 
" style="stroke: #5a5758; stroke-width: 0.8"/>
      </defs>
      <g>
       <use xlink:href="#m77f2855974" x="51.682417" y="291.357661" style="fill: #5a5758; stroke: #5a5758; stroke-width: 0.8"/>
      </g>
     </g>
     <g id="text_7">
      <!-- 0.0 -->
      <g style="fill: #5a5758" transform="translate(24.56 296.568076) scale(0.14994 -0.14994)">
       <use xlink:href="#CMUBright-Roman-30"/>
       <use xlink:href="#CMUBright-Roman-2e" x="52.499985"/>
       <use xlink:href="#CMUBright-Roman-30" x="81.699982"/>
      </g>
     </g>
    </g>
    <g id="ytick_2">
     <g id="line2d_13">
      <g>
       <use xlink:href="#m77f2855974" x="51.682417" y="235.568212" style="fill: #5a5758; stroke: #5a5758; stroke-width: 0.8"/>
      </g>
     </g>
     <g id="text_8">
      <!-- 0.2 -->
      <g style="fill: #5a5758" transform="translate(24.56 240.778627) scale(0.14994 -0.14994)">
       <use xlink:href="#CMUBright-Roman-30"/>
       <use xlink:href="#CMUBright-Roman-2e" x="52.499985"/>
       <use xlink:href="#CMUBright-Roman-32" x="81.699982"/>
      </g>
     </g>
    </g>
    <g id="ytick_3">
     <g id="line2d_14">
      <g>
       <use xlink:href="#m77f2855974" x="51.682417" y="179.778763" style="fill: #5a5758; stroke: #5a5758; stroke-width: 0.8"/>
      </g>
     </g>
     <g id="text_9">
      <!-- 0.4 -->
      <g style="fill: #5a5758" transform="translate(24.56 184.989178) scale(0.14994 -0.14994)">
       <defs>
        <path id="CMUBright-Roman-34" d="M 186 1158 
L 186 1504 
L 1952 4250 
L 2438 4250 
L 2438 1498 
L 3168 1498 
L 3168 1158 
L 2438 1158 
L 2438 0 
L 2035 0 
L 2035 1158 
L 186 1158 
z
M 602 1498 
L 2054 1498 
L 2054 3885 
Q 1971 3667 1606 3085 
L 602 1498 
z
" transform="scale(0.015625)"/>
       </defs>
       <use xlink:href="#CMUBright-Roman-30"/>
       <use xlink:href="#CMUBright-Roman-2e" x="52.499985"/>
       <use xlink:href="#CMUBright-Roman-34" x="81.699982"/>
      </g>
     </g>
    </g>
    <g id="ytick_4">
     <g id="line2d_15">
      <g>
       <use xlink:href="#m77f2855974" x="51.682417" y="123.989313" style="fill: #5a5758; stroke: #5a5758; stroke-width: 0.8"/>
      </g>
     </g>
     <g id="text_10">
      <!-- 0.6 -->
      <g style="fill: #5a5758" transform="translate(24.56 129.199728) scale(0.14994 -0.14994)">
       <defs>
        <path id="CMUBright-Roman-36" d="M 346 2061 
Q 346 3072 864 3686 
Q 1382 4301 2074 4301 
L 2086 4301 
Q 2426 4301 2797 4179 
L 2797 3846 
Q 2374 3981 2074 3981 
L 2061 3981 
Q 1478 3981 1123 3491 
Q 768 3002 768 2208 
Q 768 2195 771 2166 
Q 774 2138 774 2125 
Q 928 2445 1238 2665 
Q 1549 2886 1952 2886 
Q 2387 2886 2682 2483 
Q 3008 2029 3008 1408 
Q 3008 768 2618 326 
Q 2240 -109 1690 -109 
Q 1510 -109 1340 -57 
Q 1171 -6 985 141 
Q 800 288 662 521 
Q 525 755 435 1152 
Q 346 1549 346 2061 
z
M 794 1389 
Q 813 1171 854 1004 
Q 896 838 985 643 
Q 1075 448 1254 336 
Q 1434 224 1690 224 
Q 2138 224 2381 550 
Q 2515 736 2550 921 
Q 2586 1107 2586 1434 
Q 2586 1645 2573 1776 
Q 2560 1907 2480 2089 
Q 2400 2272 2253 2400 
Q 2054 2566 1728 2566 
Q 1325 2566 1062 2265 
Q 800 1965 800 1555 
Q 800 1440 806 1389 
L 794 1389 
z
" transform="scale(0.015625)"/>
       </defs>
       <use xlink:href="#CMUBright-Roman-30"/>
       <use xlink:href="#CMUBright-Roman-2e" x="52.499985"/>
       <use xlink:href="#CMUBright-Roman-36" x="81.699982"/>
      </g>
     </g>
    </g>
    <g id="ytick_5">
     <g id="line2d_16">
      <g>
       <use xlink:href="#m77f2855974" x="51.682417" y="68.199864" style="fill: #5a5758; stroke: #5a5758; stroke-width: 0.8"/>
      </g>
     </g>
     <g id="text_11">
      <!-- 0.8 -->
      <g style="fill: #5a5758" transform="translate(24.56 73.410279) scale(0.14994 -0.14994)">
       <defs>
        <path id="CMUBright-Roman-38" d="M 275 1158 
Q 275 1517 518 1817 
Q 762 2118 1248 2266 
Q 909 2349 640 2598 
Q 371 2848 371 3206 
Q 371 3642 745 3971 
Q 1120 4301 1677 4301 
Q 2221 4301 2601 3981 
Q 2982 3661 2982 3213 
Q 2982 2918 2787 2684 
Q 2592 2451 2285 2323 
L 2099 2266 
Q 2464 2176 2768 1885 
Q 3072 1594 3072 1158 
Q 3072 646 2665 268 
Q 2259 -109 1670 -109 
Q 1075 -109 675 275 
Q 275 659 275 1158 
z
M 698 1158 
Q 698 704 970 464 
Q 1242 224 1670 224 
Q 2118 224 2384 470 
Q 2650 717 2650 1165 
Q 2650 1619 2371 1862 
Q 2093 2106 1670 2106 
Q 1280 2106 989 1878 
Q 698 1651 698 1158 
z
M 755 3206 
Q 755 2886 982 2656 
Q 1210 2426 1670 2426 
Q 2093 2426 2342 2634 
Q 2592 2842 2592 3206 
Q 2592 3507 2387 3744 
Q 2182 3981 1683 3981 
Q 1171 3981 963 3744 
Q 755 3507 755 3206 
z
" transform="scale(0.015625)"/>
       </defs>
       <use xlink:href="#CMUBright-Roman-30"/>
       <use xlink:href="#CMUBright-Roman-2e" x="52.499985"/>
       <use xlink:href="#CMUBright-Roman-38" x="81.699982"/>
      </g>
     </g>
    </g>
    <g id="ytick_6">
     <g id="line2d_17">
      <g>
       <use xlink:href="#m77f2855974" x="51.682417" y="12.410415" style="fill: #5a5758; stroke: #5a5758; stroke-width: 0.8"/>
      </g>
     </g>
     <g id="text_12">
      <!-- 1.0 -->
      <g style="fill: #5a5758" transform="translate(24.56 17.62083) scale(0.14994 -0.14994)">
       <use xlink:href="#CMUBright-Roman-31"/>
       <use xlink:href="#CMUBright-Roman-2e" x="52.499985"/>
       <use xlink:href="#CMUBright-Roman-30" x="81.699982"/>
      </g>
     </g>
    </g>
    <g id="text_13">
     <!-- $u$ -->
     <g style="fill: #5a5758" transform="translate(7.2 148.877475) scale(0.18 -0.18)">
      <defs>
       <path id="CMUBright-SemiBold-75" d="M 410 838 
L 410 3021 
L 1024 3021 
L 1024 883 
Q 1030 570 1069 506 
Q 1139 403 1510 403 
Q 1888 403 2064 601 
Q 2240 800 2266 998 
Q 2272 1062 2272 1197 
L 2272 3021 
L 2886 3021 
L 2886 0 
L 2285 0 
L 2285 480 
Q 1830 -51 1088 -51 
Q 858 -51 710 29 
Q 563 109 502 262 
Q 442 416 426 537 
Q 410 659 410 838 
z
" transform="scale(0.015625)"/>
      </defs>
      <use xlink:href="#CMUBright-SemiBold-75" transform="translate(0 0.796875)"/>
     </g>
    </g>
   </g>
   <g id="patch_3">
    <path d="M 51.682417 291.357661 
L 51.682417 12.410415 
" style="fill: none; stroke: #5a5758; stroke-width: 0.8; stroke-linejoin: miter; stroke-linecap: square"/>
   </g>
   <g id="patch_4">
    <path d="M 63.682417 303.357661 
L 396.95952 303.357661 
" style="fill: none; stroke: #5a5758; stroke-width: 0.8; stroke-linejoin: miter; stroke-linecap: square"/>
   </g>
   <g id="text_14">
    <!-- $t = 0$ -->
    <g style="fill: #808080" transform="translate(402.95952 296.10938) scale(0.18 -0.18)">
     <defs>
      <path id="CMUBright-Roman-74" d="M 122 2701 
L 122 3021 
L 736 3021 
L 736 3885 
L 1126 3885 
L 1126 3021 
L 2118 3021 
L 2118 2701 
L 1126 2701 
L 1126 883 
Q 1126 282 1491 282 
Q 1568 282 1638 291 
Q 1709 301 1769 323 
Q 1830 346 1878 365 
Q 1926 384 1974 416 
Q 2022 448 2048 464 
Q 2074 480 2109 512 
Q 2144 544 2150 544 
L 2234 230 
Q 1779 -51 1261 -51 
Q 730 -51 730 838 
L 730 2701 
L 122 2701 
z
" transform="scale(0.015625)"/>
      <path id="CMUBright-Roman-3d" d="M 378 1062 
Q 378 1229 576 1229 
L 3533 1229 
Q 3725 1222 3725 1062 
Q 3725 909 3514 909 
L 589 909 
Q 378 909 378 1062 
z
M 378 2304 
Q 378 2470 582 2470 
L 3533 2470 
Q 3725 2464 3725 2304 
Q 3725 2150 3514 2150 
L 589 2150 
Q 378 2150 378 2304 
z
" transform="scale(0.015625)"/>
     </defs>
     <use xlink:href="#CMUBright-Roman-74" transform="translate(0 0.796875)"/>
     <use xlink:href="#CMUBright-Roman-3d" transform="translate(57.382416 0.796875)"/>
     <use xlink:href="#CMUBright-Roman-30" transform="translate(141.064835 0.796875)"/>
    </g>
   </g>
   <g id="text_15">
    <!-- $t = 0.03$ -->
    <g style="fill: #00ffff" transform="translate(402.95952 244.50224) scale(0.18 -0.18)">
     <defs>
      <path id="CMUBright-Roman-33" d="M 282 653 
Q 282 666 285 685 
Q 288 704 304 774 
Q 320 845 339 941 
Q 557 640 861 464 
Q 1165 288 1341 256 
Q 1517 224 1683 224 
Q 2112 224 2368 486 
Q 2624 749 2624 1165 
Q 2624 1574 2381 1824 
Q 2138 2074 1773 2099 
L 1555 2106 
L 1114 2106 
L 1114 2426 
Q 1709 2470 1862 2528 
Q 2099 2618 2281 2838 
Q 2464 3059 2464 3360 
Q 2464 3642 2256 3811 
Q 2048 3981 1702 3981 
Q 973 3981 570 3258 
L 371 3539 
Q 845 4301 1702 4301 
Q 2202 4301 2544 4025 
Q 2886 3750 2886 3360 
Q 2886 3059 2704 2761 
Q 2522 2464 2106 2272 
Q 2579 2144 2825 1833 
Q 3072 1523 3072 1158 
Q 3072 666 2685 278 
Q 2298 -109 1690 -109 
Q 1402 -109 1126 -9 
Q 851 90 675 221 
Q 499 352 390 473 
Q 282 595 282 653 
z
" transform="scale(0.015625)"/>
     </defs>
     <use xlink:href="#CMUBright-Roman-74" transform="translate(0 0.796875)"/>
     <use xlink:href="#CMUBright-Roman-3d" transform="translate(57.382416 0.796875)"/>
     <use xlink:href="#CMUBright-Roman-30" transform="translate(141.064835 0.796875)"/>
     <use xlink:href="#CMUBright-Roman-2e" transform="translate(193.564819 0.796875)"/>
     <use xlink:href="#CMUBright-Roman-30" transform="translate(222.764816 0.796875)"/>
     <use xlink:href="#CMUBright-Roman-33" transform="translate(275.264801 0.796875)"/>
    </g>
   </g>
   <g id="text_16">
    <!-- $t = 0.06$ -->
    <g style="fill: #40bfff" transform="translate(402.95952 221.175138) scale(0.18 -0.18)">
     <use xlink:href="#CMUBright-Roman-74" transform="translate(0 0.796875)"/>
     <use xlink:href="#CMUBright-Roman-3d" transform="translate(57.382416 0.796875)"/>
     <use xlink:href="#CMUBright-Roman-30" transform="translate(141.064835 0.796875)"/>
     <use xlink:href="#CMUBright-Roman-2e" transform="translate(193.564819 0.796875)"/>
     <use xlink:href="#CMUBright-Roman-30" transform="translate(222.764816 0.796875)"/>
     <use xlink:href="#CMUBright-Roman-36" transform="translate(275.264801 0.796875)"/>
    </g>
   </g>
   <g id="text_17">
    <!-- $t = 0.09$ -->
    <g style="fill: #807fff" transform="translate(402.95952 204.530755) scale(0.18 -0.18)">
     <defs>
      <path id="CMUBright-Roman-39" d="M 346 2803 
Q 346 3443 768 3885 
Q 1158 4301 1696 4301 
Q 1875 4301 2038 4253 
Q 2202 4205 2384 4061 
Q 2566 3917 2700 3686 
Q 2835 3456 2921 3053 
Q 3008 2650 3008 2125 
Q 3008 1171 2537 531 
Q 2067 -109 1382 -109 
Q 909 -109 486 186 
L 653 480 
L 723 435 
Q 794 384 838 358 
Q 883 333 969 297 
Q 1056 262 1158 243 
Q 1261 224 1376 224 
Q 1690 224 1933 381 
Q 2176 538 2313 797 
Q 2451 1056 2518 1357 
Q 2586 1658 2586 1984 
L 2586 2074 
Q 2438 1754 2121 1530 
Q 1805 1306 1402 1306 
Q 973 1306 678 1709 
Q 346 2157 346 2803 
z
M 768 2656 
Q 768 2240 966 1936 
Q 1165 1632 1632 1632 
Q 2035 1632 2297 1936 
Q 2560 2240 2560 2656 
Q 2560 2752 2554 2803 
L 2566 2803 
Q 2522 3462 2272 3721 
Q 2022 3981 1696 3981 
Q 1242 3981 986 3648 
Q 768 3366 768 2822 
L 768 2656 
z
" transform="scale(0.015625)"/>
     </defs>
     <use xlink:href="#CMUBright-Roman-74" transform="translate(0 0.796875)"/>
     <use xlink:href="#CMUBright-Roman-3d" transform="translate(57.382416 0.796875)"/>
     <use xlink:href="#CMUBright-Roman-30" transform="translate(141.064835 0.796875)"/>
     <use xlink:href="#CMUBright-Roman-2e" transform="translate(193.564819 0.796875)"/>
     <use xlink:href="#CMUBright-Roman-30" transform="translate(222.764816 0.796875)"/>
     <use xlink:href="#CMUBright-Roman-39" transform="translate(275.264801 0.796875)"/>
    </g>
   </g>
   <g id="text_18">
    <!-- $t = 0.12$ -->
    <g style="fill: #c03fff" transform="translate(402.95952 192.209826) scale(0.18 -0.18)">
     <use xlink:href="#CMUBright-Roman-74" transform="translate(0 0.796875)"/>
     <use xlink:href="#CMUBright-Roman-3d" transform="translate(57.382416 0.796875)"/>
     <use xlink:href="#CMUBright-Roman-30" transform="translate(141.064835 0.796875)"/>
     <use xlink:href="#CMUBright-Roman-2e" transform="translate(193.564819 0.796875)"/>
     <use xlink:href="#CMUBright-Roman-31" transform="translate(222.764816 0.796875)"/>
     <use xlink:href="#CMUBright-Roman-32" transform="translate(275.264801 0.796875)"/>
    </g>
   </g>
   <g id="text_19">
    <!-- $t = 0.2$ -->
    <g style="fill: #ff00ff" transform="translate(402.95952 172.735008) scale(0.18 -0.18)">
     <use xlink:href="#CMUBright-Roman-74" transform="translate(0 0.796875)"/>
     <use xlink:href="#CMUBright-Roman-3d" transform="translate(57.382416 0.796875)"/>
     <use xlink:href="#CMUBright-Roman-30" transform="translate(141.064835 0.796875)"/>
     <use xlink:href="#CMUBright-Roman-2e" transform="translate(193.564819 0.796875)"/>
     <use xlink:href="#CMUBright-Roman-32" transform="translate(222.764816 0.796875)"/>
    </g>
   </g>
  </g>
 </g>
</svg>