<?xml version="1.0" encoding="utf-8" standalone="no"?>
<!DOCTYPE svg PUBLIC "-//W3C//DTD SVG 1.1//EN"
  "http://www.w3.org/Graphics/SVG/1.1/DTD/svg11.dtd">
<svg xmlns:xlink="http://www.w3.org/1999/xlink" width="469.19952pt" height="353.99952pt" viewBox="0 0 469.19952 353.99952" xmlns="http://www.w3.org/2000/svg" version="1.1">
 <metadata>
  <rdf:RDF xmlns:dc="http://purl.org/dc/elements/1.1/" xmlns:cc="http://creativecommons.org/ns#" xmlns:rdf="http://www.w3.org/1999/02/22-rdf-syntax-ns#">
   <cc:Work>
    <dc:type rdf:resource="http://purl.org/dc/dcmitype/StillImage"/>
    <dc:date>2024-09-25T18:55:56.376243</dc:date>
    <dc:format>image/svg+xml</dc:format>
    <dc:creator>
     <cc:Agent>
      <dc:title>Matplotlib v3.9.2, https://matplotlib.org/</dc:title>
     </cc:Agent>
    </dc:creator>
   </cc:Work>
  </rdf:RDF>
 </metadata>
 <defs>
  <style type="text/css">*{stroke-linejoin: round; stroke-linecap: butt}</style>
 </defs>
 <g id="figure_1">
  <g id="patch_1">
   <path d="M 0 353.99952 
L 469.19952 353.99952 
L 469.19952 0 
L 0 0 
z
" style="fill: #ffffff"/>
  </g>
  <g id="axes_1">
   <g id="patch_2">
    <path d="M 47.1916 314.874223 
L 461.99952 314.874223 
L 461.99952 7.2 
L 47.1916 7.2 
z
" style="fill: #ffffff"/>
   </g>
   <g id="line2d_1">
    <path d="M 47.1916 177.656023 
L 47.1916 194.605499 
M 47.1916 157.511533 
L 47.1916 177.656023 
M 47.1916 133.569762 
L 47.1916 157.511533 
M 47.1916 105.114914 
L 47.1916 133.569762 
M 72.727106 194.605499 
L 47.1916 194.605499 
M 72.727106 194.605499 
L 47.1916 177.656023 
M 75.248717 175.380137 
L 47.1916 177.656023 
M 75.248717 175.380137 
L 47.1916 157.511533 
M 75.248717 175.380137 
L 72.727106 194.605499 
M 78.240291 152.535595 
L 47.1916 157.511533 
M 78.240291 152.535595 
L 47.1916 133.569762 
M 78.240291 152.535595 
L 75.248717 175.380137 
M 81.790417 125.38965 
L 47.1916 133.569762 
M 81.790417 125.38965 
L 47.1916 105.114914 
M 81.790417 125.38965 
L 78.240291 152.535595 
M 86.004383 93.131478 
L 47.1916 105.114914 
M 86.004383 93.131478 
L 81.790417 125.38965 
M 98.11604 194.605499 
L 72.727106 194.605499 
M 98.11604 194.605499 
L 75.248717 175.380137 
M 103.14021 173.121447 
L 75.248717 175.380137 
M 103.14021 173.121447 
L 78.240291 152.535595 
M 103.14021 173.121447 
L 98.11604 194.605499 
M 109.104306 147.59405 
L 78.240291 152.535595 
M 109.104306 147.59405 
L 81.790417 125.38965 
M 109.104306 147.59405 
L 103.14021 173.121447 
M 116.185504 117.261127 
L 81.790417 125.38965 
M 116.185504 117.261127 
L 86.004383 93.131478 
M 116.185504 117.261127 
L 109.104306 147.59405 
M 124.594383 81.216827 
L 86.004383 93.131478 
M 124.594383 81.216827 
L 116.185504 117.261127 
M 123.359244 194.605499 
L 98.11604 194.605499 
M 123.359244 194.605499 
L 103.14021 173.121447 
M 130.867029 170.879855 
L 103.14021 173.121447 
M 130.867029 170.879855 
L 109.104306 147.59405 
M 130.867029 170.879855 
L 123.359244 194.605499 
M 139.784703 142.686699 
L 109.104306 147.59405 
M 139.784703 142.686699 
L 116.185504 117.261127 
M 139.784703 142.686699 
L 130.867029 170.879855 
M 150.378031 109.183896 
L 116.185504 117.261127 
M 150.378031 109.183896 
L 124.594383 81.216827 
M 150.378031 109.183896 
L 139.784703 142.686699 
M 162.96288 69.370564 
L 124.594383 81.216827 
M 162.96288 69.370564 
L 150.378031 109.183896 
M 148.457553 194.605499 
L 123.359244 194.605499 
M 148.457553 194.605499 
L 130.867029 170.879855 
M 158.430119 168.655261 
L 130.867029 170.879855 
M 158.430119 168.655261 
L 139.784703 142.686699 
M 158.430119 168.655261 
L 148.457553 194.605499 
M 170.282536 137.813346 
L 139.784703 142.686699 
M 170.282536 137.813346 
L 150.378031 109.183896 
M 170.282536 137.813346 
L 158.430119 168.655261 
M 184.36916 101.157662 
L 150.378031 109.183896 
M 184.36916 101.157662 
L 162.96288 69.370564 
M 184.36916 101.157662 
L 170.282536 137.813346 
M 201.111144 57.592299 
L 162.96288 69.370564 
M 201.111144 57.592299 
L 184.36916 101.157662 
M 47.1916 68.215925 
L 47.1916 105.114914 
M 47.1916 68.215925 
L 86.004383 93.131478 
M 47.1916 38.906017 
L 47.1916 68.215925 
M 47.1916 15.624329 
L 47.1916 38.906017 
M 80.538857 61.165412 
L 86.004383 93.131478 
M 80.538857 61.165412 
L 47.1916 68.215925 
M 80.538857 61.165412 
L 47.1916 38.906017 
M 76.189628 35.780909 
L 47.1916 38.906017 
M 76.189628 35.780909 
L 80.538857 61.165412 
M 72.727106 15.624329 
L 47.1916 38.906017 
M 72.727106 15.624329 
L 47.1916 15.624329 
M 72.727106 15.624329 
L 76.189628 35.780909 
M 113.688735 54.160755 
L 86.004383 93.131478 
M 113.688735 54.160755 
L 124.594383 81.216827 
M 113.688735 54.160755 
L 80.538857 61.165412 
M 105.015681 32.67873 
L 80.538857 61.165412 
M 105.015681 32.67873 
L 76.189628 35.780909 
M 105.015681 32.67873 
L 113.688735 54.160755 
M 98.11604 15.624329 
L 76.189628 35.780909 
M 98.11604 15.624329 
L 72.727106 15.624329 
M 98.11604 15.624329 
L 105.015681 32.67873 
M 146.642367 47.20169 
L 124.594383 81.216827 
M 146.642367 47.20169 
L 162.96288 69.370564 
M 146.642367 47.20169 
L 113.688735 54.160755 
M 133.670746 29.599347 
L 113.688735 54.160755 
M 133.670746 29.599347 
L 105.015681 32.67873 
M 133.670746 29.599347 
L 146.642367 47.20169 
M 123.359244 15.624329 
L 105.015681 32.67873 
M 123.359244 15.624329 
L 98.11604 15.624329 
M 123.359244 15.624329 
L 133.670746 29.599347 
M 179.40088 40.287957 
L 162.96288 69.370564 
M 179.40088 40.287957 
L 201.111144 57.592299 
M 179.40088 40.287957 
L 146.642367 47.20169 
M 162.155804 26.54263 
L 146.642367 47.20169 
M 162.155804 26.54263 
L 133.670746 29.599347 
M 162.155804 26.54263 
L 179.40088 40.287957 
M 148.457553 15.624329 
L 133.670746 29.599347 
M 148.457553 15.624329 
L 123.359244 15.624329 
M 148.457553 15.624329 
L 162.155804 26.54263 
M 168.221247 194.605499 
L 148.457553 194.605499 
M 168.221247 194.605499 
L 158.430119 168.655261 
M 173.983062 176.822541 
L 158.430119 168.655261 
M 173.983062 176.822541 
L 168.221247 194.605499 
M 182.125442 155.901675 
L 158.430119 168.655261 
M 182.125442 155.901675 
L 170.282536 137.813346 
M 182.125442 155.901675 
L 173.983062 176.822541 
M 192.761528 131.380338 
L 170.282536 137.813346 
M 192.761528 131.380338 
L 184.36916 101.157662 
M 192.761528 131.380338 
L 182.125442 155.901675 
M 206.677277 103.174506 
L 184.36916 101.157662 
M 206.677277 103.174506 
L 201.111144 57.592299 
M 206.677277 103.174506 
L 192.761528 131.380338 
M 182.212871 194.605499 
L 168.221247 194.605499 
M 182.212871 194.605499 
L 173.983062 176.822541 
M 184.800549 181.661702 
L 173.983062 176.822541 
M 184.800549 181.661702 
L 182.212871 194.605499 
M 190.269507 167.333767 
L 173.983062 176.822541 
M 190.269507 167.333767 
L 182.125442 155.901675 
M 190.269507 167.333767 
L 184.800549 181.661702 
M 198.491669 151.618658 
L 182.125442 155.901675 
M 198.491669 151.618658 
L 192.761528 131.380338 
M 198.491669 151.618658 
L 190.269507 167.333767 
M 210.617797 135.444237 
L 192.761528 131.380338 
M 210.617797 135.444237 
L 206.677277 103.174506 
M 210.617797 135.444237 
L 198.491669 151.618658 
M 198.725659 38.057067 
L 201.111144 57.592299 
M 198.725659 38.057067 
L 179.40088 40.287957 
M 184.966598 31.701332 
L 179.40088 40.287957 
M 184.966598 31.701332 
L 198.725659 38.057067 
M 174.699224 23.414211 
L 179.40088 40.287957 
M 174.699224 23.414211 
L 162.155804 26.54263 
M 174.699224 23.414211 
L 184.966598 31.701332 
M 168.221247 15.624329 
L 162.155804 26.54263 
M 168.221247 15.624329 
L 148.457553 15.624329 
M 168.221247 15.624329 
L 174.699224 23.414211 
M 197.036865 24.227182 
L 198.725659 38.057067 
M 189.072753 26.918271 
L 198.725659 38.057067 
M 189.072753 26.918271 
L 184.966598 31.701332 
M 189.072753 26.918271 
L 197.036865 24.227182 
M 183.626828 22.187573 
L 184.966598 31.701332 
M 183.626828 22.187573 
L 174.699224 23.414211 
M 183.626828 22.187573 
L 189.072753 26.918271 
M 182.212871 15.624329 
L 174.699224 23.414211 
M 182.212871 15.624329 
L 168.221247 15.624329 
M 182.212871 15.624329 
L 183.626828 22.187573 
M 227.056517 122.046938 
L 206.677277 103.174506 
M 227.056517 122.046938 
L 210.617797 135.444237 
M 224.296968 90.602051 
L 201.111144 57.592299 
M 224.296968 90.602051 
L 206.677277 103.174506 
M 224.296968 90.602051 
L 227.056517 122.046938 
M 220.468301 47.551989 
L 201.111144 57.592299 
M 220.468301 47.551989 
L 198.725659 38.057067 
M 220.468301 47.551989 
L 224.296968 90.602051 
M 219.290173 26.207739 
L 198.725659 38.057067 
M 219.290173 26.207739 
L 197.036865 24.227182 
M 219.290173 26.207739 
L 220.468301 47.551989 
M 218.407062 10.129391 
L 197.036865 24.227182 
M 218.407062 10.129391 
L 219.290173 26.207739 
M 246.184015 117.642393 
L 227.056517 122.046938 
M 246.184015 117.642393 
L 224.296968 90.602051 
M 246.050897 87.566262 
L 224.296968 90.602051 
M 246.050897 87.566262 
L 246.184015 117.642393 
M 245.405154 47.592256 
L 224.296968 90.602051 
M 245.405154 47.592256 
L 220.468301 47.551989 
M 245.405154 47.592256 
L 219.290173 26.207739 
M 245.405154 47.592256 
L 246.050897 87.566262 
M 246.879843 24.9829 
L 219.290173 26.207739 
M 246.879843 24.9829 
L 218.407062 10.129391 
M 246.879843 24.9829 
L 245.405154 47.592256 
M 248.247876 7.2 
L 218.407062 10.129391 
M 248.247876 7.2 
L 246.879843 24.9829 
M 264.365926 126.988057 
L 246.184015 117.642393 
M 267.481255 102.055308 
L 246.184015 117.642393 
M 267.481255 102.055308 
L 246.050897 87.566262 
M 267.481255 102.055308 
L 264.365926 126.988057 
M 270.640453 68.931984 
L 246.050897 87.566262 
M 270.640453 68.931984 
L 245.405154 47.592256 
M 270.640453 68.931984 
L 267.481255 102.055308 
M 275.389976 48.832147 
L 245.405154 47.592256 
M 275.389976 48.832147 
L 246.879843 24.9829 
M 275.389976 48.832147 
L 270.640453 68.931984 
M 279.631167 33.119321 
L 246.879843 24.9829 
M 279.631167 33.119321 
L 248.247876 7.2 
M 279.631167 33.119321 
L 275.389976 48.832147 
M 278.283388 145.090429 
L 264.365926 126.988057 
M 283.052734 126.981099 
L 264.365926 126.988057 
M 283.052734 126.981099 
L 267.481255 102.055308 
M 283.052734 126.981099 
L 278.283388 145.090429 
M 288.422444 102.388495 
L 267.481255 102.055308 
M 288.422444 102.388495 
L 270.640453 68.931984 
M 288.422444 102.388495 
L 283.052734 126.981099 
M 294.85237 86.478216 
L 270.640453 68.931984 
M 294.85237 86.478216 
L 275.389976 48.832147 
M 294.85237 86.478216 
L 288.422444 102.388495 
M 300.372291 74.515502 
L 275.389976 48.832147 
M 300.372291 74.515502 
L 279.631167 33.119321 
M 300.372291 74.515502 
L 294.85237 86.478216 
M 288.724913 166.622157 
L 278.283388 145.090429 
M 294.607461 152.631797 
L 278.283388 145.090429 
M 294.607461 152.631797 
L 283.052734 126.981099 
M 294.607461 152.631797 
L 288.724913 166.622157 
M 301.646867 133.865464 
L 283.052734 126.981099 
M 301.646867 133.865464 
L 288.422444 102.388495 
M 301.646867 133.865464 
L 294.607461 152.631797 
M 309.216381 119.440293 
L 288.422444 102.388495 
M 309.216381 119.440293 
L 294.85237 86.478216 
M 309.216381 119.440293 
L 301.646867 133.865464 
M 315.474218 108.523242 
L 294.85237 86.478216 
M 315.474218 108.523242 
L 300.372291 74.515502 
M 315.474218 108.523242 
L 309.216381 119.440293 
M 297.082891 189.436699 
L 288.724913 166.622157 
M 303.700054 177.585124 
L 288.724913 166.622157 
M 303.700054 177.585124 
L 294.607461 152.631797 
M 303.700054 177.585124 
L 297.082891 189.436699 
M 312.03057 162.664876 
L 294.607461 152.631797 
M 312.03057 162.664876 
L 301.646867 133.865464 
M 312.03057 162.664876 
L 303.700054 177.585124 
M 320.361085 147.744628 
L 301.646867 133.865464 
M 320.361085 147.744628 
L 309.216381 119.440293 
M 320.361085 147.744628 
L 312.03057 162.664876 
M 326.978249 135.893054 
L 309.216381 119.440293 
M 326.978249 135.893054 
L 315.474218 108.523242 
M 326.978249 135.893054 
L 320.361085 147.744628 
M 317.481723 193.88304 
L 297.082891 189.436699 
M 317.481723 193.88304 
L 303.700054 177.585124 
M 322.513407 181.177403 
L 303.700054 177.585124 
M 322.513407 181.177403 
L 312.03057 162.664876 
M 322.513407 181.177403 
L 317.481723 193.88304 
M 328.830105 164.888047 
L 312.03057 162.664876 
M 328.830105 164.888047 
L 320.361085 147.744628 
M 328.830105 164.888047 
L 322.513407 181.177403 
M 335.146803 148.598691 
L 320.361085 147.744628 
M 335.146803 148.598691 
L 326.978249 135.893054 
M 335.146803 148.598691 
L 328.830105 164.888047 
M 340.178487 135.893054 
L 326.978249 135.893054 
M 340.178487 135.893054 
L 335.146803 148.598691 
M 348.003184 200.535814 
L 317.481723 193.88304 
M 348.003184 200.535814 
L 322.513407 181.177403 
M 351.158825 186.424505 
L 322.513407 181.177403 
M 351.158825 186.424505 
L 328.830105 164.888047 
M 351.158825 186.424505 
L 348.003184 200.535814 
M 355.171142 168.214434 
L 328.830105 164.888047 
M 355.171142 168.214434 
L 335.146803 148.598691 
M 355.171142 168.214434 
L 351.158825 186.424505 
M 359.183459 150.004362 
L 335.146803 148.598691 
M 359.183459 150.004362 
L 340.178487 135.893054 
M 359.183459 150.004362 
L 355.171142 168.214434 
M 362.3391 135.893054 
L 340.178487 135.893054 
M 362.3391 135.893054 
L 359.183459 150.004362 
M 393.670481 210.489932 
L 348.003184 200.535814 
M 393.670481 210.489932 
L 351.158825 186.424505 
M 394.924299 194.147616 
L 351.158825 186.424505 
M 394.924299 194.147616 
L 355.171142 168.214434 
M 394.924299 194.147616 
L 393.670481 210.489932 
M 396.606454 173.191493 
L 355.171142 168.214434 
M 396.606454 173.191493 
L 359.183459 150.004362 
M 396.606454 173.191493 
L 394.924299 194.147616 
M 398.288609 152.23537 
L 359.183459 150.004362 
M 398.288609 152.23537 
L 362.3391 135.893054 
M 398.288609 152.23537 
L 396.606454 173.191493 
M 399.542426 135.893054 
L 362.3391 135.893054 
M 399.542426 135.893054 
L 398.288609 152.23537 
M 461.99952 225.383638 
L 393.670481 210.489932 
M 461.99952 205.575418 
L 393.670481 210.489932 
M 461.99952 205.575418 
L 394.924299 194.147616 
M 461.99952 205.575418 
L 461.99952 225.383638 
M 461.99952 180.638346 
L 394.924299 194.147616 
M 461.99952 180.638346 
L 396.606454 173.191493 
M 461.99952 180.638346 
L 461.99952 205.575418 
M 461.99952 155.701274 
L 396.606454 173.191493 
M 461.99952 155.701274 
L 398.288609 152.23537 
M 461.99952 155.701274 
L 399.542426 135.893054 
M 461.99952 155.701274 
L 461.99952 180.638346 
M 461.99952 135.893054 
L 399.542426 135.893054 
M 461.99952 135.893054 
L 461.99952 155.701274 
M 322.429888 290.142602 
L 326.978249 314.874223 
M 314.007666 251.356303 
L 322.429888 290.142602 
M 304.725681 214.809446 
L 297.082891 189.436699 
M 304.725681 214.809446 
L 317.481723 193.88304 
M 304.725681 214.809446 
L 314.007666 251.356303 
M 340.178487 314.874223 
L 326.978249 314.874223 
M 336.698405 290.862833 
L 326.978249 314.874223 
M 336.698405 290.862833 
L 322.429888 290.142602 
M 336.698405 290.862833 
L 340.178487 314.874223 
M 330.312927 253.779263 
L 322.429888 290.142602 
M 330.312927 253.779263 
L 314.007666 251.356303 
M 330.312927 253.779263 
L 336.698405 290.862833 
M 323.282628 218.684445 
L 317.481723 193.88304 
M 323.282628 218.684445 
L 348.003184 200.535814 
M 323.282628 218.684445 
L 314.007666 251.356303 
M 323.282628 218.684445 
L 304.725681 214.809446 
M 323.282628 218.684445 
L 330.312927 253.779263 
M 362.3391 314.874223 
L 340.178487 314.874223 
M 360.21786 292.134671 
L 340.178487 314.874223 
M 360.21786 292.134671 
L 336.698405 290.862833 
M 360.21786 292.134671 
L 362.3391 314.874223 
M 356.15969 257.30544 
L 336.698405 290.862833 
M 356.15969 257.30544 
L 330.312927 253.779263 
M 356.15969 257.30544 
L 360.21786 292.134671 
M 351.671638 224.214268 
L 348.003184 200.535814 
M 351.671638 224.214268 
L 393.670481 210.489932 
M 351.671638 224.214268 
L 330.312927 253.779263 
M 351.671638 224.214268 
L 323.282628 218.684445 
M 351.671638 224.214268 
L 356.15969 257.30544 
M 399.542426 314.874223 
L 362.3391 314.874223 
M 398.80581 294.231846 
L 362.3391 314.874223 
M 398.80581 294.231846 
L 360.21786 292.134671 
M 398.80581 294.231846 
L 399.542426 314.874223 
M 397.100728 262.482288 
L 360.21786 292.134671 
M 397.100728 262.482288 
L 356.15969 257.30544 
M 397.100728 262.482288 
L 398.80581 294.231846 
M 395.180705 232.220099 
L 393.670481 210.489932 
M 395.180705 232.220099 
L 461.99952 225.383638 
M 395.180705 232.220099 
L 356.15969 257.30544 
M 395.180705 232.220099 
L 351.671638 224.214268 
M 395.180705 232.220099 
L 397.100728 262.482288 
M 461.99952 314.874223 
L 399.542426 314.874223 
M 461.99952 297.563917 
L 399.542426 314.874223 
M 461.99952 297.563917 
L 398.80581 294.231846 
M 461.99952 297.563917 
L 461.99952 314.874223 
M 461.99952 270.128931 
L 398.80581 294.231846 
M 461.99952 270.128931 
L 397.100728 262.482288 
M 461.99952 270.128931 
L 461.99952 297.563917 
M 461.99952 243.930621 
L 461.99952 225.383638 
M 461.99952 243.930621 
L 397.100728 262.482288 
M 461.99952 243.930621 
L 395.180705 232.220099 
M 461.99952 243.930621 
L 461.99952 270.128931 
L 461.99952 270.128931 
" style="fill: none; stroke: #000000; stroke-width: 2; stroke-linecap: square"/>
   </g>
   <g id="matplotlib.axis_1">
    <g id="xtick_1">
     <g id="line2d_2">
      <defs>
       <path id="m6f841f261f" d="M 0 0 
L 0 3.5 
" style="stroke: #5a5758; stroke-width: 0.8"/>
      </defs>
      <g>
       <use xlink:href="#m6f841f261f" x="101.082542" y="326.874223" style="fill: #5a5758; stroke: #5a5758; stroke-width: 0.8"/>
      </g>
     </g>
     <g id="text_1">
      <!-- -20 -->
      <g style="fill: #5a5758" transform="translate(90.586742 344.295053) scale(0.14994 -0.14994)">
       <defs>
        <path id="CMUBright-Roman-2d" d="M 70 1350 
L 70 1670 
L 1862 1670 
L 1862 1350 
L 70 1350 
z
" transform="scale(0.015625)"/>
        <path id="CMUBright-Roman-32" d="M 275 3226 
Q 595 4301 1587 4301 
L 1594 4301 
Q 2214 4294 2617 3923 
Q 3021 3552 3021 2989 
Q 3021 2746 2937 2531 
Q 2854 2317 2668 2115 
Q 2483 1914 2384 1821 
Q 2285 1728 2061 1549 
Q 1754 1299 1642 1203 
Q 1530 1107 698 358 
L 3021 358 
L 3021 0 
L 333 0 
L 333 339 
L 1683 1562 
Q 2144 1965 2368 2278 
Q 2592 2592 2592 2982 
Q 2592 3418 2278 3690 
Q 1965 3962 1498 3962 
Q 1069 3962 854 3693 
Q 640 3424 512 2938 
L 275 3226 
z
" transform="scale(0.015625)"/>
        <path id="CMUBright-Roman-30" d="M 333 1984 
L 333 2086 
Q 333 2291 339 2438 
Q 346 2586 371 2832 
Q 397 3078 461 3267 
Q 525 3456 621 3657 
Q 717 3859 880 4006 
Q 1043 4154 1261 4230 
Q 1446 4301 1677 4301 
Q 1856 4301 2025 4256 
Q 2195 4211 2380 4070 
Q 2566 3930 2704 3709 
Q 2842 3488 2931 3104 
Q 3021 2720 3021 2214 
Q 3021 1683 2982 1347 
Q 2944 1011 2803 685 
Q 2618 250 2307 70 
Q 1997 -109 1677 -109 
Q 1498 -109 1328 -64 
Q 1158 -19 972 121 
Q 787 262 649 483 
Q 512 704 422 1091 
Q 333 1478 333 1984 
z
M 742 2413 
Q 742 2374 745 2326 
Q 749 2278 749 2272 
L 749 2150 
Q 749 1779 758 1548 
Q 768 1318 838 1014 
Q 909 710 1037 538 
Q 1286 218 1677 218 
Q 2086 218 2330 557 
Q 2451 730 2518 1037 
Q 2586 1344 2595 1568 
Q 2605 1792 2605 2163 
L 2605 2272 
Q 2605 2278 2608 2323 
Q 2611 2368 2611 2406 
Q 2611 3302 2336 3661 
Q 2099 3981 1677 3981 
Q 1242 3981 1005 3642 
Q 742 3264 742 2413 
z
" transform="scale(0.015625)"/>
       </defs>
       <use xlink:href="#CMUBright-Roman-2d"/>
       <use xlink:href="#CMUBright-Roman-32" x="34.999985"/>
       <use xlink:href="#CMUBright-Roman-30" x="87.499969"/>
      </g>
     </g>
    </g>
    <g id="xtick_2">
     <g id="line2d_3">
      <g>
       <use xlink:href="#m6f841f261f" x="178.069064" y="326.874223" style="fill: #5a5758; stroke: #5a5758; stroke-width: 0.8"/>
      </g>
     </g>
     <g id="text_2">
      <!-- -10 -->
      <g style="fill: #5a5758" transform="translate(167.573264 344.295053) scale(0.14994 -0.14994)">
       <defs>
        <path id="CMUBright-Roman-31" d="M 672 3558 
L 672 3885 
Q 1427 3885 1862 4301 
L 1965 4301 
L 1965 320 
L 2803 320 
L 2803 0 
L 710 0 
L 710 320 
L 1549 320 
L 1549 3744 
Q 1178 3558 672 3558 
z
" transform="scale(0.015625)"/>
       </defs>
       <use xlink:href="#CMUBright-Roman-2d"/>
       <use xlink:href="#CMUBright-Roman-31" x="34.999985"/>
       <use xlink:href="#CMUBright-Roman-30" x="87.499969"/>
      </g>
     </g>
    </g>
    <g id="xtick_3">
     <g id="line2d_4">
      <g>
       <use xlink:href="#m6f841f261f" x="255.055585" y="326.874223" style="fill: #5a5758; stroke: #5a5758; stroke-width: 0.8"/>
      </g>
     </g>
     <g id="text_3">
      <!-- 0 -->
      <g style="fill: #5a5758" transform="translate(251.11966 344.295053) scale(0.14994 -0.14994)">
       <use xlink:href="#CMUBright-Roman-30"/>
      </g>
     </g>
    </g>
    <g id="xtick_4">
     <g id="line2d_5">
      <g>
       <use xlink:href="#m6f841f261f" x="332.042107" y="326.874223" style="fill: #5a5758; stroke: #5a5758; stroke-width: 0.8"/>
      </g>
     </g>
     <g id="text_4">
      <!-- 10 -->
      <g style="fill: #5a5758" transform="translate(324.170257 344.295053) scale(0.14994 -0.14994)">
       <use xlink:href="#CMUBright-Roman-31"/>
       <use xlink:href="#CMUBright-Roman-30" x="52.499985"/>
      </g>
     </g>
    </g>
    <g id="xtick_5">
     <g id="line2d_6">
      <g>
       <use xlink:href="#m6f841f261f" x="409.028628" y="326.874223" style="fill: #5a5758; stroke: #5a5758; stroke-width: 0.8"/>
      </g>
     </g>
     <g id="text_5">
      <!-- 20 -->
      <g style="fill: #5a5758" transform="translate(401.156778 344.295053) scale(0.14994 -0.14994)">
       <use xlink:href="#CMUBright-Roman-32"/>
       <use xlink:href="#CMUBright-Roman-30" x="52.499985"/>
      </g>
     </g>
    </g>
   </g>
   <g id="matplotlib.axis_2">
    <g id="ytick_1">
     <g id="line2d_7">
      <defs>
       <path id="m0a83975624" d="M 0 0 
L -3.5 0 
" style="stroke: #5a5758; stroke-width: 0.8"/>
      </defs>
      <g>
       <use xlink:href="#m0a83975624" x="35.1916" y="282.066798" style="fill: #5a5758; stroke: #5a5758; stroke-width: 0.8"/>
      </g>
     </g>
     <g id="text_6">
      <!-- -10 -->
      <g style="fill: #5a5758" transform="translate(7.2 287.277213) scale(0.14994 -0.14994)">
       <use xlink:href="#CMUBright-Roman-2d"/>
       <use xlink:href="#CMUBright-Roman-31" x="34.999985"/>
       <use xlink:href="#CMUBright-Roman-30" x="87.499969"/>
      </g>
     </g>
    </g>
    <g id="ytick_2">
     <g id="line2d_8">
      <g>
       <use xlink:href="#m0a83975624" x="35.1916" y="232.161831" style="fill: #5a5758; stroke: #5a5758; stroke-width: 0.8"/>
      </g>
     </g>
     <g id="text_7">
      <!-- -5 -->
      <g style="fill: #5a5758" transform="translate(15.07185 237.372246) scale(0.14994 -0.14994)">
       <defs>
        <path id="CMUBright-Roman-35" d="M 301 518 
L 486 819 
Q 896 224 1581 224 
Q 1971 224 2268 473 
Q 2566 723 2566 1312 
Q 2566 1626 2489 1846 
Q 2413 2067 2285 2176 
Q 2157 2285 2032 2329 
Q 1907 2374 1773 2374 
Q 1210 2374 941 1901 
L 582 1901 
L 582 4192 
L 2797 4192 
L 2797 3853 
L 973 3853 
L 973 2381 
Q 1325 2701 1779 2701 
Q 2285 2701 2653 2291 
Q 3021 1882 3021 1306 
Q 3021 723 2601 307 
Q 2182 -109 1574 -109 
Q 813 -109 301 518 
z
" transform="scale(0.015625)"/>
       </defs>
       <use xlink:href="#CMUBright-Roman-2d"/>
       <use xlink:href="#CMUBright-Roman-35" x="34.999985"/>
      </g>
     </g>
    </g>
    <g id="ytick_3">
     <g id="line2d_9">
      <g>
       <use xlink:href="#m0a83975624" x="35.1916" y="182.256864" style="fill: #5a5758; stroke: #5a5758; stroke-width: 0.8"/>
      </g>
     </g>
     <g id="text_8">
      <!-- 0 -->
      <g style="fill: #5a5758" transform="translate(20.31975 187.467279) scale(0.14994 -0.14994)">
       <use xlink:href="#CMUBright-Roman-30"/>
      </g>
     </g>
    </g>
    <g id="ytick_4">
     <g id="line2d_10">
      <g>
       <use xlink:href="#m0a83975624" x="35.1916" y="132.351897" style="fill: #5a5758; stroke: #5a5758; stroke-width: 0.8"/>
      </g>
     </g>
     <g id="text_9">
      <!-- 5 -->
      <g style="fill: #5a5758" transform="translate(20.31975 137.562312) scale(0.14994 -0.14994)">
       <use xlink:href="#CMUBright-Roman-35"/>
      </g>
     </g>
    </g>
    <g id="ytick_5">
     <g id="line2d_11">
      <g>
       <use xlink:href="#m0a83975624" x="35.1916" y="82.44693" style="fill: #5a5758; stroke: #5a5758; stroke-width: 0.8"/>
      </g>
     </g>
     <g id="text_10">
      <!-- 10 -->
      <g style="fill: #5a5758" transform="translate(12.4479 87.657345) scale(0.14994 -0.14994)">
       <use xlink:href="#CMUBright-Roman-31"/>
       <use xlink:href="#CMUBright-Roman-30" x="52.499985"/>
      </g>
     </g>
    </g>
    <g id="ytick_6">
     <g id="line2d_12">
      <g>
       <use xlink:href="#m0a83975624" x="35.1916" y="32.541963" style="fill: #5a5758; stroke: #5a5758; stroke-width: 0.8"/>
      </g>
     </g>
     <g id="text_11">
      <!-- 15 -->
      <g style="fill: #5a5758" transform="translate(12.4479 37.752378) scale(0.14994 -0.14994)">
       <use xlink:href="#CMUBright-Roman-31"/>
       <use xlink:href="#CMUBright-Roman-35" x="52.499985"/>
      </g>
     </g>
    </g>
   </g>
   <g id="line2d_13"/>
   <g id="patch_3">
    <path d="M 35.1916 314.874223 
L 35.1916 7.2 
" style="fill: none; stroke: #5a5758; stroke-width: 0.8; stroke-linejoin: miter; stroke-linecap: square"/>
   </g>
   <g id="patch_4">
    <path d="M 47.1916 326.874223 
L 461.99952 326.874223 
" style="fill: none; stroke: #5a5758; stroke-width: 0.8; stroke-linejoin: miter; stroke-linecap: square"/>
   </g>
  </g>
 </g>
</svg>