<?xml version="1.0" encoding="utf-8" standalone="no"?>
<!DOCTYPE svg PUBLIC "-//W3C//DTD SVG 1.1//EN"
  "http://www.w3.org/Graphics/SVG/1.1/DTD/svg11.dtd">
<svg xmlns:xlink="http://www.w3.org/1999/xlink" width="872.39952pt" height="440.39952pt" viewBox="0 0 872.39952 440.39952" xmlns="http://www.w3.org/2000/svg" version="1.1">
 <metadata>
  <rdf:RDF xmlns:dc="http://purl.org/dc/elements/1.1/" xmlns:cc="http://creativecommons.org/ns#" xmlns:rdf="http://www.w3.org/1999/02/22-rdf-syntax-ns#">
   <cc:Work>
    <dc:type rdf:resource="http://purl.org/dc/dcmitype/StillImage"/>
    <dc:date>2024-09-25T14:53:45.077408</dc:date>
    <dc:format>image/svg+xml</dc:format>
    <dc:creator>
     <cc:Agent>
      <dc:title>Matplotlib v3.7.1, https://matplotlib.org/</dc:title>
     </cc:Agent>
    </dc:creator>
   </cc:Work>
  </rdf:RDF>
 </metadata>
 <defs>
  <style type="text/css">*{stroke-linejoin: round; stroke-linecap: butt}</style>
 </defs>
 <g id="figure_1">
  <g id="patch_1">
   <path d="M 0 440.39952 
L 872.39952 440.39952 
L 872.39952 0 
L 0 0 
z
" style="fill: #ffffff"/>
  </g>
  <g id="axes_1">
   <g id="patch_2">
    <path d="M 78.010065 374.267514 
L 444.590072 374.267514 
L 444.590072 12.896549 
L 78.010065 12.896549 
z
" style="fill: #ffffff"/>
   </g>
   <g id="matplotlib.axis_1">
    <g id="xtick_1">
     <g id="line2d_1">
      <defs>
       <path id="m404097eca3" d="M 0 0 
L 0 3.5 
" style="stroke: #5a5758; stroke-width: 0.8"/>
      </defs>
      <g>
       <use xlink:href="#m404097eca3" x="78.010065" y="386.267514" style="fill: #5a5758; stroke: #5a5758; stroke-width: 0.8"/>
      </g>
     </g>
     <g id="text_1">
      <!-- 0 -->
      <g style="fill: #5a5758" transform="translate(73.240099 404.660612) scale(0.14994 -0.14994)">
       <defs>
        <path id="DejaVuSans-30" d="M 2034 4250 
Q 1547 4250 1301 3770 
Q 1056 3291 1056 2328 
Q 1056 1369 1301 889 
Q 1547 409 2034 409 
Q 2525 409 2770 889 
Q 3016 1369 3016 2328 
Q 3016 3291 2770 3770 
Q 2525 4250 2034 4250 
z
M 2034 4750 
Q 2819 4750 3233 4129 
Q 3647 3509 3647 2328 
Q 3647 1150 3233 529 
Q 2819 -91 2034 -91 
Q 1250 -91 836 529 
Q 422 1150 422 2328 
Q 422 3509 836 4129 
Q 1250 4750 2034 4750 
z
" transform="scale(0.015625)"/>
       </defs>
       <use xlink:href="#DejaVuSans-30"/>
      </g>
     </g>
    </g>
    <g id="xtick_2">
     <g id="line2d_2">
      <g>
       <use xlink:href="#m404097eca3" x="151.340733" y="386.267514" style="fill: #5a5758; stroke: #5a5758; stroke-width: 0.8"/>
      </g>
     </g>
     <g id="text_2">
      <!-- 1000 -->
      <g style="fill: #5a5758" transform="translate(132.260868 404.660612) scale(0.14994 -0.14994)">
       <defs>
        <path id="DejaVuSans-31" d="M 794 531 
L 1825 531 
L 1825 4091 
L 703 3866 
L 703 4441 
L 1819 4666 
L 2450 4666 
L 2450 531 
L 3481 531 
L 3481 0 
L 794 0 
L 794 531 
z
" transform="scale(0.015625)"/>
       </defs>
       <use xlink:href="#DejaVuSans-31"/>
       <use xlink:href="#DejaVuSans-30" x="63.623047"/>
       <use xlink:href="#DejaVuSans-30" x="127.246094"/>
       <use xlink:href="#DejaVuSans-30" x="190.869141"/>
      </g>
     </g>
    </g>
    <g id="xtick_3">
     <g id="line2d_3">
      <g>
       <use xlink:href="#m404097eca3" x="224.6714" y="386.267514" style="fill: #5a5758; stroke: #5a5758; stroke-width: 0.8"/>
      </g>
     </g>
     <g id="text_3">
      <!-- 2000 -->
      <g style="fill: #5a5758" transform="translate(205.591535 404.660612) scale(0.14994 -0.14994)">
       <defs>
        <path id="DejaVuSans-32" d="M 1228 531 
L 3431 531 
L 3431 0 
L 469 0 
L 469 531 
Q 828 903 1448 1529 
Q 2069 2156 2228 2338 
Q 2531 2678 2651 2914 
Q 2772 3150 2772 3378 
Q 2772 3750 2511 3984 
Q 2250 4219 1831 4219 
Q 1534 4219 1204 4116 
Q 875 4013 500 3803 
L 500 4441 
Q 881 4594 1212 4672 
Q 1544 4750 1819 4750 
Q 2544 4750 2975 4387 
Q 3406 4025 3406 3419 
Q 3406 3131 3298 2873 
Q 3191 2616 2906 2266 
Q 2828 2175 2409 1742 
Q 1991 1309 1228 531 
z
" transform="scale(0.015625)"/>
       </defs>
       <use xlink:href="#DejaVuSans-32"/>
       <use xlink:href="#DejaVuSans-30" x="63.623047"/>
       <use xlink:href="#DejaVuSans-30" x="127.246094"/>
       <use xlink:href="#DejaVuSans-30" x="190.869141"/>
      </g>
     </g>
    </g>
    <g id="xtick_4">
     <g id="line2d_4">
      <g>
       <use xlink:href="#m404097eca3" x="298.002068" y="386.267514" style="fill: #5a5758; stroke: #5a5758; stroke-width: 0.8"/>
      </g>
     </g>
     <g id="text_4">
      <!-- 3000 -->
      <g style="fill: #5a5758" transform="translate(278.922203 404.660612) scale(0.14994 -0.14994)">
       <defs>
        <path id="DejaVuSans-33" d="M 2597 2516 
Q 3050 2419 3304 2112 
Q 3559 1806 3559 1356 
Q 3559 666 3084 287 
Q 2609 -91 1734 -91 
Q 1441 -91 1130 -33 
Q 819 25 488 141 
L 488 750 
Q 750 597 1062 519 
Q 1375 441 1716 441 
Q 2309 441 2620 675 
Q 2931 909 2931 1356 
Q 2931 1769 2642 2001 
Q 2353 2234 1838 2234 
L 1294 2234 
L 1294 2753 
L 1863 2753 
Q 2328 2753 2575 2939 
Q 2822 3125 2822 3475 
Q 2822 3834 2567 4026 
Q 2313 4219 1838 4219 
Q 1578 4219 1281 4162 
Q 984 4106 628 3988 
L 628 4550 
Q 988 4650 1302 4700 
Q 1616 4750 1894 4750 
Q 2613 4750 3031 4423 
Q 3450 4097 3450 3541 
Q 3450 3153 3228 2886 
Q 3006 2619 2597 2516 
z
" transform="scale(0.015625)"/>
       </defs>
       <use xlink:href="#DejaVuSans-33"/>
       <use xlink:href="#DejaVuSans-30" x="63.623047"/>
       <use xlink:href="#DejaVuSans-30" x="127.246094"/>
       <use xlink:href="#DejaVuSans-30" x="190.869141"/>
      </g>
     </g>
    </g>
    <g id="xtick_5">
     <g id="line2d_5">
      <g>
       <use xlink:href="#m404097eca3" x="371.332736" y="386.267514" style="fill: #5a5758; stroke: #5a5758; stroke-width: 0.8"/>
      </g>
     </g>
     <g id="text_5">
      <!-- 4000 -->
      <g style="fill: #5a5758" transform="translate(352.252871 404.660612) scale(0.14994 -0.14994)">
       <defs>
        <path id="DejaVuSans-34" d="M 2419 4116 
L 825 1625 
L 2419 1625 
L 2419 4116 
z
M 2253 4666 
L 3047 4666 
L 3047 1625 
L 3713 1625 
L 3713 1100 
L 3047 1100 
L 3047 0 
L 2419 0 
L 2419 1100 
L 313 1100 
L 313 1709 
L 2253 4666 
z
" transform="scale(0.015625)"/>
       </defs>
       <use xlink:href="#DejaVuSans-34"/>
       <use xlink:href="#DejaVuSans-30" x="63.623047"/>
       <use xlink:href="#DejaVuSans-30" x="127.246094"/>
       <use xlink:href="#DejaVuSans-30" x="190.869141"/>
      </g>
     </g>
    </g>
    <g id="text_6">
     <!-- Iterations -->
     <g style="fill: #5a5758" transform="translate(211.700225 429.456083) scale(0.18 -0.18)">
      <defs>
       <path id="DejaVuSans-Bold-49" d="M 588 4666 
L 1791 4666 
L 1791 0 
L 588 0 
L 588 4666 
z
" transform="scale(0.015625)"/>
       <path id="DejaVuSans-Bold-74" d="M 1759 4494 
L 1759 3500 
L 2913 3500 
L 2913 2700 
L 1759 2700 
L 1759 1216 
Q 1759 972 1856 886 
Q 1953 800 2241 800 
L 2816 800 
L 2816 0 
L 1856 0 
Q 1194 0 917 276 
Q 641 553 641 1216 
L 641 2700 
L 84 2700 
L 84 3500 
L 641 3500 
L 641 4494 
L 1759 4494 
z
" transform="scale(0.015625)"/>
       <path id="DejaVuSans-Bold-65" d="M 4031 1759 
L 4031 1441 
L 1416 1441 
Q 1456 1047 1700 850 
Q 1944 653 2381 653 
Q 2734 653 3104 758 
Q 3475 863 3866 1075 
L 3866 213 
Q 3469 63 3072 -14 
Q 2675 -91 2278 -91 
Q 1328 -91 801 392 
Q 275 875 275 1747 
Q 275 2603 792 3093 
Q 1309 3584 2216 3584 
Q 3041 3584 3536 3087 
Q 4031 2591 4031 1759 
z
M 2881 2131 
Q 2881 2450 2695 2645 
Q 2509 2841 2209 2841 
Q 1884 2841 1681 2658 
Q 1478 2475 1428 2131 
L 2881 2131 
z
" transform="scale(0.015625)"/>
       <path id="DejaVuSans-Bold-72" d="M 3138 2547 
Q 2991 2616 2845 2648 
Q 2700 2681 2553 2681 
Q 2122 2681 1889 2404 
Q 1656 2128 1656 1613 
L 1656 0 
L 538 0 
L 538 3500 
L 1656 3500 
L 1656 2925 
Q 1872 3269 2151 3426 
Q 2431 3584 2822 3584 
Q 2878 3584 2943 3579 
Q 3009 3575 3134 3559 
L 3138 2547 
z
" transform="scale(0.015625)"/>
       <path id="DejaVuSans-Bold-61" d="M 2106 1575 
Q 1756 1575 1579 1456 
Q 1403 1338 1403 1106 
Q 1403 894 1545 773 
Q 1688 653 1941 653 
Q 2256 653 2472 879 
Q 2688 1106 2688 1447 
L 2688 1575 
L 2106 1575 
z
M 3816 1997 
L 3816 0 
L 2688 0 
L 2688 519 
Q 2463 200 2181 54 
Q 1900 -91 1497 -91 
Q 953 -91 614 226 
Q 275 544 275 1050 
Q 275 1666 698 1953 
Q 1122 2241 2028 2241 
L 2688 2241 
L 2688 2328 
Q 2688 2594 2478 2717 
Q 2269 2841 1825 2841 
Q 1466 2841 1156 2769 
Q 847 2697 581 2553 
L 581 3406 
Q 941 3494 1303 3539 
Q 1666 3584 2028 3584 
Q 2975 3584 3395 3211 
Q 3816 2838 3816 1997 
z
" transform="scale(0.015625)"/>
       <path id="DejaVuSans-Bold-69" d="M 538 3500 
L 1656 3500 
L 1656 0 
L 538 0 
L 538 3500 
z
M 538 4863 
L 1656 4863 
L 1656 3950 
L 538 3950 
L 538 4863 
z
" transform="scale(0.015625)"/>
       <path id="DejaVuSans-Bold-6f" d="M 2203 2784 
Q 1831 2784 1636 2517 
Q 1441 2250 1441 1747 
Q 1441 1244 1636 976 
Q 1831 709 2203 709 
Q 2569 709 2762 976 
Q 2956 1244 2956 1747 
Q 2956 2250 2762 2517 
Q 2569 2784 2203 2784 
z
M 2203 3584 
Q 3106 3584 3614 3096 
Q 4122 2609 4122 1747 
Q 4122 884 3614 396 
Q 3106 -91 2203 -91 
Q 1297 -91 786 396 
Q 275 884 275 1747 
Q 275 2609 786 3096 
Q 1297 3584 2203 3584 
z
" transform="scale(0.015625)"/>
       <path id="DejaVuSans-Bold-6e" d="M 4056 2131 
L 4056 0 
L 2931 0 
L 2931 347 
L 2931 1631 
Q 2931 2084 2911 2256 
Q 2891 2428 2841 2509 
Q 2775 2619 2662 2680 
Q 2550 2741 2406 2741 
Q 2056 2741 1856 2470 
Q 1656 2200 1656 1722 
L 1656 0 
L 538 0 
L 538 3500 
L 1656 3500 
L 1656 2988 
Q 1909 3294 2193 3439 
Q 2478 3584 2822 3584 
Q 3428 3584 3742 3212 
Q 4056 2841 4056 2131 
z
" transform="scale(0.015625)"/>
       <path id="DejaVuSans-Bold-73" d="M 3272 3391 
L 3272 2541 
Q 2913 2691 2578 2766 
Q 2244 2841 1947 2841 
Q 1628 2841 1473 2761 
Q 1319 2681 1319 2516 
Q 1319 2381 1436 2309 
Q 1553 2238 1856 2203 
L 2053 2175 
Q 2913 2066 3209 1816 
Q 3506 1566 3506 1031 
Q 3506 472 3093 190 
Q 2681 -91 1863 -91 
Q 1516 -91 1145 -36 
Q 775 19 384 128 
L 384 978 
Q 719 816 1070 734 
Q 1422 653 1784 653 
Q 2113 653 2278 743 
Q 2444 834 2444 1013 
Q 2444 1163 2330 1236 
Q 2216 1309 1875 1350 
L 1678 1375 
Q 931 1469 631 1722 
Q 331 1975 331 2491 
Q 331 3047 712 3315 
Q 1094 3584 1881 3584 
Q 2191 3584 2531 3537 
Q 2872 3491 3272 3391 
z
" transform="scale(0.015625)"/>
      </defs>
      <use xlink:href="#DejaVuSans-Bold-49"/>
      <use xlink:href="#DejaVuSans-Bold-74" x="37.207031"/>
      <use xlink:href="#DejaVuSans-Bold-65" x="85.009766"/>
      <use xlink:href="#DejaVuSans-Bold-72" x="152.832031"/>
      <use xlink:href="#DejaVuSans-Bold-61" x="202.148438"/>
      <use xlink:href="#DejaVuSans-Bold-74" x="269.628906"/>
      <use xlink:href="#DejaVuSans-Bold-69" x="317.431641"/>
      <use xlink:href="#DejaVuSans-Bold-6f" x="351.708984"/>
      <use xlink:href="#DejaVuSans-Bold-6e" x="420.410156"/>
      <use xlink:href="#DejaVuSans-Bold-73" x="491.601562"/>
     </g>
    </g>
   </g>
   <g id="matplotlib.axis_2">
    <g id="ytick_1">
     <g id="line2d_6">
      <defs>
       <path id="m475abe73ae" d="M 0 0 
L -3.5 0 
" style="stroke: #5a5758; stroke-width: 0.8"/>
      </defs>
      <g>
       <use xlink:href="#m475abe73ae" x="66.010065" y="341.001775" style="fill: #5a5758; stroke: #5a5758; stroke-width: 0.8"/>
      </g>
     </g>
     <g id="text_7">
      <!-- $\mathdefault{10^{0}}$ -->
      <g style="fill: #5a5758" transform="translate(32.620625 346.698324) scale(0.14994 -0.14994)">
       <use xlink:href="#DejaVuSans-31" transform="translate(0 0.765625)"/>
       <use xlink:href="#DejaVuSans-30" transform="translate(63.623047 0.765625)"/>
       <use xlink:href="#DejaVuSans-30" transform="translate(128.203125 39.046875) scale(0.7)"/>
      </g>
     </g>
    </g>
    <g id="ytick_2">
     <g id="line2d_7">
      <g>
       <use xlink:href="#m475abe73ae" x="66.010065" y="231.633366" style="fill: #5a5758; stroke: #5a5758; stroke-width: 0.8"/>
      </g>
     </g>
     <g id="text_8">
      <!-- $\mathdefault{10^{1}}$ -->
      <g style="fill: #5a5758" transform="translate(32.620625 237.329915) scale(0.14994 -0.14994)">
       <use xlink:href="#DejaVuSans-31" transform="translate(0 0.684375)"/>
       <use xlink:href="#DejaVuSans-30" transform="translate(63.623047 0.684375)"/>
       <use xlink:href="#DejaVuSans-31" transform="translate(128.203125 38.965625) scale(0.7)"/>
      </g>
     </g>
    </g>
    <g id="ytick_3">
     <g id="line2d_8">
      <g>
       <use xlink:href="#m475abe73ae" x="66.010065" y="122.264957" style="fill: #5a5758; stroke: #5a5758; stroke-width: 0.8"/>
      </g>
     </g>
     <g id="text_9">
      <!-- $\mathdefault{10^{2}}$ -->
      <g style="fill: #5a5758" transform="translate(32.620625 127.961506) scale(0.14994 -0.14994)">
       <use xlink:href="#DejaVuSans-31" transform="translate(0 0.765625)"/>
       <use xlink:href="#DejaVuSans-30" transform="translate(63.623047 0.765625)"/>
       <use xlink:href="#DejaVuSans-32" transform="translate(128.203125 39.046875) scale(0.7)"/>
      </g>
     </g>
    </g>
    <g id="ytick_4">
     <g id="line2d_9">
      <g>
       <use xlink:href="#m475abe73ae" x="66.010065" y="12.896549" style="fill: #5a5758; stroke: #5a5758; stroke-width: 0.8"/>
      </g>
     </g>
     <g id="text_10">
      <!-- $\mathdefault{10^{3}}$ -->
      <g style="fill: #5a5758" transform="translate(32.620625 18.593097) scale(0.14994 -0.14994)">
       <use xlink:href="#DejaVuSans-31" transform="translate(0 0.765625)"/>
       <use xlink:href="#DejaVuSans-30" transform="translate(63.623047 0.765625)"/>
       <use xlink:href="#DejaVuSans-33" transform="translate(128.203125 39.046875) scale(0.7)"/>
      </g>
     </g>
    </g>
    <g id="ytick_5">
     <g id="line2d_10">
      <defs>
       <path id="mc2304d05f7" d="M 0 0 
L -2 0 
" style="stroke: #5a5758; stroke-width: 0.6"/>
      </defs>
      <g>
       <use xlink:href="#mc2304d05f7" x="66.010065" y="373.924947" style="fill: #5a5758; stroke: #5a5758; stroke-width: 0.6"/>
      </g>
     </g>
    </g>
    <g id="ytick_6">
     <g id="line2d_11">
      <g>
       <use xlink:href="#mc2304d05f7" x="66.010065" y="365.26502" style="fill: #5a5758; stroke: #5a5758; stroke-width: 0.6"/>
      </g>
     </g>
    </g>
    <g id="ytick_7">
     <g id="line2d_12">
      <g>
       <use xlink:href="#mc2304d05f7" x="66.010065" y="357.943156" style="fill: #5a5758; stroke: #5a5758; stroke-width: 0.6"/>
      </g>
     </g>
    </g>
    <g id="ytick_8">
     <g id="line2d_13">
      <g>
       <use xlink:href="#mc2304d05f7" x="66.010065" y="351.600669" style="fill: #5a5758; stroke: #5a5758; stroke-width: 0.6"/>
      </g>
     </g>
    </g>
    <g id="ytick_9">
     <g id="line2d_14">
      <g>
       <use xlink:href="#mc2304d05f7" x="66.010065" y="346.006199" style="fill: #5a5758; stroke: #5a5758; stroke-width: 0.6"/>
      </g>
     </g>
    </g>
    <g id="ytick_10">
     <g id="line2d_15">
      <g>
       <use xlink:href="#mc2304d05f7" x="66.010065" y="308.078604" style="fill: #5a5758; stroke: #5a5758; stroke-width: 0.6"/>
      </g>
     </g>
    </g>
    <g id="ytick_11">
     <g id="line2d_16">
      <g>
       <use xlink:href="#mc2304d05f7" x="66.010065" y="288.819783" style="fill: #5a5758; stroke: #5a5758; stroke-width: 0.6"/>
      </g>
     </g>
    </g>
    <g id="ytick_12">
     <g id="line2d_17">
      <g>
       <use xlink:href="#mc2304d05f7" x="66.010065" y="275.155432" style="fill: #5a5758; stroke: #5a5758; stroke-width: 0.6"/>
      </g>
     </g>
    </g>
    <g id="ytick_13">
     <g id="line2d_18">
      <g>
       <use xlink:href="#mc2304d05f7" x="66.010065" y="264.556538" style="fill: #5a5758; stroke: #5a5758; stroke-width: 0.6"/>
      </g>
     </g>
    </g>
    <g id="ytick_14">
     <g id="line2d_19">
      <g>
       <use xlink:href="#mc2304d05f7" x="66.010065" y="255.896611" style="fill: #5a5758; stroke: #5a5758; stroke-width: 0.6"/>
      </g>
     </g>
    </g>
    <g id="ytick_15">
     <g id="line2d_20">
      <g>
       <use xlink:href="#mc2304d05f7" x="66.010065" y="248.574747" style="fill: #5a5758; stroke: #5a5758; stroke-width: 0.6"/>
      </g>
     </g>
    </g>
    <g id="ytick_16">
     <g id="line2d_21">
      <g>
       <use xlink:href="#mc2304d05f7" x="66.010065" y="242.23226" style="fill: #5a5758; stroke: #5a5758; stroke-width: 0.6"/>
      </g>
     </g>
    </g>
    <g id="ytick_17">
     <g id="line2d_22">
      <g>
       <use xlink:href="#mc2304d05f7" x="66.010065" y="236.63779" style="fill: #5a5758; stroke: #5a5758; stroke-width: 0.6"/>
      </g>
     </g>
    </g>
    <g id="ytick_18">
     <g id="line2d_23">
      <g>
       <use xlink:href="#mc2304d05f7" x="66.010065" y="198.710195" style="fill: #5a5758; stroke: #5a5758; stroke-width: 0.6"/>
      </g>
     </g>
    </g>
    <g id="ytick_19">
     <g id="line2d_24">
      <g>
       <use xlink:href="#mc2304d05f7" x="66.010065" y="179.451374" style="fill: #5a5758; stroke: #5a5758; stroke-width: 0.6"/>
      </g>
     </g>
    </g>
    <g id="ytick_20">
     <g id="line2d_25">
      <g>
       <use xlink:href="#mc2304d05f7" x="66.010065" y="165.787023" style="fill: #5a5758; stroke: #5a5758; stroke-width: 0.6"/>
      </g>
     </g>
    </g>
    <g id="ytick_21">
     <g id="line2d_26">
      <g>
       <use xlink:href="#mc2304d05f7" x="66.010065" y="155.188129" style="fill: #5a5758; stroke: #5a5758; stroke-width: 0.6"/>
      </g>
     </g>
    </g>
    <g id="ytick_22">
     <g id="line2d_27">
      <g>
       <use xlink:href="#mc2304d05f7" x="66.010065" y="146.528202" style="fill: #5a5758; stroke: #5a5758; stroke-width: 0.6"/>
      </g>
     </g>
    </g>
    <g id="ytick_23">
     <g id="line2d_28">
      <g>
       <use xlink:href="#mc2304d05f7" x="66.010065" y="139.206338" style="fill: #5a5758; stroke: #5a5758; stroke-width: 0.6"/>
      </g>
     </g>
    </g>
    <g id="ytick_24">
     <g id="line2d_29">
      <g>
       <use xlink:href="#mc2304d05f7" x="66.010065" y="132.863851" style="fill: #5a5758; stroke: #5a5758; stroke-width: 0.6"/>
      </g>
     </g>
    </g>
    <g id="ytick_25">
     <g id="line2d_30">
      <g>
       <use xlink:href="#mc2304d05f7" x="66.010065" y="127.269381" style="fill: #5a5758; stroke: #5a5758; stroke-width: 0.6"/>
      </g>
     </g>
    </g>
    <g id="ytick_26">
     <g id="line2d_31">
      <g>
       <use xlink:href="#mc2304d05f7" x="66.010065" y="89.341786" style="fill: #5a5758; stroke: #5a5758; stroke-width: 0.6"/>
      </g>
     </g>
    </g>
    <g id="ytick_27">
     <g id="line2d_32">
      <g>
       <use xlink:href="#mc2304d05f7" x="66.010065" y="70.082965" style="fill: #5a5758; stroke: #5a5758; stroke-width: 0.6"/>
      </g>
     </g>
    </g>
    <g id="ytick_28">
     <g id="line2d_33">
      <g>
       <use xlink:href="#mc2304d05f7" x="66.010065" y="56.418614" style="fill: #5a5758; stroke: #5a5758; stroke-width: 0.6"/>
      </g>
     </g>
    </g>
    <g id="ytick_29">
     <g id="line2d_34">
      <g>
       <use xlink:href="#mc2304d05f7" x="66.010065" y="45.81972" style="fill: #5a5758; stroke: #5a5758; stroke-width: 0.6"/>
      </g>
     </g>
    </g>
    <g id="ytick_30">
     <g id="line2d_35">
      <g>
       <use xlink:href="#mc2304d05f7" x="66.010065" y="37.159793" style="fill: #5a5758; stroke: #5a5758; stroke-width: 0.6"/>
      </g>
     </g>
    </g>
    <g id="ytick_31">
     <g id="line2d_36">
      <g>
       <use xlink:href="#mc2304d05f7" x="66.010065" y="29.837929" style="fill: #5a5758; stroke: #5a5758; stroke-width: 0.6"/>
      </g>
     </g>
    </g>
    <g id="ytick_32">
     <g id="line2d_37">
      <g>
       <use xlink:href="#mc2304d05f7" x="66.010065" y="23.495443" style="fill: #5a5758; stroke: #5a5758; stroke-width: 0.6"/>
      </g>
     </g>
    </g>
    <g id="ytick_33">
     <g id="line2d_38">
      <g>
       <use xlink:href="#mc2304d05f7" x="66.010065" y="17.900973" style="fill: #5a5758; stroke: #5a5758; stroke-width: 0.6"/>
      </g>
     </g>
    </g>
    <g id="text_11">
     <!-- Residual norm -->
     <g style="fill: #5a5758" transform="translate(20.877188 266.605781) rotate(-90) scale(0.18 -0.18)">
      <defs>
       <path id="DejaVuSans-Bold-52" d="M 2297 2597 
Q 2675 2597 2839 2737 
Q 3003 2878 3003 3200 
Q 3003 3519 2839 3656 
Q 2675 3794 2297 3794 
L 1791 3794 
L 1791 2597 
L 2297 2597 
z
M 1791 1766 
L 1791 0 
L 588 0 
L 588 4666 
L 2425 4666 
Q 3347 4666 3776 4356 
Q 4206 4047 4206 3378 
Q 4206 2916 3982 2619 
Q 3759 2322 3309 2181 
Q 3556 2125 3751 1926 
Q 3947 1728 4147 1325 
L 4800 0 
L 3519 0 
L 2950 1159 
Q 2778 1509 2601 1637 
Q 2425 1766 2131 1766 
L 1791 1766 
z
" transform="scale(0.015625)"/>
       <path id="DejaVuSans-Bold-64" d="M 2919 2988 
L 2919 4863 
L 4044 4863 
L 4044 0 
L 2919 0 
L 2919 506 
Q 2688 197 2409 53 
Q 2131 -91 1766 -91 
Q 1119 -91 703 423 
Q 288 938 288 1747 
Q 288 2556 703 3070 
Q 1119 3584 1766 3584 
Q 2128 3584 2408 3439 
Q 2688 3294 2919 2988 
z
M 2181 722 
Q 2541 722 2730 984 
Q 2919 1247 2919 1747 
Q 2919 2247 2730 2509 
Q 2541 2772 2181 2772 
Q 1825 2772 1636 2509 
Q 1447 2247 1447 1747 
Q 1447 1247 1636 984 
Q 1825 722 2181 722 
z
" transform="scale(0.015625)"/>
       <path id="DejaVuSans-Bold-75" d="M 500 1363 
L 500 3500 
L 1625 3500 
L 1625 3150 
Q 1625 2866 1622 2436 
Q 1619 2006 1619 1863 
Q 1619 1441 1641 1255 
Q 1663 1069 1716 984 
Q 1784 875 1895 815 
Q 2006 756 2150 756 
Q 2500 756 2700 1025 
Q 2900 1294 2900 1772 
L 2900 3500 
L 4019 3500 
L 4019 0 
L 2900 0 
L 2900 506 
Q 2647 200 2364 54 
Q 2081 -91 1741 -91 
Q 1134 -91 817 281 
Q 500 653 500 1363 
z
" transform="scale(0.015625)"/>
       <path id="DejaVuSans-Bold-6c" d="M 538 4863 
L 1656 4863 
L 1656 0 
L 538 0 
L 538 4863 
z
" transform="scale(0.015625)"/>
       <path id="DejaVuSans-Bold-20" transform="scale(0.015625)"/>
       <path id="DejaVuSans-Bold-6d" d="M 3781 2919 
Q 3994 3244 4286 3414 
Q 4578 3584 4928 3584 
Q 5531 3584 5847 3212 
Q 6163 2841 6163 2131 
L 6163 0 
L 5038 0 
L 5038 1825 
Q 5041 1866 5042 1909 
Q 5044 1953 5044 2034 
Q 5044 2406 4934 2573 
Q 4825 2741 4581 2741 
Q 4263 2741 4089 2478 
Q 3916 2216 3909 1719 
L 3909 0 
L 2784 0 
L 2784 1825 
Q 2784 2406 2684 2573 
Q 2584 2741 2328 2741 
Q 2006 2741 1831 2477 
Q 1656 2213 1656 1722 
L 1656 0 
L 531 0 
L 531 3500 
L 1656 3500 
L 1656 2988 
Q 1863 3284 2130 3434 
Q 2397 3584 2719 3584 
Q 3081 3584 3359 3409 
Q 3638 3234 3781 2919 
z
" transform="scale(0.015625)"/>
      </defs>
      <use xlink:href="#DejaVuSans-Bold-52"/>
      <use xlink:href="#DejaVuSans-Bold-65" x="77.001953"/>
      <use xlink:href="#DejaVuSans-Bold-73" x="144.824219"/>
      <use xlink:href="#DejaVuSans-Bold-69" x="204.345703"/>
      <use xlink:href="#DejaVuSans-Bold-64" x="238.623047"/>
      <use xlink:href="#DejaVuSans-Bold-75" x="310.205078"/>
      <use xlink:href="#DejaVuSans-Bold-61" x="381.396484"/>
      <use xlink:href="#DejaVuSans-Bold-6c" x="448.876953"/>
      <use xlink:href="#DejaVuSans-Bold-20" x="483.154297"/>
      <use xlink:href="#DejaVuSans-Bold-6e" x="517.96875"/>
      <use xlink:href="#DejaVuSans-Bold-6f" x="589.160156"/>
      <use xlink:href="#DejaVuSans-Bold-72" x="657.861328"/>
      <use xlink:href="#DejaVuSans-Bold-6d" x="707.177734"/>
     </g>
    </g>
   </g>
   <g id="line2d_39">
    <path d="M 78.010065 373.924947 
L 444.590072 373.924947 
" style="fill: none; stroke-dasharray: 7.4,3.2; stroke-dashoffset: 0; stroke: #808080; stroke-opacity: 0.7; stroke-width: 2"/>
   </g>
   <g id="line2d_40">
    <path d="M 78.010065 44.615858 
L 78.230057 105.158099 
L 78.59671 135.436534 
L 79.036694 154.033273 
L 79.62334 169.439161 
L 80.283316 181.267614 
L 81.089953 191.798522 
L 81.969921 200.529932 
L 82.99655 208.535638 
L 84.09651 215.442789 
L 85.343132 221.876049 
L 86.663084 227.563611 
L 88.129697 232.911859 
L 89.669641 237.716511 
L 91.356247 242.263756 
L 93.189513 246.557396 
L 95.096111 250.462809 
L 97.149369 254.161618 
L 99.275959 257.543787 
L 101.549209 260.741105 
L 103.895791 263.662579 
L 106.389033 266.412096 
L 109.028937 268.984238 
L 111.815503 271.387955 
L 114.895391 273.734251 
L 118.195271 275.956887 
L 121.935135 278.188523 
L 125.968322 280.328741 
L 130.881476 282.66145 
L 135.867962 284.801189 
L 141.881077 287.164605 
L 148.407506 289.544172 
L 157.207186 292.541308 
L 169.306746 296.389541 
L 181.039653 299.936177 
L 193.579197 303.58539 
L 216.751688 310.091374 
L 247.477238 318.332116 
L 294.995511 330.34773 
L 313.914823 334.836898 
L 359.453167 344.991053 
L 380.865722 349.385892 
L 386.365522 350.471117 
L 395.678517 352.249086 
L 425.964083 357.711736 
L 444.150088 360.741181 
L 444.590073 360.808833 
L 444.590073 360.808833 
" style="fill: none; stroke: #e29400; stroke-width: 2; stroke-linecap: square"/>
   </g>
   <g id="line2d_41">
    <path d="M 78.010065 44.615858 
L 78.303388 137.780274 
L 78.670041 171.082911 
L 79.110025 190.826062 
L 79.69667 206.900923 
L 80.356646 219.063879 
L 81.163284 229.741376 
L 82.043252 238.466193 
L 82.99655 245.842595 
L 84.09651 252.631975 
L 85.269801 258.507585 
L 86.516422 263.673153 
L 87.909705 268.498052 
L 89.376318 272.770741 
L 90.916263 276.576372 
L 92.529537 279.979571 
L 94.216143 283.035633 
L 96.049409 285.903224 
L 98.029337 288.592028 
L 100.229257 291.207245 
L 102.7225 293.826856 
L 105.655727 296.581034 
L 109.175599 299.572481 
L 113.502108 302.949324 
L 119.001908 306.950426 
L 126.334975 311.995316 
L 136.894591 318.967039 
L 155.520581 330.956918 
L 222.838134 373.958865 
L 222.838134 373.958865 
" style="fill: none; stroke: #414487; stroke-width: 2; stroke-linecap: square"/>
   </g>
   <g id="line2d_42">
    <path d="M 78.010065 44.615858 
L 78.230057 94.475688 
L 78.670041 183.481388 
L 78.963364 207.430352 
L 79.403348 224.657918 
L 79.989993 238.738903 
L 80.649969 249.56548 
L 81.456606 259.103628 
L 82.336574 266.851733 
L 83.289873 273.306716 
L 84.316502 278.760015 
L 85.416462 283.415424 
L 86.589753 287.44448 
L 87.909705 291.194491 
L 89.449649 294.887751 
L 91.282916 298.692631 
L 93.556167 302.886791 
L 96.562724 307.940263 
L 100.742572 314.494695 
L 107.855647 325.172809 
L 140.707786 374.016784 
L 140.707786 374.016784 
" style="fill: none; stroke: #32648e; stroke-width: 2; stroke-linecap: square"/>
   </g>
   <g id="line2d_43">
    <path d="M 78.010065 44.615858 
L 78.083396 46.046205 
L 79.256686 216.158307 
L 79.62334 240.771849 
L 79.989993 252.296676 
L 80.576638 263.080809 
L 81.309945 272.220633 
L 82.116582 279.465631 
L 82.99655 285.381274 
L 83.949849 290.35976 
L 85.12314 295.27521 
L 86.516422 300.132599 
L 88.349689 305.673111 
L 90.842932 312.452479 
L 95.169441 323.468731 
L 109.762244 360.404985 
L 115.115383 374.103213 
L 115.115383 374.103213 
" style="fill: none; stroke: #26828e; stroke-width: 2; stroke-linecap: square"/>
   </g>
   <g id="line2d_44">
    <path d="M 78.010065 44.615858 
L 78.083396 37.218506 
L 81.236614 256.363272 
L 81.82326 282.951145 
L 82.263244 294.157925 
L 82.703228 300.451409 
L 83.289873 305.620637 
L 84.243172 311.732359 
L 86.003108 321.312313 
L 89.59631 340.826651 
L 94.436135 368.699047 
L 95.389433 374.267514 
L 95.389433 374.267514 
" style="fill: none; stroke: #1f9f88; stroke-width: 2; stroke-linecap: square"/>
   </g>
   <g id="line2d_45">
    <path d="M 78.010065 44.615858 
L 78.083396 35.196687 
L 78.156726 39.043142 
L 82.703228 271.858917 
L 83.436534 298.856801 
L 84.02318 312.57875 
L 84.536494 319.960524 
L 85.343132 328.057419 
L 87.249729 342.2825 
L 90.842932 371.160506 
L 91.209585 374.154166 
L 91.209585 374.154166 
" style="fill: none; stroke: #3bbb75; stroke-width: 2; stroke-linecap: square"/>
   </g>
   <g id="line2d_46">
    <path d="M 78.010065 44.615858 
L 78.156726 22.848444 
L 85.19647 22.848444 
L 85.343132 44.615858 
L 85.489793 22.848444 
L 92.529537 22.848444 
L 92.676199 44.615858 
L 92.82286 22.848444 
L 99.862604 22.848444 
L 100.009265 44.615858 
L 100.155927 22.848444 
L 107.195671 22.848444 
L 107.342332 44.615858 
L 107.488993 22.848444 
L 114.528737 22.848444 
L 114.675399 44.615858 
L 114.82206 22.848444 
L 121.861804 22.848444 
L 122.008466 44.615858 
L 122.155127 22.848444 
L 129.194871 22.848444 
L 129.341532 44.615858 
L 129.488194 22.848444 
L 136.527938 22.848444 
L 136.674599 44.615858 
L 136.82126 22.848444 
L 143.861005 22.848444 
L 144.007666 44.615858 
L 144.154327 22.848444 
L 151.194071 22.848444 
L 151.340733 44.615858 
L 151.487394 22.848444 
L 158.527138 22.848444 
L 158.673799 44.615858 
L 158.820461 22.848444 
L 165.860205 22.848444 
L 166.006866 44.615858 
L 166.153527 22.848444 
L 173.193272 22.848444 
L 173.339933 44.615858 
L 173.486594 22.848444 
L 180.526338 22.848444 
L 180.673 44.615858 
L 180.819661 22.848444 
L 187.859405 22.848444 
L 188.006066 44.615858 
L 188.152728 22.848444 
L 195.192472 22.848444 
L 195.339133 44.615858 
L 195.485795 22.848444 
L 202.525539 22.848444 
L 202.6722 44.615858 
L 202.818861 22.848444 
L 209.858605 22.848444 
L 210.005267 44.615858 
L 210.151928 22.848444 
L 217.191672 22.848444 
L 217.338334 44.615858 
L 217.484995 22.848444 
L 224.524739 22.848444 
L 224.6714 44.615858 
L 224.818062 22.848444 
L 231.857806 22.848444 
L 232.004467 44.615858 
L 232.151128 22.848444 
L 239.190872 22.848444 
L 239.337534 44.615858 
L 239.484195 22.848444 
L 246.523939 22.848444 
L 246.670601 44.615858 
L 246.817262 22.848444 
L 253.857006 22.848444 
L 254.003667 44.615858 
L 254.150329 22.848444 
L 261.190073 22.848444 
L 261.336734 44.615858 
L 261.483395 22.848444 
L 268.52314 22.848444 
L 268.669801 44.615858 
L 268.816462 22.848444 
L 275.856206 22.848444 
L 276.002868 44.615858 
L 276.149529 22.848444 
L 283.189273 22.848444 
L 283.335934 44.615858 
L 283.482596 22.848444 
L 290.52234 22.848444 
L 290.669001 44.615858 
L 290.815662 22.848444 
L 297.855407 22.848444 
L 298.002068 44.615858 
L 298.148729 22.848444 
L 305.188473 22.848444 
L 305.335135 44.615858 
L 305.481796 22.848444 
L 312.52154 22.848444 
L 312.668201 44.615858 
L 312.814863 22.848444 
L 319.854607 22.848444 
L 320.001268 44.615858 
L 320.14793 22.848444 
L 327.187674 22.848444 
L 327.334335 44.615858 
L 327.480996 22.848444 
L 334.52074 22.848444 
L 334.667402 44.615858 
L 334.814063 22.848444 
L 341.853807 22.848444 
L 342.000468 44.615858 
L 342.14713 22.848444 
L 349.186874 22.848444 
L 349.333535 44.615858 
L 349.480197 22.848444 
L 356.519941 22.848444 
L 356.666602 44.615858 
L 356.813263 22.848444 
L 363.853007 22.848444 
L 363.999669 44.615858 
L 364.14633 22.848444 
L 371.186074 22.848444 
L 371.332736 44.615858 
L 371.479397 22.848444 
L 378.519141 22.848444 
L 378.665802 44.615858 
L 378.812464 22.848444 
L 385.852208 22.848444 
L 385.998869 44.615858 
L 386.14553 22.848444 
L 393.185274 22.848444 
L 393.331936 44.615858 
L 393.478597 22.848444 
L 400.518341 22.848444 
L 400.665003 44.615858 
L 400.811664 22.848444 
L 407.851408 22.848444 
L 407.998069 44.615858 
L 408.144731 22.848444 
L 415.184475 22.848444 
L 415.331136 44.615858 
L 415.477797 22.848444 
L 422.517542 22.848444 
L 422.664203 44.615858 
L 422.810864 22.848444 
L 429.850608 22.848444 
L 429.99727 44.615858 
L 430.143931 22.848444 
L 437.183675 22.848444 
L 437.330336 44.615858 
L 437.476998 22.848444 
L 444.516742 22.848444 
L 444.590073 34.062617 
L 444.590073 34.062617 
" style="fill: none; stroke: #7ad151; stroke-width: 2; stroke-linecap: square"/>
   </g>
   <g id="patch_3">
    <path d="M 66.010065 374.267514 
L 66.010065 12.896549 
" style="fill: none; stroke: #5a5758; stroke-width: 0.8; stroke-linejoin: miter; stroke-linecap: square"/>
   </g>
   <g id="patch_4">
    <path d="M 78.010065 386.267514 
L 444.590073 386.267514 
" style="fill: none; stroke: #5a5758; stroke-width: 0.8; stroke-linejoin: miter; stroke-linecap: square"/>
   </g>
   <g id="legend_1">
    <g id="line2d_47">
     <path d="M 259.370072 112.987031 
L 277.370072 112.987031 
L 295.370072 112.987031 
" style="fill: none; stroke: #e29400; stroke-width: 2; stroke-linecap: square"/>
    </g>
    <g id="text_12">
     <!-- Jacobi -->
     <g style="fill: #e29400" transform="translate(309.770072 119.287031) scale(0.18 -0.18)">
      <defs>
       <path id="DejaVuSans-4a" d="M 628 4666 
L 1259 4666 
L 1259 325 
Q 1259 -519 939 -900 
Q 619 -1281 -91 -1281 
L -331 -1281 
L -331 -750 
L -134 -750 
Q 284 -750 456 -515 
Q 628 -281 628 325 
L 628 4666 
z
" transform="scale(0.015625)"/>
       <path id="DejaVuSans-61" d="M 2194 1759 
Q 1497 1759 1228 1600 
Q 959 1441 959 1056 
Q 959 750 1161 570 
Q 1363 391 1709 391 
Q 2188 391 2477 730 
Q 2766 1069 2766 1631 
L 2766 1759 
L 2194 1759 
z
M 3341 1997 
L 3341 0 
L 2766 0 
L 2766 531 
Q 2569 213 2275 61 
Q 1981 -91 1556 -91 
Q 1019 -91 701 211 
Q 384 513 384 1019 
Q 384 1609 779 1909 
Q 1175 2209 1959 2209 
L 2766 2209 
L 2766 2266 
Q 2766 2663 2505 2880 
Q 2244 3097 1772 3097 
Q 1472 3097 1187 3025 
Q 903 2953 641 2809 
L 641 3341 
Q 956 3463 1253 3523 
Q 1550 3584 1831 3584 
Q 2591 3584 2966 3190 
Q 3341 2797 3341 1997 
z
" transform="scale(0.015625)"/>
       <path id="DejaVuSans-63" d="M 3122 3366 
L 3122 2828 
Q 2878 2963 2633 3030 
Q 2388 3097 2138 3097 
Q 1578 3097 1268 2742 
Q 959 2388 959 1747 
Q 959 1106 1268 751 
Q 1578 397 2138 397 
Q 2388 397 2633 464 
Q 2878 531 3122 666 
L 3122 134 
Q 2881 22 2623 -34 
Q 2366 -91 2075 -91 
Q 1284 -91 818 406 
Q 353 903 353 1747 
Q 353 2603 823 3093 
Q 1294 3584 2113 3584 
Q 2378 3584 2631 3529 
Q 2884 3475 3122 3366 
z
" transform="scale(0.015625)"/>
       <path id="DejaVuSans-6f" d="M 1959 3097 
Q 1497 3097 1228 2736 
Q 959 2375 959 1747 
Q 959 1119 1226 758 
Q 1494 397 1959 397 
Q 2419 397 2687 759 
Q 2956 1122 2956 1747 
Q 2956 2369 2687 2733 
Q 2419 3097 1959 3097 
z
M 1959 3584 
Q 2709 3584 3137 3096 
Q 3566 2609 3566 1747 
Q 3566 888 3137 398 
Q 2709 -91 1959 -91 
Q 1206 -91 779 398 
Q 353 888 353 1747 
Q 353 2609 779 3096 
Q 1206 3584 1959 3584 
z
" transform="scale(0.015625)"/>
       <path id="DejaVuSans-62" d="M 3116 1747 
Q 3116 2381 2855 2742 
Q 2594 3103 2138 3103 
Q 1681 3103 1420 2742 
Q 1159 2381 1159 1747 
Q 1159 1113 1420 752 
Q 1681 391 2138 391 
Q 2594 391 2855 752 
Q 3116 1113 3116 1747 
z
M 1159 2969 
Q 1341 3281 1617 3432 
Q 1894 3584 2278 3584 
Q 2916 3584 3314 3078 
Q 3713 2572 3713 1747 
Q 3713 922 3314 415 
Q 2916 -91 2278 -91 
Q 1894 -91 1617 61 
Q 1341 213 1159 525 
L 1159 0 
L 581 0 
L 581 4863 
L 1159 4863 
L 1159 2969 
z
" transform="scale(0.015625)"/>
       <path id="DejaVuSans-69" d="M 603 3500 
L 1178 3500 
L 1178 0 
L 603 0 
L 603 3500 
z
M 603 4863 
L 1178 4863 
L 1178 4134 
L 603 4134 
L 603 4863 
z
" transform="scale(0.015625)"/>
      </defs>
      <use xlink:href="#DejaVuSans-4a"/>
      <use xlink:href="#DejaVuSans-61" x="29.492188"/>
      <use xlink:href="#DejaVuSans-63" x="90.771484"/>
      <use xlink:href="#DejaVuSans-6f" x="145.751953"/>
      <use xlink:href="#DejaVuSans-62" x="206.933594"/>
      <use xlink:href="#DejaVuSans-69" x="270.410156"/>
     </g>
    </g>
    <g id="line2d_48">
     <path d="M 259.370072 139.407656 
L 277.370072 139.407656 
L 295.370072 139.407656 
" style="fill: none; stroke: #414487; stroke-width: 2; stroke-linecap: square"/>
    </g>
    <g id="text_13">
     <!-- GS, $\omega$ = 1.00 -->
     <g style="fill: #5a5758" transform="translate(309.770072 145.707656) scale(0.18 -0.18)">
      <defs>
       <path id="DejaVuSans-47" d="M 3809 666 
L 3809 1919 
L 2778 1919 
L 2778 2438 
L 4434 2438 
L 4434 434 
Q 4069 175 3628 42 
Q 3188 -91 2688 -91 
Q 1594 -91 976 548 
Q 359 1188 359 2328 
Q 359 3472 976 4111 
Q 1594 4750 2688 4750 
Q 3144 4750 3555 4637 
Q 3966 4525 4313 4306 
L 4313 3634 
Q 3963 3931 3569 4081 
Q 3175 4231 2741 4231 
Q 1884 4231 1454 3753 
Q 1025 3275 1025 2328 
Q 1025 1384 1454 906 
Q 1884 428 2741 428 
Q 3075 428 3337 486 
Q 3600 544 3809 666 
z
" transform="scale(0.015625)"/>
       <path id="DejaVuSans-53" d="M 3425 4513 
L 3425 3897 
Q 3066 4069 2747 4153 
Q 2428 4238 2131 4238 
Q 1616 4238 1336 4038 
Q 1056 3838 1056 3469 
Q 1056 3159 1242 3001 
Q 1428 2844 1947 2747 
L 2328 2669 
Q 3034 2534 3370 2195 
Q 3706 1856 3706 1288 
Q 3706 609 3251 259 
Q 2797 -91 1919 -91 
Q 1588 -91 1214 -16 
Q 841 59 441 206 
L 441 856 
Q 825 641 1194 531 
Q 1563 422 1919 422 
Q 2459 422 2753 634 
Q 3047 847 3047 1241 
Q 3047 1584 2836 1778 
Q 2625 1972 2144 2069 
L 1759 2144 
Q 1053 2284 737 2584 
Q 422 2884 422 3419 
Q 422 4038 858 4394 
Q 1294 4750 2059 4750 
Q 2388 4750 2728 4690 
Q 3069 4631 3425 4513 
z
" transform="scale(0.015625)"/>
       <path id="DejaVuSans-2c" d="M 750 794 
L 1409 794 
L 1409 256 
L 897 -744 
L 494 -744 
L 750 256 
L 750 794 
z
" transform="scale(0.015625)"/>
       <path id="DejaVuSans-20" transform="scale(0.015625)"/>
       <path id="DejaVuSans-3c9" d="M 1719 -91 
Q 422 -91 422 1766 
Q 422 2500 906 3500 
L 1525 3500 
Q 1078 2500 1078 1750 
Q 1078 397 1772 397 
Q 2406 397 2406 2078 
L 2938 2078 
Q 2938 397 3572 397 
Q 4266 397 4266 1750 
Q 4266 2500 3819 3500 
L 4438 3500 
Q 4922 2500 4922 1766 
Q 4922 -91 3625 -91 
Q 2775 -91 2672 844 
Q 2544 -91 1719 -91 
z
" transform="scale(0.015625)"/>
       <path id="DejaVuSans-3d" d="M 678 2906 
L 4684 2906 
L 4684 2381 
L 678 2381 
L 678 2906 
z
M 678 1631 
L 4684 1631 
L 4684 1100 
L 678 1100 
L 678 1631 
z
" transform="scale(0.015625)"/>
       <path id="DejaVuSans-2e" d="M 684 794 
L 1344 794 
L 1344 0 
L 684 0 
L 684 794 
z
" transform="scale(0.015625)"/>
      </defs>
      <use xlink:href="#DejaVuSans-47" transform="translate(0 0.78125)"/>
      <use xlink:href="#DejaVuSans-53" transform="translate(77.490234 0.78125)"/>
      <use xlink:href="#DejaVuSans-2c" transform="translate(140.966797 0.78125)"/>
      <use xlink:href="#DejaVuSans-20" transform="translate(172.753906 0.78125)"/>
      <use xlink:href="#DejaVuSans-3c9" transform="translate(204.541016 0.78125)"/>
      <use xlink:href="#DejaVuSans-20" transform="translate(288.28125 0.78125)"/>
      <use xlink:href="#DejaVuSans-3d" transform="translate(320.068359 0.78125)"/>
      <use xlink:href="#DejaVuSans-20" transform="translate(403.857422 0.78125)"/>
      <use xlink:href="#DejaVuSans-31" transform="translate(435.644531 0.78125)"/>
      <use xlink:href="#DejaVuSans-2e" transform="translate(499.267578 0.78125)"/>
      <use xlink:href="#DejaVuSans-30" transform="translate(531.054688 0.78125)"/>
      <use xlink:href="#DejaVuSans-30" transform="translate(594.677734 0.78125)"/>
     </g>
    </g>
    <g id="line2d_49">
     <path d="M 259.370072 165.828281 
L 277.370072 165.828281 
L 295.370072 165.828281 
" style="fill: none; stroke: #32648e; stroke-width: 2; stroke-linecap: square"/>
    </g>
    <g id="text_14">
     <!-- GS, $\omega$ = 1.40 -->
     <g style="fill: #5a5758" transform="translate(309.770072 172.128281) scale(0.18 -0.18)">
      <use xlink:href="#DejaVuSans-47" transform="translate(0 0.78125)"/>
      <use xlink:href="#DejaVuSans-53" transform="translate(77.490234 0.78125)"/>
      <use xlink:href="#DejaVuSans-2c" transform="translate(140.966797 0.78125)"/>
      <use xlink:href="#DejaVuSans-20" transform="translate(172.753906 0.78125)"/>
      <use xlink:href="#DejaVuSans-3c9" transform="translate(204.541016 0.78125)"/>
      <use xlink:href="#DejaVuSans-20" transform="translate(288.28125 0.78125)"/>
      <use xlink:href="#DejaVuSans-3d" transform="translate(320.068359 0.78125)"/>
      <use xlink:href="#DejaVuSans-20" transform="translate(403.857422 0.78125)"/>
      <use xlink:href="#DejaVuSans-31" transform="translate(435.644531 0.78125)"/>
      <use xlink:href="#DejaVuSans-2e" transform="translate(499.267578 0.78125)"/>
      <use xlink:href="#DejaVuSans-34" transform="translate(531.054688 0.78125)"/>
      <use xlink:href="#DejaVuSans-30" transform="translate(594.677734 0.78125)"/>
     </g>
    </g>
    <g id="line2d_50">
     <path d="M 259.370072 192.248906 
L 277.370072 192.248906 
L 295.370072 192.248906 
" style="fill: none; stroke: #26828e; stroke-width: 2; stroke-linecap: square"/>
    </g>
    <g id="text_15">
     <!-- GS, $\omega$ = 1.60 -->
     <g style="fill: #5a5758" transform="translate(309.770072 198.548906) scale(0.18 -0.18)">
      <defs>
       <path id="DejaVuSans-36" d="M 2113 2584 
Q 1688 2584 1439 2293 
Q 1191 2003 1191 1497 
Q 1191 994 1439 701 
Q 1688 409 2113 409 
Q 2538 409 2786 701 
Q 3034 994 3034 1497 
Q 3034 2003 2786 2293 
Q 2538 2584 2113 2584 
z
M 3366 4563 
L 3366 3988 
Q 3128 4100 2886 4159 
Q 2644 4219 2406 4219 
Q 1781 4219 1451 3797 
Q 1122 3375 1075 2522 
Q 1259 2794 1537 2939 
Q 1816 3084 2150 3084 
Q 2853 3084 3261 2657 
Q 3669 2231 3669 1497 
Q 3669 778 3244 343 
Q 2819 -91 2113 -91 
Q 1303 -91 875 529 
Q 447 1150 447 2328 
Q 447 3434 972 4092 
Q 1497 4750 2381 4750 
Q 2619 4750 2861 4703 
Q 3103 4656 3366 4563 
z
" transform="scale(0.015625)"/>
      </defs>
      <use xlink:href="#DejaVuSans-47" transform="translate(0 0.78125)"/>
      <use xlink:href="#DejaVuSans-53" transform="translate(77.490234 0.78125)"/>
      <use xlink:href="#DejaVuSans-2c" transform="translate(140.966797 0.78125)"/>
      <use xlink:href="#DejaVuSans-20" transform="translate(172.753906 0.78125)"/>
      <use xlink:href="#DejaVuSans-3c9" transform="translate(204.541016 0.78125)"/>
      <use xlink:href="#DejaVuSans-20" transform="translate(288.28125 0.78125)"/>
      <use xlink:href="#DejaVuSans-3d" transform="translate(320.068359 0.78125)"/>
      <use xlink:href="#DejaVuSans-20" transform="translate(403.857422 0.78125)"/>
      <use xlink:href="#DejaVuSans-31" transform="translate(435.644531 0.78125)"/>
      <use xlink:href="#DejaVuSans-2e" transform="translate(499.267578 0.78125)"/>
      <use xlink:href="#DejaVuSans-36" transform="translate(531.054688 0.78125)"/>
      <use xlink:href="#DejaVuSans-30" transform="translate(594.677734 0.78125)"/>
     </g>
    </g>
    <g id="line2d_51">
     <path d="M 259.370072 218.669531 
L 277.370072 218.669531 
L 295.370072 218.669531 
" style="fill: none; stroke: #1f9f88; stroke-width: 2; stroke-linecap: square"/>
    </g>
    <g id="text_16">
     <!-- GS, $\omega$ = 1.80 -->
     <g style="fill: #5a5758" transform="translate(309.770072 224.969531) scale(0.18 -0.18)">
      <defs>
       <path id="DejaVuSans-38" d="M 2034 2216 
Q 1584 2216 1326 1975 
Q 1069 1734 1069 1313 
Q 1069 891 1326 650 
Q 1584 409 2034 409 
Q 2484 409 2743 651 
Q 3003 894 3003 1313 
Q 3003 1734 2745 1975 
Q 2488 2216 2034 2216 
z
M 1403 2484 
Q 997 2584 770 2862 
Q 544 3141 544 3541 
Q 544 4100 942 4425 
Q 1341 4750 2034 4750 
Q 2731 4750 3128 4425 
Q 3525 4100 3525 3541 
Q 3525 3141 3298 2862 
Q 3072 2584 2669 2484 
Q 3125 2378 3379 2068 
Q 3634 1759 3634 1313 
Q 3634 634 3220 271 
Q 2806 -91 2034 -91 
Q 1263 -91 848 271 
Q 434 634 434 1313 
Q 434 1759 690 2068 
Q 947 2378 1403 2484 
z
M 1172 3481 
Q 1172 3119 1398 2916 
Q 1625 2713 2034 2713 
Q 2441 2713 2670 2916 
Q 2900 3119 2900 3481 
Q 2900 3844 2670 4047 
Q 2441 4250 2034 4250 
Q 1625 4250 1398 4047 
Q 1172 3844 1172 3481 
z
" transform="scale(0.015625)"/>
      </defs>
      <use xlink:href="#DejaVuSans-47" transform="translate(0 0.78125)"/>
      <use xlink:href="#DejaVuSans-53" transform="translate(77.490234 0.78125)"/>
      <use xlink:href="#DejaVuSans-2c" transform="translate(140.966797 0.78125)"/>
      <use xlink:href="#DejaVuSans-20" transform="translate(172.753906 0.78125)"/>
      <use xlink:href="#DejaVuSans-3c9" transform="translate(204.541016 0.78125)"/>
      <use xlink:href="#DejaVuSans-20" transform="translate(288.28125 0.78125)"/>
      <use xlink:href="#DejaVuSans-3d" transform="translate(320.068359 0.78125)"/>
      <use xlink:href="#DejaVuSans-20" transform="translate(403.857422 0.78125)"/>
      <use xlink:href="#DejaVuSans-31" transform="translate(435.644531 0.78125)"/>
      <use xlink:href="#DejaVuSans-2e" transform="translate(499.267578 0.78125)"/>
      <use xlink:href="#DejaVuSans-38" transform="translate(528.429688 0.78125)"/>
      <use xlink:href="#DejaVuSans-30" transform="translate(592.052734 0.78125)"/>
     </g>
    </g>
    <g id="line2d_52">
     <path d="M 259.370072 245.090156 
L 277.370072 245.090156 
L 295.370072 245.090156 
" style="fill: none; stroke: #3bbb75; stroke-width: 2; stroke-linecap: square"/>
    </g>
    <g id="text_17">
     <!-- GS, $\omega$ = 1.85 -->
     <g style="fill: #5a5758" transform="translate(309.770072 251.390156) scale(0.18 -0.18)">
      <defs>
       <path id="DejaVuSans-35" d="M 691 4666 
L 3169 4666 
L 3169 4134 
L 1269 4134 
L 1269 2991 
Q 1406 3038 1543 3061 
Q 1681 3084 1819 3084 
Q 2600 3084 3056 2656 
Q 3513 2228 3513 1497 
Q 3513 744 3044 326 
Q 2575 -91 1722 -91 
Q 1428 -91 1123 -41 
Q 819 9 494 109 
L 494 744 
Q 775 591 1075 516 
Q 1375 441 1709 441 
Q 2250 441 2565 725 
Q 2881 1009 2881 1497 
Q 2881 1984 2565 2268 
Q 2250 2553 1709 2553 
Q 1456 2553 1204 2497 
Q 953 2441 691 2322 
L 691 4666 
z
" transform="scale(0.015625)"/>
      </defs>
      <use xlink:href="#DejaVuSans-47" transform="translate(0 0.78125)"/>
      <use xlink:href="#DejaVuSans-53" transform="translate(77.490234 0.78125)"/>
      <use xlink:href="#DejaVuSans-2c" transform="translate(140.966797 0.78125)"/>
      <use xlink:href="#DejaVuSans-20" transform="translate(172.753906 0.78125)"/>
      <use xlink:href="#DejaVuSans-3c9" transform="translate(204.541016 0.78125)"/>
      <use xlink:href="#DejaVuSans-20" transform="translate(288.28125 0.78125)"/>
      <use xlink:href="#DejaVuSans-3d" transform="translate(320.068359 0.78125)"/>
      <use xlink:href="#DejaVuSans-20" transform="translate(403.857422 0.78125)"/>
      <use xlink:href="#DejaVuSans-31" transform="translate(435.644531 0.78125)"/>
      <use xlink:href="#DejaVuSans-2e" transform="translate(499.267578 0.78125)"/>
      <use xlink:href="#DejaVuSans-38" transform="translate(528.429688 0.78125)"/>
      <use xlink:href="#DejaVuSans-35" transform="translate(592.052734 0.78125)"/>
     </g>
    </g>
    <g id="line2d_53">
     <path d="M 259.370072 271.510781 
L 277.370072 271.510781 
L 295.370072 271.510781 
" style="fill: none; stroke: #7ad151; stroke-width: 2; stroke-linecap: square"/>
    </g>
    <g id="text_18">
     <!-- GS, $\omega$ = 2.00 -->
     <g style="fill: #5a5758" transform="translate(309.770072 277.810781) scale(0.18 -0.18)">
      <use xlink:href="#DejaVuSans-47" transform="translate(0 0.78125)"/>
      <use xlink:href="#DejaVuSans-53" transform="translate(77.490234 0.78125)"/>
      <use xlink:href="#DejaVuSans-2c" transform="translate(140.966797 0.78125)"/>
      <use xlink:href="#DejaVuSans-20" transform="translate(172.753906 0.78125)"/>
      <use xlink:href="#DejaVuSans-3c9" transform="translate(204.541016 0.78125)"/>
      <use xlink:href="#DejaVuSans-20" transform="translate(288.28125 0.78125)"/>
      <use xlink:href="#DejaVuSans-3d" transform="translate(320.068359 0.78125)"/>
      <use xlink:href="#DejaVuSans-20" transform="translate(403.857422 0.78125)"/>
      <use xlink:href="#DejaVuSans-32" transform="translate(435.644531 0.78125)"/>
      <use xlink:href="#DejaVuSans-2e" transform="translate(499.267578 0.78125)"/>
      <use xlink:href="#DejaVuSans-30" transform="translate(531.054688 0.78125)"/>
      <use xlink:href="#DejaVuSans-30" transform="translate(594.677734 0.78125)"/>
     </g>
    </g>
   </g>
  </g>
  <g id="axes_2">
   <g id="patch_5">
    <path d="M 498.619512 374.267514 
L 865.19952 374.267514 
L 865.19952 12.896549 
L 498.619512 12.896549 
z
" style="fill: #ffffff"/>
   </g>
   <g id="matplotlib.axis_3">
    <g id="xtick_6">
     <g id="line2d_54">
      <g>
       <use xlink:href="#m404097eca3" x="567.628004" y="386.267514" style="fill: #5a5758; stroke: #5a5758; stroke-width: 0.8"/>
      </g>
     </g>
     <g id="text_19">
      <!-- 0.5 -->
      <g style="fill: #5a5758" transform="translate(555.705431 404.660612) scale(0.14994 -0.14994)">
       <use xlink:href="#DejaVuSans-30"/>
       <use xlink:href="#DejaVuSans-2e" x="63.623047"/>
       <use xlink:href="#DejaVuSans-35" x="95.410156"/>
      </g>
     </g>
    </g>
    <g id="xtick_7">
     <g id="line2d_55">
      <g>
       <use xlink:href="#m404097eca3" x="636.637878" y="386.267514" style="fill: #5a5758; stroke: #5a5758; stroke-width: 0.8"/>
      </g>
     </g>
     <g id="text_20">
      <!-- 1.0 -->
      <g style="fill: #5a5758" transform="translate(624.715305 404.660612) scale(0.14994 -0.14994)">
       <use xlink:href="#DejaVuSans-31"/>
       <use xlink:href="#DejaVuSans-2e" x="63.623047"/>
       <use xlink:href="#DejaVuSans-30" x="95.410156"/>
      </g>
     </g>
    </g>
    <g id="xtick_8">
     <g id="line2d_56">
      <g>
       <use xlink:href="#m404097eca3" x="705.647752" y="386.267514" style="fill: #5a5758; stroke: #5a5758; stroke-width: 0.8"/>
      </g>
     </g>
     <g id="text_21">
      <!-- 1.5 -->
      <g style="fill: #5a5758" transform="translate(693.725179 404.660612) scale(0.14994 -0.14994)">
       <use xlink:href="#DejaVuSans-31"/>
       <use xlink:href="#DejaVuSans-2e" x="63.623047"/>
       <use xlink:href="#DejaVuSans-35" x="95.410156"/>
      </g>
     </g>
    </g>
    <g id="xtick_9">
     <g id="line2d_57">
      <g>
       <use xlink:href="#m404097eca3" x="774.657625" y="386.267514" style="fill: #5a5758; stroke: #5a5758; stroke-width: 0.8"/>
      </g>
     </g>
     <g id="text_22">
      <!-- 2.0 -->
      <g style="fill: #5a5758" transform="translate(762.735053 404.660612) scale(0.14994 -0.14994)">
       <use xlink:href="#DejaVuSans-32"/>
       <use xlink:href="#DejaVuSans-2e" x="63.623047"/>
       <use xlink:href="#DejaVuSans-30" x="95.410156"/>
      </g>
     </g>
    </g>
    <g id="xtick_10">
     <g id="line2d_58">
      <g>
       <use xlink:href="#m404097eca3" x="843.667499" y="386.267514" style="fill: #5a5758; stroke: #5a5758; stroke-width: 0.8"/>
      </g>
     </g>
     <g id="text_23">
      <!-- 2.5 -->
      <g style="fill: #5a5758" transform="translate(831.744926 404.660612) scale(0.14994 -0.14994)">
       <use xlink:href="#DejaVuSans-32"/>
       <use xlink:href="#DejaVuSans-2e" x="63.623047"/>
       <use xlink:href="#DejaVuSans-35" x="95.410156"/>
      </g>
     </g>
    </g>
    <g id="text_24">
     <!-- Time (s) -->
     <g style="fill: #5a5758" transform="translate(640.48561 429.456083) scale(0.18 -0.18)">
      <defs>
       <path id="DejaVuSans-Bold-54" d="M 31 4666 
L 4331 4666 
L 4331 3756 
L 2784 3756 
L 2784 0 
L 1581 0 
L 1581 3756 
L 31 3756 
L 31 4666 
z
" transform="scale(0.015625)"/>
       <path id="DejaVuSans-Bold-28" d="M 2413 -844 
L 1484 -844 
Q 1006 -72 778 623 
Q 550 1319 550 2003 
Q 550 2688 779 3389 
Q 1009 4091 1484 4856 
L 2413 4856 
Q 2013 4116 1813 3408 
Q 1613 2700 1613 2009 
Q 1613 1319 1811 609 
Q 2009 -100 2413 -844 
z
" transform="scale(0.015625)"/>
       <path id="DejaVuSans-Bold-29" d="M 513 -844 
Q 913 -100 1113 609 
Q 1313 1319 1313 2009 
Q 1313 2700 1113 3408 
Q 913 4116 513 4856 
L 1441 4856 
Q 1916 4091 2145 3389 
Q 2375 2688 2375 2003 
Q 2375 1319 2147 623 
Q 1919 -72 1441 -844 
L 513 -844 
z
" transform="scale(0.015625)"/>
      </defs>
      <use xlink:href="#DejaVuSans-Bold-54"/>
      <use xlink:href="#DejaVuSans-Bold-69" x="68.212891"/>
      <use xlink:href="#DejaVuSans-Bold-6d" x="102.490234"/>
      <use xlink:href="#DejaVuSans-Bold-65" x="206.689453"/>
      <use xlink:href="#DejaVuSans-Bold-20" x="274.511719"/>
      <use xlink:href="#DejaVuSans-Bold-28" x="309.326172"/>
      <use xlink:href="#DejaVuSans-Bold-73" x="355.029297"/>
      <use xlink:href="#DejaVuSans-Bold-29" x="414.550781"/>
     </g>
    </g>
   </g>
   <g id="matplotlib.axis_4">
    <g id="ytick_34">
     <g id="line2d_59">
      <g>
       <use xlink:href="#m475abe73ae" x="486.619512" y="341.001775" style="fill: #5a5758; stroke: #5a5758; stroke-width: 0.8"/>
      </g>
     </g>
     <g id="text_25">
      <!-- $\mathdefault{10^{0}}$ -->
      <g style="fill: #5a5758" transform="translate(453.230073 346.698324) scale(0.14994 -0.14994)">
       <use xlink:href="#DejaVuSans-31" transform="translate(0 0.765625)"/>
       <use xlink:href="#DejaVuSans-30" transform="translate(63.623047 0.765625)"/>
       <use xlink:href="#DejaVuSans-30" transform="translate(128.203125 39.046875) scale(0.7)"/>
      </g>
     </g>
    </g>
    <g id="ytick_35">
     <g id="line2d_60">
      <g>
       <use xlink:href="#m475abe73ae" x="486.619512" y="231.633366" style="fill: #5a5758; stroke: #5a5758; stroke-width: 0.8"/>
      </g>
     </g>
     <g id="text_26">
      <!-- $\mathdefault{10^{1}}$ -->
      <g style="fill: #5a5758" transform="translate(453.230073 237.329915) scale(0.14994 -0.14994)">
       <use xlink:href="#DejaVuSans-31" transform="translate(0 0.684375)"/>
       <use xlink:href="#DejaVuSans-30" transform="translate(63.623047 0.684375)"/>
       <use xlink:href="#DejaVuSans-31" transform="translate(128.203125 38.965625) scale(0.7)"/>
      </g>
     </g>
    </g>
    <g id="ytick_36">
     <g id="line2d_61">
      <g>
       <use xlink:href="#m475abe73ae" x="486.619512" y="122.264957" style="fill: #5a5758; stroke: #5a5758; stroke-width: 0.8"/>
      </g>
     </g>
     <g id="text_27">
      <!-- $\mathdefault{10^{2}}$ -->
      <g style="fill: #5a5758" transform="translate(453.230073 127.961506) scale(0.14994 -0.14994)">
       <use xlink:href="#DejaVuSans-31" transform="translate(0 0.765625)"/>
       <use xlink:href="#DejaVuSans-30" transform="translate(63.623047 0.765625)"/>
       <use xlink:href="#DejaVuSans-32" transform="translate(128.203125 39.046875) scale(0.7)"/>
      </g>
     </g>
    </g>
    <g id="ytick_37">
     <g id="line2d_62">
      <g>
       <use xlink:href="#m475abe73ae" x="486.619512" y="12.896549" style="fill: #5a5758; stroke: #5a5758; stroke-width: 0.8"/>
      </g>
     </g>
     <g id="text_28">
      <!-- $\mathdefault{10^{3}}$ -->
      <g style="fill: #5a5758" transform="translate(453.230073 18.593097) scale(0.14994 -0.14994)">
       <use xlink:href="#DejaVuSans-31" transform="translate(0 0.765625)"/>
       <use xlink:href="#DejaVuSans-30" transform="translate(63.623047 0.765625)"/>
       <use xlink:href="#DejaVuSans-33" transform="translate(128.203125 39.046875) scale(0.7)"/>
      </g>
     </g>
    </g>
    <g id="ytick_38">
     <g id="line2d_63">
      <g>
       <use xlink:href="#mc2304d05f7" x="486.619512" y="373.924947" style="fill: #5a5758; stroke: #5a5758; stroke-width: 0.6"/>
      </g>
     </g>
    </g>
    <g id="ytick_39">
     <g id="line2d_64">
      <g>
       <use xlink:href="#mc2304d05f7" x="486.619512" y="365.26502" style="fill: #5a5758; stroke: #5a5758; stroke-width: 0.6"/>
      </g>
     </g>
    </g>
    <g id="ytick_40">
     <g id="line2d_65">
      <g>
       <use xlink:href="#mc2304d05f7" x="486.619512" y="357.943156" style="fill: #5a5758; stroke: #5a5758; stroke-width: 0.6"/>
      </g>
     </g>
    </g>
    <g id="ytick_41">
     <g id="line2d_66">
      <g>
       <use xlink:href="#mc2304d05f7" x="486.619512" y="351.600669" style="fill: #5a5758; stroke: #5a5758; stroke-width: 0.6"/>
      </g>
     </g>
    </g>
    <g id="ytick_42">
     <g id="line2d_67">
      <g>
       <use xlink:href="#mc2304d05f7" x="486.619512" y="346.006199" style="fill: #5a5758; stroke: #5a5758; stroke-width: 0.6"/>
      </g>
     </g>
    </g>
    <g id="ytick_43">
     <g id="line2d_68">
      <g>
       <use xlink:href="#mc2304d05f7" x="486.619512" y="308.078604" style="fill: #5a5758; stroke: #5a5758; stroke-width: 0.6"/>
      </g>
     </g>
    </g>
    <g id="ytick_44">
     <g id="line2d_69">
      <g>
       <use xlink:href="#mc2304d05f7" x="486.619512" y="288.819783" style="fill: #5a5758; stroke: #5a5758; stroke-width: 0.6"/>
      </g>
     </g>
    </g>
    <g id="ytick_45">
     <g id="line2d_70">
      <g>
       <use xlink:href="#mc2304d05f7" x="486.619512" y="275.155432" style="fill: #5a5758; stroke: #5a5758; stroke-width: 0.6"/>
      </g>
     </g>
    </g>
    <g id="ytick_46">
     <g id="line2d_71">
      <g>
       <use xlink:href="#mc2304d05f7" x="486.619512" y="264.556538" style="fill: #5a5758; stroke: #5a5758; stroke-width: 0.6"/>
      </g>
     </g>
    </g>
    <g id="ytick_47">
     <g id="line2d_72">
      <g>
       <use xlink:href="#mc2304d05f7" x="486.619512" y="255.896611" style="fill: #5a5758; stroke: #5a5758; stroke-width: 0.6"/>
      </g>
     </g>
    </g>
    <g id="ytick_48">
     <g id="line2d_73">
      <g>
       <use xlink:href="#mc2304d05f7" x="486.619512" y="248.574747" style="fill: #5a5758; stroke: #5a5758; stroke-width: 0.6"/>
      </g>
     </g>
    </g>
    <g id="ytick_49">
     <g id="line2d_74">
      <g>
       <use xlink:href="#mc2304d05f7" x="486.619512" y="242.23226" style="fill: #5a5758; stroke: #5a5758; stroke-width: 0.6"/>
      </g>
     </g>
    </g>
    <g id="ytick_50">
     <g id="line2d_75">
      <g>
       <use xlink:href="#mc2304d05f7" x="486.619512" y="236.63779" style="fill: #5a5758; stroke: #5a5758; stroke-width: 0.6"/>
      </g>
     </g>
    </g>
    <g id="ytick_51">
     <g id="line2d_76">
      <g>
       <use xlink:href="#mc2304d05f7" x="486.619512" y="198.710195" style="fill: #5a5758; stroke: #5a5758; stroke-width: 0.6"/>
      </g>
     </g>
    </g>
    <g id="ytick_52">
     <g id="line2d_77">
      <g>
       <use xlink:href="#mc2304d05f7" x="486.619512" y="179.451374" style="fill: #5a5758; stroke: #5a5758; stroke-width: 0.6"/>
      </g>
     </g>
    </g>
    <g id="ytick_53">
     <g id="line2d_78">
      <g>
       <use xlink:href="#mc2304d05f7" x="486.619512" y="165.787023" style="fill: #5a5758; stroke: #5a5758; stroke-width: 0.6"/>
      </g>
     </g>
    </g>
    <g id="ytick_54">
     <g id="line2d_79">
      <g>
       <use xlink:href="#mc2304d05f7" x="486.619512" y="155.188129" style="fill: #5a5758; stroke: #5a5758; stroke-width: 0.6"/>
      </g>
     </g>
    </g>
    <g id="ytick_55">
     <g id="line2d_80">
      <g>
       <use xlink:href="#mc2304d05f7" x="486.619512" y="146.528202" style="fill: #5a5758; stroke: #5a5758; stroke-width: 0.6"/>
      </g>
     </g>
    </g>
    <g id="ytick_56">
     <g id="line2d_81">
      <g>
       <use xlink:href="#mc2304d05f7" x="486.619512" y="139.206338" style="fill: #5a5758; stroke: #5a5758; stroke-width: 0.6"/>
      </g>
     </g>
    </g>
    <g id="ytick_57">
     <g id="line2d_82">
      <g>
       <use xlink:href="#mc2304d05f7" x="486.619512" y="132.863851" style="fill: #5a5758; stroke: #5a5758; stroke-width: 0.6"/>
      </g>
     </g>
    </g>
    <g id="ytick_58">
     <g id="line2d_83">
      <g>
       <use xlink:href="#mc2304d05f7" x="486.619512" y="127.269381" style="fill: #5a5758; stroke: #5a5758; stroke-width: 0.6"/>
      </g>
     </g>
    </g>
    <g id="ytick_59">
     <g id="line2d_84">
      <g>
       <use xlink:href="#mc2304d05f7" x="486.619512" y="89.341786" style="fill: #5a5758; stroke: #5a5758; stroke-width: 0.6"/>
      </g>
     </g>
    </g>
    <g id="ytick_60">
     <g id="line2d_85">
      <g>
       <use xlink:href="#mc2304d05f7" x="486.619512" y="70.082965" style="fill: #5a5758; stroke: #5a5758; stroke-width: 0.6"/>
      </g>
     </g>
    </g>
    <g id="ytick_61">
     <g id="line2d_86">
      <g>
       <use xlink:href="#mc2304d05f7" x="486.619512" y="56.418614" style="fill: #5a5758; stroke: #5a5758; stroke-width: 0.6"/>
      </g>
     </g>
    </g>
    <g id="ytick_62">
     <g id="line2d_87">
      <g>
       <use xlink:href="#mc2304d05f7" x="486.619512" y="45.81972" style="fill: #5a5758; stroke: #5a5758; stroke-width: 0.6"/>
      </g>
     </g>
    </g>
    <g id="ytick_63">
     <g id="line2d_88">
      <g>
       <use xlink:href="#mc2304d05f7" x="486.619512" y="37.159793" style="fill: #5a5758; stroke: #5a5758; stroke-width: 0.6"/>
      </g>
     </g>
    </g>
    <g id="ytick_64">
     <g id="line2d_89">
      <g>
       <use xlink:href="#mc2304d05f7" x="486.619512" y="29.837929" style="fill: #5a5758; stroke: #5a5758; stroke-width: 0.6"/>
      </g>
     </g>
    </g>
    <g id="ytick_65">
     <g id="line2d_90">
      <g>
       <use xlink:href="#mc2304d05f7" x="486.619512" y="23.495443" style="fill: #5a5758; stroke: #5a5758; stroke-width: 0.6"/>
      </g>
     </g>
    </g>
    <g id="ytick_66">
     <g id="line2d_91">
      <g>
       <use xlink:href="#mc2304d05f7" x="486.619512" y="17.900973" style="fill: #5a5758; stroke: #5a5758; stroke-width: 0.6"/>
      </g>
     </g>
    </g>
   </g>
   <g id="line2d_92">
    <path d="M 498.619512 373.924947 
L 865.19952 373.924947 
" style="fill: none; stroke-dasharray: 7.4,3.2; stroke-dashoffset: 0; stroke: #808080; stroke-opacity: 0.7; stroke-width: 2"/>
   </g>
   <g id="line2d_93">
    <path d="M 498.710861 44.615858 
L 499.382482 77.537844 
L 499.725861 105.158099 
L 500.211133 131.109588 
L 500.520157 139.293066 
L 500.8278 145.939218 
L 501.739145 167.842338 
L 502.279798 175.189839 
L 503.453078 190.10437 
L 504.097914 195.705654 
L 504.818105 201.167596 
L 505.206204 203.606585 
L 506.072302 209.541323 
L 506.163387 210.033257 
L 506.704139 210.518284 
L 509.094663 223.226329 
L 510.045758 227.563611 
L 510.897575 230.876325 
L 512.344045 235.969567 
L 514.24446 241.706598 
L 515.358113 244.570515 
L 517.094687 248.723282 
L 519.171612 253.152307 
L 520.712194 255.962736 
L 522.738443 259.345699 
L 524.529937 261.970867 
L 526.452399 264.506728 
L 527.95323 266.182691 
L 528.570852 266.78837 
L 529.38838 267.522379 
L 530.115317 268.162258 
L 532.531639 270.473913 
L 534.921176 272.541534 
L 536.35932 273.629114 
L 539.15535 275.628086 
L 541.356069 277.084174 
L 542.320689 277.644998 
L 544.751491 279.07369 
L 547.138954 280.365394 
L 552.654671 283.118496 
L 556.228083 284.740721 
L 565.518074 288.522777 
L 567.624944 289.310592 
L 571.283288 290.641858 
L 572.13267 290.94264 
L 575.876176 292.2747 
L 582.874198 294.693652 
L 594.591107 298.491394 
L 597.815118 299.456192 
L 600.270237 300.175575 
L 601.450856 300.50091 
L 604.331291 301.31909 
L 615.305961 304.464415 
L 616.918543 304.903533 
L 619.930703 305.71722 
L 627.591231 307.836694 
L 633.547894 309.506002 
L 635.881391 310.091374 
L 638.944161 310.893802 
L 640.069036 311.211878 
L 643.283504 312.073117 
L 645.179082 312.571116 
L 648.254422 313.424687 
L 649.083665 313.602572 
L 651.22739 314.112366 
L 670.122023 319.080777 
L 670.931917 319.270673 
L 674.810406 320.266192 
L 676.077667 320.552726 
L 680.621162 321.685502 
L 682.101164 322.02645 
L 685.008812 322.737235 
L 685.865368 322.921267 
L 687.57555 323.311459 
L 689.25763 323.719883 
L 701.306598 326.692394 
L 702.767251 327.060983 
L 705.609087 327.810412 
L 711.649793 329.30649 
L 712.9033 329.610674 
L 717.28789 330.719244 
L 722.20665 331.8461 
L 724.072546 332.304941 
L 732.961571 334.455827 
L 734.649542 334.870674 
L 740.527691 336.309177 
L 741.4418 336.509008 
L 749.54877 338.348437 
L 751.409565 338.747403 
L 756.394138 339.880699 
L 758.525458 340.342281 
L 769.384001 342.781087 
L 770.799144 343.083749 
L 773.295626 343.619013 
L 783.028637 345.765562 
L 783.981543 345.966899 
L 788.05079 346.741326 
L 792.332021 347.62169 
L 797.040542 347.819459 
L 800.797046 348.469906 
L 805.393916 349.4429 
L 845.107157 357.335017 
L 849.186902 358.086762 
L 852.669163 358.712239 
L 856.208254 359.325138 
L 862.361567 360.369987 
L 863.762725 360.595533 
L 865.19952 360.808833 
L 865.19952 360.808833 
" style="fill: none; stroke: #e29400; stroke-width: 2; stroke-linecap: square"/>
   </g>
   <g id="line2d_94">
    <path d="M 498.624613 44.615858 
L 498.773646 201.685933 
L 499.013666 233.661287 
L 499.370767 255.715097 
L 499.85933 273.35308 
L 500.288693 282.40899 
L 500.843694 290.5419 
L 501.479546 296.711589 
L 502.265023 303.059584 
L 503.332048 310.705908 
L 504.445603 318.106814 
L 506.055717 328.562639 
L 506.182144 329.126318 
L 508.170484 342.949197 
L 508.423469 344.540986 
L 512.625066 373.958865 
L 512.625066 373.958865 
" style="fill: none; stroke: #414487; stroke-width: 2; stroke-linecap: square"/>
   </g>
   <g id="line2d_95">
    <path d="M 498.61994 44.615858 
L 498.843244 247.459238 
L 499.079512 269.528917 
L 499.709474 295.050303 
L 500.325581 307.702392 
L 501.351079 324.519061 
L 502.384671 340.719706 
L 504.424774 374.016784 
L 504.424774 374.016784 
" style="fill: none; stroke: #32648e; stroke-width: 2; stroke-linecap: square"/>
   </g>
   <g id="line2d_96">
    <path d="M 498.619644 44.615858 
L 498.639125 69.438206 
L 498.903298 268.050841 
L 499.176586 290.35976 
L 499.56995 304.829371 
L 500.362864 327.332601 
L 501.040409 345.459308 
L 502.107829 374.103213 
L 502.107829 374.103213 
" style="fill: none; stroke: #26828e; stroke-width: 2; stroke-linecap: square"/>
   </g>
   <g id="line2d_97">
    <path d="M 498.619512 44.615858 
L 498.626324 37.218506 
L 498.690327 79.328229 
L 499.238121 312.580753 
L 500.26375 374.267514 
L 500.26375 374.267514 
" style="fill: none; stroke: #1f9f88; stroke-width: 2; stroke-linecap: square"/>
   </g>
   <g id="line2d_98">
    <path d="M 498.619776 44.615858 
L 498.626423 35.196687 
L 498.699015 77.503534 
L 499.193006 311.22304 
L 499.417692 334.990969 
L 499.913428 374.154166 
L 499.913428 374.154166 
" style="fill: none; stroke: #3bbb75; stroke-width: 2; stroke-linecap: square"/>
   </g>
   <g id="line2d_99">
    <path d="M 498.619644 44.615858 
L 498.734915 22.848444 
L 499.27264 22.848444 
L 499.286033 44.615858 
L 499.379224 22.848444 
L 499.970192 22.848444 
L 499.983453 44.615858 
L 500.076315 22.848444 
L 500.663169 22.848444 
L 500.676167 44.615858 
L 500.769029 22.848444 
L 501.350947 22.848444 
L 501.365031 44.615858 
L 501.459538 22.848444 
L 502.032177 22.848444 
L 502.046952 44.615858 
L 502.141525 22.848444 
L 502.719692 22.848444 
L 502.733183 44.615858 
L 502.827329 22.848444 
L 503.399572 22.848444 
L 503.414216 44.615858 
L 503.508197 22.848444 
L 504.097683 22.848444 
L 504.110813 44.615858 
L 504.203412 22.848444 
L 504.799512 22.848444 
L 504.812774 44.615858 
L 504.90659 22.848444 
L 505.481861 22.848444 
L 505.497064 44.615858 
L 505.591736 22.848444 
L 506.156641 22.848444 
L 506.170034 44.615858 
L 506.262929 22.848444 
L 506.850211 22.848444 
L 506.863604 44.615858 
L 506.955512 22.848444 
L 507.513803 22.848444 
L 507.526768 44.615858 
L 507.624072 22.848444 
L 508.223069 22.848444 
L 508.237186 44.615858 
L 508.326593 22.848444 
L 508.965505 22.848444 
L 508.980971 44.615858 
L 509.074524 22.848444 
L 509.712186 22.848444 
L 509.726533 44.615858 
L 509.820514 22.848444 
L 510.442742 22.848444 
L 510.456793 44.615858 
L 510.552024 22.848444 
L 511.187481 22.848444 
L 511.201401 44.615858 
L 511.292256 22.848444 
L 511.913859 22.848444 
L 511.928107 44.615858 
L 512.020706 22.848444 
L 512.623158 22.848444 
L 512.639841 44.615858 
L 512.730927 22.848444 
L 513.362797 22.848444 
L 513.377144 44.615858 
L 513.472803 22.848444 
L 514.104509 22.848444 
L 514.118592 44.615858 
L 514.209283 22.848444 
L 514.819336 22.848444 
L 514.833255 44.615858 
L 514.924472 22.848444 
L 515.551505 22.848444 
L 515.566148 44.615858 
L 515.659438 22.848444 
L 516.270018 22.848444 
L 516.286076 44.615858 
L 516.372752 22.848444 
L 517.005971 22.848444 
L 517.019627 44.615858 
L 517.112226 22.848444 
L 517.727939 22.848444 
L 517.741628 44.615858 
L 517.838373 22.848444 
L 518.431841 22.848444 
L 518.445662 44.615858 
L 518.541848 22.848444 
L 519.213041 22.848444 
L 519.227553 44.615858 
L 519.318506 22.848444 
L 519.940965 22.848444 
L 519.962354 44.615858 
L 520.046101 22.848444 
L 520.665138 22.848444 
L 520.678958 44.615858 
L 520.770043 22.848444 
L 521.396517 22.848444 
L 521.410338 44.615858 
L 521.50083 22.848444 
L 522.130529 22.848444 
L 522.144284 44.615858 
L 522.237343 22.848444 
L 522.868094 22.848444 
L 522.885765 44.615858 
L 522.972967 22.848444 
L 523.609806 22.848444 
L 523.625799 44.615858 
L 523.714284 22.848444 
L 524.348886 22.848444 
L 524.36297 44.615858 
L 524.456852 22.848444 
L 525.077632 22.848444 
L 525.091321 44.615858 
L 525.182538 22.848444 
L 525.808189 22.848444 
L 525.822404 44.615858 
L 525.915003 22.848444 
L 526.550559 22.848444 
L 526.564807 44.615858 
L 526.660993 22.848444 
L 527.298786 22.848444 
L 527.313989 44.615858 
L 527.402606 22.848444 
L 528.052246 22.848444 
L 528.066461 44.615858 
L 528.162252 22.848444 
L 528.768159 22.848444 
L 528.78221 44.615858 
L 528.87912 22.848444 
L 529.503915 22.848444 
L 529.519118 44.615858 
L 529.614349 22.848444 
L 530.228384 22.848444 
L 530.24329 44.615858 
L 530.332862 22.848444 
L 530.969141 22.848444 
L 530.985594 44.615858 
L 531.076811 22.848444 
L 531.699402 22.848444 
L 531.713913 44.615858 
L 531.809408 22.848444 
L 532.418606 22.848444 
L 532.432591 44.615858 
L 532.526703 22.848444 
L 533.161897 22.848444 
L 533.17608 44.615858 
L 533.270225 22.848444 
L 533.898772 22.848444 
L 533.913086 44.615858 
L 534.007495 22.848444 
L 534.628209 22.848444 
L 534.634955 34.062617 
L 534.634955 34.062617 
" style="fill: none; stroke: #7ad151; stroke-width: 2; stroke-linecap: square"/>
   </g>
   <g id="patch_6">
    <path d="M 486.619512 374.267514 
L 486.619512 12.896549 
" style="fill: none; stroke: #5a5758; stroke-width: 0.8; stroke-linejoin: miter; stroke-linecap: square"/>
   </g>
   <g id="patch_7">
    <path d="M 498.619512 386.267514 
L 865.19952 386.267514 
" style="fill: none; stroke: #5a5758; stroke-width: 0.8; stroke-linejoin: miter; stroke-linecap: square"/>
   </g>
  </g>
 </g>
</svg>