<?xml version="1.0" encoding="utf-8" standalone="no"?>
<!DOCTYPE svg PUBLIC "-//W3C//DTD SVG 1.1//EN"
  "http://www.w3.org/Graphics/SVG/1.1/DTD/svg11.dtd">
<svg xmlns:xlink="http://www.w3.org/1999/xlink" width="469.19952pt" height="353.99952pt" viewBox="0 0 469.19952 353.99952" xmlns="http://www.w3.org/2000/svg" version="1.1">
 <metadata>
  <rdf:RDF xmlns:dc="http://purl.org/dc/elements/1.1/" xmlns:cc="http://creativecommons.org/ns#" xmlns:rdf="http://www.w3.org/1999/02/22-rdf-syntax-ns#">
   <cc:Work>
    <dc:type rdf:resource="http://purl.org/dc/dcmitype/StillImage"/>
    <dc:date>2024-10-28T14:37:41.468963</dc:date>
    <dc:format>image/svg+xml</dc:format>
    <dc:creator>
     <cc:Agent>
      <dc:title>Matplotlib v3.9.2, https://matplotlib.org/</dc:title>
     </cc:Agent>
    </dc:creator>
   </cc:Work>
  </rdf:RDF>
 </metadata>
 <defs>
  <style type="text/css">*{stroke-linejoin: round; stroke-linecap: butt}</style>
 </defs>
 <g id="figure_1">
  <g id="patch_1">
   <path d="M 0 353.99952 
L 469.19952 353.99952 
L 469.19952 0 
L 0 0 
z
" style="fill: #ffffff"/>
  </g>
  <g id="axes_1">
   <g id="patch_2">
    <path d="M 34.07185 314.874223 
L 451.938312 314.874223 
L 451.938312 7.2 
L 34.07185 7.2 
z
" style="fill: #ffffff"/>
   </g>
   <g id="matplotlib.axis_1">
    <g id="xtick_1">
     <g id="line2d_1">
      <defs>
       <path id="m949bf5e8b5" d="M 0 0 
L 0 3.5 
" style="stroke: #5a5758; stroke-width: 0.8"/>
      </defs>
      <g>
       <use xlink:href="#m949bf5e8b5" x="34.07185" y="326.874223" style="fill: #5a5758; stroke: #5a5758; stroke-width: 0.8"/>
      </g>
     </g>
     <g id="text_1">
      <!-- 0.0 -->
      <g style="fill: #5a5758" transform="translate(24.010642 344.295053) scale(0.14994 -0.14994)">
       <defs>
        <path id="CMUBright-Roman-30" d="M 333 1984 
L 333 2086 
Q 333 2291 339 2438 
Q 346 2586 371 2832 
Q 397 3078 461 3267 
Q 525 3456 621 3657 
Q 717 3859 880 4006 
Q 1043 4154 1261 4230 
Q 1446 4301 1677 4301 
Q 1856 4301 2025 4256 
Q 2195 4211 2380 4070 
Q 2566 3930 2704 3709 
Q 2842 3488 2931 3104 
Q 3021 2720 3021 2214 
Q 3021 1683 2982 1347 
Q 2944 1011 2803 685 
Q 2618 250 2307 70 
Q 1997 -109 1677 -109 
Q 1498 -109 1328 -64 
Q 1158 -19 972 121 
Q 787 262 649 483 
Q 512 704 422 1091 
Q 333 1478 333 1984 
z
M 742 2413 
Q 742 2374 745 2326 
Q 749 2278 749 2272 
L 749 2150 
Q 749 1779 758 1548 
Q 768 1318 838 1014 
Q 909 710 1037 538 
Q 1286 218 1677 218 
Q 2086 218 2330 557 
Q 2451 730 2518 1037 
Q 2586 1344 2595 1568 
Q 2605 1792 2605 2163 
L 2605 2272 
Q 2605 2278 2608 2323 
Q 2611 2368 2611 2406 
Q 2611 3302 2336 3661 
Q 2099 3981 1677 3981 
Q 1242 3981 1005 3642 
Q 742 3264 742 2413 
z
" transform="scale(0.015625)"/>
        <path id="CMUBright-Roman-2e" d="M 678 0 
L 678 499 
L 1178 499 
L 1178 0 
L 678 0 
z
" transform="scale(0.015625)"/>
       </defs>
       <use xlink:href="#CMUBright-Roman-30"/>
       <use xlink:href="#CMUBright-Roman-2e" x="52.499985"/>
       <use xlink:href="#CMUBright-Roman-30" x="81.699982"/>
      </g>
     </g>
    </g>
    <g id="xtick_2">
     <g id="line2d_2">
      <g>
       <use xlink:href="#m949bf5e8b5" x="180.325112" y="326.874223" style="fill: #5a5758; stroke: #5a5758; stroke-width: 0.8"/>
      </g>
     </g>
     <g id="text_2">
      <!-- 0.7 -->
      <g style="fill: #5a5758" transform="translate(170.263903 344.295053) scale(0.14994 -0.14994)">
       <defs>
        <path id="CMUBright-Roman-37" d="M 275 3840 
L 275 4192 
L 3072 4192 
L 3072 3853 
Q 2400 3149 1958 2147 
Q 1517 1146 1517 -51 
L 1088 -51 
Q 1088 1030 1523 2048 
Q 1958 3066 2797 3840 
L 275 3840 
z
" transform="scale(0.015625)"/>
       </defs>
       <use xlink:href="#CMUBright-Roman-30"/>
       <use xlink:href="#CMUBright-Roman-2e" x="52.499985"/>
       <use xlink:href="#CMUBright-Roman-37" x="81.699982"/>
      </g>
     </g>
    </g>
    <g id="xtick_3">
     <g id="line2d_3">
      <g>
       <use xlink:href="#m949bf5e8b5" x="451.938312" y="326.874223" style="fill: #5a5758; stroke: #5a5758; stroke-width: 0.8"/>
      </g>
     </g>
     <g id="text_3">
      <!-- 2.0 -->
      <g style="fill: #5a5758" transform="translate(441.877103 344.295053) scale(0.14994 -0.14994)">
       <defs>
        <path id="CMUBright-Roman-32" d="M 275 3226 
Q 595 4301 1587 4301 
L 1594 4301 
Q 2214 4294 2617 3923 
Q 3021 3552 3021 2989 
Q 3021 2746 2937 2531 
Q 2854 2317 2668 2115 
Q 2483 1914 2384 1821 
Q 2285 1728 2061 1549 
Q 1754 1299 1642 1203 
Q 1530 1107 698 358 
L 3021 358 
L 3021 0 
L 333 0 
L 333 339 
L 1683 1562 
Q 2144 1965 2368 2278 
Q 2592 2592 2592 2982 
Q 2592 3418 2278 3690 
Q 1965 3962 1498 3962 
Q 1069 3962 854 3693 
Q 640 3424 512 2938 
L 275 3226 
z
" transform="scale(0.015625)"/>
       </defs>
       <use xlink:href="#CMUBright-Roman-32"/>
       <use xlink:href="#CMUBright-Roman-2e" x="52.499985"/>
       <use xlink:href="#CMUBright-Roman-30" x="81.699982"/>
      </g>
     </g>
    </g>
   </g>
   <g id="matplotlib.axis_2">
    <g id="ytick_1">
     <g id="line2d_4">
      <defs>
       <path id="me0f50d5178" d="M 0 0 
L -3.5 0 
" style="stroke: #5a5758; stroke-width: 0.8"/>
      </defs>
      <g>
       <use xlink:href="#me0f50d5178" x="22.07185" y="248.580344" style="fill: #5a5758; stroke: #5a5758; stroke-width: 0.8"/>
      </g>
     </g>
     <g id="text_4">
      <!-- 0 -->
      <g style="fill: #5a5758" transform="translate(7.2 253.790759) scale(0.14994 -0.14994)">
       <use xlink:href="#CMUBright-Roman-30"/>
      </g>
     </g>
    </g>
    <g id="ytick_2">
     <g id="line2d_5">
      <g>
       <use xlink:href="#me0f50d5178" x="22.07185" y="28.901817" style="fill: #5a5758; stroke: #5a5758; stroke-width: 0.8"/>
      </g>
     </g>
     <g id="text_5">
      <!-- 1 -->
      <g style="fill: #5a5758" transform="translate(7.2 34.112232) scale(0.14994 -0.14994)">
       <defs>
        <path id="CMUBright-Roman-31" d="M 672 3558 
L 672 3885 
Q 1427 3885 1862 4301 
L 1965 4301 
L 1965 320 
L 2803 320 
L 2803 0 
L 710 0 
L 710 320 
L 1549 320 
L 1549 3744 
Q 1178 3558 672 3558 
z
" transform="scale(0.015625)"/>
       </defs>
       <use xlink:href="#CMUBright-Roman-31"/>
      </g>
     </g>
    </g>
   </g>
   <g id="line2d_6">
    <path d="M 34.07185 28.901817 
L 38.292723 37.396681 
L 42.513597 45.763466 
L 46.73447 54.002171 
L 50.955343 62.112797 
L 55.176217 70.095343 
L 59.39709 77.94981 
L 63.617963 85.676198 
L 67.838837 93.274506 
L 72.05971 100.744735 
L 76.280584 108.086885 
L 80.501457 115.300955 
L 84.72233 122.386946 
L 88.943204 129.344858 
L 93.164077 136.17469 
L 97.38495 142.876443 
L 101.605824 149.450116 
L 105.826697 155.89571 
L 110.04757 162.213225 
L 114.268444 168.40266 
L 118.489317 174.464016 
L 122.71019 180.397293 
L 126.931064 186.20249 
L 131.151937 191.879608 
L 135.37281 197.428647 
L 139.593684 202.849606 
L 143.814557 208.142486 
L 148.03543 213.307286 
L 152.256304 218.344007 
L 156.477177 223.252649 
L 160.698051 228.033211 
L 164.918924 232.685694 
L 169.139797 237.210098 
L 173.360671 241.606422 
L 177.581544 245.874667 
L 181.802417 250.014832 
L 186.023291 254.026919 
L 190.244164 257.910925 
L 194.465037 261.666853 
L 198.685911 265.294701 
L 202.906784 268.79447 
L 207.127657 272.166159 
L 211.348531 275.409769 
L 215.569404 278.525299 
L 219.790277 281.512751 
L 224.011151 284.372122 
L 228.232024 287.103415 
L 232.452897 289.706628 
L 236.673771 292.181762 
L 240.894644 294.528816 
L 245.115518 296.747791 
L 249.336391 298.838687 
L 253.557264 300.801503 
L 257.778138 302.63624 
L 261.999011 304.342898 
L 266.219884 305.921476 
L 270.440758 307.371975 
L 274.661631 308.694394 
L 278.882504 309.888734 
L 283.103378 310.954995 
L 287.324251 311.893176 
L 291.545124 312.703278 
L 295.765998 313.385301 
L 299.986871 313.939244 
L 304.207744 314.365108 
L 308.428618 314.662892 
L 312.649491 314.832598 
L 316.870364 314.874223 
L 321.091238 314.78777 
L 325.312111 314.573237 
L 329.532985 314.230625 
L 333.753858 313.759933 
L 337.974731 313.161162 
L 342.195605 312.434312 
L 346.416478 311.579382 
L 350.637351 310.596373 
L 354.858225 309.485284 
L 359.079098 308.246116 
L 363.299971 306.878869 
L 367.520845 305.383542 
L 371.741718 303.760136 
L 375.962591 302.008651 
L 380.183465 300.129086 
L 384.404338 298.121442 
L 388.625211 295.985719 
L 392.846085 293.721916 
L 397.066958 291.330034 
L 401.287832 288.810072 
L 405.508705 286.162032 
L 409.729578 283.385911 
L 413.950452 280.481712 
L 418.171325 277.449433 
L 422.392198 274.289074 
L 426.613072 271.000637 
L 430.833945 267.58412 
L 435.054818 264.039523 
L 439.275692 260.366847 
L 443.496565 256.566092 
L 447.717438 252.637258 
L 451.938312 248.580344 
" style="fill: none; stroke: #e29400; stroke-width: 2; stroke-linecap: square"/>
   </g>
   <g id="line2d_7">
    <path d="M 34.07185 314.874223 
L 34.07185 7.2 
" style="fill: none; stroke-dasharray: 7.4,3.2; stroke-dashoffset: 0; stroke: #808080; stroke-width: 2"/>
   </g>
   <g id="line2d_8">
    <path d="M 34.07185 248.580344 
L 38.292723 238.92513 
L 42.513597 229.466961 
L 46.73447 220.205838 
L 50.955343 211.14176 
L 55.176217 202.274727 
L 59.39709 193.604739 
L 63.617963 185.131796 
L 67.838837 176.855899 
L 72.05971 168.777046 
L 76.280584 160.895239 
L 80.501457 153.210477 
L 84.72233 145.72276 
L 88.943204 138.432089 
L 93.164077 131.338462 
L 97.38495 124.441881 
L 101.605824 117.742345 
L 105.826697 111.239854 
L 110.04757 104.934409 
L 114.268444 98.826008 
L 118.489317 92.914653 
L 122.71019 87.200342 
L 126.931064 81.683077 
L 131.151937 76.362858 
L 135.37281 71.239683 
L 139.593684 66.313554 
L 143.814557 61.584469 
L 148.03543 57.05243 
L 152.256304 52.717436 
L 156.477177 48.579487 
L 160.698051 44.638584 
L 164.918924 40.894726 
L 169.139797 37.347912 
L 173.360671 33.998144 
L 177.581544 30.845421 
L 181.802417 27.889744 
L 186.023291 25.131111 
L 190.244164 22.569524 
L 194.465037 20.204982 
L 198.685911 18.037485 
L 202.906784 16.067033 
L 207.127657 14.293626 
L 211.348531 12.717265 
L 215.569404 11.337949 
L 219.790277 10.155678 
L 224.011151 9.170452 
L 228.232024 8.382271 
L 232.452897 7.791136 
L 236.673771 7.397045 
L 240.894644 7.2 
L 245.115518 7.2 
L 249.336391 7.397045 
L 253.557264 7.791136 
L 257.778138 8.382271 
L 261.999011 9.170452 
L 266.219884 10.155678 
L 270.440758 11.337949 
L 274.661631 12.717265 
L 278.882504 14.293626 
L 283.103378 16.067033 
L 287.324251 18.037485 
L 291.545124 20.204982 
L 295.765998 22.569524 
L 299.986871 25.131111 
L 304.207744 27.889744 
L 308.428618 30.845421 
L 312.649491 33.998144 
L 316.870364 37.347912 
L 321.091238 40.894726 
L 325.312111 44.638584 
L 329.532985 48.579487 
L 333.753858 52.717436 
L 337.974731 57.05243 
L 342.195605 61.584469 
L 346.416478 66.313554 
L 350.637351 71.239683 
L 354.858225 76.362858 
L 359.079098 81.683077 
L 363.299971 87.200342 
L 367.520845 92.914653 
L 371.741718 98.826008 
L 375.962591 104.934409 
L 380.183465 111.239854 
L 384.404338 117.742345 
L 388.625211 124.441881 
L 392.846085 131.338462 
L 397.066958 138.432089 
L 401.287832 145.72276 
L 405.508705 153.210477 
L 409.729578 160.895239 
L 413.950452 168.777046 
L 418.171325 176.855899 
L 422.392198 185.131796 
L 426.613072 193.604739 
L 430.833945 202.274727 
L 435.054818 211.14176 
L 439.275692 220.205838 
L 443.496565 229.466961 
L 447.717438 238.92513 
L 451.938312 248.580344 
" style="fill: none; stroke: #1e90ff; stroke-width: 2; stroke-linecap: square"/>
   </g>
   <g id="line2d_9">
    <path d="M 180.325112 314.874223 
L 180.325112 7.2 
" style="fill: none; stroke-dasharray: 7.4,3.2; stroke-dashoffset: 0; stroke: #808080; stroke-width: 2"/>
   </g>
   <g id="line2d_10">
    <path d="M 34.07185 248.580344 
L 38.292723 249.740693 
L 42.513597 250.832077 
L 46.73447 251.854496 
L 50.955343 252.807948 
L 55.176217 253.692434 
L 59.39709 254.507955 
L 63.617963 255.25451 
L 67.838837 255.932099 
L 72.05971 256.540723 
L 76.280584 257.08038 
L 80.501457 257.551072 
L 84.72233 257.952798 
L 88.943204 258.285558 
L 93.164077 258.549352 
L 97.38495 258.74418 
L 101.605824 258.870043 
L 105.826697 258.92694 
L 110.04757 258.914871 
L 114.268444 258.833836 
L 118.489317 258.683835 
L 122.71019 258.464869 
L 126.931064 258.176936 
L 131.151937 257.820038 
L 135.37281 257.394174 
L 139.593684 256.899345 
L 143.814557 256.335549 
L 148.03543 255.702788 
L 152.256304 255.001061 
L 156.477177 254.230368 
L 160.698051 253.390709 
L 164.918924 252.482084 
L 169.139797 251.504494 
L 173.360671 250.457938 
L 177.581544 249.342416 
L 181.802417 248.157928 
L 186.023291 246.904474 
L 190.244164 245.582055 
L 194.465037 244.19067 
L 198.685911 242.730319 
L 202.906784 241.201002 
L 207.127657 239.602719 
L 211.348531 237.93547 
L 215.569404 236.199256 
L 219.790277 234.394076 
L 224.011151 232.51993 
L 228.232024 230.576818 
L 232.452897 228.564741 
L 236.673771 226.483697 
L 240.894644 224.333688 
L 245.115518 222.114713 
L 249.336391 219.826772 
L 253.557264 217.469866 
L 257.778138 215.043993 
L 261.999011 212.549155 
L 266.219884 209.985351 
L 270.440758 207.352581 
L 274.661631 204.650845 
L 278.882504 201.880144 
L 283.103378 199.040476 
L 287.324251 196.131843 
L 291.545124 193.154244 
L 295.765998 190.10768 
L 299.986871 186.992149 
L 304.207744 183.807653 
L 308.428618 180.55419 
L 312.649491 177.231762 
L 316.870364 173.840368 
L 321.091238 170.380009 
L 325.312111 166.850683 
L 329.532985 163.252392 
L 333.753858 159.585135 
L 337.974731 155.848912 
L 342.195605 152.043723 
L 346.416478 148.169569 
L 350.637351 144.226449 
L 354.858225 140.214362 
L 359.079098 136.133311 
L 363.299971 131.983293 
L 367.520845 127.764309 
L 371.741718 123.47636 
L 375.962591 119.119445 
L 380.183465 114.693564 
L 384.404338 110.198717 
L 388.625211 105.634904 
L 392.846085 101.002126 
L 397.066958 96.300381 
L 401.287832 91.529671 
L 405.508705 86.689995 
L 409.729578 81.781354 
L 413.950452 76.803746 
L 418.171325 71.757173 
L 422.392198 66.641634 
L 426.613072 61.457129 
L 430.833945 56.203658 
L 435.054818 50.881221 
L 439.275692 45.489819 
L 443.496565 40.029451 
L 447.717438 34.500117 
L 451.938312 28.901817 
" style="fill: none; stroke: #e21a1a; stroke-width: 2; stroke-linecap: square"/>
   </g>
   <g id="line2d_11">
    <path d="M 451.938312 314.874223 
L 451.938312 7.2 
" style="fill: none; stroke-dasharray: 7.4,3.2; stroke-dashoffset: 0; stroke: #808080; stroke-width: 2"/>
   </g>
   <g id="line2d_12">
    <path d="M 34.07185 248.580344 
L 451.938312 248.580344 
" style="fill: none; stroke-dasharray: 7.4,3.2; stroke-dashoffset: 0; stroke: #808080; stroke-width: 2"/>
   </g>
   <g id="line2d_13">
    <path d="M 34.07185 28.901817 
L 451.938312 28.901817 
" style="fill: none; stroke-dasharray: 7.4,3.2; stroke-dashoffset: 0; stroke: #808080; stroke-width: 2"/>
   </g>
   <g id="patch_3">
    <path d="M 22.07185 314.874223 
L 22.07185 7.2 
" style="fill: none; stroke: #5a5758; stroke-width: 0.8; stroke-linejoin: miter; stroke-linecap: square"/>
   </g>
   <g id="patch_4">
    <path d="M 34.07185 326.874223 
L 451.938312 326.874223 
" style="fill: none; stroke: #5a5758; stroke-width: 0.8; stroke-linejoin: miter; stroke-linecap: square"/>
   </g>
   <g id="text_6">
    <!-- $L_0(x)$ -->
    <g style="fill: #e29400" transform="translate(107.198481 156.568933) scale(0.18 -0.18)">
     <defs>
      <path id="CMUBright-Roman-4c" d="M 627 0 
L 627 4448 
L 1075 4448 
L 1075 339 
L 3347 339 
L 3347 0 
L 627 0 
z
" transform="scale(0.015625)"/>
      <path id="CMUBright-Roman-28" d="M 582 1690 
Q 582 3731 1914 4800 
L 2234 4800 
Q 1926 4512 1773 4314 
Q 992 3296 992 1702 
Q 992 -288 2202 -1395 
Q 2227 -1414 2234 -1421 
L 1914 -1421 
Q 1242 -877 912 -70 
Q 582 736 582 1690 
z
" transform="scale(0.015625)"/>
      <path id="CMUBright-Roman-78" d="M 0 0 
L 1261 1555 
L 1261 1562 
L 38 3021 
L 499 3021 
L 1446 1850 
L 2362 3021 
L 2816 3021 
L 1626 1555 
L 2931 0 
L 2470 0 
L 1446 1325 
L 1440 1325 
L 454 0 
L 0 0 
z
" transform="scale(0.015625)"/>
      <path id="CMUBright-Roman-29" d="M 371 -1421 
Q 762 -1069 986 -717 
Q 1613 262 1613 1702 
Q 1613 3693 410 4768 
Q 378 4794 371 4800 
L 691 4800 
Q 1363 4262 1692 3459 
Q 2022 2656 2022 1702 
Q 2022 813 1715 -16 
Q 1408 -845 691 -1421 
L 371 -1421 
z
" transform="scale(0.015625)"/>
     </defs>
     <use xlink:href="#CMUBright-Roman-4c"/>
     <use xlink:href="#CMUBright-Roman-30" transform="translate(57.526052 -14.160938) scale(0.7)"/>
     <use xlink:href="#CMUBright-Roman-28" transform="translate(96.636197 0)"/>
     <use xlink:href="#CMUBright-Roman-78" transform="translate(137.436185 0)"/>
     <use xlink:href="#CMUBright-Roman-29" transform="translate(183.236173 0)"/>
    </g>
   </g>
   <g id="text_7">
    <!-- $L_1(x)$ -->
    <g style="fill: #1e90ff" transform="translate(295.881712 75.353596) scale(0.18 -0.18)">
     <use xlink:href="#CMUBright-Roman-4c"/>
     <use xlink:href="#CMUBright-Roman-31" transform="translate(57.526052 -14.160938) scale(0.7)"/>
     <use xlink:href="#CMUBright-Roman-28" transform="translate(96.636197 0)"/>
     <use xlink:href="#CMUBright-Roman-78" transform="translate(137.436185 0)"/>
     <use xlink:href="#CMUBright-Roman-29" transform="translate(183.236173 0)"/>
    </g>
   </g>
   <g id="text_8">
    <!-- $L_2(x)$ -->
    <g style="fill: #e21a1a" transform="translate(286.078373 156.568933) scale(0.18 -0.18)">
     <use xlink:href="#CMUBright-Roman-4c"/>
     <use xlink:href="#CMUBright-Roman-32" transform="translate(57.526052 -14.160938) scale(0.7)"/>
     <use xlink:href="#CMUBright-Roman-28" transform="translate(96.636197 0)"/>
     <use xlink:href="#CMUBright-Roman-78" transform="translate(137.436185 0)"/>
     <use xlink:href="#CMUBright-Roman-29" transform="translate(183.236173 0)"/>
    </g>
   </g>
  </g>
 </g>
</svg>