<?xml version="1.0" encoding="utf-8" standalone="no"?>
<!DOCTYPE svg PUBLIC "-//W3C//DTD SVG 1.1//EN"
  "http://www.w3.org/Graphics/SVG/1.1/DTD/svg11.dtd">
<svg xmlns:xlink="http://www.w3.org/1999/xlink" width="453.672812pt" height="337.998125pt" viewBox="0 0 453.672812 337.998125" xmlns="http://www.w3.org/2000/svg" version="1.1">
 <metadata>
  <rdf:RDF xmlns:dc="http://purl.org/dc/elements/1.1/" xmlns:cc="http://creativecommons.org/ns#" xmlns:rdf="http://www.w3.org/1999/02/22-rdf-syntax-ns#">
   <cc:Work>
    <dc:type rdf:resource="http://purl.org/dc/dcmitype/StillImage"/>
    <dc:date>2024-10-28T14:46:20.223639</dc:date>
    <dc:format>image/svg+xml</dc:format>
    <dc:creator>
     <cc:Agent>
      <dc:title>Matplotlib v3.9.2, https://matplotlib.org/</dc:title>
     </cc:Agent>
    </dc:creator>
   </cc:Work>
  </rdf:RDF>
 </metadata>
 <defs>
  <style type="text/css">*{stroke-linejoin: round; stroke-linecap: butt}</style>
 </defs>
 <g id="figure_1">
  <g id="patch_1">
   <path d="M 0 337.998125 
L 453.672812 337.998125 
L 453.672812 0 
L 0 0 
z
" style="fill: #ffffff"/>
  </g>
  <g id="axes_1">
   <g id="patch_2">
    <path d="M 38.482813 314.12 
L 446.472813 314.12 
L 446.472813 7.2 
L 38.482813 7.2 
z
" style="fill: #ffffff"/>
   </g>
   <g id="matplotlib.axis_1">
    <g id="xtick_1">
     <g id="line2d_1">
      <defs>
       <path id="mb541d70c5f" d="M 0 0 
L 0 3.5 
" style="stroke: #000000; stroke-width: 0.8"/>
      </defs>
      <g>
       <use xlink:href="#mb541d70c5f" x="57.027813" y="314.12" style="stroke: #000000; stroke-width: 0.8"/>
      </g>
     </g>
     <g id="text_1">
      <!-- 0 -->
      <g transform="translate(53.846563 328.718437) scale(0.1 -0.1)">
       <defs>
        <path id="DejaVuSans-30" d="M 2034 4250 
Q 1547 4250 1301 3770 
Q 1056 3291 1056 2328 
Q 1056 1369 1301 889 
Q 1547 409 2034 409 
Q 2525 409 2770 889 
Q 3016 1369 3016 2328 
Q 3016 3291 2770 3770 
Q 2525 4250 2034 4250 
z
M 2034 4750 
Q 2819 4750 3233 4129 
Q 3647 3509 3647 2328 
Q 3647 1150 3233 529 
Q 2819 -91 2034 -91 
Q 1250 -91 836 529 
Q 422 1150 422 2328 
Q 422 3509 836 4129 
Q 1250 4750 2034 4750 
z
" transform="scale(0.015625)"/>
       </defs>
       <use xlink:href="#DejaVuSans-30"/>
      </g>
     </g>
    </g>
    <g id="xtick_2">
     <g id="line2d_2">
      <g>
       <use xlink:href="#mb541d70c5f" x="114.980938" y="314.12" style="stroke: #000000; stroke-width: 0.8"/>
      </g>
     </g>
     <g id="text_2">
      <!-- 5 -->
      <g transform="translate(111.799688 328.718437) scale(0.1 -0.1)">
       <defs>
        <path id="DejaVuSans-35" d="M 691 4666 
L 3169 4666 
L 3169 4134 
L 1269 4134 
L 1269 2991 
Q 1406 3038 1543 3061 
Q 1681 3084 1819 3084 
Q 2600 3084 3056 2656 
Q 3513 2228 3513 1497 
Q 3513 744 3044 326 
Q 2575 -91 1722 -91 
Q 1428 -91 1123 -41 
Q 819 9 494 109 
L 494 744 
Q 775 591 1075 516 
Q 1375 441 1709 441 
Q 2250 441 2565 725 
Q 2881 1009 2881 1497 
Q 2881 1984 2565 2268 
Q 2250 2553 1709 2553 
Q 1456 2553 1204 2497 
Q 953 2441 691 2322 
L 691 4666 
z
" transform="scale(0.015625)"/>
       </defs>
       <use xlink:href="#DejaVuSans-35"/>
      </g>
     </g>
    </g>
    <g id="xtick_3">
     <g id="line2d_3">
      <g>
       <use xlink:href="#mb541d70c5f" x="172.934063" y="314.12" style="stroke: #000000; stroke-width: 0.8"/>
      </g>
     </g>
     <g id="text_3">
      <!-- 10 -->
      <g transform="translate(166.571562 328.718437) scale(0.1 -0.1)">
       <defs>
        <path id="DejaVuSans-31" d="M 794 531 
L 1825 531 
L 1825 4091 
L 703 3866 
L 703 4441 
L 1819 4666 
L 2450 4666 
L 2450 531 
L 3481 531 
L 3481 0 
L 794 0 
L 794 531 
z
" transform="scale(0.015625)"/>
       </defs>
       <use xlink:href="#DejaVuSans-31"/>
       <use xlink:href="#DejaVuSans-30" x="63.623047"/>
      </g>
     </g>
    </g>
    <g id="xtick_4">
     <g id="line2d_4">
      <g>
       <use xlink:href="#mb541d70c5f" x="230.887188" y="314.12" style="stroke: #000000; stroke-width: 0.8"/>
      </g>
     </g>
     <g id="text_4">
      <!-- 15 -->
      <g transform="translate(224.524687 328.718437) scale(0.1 -0.1)">
       <use xlink:href="#DejaVuSans-31"/>
       <use xlink:href="#DejaVuSans-35" x="63.623047"/>
      </g>
     </g>
    </g>
    <g id="xtick_5">
     <g id="line2d_5">
      <g>
       <use xlink:href="#mb541d70c5f" x="288.840312" y="314.12" style="stroke: #000000; stroke-width: 0.8"/>
      </g>
     </g>
     <g id="text_5">
      <!-- 20 -->
      <g transform="translate(282.477812 328.718437) scale(0.1 -0.1)">
       <defs>
        <path id="DejaVuSans-32" d="M 1228 531 
L 3431 531 
L 3431 0 
L 469 0 
L 469 531 
Q 828 903 1448 1529 
Q 2069 2156 2228 2338 
Q 2531 2678 2651 2914 
Q 2772 3150 2772 3378 
Q 2772 3750 2511 3984 
Q 2250 4219 1831 4219 
Q 1534 4219 1204 4116 
Q 875 4013 500 3803 
L 500 4441 
Q 881 4594 1212 4672 
Q 1544 4750 1819 4750 
Q 2544 4750 2975 4387 
Q 3406 4025 3406 3419 
Q 3406 3131 3298 2873 
Q 3191 2616 2906 2266 
Q 2828 2175 2409 1742 
Q 1991 1309 1228 531 
z
" transform="scale(0.015625)"/>
       </defs>
       <use xlink:href="#DejaVuSans-32"/>
       <use xlink:href="#DejaVuSans-30" x="63.623047"/>
      </g>
     </g>
    </g>
    <g id="xtick_6">
     <g id="line2d_6">
      <g>
       <use xlink:href="#mb541d70c5f" x="346.793437" y="314.12" style="stroke: #000000; stroke-width: 0.8"/>
      </g>
     </g>
     <g id="text_6">
      <!-- 25 -->
      <g transform="translate(340.430937 328.718437) scale(0.1 -0.1)">
       <use xlink:href="#DejaVuSans-32"/>
       <use xlink:href="#DejaVuSans-35" x="63.623047"/>
      </g>
     </g>
    </g>
    <g id="xtick_7">
     <g id="line2d_7">
      <g>
       <use xlink:href="#mb541d70c5f" x="404.746562" y="314.12" style="stroke: #000000; stroke-width: 0.8"/>
      </g>
     </g>
     <g id="text_7">
      <!-- 30 -->
      <g transform="translate(398.384062 328.718437) scale(0.1 -0.1)">
       <defs>
        <path id="DejaVuSans-33" d="M 2597 2516 
Q 3050 2419 3304 2112 
Q 3559 1806 3559 1356 
Q 3559 666 3084 287 
Q 2609 -91 1734 -91 
Q 1441 -91 1130 -33 
Q 819 25 488 141 
L 488 750 
Q 750 597 1062 519 
Q 1375 441 1716 441 
Q 2309 441 2620 675 
Q 2931 909 2931 1356 
Q 2931 1769 2642 2001 
Q 2353 2234 1838 2234 
L 1294 2234 
L 1294 2753 
L 1863 2753 
Q 2328 2753 2575 2939 
Q 2822 3125 2822 3475 
Q 2822 3834 2567 4026 
Q 2313 4219 1838 4219 
Q 1578 4219 1281 4162 
Q 984 4106 628 3988 
L 628 4550 
Q 988 4650 1302 4700 
Q 1616 4750 1894 4750 
Q 2613 4750 3031 4423 
Q 3450 4097 3450 3541 
Q 3450 3153 3228 2886 
Q 3006 2619 2597 2516 
z
" transform="scale(0.015625)"/>
       </defs>
       <use xlink:href="#DejaVuSans-33"/>
       <use xlink:href="#DejaVuSans-30" x="63.623047"/>
      </g>
     </g>
    </g>
   </g>
   <g id="matplotlib.axis_2">
    <g id="ytick_1">
     <g id="line2d_8">
      <defs>
       <path id="ma536330ff7" d="M 0 0 
L -3.5 0 
" style="stroke: #000000; stroke-width: 0.8"/>
      </defs>
      <g>
       <use xlink:href="#ma536330ff7" x="38.482813" y="308.281337" style="stroke: #000000; stroke-width: 0.8"/>
      </g>
     </g>
     <g id="text_8">
      <!-- −1.5 -->
      <g transform="translate(7.2 312.080556) scale(0.1 -0.1)">
       <defs>
        <path id="DejaVuSans-2212" d="M 678 2272 
L 4684 2272 
L 4684 1741 
L 678 1741 
L 678 2272 
z
" transform="scale(0.015625)"/>
        <path id="DejaVuSans-2e" d="M 684 794 
L 1344 794 
L 1344 0 
L 684 0 
L 684 794 
z
" transform="scale(0.015625)"/>
       </defs>
       <use xlink:href="#DejaVuSans-2212"/>
       <use xlink:href="#DejaVuSans-31" x="83.789062"/>
       <use xlink:href="#DejaVuSans-2e" x="147.412109"/>
       <use xlink:href="#DejaVuSans-35" x="179.199219"/>
      </g>
     </g>
    </g>
    <g id="ytick_2">
     <g id="line2d_9">
      <g>
       <use xlink:href="#ma536330ff7" x="38.482813" y="260.999255" style="stroke: #000000; stroke-width: 0.8"/>
      </g>
     </g>
     <g id="text_9">
      <!-- −1.0 -->
      <g transform="translate(7.2 264.798474) scale(0.1 -0.1)">
       <use xlink:href="#DejaVuSans-2212"/>
       <use xlink:href="#DejaVuSans-31" x="83.789062"/>
       <use xlink:href="#DejaVuSans-2e" x="147.412109"/>
       <use xlink:href="#DejaVuSans-30" x="179.199219"/>
      </g>
     </g>
    </g>
    <g id="ytick_3">
     <g id="line2d_10">
      <g>
       <use xlink:href="#ma536330ff7" x="38.482813" y="213.717174" style="stroke: #000000; stroke-width: 0.8"/>
      </g>
     </g>
     <g id="text_10">
      <!-- −0.5 -->
      <g transform="translate(7.2 217.516393) scale(0.1 -0.1)">
       <use xlink:href="#DejaVuSans-2212"/>
       <use xlink:href="#DejaVuSans-30" x="83.789062"/>
       <use xlink:href="#DejaVuSans-2e" x="147.412109"/>
       <use xlink:href="#DejaVuSans-35" x="179.199219"/>
      </g>
     </g>
    </g>
    <g id="ytick_4">
     <g id="line2d_11">
      <g>
       <use xlink:href="#ma536330ff7" x="38.482813" y="166.435092" style="stroke: #000000; stroke-width: 0.8"/>
      </g>
     </g>
     <g id="text_11">
      <!-- 0.0 -->
      <g transform="translate(15.579688 170.234311) scale(0.1 -0.1)">
       <use xlink:href="#DejaVuSans-30"/>
       <use xlink:href="#DejaVuSans-2e" x="63.623047"/>
       <use xlink:href="#DejaVuSans-30" x="95.410156"/>
      </g>
     </g>
    </g>
    <g id="ytick_5">
     <g id="line2d_12">
      <g>
       <use xlink:href="#ma536330ff7" x="38.482813" y="119.153011" style="stroke: #000000; stroke-width: 0.8"/>
      </g>
     </g>
     <g id="text_12">
      <!-- 0.5 -->
      <g transform="translate(15.579688 122.952229) scale(0.1 -0.1)">
       <use xlink:href="#DejaVuSans-30"/>
       <use xlink:href="#DejaVuSans-2e" x="63.623047"/>
       <use xlink:href="#DejaVuSans-35" x="95.410156"/>
      </g>
     </g>
    </g>
    <g id="ytick_6">
     <g id="line2d_13">
      <g>
       <use xlink:href="#ma536330ff7" x="38.482813" y="71.870929" style="stroke: #000000; stroke-width: 0.8"/>
      </g>
     </g>
     <g id="text_13">
      <!-- 1.0 -->
      <g transform="translate(15.579688 75.670148) scale(0.1 -0.1)">
       <use xlink:href="#DejaVuSans-31"/>
       <use xlink:href="#DejaVuSans-2e" x="63.623047"/>
       <use xlink:href="#DejaVuSans-30" x="95.410156"/>
      </g>
     </g>
    </g>
    <g id="ytick_7">
     <g id="line2d_14">
      <g>
       <use xlink:href="#ma536330ff7" x="38.482813" y="24.588847" style="stroke: #000000; stroke-width: 0.8"/>
      </g>
     </g>
     <g id="text_14">
      <!-- 1.5 -->
      <g transform="translate(15.579688 28.388066) scale(0.1 -0.1)">
       <use xlink:href="#DejaVuSans-31"/>
       <use xlink:href="#DejaVuSans-2e" x="63.623047"/>
       <use xlink:href="#DejaVuSans-35" x="95.410156"/>
      </g>
     </g>
    </g>
   </g>
   <g id="line2d_15">
    <path d="M 57.027813 166.435092 
L 68.618437 27.749043 
L 80.209063 69.35931 
L 91.799688 162.818546 
L 103.390312 115.257335 
L 114.980938 23.04608 
L 126.571562 95.449529 
L 138.162187 266.984683 
L 149.752813 300.169001 
L 161.343437 196.936459 
L 172.934063 180.554991 
L 184.524687 284.111427 
L 196.115312 289.989108 
L 207.705938 129.715577 
L 219.296562 21.150909 
L 230.887188 92.305831 
L 242.477812 166.435092 
L 254.068437 92.305809 
L 265.659063 21.15092 
L 277.249687 129.715563 
L 288.840312 289.989131 
L 300.430937 284.111404 
L 312.021562 180.554991 
L 323.612187 196.936549 
L 335.202812 300.169091 
L 346.793437 266.984661 
L 358.384062 95.449371 
L 369.974687 23.046035 
L 381.565312 115.257222 
L 393.155937 162.818563 
L 404.746562 69.359355 
L 416.337187 27.748976 
L 427.927812 166.435077 
" clip-path="url(#pd7949b1940)" style="fill: none; stroke: #1f77b4; stroke-width: 1.5; stroke-linecap: square"/>
   </g>
   <g id="line2d_16">
    <path d="M 57.027813 166.435092 
L 68.618437 160.448619 
L 80.209063 161.629231 
L 91.799688 167.615725 
L 103.390312 161.626172 
L 114.980938 160.445578 
L 126.571562 164.855903 
L 138.162187 170.845472 
L 149.752813 171.00167 
L 161.343437 166.591359 
L 172.934063 171.163638 
L 184.524687 171.007449 
L 196.115312 169.385988 
L 207.705938 164.813711 
L 219.296562 162.470591 
L 230.887188 164.092052 
L 242.477812 161.748933 
L 254.068437 164.09205 
L 265.659063 162.470587 
L 277.249687 164.813704 
L 288.840312 169.385979 
L 300.430937 171.007438 
L 312.021562 171.16363 
L 323.612187 166.591352 
L 335.202812 171.001665 
L 346.793437 170.845464 
L 358.384062 164.855894 
L 369.974687 160.445568 
L 381.565312 161.626162 
L 393.155937 167.615713 
L 404.746562 161.629219 
L 416.337187 160.448604 
L 427.927812 166.435077 
" clip-path="url(#pd7949b1940)" style="fill: none; stroke: #ff7f0e; stroke-width: 1.5; stroke-linecap: square"/>
   </g>
   <g id="line2d_17">
    <path d="M 57.027813 166.435092 
L 68.618437 166.213427 
L 80.209063 166.286399 
L 91.799688 166.508063 
L 103.390312 166.29066 
L 114.980938 166.217689 
L 126.571562 166.382524 
L 138.162187 166.599927 
L 149.752813 166.580312 
L 161.343437 166.415476 
L 172.934063 166.573672 
L 184.524687 166.593286 
L 196.115312 166.532449 
L 207.705938 166.374252 
L 219.296562 166.306243 
L 230.887188 166.367079 
L 242.477812 166.299069 
L 254.068437 166.367078 
L 265.659063 166.306241 
L 277.249687 166.374249 
L 288.840312 166.532445 
L 300.430937 166.593281 
L 312.021562 166.573665 
L 323.612187 166.415468 
L 335.202812 166.580303 
L 346.793437 166.599916 
L 358.384062 166.382513 
L 369.974687 166.217677 
L 381.565312 166.290648 
L 393.155937 166.50805 
L 404.746562 166.286385 
L 416.337187 166.213413 
L 427.927812 166.435077 
" clip-path="url(#pd7949b1940)" style="fill: none; stroke: #2ca02c; stroke-width: 1.5; stroke-linecap: square"/>
   </g>
   <g id="line2d_18">
    <path d="M 57.027813 166.435092 
L 68.618437 166.426803 
L 80.209063 166.430479 
L 91.799688 166.438767 
L 103.390312 166.430779 
L 114.980938 166.427102 
L 126.571562 166.433315 
L 138.162187 166.441302 
L 149.752813 166.439746 
L 161.343437 166.433532 
L 172.934063 166.439087 
L 184.524687 166.440643 
L 196.115312 166.438342 
L 207.705938 166.432785 
L 219.296562 166.430849 
L 230.887188 166.433149 
L 242.477812 166.431213 
L 254.068437 166.433148 
L 265.659063 166.430847 
L 277.249687 166.432783 
L 288.840312 166.438338 
L 300.430937 166.440638 
L 312.021562 166.439082 
L 323.612187 166.433525 
L 335.202812 166.439738 
L 346.793437 166.441294 
L 358.384062 166.433306 
L 369.974687 166.427092 
L 381.565312 166.430767 
L 393.155937 166.438755 
L 404.746562 166.430465 
L 416.337187 166.426789 
L 427.927812 166.435077 
" clip-path="url(#pd7949b1940)" style="fill: none; stroke: #d62728; stroke-width: 1.5; stroke-linecap: square"/>
   </g>
   <g id="line2d_19">
    <path d="M 57.027813 166.435092 
L 68.618437 166.434779 
L 80.209063 166.434948 
L 91.799688 166.43526 
L 103.390312 166.434963 
L 114.980938 166.434793 
L 126.571562 166.435029 
L 138.162187 166.435325 
L 149.752813 166.435239 
L 161.343437 166.435003 
L 172.934063 166.4352 
L 184.524687 166.435285 
L 196.115312 166.435197 
L 207.705938 166.434998 
L 219.296562 166.434944 
L 230.887188 166.435032 
L 242.477812 166.434978 
L 254.068437 166.435031 
L 265.659063 166.434943 
L 277.249687 166.434996 
L 288.840312 166.435193 
L 300.430937 166.43528 
L 312.021562 166.435195 
L 323.612187 166.434996 
L 335.202812 166.435232 
L 346.793437 166.435316 
L 358.384062 166.435019 
L 369.974687 166.434783 
L 381.565312 166.434951 
L 393.155937 166.435248 
L 404.746562 166.434935 
L 416.337187 166.434765 
L 427.927812 166.435077 
" clip-path="url(#pd7949b1940)" style="fill: none; stroke: #9467bd; stroke-width: 1.5; stroke-linecap: square"/>
   </g>
   <g id="line2d_20">
    <path d="M 57.027813 166.435092 
L 68.618437 166.43508 
L 80.209063 166.435087 
L 91.799688 166.435098 
L 103.390312 166.435087 
L 114.980938 166.435079 
L 126.571562 166.435087 
L 138.162187 166.435098 
L 149.752813 166.435093 
L 161.343437 166.435084 
L 172.934063 166.435091 
L 184.524687 166.435094 
L 196.115312 166.43509 
L 207.705938 166.435083 
L 219.296562 166.435081 
L 230.887188 166.435084 
L 242.477812 166.435082 
L 254.068437 166.435083 
L 265.659063 166.435079 
L 277.249687 166.43508 
L 288.840312 166.435087 
L 300.430937 166.435089 
L 312.021562 166.435085 
L 323.612187 166.435077 
L 335.202812 166.435086 
L 346.793437 166.435089 
L 358.384062 166.435078 
L 369.974687 166.435068 
L 381.565312 166.435075 
L 393.155937 166.435086 
L 404.746562 166.435074 
L 416.337187 166.435066 
L 427.927812 166.435077 
" clip-path="url(#pd7949b1940)" style="fill: none; stroke: #8c564b; stroke-width: 1.5; stroke-linecap: square"/>
   </g>
   <g id="line2d_21">
    <path d="M 57.027813 166.435092 
L 68.618437 166.435091 
L 80.209063 166.435091 
L 91.799688 166.435091 
L 103.390312 166.43509 
L 114.980938 166.435089 
L 126.571562 166.435089 
L 138.162187 166.435089 
L 149.752813 166.435089 
L 161.343437 166.435088 
L 172.934063 166.435088 
L 184.524687 166.435087 
L 196.115312 166.435087 
L 207.705938 166.435086 
L 219.296562 166.435085 
L 230.887188 166.435085 
L 242.477812 166.435085 
L 254.068437 166.435084 
L 265.659063 166.435084 
L 277.249687 166.435083 
L 288.840312 166.435083 
L 300.430937 166.435083 
L 312.021562 166.435082 
L 323.612187 166.435081 
L 335.202812 166.435081 
L 346.793437 166.435081 
L 358.384062 166.43508 
L 369.974687 166.435079 
L 381.565312 166.435079 
L 393.155937 166.435079 
L 404.746562 166.435078 
L 416.337187 166.435077 
L 427.927812 166.435077 
" clip-path="url(#pd7949b1940)" style="fill: none; stroke: #e377c2; stroke-width: 1.5; stroke-linecap: square"/>
   </g>
   <g id="line2d_22">
    <path d="M 57.027813 166.435092 
L 68.618437 166.435092 
L 80.209063 166.435091 
L 91.799688 166.435091 
L 103.390312 166.43509 
L 114.980938 166.43509 
L 126.571562 166.435089 
L 138.162187 166.435089 
L 149.752813 166.435088 
L 161.343437 166.435088 
L 172.934063 166.435087 
L 184.524687 166.435087 
L 196.115312 166.435087 
L 207.705938 166.435086 
L 219.296562 166.435086 
L 230.887188 166.435085 
L 242.477812 166.435085 
L 254.068437 166.435084 
L 265.659063 166.435084 
L 277.249687 166.435083 
L 288.840312 166.435083 
L 300.430937 166.435082 
L 312.021562 166.435082 
L 323.612187 166.435081 
L 335.202812 166.435081 
L 346.793437 166.43508 
L 358.384062 166.43508 
L 369.974687 166.435079 
L 381.565312 166.435079 
L 393.155937 166.435079 
L 404.746562 166.435078 
L 416.337187 166.435078 
L 427.927812 166.435077 
" clip-path="url(#pd7949b1940)" style="fill: none; stroke: #7f7f7f; stroke-width: 1.5; stroke-linecap: square"/>
   </g>
   <g id="line2d_23">
    <path d="M 57.027813 166.435092 
L 68.618437 166.435092 
L 80.209063 166.435091 
L 91.799688 166.435091 
L 103.390312 166.43509 
L 114.980938 166.43509 
L 126.571562 166.435089 
L 138.162187 166.435089 
L 149.752813 166.435088 
L 161.343437 166.435088 
L 172.934063 166.435087 
L 184.524687 166.435087 
L 196.115312 166.435087 
L 207.705938 166.435086 
L 219.296562 166.435086 
L 230.887188 166.435085 
L 242.477812 166.435085 
L 254.068437 166.435084 
L 265.659063 166.435084 
L 277.249687 166.435083 
L 288.840312 166.435083 
L 300.430937 166.435082 
L 312.021562 166.435082 
L 323.612187 166.435081 
L 335.202812 166.435081 
L 346.793437 166.43508 
L 358.384062 166.43508 
L 369.974687 166.435079 
L 381.565312 166.435079 
L 393.155937 166.435079 
L 404.746562 166.435078 
L 416.337187 166.435078 
L 427.927812 166.435077 
" clip-path="url(#pd7949b1940)" style="fill: none; stroke: #bcbd22; stroke-width: 1.5; stroke-linecap: square"/>
   </g>
   <g id="line2d_24">
    <path d="M 57.027813 166.435092 
L 68.618437 166.435092 
L 80.209063 166.435091 
L 91.799688 166.435091 
L 103.390312 166.43509 
L 114.980938 166.43509 
L 126.571562 166.435089 
L 138.162187 166.435089 
L 149.752813 166.435088 
L 161.343437 166.435088 
L 172.934063 166.435087 
L 184.524687 166.435087 
L 196.115312 166.435087 
L 207.705938 166.435086 
L 219.296562 166.435086 
L 230.887188 166.435085 
L 242.477812 166.435085 
L 254.068437 166.435084 
L 265.659063 166.435084 
L 277.249687 166.435083 
L 288.840312 166.435083 
L 300.430937 166.435082 
L 312.021562 166.435082 
L 323.612187 166.435081 
L 335.202812 166.435081 
L 346.793437 166.43508 
L 358.384062 166.43508 
L 369.974687 166.435079 
L 381.565312 166.435079 
L 393.155937 166.435079 
L 404.746562 166.435078 
L 416.337187 166.435078 
L 427.927812 166.435077 
" clip-path="url(#pd7949b1940)" style="fill: none; stroke: #17becf; stroke-width: 1.5; stroke-linecap: square"/>
   </g>
   <g id="line2d_25">
    <path d="M 57.027813 166.435092 
L 68.618437 166.435092 
L 80.209063 166.435091 
L 91.799688 166.435091 
L 103.390312 166.43509 
L 114.980938 166.43509 
L 126.571562 166.435089 
L 138.162187 166.435089 
L 149.752813 166.435088 
L 161.343437 166.435088 
L 172.934063 166.435087 
L 184.524687 166.435087 
L 196.115312 166.435087 
L 207.705938 166.435086 
L 219.296562 166.435086 
L 230.887188 166.435085 
L 242.477812 166.435085 
L 254.068437 166.435084 
L 265.659063 166.435084 
L 277.249687 166.435083 
L 288.840312 166.435083 
L 300.430937 166.435082 
L 312.021562 166.435082 
L 323.612187 166.435081 
L 335.202812 166.435081 
L 346.793437 166.43508 
L 358.384062 166.43508 
L 369.974687 166.435079 
L 381.565312 166.435079 
L 393.155937 166.435079 
L 404.746562 166.435078 
L 416.337187 166.435078 
L 427.927812 166.435077 
" clip-path="url(#pd7949b1940)" style="fill: none; stroke: #1f77b4; stroke-width: 1.5; stroke-linecap: square"/>
   </g>
   <g id="line2d_26">
    <path d="M 57.027813 166.435092 
L 68.618437 166.435092 
L 80.209063 166.435091 
L 91.799688 166.435091 
L 103.390312 166.43509 
L 114.980938 166.43509 
L 126.571562 166.435089 
L 138.162187 166.435089 
L 149.752813 166.435088 
L 161.343437 166.435088 
L 172.934063 166.435087 
L 184.524687 166.435087 
L 196.115312 166.435087 
L 207.705938 166.435086 
L 219.296562 166.435086 
L 230.887188 166.435085 
L 242.477812 166.435085 
L 254.068437 166.435084 
L 265.659063 166.435084 
L 277.249687 166.435083 
L 288.840312 166.435083 
L 300.430937 166.435082 
L 312.021562 166.435082 
L 323.612187 166.435081 
L 335.202812 166.435081 
L 346.793437 166.43508 
L 358.384062 166.43508 
L 369.974687 166.435079 
L 381.565312 166.435079 
L 393.155937 166.435079 
L 404.746562 166.435078 
L 416.337187 166.435078 
L 427.927812 166.435077 
" clip-path="url(#pd7949b1940)" style="fill: none; stroke: #ff7f0e; stroke-width: 1.5; stroke-linecap: square"/>
   </g>
   <g id="line2d_27">
    <path d="M 57.027813 166.435092 
L 68.618437 166.435092 
L 80.209063 166.435091 
L 91.799688 166.435091 
L 103.390312 166.43509 
L 114.980938 166.43509 
L 126.571562 166.435089 
L 138.162187 166.435089 
L 149.752813 166.435088 
L 161.343437 166.435088 
L 172.934063 166.435087 
L 184.524687 166.435087 
L 196.115312 166.435087 
L 207.705938 166.435086 
L 219.296562 166.435086 
L 230.887188 166.435085 
L 242.477812 166.435085 
L 254.068437 166.435084 
L 265.659063 166.435084 
L 277.249687 166.435083 
L 288.840312 166.435083 
L 300.430937 166.435082 
L 312.021562 166.435082 
L 323.612187 166.435081 
L 335.202812 166.435081 
L 346.793437 166.43508 
L 358.384062 166.43508 
L 369.974687 166.435079 
L 381.565312 166.435079 
L 393.155937 166.435079 
L 404.746562 166.435078 
L 416.337187 166.435078 
L 427.927812 166.435077 
" clip-path="url(#pd7949b1940)" style="fill: none; stroke: #2ca02c; stroke-width: 1.5; stroke-linecap: square"/>
   </g>
   <g id="line2d_28">
    <path d="M 57.027813 166.435092 
L 68.618437 166.435092 
L 80.209063 166.435091 
L 91.799688 166.435091 
L 103.390312 166.43509 
L 114.980938 166.43509 
L 126.571562 166.435089 
L 138.162187 166.435089 
L 149.752813 166.435088 
L 161.343437 166.435088 
L 172.934063 166.435087 
L 184.524687 166.435087 
L 196.115312 166.435087 
L 207.705938 166.435086 
L 219.296562 166.435086 
L 230.887188 166.435085 
L 242.477812 166.435085 
L 254.068437 166.435084 
L 265.659063 166.435084 
L 277.249687 166.435083 
L 288.840312 166.435083 
L 300.430937 166.435082 
L 312.021562 166.435082 
L 323.612187 166.435081 
L 335.202812 166.435081 
L 346.793437 166.43508 
L 358.384062 166.43508 
L 369.974687 166.435079 
L 381.565312 166.435079 
L 393.155937 166.435079 
L 404.746562 166.435078 
L 416.337187 166.435078 
L 427.927812 166.435077 
" clip-path="url(#pd7949b1940)" style="fill: none; stroke: #d62728; stroke-width: 1.5; stroke-linecap: square"/>
   </g>
   <g id="line2d_29">
    <path d="M 57.027813 166.435092 
L 68.618437 166.435092 
L 80.209063 166.435091 
L 91.799688 166.435091 
L 103.390312 166.43509 
L 114.980938 166.43509 
L 126.571562 166.435089 
L 138.162187 166.435089 
L 149.752813 166.435088 
L 161.343437 166.435088 
L 172.934063 166.435087 
L 184.524687 166.435087 
L 196.115312 166.435087 
L 207.705938 166.435086 
L 219.296562 166.435086 
L 230.887188 166.435085 
L 242.477812 166.435085 
L 254.068437 166.435084 
L 265.659063 166.435084 
L 277.249687 166.435083 
L 288.840312 166.435083 
L 300.430937 166.435082 
L 312.021562 166.435082 
L 323.612187 166.435081 
L 335.202812 166.435081 
L 346.793437 166.43508 
L 358.384062 166.43508 
L 369.974687 166.435079 
L 381.565312 166.435079 
L 393.155937 166.435079 
L 404.746562 166.435078 
L 416.337187 166.435078 
L 427.927812 166.435077 
" clip-path="url(#pd7949b1940)" style="fill: none; stroke: #9467bd; stroke-width: 1.5; stroke-linecap: square"/>
   </g>
   <g id="line2d_30">
    <path d="M 57.027813 166.435092 
L 68.618437 166.435092 
L 80.209063 166.435091 
L 91.799688 166.435091 
L 103.390312 166.43509 
L 114.980938 166.43509 
L 126.571562 166.435089 
L 138.162187 166.435089 
L 149.752813 166.435088 
L 161.343437 166.435088 
L 172.934063 166.435087 
L 184.524687 166.435087 
L 196.115312 166.435087 
L 207.705938 166.435086 
L 219.296562 166.435086 
L 230.887188 166.435085 
L 242.477812 166.435085 
L 254.068437 166.435084 
L 265.659063 166.435084 
L 277.249687 166.435083 
L 288.840312 166.435083 
L 300.430937 166.435082 
L 312.021562 166.435082 
L 323.612187 166.435081 
L 335.202812 166.435081 
L 346.793437 166.43508 
L 358.384062 166.43508 
L 369.974687 166.435079 
L 381.565312 166.435079 
L 393.155937 166.435079 
L 404.746562 166.435078 
L 416.337187 166.435078 
L 427.927812 166.435077 
" clip-path="url(#pd7949b1940)" style="fill: none; stroke: #8c564b; stroke-width: 1.5; stroke-linecap: square"/>
   </g>
   <g id="patch_3">
    <path d="M 38.482813 314.12 
L 38.482813 7.2 
" style="fill: none; stroke: #000000; stroke-width: 0.8; stroke-linejoin: miter; stroke-linecap: square"/>
   </g>
   <g id="patch_4">
    <path d="M 446.472813 314.12 
L 446.472813 7.2 
" style="fill: none; stroke: #000000; stroke-width: 0.8; stroke-linejoin: miter; stroke-linecap: square"/>
   </g>
   <g id="patch_5">
    <path d="M 38.482813 314.12 
L 446.472812 314.12 
" style="fill: none; stroke: #000000; stroke-width: 0.8; stroke-linejoin: miter; stroke-linecap: square"/>
   </g>
   <g id="patch_6">
    <path d="M 38.482813 7.2 
L 446.472812 7.2 
" style="fill: none; stroke: #000000; stroke-width: 0.8; stroke-linejoin: miter; stroke-linecap: square"/>
   </g>
  </g>
 </g>
 <defs>
  <clipPath id="pd7949b1940">
   <rect x="38.482813" y="7.2" width="407.99" height="306.92"/>
  </clipPath>
 </defs>
</svg>