<?xml version="1.0" encoding="utf-8" standalone="no"?>
<!DOCTYPE svg PUBLIC "-//W3C//DTD SVG 1.1//EN"
  "http://www.w3.org/Graphics/SVG/1.1/DTD/svg11.dtd">
<svg xmlns:xlink="http://www.w3.org/1999/xlink" width="872.466312pt" height="440.906765pt" viewBox="0 0 872.466312 440.906765" xmlns="http://www.w3.org/2000/svg" version="1.1">
 <metadata>
  <rdf:RDF xmlns:dc="http://purl.org/dc/elements/1.1/" xmlns:cc="http://creativecommons.org/ns#" xmlns:rdf="http://www.w3.org/1999/02/22-rdf-syntax-ns#">
   <cc:Work>
    <dc:type rdf:resource="http://purl.org/dc/dcmitype/StillImage"/>
    <dc:date>2024-09-11T14:55:06.194338</dc:date>
    <dc:format>image/svg+xml</dc:format>
    <dc:creator>
     <cc:Agent>
      <dc:title>Matplotlib v3.9.2, https://matplotlib.org/</dc:title>
     </cc:Agent>
    </dc:creator>
   </cc:Work>
  </rdf:RDF>
 </metadata>
 <defs>
  <style type="text/css">*{stroke-linejoin: round; stroke-linecap: butt}</style>
 </defs>
 <g id="figure_1">
  <g id="patch_1">
   <path d="M 0 440.906765 
L 872.466312 440.906765 
L 872.466312 0 
L 0 0 
z
" style="fill: #ffffff"/>
  </g>
  <g id="axes_1">
   <g id="patch_2">
    <path d="M 77.005643 376.284906 
L 440.107585 376.284906 
L 440.107585 59.320041 
L 77.005643 59.320041 
z
" style="fill: #ffffff"/>
   </g>
   <g id="matplotlib.axis_1">
    <g id="xtick_1">
     <g id="line2d_1">
      <defs>
       <path id="m5f6f5dffb9" d="M 0 0 
L 0 3.5 
" style="stroke: #5a5758; stroke-width: 0.8"/>
      </defs>
      <g>
       <use xlink:href="#m5f6f5dffb9" x="77.005643" y="388.284906" style="fill: #5a5758; stroke: #5a5758; stroke-width: 0.8"/>
      </g>
     </g>
     <g id="text_1">
      <!-- 0 -->
      <g style="fill: #5a5758" transform="translate(73.069718 405.705736) scale(0.14994 -0.14994)">
       <defs>
        <path id="CMUBright-Roman-30" d="M 333 1984 
L 333 2086 
Q 333 2291 339 2438 
Q 346 2586 371 2832 
Q 397 3078 461 3267 
Q 525 3456 621 3657 
Q 717 3859 880 4006 
Q 1043 4154 1261 4230 
Q 1446 4301 1677 4301 
Q 1856 4301 2025 4256 
Q 2195 4211 2380 4070 
Q 2566 3930 2704 3709 
Q 2842 3488 2931 3104 
Q 3021 2720 3021 2214 
Q 3021 1683 2982 1347 
Q 2944 1011 2803 685 
Q 2618 250 2307 70 
Q 1997 -109 1677 -109 
Q 1498 -109 1328 -64 
Q 1158 -19 972 121 
Q 787 262 649 483 
Q 512 704 422 1091 
Q 333 1478 333 1984 
z
M 742 2413 
Q 742 2374 745 2326 
Q 749 2278 749 2272 
L 749 2150 
Q 749 1779 758 1548 
Q 768 1318 838 1014 
Q 909 710 1037 538 
Q 1286 218 1677 218 
Q 2086 218 2330 557 
Q 2451 730 2518 1037 
Q 2586 1344 2595 1568 
Q 2605 1792 2605 2163 
L 2605 2272 
Q 2605 2278 2608 2323 
Q 2611 2368 2611 2406 
Q 2611 3302 2336 3661 
Q 2099 3981 1677 3981 
Q 1242 3981 1005 3642 
Q 742 3264 742 2413 
z
" transform="scale(0.015625)"/>
       </defs>
       <use xlink:href="#CMUBright-Roman-30"/>
      </g>
     </g>
    </g>
    <g id="xtick_2">
     <g id="line2d_2">
      <g>
       <use xlink:href="#m5f6f5dffb9" x="159.118248" y="388.284906" style="fill: #5a5758; stroke: #5a5758; stroke-width: 0.8"/>
      </g>
     </g>
     <g id="text_2">
      <!-- 1000 -->
      <g style="fill: #5a5758" transform="translate(143.374548 405.705736) scale(0.14994 -0.14994)">
       <defs>
        <path id="CMUBright-Roman-31" d="M 672 3558 
L 672 3885 
Q 1427 3885 1862 4301 
L 1965 4301 
L 1965 320 
L 2803 320 
L 2803 0 
L 710 0 
L 710 320 
L 1549 320 
L 1549 3744 
Q 1178 3558 672 3558 
z
" transform="scale(0.015625)"/>
       </defs>
       <use xlink:href="#CMUBright-Roman-31"/>
       <use xlink:href="#CMUBright-Roman-30" x="52.499985"/>
       <use xlink:href="#CMUBright-Roman-30" x="104.999969"/>
       <use xlink:href="#CMUBright-Roman-30" x="157.499954"/>
      </g>
     </g>
    </g>
    <g id="xtick_3">
     <g id="line2d_3">
      <g>
       <use xlink:href="#m5f6f5dffb9" x="241.230854" y="388.284906" style="fill: #5a5758; stroke: #5a5758; stroke-width: 0.8"/>
      </g>
     </g>
     <g id="text_3">
      <!-- 2000 -->
      <g style="fill: #5a5758" transform="translate(225.487154 405.705736) scale(0.14994 -0.14994)">
       <defs>
        <path id="CMUBright-Roman-32" d="M 275 3226 
Q 595 4301 1587 4301 
L 1594 4301 
Q 2214 4294 2617 3923 
Q 3021 3552 3021 2989 
Q 3021 2746 2937 2531 
Q 2854 2317 2668 2115 
Q 2483 1914 2384 1821 
Q 2285 1728 2061 1549 
Q 1754 1299 1642 1203 
Q 1530 1107 698 358 
L 3021 358 
L 3021 0 
L 333 0 
L 333 339 
L 1683 1562 
Q 2144 1965 2368 2278 
Q 2592 2592 2592 2982 
Q 2592 3418 2278 3690 
Q 1965 3962 1498 3962 
Q 1069 3962 854 3693 
Q 640 3424 512 2938 
L 275 3226 
z
" transform="scale(0.015625)"/>
       </defs>
       <use xlink:href="#CMUBright-Roman-32"/>
       <use xlink:href="#CMUBright-Roman-30" x="52.499985"/>
       <use xlink:href="#CMUBright-Roman-30" x="104.999969"/>
       <use xlink:href="#CMUBright-Roman-30" x="157.499954"/>
      </g>
     </g>
    </g>
    <g id="xtick_4">
     <g id="line2d_4">
      <g>
       <use xlink:href="#m5f6f5dffb9" x="323.34346" y="388.284906" style="fill: #5a5758; stroke: #5a5758; stroke-width: 0.8"/>
      </g>
     </g>
     <g id="text_4">
      <!-- 3000 -->
      <g style="fill: #5a5758" transform="translate(307.59976 405.705736) scale(0.14994 -0.14994)">
       <defs>
        <path id="CMUBright-Roman-33" d="M 282 653 
Q 282 666 285 685 
Q 288 704 304 774 
Q 320 845 339 941 
Q 557 640 861 464 
Q 1165 288 1341 256 
Q 1517 224 1683 224 
Q 2112 224 2368 486 
Q 2624 749 2624 1165 
Q 2624 1574 2381 1824 
Q 2138 2074 1773 2099 
L 1555 2106 
L 1114 2106 
L 1114 2426 
Q 1709 2470 1862 2528 
Q 2099 2618 2281 2838 
Q 2464 3059 2464 3360 
Q 2464 3642 2256 3811 
Q 2048 3981 1702 3981 
Q 973 3981 570 3258 
L 371 3539 
Q 845 4301 1702 4301 
Q 2202 4301 2544 4025 
Q 2886 3750 2886 3360 
Q 2886 3059 2704 2761 
Q 2522 2464 2106 2272 
Q 2579 2144 2825 1833 
Q 3072 1523 3072 1158 
Q 3072 666 2685 278 
Q 2298 -109 1690 -109 
Q 1402 -109 1126 -9 
Q 851 90 675 221 
Q 499 352 390 473 
Q 282 595 282 653 
z
" transform="scale(0.015625)"/>
       </defs>
       <use xlink:href="#CMUBright-Roman-33"/>
       <use xlink:href="#CMUBright-Roman-30" x="52.499985"/>
       <use xlink:href="#CMUBright-Roman-30" x="104.999969"/>
       <use xlink:href="#CMUBright-Roman-30" x="157.499954"/>
      </g>
     </g>
    </g>
    <g id="xtick_5">
     <g id="line2d_5">
      <g>
       <use xlink:href="#m5f6f5dffb9" x="405.456065" y="388.284906" style="fill: #5a5758; stroke: #5a5758; stroke-width: 0.8"/>
      </g>
     </g>
     <g id="text_5">
      <!-- 4000 -->
      <g style="fill: #5a5758" transform="translate(389.712365 405.705736) scale(0.14994 -0.14994)">
       <defs>
        <path id="CMUBright-Roman-34" d="M 186 1158 
L 186 1504 
L 1952 4250 
L 2438 4250 
L 2438 1498 
L 3168 1498 
L 3168 1158 
L 2438 1158 
L 2438 0 
L 2035 0 
L 2035 1158 
L 186 1158 
z
M 602 1498 
L 2054 1498 
L 2054 3885 
Q 1971 3667 1606 3085 
L 602 1498 
z
" transform="scale(0.015625)"/>
       </defs>
       <use xlink:href="#CMUBright-Roman-34"/>
       <use xlink:href="#CMUBright-Roman-30" x="52.499985"/>
       <use xlink:href="#CMUBright-Roman-30" x="104.999969"/>
       <use xlink:href="#CMUBright-Roman-30" x="157.499954"/>
      </g>
     </g>
    </g>
    <g id="text_6">
     <!-- Iterations -->
     <g style="fill: #5a5758" transform="translate(222.528489 428.720203) scale(0.18 -0.18)">
      <defs>
       <path id="CMUBright-SemiBold-49" d="M 512 0 
L 512 4448 
L 1184 4448 
L 1184 0 
L 512 0 
z
" transform="scale(0.015625)"/>
       <path id="CMUBright-SemiBold-74" d="M 122 2541 
L 122 3021 
L 646 3021 
L 646 3885 
L 1222 3885 
L 1222 3021 
L 2118 3021 
L 2118 2541 
L 1222 2541 
L 1222 1075 
Q 1222 448 1555 448 
Q 1805 448 2106 672 
L 2234 211 
Q 1754 -51 1197 -51 
Q 634 -51 634 1005 
L 634 2541 
L 122 2541 
z
" transform="scale(0.015625)"/>
       <path id="CMUBright-SemiBold-65" d="M 186 1530 
Q 186 2189 605 2646 
Q 1024 3104 1606 3104 
Q 1766 3104 1920 3069 
Q 2074 3034 2243 2931 
Q 2413 2829 2534 2669 
Q 2656 2509 2739 2233 
Q 2822 1958 2822 1600 
L 762 1600 
L 762 1536 
Q 762 1062 1040 745 
Q 1318 429 1709 429 
Q 2240 429 2739 794 
L 2784 275 
Q 2278 -51 1709 -51 
Q 1043 -51 614 419 
Q 186 890 186 1530 
z
M 838 1978 
L 2298 1978 
Q 2144 2618 1600 2618 
Q 1363 2618 1148 2448 
Q 934 2278 838 1978 
z
" transform="scale(0.015625)"/>
       <path id="CMUBright-SemiBold-72" d="M 416 0 
L 416 3021 
L 992 3021 
L 992 2368 
Q 1370 3059 2112 3072 
L 2112 2528 
Q 1939 2528 1769 2480 
Q 1600 2432 1421 2326 
Q 1242 2221 1130 2013 
Q 1018 1805 1018 1517 
L 1018 0 
L 416 0 
z
" transform="scale(0.015625)"/>
       <path id="CMUBright-SemiBold-61" d="M 250 851 
Q 250 1274 771 1498 
Q 1293 1722 2112 1747 
L 2112 1971 
Q 2112 2234 2048 2355 
Q 1894 2650 1568 2650 
Q 1242 2643 1037 2566 
Q 832 2490 557 2291 
L 512 2829 
Q 1043 3104 1581 3104 
Q 2061 3104 2377 2822 
Q 2694 2541 2726 2144 
L 2733 1933 
L 2733 0 
L 2131 0 
L 2131 230 
L 2125 410 
Q 1946 186 1648 67 
Q 1350 -51 1043 -51 
Q 666 -51 458 233 
Q 250 518 250 851 
z
M 845 864 
Q 845 672 1008 550 
Q 1171 429 1408 429 
Q 1626 429 1811 525 
Q 1997 621 2074 781 
Q 2112 864 2112 1043 
L 2112 1446 
Q 1523 1421 1184 1270 
Q 845 1120 845 864 
z
" transform="scale(0.015625)"/>
       <path id="CMUBright-SemiBold-69" d="M 414 3859 
L 414 4461 
L 1016 4461 
L 1016 3859 
L 414 3859 
z
M 416 0 
L 416 3021 
L 1018 3021 
L 1018 0 
L 416 0 
z
" transform="scale(0.015625)"/>
       <path id="CMUBright-SemiBold-6f" d="M 630 390 
Q 186 832 186 1504 
Q 186 2176 627 2637 
Q 1069 3098 1677 3098 
Q 2310 3098 2739 2618 
Q 3168 2138 3168 1498 
Q 3168 838 2726 393 
Q 2285 -51 1677 -51 
Q 1075 -51 630 390 
z
M 800 1594 
Q 800 998 1037 717 
Q 1267 448 1677 448 
Q 2061 448 2291 685 
Q 2554 954 2554 1606 
Q 2554 2150 2307 2384 
Q 2061 2618 1677 2618 
Q 800 2618 800 1594 
z
" transform="scale(0.015625)"/>
       <path id="CMUBright-SemiBold-6e" d="M 410 0 
L 410 3021 
L 998 3021 
L 998 2714 
L 1005 2496 
Q 1344 3072 1971 3072 
Q 2227 3072 2409 2995 
Q 2592 2918 2681 2816 
Q 2771 2714 2822 2547 
Q 2874 2381 2880 2275 
Q 2886 2170 2886 2016 
L 2886 0 
L 2272 0 
L 2272 2022 
Q 2272 2131 2259 2204 
Q 2246 2278 2192 2380 
Q 2138 2483 2000 2537 
Q 1862 2592 1651 2592 
Q 1453 2592 1315 2493 
Q 1178 2394 1120 2237 
Q 1062 2080 1043 1961 
Q 1024 1843 1024 1728 
L 1024 0 
L 410 0 
z
" transform="scale(0.015625)"/>
       <path id="CMUBright-SemiBold-73" d="M 186 250 
L 282 800 
Q 787 448 1318 448 
Q 1613 448 1737 569 
Q 1862 691 1862 838 
Q 1862 986 1753 1078 
Q 1645 1171 1517 1206 
Q 1389 1242 1190 1280 
Q 992 1318 902 1350 
Q 634 1440 429 1661 
Q 224 1882 224 2202 
Q 224 2349 269 2486 
Q 314 2624 422 2774 
Q 531 2925 764 3014 
Q 998 3104 1331 3104 
Q 1818 3104 2323 2886 
L 2227 2362 
Q 1747 2624 1261 2624 
Q 998 2624 889 2515 
Q 781 2406 781 2272 
Q 781 2170 857 2077 
Q 934 1984 1062 1939 
Q 1069 1939 1408 1865 
Q 1747 1792 1914 1702 
Q 2419 1421 2419 890 
Q 2419 525 2172 237 
Q 1926 -51 1325 -51 
Q 730 -51 186 250 
z
" transform="scale(0.015625)"/>
      </defs>
      <use xlink:href="#CMUBright-SemiBold-49"/>
      <use xlink:href="#CMUBright-SemiBold-74" x="26.699997"/>
      <use xlink:href="#CMUBright-SemiBold-65" x="64.599991"/>
      <use xlink:href="#CMUBright-SemiBold-72" x="111.699982"/>
      <use xlink:href="#CMUBright-SemiBold-61" x="146.299973"/>
      <use xlink:href="#CMUBright-SemiBold-74" x="195.499969"/>
      <use xlink:href="#CMUBright-SemiBold-69" x="233.399963"/>
      <use xlink:href="#CMUBright-SemiBold-6f" x="255.899948"/>
      <use xlink:href="#CMUBright-SemiBold-6e" x="308.399933"/>
      <use xlink:href="#CMUBright-SemiBold-73" x="360.09993"/>
     </g>
    </g>
   </g>
   <g id="matplotlib.axis_2">
    <g id="ytick_1">
     <g id="line2d_6">
      <defs>
       <path id="m6e880ef473" d="M 0 0 
L -3.5 0 
" style="stroke: #5a5758; stroke-width: 0.8"/>
      </defs>
      <g>
       <use xlink:href="#m6e880ef473" x="65.005643" y="342.753674" style="fill: #5a5758; stroke: #5a5758; stroke-width: 0.8"/>
      </g>
     </g>
     <g id="text_7">
      <!-- $\mathdefault{10^{1}}$ -->
      <g style="fill: #5a5758" transform="translate(36.264343 347.964089) scale(0.14994 -0.14994)">
       <use xlink:href="#CMUBright-Roman-31" transform="translate(0 0.915625)"/>
       <use xlink:href="#CMUBright-Roman-30" transform="translate(52.499985 0.915625)"/>
       <use xlink:href="#CMUBright-Roman-31" transform="translate(105.826024 33.957813) scale(0.7)"/>
      </g>
     </g>
    </g>
    <g id="ytick_2">
     <g id="line2d_7">
      <g>
       <use xlink:href="#m6e880ef473" x="65.005643" y="291.220286" style="fill: #5a5758; stroke: #5a5758; stroke-width: 0.8"/>
      </g>
     </g>
     <g id="text_8">
      <!-- $\mathdefault{10^{3}}$ -->
      <g style="fill: #5a5758" transform="translate(36.264343 296.430701) scale(0.14994 -0.14994)">
       <use xlink:href="#CMUBright-Roman-31" transform="translate(0 0.915625)"/>
       <use xlink:href="#CMUBright-Roman-30" transform="translate(52.499985 0.915625)"/>
       <use xlink:href="#CMUBright-Roman-33" transform="translate(105.826024 33.957813) scale(0.7)"/>
      </g>
     </g>
    </g>
    <g id="ytick_3">
     <g id="line2d_8">
      <g>
       <use xlink:href="#m6e880ef473" x="65.005643" y="239.686898" style="fill: #5a5758; stroke: #5a5758; stroke-width: 0.8"/>
      </g>
     </g>
     <g id="text_9">
      <!-- $\mathdefault{10^{5}}$ -->
      <g style="fill: #5a5758" transform="translate(36.264343 244.897313) scale(0.14994 -0.14994)">
       <defs>
        <path id="CMUBright-Roman-35" d="M 301 518 
L 486 819 
Q 896 224 1581 224 
Q 1971 224 2268 473 
Q 2566 723 2566 1312 
Q 2566 1626 2489 1846 
Q 2413 2067 2285 2176 
Q 2157 2285 2032 2329 
Q 1907 2374 1773 2374 
Q 1210 2374 941 1901 
L 582 1901 
L 582 4192 
L 2797 4192 
L 2797 3853 
L 973 3853 
L 973 2381 
Q 1325 2701 1779 2701 
Q 2285 2701 2653 2291 
Q 3021 1882 3021 1306 
Q 3021 723 2601 307 
Q 2182 -109 1574 -109 
Q 813 -109 301 518 
z
" transform="scale(0.015625)"/>
       </defs>
       <use xlink:href="#CMUBright-Roman-31" transform="translate(0 0.107813)"/>
       <use xlink:href="#CMUBright-Roman-30" transform="translate(52.499985 0.107813)"/>
       <use xlink:href="#CMUBright-Roman-35" transform="translate(105.826024 33.15) scale(0.7)"/>
      </g>
     </g>
    </g>
    <g id="ytick_4">
     <g id="line2d_9">
      <g>
       <use xlink:href="#m6e880ef473" x="65.005643" y="188.15351" style="fill: #5a5758; stroke: #5a5758; stroke-width: 0.8"/>
      </g>
     </g>
     <g id="text_10">
      <!-- $\mathdefault{10^{7}}$ -->
      <g style="fill: #5a5758" transform="translate(36.264343 193.363925) scale(0.14994 -0.14994)">
       <defs>
        <path id="CMUBright-Roman-37" d="M 275 3840 
L 275 4192 
L 3072 4192 
L 3072 3853 
Q 2400 3149 1958 2147 
Q 1517 1146 1517 -51 
L 1088 -51 
Q 1088 1030 1523 2048 
Q 1958 3066 2797 3840 
L 275 3840 
z
" transform="scale(0.015625)"/>
       </defs>
       <use xlink:href="#CMUBright-Roman-31" transform="translate(0 0.107813)"/>
       <use xlink:href="#CMUBright-Roman-30" transform="translate(52.499985 0.107813)"/>
       <use xlink:href="#CMUBright-Roman-37" transform="translate(105.826024 33.15) scale(0.7)"/>
      </g>
     </g>
    </g>
    <g id="ytick_5">
     <g id="line2d_10">
      <g>
       <use xlink:href="#m6e880ef473" x="65.005643" y="136.620123" style="fill: #5a5758; stroke: #5a5758; stroke-width: 0.8"/>
      </g>
     </g>
     <g id="text_11">
      <!-- $\mathdefault{10^{9}}$ -->
      <g style="fill: #5a5758" transform="translate(36.264343 141.830538) scale(0.14994 -0.14994)">
       <defs>
        <path id="CMUBright-Roman-39" d="M 346 2803 
Q 346 3443 768 3885 
Q 1158 4301 1696 4301 
Q 1875 4301 2038 4253 
Q 2202 4205 2384 4061 
Q 2566 3917 2700 3686 
Q 2835 3456 2921 3053 
Q 3008 2650 3008 2125 
Q 3008 1171 2537 531 
Q 2067 -109 1382 -109 
Q 909 -109 486 186 
L 653 480 
L 723 435 
Q 794 384 838 358 
Q 883 333 969 297 
Q 1056 262 1158 243 
Q 1261 224 1376 224 
Q 1690 224 1933 381 
Q 2176 538 2313 797 
Q 2451 1056 2518 1357 
Q 2586 1658 2586 1984 
L 2586 2074 
Q 2438 1754 2121 1530 
Q 1805 1306 1402 1306 
Q 973 1306 678 1709 
Q 346 2157 346 2803 
z
M 768 2656 
Q 768 2240 966 1936 
Q 1165 1632 1632 1632 
Q 2035 1632 2297 1936 
Q 2560 2240 2560 2656 
Q 2560 2752 2554 2803 
L 2566 2803 
Q 2522 3462 2272 3721 
Q 2022 3981 1696 3981 
Q 1242 3981 986 3648 
Q 768 3366 768 2822 
L 768 2656 
z
" transform="scale(0.015625)"/>
       </defs>
       <use xlink:href="#CMUBright-Roman-31" transform="translate(0 0.915625)"/>
       <use xlink:href="#CMUBright-Roman-30" transform="translate(52.499985 0.915625)"/>
       <use xlink:href="#CMUBright-Roman-39" transform="translate(105.826024 33.957813) scale(0.7)"/>
      </g>
     </g>
    </g>
    <g id="ytick_6">
     <g id="line2d_11">
      <g>
       <use xlink:href="#m6e880ef473" x="65.005643" y="85.086735" style="fill: #5a5758; stroke: #5a5758; stroke-width: 0.8"/>
      </g>
     </g>
     <g id="text_12">
      <!-- $\mathdefault{10^{11}}$ -->
      <g style="fill: #5a5758" transform="translate(30.716563 90.29715) scale(0.14994 -0.14994)">
       <use xlink:href="#CMUBright-Roman-31" transform="translate(0 0.915625)"/>
       <use xlink:href="#CMUBright-Roman-30" transform="translate(52.499985 0.915625)"/>
       <use xlink:href="#CMUBright-Roman-31" transform="translate(105.826024 33.957813) scale(0.7)"/>
       <use xlink:href="#CMUBright-Roman-31" transform="translate(142.576013 33.957813) scale(0.7)"/>
      </g>
     </g>
    </g>
    <g id="text_13">
     <!-- Residual norm -->
     <g style="fill: #5a5758" transform="translate(19.71 272.24263) rotate(-90) scale(0.18 -0.18)">
      <defs>
       <path id="CMUBright-SemiBold-52" d="M 518 0 
L 518 4448 
L 2086 4448 
Q 2803 4448 3283 4166 
Q 3571 3994 3740 3741 
Q 3910 3488 3910 3206 
Q 3910 2810 3593 2496 
Q 3277 2182 2803 2061 
L 4102 0 
L 3430 0 
L 2208 1984 
L 1171 1984 
L 1171 0 
L 518 0 
z
M 1171 2464 
L 2054 2464 
Q 2477 2464 2758 2541 
Q 3040 2618 3181 2842 
Q 3283 3002 3283 3200 
Q 3283 3558 2995 3750 
Q 2714 3936 2086 3936 
L 1178 3936 
L 1171 3725 
L 1171 2464 
z
" transform="scale(0.015625)"/>
       <path id="CMUBright-SemiBold-64" d="M 224 1517 
Q 224 2150 544 2611 
Q 864 3072 1350 3072 
Q 1856 3072 2285 2701 
L 2285 4448 
L 2886 4448 
L 2886 0 
L 2272 0 
L 2272 378 
Q 1856 -51 1344 -51 
Q 864 -51 544 409 
Q 224 870 224 1517 
z
M 838 1427 
Q 851 966 1024 730 
Q 1248 429 1670 429 
Q 1830 429 1971 505 
Q 2112 582 2157 633 
Q 2202 685 2272 774 
L 2272 2349 
Q 2042 2592 1741 2592 
Q 1331 2592 1082 2336 
Q 838 2086 838 1562 
L 838 1427 
z
" transform="scale(0.015625)"/>
       <path id="CMUBright-SemiBold-75" d="M 410 838 
L 410 3021 
L 1024 3021 
L 1024 883 
Q 1030 570 1069 506 
Q 1139 403 1510 403 
Q 1888 403 2064 601 
Q 2240 800 2266 998 
Q 2272 1062 2272 1197 
L 2272 3021 
L 2886 3021 
L 2886 0 
L 2285 0 
L 2285 480 
Q 1830 -51 1088 -51 
Q 858 -51 710 29 
Q 563 109 502 262 
Q 442 416 426 537 
Q 410 659 410 838 
z
" transform="scale(0.015625)"/>
       <path id="CMUBright-SemiBold-6c" d="M 416 0 
L 416 4448 
L 1018 4448 
L 1018 0 
L 416 0 
z
" transform="scale(0.015625)"/>
       <path id="CMUBright-SemiBold-20" transform="scale(0.015625)"/>
       <path id="CMUBright-SemiBold-6d" d="M 410 0 
L 410 3021 
L 998 3021 
L 998 2714 
L 1005 2496 
Q 1344 3072 1971 3072 
Q 2080 3072 2176 3059 
Q 2272 3046 2345 3024 
Q 2419 3002 2483 2966 
Q 2547 2931 2592 2899 
Q 2637 2867 2675 2819 
Q 2714 2771 2736 2739 
Q 2758 2707 2784 2656 
Q 2810 2605 2816 2582 
Q 2822 2560 2838 2518 
Q 2854 2477 2854 2470 
Q 3187 3072 3840 3072 
Q 4090 3072 4272 2995 
Q 4454 2918 4544 2819 
Q 4634 2720 4685 2557 
Q 4736 2394 4745 2285 
Q 4755 2176 4755 2016 
L 4755 0 
L 4141 0 
L 4141 1984 
Q 4128 2278 4045 2394 
Q 3898 2592 3507 2592 
Q 3264 2592 3078 2390 
Q 2893 2189 2893 1728 
L 2893 0 
L 2272 0 
L 2272 1984 
Q 2266 2266 2195 2374 
Q 2054 2592 1645 2592 
Q 1402 2592 1213 2390 
Q 1024 2189 1024 1728 
L 1024 0 
L 410 0 
z
" transform="scale(0.015625)"/>
      </defs>
      <use xlink:href="#CMUBright-SemiBold-52"/>
      <use xlink:href="#CMUBright-SemiBold-65" x="67.099991"/>
      <use xlink:href="#CMUBright-SemiBold-73" x="114.199982"/>
      <use xlink:href="#CMUBright-SemiBold-69" x="154.399979"/>
      <use xlink:href="#CMUBright-SemiBold-64" x="176.899963"/>
      <use xlink:href="#CMUBright-SemiBold-75" x="228.59996"/>
      <use xlink:href="#CMUBright-SemiBold-61" x="280.299957"/>
      <use xlink:href="#CMUBright-SemiBold-6c" x="329.499954"/>
      <use xlink:href="#CMUBright-SemiBold-20" x="351.999939"/>
      <use xlink:href="#CMUBright-SemiBold-6e" x="385.299927"/>
      <use xlink:href="#CMUBright-SemiBold-6f" x="436.999924"/>
      <use xlink:href="#CMUBright-SemiBold-72" x="489.499908"/>
      <use xlink:href="#CMUBright-SemiBold-6d" x="524.099899"/>
     </g>
    </g>
   </g>
   <g id="line2d_12">
    <path d="M 77.005643 376.276915 
L 440.107585 376.276915 
" style="fill: none; stroke-dasharray: 7.4,3.2; stroke-dashoffset: 0; stroke: #808080; stroke-opacity: 0.7; stroke-width: 2"/>
   </g>
   <g id="line2d_13">
    <path d="M 77.005643 298.693209 
L 77.25198 312.956683 
L 77.580431 319.070741 
L 78.073106 323.882882 
L 78.647895 327.330875 
L 79.386908 330.344455 
L 80.208034 332.763017 
L 81.193385 334.958773 
L 82.342962 336.944526 
L 83.656764 338.742938 
L 85.13479 340.377416 
L 86.859155 341.936793 
L 88.829858 343.405498 
L 91.046898 344.779442 
L 93.674501 346.138484 
L 96.712668 347.449698 
L 100.161397 348.692716 
L 104.102802 349.876063 
L 108.618996 350.996924 
L 113.79209 352.048561 
L 119.950535 353.06522 
L 127.422782 354.064538 
L 137.11207 355.123712 
L 150.496425 356.347026 
L 170.449788 357.928759 
L 203.62328 360.310662 
L 277.278288 365.32499 
L 440.107585 376.281857 
L 440.107585 376.281857 
" style="fill: none; stroke: #e29400; stroke-width: 2; stroke-linecap: square"/>
   </g>
   <g id="line2d_14">
    <path d="M 77.005643 298.693209 
L 77.334093 320.642317 
L 77.662543 327.392213 
L 78.155219 332.519956 
L 78.730007 336.128161 
L 79.386908 338.943847 
L 80.208034 341.482068 
L 81.111273 343.572204 
L 82.178737 345.479701 
L 83.410426 347.205976 
L 84.80634 348.763985 
L 86.36648 350.169921 
L 88.172957 351.493339 
L 90.225772 352.716624 
L 92.607038 353.866506 
L 95.316754 354.921601 
L 98.519145 355.925172 
L 102.542663 356.940964 
L 107.79787 358.024146 
L 115.270117 359.318993 
L 126.765882 361.063849 
L 147.294033 363.923019 
L 221.934392 373.966428 
L 239.178039 376.284906 
L 239.178039 376.284906 
" style="fill: none; stroke: #414487; stroke-width: 2; stroke-linecap: square"/>
   </g>
   <g id="line2d_15">
    <path d="M 77.005643 298.693209 
L 77.744656 319.671867 
L 78.483669 333.332823 
L 78.976345 338.817855 
L 79.469021 341.794244 
L 80.043809 343.842015 
L 80.864935 345.858591 
L 81.850286 347.684879 
L 82.999863 349.349421 
L 84.313664 350.85603 
L 85.791691 352.211197 
L 87.433943 353.421863 
L 89.322533 354.54029 
L 91.539574 355.590274 
L 94.24929 356.61664 
L 97.698019 357.673974 
L 102.46055 358.887701 
L 109.604347 360.460802 
L 121.6749 362.863936 
L 151.810226 368.567204 
L 192.784417 376.278163 
L 192.784417 376.278163 
" style="fill: none; stroke: #2a788e; stroke-width: 2; stroke-linecap: square"/>
   </g>
   <g id="line2d_16">
    <path d="M 77.005643 298.693209 
L 77.169868 299.309959 
L 77.334093 298.328739 
L 77.744656 293.50715 
L 78.894232 276.46297 
L 81.932399 227.296064 
L 89.815209 98.973933 
L 90.389997 94.055518 
L 90.80056 92.070674 
L 91.129011 91.393314 
L 91.293236 91.349868 
L 91.457461 91.498006 
L 91.703799 92.069932 
L 92.032249 93.461482 
L 92.524925 96.821974 
L 93.099713 102.529819 
L 93.838727 112.424839 
L 94.741965 127.976727 
L 95.809429 150.607719 
L 97.041118 181.602199 
L 98.519145 224.596893 
L 100.24351 281.387761 
L 102.542663 358.184813 
L 102.789001 359.476156 
L 103.035338 359.799768 
L 103.610127 359.99693 
L 109.932797 361.486344 
L 125.041517 364.816966 
L 178.332598 376.284733 
L 178.332598 376.284733 
" style="fill: none; stroke: #22a884; stroke-width: 2; stroke-linecap: square"/>
   </g>
   <g id="line2d_17">
    <path d="M 77.005643 298.693209 
L 77.087755 296.907776 
L 77.169868 294.765264 
L 77.25198 291.978222 
L 77.334093 288.949474 
L 77.416206 285.759688 
L 77.498318 282.472434 
L 77.580431 279.114416 
L 77.662543 275.704617 
L 77.744656 272.254565 
L 77.826769 268.772557 
L 77.908881 265.264467 
L 77.990994 261.734712 
L 78.073106 258.186661 
L 78.155219 254.622956 
L 78.237332 251.045704 
L 78.319444 247.456611 
L 78.401557 243.857082 
L 78.483669 240.248285 
L 78.565782 236.631202 
L 78.647895 233.006666 
L 78.730007 229.375391 
L 78.81212 225.737994 
L 78.894232 222.09501 
L 78.976345 218.446907 
L 79.058458 214.794096 
L 79.14057 211.136942 
L 79.222683 207.475766 
L 79.304795 203.810859 
L 79.386908 200.142478 
L 79.469021 196.470855 
L 79.551133 192.796201 
L 79.633246 189.118707 
L 79.715358 185.438544 
L 79.797471 181.75587 
L 79.879584 178.070829 
L 79.961696 174.383553 
L 80.043809 170.694164 
L 80.125922 167.002772 
L 80.208034 163.309482 
L 80.290147 159.614387 
L 80.372259 155.917577 
L 80.454372 152.219133 
L 80.536485 148.519131 
L 80.618597 144.817643 
L 80.70071 141.114735 
L 80.782822 137.410468 
L 80.864935 133.704901 
L 80.947048 129.998088 
L 81.02916 126.290079 
L 81.111273 122.580924 
L 81.193385 118.870666 
L 81.275498 115.159349 
L 81.357611 111.447012 
L 81.439723 107.733693 
L 81.521836 104.019428 
L 81.603948 100.304252 
L 81.686061 96.588195 
L 81.768174 92.871288 
L 81.850286 89.153561 
L 81.932399 85.435041 
L 82.014511 81.715753 
L 82.096624 77.995723 
L 82.178737 74.274974 
L 82.260849 70.553528 
L 82.342962 66.831408 
L 82.425074 63.108633 
L 82.507187 59.385223 
L 82.5893 55.661197 
L 82.671412 51.936573 
L 82.753525 48.211368 
L 82.835638 44.485598 
L 82.91775 40.759279 
L 82.999863 37.032426 
L 83.081975 33.305053 
L 83.164088 29.577175 
L 83.246201 25.848805 
L 83.328313 22.119955 
L 83.410426 18.390638 
L 83.492538 14.660866 
L 83.574651 10.930649 
L 83.656764 7.2 
" style="fill: none; stroke: #7ad151; stroke-width: 2; stroke-linecap: square"/>
   </g>
   <g id="patch_3">
    <path d="M 65.005643 376.284906 
L 65.005643 59.320041 
" style="fill: none; stroke: #5a5758; stroke-width: 0.8; stroke-linejoin: miter; stroke-linecap: square"/>
   </g>
   <g id="patch_4">
    <path d="M 77.005643 388.284906 
L 440.107585 388.284906 
" style="fill: none; stroke: #5a5758; stroke-width: 0.8; stroke-linejoin: miter; stroke-linecap: square"/>
   </g>
   <g id="legend_1">
    <g id="line2d_18">
     <path d="M 269.287585 81.820041 
L 287.287585 81.820041 
L 305.287585 81.820041 
" style="fill: none; stroke: #e29400; stroke-width: 2; stroke-linecap: square"/>
    </g>
    <g id="text_14">
     <!-- Jacobi -->
     <g style="fill: #e29400" transform="translate(319.687585 88.120041) scale(0.18 -0.18)">
      <defs>
       <path id="CMUBright-Roman-4a" d="M 275 160 
L 346 563 
Q 819 224 1254 224 
Q 1517 224 1705 294 
Q 1894 365 1980 451 
Q 2067 538 2115 672 
Q 2163 806 2166 864 
Q 2170 922 2170 1005 
L 2170 4448 
L 2611 4448 
L 2611 992 
Q 2611 736 2540 541 
Q 2470 346 2355 224 
Q 2240 102 2083 25 
Q 1926 -51 1766 -80 
Q 1606 -109 1427 -109 
Q 864 -109 275 160 
z
" transform="scale(0.015625)"/>
       <path id="CMUBright-Roman-61" d="M 352 736 
Q 352 896 435 1046 
Q 518 1197 707 1347 
Q 896 1498 1283 1590 
Q 1670 1683 2214 1696 
L 2214 1965 
Q 2214 2381 2042 2579 
Q 1856 2803 1568 2803 
Q 1331 2803 1107 2736 
Q 883 2669 809 2624 
Q 736 2579 557 2470 
L 525 2829 
Q 1043 3104 1574 3104 
Q 2054 3104 2326 2806 
Q 2598 2509 2624 2144 
L 2630 1926 
L 2630 0 
L 2227 0 
L 2227 442 
Q 1830 -51 1107 -51 
L 1062 -51 
Q 710 -51 531 205 
Q 352 461 352 736 
z
M 749 749 
Q 749 518 950 393 
Q 1152 269 1408 269 
Q 1523 269 1644 297 
Q 1766 326 1904 390 
Q 2042 454 2128 595 
Q 2214 736 2214 928 
L 2214 1498 
Q 1568 1491 1158 1286 
Q 749 1082 749 749 
z
" transform="scale(0.015625)"/>
       <path id="CMUBright-Roman-63" d="M 294 1517 
Q 294 2157 691 2630 
Q 1088 3104 1709 3104 
Q 2042 3104 2250 3046 
Q 2458 2989 2758 2829 
L 2694 2477 
Q 2502 2592 2403 2640 
Q 2304 2688 2125 2729 
Q 1946 2771 1709 2771 
Q 1254 2771 982 2432 
Q 710 2093 710 1523 
Q 717 915 1008 598 
Q 1299 282 1696 282 
Q 1958 282 2192 365 
Q 2426 448 2525 518 
Q 2624 589 2765 710 
L 2797 352 
Q 2304 -51 1690 -51 
Q 1107 -51 700 403 
Q 294 858 294 1517 
z
" transform="scale(0.015625)"/>
       <path id="CMUBright-Roman-6f" d="M 256 1510 
Q 256 2182 675 2640 
Q 1094 3098 1677 3098 
Q 2272 3098 2681 2627 
Q 3091 2157 3091 1510 
Q 3091 838 2668 393 
Q 2246 -51 1677 -51 
Q 1088 -51 672 406 
Q 256 864 256 1510 
z
M 666 1587 
Q 666 1190 771 915 
Q 877 640 1046 512 
Q 1216 384 1369 333 
Q 1523 282 1677 282 
Q 1843 282 2006 342 
Q 2170 403 2330 537 
Q 2490 672 2586 937 
Q 2682 1203 2682 1568 
Q 2682 1914 2586 2163 
Q 2490 2413 2330 2541 
Q 2170 2669 2006 2723 
Q 1843 2778 1676 2778 
Q 1510 2778 1347 2723 
Q 1184 2669 1024 2544 
Q 864 2419 765 2172 
Q 666 1926 666 1587 
z
" transform="scale(0.015625)"/>
       <path id="CMUBright-Roman-62" d="M 512 0 
L 512 4448 
L 915 4448 
L 915 2592 
Q 1312 3072 1875 3072 
Q 2349 3072 2675 2621 
Q 3002 2170 3002 1523 
Q 3002 858 2634 403 
Q 2266 -51 1754 -51 
Q 1261 -51 928 422 
L 928 0 
L 512 0 
z
M 922 838 
Q 922 634 1107 451 
Q 1293 269 1555 269 
Q 1728 269 1891 326 
Q 2054 384 2220 512 
Q 2387 640 2489 896 
Q 2592 1152 2592 1510 
Q 2592 1882 2493 2147 
Q 2394 2413 2234 2534 
Q 2074 2656 1926 2704 
Q 1779 2752 1632 2752 
Q 1293 2752 1050 2490 
Q 954 2362 941 2333 
Q 928 2304 928 2195 
L 928 928 
Q 928 909 925 883 
Q 922 858 922 838 
z
" transform="scale(0.015625)"/>
       <path id="CMUBright-Roman-69" d="M 509 4019 
L 509 4422 
L 912 4422 
L 912 4019 
L 509 4019 
z
M 512 0 
L 512 3021 
L 915 3021 
L 915 0 
L 512 0 
z
" transform="scale(0.015625)"/>
      </defs>
      <use xlink:href="#CMUBright-Roman-4a"/>
      <use xlink:href="#CMUBright-Roman-61" x="48.299988"/>
      <use xlink:href="#CMUBright-Roman-63" x="97.499985"/>
      <use xlink:href="#CMUBright-Roman-6f" x="144.199982"/>
      <use xlink:href="#CMUBright-Roman-62" x="196.699966"/>
      <use xlink:href="#CMUBright-Roman-69" x="248.399963"/>
     </g>
    </g>
    <g id="line2d_19">
     <path d="M 269.287585 106.426603 
L 287.287585 106.426603 
L 305.287585 106.426603 
" style="fill: none; stroke: #414487; stroke-width: 2; stroke-linecap: square"/>
    </g>
    <g id="text_15">
     <!-- GS, $\omega$ = 1.00 -->
     <g style="fill: #5a5758" transform="translate(319.687585 112.726603) scale(0.18 -0.18)">
      <defs>
       <path id="CMUBright-Roman-47" d="M 518 2221 
Q 518 2829 777 3357 
Q 1037 3885 1529 4217 
Q 2022 4550 2637 4550 
L 2650 4550 
Q 3309 4550 3968 4243 
L 3891 3802 
Q 3699 3930 3580 3997 
Q 3462 4064 3203 4137 
Q 2944 4211 2650 4211 
Q 1914 4211 1440 3622 
Q 966 3034 966 2221 
Q 966 1389 1449 809 
Q 1933 230 2624 230 
Q 3040 230 3610 403 
L 3610 1760 
L 2605 1760 
L 2605 2099 
L 4026 2099 
L 4026 205 
Q 3328 -109 2630 -109 
Q 1741 -109 1129 572 
Q 518 1254 518 2221 
z
" transform="scale(0.015625)"/>
       <path id="CMUBright-Roman-53" d="M 294 339 
L 371 781 
Q 1082 256 1843 256 
Q 2342 256 2643 531 
Q 2944 806 2944 1152 
Q 2944 1402 2781 1622 
Q 2618 1843 2323 1958 
Q 2176 2016 1769 2096 
Q 1363 2176 1059 2317 
Q 755 2458 557 2746 
Q 365 3014 365 3341 
Q 365 3808 781 4179 
Q 1197 4550 1882 4550 
Q 2515 4550 3110 4243 
L 3034 3802 
Q 2848 3930 2745 3990 
Q 2643 4051 2400 4124 
Q 2157 4198 1882 4198 
Q 1389 4198 1081 3958 
Q 774 3718 774 3392 
Q 774 3168 931 2973 
Q 1088 2778 1376 2669 
Q 1491 2630 1910 2534 
Q 2330 2438 2438 2394 
Q 2899 2221 3126 1885 
Q 3354 1549 3354 1197 
Q 3354 678 2925 284 
Q 2496 -109 1837 -109 
Q 1030 -109 294 339 
z
" transform="scale(0.015625)"/>
       <path id="CMUBright-Roman-2c" d="M 678 0 
L 678 499 
L 1184 499 
L 1184 186 
L 1178 0 
L 934 -710 
L 678 -710 
L 832 0 
L 678 0 
z
" transform="scale(0.015625)"/>
       <path id="CMUBright-Roman-20" transform="scale(0.015625)"/>
       <path id="CMUBright-Roman-3c9" d="M 262 1286 
Q 262 2182 1107 3021 
L 1600 3021 
Q 1178 2573 1018 2330 
Q 678 1805 678 1280 
Q 678 851 867 566 
Q 1056 282 1357 282 
Q 1619 282 1833 531 
Q 2048 781 2048 1344 
L 2048 1920 
L 2426 1920 
L 2426 1344 
Q 2426 781 2640 531 
Q 2854 282 3117 282 
Q 3418 282 3606 566 
Q 3795 851 3795 1280 
Q 3795 1632 3628 1993 
Q 3462 2355 3305 2544 
Q 3149 2733 2931 2963 
Q 2893 3002 2874 3021 
L 3366 3021 
Q 4211 2182 4211 1286 
Q 4211 742 3900 345 
Q 3590 -51 3117 -51 
Q 2586 -51 2234 525 
Q 1933 -51 1357 -51 
Q 883 -51 572 345 
Q 262 742 262 1286 
z
" transform="scale(0.015625)"/>
       <path id="CMUBright-Roman-3d" d="M 378 1062 
Q 378 1229 576 1229 
L 3533 1229 
Q 3725 1222 3725 1062 
Q 3725 909 3514 909 
L 589 909 
Q 378 909 378 1062 
z
M 378 2304 
Q 378 2470 582 2470 
L 3533 2470 
Q 3725 2464 3725 2304 
Q 3725 2150 3514 2150 
L 589 2150 
Q 378 2150 378 2304 
z
" transform="scale(0.015625)"/>
       <path id="CMUBright-Roman-2e" d="M 678 0 
L 678 499 
L 1178 499 
L 1178 0 
L 678 0 
z
" transform="scale(0.015625)"/>
      </defs>
      <use xlink:href="#CMUBright-Roman-47" transform="translate(0 0.90625)"/>
      <use xlink:href="#CMUBright-Roman-53" transform="translate(69.999985 0.90625)"/>
      <use xlink:href="#CMUBright-Roman-2c" transform="translate(128.299973 0.90625)"/>
      <use xlink:href="#CMUBright-Roman-20" transform="translate(157.499969 0.90625)"/>
      <use xlink:href="#CMUBright-Roman-3c9" transform="translate(190.799957 0.90625)"/>
      <use xlink:href="#CMUBright-Roman-20" transform="translate(260.799942 0.90625)"/>
      <use xlink:href="#CMUBright-Roman-3d" transform="translate(294.09993 0.90625)"/>
      <use xlink:href="#CMUBright-Roman-20" transform="translate(358.299927 0.90625)"/>
      <use xlink:href="#CMUBright-Roman-31" transform="translate(391.599915 0.90625)"/>
      <use xlink:href="#CMUBright-Roman-2e" transform="translate(444.099899 0.90625)"/>
      <use xlink:href="#CMUBright-Roman-30" transform="translate(473.299896 0.90625)"/>
      <use xlink:href="#CMUBright-Roman-30" transform="translate(525.799881 0.90625)"/>
     </g>
    </g>
    <g id="line2d_20">
     <path d="M 269.287585 131.033166 
L 287.287585 131.033166 
L 305.287585 131.033166 
" style="fill: none; stroke: #2a788e; stroke-width: 2; stroke-linecap: square"/>
    </g>
    <g id="text_16">
     <!-- GS, $\omega$ = 1.40 -->
     <g style="fill: #5a5758" transform="translate(319.687585 137.333166) scale(0.18 -0.18)">
      <use xlink:href="#CMUBright-Roman-47" transform="translate(0 0.90625)"/>
      <use xlink:href="#CMUBright-Roman-53" transform="translate(69.999985 0.90625)"/>
      <use xlink:href="#CMUBright-Roman-2c" transform="translate(128.299973 0.90625)"/>
      <use xlink:href="#CMUBright-Roman-20" transform="translate(157.499969 0.90625)"/>
      <use xlink:href="#CMUBright-Roman-3c9" transform="translate(190.799957 0.90625)"/>
      <use xlink:href="#CMUBright-Roman-20" transform="translate(260.799942 0.90625)"/>
      <use xlink:href="#CMUBright-Roman-3d" transform="translate(294.09993 0.90625)"/>
      <use xlink:href="#CMUBright-Roman-20" transform="translate(358.299927 0.90625)"/>
      <use xlink:href="#CMUBright-Roman-31" transform="translate(391.599915 0.90625)"/>
      <use xlink:href="#CMUBright-Roman-2e" transform="translate(444.099899 0.90625)"/>
      <use xlink:href="#CMUBright-Roman-34" transform="translate(473.299896 0.90625)"/>
      <use xlink:href="#CMUBright-Roman-30" transform="translate(525.799881 0.90625)"/>
     </g>
    </g>
    <g id="line2d_21">
     <path d="M 269.287585 155.639728 
L 287.287585 155.639728 
L 305.287585 155.639728 
" style="fill: none; stroke: #22a884; stroke-width: 2; stroke-linecap: square"/>
    </g>
    <g id="text_17">
     <!-- GS, $\omega$ = 1.60 -->
     <g style="fill: #5a5758" transform="translate(319.687585 161.939728) scale(0.18 -0.18)">
      <defs>
       <path id="CMUBright-Roman-36" d="M 346 2061 
Q 346 3072 864 3686 
Q 1382 4301 2074 4301 
L 2086 4301 
Q 2426 4301 2797 4179 
L 2797 3846 
Q 2374 3981 2074 3981 
L 2061 3981 
Q 1478 3981 1123 3491 
Q 768 3002 768 2208 
Q 768 2195 771 2166 
Q 774 2138 774 2125 
Q 928 2445 1238 2665 
Q 1549 2886 1952 2886 
Q 2387 2886 2682 2483 
Q 3008 2029 3008 1408 
Q 3008 768 2618 326 
Q 2240 -109 1690 -109 
Q 1510 -109 1340 -57 
Q 1171 -6 985 141 
Q 800 288 662 521 
Q 525 755 435 1152 
Q 346 1549 346 2061 
z
M 794 1389 
Q 813 1171 854 1004 
Q 896 838 985 643 
Q 1075 448 1254 336 
Q 1434 224 1690 224 
Q 2138 224 2381 550 
Q 2515 736 2550 921 
Q 2586 1107 2586 1434 
Q 2586 1645 2573 1776 
Q 2560 1907 2480 2089 
Q 2400 2272 2253 2400 
Q 2054 2566 1728 2566 
Q 1325 2566 1062 2265 
Q 800 1965 800 1555 
Q 800 1440 806 1389 
L 794 1389 
z
" transform="scale(0.015625)"/>
      </defs>
      <use xlink:href="#CMUBright-Roman-47" transform="translate(0 0.90625)"/>
      <use xlink:href="#CMUBright-Roman-53" transform="translate(69.999985 0.90625)"/>
      <use xlink:href="#CMUBright-Roman-2c" transform="translate(128.299973 0.90625)"/>
      <use xlink:href="#CMUBright-Roman-20" transform="translate(157.499969 0.90625)"/>
      <use xlink:href="#CMUBright-Roman-3c9" transform="translate(190.799957 0.90625)"/>
      <use xlink:href="#CMUBright-Roman-20" transform="translate(260.799942 0.90625)"/>
      <use xlink:href="#CMUBright-Roman-3d" transform="translate(294.09993 0.90625)"/>
      <use xlink:href="#CMUBright-Roman-20" transform="translate(358.299927 0.90625)"/>
      <use xlink:href="#CMUBright-Roman-31" transform="translate(391.599915 0.90625)"/>
      <use xlink:href="#CMUBright-Roman-2e" transform="translate(444.099899 0.90625)"/>
      <use xlink:href="#CMUBright-Roman-36" transform="translate(473.299896 0.90625)"/>
      <use xlink:href="#CMUBright-Roman-30" transform="translate(525.799881 0.90625)"/>
     </g>
    </g>
    <g id="line2d_22">
     <path d="M 269.287585 180.246291 
L 287.287585 180.246291 
L 305.287585 180.246291 
" style="fill: none; stroke: #7ad151; stroke-width: 2; stroke-linecap: square"/>
    </g>
    <g id="text_18">
     <!-- GS, $\omega$ = 1.80 -->
     <g style="fill: #5a5758" transform="translate(319.687585 186.546291) scale(0.18 -0.18)">
      <defs>
       <path id="CMUBright-Roman-38" d="M 275 1158 
Q 275 1517 518 1817 
Q 762 2118 1248 2266 
Q 909 2349 640 2598 
Q 371 2848 371 3206 
Q 371 3642 745 3971 
Q 1120 4301 1677 4301 
Q 2221 4301 2601 3981 
Q 2982 3661 2982 3213 
Q 2982 2918 2787 2684 
Q 2592 2451 2285 2323 
L 2099 2266 
Q 2464 2176 2768 1885 
Q 3072 1594 3072 1158 
Q 3072 646 2665 268 
Q 2259 -109 1670 -109 
Q 1075 -109 675 275 
Q 275 659 275 1158 
z
M 698 1158 
Q 698 704 970 464 
Q 1242 224 1670 224 
Q 2118 224 2384 470 
Q 2650 717 2650 1165 
Q 2650 1619 2371 1862 
Q 2093 2106 1670 2106 
Q 1280 2106 989 1878 
Q 698 1651 698 1158 
z
M 755 3206 
Q 755 2886 982 2656 
Q 1210 2426 1670 2426 
Q 2093 2426 2342 2634 
Q 2592 2842 2592 3206 
Q 2592 3507 2387 3744 
Q 2182 3981 1683 3981 
Q 1171 3981 963 3744 
Q 755 3507 755 3206 
z
" transform="scale(0.015625)"/>
      </defs>
      <use xlink:href="#CMUBright-Roman-47" transform="translate(0 0.90625)"/>
      <use xlink:href="#CMUBright-Roman-53" transform="translate(69.999985 0.90625)"/>
      <use xlink:href="#CMUBright-Roman-2c" transform="translate(128.299973 0.90625)"/>
      <use xlink:href="#CMUBright-Roman-20" transform="translate(157.499969 0.90625)"/>
      <use xlink:href="#CMUBright-Roman-3c9" transform="translate(190.799957 0.90625)"/>
      <use xlink:href="#CMUBright-Roman-20" transform="translate(260.799942 0.90625)"/>
      <use xlink:href="#CMUBright-Roman-3d" transform="translate(294.09993 0.90625)"/>
      <use xlink:href="#CMUBright-Roman-20" transform="translate(358.299927 0.90625)"/>
      <use xlink:href="#CMUBright-Roman-31" transform="translate(391.599915 0.90625)"/>
      <use xlink:href="#CMUBright-Roman-2e" transform="translate(444.099899 0.90625)"/>
      <use xlink:href="#CMUBright-Roman-38" transform="translate(473.299896 0.90625)"/>
      <use xlink:href="#CMUBright-Roman-30" transform="translate(525.799881 0.90625)"/>
     </g>
    </g>
   </g>
  </g>
  <g id="axes_2">
   <g id="patch_5">
    <path d="M 495.036665 376.284906 
L 858.138607 376.284906 
L 858.138607 59.320041 
L 495.036665 59.320041 
z
" style="fill: #ffffff"/>
   </g>
   <g id="matplotlib.axis_3">
    <g id="xtick_6">
     <g id="line2d_23">
      <g>
       <use xlink:href="#m5f6f5dffb9" x="545.848485" y="388.284906" style="fill: #5a5758; stroke: #5a5758; stroke-width: 0.8"/>
      </g>
     </g>
     <g id="text_19">
      <!-- 0.02 -->
      <g style="fill: #5a5758" transform="translate(531.851351 405.705736) scale(0.14994 -0.14994)">
       <use xlink:href="#CMUBright-Roman-30"/>
       <use xlink:href="#CMUBright-Roman-2e" x="52.499985"/>
       <use xlink:href="#CMUBright-Roman-30" x="81.699982"/>
       <use xlink:href="#CMUBright-Roman-32" x="134.199966"/>
      </g>
     </g>
    </g>
    <g id="xtick_7">
     <g id="line2d_24">
      <g>
       <use xlink:href="#m5f6f5dffb9" x="596.751934" y="388.284906" style="fill: #5a5758; stroke: #5a5758; stroke-width: 0.8"/>
      </g>
     </g>
     <g id="text_20">
      <!-- 0.04 -->
      <g style="fill: #5a5758" transform="translate(582.7548 405.705736) scale(0.14994 -0.14994)">
       <use xlink:href="#CMUBright-Roman-30"/>
       <use xlink:href="#CMUBright-Roman-2e" x="52.499985"/>
       <use xlink:href="#CMUBright-Roman-30" x="81.699982"/>
       <use xlink:href="#CMUBright-Roman-34" x="134.199966"/>
      </g>
     </g>
    </g>
    <g id="xtick_8">
     <g id="line2d_25">
      <g>
       <use xlink:href="#m5f6f5dffb9" x="647.655383" y="388.284906" style="fill: #5a5758; stroke: #5a5758; stroke-width: 0.8"/>
      </g>
     </g>
     <g id="text_21">
      <!-- 0.06 -->
      <g style="fill: #5a5758" transform="translate(633.658249 405.705736) scale(0.14994 -0.14994)">
       <use xlink:href="#CMUBright-Roman-30"/>
       <use xlink:href="#CMUBright-Roman-2e" x="52.499985"/>
       <use xlink:href="#CMUBright-Roman-30" x="81.699982"/>
       <use xlink:href="#CMUBright-Roman-36" x="134.199966"/>
      </g>
     </g>
    </g>
    <g id="xtick_9">
     <g id="line2d_26">
      <g>
       <use xlink:href="#m5f6f5dffb9" x="698.558832" y="388.284906" style="fill: #5a5758; stroke: #5a5758; stroke-width: 0.8"/>
      </g>
     </g>
     <g id="text_22">
      <!-- 0.08 -->
      <g style="fill: #5a5758" transform="translate(684.561698 405.705736) scale(0.14994 -0.14994)">
       <use xlink:href="#CMUBright-Roman-30"/>
       <use xlink:href="#CMUBright-Roman-2e" x="52.499985"/>
       <use xlink:href="#CMUBright-Roman-30" x="81.699982"/>
       <use xlink:href="#CMUBright-Roman-38" x="134.199966"/>
      </g>
     </g>
    </g>
    <g id="xtick_10">
     <g id="line2d_27">
      <g>
       <use xlink:href="#m5f6f5dffb9" x="749.46228" y="388.284906" style="fill: #5a5758; stroke: #5a5758; stroke-width: 0.8"/>
      </g>
     </g>
     <g id="text_23">
      <!-- 0.10 -->
      <g style="fill: #5a5758" transform="translate(735.465147 405.705736) scale(0.14994 -0.14994)">
       <use xlink:href="#CMUBright-Roman-30"/>
       <use xlink:href="#CMUBright-Roman-2e" x="52.499985"/>
       <use xlink:href="#CMUBright-Roman-31" x="81.699982"/>
       <use xlink:href="#CMUBright-Roman-30" x="134.199966"/>
      </g>
     </g>
    </g>
    <g id="xtick_11">
     <g id="line2d_28">
      <g>
       <use xlink:href="#m5f6f5dffb9" x="800.365729" y="388.284906" style="fill: #5a5758; stroke: #5a5758; stroke-width: 0.8"/>
      </g>
     </g>
     <g id="text_24">
      <!-- 0.12 -->
      <g style="fill: #5a5758" transform="translate(786.368596 405.705736) scale(0.14994 -0.14994)">
       <use xlink:href="#CMUBright-Roman-30"/>
       <use xlink:href="#CMUBright-Roman-2e" x="52.499985"/>
       <use xlink:href="#CMUBright-Roman-31" x="81.699982"/>
       <use xlink:href="#CMUBright-Roman-32" x="134.199966"/>
      </g>
     </g>
    </g>
    <g id="xtick_12">
     <g id="line2d_29">
      <g>
       <use xlink:href="#m5f6f5dffb9" x="851.269178" y="388.284906" style="fill: #5a5758; stroke: #5a5758; stroke-width: 0.8"/>
      </g>
     </g>
     <g id="text_25">
      <!-- 0.14 -->
      <g style="fill: #5a5758" transform="translate(837.272045 405.705736) scale(0.14994 -0.14994)">
       <use xlink:href="#CMUBright-Roman-30"/>
       <use xlink:href="#CMUBright-Roman-2e" x="52.499985"/>
       <use xlink:href="#CMUBright-Roman-31" x="81.699982"/>
       <use xlink:href="#CMUBright-Roman-34" x="134.199966"/>
      </g>
     </g>
    </g>
    <g id="text_26">
     <!-- Time (s) -->
     <g style="fill: #5a5758" transform="translate(642.569042 429.710203) scale(0.18 -0.18)">
      <defs>
       <path id="CMUBright-SemiBold-54" d="M 237 3910 
L 237 4416 
L 4390 4416 
L 4390 3910 
L 2650 3910 
L 2650 0 
L 1978 0 
L 1978 3910 
L 237 3910 
z
" transform="scale(0.015625)"/>
       <path id="CMUBright-SemiBold-28" d="M 1747 -1421 
Q 499 -358 499 1690 
Q 499 3738 1747 4800 
L 2234 4800 
Q 2086 4653 1990 4544 
Q 1894 4435 1708 4147 
Q 1523 3859 1411 3552 
Q 1299 3245 1206 2752 
Q 1114 2259 1114 1689 
Q 1114 1120 1206 627 
Q 1299 134 1411 -173 
Q 1523 -480 1708 -768 
Q 1894 -1056 1990 -1165 
Q 2086 -1274 2234 -1421 
L 1747 -1421 
z
" transform="scale(0.015625)"/>
       <path id="CMUBright-SemiBold-29" d="M 371 -1421 
Q 525 -1267 614 -1164 
Q 704 -1062 893 -768 
Q 1082 -474 1194 -173 
Q 1306 128 1398 624 
Q 1491 1120 1491 1690 
Q 1491 2246 1404 2732 
Q 1318 3219 1206 3523 
Q 1094 3827 921 4105 
Q 749 4384 646 4502 
Q 544 4621 416 4755 
Q 384 4787 371 4800 
L 851 4800 
Q 2106 3731 2106 1689 
Q 2106 -352 851 -1421 
L 371 -1421 
z
" transform="scale(0.015625)"/>
      </defs>
      <use xlink:href="#CMUBright-SemiBold-54"/>
      <use xlink:href="#CMUBright-SemiBold-69" x="72.499985"/>
      <use xlink:href="#CMUBright-SemiBold-6d" x="94.999969"/>
      <use xlink:href="#CMUBright-SemiBold-65" x="175.799957"/>
      <use xlink:href="#CMUBright-SemiBold-20" x="222.899948"/>
      <use xlink:href="#CMUBright-SemiBold-28" x="256.199936"/>
      <use xlink:href="#CMUBright-SemiBold-73" x="296.999924"/>
      <use xlink:href="#CMUBright-SemiBold-29" x="337.199921"/>
     </g>
    </g>
   </g>
   <g id="matplotlib.axis_4">
    <g id="ytick_7">
     <g id="line2d_30">
      <g>
       <use xlink:href="#m6e880ef473" x="483.036665" y="342.753674" style="fill: #5a5758; stroke: #5a5758; stroke-width: 0.8"/>
      </g>
     </g>
     <g id="text_27">
      <!-- $\mathdefault{10^{1}}$ -->
      <g style="fill: #5a5758" transform="translate(454.295365 347.964089) scale(0.14994 -0.14994)">
       <use xlink:href="#CMUBright-Roman-31" transform="translate(0 0.915625)"/>
       <use xlink:href="#CMUBright-Roman-30" transform="translate(52.499985 0.915625)"/>
       <use xlink:href="#CMUBright-Roman-31" transform="translate(105.826024 33.957813) scale(0.7)"/>
      </g>
     </g>
    </g>
    <g id="ytick_8">
     <g id="line2d_31">
      <g>
       <use xlink:href="#m6e880ef473" x="483.036665" y="291.220286" style="fill: #5a5758; stroke: #5a5758; stroke-width: 0.8"/>
      </g>
     </g>
     <g id="text_28">
      <!-- $\mathdefault{10^{3}}$ -->
      <g style="fill: #5a5758" transform="translate(454.295365 296.430701) scale(0.14994 -0.14994)">
       <use xlink:href="#CMUBright-Roman-31" transform="translate(0 0.915625)"/>
       <use xlink:href="#CMUBright-Roman-30" transform="translate(52.499985 0.915625)"/>
       <use xlink:href="#CMUBright-Roman-33" transform="translate(105.826024 33.957813) scale(0.7)"/>
      </g>
     </g>
    </g>
    <g id="ytick_9">
     <g id="line2d_32">
      <g>
       <use xlink:href="#m6e880ef473" x="483.036665" y="239.686898" style="fill: #5a5758; stroke: #5a5758; stroke-width: 0.8"/>
      </g>
     </g>
     <g id="text_29">
      <!-- $\mathdefault{10^{5}}$ -->
      <g style="fill: #5a5758" transform="translate(454.295365 244.897313) scale(0.14994 -0.14994)">
       <use xlink:href="#CMUBright-Roman-31" transform="translate(0 0.107813)"/>
       <use xlink:href="#CMUBright-Roman-30" transform="translate(52.499985 0.107813)"/>
       <use xlink:href="#CMUBright-Roman-35" transform="translate(105.826024 33.15) scale(0.7)"/>
      </g>
     </g>
    </g>
    <g id="ytick_10">
     <g id="line2d_33">
      <g>
       <use xlink:href="#m6e880ef473" x="483.036665" y="188.15351" style="fill: #5a5758; stroke: #5a5758; stroke-width: 0.8"/>
      </g>
     </g>
     <g id="text_30">
      <!-- $\mathdefault{10^{7}}$ -->
      <g style="fill: #5a5758" transform="translate(454.295365 193.363925) scale(0.14994 -0.14994)">
       <use xlink:href="#CMUBright-Roman-31" transform="translate(0 0.107813)"/>
       <use xlink:href="#CMUBright-Roman-30" transform="translate(52.499985 0.107813)"/>
       <use xlink:href="#CMUBright-Roman-37" transform="translate(105.826024 33.15) scale(0.7)"/>
      </g>
     </g>
    </g>
    <g id="ytick_11">
     <g id="line2d_34">
      <g>
       <use xlink:href="#m6e880ef473" x="483.036665" y="136.620123" style="fill: #5a5758; stroke: #5a5758; stroke-width: 0.8"/>
      </g>
     </g>
     <g id="text_31">
      <!-- $\mathdefault{10^{9}}$ -->
      <g style="fill: #5a5758" transform="translate(454.295365 141.830538) scale(0.14994 -0.14994)">
       <use xlink:href="#CMUBright-Roman-31" transform="translate(0 0.915625)"/>
       <use xlink:href="#CMUBright-Roman-30" transform="translate(52.499985 0.915625)"/>
       <use xlink:href="#CMUBright-Roman-39" transform="translate(105.826024 33.957813) scale(0.7)"/>
      </g>
     </g>
    </g>
    <g id="ytick_12">
     <g id="line2d_35">
      <g>
       <use xlink:href="#m6e880ef473" x="483.036665" y="85.086735" style="fill: #5a5758; stroke: #5a5758; stroke-width: 0.8"/>
      </g>
     </g>
     <g id="text_32">
      <!-- $\mathdefault{10^{11}}$ -->
      <g style="fill: #5a5758" transform="translate(448.747585 90.29715) scale(0.14994 -0.14994)">
       <use xlink:href="#CMUBright-Roman-31" transform="translate(0 0.915625)"/>
       <use xlink:href="#CMUBright-Roman-30" transform="translate(52.499985 0.915625)"/>
       <use xlink:href="#CMUBright-Roman-31" transform="translate(105.826024 33.957813) scale(0.7)"/>
       <use xlink:href="#CMUBright-Roman-31" transform="translate(142.576013 33.957813) scale(0.7)"/>
      </g>
     </g>
    </g>
   </g>
   <g id="line2d_36">
    <path d="M 495.036665 376.276915 
L 858.138607 376.276915 
" style="fill: none; stroke-dasharray: 7.4,3.2; stroke-dashoffset: 0; stroke: #808080; stroke-opacity: 0.7; stroke-width: 2"/>
   </g>
   <g id="line2d_37">
    <path d="M 495.222957 298.693209 
L 495.573091 314.95183 
L 495.973589 321.818226 
L 496.497879 326.482149 
L 497.081636 329.762828 
L 497.860182 332.763017 
L 498.700622 335.117784 
L 499.733424 337.313618 
L 500.823873 339.13613 
L 501.987747 340.699177 
L 503.146159 341.936793 
L 504.879834 343.570926 
L 506.89143 345.098504 
L 509.13483 346.5168 
L 511.75385 347.889327 
L 514.081597 348.87944 
L 517.435472 350.118232 
L 520.864591 351.160743 
L 524.486071 352.063619 
L 527.91337 352.762721 
L 529.333321 353.028444 
L 534.974893 354.004597 
L 542.135326 355.032913 
L 552.153865 356.227815 
L 563.316253 357.364167 
L 582.637894 359.188919 
L 609.269245 361.52856 
L 658.5573 365.767797 
L 782.048078 376.281857 
L 782.048078 376.281857 
" style="fill: none; stroke: #e29400; stroke-width: 2; stroke-linecap: square"/>
   </g>
   <g id="line2d_38">
    <path d="M 495.100987 298.693209 
L 495.704163 317.598216 
L 496.079175 322.889252 
L 496.635626 327.392213 
L 497.36866 331.126269 
L 498.093199 333.71717 
L 499.188503 336.537064 
L 499.968262 337.996909 
L 501.237722 340.056575 
L 502.505968 341.69675 
L 503.965361 343.231442 
L 505.604372 344.658355 
L 507.592303 346.101303 
L 509.79626 347.408049 
L 512.704731 348.845682 
L 515.953626 350.169921 
L 519.556295 351.383824 
L 523.564317 352.491547 
L 529.344244 353.794746 
L 534.449997 354.716177 
L 540.633456 355.638912 
L 548.423158 356.592267 
L 559.187474 357.657715 
L 572.158781 358.731667 
L 591.041087 360.090469 
L 603.725977 360.932733 
L 642.686624 363.396521 
L 715.805573 367.843003 
L 773.816614 371.273642 
L 780.550456 371.648783 
L 856.356387 376.196572 
L 858.138607 376.284906 
L 858.138607 376.284906 
" style="fill: none; stroke: #414487; stroke-width: 2; stroke-linecap: square"/>
   </g>
   <g id="line2d_39">
    <path d="M 495.088851 298.693209 
L 496.457222 313.981071 
L 497.578619 323.155671 
L 498.707297 330.797717 
L 499.599924 335.514048 
L 500.268636 338.115148 
L 501.169758 340.527405 
L 502.060565 342.148097 
L 502.995669 343.339951 
L 504.331272 344.72757 
L 505.888362 346.030083 
L 507.889643 347.411219 
L 510.344822 348.799667 
L 512.830949 349.95526 
L 515.715754 351.103464 
L 519.277766 352.278272 
L 522.86041 353.256332 
L 532.702972 355.265832 
L 538.723198 356.177817 
L 546.76837 357.171576 
L 558.177125 358.326761 
L 573.831774 359.671309 
L 582.819332 360.374975 
L 609.12725 362.306381 
L 668.452655 366.450139 
L 706.112288 368.937887 
L 722.24875 369.694696 
L 731.588868 370.250752 
L 802.323028 376.278163 
L 802.323028 376.278163 
" style="fill: none; stroke: #2a788e; stroke-width: 2; stroke-linecap: square"/>
   </g>
   <g id="line2d_40">
    <path d="M 495.041519 298.693209 
L 495.423814 299.309959 
L 495.606465 298.948778 
L 495.969948 297.52408 
L 496.871678 292.392282 
L 498.666641 280.280157 
L 503.607946 244.825523 
L 515.09316 157.577958 
L 517.831116 136.922256 
L 518.488298 132.786307 
L 520.860343 117.685013 
L 521.34701 115.000725 
L 522.773636 106.177539 
L 524.19844 98.973933 
L 525.006113 95.861422 
L 525.60322 94.055518 
L 526.416354 92.365497 
L 527.028632 91.632381 
L 527.432772 91.393314 
L 527.839339 91.349868 
L 528.240445 91.498006 
L 528.835125 92.069932 
L 529.449223 93.04793 
L 530.25993 94.956738 
L 531.530603 99.042207 
L 532.711468 104.490398 
L 534.094402 112.424839 
L 535.489473 121.91192 
L 537.081153 134.480239 
L 539.464121 156.41439 
L 543.172982 195.283415 
L 547.221055 245.460768 
L 553.364464 331.691109 
L 554.572029 349.342721 
L 555.173384 355.853003 
L 555.57813 358.184813 
L 555.984697 359.23014 
L 556.393691 359.637001 
L 557.012644 359.843324 
L 558.654082 360.037882 
L 570.610793 361.18517 
L 632.780953 366.676702 
L 644.837788 367.718923 
L 672.781684 370.172855 
L 735.680024 376.284733 
L 735.680024 376.284733 
" style="fill: none; stroke: #22a884; stroke-width: 2; stroke-linecap: square"/>
   </g>
   <g id="line2d_41">
    <path d="M 495.036665 298.693209 
L 495.234487 296.907776 
L 495.421993 294.765264 
L 495.605252 291.978222 
L 495.78669 288.949474 
L 495.967521 285.759688 
L 496.15078 282.472434 
L 496.331004 279.114416 
L 496.513656 275.704617 
L 496.694487 272.254565 
L 496.875925 268.772557 
L 497.05615 265.264467 
L 497.238195 261.734712 
L 497.417812 258.186661 
L 497.598644 254.622956 
L 497.778868 251.045704 
L 497.960306 247.456611 
L 498.141744 243.857082 
L 498.321969 240.248285 
L 498.501586 236.631202 
L 498.681811 233.006666 
L 498.862035 229.375391 
L 499.041046 225.737994 
L 499.221271 222.09501 
L 499.403316 218.446907 
L 499.585361 214.794096 
L 499.765585 211.136942 
L 499.945809 207.475766 
L 500.126034 203.810859 
L 500.306865 200.142478 
L 500.487697 196.470855 
L 500.667921 192.796201 
L 500.848752 189.118707 
L 501.02837 185.438544 
L 501.207381 181.75587 
L 501.387605 178.070829 
L 501.567223 174.383553 
L 501.746841 170.694164 
L 501.942235 167.002772 
L 502.167364 163.309482 
L 502.365186 159.614387 
L 502.58182 155.917577 
L 502.777822 152.219133 
L 502.991421 148.519131 
L 503.186816 144.817643 
L 503.399202 141.114735 
L 503.59399 137.410468 
L 503.803948 133.704901 
L 503.998129 129.998088 
L 504.243283 126.290079 
L 504.439892 122.580924 
L 504.644996 118.870666 
L 504.839784 115.159349 
L 505.046101 111.447012 
L 505.240889 107.733693 
L 505.44478 104.019428 
L 505.637747 100.304252 
L 505.881081 96.588195 
L 506.077082 92.871288 
L 506.293109 89.153561 
L 506.48729 85.435041 
L 506.699676 81.715753 
L 506.89143 77.995723 
L 507.103209 74.274974 
L 507.299817 70.553528 
L 507.515844 66.831408 
L 507.711239 63.108633 
L 507.923625 59.385223 
L 508.117199 55.661197 
L 508.328371 51.936573 
L 508.524373 48.211368 
L 508.734938 44.485598 
L 508.929119 40.759279 
L 509.137864 37.032426 
L 509.332652 33.305053 
L 509.543218 29.577175 
L 509.739219 25.848805 
L 509.950998 22.119955 
L 510.14518 18.390638 
L 510.355138 14.660866 
L 510.549319 10.930649 
L 510.759885 7.2 
" style="fill: none; stroke: #7ad151; stroke-width: 2; stroke-linecap: square"/>
   </g>
   <g id="patch_6">
    <path d="M 483.036665 376.284906 
L 483.036665 59.320041 
" style="fill: none; stroke: #5a5758; stroke-width: 0.8; stroke-linejoin: miter; stroke-linecap: square"/>
   </g>
   <g id="patch_7">
    <path d="M 495.036665 388.284906 
L 858.138607 388.284906 
" style="fill: none; stroke: #5a5758; stroke-width: 0.8; stroke-linejoin: miter; stroke-linecap: square"/>
   </g>
  </g>
 </g>
</svg>