<?xml version="1.0" encoding="utf-8" standalone="no"?>
<!DOCTYPE svg PUBLIC "-//W3C//DTD SVG 1.1//EN"
  "http://www.w3.org/Graphics/SVG/1.1/DTD/svg11.dtd">
<svg xmlns:xlink="http://www.w3.org/1999/xlink" width="728.39952pt" height="440.39952pt" viewBox="0 0 728.39952 440.39952" xmlns="http://www.w3.org/2000/svg" version="1.1">
 <metadata>
  <rdf:RDF xmlns:dc="http://purl.org/dc/elements/1.1/" xmlns:cc="http://creativecommons.org/ns#" xmlns:rdf="http://www.w3.org/1999/02/22-rdf-syntax-ns#">
   <cc:Work>
    <dc:type rdf:resource="http://purl.org/dc/dcmitype/StillImage"/>
    <dc:date>2024-10-28T14:45:16.927317</dc:date>
    <dc:format>image/svg+xml</dc:format>
    <dc:creator>
     <cc:Agent>
      <dc:title>Matplotlib v3.9.2, https://matplotlib.org/</dc:title>
     </cc:Agent>
    </dc:creator>
   </cc:Work>
  </rdf:RDF>
 </metadata>
 <defs>
  <style type="text/css">*{stroke-linejoin: round; stroke-linecap: butt}</style>
 </defs>
 <g id="figure_1">
  <g id="patch_1">
   <path d="M 0 440.39952 
L 728.39952 440.39952 
L 728.39952 0 
L 0 0 
z
" style="fill: #ffffff"/>
  </g>
  <g id="axes_1">
   <g id="patch_2">
    <path d="M 63.682417 377.757661 
L 463.436708 377.757661 
L 463.436708 12.410415 
L 63.682417 12.410415 
z
" style="fill: #ffffff"/>
   </g>
   <g id="PolyCollection_1">
    <defs>
     <path id="mce4b015354" d="M 63.682417 -427.989105 
L 63.682417 -62.641859 
L 65.681188 -62.641859 
L 67.679959 -62.641859 
L 69.678731 -62.641859 
L 71.677502 -62.641859 
L 73.676274 -62.641859 
L 75.675045 -62.641859 
L 77.673817 -62.641859 
L 79.672588 -62.641859 
L 81.67136 -62.641859 
L 83.670131 -62.641859 
L 85.668903 -62.641859 
L 87.667674 -62.641859 
L 89.666445 -62.641859 
L 91.665217 -62.641859 
L 93.663988 -62.641859 
L 95.66276 -62.641859 
L 97.661531 -62.641859 
L 99.660303 -62.641859 
L 101.659074 -62.641859 
L 103.657846 -62.641859 
L 105.656617 -62.641859 
L 107.655389 -62.641859 
L 109.65416 -62.641859 
L 111.652931 -62.641859 
L 113.651703 -62.641859 
L 115.650474 -62.641859 
L 117.649246 -62.641859 
L 119.648017 -62.641859 
L 121.646789 -62.641859 
L 123.64556 -62.641859 
L 125.644332 -62.641859 
L 127.643103 -62.641859 
L 129.641875 -62.641859 
L 131.640646 -62.641859 
L 133.639417 -62.641859 
L 135.638189 -62.641859 
L 137.63696 -62.641859 
L 139.635732 -62.641859 
L 141.634503 -62.641859 
L 143.633275 -62.641859 
L 145.632046 -62.641859 
L 147.630818 -62.641859 
L 149.629589 -62.641859 
L 151.628361 -62.641859 
L 153.627132 -62.641859 
L 155.625903 -62.641859 
L 157.624675 -62.641859 
L 159.623446 -62.641859 
L 161.622218 -62.641859 
L 163.620989 -62.641859 
L 165.619761 -62.641859 
L 167.618532 -62.641859 
L 169.617304 -62.641859 
L 171.616075 -62.641859 
L 173.614847 -62.641859 
L 175.613618 -62.641859 
L 177.612389 -62.641859 
L 179.611161 -62.641859 
L 181.609932 -62.641859 
L 183.608704 -62.641859 
L 185.607475 -62.641859 
L 187.606247 -62.641859 
L 189.605018 -62.641859 
L 191.60379 -62.641859 
L 193.602561 -62.641859 
L 195.601333 -62.641859 
L 197.600104 -62.641859 
L 199.598875 -62.641859 
L 201.597647 -62.641859 
L 203.596418 -62.641859 
L 205.59519 -62.641859 
L 207.593961 -62.641859 
L 209.592733 -62.641859 
L 211.591504 -62.641859 
L 213.590276 -62.641859 
L 215.589047 -62.641859 
L 217.587819 -62.641859 
L 219.58659 -62.641859 
L 221.585361 -62.641859 
L 223.584133 -62.641859 
L 225.582904 -62.641859 
L 227.581676 -62.641859 
L 229.580447 -62.641859 
L 231.579219 -62.641859 
L 233.57799 -62.641859 
L 235.576762 -62.641859 
L 237.575533 -62.641859 
L 239.574305 -62.641859 
L 241.573076 -62.641859 
L 243.571847 -62.641859 
L 245.570619 -62.641859 
L 247.56939 -62.641859 
L 249.568162 -62.641859 
L 251.566933 -62.641859 
L 253.565705 -62.641859 
L 255.564476 -62.641859 
L 257.563248 -62.641859 
L 259.562019 -62.641859 
L 261.560791 -62.641859 
L 263.559562 -62.641859 
L 265.558333 -62.641859 
L 267.557105 -62.641859 
L 269.555876 -62.641859 
L 271.554648 -62.641859 
L 273.553419 -62.641859 
L 275.552191 -62.641859 
L 277.550962 -62.641859 
L 279.549734 -62.641859 
L 281.548505 -62.641859 
L 283.547277 -62.641859 
L 285.546048 -62.641859 
L 287.544819 -62.641859 
L 289.543591 -62.641859 
L 291.542362 -62.641859 
L 293.541134 -62.641859 
L 295.539905 -62.641859 
L 297.538677 -62.641859 
L 299.537448 -62.641859 
L 301.53622 -62.641859 
L 303.534991 -62.641859 
L 305.533763 -62.641859 
L 307.532534 -62.641859 
L 309.531305 -62.641859 
L 311.530077 -62.641859 
L 313.528848 -62.641859 
L 315.52762 -62.641859 
L 317.526391 -62.641859 
L 319.525163 -62.641859 
L 321.523934 -62.641859 
L 323.522706 -62.641859 
L 325.521477 -62.641859 
L 327.520249 -62.641859 
L 329.51902 -62.641859 
L 331.517791 -62.641859 
L 333.516563 -62.641859 
L 335.515334 -62.641859 
L 337.514106 -62.641859 
L 339.512877 -62.641859 
L 341.511649 -62.641859 
L 343.51042 -62.641859 
L 345.509192 -62.641859 
L 347.507963 -62.641859 
L 349.506735 -62.641859 
L 351.505506 -62.641859 
L 353.504277 -62.641859 
L 355.503049 -62.641859 
L 357.50182 -62.641859 
L 359.500592 -62.641859 
L 361.499363 -62.641859 
L 363.498135 -62.641859 
L 365.496906 -62.641859 
L 367.495678 -62.641859 
L 369.494449 -62.641859 
L 371.493221 -62.641859 
L 373.491992 -62.641859 
L 375.490763 -62.641859 
L 377.489535 -62.641859 
L 379.488306 -62.641859 
L 381.487078 -62.641859 
L 383.485849 -62.641859 
L 385.484621 -62.641859 
L 387.483392 -62.641859 
L 389.482164 -62.641859 
L 391.480935 -62.641859 
L 393.479707 -62.641859 
L 395.478478 -62.641859 
L 397.477249 -62.641859 
L 399.476021 -62.641859 
L 401.474792 -62.641859 
L 403.473564 -62.641859 
L 405.472335 -62.641859 
L 407.471107 -62.641859 
L 409.469878 -62.641859 
L 411.46865 -62.641859 
L 413.467421 -62.641859 
L 415.466193 -62.641859 
L 417.464964 -62.641859 
L 419.463735 -62.641859 
L 421.462507 -62.641859 
L 423.461278 -62.641859 
L 425.46005 -62.641859 
L 427.458821 -62.641859 
L 429.457593 -62.641859 
L 431.456364 -62.641859 
L 433.455136 -62.641859 
L 435.453907 -62.641859 
L 437.452679 -62.641859 
L 439.45145 -62.641859 
L 441.450221 -62.641859 
L 443.448993 -62.641859 
L 445.447764 -62.641859 
L 447.446536 -62.641859 
L 449.445307 -62.641859 
L 451.444079 -62.641859 
L 453.44285 -62.641859 
L 455.441622 -62.641859 
L 457.440393 -62.641859 
L 459.439165 -62.641859 
L 461.437936 -62.641859 
L 463.436708 -62.641859 
L 463.436708 -427.989105 
L 463.436708 -427.989105 
L 461.437936 -420.718695 
L 459.439165 -413.521354 
L 457.440393 -406.397083 
L 455.441622 -399.345881 
L 453.44285 -392.367749 
L 451.444079 -385.462686 
L 449.445307 -378.630692 
L 447.446536 -371.871768 
L 445.447764 -365.185913 
L 443.448993 -358.573128 
L 441.450221 -352.033413 
L 439.45145 -345.566766 
L 437.452679 -339.17319 
L 435.453907 -332.852682 
L 433.455136 -326.605244 
L 431.456364 -320.430876 
L 429.457593 -314.329577 
L 427.458821 -308.301347 
L 425.46005 -302.346187 
L 423.461278 -296.464096 
L 421.462507 -290.655075 
L 419.463735 -284.919123 
L 417.464964 -279.256241 
L 415.466193 -273.666428 
L 413.467421 -268.149685 
L 411.46865 -262.706011 
L 409.469878 -257.335406 
L 407.471107 -252.037871 
L 405.472335 -246.813406 
L 403.473564 -241.66201 
L 401.474792 -236.583683 
L 399.476021 -231.578426 
L 397.477249 -226.646238 
L 395.478478 -221.787119 
L 393.479707 -217.00107 
L 391.480935 -212.288091 
L 389.482164 -207.648181 
L 387.483392 -203.08134 
L 385.484621 -198.587569 
L 383.485849 -194.166868 
L 381.487078 -189.819235 
L 379.488306 -185.544673 
L 377.489535 -181.343179 
L 375.490763 -177.214755 
L 373.491992 -173.159401 
L 371.493221 -169.177116 
L 369.494449 -165.2679 
L 367.495678 -161.431754 
L 365.496906 -157.668678 
L 363.498135 -153.978671 
L 361.499363 -150.361733 
L 359.500592 -146.817865 
L 357.50182 -143.347066 
L 355.503049 -139.949336 
L 353.504277 -136.624676 
L 351.505506 -133.373086 
L 349.506735 -130.194565 
L 347.507963 -127.089113 
L 345.509192 -124.056731 
L 343.51042 -121.097418 
L 341.511649 -118.211175 
L 339.512877 -115.398001 
L 337.514106 -112.657897 
L 335.515334 -109.990862 
L 333.516563 -107.396897 
L 331.517791 -104.876001 
L 329.51902 -102.428174 
L 327.520249 -100.053417 
L 325.521477 -97.751729 
L 323.522706 -95.523111 
L 321.523934 -93.367562 
L 319.525163 -91.285083 
L 317.526391 -89.275673 
L 315.52762 -87.339333 
L 313.528848 -85.476062 
L 311.530077 -83.68586 
L 309.531305 -81.968728 
L 307.532534 -80.324666 
L 305.533763 -78.753673 
L 303.534991 -77.255749 
L 301.53622 -75.830895 
L 299.537448 -74.47911 
L 297.538677 -73.200394 
L 295.539905 -71.994749 
L 293.541134 -70.862172 
L 291.542362 -69.802665 
L 289.543591 -68.816228 
L 287.544819 -67.902859 
L 285.546048 -67.062561 
L 283.547277 -66.295332 
L 281.548505 -65.601172 
L 279.549734 -64.980081 
L 277.550962 -64.432061 
L 275.552191 -63.957109 
L 273.553419 -63.555227 
L 271.554648 -63.226415 
L 269.555876 -62.970672 
L 267.557105 -62.787998 
L 265.558333 -62.678394 
L 263.559562 -62.641859 
L 261.560791 -62.678394 
L 259.562019 -62.787998 
L 257.563248 -62.970672 
L 255.564476 -63.226415 
L 253.565705 -63.555227 
L 251.566933 -63.957109 
L 249.568162 -64.432061 
L 247.56939 -64.980081 
L 245.570619 -65.601172 
L 243.571847 -66.295332 
L 241.573076 -67.062561 
L 239.574305 -67.902859 
L 237.575533 -68.816228 
L 235.576762 -69.802665 
L 233.57799 -70.862172 
L 231.579219 -71.994749 
L 229.580447 -73.200394 
L 227.581676 -74.47911 
L 225.582904 -75.830895 
L 223.584133 -77.255749 
L 221.585361 -78.753673 
L 219.58659 -80.324666 
L 217.587819 -81.968728 
L 215.589047 -83.68586 
L 213.590276 -85.476062 
L 211.591504 -87.339333 
L 209.592733 -89.275673 
L 207.593961 -91.285083 
L 205.59519 -93.367562 
L 203.596418 -95.523111 
L 201.597647 -97.751729 
L 199.598875 -100.053417 
L 197.600104 -102.428174 
L 195.601333 -104.876001 
L 193.602561 -107.396897 
L 191.60379 -109.990862 
L 189.605018 -112.657897 
L 187.606247 -115.398001 
L 185.607475 -118.211175 
L 183.608704 -121.097418 
L 181.609932 -124.056731 
L 179.611161 -127.089113 
L 177.612389 -130.194565 
L 175.613618 -133.373086 
L 173.614847 -136.624676 
L 171.616075 -139.949336 
L 169.617304 -143.347066 
L 167.618532 -146.817865 
L 165.619761 -150.361733 
L 163.620989 -153.978671 
L 161.622218 -157.668678 
L 159.623446 -161.431754 
L 157.624675 -165.2679 
L 155.625903 -169.177116 
L 153.627132 -173.159401 
L 151.628361 -177.214755 
L 149.629589 -181.343179 
L 147.630818 -185.544673 
L 145.632046 -189.819235 
L 143.633275 -194.166868 
L 141.634503 -198.587569 
L 139.635732 -203.08134 
L 137.63696 -207.648181 
L 135.638189 -212.288091 
L 133.639417 -217.00107 
L 131.640646 -221.787119 
L 129.641875 -226.646238 
L 127.643103 -231.578426 
L 125.644332 -236.583683 
L 123.64556 -241.66201 
L 121.646789 -246.813406 
L 119.648017 -252.037871 
L 117.649246 -257.335406 
L 115.650474 -262.706011 
L 113.651703 -268.149685 
L 111.652931 -273.666428 
L 109.65416 -279.256241 
L 107.655389 -284.919123 
L 105.656617 -290.655075 
L 103.657846 -296.464096 
L 101.659074 -302.346187 
L 99.660303 -308.301347 
L 97.661531 -314.329577 
L 95.66276 -320.430876 
L 93.663988 -326.605244 
L 91.665217 -332.852682 
L 89.666445 -339.17319 
L 87.667674 -345.566766 
L 85.668903 -352.033413 
L 83.670131 -358.573128 
L 81.67136 -365.185913 
L 79.672588 -371.871768 
L 77.673817 -378.630692 
L 75.675045 -385.462686 
L 73.676274 -392.367749 
L 71.677502 -399.345881 
L 69.678731 -406.397083 
L 67.679959 -413.521354 
L 65.681188 -420.718695 
L 63.682417 -427.989105 
z
" style="stroke: #e21a1a; stroke-opacity: 0.5"/>
    </defs>
    <g clip-path="url(#pff4f35c2e8)">
     <use xlink:href="#mce4b015354" x="0" y="440.39952" style="fill: #e21a1a; fill-opacity: 0.5; stroke: #e21a1a; stroke-opacity: 0.5"/>
    </g>
   </g>
   <g id="PolyCollection_2">
    <defs>
     <path id="m1c9098481b" d="M 63.682417 -427.989105 
L 63.682417 -427.989105 
L 65.681188 -424.335633 
L 67.679959 -420.68216 
L 69.678731 -417.028688 
L 71.677502 -413.375215 
L 73.676274 -409.721743 
L 75.675045 -406.06827 
L 77.673817 -402.414798 
L 79.672588 -398.761325 
L 81.67136 -395.107853 
L 83.670131 -391.45438 
L 85.668903 -387.800908 
L 87.667674 -384.147435 
L 89.666445 -380.493963 
L 91.665217 -376.840491 
L 93.663988 -373.187018 
L 95.66276 -369.533546 
L 97.661531 -365.880073 
L 99.660303 -362.226601 
L 101.659074 -358.573128 
L 103.657846 -354.919656 
L 105.656617 -351.266183 
L 107.655389 -347.612711 
L 109.65416 -343.959238 
L 111.652931 -340.305766 
L 113.651703 -336.652294 
L 115.650474 -332.998821 
L 117.649246 -329.345349 
L 119.648017 -325.691876 
L 121.646789 -322.038404 
L 123.64556 -318.384931 
L 125.644332 -314.731459 
L 127.643103 -311.077986 
L 129.641875 -307.424514 
L 131.640646 -303.771041 
L 133.639417 -300.117569 
L 135.638189 -296.464096 
L 137.63696 -292.810624 
L 139.635732 -289.157152 
L 141.634503 -285.503679 
L 143.633275 -281.850207 
L 145.632046 -278.196734 
L 147.630818 -274.543262 
L 149.629589 -270.889789 
L 151.628361 -267.236317 
L 153.627132 -263.582844 
L 155.625903 -259.929372 
L 157.624675 -256.275899 
L 159.623446 -252.622427 
L 161.622218 -248.968954 
L 163.620989 -245.315482 
L 165.619761 -241.66201 
L 167.618532 -238.008537 
L 169.617304 -234.355065 
L 171.616075 -230.701592 
L 173.614847 -227.04812 
L 175.613618 -223.394647 
L 177.612389 -219.741175 
L 179.611161 -216.087702 
L 181.609932 -212.43423 
L 183.608704 -208.780757 
L 185.607475 -205.127285 
L 187.606247 -201.473813 
L 189.605018 -197.82034 
L 191.60379 -194.166868 
L 193.602561 -190.513395 
L 195.601333 -186.859923 
L 197.600104 -183.20645 
L 199.598875 -179.552978 
L 201.597647 -175.899505 
L 203.596418 -172.246033 
L 205.59519 -168.59256 
L 207.593961 -164.939088 
L 209.592733 -161.285615 
L 211.591504 -157.632143 
L 213.590276 -153.978671 
L 215.589047 -150.325198 
L 217.587819 -146.671726 
L 219.58659 -143.018253 
L 221.585361 -139.364781 
L 223.584133 -135.711308 
L 225.582904 -132.057836 
L 227.581676 -128.404363 
L 229.580447 -124.750891 
L 231.579219 -121.097418 
L 233.57799 -117.443946 
L 235.576762 -113.790473 
L 237.575533 -110.137001 
L 239.574305 -106.483529 
L 241.573076 -102.830056 
L 243.571847 -99.176584 
L 245.570619 -95.523111 
L 247.56939 -91.869639 
L 249.568162 -88.216166 
L 251.566933 -84.562694 
L 253.565705 -80.909221 
L 255.564476 -77.255749 
L 257.563248 -73.602276 
L 259.562019 -69.948804 
L 261.560791 -66.295332 
L 263.559562 -62.641859 
L 265.558333 -66.295332 
L 267.557105 -69.948804 
L 269.555876 -73.602276 
L 271.554648 -77.255749 
L 273.553419 -80.909221 
L 275.552191 -84.562694 
L 277.550962 -88.216166 
L 279.549734 -91.869639 
L 281.548505 -95.523111 
L 283.547277 -99.176584 
L 285.546048 -102.830056 
L 287.544819 -106.483529 
L 289.543591 -110.137001 
L 291.542362 -113.790473 
L 293.541134 -117.443946 
L 295.539905 -121.097418 
L 297.538677 -124.750891 
L 299.537448 -128.404363 
L 301.53622 -132.057836 
L 303.534991 -135.711308 
L 305.533763 -139.364781 
L 307.532534 -143.018253 
L 309.531305 -146.671726 
L 311.530077 -150.325198 
L 313.528848 -153.978671 
L 315.52762 -157.632143 
L 317.526391 -161.285615 
L 319.525163 -164.939088 
L 321.523934 -168.59256 
L 323.522706 -172.246033 
L 325.521477 -175.899505 
L 327.520249 -179.552978 
L 329.51902 -183.20645 
L 331.517791 -186.859923 
L 333.516563 -190.513395 
L 335.515334 -194.166868 
L 337.514106 -197.82034 
L 339.512877 -201.473813 
L 341.511649 -205.127285 
L 343.51042 -208.780757 
L 345.509192 -212.43423 
L 347.507963 -216.087702 
L 349.506735 -219.741175 
L 351.505506 -223.394647 
L 353.504277 -227.04812 
L 355.503049 -230.701592 
L 357.50182 -234.355065 
L 359.500592 -238.008537 
L 361.499363 -241.66201 
L 363.498135 -245.315482 
L 365.496906 -248.968954 
L 367.495678 -252.622427 
L 369.494449 -256.275899 
L 371.493221 -259.929372 
L 373.491992 -263.582844 
L 375.490763 -267.236317 
L 377.489535 -270.889789 
L 379.488306 -274.543262 
L 381.487078 -278.196734 
L 383.485849 -281.850207 
L 385.484621 -285.503679 
L 387.483392 -289.157152 
L 389.482164 -292.810624 
L 391.480935 -296.464096 
L 393.479707 -300.117569 
L 395.478478 -303.771041 
L 397.477249 -307.424514 
L 399.476021 -311.077986 
L 401.474792 -314.731459 
L 403.473564 -318.384931 
L 405.472335 -322.038404 
L 407.471107 -325.691876 
L 409.469878 -329.345349 
L 411.46865 -332.998821 
L 413.467421 -336.652294 
L 415.466193 -340.305766 
L 417.464964 -343.959238 
L 419.463735 -347.612711 
L 421.462507 -351.266183 
L 423.461278 -354.919656 
L 425.46005 -358.573128 
L 427.458821 -362.226601 
L 429.457593 -365.880073 
L 431.456364 -369.533546 
L 433.455136 -373.187018 
L 435.453907 -376.840491 
L 437.452679 -380.493963 
L 439.45145 -384.147435 
L 441.450221 -387.800908 
L 443.448993 -391.45438 
L 445.447764 -395.107853 
L 447.446536 -398.761325 
L 449.445307 -402.414798 
L 451.444079 -406.06827 
L 453.44285 -409.721743 
L 455.441622 -413.375215 
L 457.440393 -417.028688 
L 459.439165 -420.68216 
L 461.437936 -424.335633 
L 463.436708 -427.989105 
L 463.436708 -427.989105 
L 463.436708 -427.989105 
L 461.437936 -427.989105 
L 459.439165 -427.989105 
L 457.440393 -427.989105 
L 455.441622 -427.989105 
L 453.44285 -427.989105 
L 451.444079 -427.989105 
L 449.445307 -427.989105 
L 447.446536 -427.989105 
L 445.447764 -427.989105 
L 443.448993 -427.989105 
L 441.450221 -427.989105 
L 439.45145 -427.989105 
L 437.452679 -427.989105 
L 435.453907 -427.989105 
L 433.455136 -427.989105 
L 431.456364 -427.989105 
L 429.457593 -427.989105 
L 427.458821 -427.989105 
L 425.46005 -427.989105 
L 423.461278 -427.989105 
L 421.462507 -427.989105 
L 419.463735 -427.989105 
L 417.464964 -427.989105 
L 415.466193 -427.989105 
L 413.467421 -427.989105 
L 411.46865 -427.989105 
L 409.469878 -427.989105 
L 407.471107 -427.989105 
L 405.472335 -427.989105 
L 403.473564 -427.989105 
L 401.474792 -427.989105 
L 399.476021 -427.989105 
L 397.477249 -427.989105 
L 395.478478 -427.989105 
L 393.479707 -427.989105 
L 391.480935 -427.989105 
L 389.482164 -427.989105 
L 387.483392 -427.989105 
L 385.484621 -427.989105 
L 383.485849 -427.989105 
L 381.487078 -427.989105 
L 379.488306 -427.989105 
L 377.489535 -427.989105 
L 375.490763 -427.989105 
L 373.491992 -427.989105 
L 371.493221 -427.989105 
L 369.494449 -427.989105 
L 367.495678 -427.989105 
L 365.496906 -427.989105 
L 363.498135 -427.989105 
L 361.499363 -427.989105 
L 359.500592 -427.989105 
L 357.50182 -427.989105 
L 355.503049 -427.989105 
L 353.504277 -427.989105 
L 351.505506 -427.989105 
L 349.506735 -427.989105 
L 347.507963 -427.989105 
L 345.509192 -427.989105 
L 343.51042 -427.989105 
L 341.511649 -427.989105 
L 339.512877 -427.989105 
L 337.514106 -427.989105 
L 335.515334 -427.989105 
L 333.516563 -427.989105 
L 331.517791 -427.989105 
L 329.51902 -427.989105 
L 327.520249 -427.989105 
L 325.521477 -427.989105 
L 323.522706 -427.989105 
L 321.523934 -427.989105 
L 319.525163 -427.989105 
L 317.526391 -427.989105 
L 315.52762 -427.989105 
L 313.528848 -427.989105 
L 311.530077 -427.989105 
L 309.531305 -427.989105 
L 307.532534 -427.989105 
L 305.533763 -427.989105 
L 303.534991 -427.989105 
L 301.53622 -427.989105 
L 299.537448 -427.989105 
L 297.538677 -427.989105 
L 295.539905 -427.989105 
L 293.541134 -427.989105 
L 291.542362 -427.989105 
L 289.543591 -427.989105 
L 287.544819 -427.989105 
L 285.546048 -427.989105 
L 283.547277 -427.989105 
L 281.548505 -427.989105 
L 279.549734 -427.989105 
L 277.550962 -427.989105 
L 275.552191 -427.989105 
L 273.553419 -427.989105 
L 271.554648 -427.989105 
L 269.555876 -427.989105 
L 267.557105 -427.989105 
L 265.558333 -427.989105 
L 263.559562 -427.989105 
L 261.560791 -427.989105 
L 259.562019 -427.989105 
L 257.563248 -427.989105 
L 255.564476 -427.989105 
L 253.565705 -427.989105 
L 251.566933 -427.989105 
L 249.568162 -427.989105 
L 247.56939 -427.989105 
L 245.570619 -427.989105 
L 243.571847 -427.989105 
L 241.573076 -427.989105 
L 239.574305 -427.989105 
L 237.575533 -427.989105 
L 235.576762 -427.989105 
L 233.57799 -427.989105 
L 231.579219 -427.989105 
L 229.580447 -427.989105 
L 227.581676 -427.989105 
L 225.582904 -427.989105 
L 223.584133 -427.989105 
L 221.585361 -427.989105 
L 219.58659 -427.989105 
L 217.587819 -427.989105 
L 215.589047 -427.989105 
L 213.590276 -427.989105 
L 211.591504 -427.989105 
L 209.592733 -427.989105 
L 207.593961 -427.989105 
L 205.59519 -427.989105 
L 203.596418 -427.989105 
L 201.597647 -427.989105 
L 199.598875 -427.989105 
L 197.600104 -427.989105 
L 195.601333 -427.989105 
L 193.602561 -427.989105 
L 191.60379 -427.989105 
L 189.605018 -427.989105 
L 187.606247 -427.989105 
L 185.607475 -427.989105 
L 183.608704 -427.989105 
L 181.609932 -427.989105 
L 179.611161 -427.989105 
L 177.612389 -427.989105 
L 175.613618 -427.989105 
L 173.614847 -427.989105 
L 171.616075 -427.989105 
L 169.617304 -427.989105 
L 167.618532 -427.989105 
L 165.619761 -427.989105 
L 163.620989 -427.989105 
L 161.622218 -427.989105 
L 159.623446 -427.989105 
L 157.624675 -427.989105 
L 155.625903 -427.989105 
L 153.627132 -427.989105 
L 151.628361 -427.989105 
L 149.629589 -427.989105 
L 147.630818 -427.989105 
L 145.632046 -427.989105 
L 143.633275 -427.989105 
L 141.634503 -427.989105 
L 139.635732 -427.989105 
L 137.63696 -427.989105 
L 135.638189 -427.989105 
L 133.639417 -427.989105 
L 131.640646 -427.989105 
L 129.641875 -427.989105 
L 127.643103 -427.989105 
L 125.644332 -427.989105 
L 123.64556 -427.989105 
L 121.646789 -427.989105 
L 119.648017 -427.989105 
L 117.649246 -427.989105 
L 115.650474 -427.989105 
L 113.651703 -427.989105 
L 111.652931 -427.989105 
L 109.65416 -427.989105 
L 107.655389 -427.989105 
L 105.656617 -427.989105 
L 103.657846 -427.989105 
L 101.659074 -427.989105 
L 99.660303 -427.989105 
L 97.661531 -427.989105 
L 95.66276 -427.989105 
L 93.663988 -427.989105 
L 91.665217 -427.989105 
L 89.666445 -427.989105 
L 87.667674 -427.989105 
L 85.668903 -427.989105 
L 83.670131 -427.989105 
L 81.67136 -427.989105 
L 79.672588 -427.989105 
L 77.673817 -427.989105 
L 75.675045 -427.989105 
L 73.676274 -427.989105 
L 71.677502 -427.989105 
L 69.678731 -427.989105 
L 67.679959 -427.989105 
L 65.681188 -427.989105 
L 63.682417 -427.989105 
z
" style="stroke: #1e90ff; stroke-opacity: 0.5"/>
    </defs>
    <g clip-path="url(#pff4f35c2e8)">
     <use xlink:href="#m1c9098481b" x="0" y="440.39952" style="fill: #1e90ff; fill-opacity: 0.5; stroke: #1e90ff; stroke-opacity: 0.5"/>
    </g>
   </g>
   <g id="matplotlib.axis_1">
    <g id="xtick_1">
     <g id="line2d_1">
      <defs>
       <path id="mfc5924676c" d="M 0 0 
L 0 3.5 
" style="stroke: #5a5758; stroke-width: 0.8"/>
      </defs>
      <g>
       <use xlink:href="#mfc5924676c" x="63.682417" y="389.757661" style="fill: #5a5758; stroke: #5a5758; stroke-width: 0.8"/>
      </g>
     </g>
     <g id="text_1">
      <!-- -1.00 -->
      <g style="fill: #5a5758" transform="translate(47.061333 407.178491) scale(0.14994 -0.14994)">
       <defs>
        <path id="CMUBright-Roman-2d" d="M 70 1350 
L 70 1670 
L 1862 1670 
L 1862 1350 
L 70 1350 
z
" transform="scale(0.015625)"/>
        <path id="CMUBright-Roman-31" d="M 672 3558 
L 672 3885 
Q 1427 3885 1862 4301 
L 1965 4301 
L 1965 320 
L 2803 320 
L 2803 0 
L 710 0 
L 710 320 
L 1549 320 
L 1549 3744 
Q 1178 3558 672 3558 
z
" transform="scale(0.015625)"/>
        <path id="CMUBright-Roman-2e" d="M 678 0 
L 678 499 
L 1178 499 
L 1178 0 
L 678 0 
z
" transform="scale(0.015625)"/>
        <path id="CMUBright-Roman-30" d="M 333 1984 
L 333 2086 
Q 333 2291 339 2438 
Q 346 2586 371 2832 
Q 397 3078 461 3267 
Q 525 3456 621 3657 
Q 717 3859 880 4006 
Q 1043 4154 1261 4230 
Q 1446 4301 1677 4301 
Q 1856 4301 2025 4256 
Q 2195 4211 2380 4070 
Q 2566 3930 2704 3709 
Q 2842 3488 2931 3104 
Q 3021 2720 3021 2214 
Q 3021 1683 2982 1347 
Q 2944 1011 2803 685 
Q 2618 250 2307 70 
Q 1997 -109 1677 -109 
Q 1498 -109 1328 -64 
Q 1158 -19 972 121 
Q 787 262 649 483 
Q 512 704 422 1091 
Q 333 1478 333 1984 
z
M 742 2413 
Q 742 2374 745 2326 
Q 749 2278 749 2272 
L 749 2150 
Q 749 1779 758 1548 
Q 768 1318 838 1014 
Q 909 710 1037 538 
Q 1286 218 1677 218 
Q 2086 218 2330 557 
Q 2451 730 2518 1037 
Q 2586 1344 2595 1568 
Q 2605 1792 2605 2163 
L 2605 2272 
Q 2605 2278 2608 2323 
Q 2611 2368 2611 2406 
Q 2611 3302 2336 3661 
Q 2099 3981 1677 3981 
Q 1242 3981 1005 3642 
Q 742 3264 742 2413 
z
" transform="scale(0.015625)"/>
       </defs>
       <use xlink:href="#CMUBright-Roman-2d"/>
       <use xlink:href="#CMUBright-Roman-31" x="34.999985"/>
       <use xlink:href="#CMUBright-Roman-2e" x="87.499969"/>
       <use xlink:href="#CMUBright-Roman-30" x="116.699966"/>
       <use xlink:href="#CMUBright-Roman-30" x="169.199951"/>
      </g>
     </g>
    </g>
    <g id="xtick_2">
     <g id="line2d_2">
      <g>
       <use xlink:href="#mfc5924676c" x="113.651703" y="389.757661" style="fill: #5a5758; stroke: #5a5758; stroke-width: 0.8"/>
      </g>
     </g>
     <g id="text_2">
      <!-- -0.75 -->
      <g style="fill: #5a5758" transform="translate(97.03062 407.178491) scale(0.14994 -0.14994)">
       <defs>
        <path id="CMUBright-Roman-37" d="M 275 3840 
L 275 4192 
L 3072 4192 
L 3072 3853 
Q 2400 3149 1958 2147 
Q 1517 1146 1517 -51 
L 1088 -51 
Q 1088 1030 1523 2048 
Q 1958 3066 2797 3840 
L 275 3840 
z
" transform="scale(0.015625)"/>
        <path id="CMUBright-Roman-35" d="M 301 518 
L 486 819 
Q 896 224 1581 224 
Q 1971 224 2268 473 
Q 2566 723 2566 1312 
Q 2566 1626 2489 1846 
Q 2413 2067 2285 2176 
Q 2157 2285 2032 2329 
Q 1907 2374 1773 2374 
Q 1210 2374 941 1901 
L 582 1901 
L 582 4192 
L 2797 4192 
L 2797 3853 
L 973 3853 
L 973 2381 
Q 1325 2701 1779 2701 
Q 2285 2701 2653 2291 
Q 3021 1882 3021 1306 
Q 3021 723 2601 307 
Q 2182 -109 1574 -109 
Q 813 -109 301 518 
z
" transform="scale(0.015625)"/>
       </defs>
       <use xlink:href="#CMUBright-Roman-2d"/>
       <use xlink:href="#CMUBright-Roman-30" x="34.999985"/>
       <use xlink:href="#CMUBright-Roman-2e" x="87.499969"/>
       <use xlink:href="#CMUBright-Roman-37" x="116.699966"/>
       <use xlink:href="#CMUBright-Roman-35" x="169.199951"/>
      </g>
     </g>
    </g>
    <g id="xtick_3">
     <g id="line2d_3">
      <g>
       <use xlink:href="#mfc5924676c" x="163.620989" y="389.757661" style="fill: #5a5758; stroke: #5a5758; stroke-width: 0.8"/>
      </g>
     </g>
     <g id="text_3">
      <!-- -0.50 -->
      <g style="fill: #5a5758" transform="translate(146.999906 407.178491) scale(0.14994 -0.14994)">
       <use xlink:href="#CMUBright-Roman-2d"/>
       <use xlink:href="#CMUBright-Roman-30" x="34.999985"/>
       <use xlink:href="#CMUBright-Roman-2e" x="87.499969"/>
       <use xlink:href="#CMUBright-Roman-35" x="116.699966"/>
       <use xlink:href="#CMUBright-Roman-30" x="169.199951"/>
      </g>
     </g>
    </g>
    <g id="xtick_4">
     <g id="line2d_4">
      <g>
       <use xlink:href="#mfc5924676c" x="213.590276" y="389.757661" style="fill: #5a5758; stroke: #5a5758; stroke-width: 0.8"/>
      </g>
     </g>
     <g id="text_4">
      <!-- -0.25 -->
      <g style="fill: #5a5758" transform="translate(196.969192 407.178491) scale(0.14994 -0.14994)">
       <defs>
        <path id="CMUBright-Roman-32" d="M 275 3226 
Q 595 4301 1587 4301 
L 1594 4301 
Q 2214 4294 2617 3923 
Q 3021 3552 3021 2989 
Q 3021 2746 2937 2531 
Q 2854 2317 2668 2115 
Q 2483 1914 2384 1821 
Q 2285 1728 2061 1549 
Q 1754 1299 1642 1203 
Q 1530 1107 698 358 
L 3021 358 
L 3021 0 
L 333 0 
L 333 339 
L 1683 1562 
Q 2144 1965 2368 2278 
Q 2592 2592 2592 2982 
Q 2592 3418 2278 3690 
Q 1965 3962 1498 3962 
Q 1069 3962 854 3693 
Q 640 3424 512 2938 
L 275 3226 
z
" transform="scale(0.015625)"/>
       </defs>
       <use xlink:href="#CMUBright-Roman-2d"/>
       <use xlink:href="#CMUBright-Roman-30" x="34.999985"/>
       <use xlink:href="#CMUBright-Roman-2e" x="87.499969"/>
       <use xlink:href="#CMUBright-Roman-32" x="116.699966"/>
       <use xlink:href="#CMUBright-Roman-35" x="169.199951"/>
      </g>
     </g>
    </g>
    <g id="xtick_5">
     <g id="line2d_5">
      <g>
       <use xlink:href="#mfc5924676c" x="263.559562" y="389.757661" style="fill: #5a5758; stroke: #5a5758; stroke-width: 0.8"/>
      </g>
     </g>
     <g id="text_5">
      <!-- 0.00 -->
      <g style="fill: #5a5758" transform="translate(249.562429 407.178491) scale(0.14994 -0.14994)">
       <use xlink:href="#CMUBright-Roman-30"/>
       <use xlink:href="#CMUBright-Roman-2e" x="52.499985"/>
       <use xlink:href="#CMUBright-Roman-30" x="81.699982"/>
       <use xlink:href="#CMUBright-Roman-30" x="134.199966"/>
      </g>
     </g>
    </g>
    <g id="xtick_6">
     <g id="line2d_6">
      <g>
       <use xlink:href="#mfc5924676c" x="313.528848" y="389.757661" style="fill: #5a5758; stroke: #5a5758; stroke-width: 0.8"/>
      </g>
     </g>
     <g id="text_6">
      <!-- 0.25 -->
      <g style="fill: #5a5758" transform="translate(299.531715 407.178491) scale(0.14994 -0.14994)">
       <use xlink:href="#CMUBright-Roman-30"/>
       <use xlink:href="#CMUBright-Roman-2e" x="52.499985"/>
       <use xlink:href="#CMUBright-Roman-32" x="81.699982"/>
       <use xlink:href="#CMUBright-Roman-35" x="134.199966"/>
      </g>
     </g>
    </g>
    <g id="xtick_7">
     <g id="line2d_7">
      <g>
       <use xlink:href="#mfc5924676c" x="363.498135" y="389.757661" style="fill: #5a5758; stroke: #5a5758; stroke-width: 0.8"/>
      </g>
     </g>
     <g id="text_7">
      <!-- 0.50 -->
      <g style="fill: #5a5758" transform="translate(349.501001 407.178491) scale(0.14994 -0.14994)">
       <use xlink:href="#CMUBright-Roman-30"/>
       <use xlink:href="#CMUBright-Roman-2e" x="52.499985"/>
       <use xlink:href="#CMUBright-Roman-35" x="81.699982"/>
       <use xlink:href="#CMUBright-Roman-30" x="134.199966"/>
      </g>
     </g>
    </g>
    <g id="xtick_8">
     <g id="line2d_8">
      <g>
       <use xlink:href="#mfc5924676c" x="413.467421" y="389.757661" style="fill: #5a5758; stroke: #5a5758; stroke-width: 0.8"/>
      </g>
     </g>
     <g id="text_8">
      <!-- 0.75 -->
      <g style="fill: #5a5758" transform="translate(399.470288 407.178491) scale(0.14994 -0.14994)">
       <use xlink:href="#CMUBright-Roman-30"/>
       <use xlink:href="#CMUBright-Roman-2e" x="52.499985"/>
       <use xlink:href="#CMUBright-Roman-37" x="81.699982"/>
       <use xlink:href="#CMUBright-Roman-35" x="134.199966"/>
      </g>
     </g>
    </g>
    <g id="xtick_9">
     <g id="line2d_9">
      <g>
       <use xlink:href="#mfc5924676c" x="463.436708" y="389.757661" style="fill: #5a5758; stroke: #5a5758; stroke-width: 0.8"/>
      </g>
     </g>
     <g id="text_9">
      <!-- 1.00 -->
      <g style="fill: #5a5758" transform="translate(449.439574 407.178491) scale(0.14994 -0.14994)">
       <use xlink:href="#CMUBright-Roman-31"/>
       <use xlink:href="#CMUBright-Roman-2e" x="52.499985"/>
       <use xlink:href="#CMUBright-Roman-30" x="81.699982"/>
       <use xlink:href="#CMUBright-Roman-30" x="134.199966"/>
      </g>
     </g>
    </g>
    <g id="text_10">
     <!-- $\sigma$ -->
     <g style="fill: #5a5758" transform="translate(258.159562 430.192957) scale(0.18 -0.18)">
      <defs>
       <path id="CMUBright-SemiBold-3c3" d="M 275 1485 
Q 275 2067 646 2502 
Q 1018 2938 1581 3008 
Q 1677 3021 1875 3021 
L 3635 3021 
L 3635 2406 
L 2963 2406 
Q 3258 1978 3258 1491 
Q 3258 845 2816 397 
Q 2374 -51 1766 -51 
Q 1158 -51 716 390 
Q 275 832 275 1485 
z
M 896 1485 
Q 896 1114 1142 838 
Q 1389 563 1766 563 
Q 2118 563 2380 828 
Q 2643 1094 2643 1485 
Q 2643 1882 2380 2144 
Q 2118 2406 1766 2406 
Q 1414 2406 1155 2144 
Q 896 1882 896 1485 
z
" transform="scale(0.015625)"/>
      </defs>
      <use xlink:href="#CMUBright-SemiBold-3c3" transform="translate(0 0.796875)"/>
     </g>
    </g>
   </g>
   <g id="matplotlib.axis_2">
    <g id="ytick_1">
     <g id="line2d_10">
      <defs>
       <path id="m3d0fd76c74" d="M 0 0 
L -3.5 0 
" style="stroke: #5a5758; stroke-width: 0.8"/>
      </defs>
      <g>
       <use xlink:href="#m3d0fd76c74" x="51.682417" y="377.757661" style="fill: #5a5758; stroke: #5a5758; stroke-width: 0.8"/>
      </g>
     </g>
     <g id="text_11">
      <!-- 0.0 -->
      <g style="fill: #5a5758" transform="translate(24.56 382.968076) scale(0.14994 -0.14994)">
       <use xlink:href="#CMUBright-Roman-30"/>
       <use xlink:href="#CMUBright-Roman-2e" x="52.499985"/>
       <use xlink:href="#CMUBright-Roman-30" x="81.699982"/>
      </g>
     </g>
    </g>
    <g id="ytick_2">
     <g id="line2d_11">
      <g>
       <use xlink:href="#m3d0fd76c74" x="51.682417" y="304.688212" style="fill: #5a5758; stroke: #5a5758; stroke-width: 0.8"/>
      </g>
     </g>
     <g id="text_12">
      <!-- 0.2 -->
      <g style="fill: #5a5758" transform="translate(24.56 309.898627) scale(0.14994 -0.14994)">
       <use xlink:href="#CMUBright-Roman-30"/>
       <use xlink:href="#CMUBright-Roman-2e" x="52.499985"/>
       <use xlink:href="#CMUBright-Roman-32" x="81.699982"/>
      </g>
     </g>
    </g>
    <g id="ytick_3">
     <g id="line2d_12">
      <g>
       <use xlink:href="#m3d0fd76c74" x="51.682417" y="231.618763" style="fill: #5a5758; stroke: #5a5758; stroke-width: 0.8"/>
      </g>
     </g>
     <g id="text_13">
      <!-- 0.4 -->
      <g style="fill: #5a5758" transform="translate(24.56 236.829178) scale(0.14994 -0.14994)">
       <defs>
        <path id="CMUBright-Roman-34" d="M 186 1158 
L 186 1504 
L 1952 4250 
L 2438 4250 
L 2438 1498 
L 3168 1498 
L 3168 1158 
L 2438 1158 
L 2438 0 
L 2035 0 
L 2035 1158 
L 186 1158 
z
M 602 1498 
L 2054 1498 
L 2054 3885 
Q 1971 3667 1606 3085 
L 602 1498 
z
" transform="scale(0.015625)"/>
       </defs>
       <use xlink:href="#CMUBright-Roman-30"/>
       <use xlink:href="#CMUBright-Roman-2e" x="52.499985"/>
       <use xlink:href="#CMUBright-Roman-34" x="81.699982"/>
      </g>
     </g>
    </g>
    <g id="ytick_4">
     <g id="line2d_13">
      <g>
       <use xlink:href="#m3d0fd76c74" x="51.682417" y="158.549313" style="fill: #5a5758; stroke: #5a5758; stroke-width: 0.8"/>
      </g>
     </g>
     <g id="text_14">
      <!-- 0.6 -->
      <g style="fill: #5a5758" transform="translate(24.56 163.759728) scale(0.14994 -0.14994)">
       <defs>
        <path id="CMUBright-Roman-36" d="M 346 2061 
Q 346 3072 864 3686 
Q 1382 4301 2074 4301 
L 2086 4301 
Q 2426 4301 2797 4179 
L 2797 3846 
Q 2374 3981 2074 3981 
L 2061 3981 
Q 1478 3981 1123 3491 
Q 768 3002 768 2208 
Q 768 2195 771 2166 
Q 774 2138 774 2125 
Q 928 2445 1238 2665 
Q 1549 2886 1952 2886 
Q 2387 2886 2682 2483 
Q 3008 2029 3008 1408 
Q 3008 768 2618 326 
Q 2240 -109 1690 -109 
Q 1510 -109 1340 -57 
Q 1171 -6 985 141 
Q 800 288 662 521 
Q 525 755 435 1152 
Q 346 1549 346 2061 
z
M 794 1389 
Q 813 1171 854 1004 
Q 896 838 985 643 
Q 1075 448 1254 336 
Q 1434 224 1690 224 
Q 2138 224 2381 550 
Q 2515 736 2550 921 
Q 2586 1107 2586 1434 
Q 2586 1645 2573 1776 
Q 2560 1907 2480 2089 
Q 2400 2272 2253 2400 
Q 2054 2566 1728 2566 
Q 1325 2566 1062 2265 
Q 800 1965 800 1555 
Q 800 1440 806 1389 
L 794 1389 
z
" transform="scale(0.015625)"/>
       </defs>
       <use xlink:href="#CMUBright-Roman-30"/>
       <use xlink:href="#CMUBright-Roman-2e" x="52.499985"/>
       <use xlink:href="#CMUBright-Roman-36" x="81.699982"/>
      </g>
     </g>
    </g>
    <g id="ytick_5">
     <g id="line2d_14">
      <g>
       <use xlink:href="#m3d0fd76c74" x="51.682417" y="85.479864" style="fill: #5a5758; stroke: #5a5758; stroke-width: 0.8"/>
      </g>
     </g>
     <g id="text_15">
      <!-- 0.8 -->
      <g style="fill: #5a5758" transform="translate(24.56 90.690279) scale(0.14994 -0.14994)">
       <defs>
        <path id="CMUBright-Roman-38" d="M 275 1158 
Q 275 1517 518 1817 
Q 762 2118 1248 2266 
Q 909 2349 640 2598 
Q 371 2848 371 3206 
Q 371 3642 745 3971 
Q 1120 4301 1677 4301 
Q 2221 4301 2601 3981 
Q 2982 3661 2982 3213 
Q 2982 2918 2787 2684 
Q 2592 2451 2285 2323 
L 2099 2266 
Q 2464 2176 2768 1885 
Q 3072 1594 3072 1158 
Q 3072 646 2665 268 
Q 2259 -109 1670 -109 
Q 1075 -109 675 275 
Q 275 659 275 1158 
z
M 698 1158 
Q 698 704 970 464 
Q 1242 224 1670 224 
Q 2118 224 2384 470 
Q 2650 717 2650 1165 
Q 2650 1619 2371 1862 
Q 2093 2106 1670 2106 
Q 1280 2106 989 1878 
Q 698 1651 698 1158 
z
M 755 3206 
Q 755 2886 982 2656 
Q 1210 2426 1670 2426 
Q 2093 2426 2342 2634 
Q 2592 2842 2592 3206 
Q 2592 3507 2387 3744 
Q 2182 3981 1683 3981 
Q 1171 3981 963 3744 
Q 755 3507 755 3206 
z
" transform="scale(0.015625)"/>
       </defs>
       <use xlink:href="#CMUBright-Roman-30"/>
       <use xlink:href="#CMUBright-Roman-2e" x="52.499985"/>
       <use xlink:href="#CMUBright-Roman-38" x="81.699982"/>
      </g>
     </g>
    </g>
    <g id="ytick_6">
     <g id="line2d_15">
      <g>
       <use xlink:href="#m3d0fd76c74" x="51.682417" y="12.410415" style="fill: #5a5758; stroke: #5a5758; stroke-width: 0.8"/>
      </g>
     </g>
     <g id="text_16">
      <!-- 1.0 -->
      <g style="fill: #5a5758" transform="translate(24.56 17.62083) scale(0.14994 -0.14994)">
       <use xlink:href="#CMUBright-Roman-31"/>
       <use xlink:href="#CMUBright-Roman-2e" x="52.499985"/>
       <use xlink:href="#CMUBright-Roman-30" x="81.699982"/>
      </g>
     </g>
    </g>
    <g id="text_17">
     <!-- $q$ -->
     <g style="fill: #5a5758" transform="translate(7.2 192.024038) scale(0.18 -0.18)">
      <defs>
       <path id="CMUBright-SemiBold-71" d="M 224 1504 
Q 224 2163 579 2617 
Q 934 3072 1440 3072 
Q 1920 3072 2285 2618 
L 2285 3072 
L 2886 3072 
L 2886 -1069 
L 2272 -1069 
L 2272 384 
Q 1862 -51 1363 -51 
Q 902 -51 563 390 
Q 224 832 224 1504 
z
M 838 1504 
Q 838 1062 1088 745 
Q 1338 429 1683 429 
Q 1894 429 2089 573 
Q 2285 717 2285 922 
L 2285 2035 
Q 2285 2240 2128 2409 
Q 1971 2579 1747 2579 
Q 1395 2579 1116 2275 
Q 838 1971 838 1504 
z
" transform="scale(0.015625)"/>
      </defs>
      <use xlink:href="#CMUBright-SemiBold-71"/>
     </g>
    </g>
   </g>
   <g id="line2d_16">
    <path d="M 63.682417 377.757661 
L 463.436708 377.757661 
L 463.436708 377.757661 
" style="fill: none; stroke: #e29400; stroke-width: 4; stroke-linecap: square"/>
   </g>
   <g id="line2d_17">
    <path d="M 63.682417 12.410415 
L 463.436708 12.410415 
L 463.436708 12.410415 
" style="fill: none; stroke: #1e90ff; stroke-width: 4; stroke-linecap: square"/>
   </g>
   <g id="line2d_18">
    <path d="M 63.682417 12.410415 
L 263.559562 377.757661 
L 463.436708 12.410415 
L 463.436708 12.410415 
" style="fill: none; stroke: #e21a1a; stroke-width: 4; stroke-linecap: square"/>
   </g>
   <g id="line2d_19">
    <path d="M 63.682417 12.410415 
L 69.678731 34.002437 
L 75.675045 54.936834 
L 81.67136 75.213607 
L 87.667674 94.832754 
L 93.663988 113.794276 
L 99.660303 132.098173 
L 105.656617 149.744445 
L 111.652931 166.733092 
L 117.649246 183.064114 
L 123.64556 198.73751 
L 129.641875 213.753282 
L 135.638189 228.111429 
L 141.634503 241.811951 
L 147.630818 254.854847 
L 153.627132 267.240119 
L 159.623446 278.967766 
L 165.619761 290.037787 
L 171.616075 300.450184 
L 175.613618 307.026434 
L 179.611161 313.310407 
L 183.608704 319.302102 
L 187.606247 325.001519 
L 191.60379 330.408658 
L 195.601333 335.523519 
L 199.598875 340.346103 
L 203.596418 344.876409 
L 207.593961 349.114437 
L 211.591504 353.060187 
L 215.589047 356.71366 
L 219.58659 360.074854 
L 223.584133 363.143771 
L 227.581676 365.92041 
L 231.579219 368.404771 
L 235.576762 370.596855 
L 239.574305 372.496661 
L 243.571847 374.104188 
L 247.56939 375.419439 
L 251.566933 376.442411 
L 255.564476 377.173105 
L 259.562019 377.611522 
L 263.559562 377.757661 
L 267.557105 377.611522 
L 271.554648 377.173105 
L 275.552191 376.442411 
L 279.549734 375.419439 
L 283.547277 374.104188 
L 287.544819 372.496661 
L 291.542362 370.596855 
L 295.539905 368.404771 
L 299.537448 365.92041 
L 303.534991 363.143771 
L 307.532534 360.074854 
L 311.530077 356.71366 
L 315.52762 353.060187 
L 319.525163 349.114437 
L 323.522706 344.876409 
L 327.520249 340.346103 
L 331.517791 335.523519 
L 335.515334 330.408658 
L 339.512877 325.001519 
L 343.51042 319.302102 
L 347.507963 313.310407 
L 351.505506 307.026434 
L 355.503049 300.450184 
L 359.500592 293.581655 
L 365.496906 282.730842 
L 371.493221 271.222404 
L 377.489535 259.056341 
L 383.485849 246.232652 
L 389.482164 232.751339 
L 395.478478 218.612401 
L 401.474792 203.815837 
L 407.471107 188.361649 
L 413.467421 172.249835 
L 419.463735 155.480397 
L 425.46005 138.053333 
L 431.456364 119.968644 
L 437.452679 101.22633 
L 443.448993 81.826392 
L 449.445307 61.768828 
L 455.441622 41.053639 
L 461.437936 19.680825 
L 463.436708 12.410415 
L 463.436708 12.410415 
" style="fill: none; stroke: #00a650; stroke-width: 4; stroke-linecap: square"/>
   </g>
   <g id="patch_3">
    <path d="M 51.682417 377.757661 
L 51.682417 12.410415 
" style="fill: none; stroke: #5a5758; stroke-width: 0.8; stroke-linejoin: miter; stroke-linecap: square"/>
   </g>
   <g id="patch_4">
    <path d="M 63.682417 389.757661 
L 463.436708 389.757661 
" style="fill: none; stroke: #5a5758; stroke-width: 0.8; stroke-linejoin: miter; stroke-linecap: square"/>
   </g>
   <g id="legend_1">
    <g id="patch_5">
     <path d="M 479.636708 41.210415 
L 515.636708 41.210415 
L 515.636708 28.610415 
L 479.636708 28.610415 
z
" style="fill: #e21a1a; fill-opacity: 0.5; stroke: #e21a1a; stroke-opacity: 0.5; stroke-linejoin: miter"/>
    </g>
    <g id="text_18">
     <!-- Unstable -->
     <g style="fill: #5a5758" transform="translate(530.036708 41.210415) scale(0.18 -0.18)">
      <defs>
       <path id="CMUBright-Roman-55" d="M 627 1581 
L 627 4448 
L 1075 4448 
L 1075 1549 
Q 1075 717 1594 397 
Q 1862 230 2221 230 
Q 2400 230 2569 278 
Q 2739 326 2937 454 
Q 3136 582 3257 860 
Q 3379 1139 3379 1536 
L 3379 4448 
L 3795 4448 
L 3795 1549 
Q 3795 774 3312 332 
Q 2829 -109 2221 -109 
Q 1632 -109 1184 275 
Q 736 659 646 1242 
Q 627 1357 627 1581 
z
" transform="scale(0.015625)"/>
       <path id="CMUBright-Roman-6e" d="M 512 0 
L 512 3021 
L 909 3021 
L 909 2400 
Q 1030 2682 1273 2877 
Q 1517 3072 1869 3072 
Q 2125 3072 2307 2992 
Q 2490 2912 2579 2809 
Q 2669 2707 2720 2540 
Q 2771 2374 2777 2272 
Q 2784 2170 2784 2016 
L 2784 0 
L 2374 0 
L 2374 1990 
Q 2374 2106 2371 2176 
Q 2368 2246 2329 2368 
Q 2291 2490 2220 2563 
Q 2150 2637 2006 2694 
Q 1862 2752 1658 2752 
Q 1370 2752 1149 2518 
Q 928 2285 928 1677 
L 928 0 
L 512 0 
z
" transform="scale(0.015625)"/>
       <path id="CMUBright-Roman-73" d="M 186 250 
L 250 621 
Q 787 282 1325 282 
Q 1715 282 1881 442 
Q 2048 602 2048 806 
Q 2048 998 1910 1120 
Q 1773 1242 1606 1299 
Q 1536 1318 1235 1372 
Q 934 1427 726 1523 
Q 518 1619 371 1818 
Q 224 2022 224 2253 
Q 224 2400 272 2531 
Q 320 2662 429 2800 
Q 538 2938 765 3021 
Q 992 3104 1312 3104 
L 1331 3104 
Q 1818 3104 2304 2886 
L 2240 2534 
Q 1747 2784 1267 2784 
Q 890 2784 742 2633 
Q 595 2483 595 2304 
Q 595 2163 697 2038 
Q 800 1914 998 1856 
Q 1037 1843 1344 1782 
Q 1651 1722 1760 1683 
Q 2029 1587 2224 1372 
Q 2419 1158 2419 845 
Q 2419 499 2172 224 
Q 1926 -51 1331 -51 
Q 736 -51 186 250 
z
" transform="scale(0.015625)"/>
       <path id="CMUBright-Roman-74" d="M 122 2701 
L 122 3021 
L 736 3021 
L 736 3885 
L 1126 3885 
L 1126 3021 
L 2118 3021 
L 2118 2701 
L 1126 2701 
L 1126 883 
Q 1126 282 1491 282 
Q 1568 282 1638 291 
Q 1709 301 1769 323 
Q 1830 346 1878 365 
Q 1926 384 1974 416 
Q 2022 448 2048 464 
Q 2074 480 2109 512 
Q 2144 544 2150 544 
L 2234 230 
Q 1779 -51 1261 -51 
Q 730 -51 730 838 
L 730 2701 
L 122 2701 
z
" transform="scale(0.015625)"/>
       <path id="CMUBright-Roman-61" d="M 352 736 
Q 352 896 435 1046 
Q 518 1197 707 1347 
Q 896 1498 1283 1590 
Q 1670 1683 2214 1696 
L 2214 1965 
Q 2214 2381 2042 2579 
Q 1856 2803 1568 2803 
Q 1331 2803 1107 2736 
Q 883 2669 809 2624 
Q 736 2579 557 2470 
L 525 2829 
Q 1043 3104 1574 3104 
Q 2054 3104 2326 2806 
Q 2598 2509 2624 2144 
L 2630 1926 
L 2630 0 
L 2227 0 
L 2227 442 
Q 1830 -51 1107 -51 
L 1062 -51 
Q 710 -51 531 205 
Q 352 461 352 736 
z
M 749 749 
Q 749 518 950 393 
Q 1152 269 1408 269 
Q 1523 269 1644 297 
Q 1766 326 1904 390 
Q 2042 454 2128 595 
Q 2214 736 2214 928 
L 2214 1498 
Q 1568 1491 1158 1286 
Q 749 1082 749 749 
z
" transform="scale(0.015625)"/>
       <path id="CMUBright-Roman-62" d="M 512 0 
L 512 4448 
L 915 4448 
L 915 2592 
Q 1312 3072 1875 3072 
Q 2349 3072 2675 2621 
Q 3002 2170 3002 1523 
Q 3002 858 2634 403 
Q 2266 -51 1754 -51 
Q 1261 -51 928 422 
L 928 0 
L 512 0 
z
M 922 838 
Q 922 634 1107 451 
Q 1293 269 1555 269 
Q 1728 269 1891 326 
Q 2054 384 2220 512 
Q 2387 640 2489 896 
Q 2592 1152 2592 1510 
Q 2592 1882 2493 2147 
Q 2394 2413 2234 2534 
Q 2074 2656 1926 2704 
Q 1779 2752 1632 2752 
Q 1293 2752 1050 2490 
Q 954 2362 941 2333 
Q 928 2304 928 2195 
L 928 928 
Q 928 909 925 883 
Q 922 858 922 838 
z
" transform="scale(0.015625)"/>
       <path id="CMUBright-Roman-6c" d="M 512 0 
L 512 4448 
L 915 4448 
L 915 0 
L 512 0 
z
" transform="scale(0.015625)"/>
       <path id="CMUBright-Roman-65" d="M 269 1536 
Q 269 2163 646 2630 
Q 1024 3098 1587 3098 
Q 1786 3098 1968 3037 
Q 2150 2976 2342 2829 
Q 2534 2682 2652 2365 
Q 2771 2048 2771 1600 
L 653 1600 
L 653 1549 
Q 653 966 966 617 
Q 1280 269 1690 269 
Q 2234 269 2726 710 
L 2758 358 
Q 2266 -51 1690 -51 
Q 1101 -51 685 406 
Q 269 864 269 1536 
z
M 685 1856 
L 2426 1856 
Q 2381 2342 2134 2560 
Q 1888 2778 1587 2778 
Q 1261 2778 1008 2515 
Q 755 2253 685 1856 
z
" transform="scale(0.015625)"/>
      </defs>
      <use xlink:href="#CMUBright-Roman-55"/>
      <use xlink:href="#CMUBright-Roman-6e" x="69.199982"/>
      <use xlink:href="#CMUBright-Roman-73" x="120.899979"/>
      <use xlink:href="#CMUBright-Roman-74" x="161.099976"/>
      <use xlink:href="#CMUBright-Roman-61" x="198.999969"/>
      <use xlink:href="#CMUBright-Roman-62" x="248.199966"/>
      <use xlink:href="#CMUBright-Roman-6c" x="299.899963"/>
      <use xlink:href="#CMUBright-Roman-65" x="322.399948"/>
     </g>
    </g>
    <g id="patch_6">
     <path d="M 479.636708 65.816977 
L 515.636708 65.816977 
L 515.636708 53.216977 
L 479.636708 53.216977 
z
" style="fill: #1e90ff; fill-opacity: 0.5; stroke: #1e90ff; stroke-opacity: 0.5; stroke-linejoin: miter"/>
    </g>
    <g id="text_19">
     <!-- Monotonicity preserving -->
     <g style="fill: #5a5758" transform="translate(530.036708 65.816977) scale(0.18 -0.18)">
      <defs>
       <path id="CMUBright-Roman-4d" d="M 646 0 
L 646 4448 
L 1235 4448 
L 2528 1274 
L 2822 518 
L 2912 774 
L 4397 4448 
L 4992 4448 
L 4992 0 
L 4589 0 
L 4589 4032 
L 4090 2752 
L 3008 109 
L 2624 109 
L 1280 3418 
L 1050 4032 
L 1050 0 
L 646 0 
z
" transform="scale(0.015625)"/>
       <path id="CMUBright-Roman-6f" d="M 256 1510 
Q 256 2182 675 2640 
Q 1094 3098 1677 3098 
Q 2272 3098 2681 2627 
Q 3091 2157 3091 1510 
Q 3091 838 2668 393 
Q 2246 -51 1677 -51 
Q 1088 -51 672 406 
Q 256 864 256 1510 
z
M 666 1587 
Q 666 1190 771 915 
Q 877 640 1046 512 
Q 1216 384 1369 333 
Q 1523 282 1677 282 
Q 1843 282 2006 342 
Q 2170 403 2330 537 
Q 2490 672 2586 937 
Q 2682 1203 2682 1568 
Q 2682 1914 2586 2163 
Q 2490 2413 2330 2541 
Q 2170 2669 2006 2723 
Q 1843 2778 1676 2778 
Q 1510 2778 1347 2723 
Q 1184 2669 1024 2544 
Q 864 2419 765 2172 
Q 666 1926 666 1587 
z
" transform="scale(0.015625)"/>
       <path id="CMUBright-Roman-69" d="M 509 4019 
L 509 4422 
L 912 4422 
L 912 4019 
L 509 4019 
z
M 512 0 
L 512 3021 
L 915 3021 
L 915 0 
L 512 0 
z
" transform="scale(0.015625)"/>
       <path id="CMUBright-Roman-63" d="M 294 1517 
Q 294 2157 691 2630 
Q 1088 3104 1709 3104 
Q 2042 3104 2250 3046 
Q 2458 2989 2758 2829 
L 2694 2477 
Q 2502 2592 2403 2640 
Q 2304 2688 2125 2729 
Q 1946 2771 1709 2771 
Q 1254 2771 982 2432 
Q 710 2093 710 1523 
Q 717 915 1008 598 
Q 1299 282 1696 282 
Q 1958 282 2192 365 
Q 2426 448 2525 518 
Q 2624 589 2765 710 
L 2797 352 
Q 2304 -51 1690 -51 
Q 1107 -51 700 403 
Q 294 858 294 1517 
z
" transform="scale(0.015625)"/>
       <path id="CMUBright-Roman-79" d="M 90 3021 
L 506 3021 
L 1171 1370 
Q 1446 640 1498 416 
Q 1542 723 2432 3021 
L 2835 3021 
L 1574 -250 
Q 1504 -435 1443 -553 
Q 1382 -672 1276 -819 
Q 1171 -966 1020 -1043 
Q 870 -1120 685 -1120 
Q 454 -1120 186 -1075 
L 154 -717 
Q 448 -794 685 -794 
Q 787 -794 873 -749 
Q 960 -704 1008 -665 
Q 1056 -627 1120 -499 
Q 1184 -371 1200 -326 
Q 1216 -282 1286 -102 
Q 1312 -32 1312 6 
Q 1312 38 1274 128 
L 90 3021 
z
" transform="scale(0.015625)"/>
       <path id="CMUBright-Roman-20" transform="scale(0.015625)"/>
       <path id="CMUBright-Roman-70" d="M 512 -1069 
L 512 3021 
L 915 3021 
L 915 2586 
Q 1318 3072 1888 3072 
Q 2355 3072 2678 2621 
Q 3002 2170 3002 1523 
Q 3002 826 2621 387 
Q 2240 -51 1754 -51 
Q 1530 -51 1328 61 
Q 1126 173 1075 237 
Q 1024 301 928 422 
L 928 -1069 
L 512 -1069 
z
M 928 832 
Q 928 634 1110 451 
Q 1293 269 1555 269 
Q 1971 269 2281 630 
Q 2592 992 2592 1517 
Q 2592 2022 2304 2384 
Q 2016 2746 1619 2746 
Q 1286 2746 1056 2490 
Q 960 2368 944 2333 
Q 928 2298 928 2189 
L 928 832 
z
" transform="scale(0.015625)"/>
       <path id="CMUBright-Roman-72" d="M 512 0 
L 512 3021 
L 896 3021 
L 896 2534 
L 902 2234 
Q 954 2362 1043 2490 
Q 1133 2618 1273 2755 
Q 1414 2893 1632 2979 
Q 1850 3066 2112 3072 
L 2112 2714 
Q 1907 2707 1708 2643 
Q 1510 2579 1324 2444 
Q 1139 2310 1027 2070 
Q 915 1830 915 1510 
L 915 0 
L 512 0 
z
" transform="scale(0.015625)"/>
       <path id="CMUBright-Roman-76" d="M 90 3021 
L 499 3021 
L 1466 416 
L 2432 3021 
L 2835 3021 
L 1696 -19 
L 1222 -19 
L 90 3021 
z
" transform="scale(0.015625)"/>
       <path id="CMUBright-Roman-67" d="M 294 1517 
Q 294 2176 675 2624 
Q 1056 3072 1555 3072 
Q 2074 3072 2381 2515 
L 2381 3072 
L 2784 3072 
L 2784 58 
Q 2784 -499 2461 -838 
Q 2138 -1178 1645 -1178 
Q 1056 -1178 461 -890 
L 461 -544 
Q 653 -640 771 -694 
Q 890 -749 1133 -803 
Q 1376 -858 1632 -858 
Q 1933 -858 2153 -627 
Q 2374 -397 2374 77 
L 2374 576 
L 2368 800 
Q 2266 538 2051 323 
Q 1837 109 1485 109 
Q 1005 109 649 515 
Q 294 922 294 1517 
z
M 710 1517 
Q 710 1050 1001 739 
Q 1293 429 1664 429 
Q 1862 429 2009 537 
Q 2157 646 2230 828 
Q 2304 1011 2339 1200 
Q 2374 1389 2374 1600 
L 2381 1600 
L 2381 2022 
Q 2381 2253 2214 2502 
Q 2048 2752 1741 2752 
Q 1331 2752 1020 2393 
Q 710 2035 710 1517 
z
" transform="scale(0.015625)"/>
      </defs>
      <use xlink:href="#CMUBright-Roman-4d"/>
      <use xlink:href="#CMUBright-Roman-6f" x="88.299988"/>
      <use xlink:href="#CMUBright-Roman-6e" x="140.799973"/>
      <use xlink:href="#CMUBright-Roman-6f" x="192.499969"/>
      <use xlink:href="#CMUBright-Roman-74" x="244.999954"/>
      <use xlink:href="#CMUBright-Roman-6f" x="282.899948"/>
      <use xlink:href="#CMUBright-Roman-6e" x="335.399933"/>
      <use xlink:href="#CMUBright-Roman-69" x="387.09993"/>
      <use xlink:href="#CMUBright-Roman-63" x="409.599915"/>
      <use xlink:href="#CMUBright-Roman-69" x="456.299911"/>
      <use xlink:href="#CMUBright-Roman-74" x="478.799896"/>
      <use xlink:href="#CMUBright-Roman-79" x="516.69989"/>
      <use xlink:href="#CMUBright-Roman-20" x="562.499878"/>
      <use xlink:href="#CMUBright-Roman-70" x="595.799866"/>
      <use xlink:href="#CMUBright-Roman-72" x="647.499863"/>
      <use xlink:href="#CMUBright-Roman-65" x="682.099854"/>
      <use xlink:href="#CMUBright-Roman-73" x="728.79985"/>
      <use xlink:href="#CMUBright-Roman-65" x="768.999847"/>
      <use xlink:href="#CMUBright-Roman-72" x="815.699844"/>
      <use xlink:href="#CMUBright-Roman-76" x="850.299835"/>
      <use xlink:href="#CMUBright-Roman-69" x="896.099823"/>
      <use xlink:href="#CMUBright-Roman-6e" x="918.599808"/>
      <use xlink:href="#CMUBright-Roman-67" x="970.299805"/>
     </g>
    </g>
    <g id="line2d_20">
     <path d="M 479.636708 84.430102 
L 497.636708 84.430102 
L 515.636708 84.430102 
" style="fill: none; stroke: #e29400; stroke-width: 4; stroke-linecap: square"/>
    </g>
    <g id="text_20">
     <!-- FTCS -->
     <g style="fill: #5a5758" transform="translate(530.036708 90.730102) scale(0.18 -0.18)">
      <defs>
       <path id="CMUBright-Roman-46" d="M 627 0 
L 627 4435 
L 3533 4435 
L 3533 4096 
L 1075 4096 
L 1075 2387 
L 3251 2387 
L 3251 2048 
L 1075 2048 
L 1075 0 
L 627 0 
z
" transform="scale(0.015625)"/>
       <path id="CMUBright-Roman-54" d="M 237 4090 
L 237 4429 
L 4390 4429 
L 4390 4090 
L 2541 4090 
L 2541 0 
L 2093 0 
L 2093 4090 
L 237 4090 
z
" transform="scale(0.015625)"/>
       <path id="CMUBright-Roman-43" d="M 777 1085 
Q 518 1613 518 2221 
Q 518 2829 777 3357 
Q 1037 3885 1533 4217 
Q 2029 4550 2643 4550 
Q 3251 4550 3878 4333 
L 3795 3891 
Q 3597 4000 3485 4051 
Q 3373 4102 3136 4156 
Q 2899 4211 2637 4211 
Q 1920 4211 1443 3625 
Q 966 3040 966 2221 
Q 966 1414 1440 822 
Q 1914 230 2643 230 
Q 2970 230 3222 297 
Q 3475 365 3568 413 
Q 3661 461 3917 621 
L 3949 250 
Q 3718 122 3590 61 
Q 3462 0 3212 -54 
Q 2963 -109 2643 -109 
Q 2029 -109 1533 224 
Q 1037 557 777 1085 
z
" transform="scale(0.015625)"/>
       <path id="CMUBright-Roman-53" d="M 294 339 
L 371 781 
Q 1082 256 1843 256 
Q 2342 256 2643 531 
Q 2944 806 2944 1152 
Q 2944 1402 2781 1622 
Q 2618 1843 2323 1958 
Q 2176 2016 1769 2096 
Q 1363 2176 1059 2317 
Q 755 2458 557 2746 
Q 365 3014 365 3341 
Q 365 3808 781 4179 
Q 1197 4550 1882 4550 
Q 2515 4550 3110 4243 
L 3034 3802 
Q 2848 3930 2745 3990 
Q 2643 4051 2400 4124 
Q 2157 4198 1882 4198 
Q 1389 4198 1081 3958 
Q 774 3718 774 3392 
Q 774 3168 931 2973 
Q 1088 2778 1376 2669 
Q 1491 2630 1910 2534 
Q 2330 2438 2438 2394 
Q 2899 2221 3126 1885 
Q 3354 1549 3354 1197 
Q 3354 678 2925 284 
Q 2496 -109 1837 -109 
Q 1030 -109 294 339 
z
" transform="scale(0.015625)"/>
      </defs>
      <use xlink:href="#CMUBright-Roman-46"/>
      <use xlink:href="#CMUBright-Roman-54" x="59.599991"/>
      <use xlink:href="#CMUBright-Roman-43" x="132.099976"/>
      <use xlink:href="#CMUBright-Roman-53" x="199.199966"/>
     </g>
    </g>
    <g id="line2d_21">
     <path d="M 479.636708 109.036665 
L 497.636708 109.036665 
L 515.636708 109.036665 
" style="fill: none; stroke: #1e90ff; stroke-width: 4; stroke-linecap: square"/>
    </g>
    <g id="text_21">
     <!-- Lax-Friedrichs -->
     <g style="fill: #5a5758" transform="translate(530.036708 115.336665) scale(0.18 -0.18)">
      <defs>
       <path id="CMUBright-Roman-4c" d="M 627 0 
L 627 4448 
L 1075 4448 
L 1075 339 
L 3347 339 
L 3347 0 
L 627 0 
z
" transform="scale(0.015625)"/>
       <path id="CMUBright-Roman-78" d="M 0 0 
L 1261 1555 
L 1261 1562 
L 38 3021 
L 499 3021 
L 1446 1850 
L 2362 3021 
L 2816 3021 
L 1626 1555 
L 2931 0 
L 2470 0 
L 1446 1325 
L 1440 1325 
L 454 0 
L 0 0 
z
" transform="scale(0.015625)"/>
       <path id="CMUBright-Roman-64" d="M 294 1510 
Q 294 2189 659 2630 
Q 1024 3072 1504 3072 
Q 2016 3072 2381 2624 
L 2381 4448 
L 2784 4448 
L 2784 0 
L 2374 0 
L 2374 269 
L 2368 467 
Q 2016 -51 1459 -51 
Q 966 -51 630 413 
Q 294 877 294 1510 
z
M 710 1510 
Q 710 1139 809 876 
Q 909 614 1065 492 
Q 1222 371 1369 320 
Q 1517 269 1664 269 
Q 2022 269 2259 582 
Q 2278 614 2304 652 
Q 2330 691 2339 707 
Q 2349 723 2358 752 
Q 2368 781 2371 816 
Q 2374 851 2374 902 
L 2374 2253 
Q 2374 2438 2179 2595 
Q 1984 2752 1722 2752 
Q 1619 2752 1504 2726 
Q 1389 2701 1241 2621 
Q 1094 2541 982 2413 
Q 870 2285 790 2048 
Q 710 1811 710 1510 
z
" transform="scale(0.015625)"/>
       <path id="CMUBright-Roman-68" d="M 512 0 
L 512 4448 
L 915 4448 
L 915 2694 
L 922 2419 
Q 1024 2662 1257 2867 
Q 1491 3072 1869 3072 
Q 2125 3072 2307 2995 
Q 2490 2918 2579 2816 
Q 2669 2714 2720 2547 
Q 2771 2381 2777 2275 
Q 2784 2170 2784 2016 
L 2784 0 
L 2374 0 
L 2374 1990 
Q 2374 2106 2371 2176 
Q 2368 2246 2329 2368 
Q 2291 2490 2220 2563 
Q 2150 2637 2006 2694 
Q 1862 2752 1658 2752 
Q 1370 2752 1149 2518 
Q 928 2285 928 1677 
L 928 0 
L 512 0 
z
" transform="scale(0.015625)"/>
      </defs>
      <use xlink:href="#CMUBright-Roman-4c"/>
      <use xlink:href="#CMUBright-Roman-61" x="56.699997"/>
      <use xlink:href="#CMUBright-Roman-78" x="105.899994"/>
      <use xlink:href="#CMUBright-Roman-2d" x="151.699982"/>
      <use xlink:href="#CMUBright-Roman-46" x="186.699966"/>
      <use xlink:href="#CMUBright-Roman-72" x="246.299957"/>
      <use xlink:href="#CMUBright-Roman-69" x="280.899948"/>
      <use xlink:href="#CMUBright-Roman-65" x="303.399933"/>
      <use xlink:href="#CMUBright-Roman-64" x="350.09993"/>
      <use xlink:href="#CMUBright-Roman-72" x="401.799927"/>
      <use xlink:href="#CMUBright-Roman-69" x="436.399918"/>
      <use xlink:href="#CMUBright-Roman-63" x="458.899902"/>
      <use xlink:href="#CMUBright-Roman-68" x="505.599899"/>
      <use xlink:href="#CMUBright-Roman-73" x="557.299896"/>
     </g>
    </g>
    <g id="line2d_22">
     <path d="M 479.636708 133.643227 
L 497.636708 133.643227 
L 515.636708 133.643227 
" style="fill: none; stroke: #e21a1a; stroke-width: 4; stroke-linecap: square"/>
    </g>
    <g id="text_22">
     <!-- FOU -->
     <g style="fill: #5a5758" transform="translate(530.036708 139.943227) scale(0.18 -0.18)">
      <defs>
       <path id="CMUBright-Roman-4f" d="M 371 2214 
Q 371 3200 1001 3875 
Q 1632 4550 2502 4550 
Q 3366 4550 4000 3875 
Q 4634 3200 4634 2214 
Q 4634 1229 4000 560 
Q 3366 -109 2502 -109 
Q 1638 -109 1004 563 
Q 371 1235 371 2214 
z
M 819 2298 
Q 819 1376 1318 803 
Q 1818 230 2502 230 
Q 3181 230 3683 793 
Q 4186 1357 4186 2298 
Q 4186 3181 3683 3699 
Q 3181 4218 2502 4218 
Q 1824 4218 1321 3702 
Q 819 3187 819 2298 
z
" transform="scale(0.015625)"/>
      </defs>
      <use xlink:href="#CMUBright-Roman-46"/>
      <use xlink:href="#CMUBright-Roman-4f" x="59.599991"/>
      <use xlink:href="#CMUBright-Roman-55" x="137.899979"/>
     </g>
    </g>
    <g id="line2d_23">
     <path d="M 479.636708 158.24979 
L 497.636708 158.24979 
L 515.636708 158.24979 
" style="fill: none; stroke: #00a650; stroke-width: 4; stroke-linecap: square"/>
    </g>
    <g id="text_23">
     <!-- Lax-Wendroff -->
     <g style="fill: #5a5758" transform="translate(530.036708 164.54979) scale(0.18 -0.18)">
      <defs>
       <path id="CMUBright-Roman-57" d="M 90 4448 
L 525 4448 
L 1338 1734 
Q 1670 595 1702 416 
L 1766 691 
L 2112 1894 
L 2874 4448 
L 3322 4448 
L 4026 2131 
Q 4480 570 4512 416 
Q 4531 538 4915 1843 
L 5696 4448 
L 6086 4448 
L 4730 -32 
L 4269 -32 
L 3290 3238 
L 3110 3872 
L 3078 4032 
L 3027 3789 
L 2701 2662 
L 1894 -32 
L 1446 -32 
L 90 4448 
z
" transform="scale(0.015625)"/>
       <path id="CMUBright-Roman-66" d="M 179 2701 
L 179 3021 
L 723 3021 
L 723 3430 
Q 723 3597 729 3680 
Q 736 3763 819 3939 
Q 902 4115 1069 4256 
Q 1363 4499 1798 4499 
Q 2022 4499 2323 4448 
L 2323 4083 
Q 2029 4173 1779 4173 
Q 1523 4173 1321 4067 
Q 1120 3962 1120 3712 
L 1120 3021 
L 1920 3021 
L 1920 2701 
L 1133 2701 
L 1133 0 
L 723 0 
L 723 2701 
L 179 2701 
z
" transform="scale(0.015625)"/>
      </defs>
      <use xlink:href="#CMUBright-Roman-4c"/>
      <use xlink:href="#CMUBright-Roman-61" x="56.699997"/>
      <use xlink:href="#CMUBright-Roman-78" x="105.899994"/>
      <use xlink:href="#CMUBright-Roman-2d" x="151.699982"/>
      <use xlink:href="#CMUBright-Roman-57" x="186.699966"/>
      <use xlink:href="#CMUBright-Roman-65" x="283.399948"/>
      <use xlink:href="#CMUBright-Roman-6e" x="330.099945"/>
      <use xlink:href="#CMUBright-Roman-64" x="381.799942"/>
      <use xlink:href="#CMUBright-Roman-72" x="433.499939"/>
      <use xlink:href="#CMUBright-Roman-6f" x="468.09993"/>
      <use xlink:href="#CMUBright-Roman-66" x="520.599915"/>
      <use xlink:href="#CMUBright-Roman-66" x="552.699905"/>
     </g>
    </g>
   </g>
  </g>
 </g>
 <defs>
  <clipPath id="pff4f35c2e8">
   <rect x="63.682417" y="12.410415" width="399.754291" height="365.347246"/>
  </clipPath>
 </defs>
</svg>