<?xml version="1.0" encoding="utf-8" standalone="no"?>
<!DOCTYPE svg PUBLIC "-//W3C//DTD SVG 1.1//EN"
  "http://www.w3.org/Graphics/SVG/1.1/DTD/svg11.dtd">
<svg xmlns:xlink="http://www.w3.org/1999/xlink" width="469.19952pt" height="353.99952pt" viewBox="0 0 469.19952 353.99952" xmlns="http://www.w3.org/2000/svg" version="1.1">
 <metadata>
  <rdf:RDF xmlns:dc="http://purl.org/dc/elements/1.1/" xmlns:cc="http://creativecommons.org/ns#" xmlns:rdf="http://www.w3.org/1999/02/22-rdf-syntax-ns#">
   <cc:Work>
    <dc:type rdf:resource="http://purl.org/dc/dcmitype/StillImage"/>
    <dc:date>2024-09-05T01:09:24.757811</dc:date>
    <dc:format>image/svg+xml</dc:format>
    <dc:creator>
     <cc:Agent>
      <dc:title>Matplotlib v3.9.2, https://matplotlib.org/</dc:title>
     </cc:Agent>
    </dc:creator>
   </cc:Work>
  </rdf:RDF>
 </metadata>
 <defs>
  <style type="text/css">*{stroke-linejoin: round; stroke-linecap: butt}</style>
 </defs>
 <g id="figure_1">
  <g id="patch_1">
   <path d="M 0 353.99952 
L 469.19952 353.99952 
L 469.19952 0 
L 0 0 
z
" style="fill: #ffffff"/>
  </g>
  <g id="axes_1">
   <g id="patch_2">
    <path d="M 47.1916 314.874223 
L 458.99952 314.874223 
L 458.99952 10.2 
L 47.1916 10.2 
z
" style="fill: #ffffff"/>
   </g>
   <g id="matplotlib.axis_1">
    <g id="xtick_1">
     <g id="line2d_1">
      <defs>
       <path id="m819e231b68" d="M 0 0 
L 0 3.5 
" style="stroke: #5a5758; stroke-width: 0.8"/>
      </defs>
      <g>
       <use xlink:href="#m819e231b68" x="100.692789" y="326.874223" style="fill: #5a5758; stroke: #5a5758; stroke-width: 0.8"/>
      </g>
     </g>
     <g id="text_1">
      <!-- -20 -->
      <g style="fill: #5a5758" transform="translate(90.196989 344.295053) scale(0.14994 -0.14994)">
       <defs>
        <path id="CMUBright-Roman-2d" d="M 70 1350 
L 70 1670 
L 1862 1670 
L 1862 1350 
L 70 1350 
z
" transform="scale(0.015625)"/>
        <path id="CMUBright-Roman-32" d="M 275 3226 
Q 595 4301 1587 4301 
L 1594 4301 
Q 2214 4294 2617 3923 
Q 3021 3552 3021 2989 
Q 3021 2746 2937 2531 
Q 2854 2317 2668 2115 
Q 2483 1914 2384 1821 
Q 2285 1728 2061 1549 
Q 1754 1299 1642 1203 
Q 1530 1107 698 358 
L 3021 358 
L 3021 0 
L 333 0 
L 333 339 
L 1683 1562 
Q 2144 1965 2368 2278 
Q 2592 2592 2592 2982 
Q 2592 3418 2278 3690 
Q 1965 3962 1498 3962 
Q 1069 3962 854 3693 
Q 640 3424 512 2938 
L 275 3226 
z
" transform="scale(0.015625)"/>
        <path id="CMUBright-Roman-30" d="M 333 1984 
L 333 2086 
Q 333 2291 339 2438 
Q 346 2586 371 2832 
Q 397 3078 461 3267 
Q 525 3456 621 3657 
Q 717 3859 880 4006 
Q 1043 4154 1261 4230 
Q 1446 4301 1677 4301 
Q 1856 4301 2025 4256 
Q 2195 4211 2380 4070 
Q 2566 3930 2704 3709 
Q 2842 3488 2931 3104 
Q 3021 2720 3021 2214 
Q 3021 1683 2982 1347 
Q 2944 1011 2803 685 
Q 2618 250 2307 70 
Q 1997 -109 1677 -109 
Q 1498 -109 1328 -64 
Q 1158 -19 972 121 
Q 787 262 649 483 
Q 512 704 422 1091 
Q 333 1478 333 1984 
z
M 742 2413 
Q 742 2374 745 2326 
Q 749 2278 749 2272 
L 749 2150 
Q 749 1779 758 1548 
Q 768 1318 838 1014 
Q 909 710 1037 538 
Q 1286 218 1677 218 
Q 2086 218 2330 557 
Q 2451 730 2518 1037 
Q 2586 1344 2595 1568 
Q 2605 1792 2605 2163 
L 2605 2272 
Q 2605 2278 2608 2323 
Q 2611 2368 2611 2406 
Q 2611 3302 2336 3661 
Q 2099 3981 1677 3981 
Q 1242 3981 1005 3642 
Q 742 3264 742 2413 
z
" transform="scale(0.015625)"/>
       </defs>
       <use xlink:href="#CMUBright-Roman-2d"/>
       <use xlink:href="#CMUBright-Roman-32" x="34.999985"/>
       <use xlink:href="#CMUBright-Roman-30" x="87.499969"/>
      </g>
     </g>
    </g>
    <g id="xtick_2">
     <g id="line2d_2">
      <g>
       <use xlink:href="#m819e231b68" x="177.122524" y="326.874223" style="fill: #5a5758; stroke: #5a5758; stroke-width: 0.8"/>
      </g>
     </g>
     <g id="text_2">
      <!-- -10 -->
      <g style="fill: #5a5758" transform="translate(166.626724 344.295053) scale(0.14994 -0.14994)">
       <defs>
        <path id="CMUBright-Roman-31" d="M 672 3558 
L 672 3885 
Q 1427 3885 1862 4301 
L 1965 4301 
L 1965 320 
L 2803 320 
L 2803 0 
L 710 0 
L 710 320 
L 1549 320 
L 1549 3744 
Q 1178 3558 672 3558 
z
" transform="scale(0.015625)"/>
       </defs>
       <use xlink:href="#CMUBright-Roman-2d"/>
       <use xlink:href="#CMUBright-Roman-31" x="34.999985"/>
       <use xlink:href="#CMUBright-Roman-30" x="87.499969"/>
      </g>
     </g>
    </g>
    <g id="xtick_3">
     <g id="line2d_3">
      <g>
       <use xlink:href="#m819e231b68" x="253.552258" y="326.874223" style="fill: #5a5758; stroke: #5a5758; stroke-width: 0.8"/>
      </g>
     </g>
     <g id="text_3">
      <!-- 0 -->
      <g style="fill: #5a5758" transform="translate(249.616333 344.295053) scale(0.14994 -0.14994)">
       <use xlink:href="#CMUBright-Roman-30"/>
      </g>
     </g>
    </g>
    <g id="xtick_4">
     <g id="line2d_4">
      <g>
       <use xlink:href="#m819e231b68" x="329.981993" y="326.874223" style="fill: #5a5758; stroke: #5a5758; stroke-width: 0.8"/>
      </g>
     </g>
     <g id="text_4">
      <!-- 10 -->
      <g style="fill: #5a5758" transform="translate(322.110143 344.295053) scale(0.14994 -0.14994)">
       <use xlink:href="#CMUBright-Roman-31"/>
       <use xlink:href="#CMUBright-Roman-30" x="52.499985"/>
      </g>
     </g>
    </g>
    <g id="xtick_5">
     <g id="line2d_5">
      <g>
       <use xlink:href="#m819e231b68" x="406.411728" y="326.874223" style="fill: #5a5758; stroke: #5a5758; stroke-width: 0.8"/>
      </g>
     </g>
     <g id="text_5">
      <!-- 20 -->
      <g style="fill: #5a5758" transform="translate(398.539878 344.295053) scale(0.14994 -0.14994)">
       <use xlink:href="#CMUBright-Roman-32"/>
       <use xlink:href="#CMUBright-Roman-30" x="52.499985"/>
      </g>
     </g>
    </g>
   </g>
   <g id="matplotlib.axis_2">
    <g id="ytick_1">
     <g id="line2d_6">
      <defs>
       <path id="m7cb2f891dc" d="M 0 0 
L -3.5 0 
" style="stroke: #5a5758; stroke-width: 0.8"/>
      </defs>
      <g>
       <use xlink:href="#m7cb2f891dc" x="35.1916" y="282.386689" style="fill: #5a5758; stroke: #5a5758; stroke-width: 0.8"/>
      </g>
     </g>
     <g id="text_6">
      <!-- -10 -->
      <g style="fill: #5a5758" transform="translate(7.2 287.597104) scale(0.14994 -0.14994)">
       <use xlink:href="#CMUBright-Roman-2d"/>
       <use xlink:href="#CMUBright-Roman-31" x="34.999985"/>
       <use xlink:href="#CMUBright-Roman-30" x="87.499969"/>
      </g>
     </g>
    </g>
    <g id="ytick_2">
     <g id="line2d_7">
      <g>
       <use xlink:href="#m7cb2f891dc" x="35.1916" y="232.968324" style="fill: #5a5758; stroke: #5a5758; stroke-width: 0.8"/>
      </g>
     </g>
     <g id="text_7">
      <!-- -5 -->
      <g style="fill: #5a5758" transform="translate(15.07185 238.178739) scale(0.14994 -0.14994)">
       <defs>
        <path id="CMUBright-Roman-35" d="M 301 518 
L 486 819 
Q 896 224 1581 224 
Q 1971 224 2268 473 
Q 2566 723 2566 1312 
Q 2566 1626 2489 1846 
Q 2413 2067 2285 2176 
Q 2157 2285 2032 2329 
Q 1907 2374 1773 2374 
Q 1210 2374 941 1901 
L 582 1901 
L 582 4192 
L 2797 4192 
L 2797 3853 
L 973 3853 
L 973 2381 
Q 1325 2701 1779 2701 
Q 2285 2701 2653 2291 
Q 3021 1882 3021 1306 
Q 3021 723 2601 307 
Q 2182 -109 1574 -109 
Q 813 -109 301 518 
z
" transform="scale(0.015625)"/>
       </defs>
       <use xlink:href="#CMUBright-Roman-2d"/>
       <use xlink:href="#CMUBright-Roman-35" x="34.999985"/>
      </g>
     </g>
    </g>
    <g id="ytick_3">
     <g id="line2d_8">
      <g>
       <use xlink:href="#m7cb2f891dc" x="35.1916" y="183.549959" style="fill: #5a5758; stroke: #5a5758; stroke-width: 0.8"/>
      </g>
     </g>
     <g id="text_8">
      <!-- 0 -->
      <g style="fill: #5a5758" transform="translate(20.31975 188.760374) scale(0.14994 -0.14994)">
       <use xlink:href="#CMUBright-Roman-30"/>
      </g>
     </g>
    </g>
    <g id="ytick_4">
     <g id="line2d_9">
      <g>
       <use xlink:href="#m7cb2f891dc" x="35.1916" y="134.131594" style="fill: #5a5758; stroke: #5a5758; stroke-width: 0.8"/>
      </g>
     </g>
     <g id="text_9">
      <!-- 5 -->
      <g style="fill: #5a5758" transform="translate(20.31975 139.342009) scale(0.14994 -0.14994)">
       <use xlink:href="#CMUBright-Roman-35"/>
      </g>
     </g>
    </g>
    <g id="ytick_5">
     <g id="line2d_10">
      <g>
       <use xlink:href="#m7cb2f891dc" x="35.1916" y="84.713229" style="fill: #5a5758; stroke: #5a5758; stroke-width: 0.8"/>
      </g>
     </g>
     <g id="text_10">
      <!-- 10 -->
      <g style="fill: #5a5758" transform="translate(12.4479 89.923644) scale(0.14994 -0.14994)">
       <use xlink:href="#CMUBright-Roman-31"/>
       <use xlink:href="#CMUBright-Roman-30" x="52.499985"/>
      </g>
     </g>
    </g>
    <g id="ytick_6">
     <g id="line2d_11">
      <g>
       <use xlink:href="#m7cb2f891dc" x="35.1916" y="35.294864" style="fill: #5a5758; stroke: #5a5758; stroke-width: 0.8"/>
      </g>
     </g>
     <g id="text_11">
      <!-- 15 -->
      <g style="fill: #5a5758" transform="translate(12.4479 40.505279) scale(0.14994 -0.14994)">
       <use xlink:href="#CMUBright-Roman-31"/>
       <use xlink:href="#CMUBright-Roman-35" x="52.499985"/>
      </g>
     </g>
    </g>
   </g>
   <g id="line2d_12">
    <defs>
     <path id="m2148544b7e" d="M 0 3 
C 0.795609 3 1.55874 2.683901 2.12132 2.12132 
C 2.683901 1.55874 3 0.795609 3 0 
C 3 -0.795609 2.683901 -1.55874 2.12132 -2.12132 
C 1.55874 -2.683901 0.795609 -3 0 -3 
C -0.795609 -3 -1.55874 -2.683901 -2.12132 -2.12132 
C -2.683901 -1.55874 -3 -0.795609 -3 0 
C -3 0.795609 -2.683901 1.55874 -2.12132 2.12132 
C -1.55874 2.683901 -0.795609 3 0 3 
z
" style="stroke: #ffffff"/>
    </defs>
    <g>
     <use xlink:href="#m2148544b7e" x="47.1916" y="195.778188" style="fill: #e29400; stroke: #ffffff"/>
     <use xlink:href="#m2148544b7e" x="47.1916" y="178.993979" style="fill: #e29400; stroke: #ffffff"/>
     <use xlink:href="#m2148544b7e" x="47.1916" y="159.045909" style="fill: #e29400; stroke: #ffffff"/>
     <use xlink:href="#m2148544b7e" x="47.1916" y="135.337584" style="fill: #e29400; stroke: #ffffff"/>
     <use xlink:href="#m2148544b7e" x="47.1916" y="107.160187" style="fill: #e29400; stroke: #ffffff"/>
     <use xlink:href="#m2148544b7e" x="72.542427" y="195.778188" style="fill: #e29400; stroke: #ffffff"/>
     <use xlink:href="#m2148544b7e" x="75.045801" y="176.740284" style="fill: #e29400; stroke: #ffffff"/>
     <use xlink:href="#m2148544b7e" x="78.015739" y="154.11849" style="fill: #e29400; stroke: #ffffff"/>
     <use xlink:href="#m2148544b7e" x="81.540189" y="127.237234" style="fill: #e29400; stroke: #ffffff"/>
     <use xlink:href="#m2148544b7e" x="85.723679" y="95.293597" style="fill: #e29400; stroke: #ffffff"/>
     <use xlink:href="#m2148544b7e" x="97.747741" y="195.778188" style="fill: #e29400; stroke: #ffffff"/>
     <use xlink:href="#m2148544b7e" x="102.735575" y="174.503618" style="fill: #e29400; stroke: #ffffff"/>
     <use xlink:href="#m2148544b7e" x="108.656537" y="149.225127" style="fill: #e29400; stroke: #ffffff"/>
     <use xlink:href="#m2148544b7e" x="115.686522" y="119.187968" style="fill: #e29400; stroke: #ffffff"/>
     <use xlink:href="#m2148544b7e" x="124.034586" y="83.49512" style="fill: #e29400; stroke: #ffffff"/>
     <use xlink:href="#m2148544b7e" x="122.808379" y="195.778188" style="fill: #e29400; stroke: #ffffff"/>
     <use xlink:href="#m2148544b7e" x="130.261866" y="172.283882" style="fill: #e29400; stroke: #ffffff"/>
     <use xlink:href="#m2148544b7e" x="139.115045" y="144.365626" style="fill: #e29400; stroke: #ffffff"/>
     <use xlink:href="#m2148544b7e" x="149.63176" y="111.189494" style="fill: #e29400; stroke: #ffffff"/>
     <use xlink:href="#m2148544b7e" x="162.125592" y="71.764366" style="fill: #e29400; stroke: #ffffff"/>
     <use xlink:href="#m2148544b7e" x="147.725171" y="195.778188" style="fill: #e29400; stroke: #ffffff"/>
     <use xlink:href="#m2148544b7e" x="157.625613" y="170.08098" style="fill: #e29400; stroke: #ffffff"/>
     <use xlink:href="#m2148544b7e" x="169.39231" y="139.539791" style="fill: #e29400; stroke: #ffffff"/>
     <use xlink:href="#m2148544b7e" x="183.377056" y="103.241521" style="fill: #e29400; stroke: #ffffff"/>
     <use xlink:href="#m2148544b7e" x="199.997958" y="60.100945" style="fill: #e29400; stroke: #ffffff"/>
     <use xlink:href="#m2148544b7e" x="47.1916" y="70.620985" style="fill: #e29400; stroke: #ffffff"/>
     <use xlink:href="#m2148544b7e" x="47.1916" y="41.596865" style="fill: #e29400; stroke: #ffffff"/>
     <use xlink:href="#m2148544b7e" x="47.1916" y="18.542187" style="fill: #e29400; stroke: #ffffff"/>
     <use xlink:href="#m2148544b7e" x="80.297681" y="63.639218" style="fill: #e29400; stroke: #ffffff"/>
     <use xlink:href="#m2148544b7e" x="75.979907" y="38.502229" style="fill: #e29400; stroke: #ffffff"/>
     <use xlink:href="#m2148544b7e" x="72.542427" y="18.542187" style="fill: #e29400; stroke: #ffffff"/>
     <use xlink:href="#m2148544b7e" x="113.207811" y="56.70286" style="fill: #e29400; stroke: #ffffff"/>
     <use xlink:href="#m2148544b7e" x="104.597482" y="35.430298" style="fill: #e29400; stroke: #ffffff"/>
     <use xlink:href="#m2148544b7e" x="97.747741" y="18.542187" style="fill: #e29400; stroke: #ffffff"/>
     <use xlink:href="#m2148544b7e" x="145.923113" y="49.811651" style="fill: #e29400; stroke: #ffffff"/>
     <use xlink:href="#m2148544b7e" x="133.045306" y="32.380941" style="fill: #e29400; stroke: #ffffff"/>
     <use xlink:href="#m2148544b7e" x="122.808379" y="18.542187" style="fill: #e29400; stroke: #ffffff"/>
     <use xlink:href="#m2148544b7e" x="178.444708" y="42.965331" style="fill: #e29400; stroke: #ffffff"/>
     <use xlink:href="#m2148544b7e" x="161.324353" y="29.354028" style="fill: #e29400; stroke: #ffffff"/>
     <use xlink:href="#m2148544b7e" x="147.725171" y="18.542187" style="fill: #e29400; stroke: #ffffff"/>
     <use xlink:href="#m2148544b7e" x="167.345929" y="195.778188" style="fill: #e29400; stroke: #ffffff"/>
     <use xlink:href="#m2148544b7e" x="173.066073" y="178.168624" style="fill: #e29400; stroke: #ffffff"/>
     <use xlink:href="#m2148544b7e" x="181.149565" y="157.451749" style="fill: #e29400; stroke: #ffffff"/>
     <use xlink:href="#m2148544b7e" x="191.708728" y="133.169509" style="fill: #e29400; stroke: #ffffff"/>
     <use xlink:href="#m2148544b7e" x="205.523835" y="105.238699" style="fill: #e29400; stroke: #ffffff"/>
     <use xlink:href="#m2148544b7e" x="181.236362" y="195.778188" style="fill: #e29400; stroke: #ffffff"/>
     <use xlink:href="#m2148544b7e" x="183.805325" y="182.9606" style="fill: #e29400; stroke: #ffffff"/>
     <use xlink:href="#m2148544b7e" x="189.23473" y="168.772371" style="fill: #e29400; stroke: #ffffff"/>
     <use xlink:href="#m2148544b7e" x="197.397427" y="153.210493" style="fill: #e29400; stroke: #ffffff"/>
     <use xlink:href="#m2148544b7e" x="209.435856" y="137.193782" style="fill: #e29400; stroke: #ffffff"/>
     <use xlink:href="#m2148544b7e" x="197.629725" y="40.756193" style="fill: #e29400; stroke: #ffffff"/>
     <use xlink:href="#m2148544b7e" x="183.970173" y="34.46243" style="fill: #e29400; stroke: #ffffff"/>
     <use xlink:href="#m2148544b7e" x="173.777056" y="26.256113" style="fill: #e29400; stroke: #ffffff"/>
     <use xlink:href="#m2148544b7e" x="167.345929" y="18.542187" style="fill: #e29400; stroke: #ffffff"/>
     <use xlink:href="#m2148544b7e" x="195.953144" y="27.061158" style="fill: #e29400; stroke: #ffffff"/>
     <use xlink:href="#m2148544b7e" x="188.046631" y="29.726006" style="fill: #e29400; stroke: #ffffff"/>
     <use xlink:href="#m2148544b7e" x="182.640093" y="25.041436" style="fill: #e29400; stroke: #ffffff"/>
     <use xlink:href="#m2148544b7e" x="181.236362" y="18.542187" style="fill: #e29400; stroke: #ffffff"/>
     <use xlink:href="#m2148544b7e" x="225.755687" y="123.927115" style="fill: #e29400; stroke: #ffffff"/>
     <use xlink:href="#m2148544b7e" x="223.016095" y="92.788834" style="fill: #e29400; stroke: #ffffff"/>
     <use xlink:href="#m2148544b7e" x="219.215118" y="50.158534" style="fill: #e29400; stroke: #ffffff"/>
     <use xlink:href="#m2148544b7e" x="218.045511" y="29.022403" style="fill: #e29400; stroke: #ffffff"/>
     <use xlink:href="#m2148544b7e" x="217.168787" y="13.100828" style="fill: #e29400; stroke: #ffffff"/>
     <use xlink:href="#m2148544b7e" x="244.744849" y="119.565516" style="fill: #e29400; stroke: #ffffff"/>
     <use xlink:href="#m2148544b7e" x="244.612694" y="89.782645" style="fill: #e29400; stroke: #ffffff"/>
     <use xlink:href="#m2148544b7e" x="243.971622" y="50.198408" style="fill: #e29400; stroke: #ffffff"/>
     <use xlink:href="#m2148544b7e" x="245.435645" y="27.809507" style="fill: #e29400; stroke: #ffffff"/>
     <use xlink:href="#m2148544b7e" x="246.793784" y="10.2" style="fill: #e29400; stroke: #ffffff"/>
     <use xlink:href="#m2148544b7e" x="262.795264" y="128.820055" style="fill: #e29400; stroke: #ffffff"/>
     <use xlink:href="#m2148544b7e" x="265.888062" y="104.130414" style="fill: #e29400; stroke: #ffffff"/>
     <use xlink:href="#m2148544b7e" x="269.024413" y="71.330062" style="fill: #e29400; stroke: #ffffff"/>
     <use xlink:href="#m2148544b7e" x="273.739585" y="51.42621" style="fill: #e29400; stroke: #ffffff"/>
     <use xlink:href="#m2148544b7e" x="277.950103" y="35.866593" style="fill: #e29400; stroke: #ffffff"/>
     <use xlink:href="#m2148544b7e" x="276.612071" y="146.745918" style="fill: #e29400; stroke: #ffffff"/>
     <use xlink:href="#m2148544b7e" x="281.346924" y="128.813165" style="fill: #e29400; stroke: #ffffff"/>
     <use xlink:href="#m2148544b7e" x="286.677799" y="104.460353" style="fill: #e29400; stroke: #ffffff"/>
     <use xlink:href="#m2148544b7e" x="293.061222" y="88.705208" style="fill: #e29400; stroke: #ffffff"/>
     <use xlink:href="#m2148544b7e" x="298.541222" y="76.859137" style="fill: #e29400; stroke: #ffffff"/>
     <use xlink:href="#m2148544b7e" x="286.97808" y="168.067699" style="fill: #e29400; stroke: #ffffff"/>
     <use xlink:href="#m2148544b7e" x="292.818085" y="154.213754" style="fill: #e29400; stroke: #ffffff"/>
     <use xlink:href="#m2148544b7e" x="299.80658" y="135.630403" style="fill: #e29400; stroke: #ffffff"/>
     <use xlink:href="#m2148544b7e" x="307.321349" y="121.345886" style="fill: #e29400; stroke: #ffffff"/>
     <use xlink:href="#m2148544b7e" x="313.533927" y="110.535282" style="fill: #e29400; stroke: #ffffff"/>
     <use xlink:href="#m2148544b7e" x="295.275611" y="190.659787" style="fill: #e29400; stroke: #ffffff"/>
     <use xlink:href="#m2148544b7e" x="301.844918" y="178.923772" style="fill: #e29400; stroke: #ffffff"/>
     <use xlink:href="#m2148544b7e" x="310.115185" y="164.149005" style="fill: #e29400; stroke: #ffffff"/>
     <use xlink:href="#m2148544b7e" x="318.385452" y="149.374237" style="fill: #e29400; stroke: #ffffff"/>
     <use xlink:href="#m2148544b7e" x="324.954758" y="137.638223" style="fill: #e29400; stroke: #ffffff"/>
     <use xlink:href="#m2148544b7e" x="315.526914" y="195.062773" style="fill: #e29400; stroke: #ffffff"/>
     <use xlink:href="#m2148544b7e" x="320.522208" y="182.481023" style="fill: #e29400; stroke: #ffffff"/>
     <use xlink:href="#m2148544b7e" x="326.793221" y="166.350498" style="fill: #e29400; stroke: #ffffff"/>
     <use xlink:href="#m2148544b7e" x="333.064235" y="150.219973" style="fill: #e29400; stroke: #ffffff"/>
     <use xlink:href="#m2148544b7e" x="338.059529" y="137.638223" style="fill: #e29400; stroke: #ffffff"/>
     <use xlink:href="#m2148544b7e" x="345.827635" y="201.650679" style="fill: #e29400; stroke: #ffffff"/>
     <use xlink:href="#m2148544b7e" x="348.960454" y="187.676964" style="fill: #e29400; stroke: #ffffff"/>
     <use xlink:href="#m2148544b7e" x="352.943753" y="169.644451" style="fill: #e29400; stroke: #ffffff"/>
     <use xlink:href="#m2148544b7e" x="356.927052" y="151.611938" style="fill: #e29400; stroke: #ffffff"/>
     <use xlink:href="#m2148544b7e" x="360.059871" y="137.638223" style="fill: #e29400; stroke: #ffffff"/>
     <use xlink:href="#m2148544b7e" x="391.164655" y="211.507739" style="fill: #e29400; stroke: #ffffff"/>
     <use xlink:href="#m2148544b7e" x="392.409404" y="195.32477" style="fill: #e29400; stroke: #ffffff"/>
     <use xlink:href="#m2148544b7e" x="394.079394" y="174.572981" style="fill: #e29400; stroke: #ffffff"/>
     <use xlink:href="#m2148544b7e" x="395.749383" y="153.821192" style="fill: #e29400; stroke: #ffffff"/>
     <use xlink:href="#m2148544b7e" x="396.994133" y="137.638223" style="fill: #e29400; stroke: #ffffff"/>
     <use xlink:href="#m2148544b7e" x="458.99952" y="226.256223" style="fill: #e29400; stroke: #ffffff"/>
     <use xlink:href="#m2148544b7e" x="458.99952" y="206.641144" style="fill: #e29400; stroke: #ffffff"/>
     <use xlink:href="#m2148544b7e" x="458.99952" y="181.947223" style="fill: #e29400; stroke: #ffffff"/>
     <use xlink:href="#m2148544b7e" x="458.99952" y="157.253301" style="fill: #e29400; stroke: #ffffff"/>
     <use xlink:href="#m2148544b7e" x="458.99952" y="137.638223" style="fill: #e29400; stroke: #ffffff"/>
     <use xlink:href="#m2148544b7e" x="324.954758" y="314.874223" style="fill: #e29400; stroke: #ffffff"/>
     <use xlink:href="#m2148544b7e" x="320.439292" y="290.38375" style="fill: #e29400; stroke: #ffffff"/>
     <use xlink:href="#m2148544b7e" x="312.077982" y="251.975639" style="fill: #e29400; stroke: #ffffff"/>
     <use xlink:href="#m2148544b7e" x="302.863127" y="215.785135" style="fill: #e29400; stroke: #ffffff"/>
     <use xlink:href="#m2148544b7e" x="338.059529" y="314.874223" style="fill: #e29400; stroke: #ffffff"/>
     <use xlink:href="#m2148544b7e" x="334.604616" y="291.096957" style="fill: #e29400; stroke: #ffffff"/>
     <use xlink:href="#m2148544b7e" x="328.265319" y="254.374974" style="fill: #e29400; stroke: #ffffff"/>
     <use xlink:href="#m2148544b7e" x="321.285865" y="219.62235" style="fill: #e29400; stroke: #ffffff"/>
     <use xlink:href="#m2148544b7e" x="360.059871" y="314.874223" style="fill: #e29400; stroke: #ffffff"/>
     <use xlink:href="#m2148544b7e" x="357.953972" y="292.356395" style="fill: #e29400; stroke: #ffffff"/>
     <use xlink:href="#m2148544b7e" x="353.925151" y="257.866768" style="fill: #e29400; stroke: #ffffff"/>
     <use xlink:href="#m2148544b7e" x="349.469559" y="225.098254" style="fill: #e29400; stroke: #ffffff"/>
     <use xlink:href="#m2148544b7e" x="396.994133" y="314.874223" style="fill: #e29400; stroke: #ffffff"/>
     <use xlink:href="#m2148544b7e" x="396.262843" y="294.433121" style="fill: #e29400; stroke: #ffffff"/>
     <use xlink:href="#m2148544b7e" x="394.570093" y="262.99314" style="fill: #e29400; stroke: #ffffff"/>
     <use xlink:href="#m2148544b7e" x="392.663957" y="233.026024" style="fill: #e29400; stroke: #ffffff"/>
     <use xlink:href="#m2148544b7e" x="458.99952" y="314.874223" style="fill: #e29400; stroke: #ffffff"/>
     <use xlink:href="#m2148544b7e" x="458.99952" y="297.732703" style="fill: #e29400; stroke: #ffffff"/>
     <use xlink:href="#m2148544b7e" x="458.99952" y="270.565223" style="fill: #e29400; stroke: #ffffff"/>
     <use xlink:href="#m2148544b7e" x="458.99952" y="244.622362" style="fill: #e29400; stroke: #ffffff"/>
    </g>
   </g>
   <g id="patch_3">
    <path d="M 35.1916 314.874223 
L 35.1916 10.2 
" style="fill: none; stroke: #5a5758; stroke-width: 0.8; stroke-linejoin: miter; stroke-linecap: square"/>
   </g>
   <g id="patch_4">
    <path d="M 47.1916 326.874223 
L 458.99952 326.874223 
" style="fill: none; stroke: #5a5758; stroke-width: 0.8; stroke-linejoin: miter; stroke-linecap: square"/>
   </g>
  </g>
 </g>
</svg>