<?xml version="1.0" encoding="utf-8" standalone="no"?>
<!DOCTYPE svg PUBLIC "-//W3C//DTD SVG 1.1//EN"
  "http://www.w3.org/Graphics/SVG/1.1/DTD/svg11.dtd">
<svg xmlns:xlink="http://www.w3.org/1999/xlink" width="469.19952pt" height="353.99952pt" viewBox="0 0 469.19952 353.99952" xmlns="http://www.w3.org/2000/svg" version="1.1">
 <metadata>
  <rdf:RDF xmlns:dc="http://purl.org/dc/elements/1.1/" xmlns:cc="http://creativecommons.org/ns#" xmlns:rdf="http://www.w3.org/1999/02/22-rdf-syntax-ns#">
   <cc:Work>
    <dc:type rdf:resource="http://purl.org/dc/dcmitype/StillImage"/>
    <dc:date>2024-09-16T14:57:54.970248</dc:date>
    <dc:format>image/svg+xml</dc:format>
    <dc:creator>
     <cc:Agent>
      <dc:title>Matplotlib v3.9.2, https://matplotlib.org/</dc:title>
     </cc:Agent>
    </dc:creator>
   </cc:Work>
  </rdf:RDF>
 </metadata>
 <defs>
  <style type="text/css">*{stroke-linejoin: round; stroke-linecap: butt}</style>
 </defs>
 <g id="figure_1">
  <g id="patch_1">
   <path d="M 0 353.99952 
L 469.19952 353.99952 
L 469.19952 0 
L 0 0 
z
" style="fill: #ffffff"/>
  </g>
  <g id="axes_1">
   <g id="patch_2">
    <path d="M 98.702429 291.357661 
L 451.938312 291.357661 
L 451.938312 46.513125 
L 98.702429 46.513125 
z
" style="fill: #ffffff"/>
   </g>
   <g id="matplotlib.axis_1">
    <g id="xtick_1">
     <g id="line2d_1">
      <defs>
       <path id="me33929255e" d="M 0 0 
L 0 3.5 
" style="stroke: #5a5758; stroke-width: 0.8"/>
      </defs>
      <g>
       <use xlink:href="#me33929255e" x="98.702429" y="303.357661" style="fill: #5a5758; stroke: #5a5758; stroke-width: 0.8"/>
      </g>
     </g>
     <g id="text_1">
      <!-- 0.0 -->
      <g style="fill: #5a5758" transform="translate(88.641221 320.778491) scale(0.14994 -0.14994)">
       <defs>
        <path id="CMUBright-Roman-30" d="M 333 1984 
L 333 2086 
Q 333 2291 339 2438 
Q 346 2586 371 2832 
Q 397 3078 461 3267 
Q 525 3456 621 3657 
Q 717 3859 880 4006 
Q 1043 4154 1261 4230 
Q 1446 4301 1677 4301 
Q 1856 4301 2025 4256 
Q 2195 4211 2380 4070 
Q 2566 3930 2704 3709 
Q 2842 3488 2931 3104 
Q 3021 2720 3021 2214 
Q 3021 1683 2982 1347 
Q 2944 1011 2803 685 
Q 2618 250 2307 70 
Q 1997 -109 1677 -109 
Q 1498 -109 1328 -64 
Q 1158 -19 972 121 
Q 787 262 649 483 
Q 512 704 422 1091 
Q 333 1478 333 1984 
z
M 742 2413 
Q 742 2374 745 2326 
Q 749 2278 749 2272 
L 749 2150 
Q 749 1779 758 1548 
Q 768 1318 838 1014 
Q 909 710 1037 538 
Q 1286 218 1677 218 
Q 2086 218 2330 557 
Q 2451 730 2518 1037 
Q 2586 1344 2595 1568 
Q 2605 1792 2605 2163 
L 2605 2272 
Q 2605 2278 2608 2323 
Q 2611 2368 2611 2406 
Q 2611 3302 2336 3661 
Q 2099 3981 1677 3981 
Q 1242 3981 1005 3642 
Q 742 3264 742 2413 
z
" transform="scale(0.015625)"/>
        <path id="CMUBright-Roman-2e" d="M 678 0 
L 678 499 
L 1178 499 
L 1178 0 
L 678 0 
z
" transform="scale(0.015625)"/>
       </defs>
       <use xlink:href="#CMUBright-Roman-30"/>
       <use xlink:href="#CMUBright-Roman-2e" x="52.499985"/>
       <use xlink:href="#CMUBright-Roman-30" x="81.699982"/>
      </g>
     </g>
    </g>
    <g id="xtick_2">
     <g id="line2d_2">
      <g>
       <use xlink:href="#me33929255e" x="187.0114" y="303.357661" style="fill: #5a5758; stroke: #5a5758; stroke-width: 0.8"/>
      </g>
     </g>
     <g id="text_2">
      <!-- 0.5 -->
      <g style="fill: #5a5758" transform="translate(176.950191 320.778491) scale(0.14994 -0.14994)">
       <defs>
        <path id="CMUBright-Roman-35" d="M 301 518 
L 486 819 
Q 896 224 1581 224 
Q 1971 224 2268 473 
Q 2566 723 2566 1312 
Q 2566 1626 2489 1846 
Q 2413 2067 2285 2176 
Q 2157 2285 2032 2329 
Q 1907 2374 1773 2374 
Q 1210 2374 941 1901 
L 582 1901 
L 582 4192 
L 2797 4192 
L 2797 3853 
L 973 3853 
L 973 2381 
Q 1325 2701 1779 2701 
Q 2285 2701 2653 2291 
Q 3021 1882 3021 1306 
Q 3021 723 2601 307 
Q 2182 -109 1574 -109 
Q 813 -109 301 518 
z
" transform="scale(0.015625)"/>
       </defs>
       <use xlink:href="#CMUBright-Roman-30"/>
       <use xlink:href="#CMUBright-Roman-2e" x="52.499985"/>
       <use xlink:href="#CMUBright-Roman-35" x="81.699982"/>
      </g>
     </g>
    </g>
    <g id="xtick_3">
     <g id="line2d_3">
      <g>
       <use xlink:href="#me33929255e" x="275.32037" y="303.357661" style="fill: #5a5758; stroke: #5a5758; stroke-width: 0.8"/>
      </g>
     </g>
     <g id="text_3">
      <!-- 1.0 -->
      <g style="fill: #5a5758" transform="translate(265.259162 320.778491) scale(0.14994 -0.14994)">
       <defs>
        <path id="CMUBright-Roman-31" d="M 672 3558 
L 672 3885 
Q 1427 3885 1862 4301 
L 1965 4301 
L 1965 320 
L 2803 320 
L 2803 0 
L 710 0 
L 710 320 
L 1549 320 
L 1549 3744 
Q 1178 3558 672 3558 
z
" transform="scale(0.015625)"/>
       </defs>
       <use xlink:href="#CMUBright-Roman-31"/>
       <use xlink:href="#CMUBright-Roman-2e" x="52.499985"/>
       <use xlink:href="#CMUBright-Roman-30" x="81.699982"/>
      </g>
     </g>
    </g>
    <g id="xtick_4">
     <g id="line2d_4">
      <g>
       <use xlink:href="#me33929255e" x="363.629341" y="303.357661" style="fill: #5a5758; stroke: #5a5758; stroke-width: 0.8"/>
      </g>
     </g>
     <g id="text_4">
      <!-- 1.5 -->
      <g style="fill: #5a5758" transform="translate(353.568133 320.778491) scale(0.14994 -0.14994)">
       <use xlink:href="#CMUBright-Roman-31"/>
       <use xlink:href="#CMUBright-Roman-2e" x="52.499985"/>
       <use xlink:href="#CMUBright-Roman-35" x="81.699982"/>
      </g>
     </g>
    </g>
    <g id="xtick_5">
     <g id="line2d_5">
      <g>
       <use xlink:href="#me33929255e" x="451.938312" y="303.357661" style="fill: #5a5758; stroke: #5a5758; stroke-width: 0.8"/>
      </g>
     </g>
     <g id="text_5">
      <!-- 2.0 -->
      <g style="fill: #5a5758" transform="translate(441.877103 320.778491) scale(0.14994 -0.14994)">
       <defs>
        <path id="CMUBright-Roman-32" d="M 275 3226 
Q 595 4301 1587 4301 
L 1594 4301 
Q 2214 4294 2617 3923 
Q 3021 3552 3021 2989 
Q 3021 2746 2937 2531 
Q 2854 2317 2668 2115 
Q 2483 1914 2384 1821 
Q 2285 1728 2061 1549 
Q 1754 1299 1642 1203 
Q 1530 1107 698 358 
L 3021 358 
L 3021 0 
L 333 0 
L 333 339 
L 1683 1562 
Q 2144 1965 2368 2278 
Q 2592 2592 2592 2982 
Q 2592 3418 2278 3690 
Q 1965 3962 1498 3962 
Q 1069 3962 854 3693 
Q 640 3424 512 2938 
L 275 3226 
z
" transform="scale(0.015625)"/>
       </defs>
       <use xlink:href="#CMUBright-Roman-32"/>
       <use xlink:href="#CMUBright-Roman-2e" x="52.499985"/>
       <use xlink:href="#CMUBright-Roman-30" x="81.699982"/>
      </g>
     </g>
    </g>
    <g id="text_6">
     <!-- x -->
     <g style="fill: #5a5758" transform="translate(271.198652 343.792957) scale(0.18 -0.18)">
      <defs>
       <path id="CMUBright-SemiBold-78" d="M 0 0 
L 1184 1562 
L 1184 1568 
L 38 3021 
L 698 3021 
L 1446 2022 
L 2163 3021 
L 2816 3021 
L 1709 1568 
L 1709 1562 
L 2931 0 
L 2272 0 
L 1446 1197 
L 1440 1197 
L 653 0 
L 0 0 
z
" transform="scale(0.015625)"/>
      </defs>
      <use xlink:href="#CMUBright-SemiBold-78"/>
     </g>
    </g>
   </g>
   <g id="matplotlib.axis_2">
    <g id="ytick_1">
     <g id="line2d_6">
      <defs>
       <path id="m12badf1067" d="M 0 0 
L -3.5 0 
" style="stroke: #5a5758; stroke-width: 0.8"/>
      </defs>
      <g>
       <use xlink:href="#m12badf1067" x="86.702429" y="291.357661" style="fill: #5a5758; stroke: #5a5758; stroke-width: 0.8"/>
      </g>
     </g>
     <g id="text_7">
      <!-- -0.0100 -->
      <g style="fill: #5a5758" transform="translate(30.716563 296.568076) scale(0.14994 -0.14994)">
       <defs>
        <path id="CMUBright-Roman-2d" d="M 70 1350 
L 70 1670 
L 1862 1670 
L 1862 1350 
L 70 1350 
z
" transform="scale(0.015625)"/>
       </defs>
       <use xlink:href="#CMUBright-Roman-2d"/>
       <use xlink:href="#CMUBright-Roman-30" x="34.999985"/>
       <use xlink:href="#CMUBright-Roman-2e" x="87.499969"/>
       <use xlink:href="#CMUBright-Roman-30" x="116.699966"/>
       <use xlink:href="#CMUBright-Roman-31" x="169.199951"/>
       <use xlink:href="#CMUBright-Roman-30" x="221.699936"/>
       <use xlink:href="#CMUBright-Roman-30" x="274.199921"/>
      </g>
     </g>
    </g>
    <g id="ytick_2">
     <g id="line2d_7">
      <g>
       <use xlink:href="#m12badf1067" x="86.702429" y="260.752094" style="fill: #5a5758; stroke: #5a5758; stroke-width: 0.8"/>
      </g>
     </g>
     <g id="text_8">
      <!-- -0.0075 -->
      <g style="fill: #5a5758" transform="translate(30.716563 265.962509) scale(0.14994 -0.14994)">
       <defs>
        <path id="CMUBright-Roman-37" d="M 275 3840 
L 275 4192 
L 3072 4192 
L 3072 3853 
Q 2400 3149 1958 2147 
Q 1517 1146 1517 -51 
L 1088 -51 
Q 1088 1030 1523 2048 
Q 1958 3066 2797 3840 
L 275 3840 
z
" transform="scale(0.015625)"/>
       </defs>
       <use xlink:href="#CMUBright-Roman-2d"/>
       <use xlink:href="#CMUBright-Roman-30" x="34.999985"/>
       <use xlink:href="#CMUBright-Roman-2e" x="87.499969"/>
       <use xlink:href="#CMUBright-Roman-30" x="116.699966"/>
       <use xlink:href="#CMUBright-Roman-30" x="169.199951"/>
       <use xlink:href="#CMUBright-Roman-37" x="221.699936"/>
       <use xlink:href="#CMUBright-Roman-35" x="274.199921"/>
      </g>
     </g>
    </g>
    <g id="ytick_3">
     <g id="line2d_8">
      <g>
       <use xlink:href="#m12badf1067" x="86.702429" y="230.146527" style="fill: #5a5758; stroke: #5a5758; stroke-width: 0.8"/>
      </g>
     </g>
     <g id="text_9">
      <!-- -0.0050 -->
      <g style="fill: #5a5758" transform="translate(30.716563 235.356942) scale(0.14994 -0.14994)">
       <use xlink:href="#CMUBright-Roman-2d"/>
       <use xlink:href="#CMUBright-Roman-30" x="34.999985"/>
       <use xlink:href="#CMUBright-Roman-2e" x="87.499969"/>
       <use xlink:href="#CMUBright-Roman-30" x="116.699966"/>
       <use xlink:href="#CMUBright-Roman-30" x="169.199951"/>
       <use xlink:href="#CMUBright-Roman-35" x="221.699936"/>
       <use xlink:href="#CMUBright-Roman-30" x="274.199921"/>
      </g>
     </g>
    </g>
    <g id="ytick_4">
     <g id="line2d_9">
      <g>
       <use xlink:href="#m12badf1067" x="86.702429" y="199.54096" style="fill: #5a5758; stroke: #5a5758; stroke-width: 0.8"/>
      </g>
     </g>
     <g id="text_10">
      <!-- -0.0025 -->
      <g style="fill: #5a5758" transform="translate(30.716563 204.751375) scale(0.14994 -0.14994)">
       <use xlink:href="#CMUBright-Roman-2d"/>
       <use xlink:href="#CMUBright-Roman-30" x="34.999985"/>
       <use xlink:href="#CMUBright-Roman-2e" x="87.499969"/>
       <use xlink:href="#CMUBright-Roman-30" x="116.699966"/>
       <use xlink:href="#CMUBright-Roman-30" x="169.199951"/>
       <use xlink:href="#CMUBright-Roman-32" x="221.699936"/>
       <use xlink:href="#CMUBright-Roman-35" x="274.199921"/>
      </g>
     </g>
    </g>
    <g id="ytick_5">
     <g id="line2d_10">
      <g>
       <use xlink:href="#m12badf1067" x="86.702429" y="168.935393" style="fill: #5a5758; stroke: #5a5758; stroke-width: 0.8"/>
      </g>
     </g>
     <g id="text_11">
      <!-- 0.0000 -->
      <g style="fill: #5a5758" transform="translate(35.964463 174.145808) scale(0.14994 -0.14994)">
       <use xlink:href="#CMUBright-Roman-30"/>
       <use xlink:href="#CMUBright-Roman-2e" x="52.499985"/>
       <use xlink:href="#CMUBright-Roman-30" x="81.699982"/>
       <use xlink:href="#CMUBright-Roman-30" x="134.199966"/>
       <use xlink:href="#CMUBright-Roman-30" x="186.699951"/>
       <use xlink:href="#CMUBright-Roman-30" x="239.199936"/>
      </g>
     </g>
    </g>
    <g id="ytick_6">
     <g id="line2d_11">
      <g>
       <use xlink:href="#m12badf1067" x="86.702429" y="138.329826" style="fill: #5a5758; stroke: #5a5758; stroke-width: 0.8"/>
      </g>
     </g>
     <g id="text_12">
      <!-- 0.0025 -->
      <g style="fill: #5a5758" transform="translate(35.964463 143.540241) scale(0.14994 -0.14994)">
       <use xlink:href="#CMUBright-Roman-30"/>
       <use xlink:href="#CMUBright-Roman-2e" x="52.499985"/>
       <use xlink:href="#CMUBright-Roman-30" x="81.699982"/>
       <use xlink:href="#CMUBright-Roman-30" x="134.199966"/>
       <use xlink:href="#CMUBright-Roman-32" x="186.699951"/>
       <use xlink:href="#CMUBright-Roman-35" x="239.199936"/>
      </g>
     </g>
    </g>
    <g id="ytick_7">
     <g id="line2d_12">
      <g>
       <use xlink:href="#m12badf1067" x="86.702429" y="107.724259" style="fill: #5a5758; stroke: #5a5758; stroke-width: 0.8"/>
      </g>
     </g>
     <g id="text_13">
      <!-- 0.0050 -->
      <g style="fill: #5a5758" transform="translate(35.964463 112.934674) scale(0.14994 -0.14994)">
       <use xlink:href="#CMUBright-Roman-30"/>
       <use xlink:href="#CMUBright-Roman-2e" x="52.499985"/>
       <use xlink:href="#CMUBright-Roman-30" x="81.699982"/>
       <use xlink:href="#CMUBright-Roman-30" x="134.199966"/>
       <use xlink:href="#CMUBright-Roman-35" x="186.699951"/>
       <use xlink:href="#CMUBright-Roman-30" x="239.199936"/>
      </g>
     </g>
    </g>
    <g id="ytick_8">
     <g id="line2d_13">
      <g>
       <use xlink:href="#m12badf1067" x="86.702429" y="77.118692" style="fill: #5a5758; stroke: #5a5758; stroke-width: 0.8"/>
      </g>
     </g>
     <g id="text_14">
      <!-- 0.0075 -->
      <g style="fill: #5a5758" transform="translate(35.964463 82.329107) scale(0.14994 -0.14994)">
       <use xlink:href="#CMUBright-Roman-30"/>
       <use xlink:href="#CMUBright-Roman-2e" x="52.499985"/>
       <use xlink:href="#CMUBright-Roman-30" x="81.699982"/>
       <use xlink:href="#CMUBright-Roman-30" x="134.199966"/>
       <use xlink:href="#CMUBright-Roman-37" x="186.699951"/>
       <use xlink:href="#CMUBright-Roman-35" x="239.199936"/>
      </g>
     </g>
    </g>
    <g id="ytick_9">
     <g id="line2d_14">
      <g>
       <use xlink:href="#m12badf1067" x="86.702429" y="46.513125" style="fill: #5a5758; stroke: #5a5758; stroke-width: 0.8"/>
      </g>
     </g>
     <g id="text_15">
      <!-- 0.0100 -->
      <g style="fill: #5a5758" transform="translate(35.964463 51.72354) scale(0.14994 -0.14994)">
       <use xlink:href="#CMUBright-Roman-30"/>
       <use xlink:href="#CMUBright-Roman-2e" x="52.499985"/>
       <use xlink:href="#CMUBright-Roman-30" x="81.699982"/>
       <use xlink:href="#CMUBright-Roman-31" x="134.199966"/>
       <use xlink:href="#CMUBright-Roman-30" x="186.699951"/>
       <use xlink:href="#CMUBright-Roman-30" x="239.199936"/>
      </g>
     </g>
    </g>
    <g id="text_16">
     <!-- $T - T_{sol}$ -->
     <g style="fill: #5a5758" transform="translate(19.71 198.815393) rotate(-90) scale(0.18 -0.18)">
      <defs>
       <path id="CMUBright-SemiBold-54" d="M 237 3910 
L 237 4416 
L 4390 4416 
L 4390 3910 
L 2650 3910 
L 2650 0 
L 1978 0 
L 1978 3910 
L 237 3910 
z
" transform="scale(0.015625)"/>
       <path id="CMUBright-SemiBold-2212" d="M 387 1597 
Q 371 1645 371 1689 
Q 371 1734 387 1782 
Q 403 1830 476 1881 
Q 550 1933 672 1933 
L 3424 1933 
Q 3725 1933 3725 1689 
Q 3725 1446 3430 1446 
L 659 1446 
Q 544 1446 473 1497 
Q 403 1549 387 1597 
z
" transform="scale(0.015625)"/>
       <path id="CMUBright-SemiBold-73" d="M 186 250 
L 282 800 
Q 787 448 1318 448 
Q 1613 448 1737 569 
Q 1862 691 1862 838 
Q 1862 986 1753 1078 
Q 1645 1171 1517 1206 
Q 1389 1242 1190 1280 
Q 992 1318 902 1350 
Q 634 1440 429 1661 
Q 224 1882 224 2202 
Q 224 2349 269 2486 
Q 314 2624 422 2774 
Q 531 2925 764 3014 
Q 998 3104 1331 3104 
Q 1818 3104 2323 2886 
L 2227 2362 
Q 1747 2624 1261 2624 
Q 998 2624 889 2515 
Q 781 2406 781 2272 
Q 781 2170 857 2077 
Q 934 1984 1062 1939 
Q 1069 1939 1408 1865 
Q 1747 1792 1914 1702 
Q 2419 1421 2419 890 
Q 2419 525 2172 237 
Q 1926 -51 1325 -51 
Q 730 -51 186 250 
z
" transform="scale(0.015625)"/>
       <path id="CMUBright-SemiBold-6f" d="M 630 390 
Q 186 832 186 1504 
Q 186 2176 627 2637 
Q 1069 3098 1677 3098 
Q 2310 3098 2739 2618 
Q 3168 2138 3168 1498 
Q 3168 838 2726 393 
Q 2285 -51 1677 -51 
Q 1075 -51 630 390 
z
M 800 1594 
Q 800 998 1037 717 
Q 1267 448 1677 448 
Q 2061 448 2291 685 
Q 2554 954 2554 1606 
Q 2554 2150 2307 2384 
Q 2061 2618 1677 2618 
Q 800 2618 800 1594 
z
" transform="scale(0.015625)"/>
       <path id="CMUBright-SemiBold-6c" d="M 416 0 
L 416 4448 
L 1018 4448 
L 1018 0 
L 416 0 
z
" transform="scale(0.015625)"/>
      </defs>
      <use xlink:href="#CMUBright-SemiBold-54"/>
      <use xlink:href="#CMUBright-SemiBold-2212" transform="translate(91.982407 0)"/>
      <use xlink:href="#CMUBright-SemiBold-54" transform="translate(175.664825 0)"/>
      <use xlink:href="#CMUBright-SemiBold-73" transform="translate(248.990865 -14.160938) scale(0.7)"/>
      <use xlink:href="#CMUBright-SemiBold-6f" transform="translate(277.130863 -14.160938) scale(0.7)"/>
      <use xlink:href="#CMUBright-SemiBold-6c" transform="translate(313.880852 -14.160938) scale(0.7)"/>
     </g>
    </g>
   </g>
   <g id="line2d_15">
    <path d="M 98.702429 168.935393 
L 104.22174 122.086419 
L 109.74105 82.369777 
L 115.260361 55.831965 
L 120.779672 46.513125 
L 126.298982 55.831965 
L 131.818293 82.369777 
L 137.337604 122.086419 
L 142.856914 168.935393 
L 148.376225 215.784367 
L 153.895536 255.501009 
L 159.414846 282.038821 
L 164.934157 291.357661 
L 170.453468 282.038821 
L 175.972778 255.501009 
L 181.492089 215.784367 
L 187.0114 168.935393 
L 192.53071 122.086419 
L 198.050021 82.369777 
L 203.569332 55.831965 
L 209.088642 46.513125 
L 214.607953 55.831965 
L 220.127264 82.369777 
L 225.646574 122.086419 
L 231.165885 168.935393 
L 236.685196 215.784367 
L 242.204506 255.501009 
L 247.723817 282.038821 
L 253.243128 291.357661 
L 258.762438 282.038821 
L 264.281749 255.501009 
L 269.80106 215.784367 
L 275.32037 168.935393 
L 280.839681 122.086419 
L 286.358992 82.369777 
L 291.878302 55.831965 
L 297.397613 46.513125 
L 302.916924 55.831965 
L 308.436234 82.369777 
L 313.955545 122.086419 
L 319.474856 168.935393 
L 324.994166 215.784367 
L 330.513477 255.501009 
L 336.032788 282.038821 
L 341.552098 291.357661 
L 347.071409 282.038821 
L 352.59072 255.501009 
L 358.11003 215.784367 
L 363.629341 168.935393 
L 369.148652 122.086419 
L 374.667962 82.369777 
L 380.187273 55.831965 
L 385.706584 46.513125 
L 391.225894 55.831965 
L 396.745205 82.369777 
L 402.264516 122.086419 
L 407.783826 168.935393 
L 413.303137 215.784367 
L 418.822448 255.501009 
L 424.341758 282.038821 
L 429.861069 291.357661 
L 435.38038 282.038821 
L 440.89969 255.501009 
L 446.419001 215.784367 
L 451.938312 168.935393 
" style="fill: none; stroke-dasharray: 7.4,3.2; stroke-dashoffset: 0; stroke: #e29400; stroke-width: 2"/>
   </g>
   <g id="line2d_16">
    <path d="M 98.702429 168.935393 
L 104.22174 162.928417 
L 109.74105 156.935912 
L 115.260361 150.972316 
L 120.779672 145.051993 
L 126.298982 139.189208 
L 131.818293 133.398084 
L 137.337604 127.692573 
L 142.856914 122.086419 
L 148.376225 116.593129 
L 153.895536 111.225935 
L 159.414846 105.997769 
L 164.934157 100.921225 
L 170.453468 96.008533 
L 175.972778 91.271528 
L 181.492089 86.721623 
L 187.0114 82.369777 
L 192.53071 78.226476 
L 198.050021 74.3017 
L 203.569332 70.604905 
L 209.088642 67.144997 
L 214.607953 63.930311 
L 220.127264 60.968592 
L 225.646574 58.266973 
L 231.165885 55.831965 
L 236.685196 53.669433 
L 242.204506 51.784587 
L 247.723817 50.181967 
L 253.243128 48.865435 
L 258.762438 47.838161 
L 264.281749 47.102622 
L 269.80106 46.660588 
L 275.32037 46.513125 
L 280.839681 46.660588 
L 286.358992 47.102622 
L 291.878302 47.838161 
L 297.397613 48.865435 
L 302.916924 50.181967 
L 308.436234 51.784587 
L 313.955545 53.669433 
L 319.474856 55.831965 
L 324.994166 58.266973 
L 330.513477 60.968592 
L 336.032788 63.930311 
L 341.552098 67.144997 
L 347.071409 70.604905 
L 352.59072 74.3017 
L 358.11003 78.226476 
L 363.629341 82.369777 
L 369.148652 86.721623 
L 374.667962 91.271528 
L 380.187273 96.008533 
L 385.706584 100.921225 
L 391.225894 105.997769 
L 396.745205 111.225935 
L 402.264516 116.593129 
L 407.783826 122.086419 
L 413.303137 127.692573 
L 418.822448 133.398084 
L 424.341758 139.189208 
L 429.861069 145.051993 
L 435.38038 150.972316 
L 440.89969 156.935912 
L 446.419001 162.928417 
L 451.938312 168.935393 
" style="fill: none; stroke-dasharray: 7.4,3.2; stroke-dashoffset: 0; stroke: #1e90ff; stroke-width: 2"/>
   </g>
   <g id="line2d_17">
    <path d="M 98.702429 168.935393 
L 104.22174 163.896724 
L 109.74105 161.896503 
L 115.260361 163.136187 
L 120.779672 167.242248 
L 126.298982 173.362561 
L 131.818293 180.324523 
L 137.337604 186.832704 
L 142.856914 191.677901 
L 148.376225 193.927631 
L 153.895536 193.070611 
L 159.414846 189.094549 
L 164.934157 182.486354 
L 170.453468 174.155492 
L 175.972778 165.292629 
L 181.492089 157.18544 
L 187.0114 151.019823 
L 192.53071 147.696882 
L 198.050021 147.693602 
L 203.569332 150.988428 
L 209.088642 157.06305 
L 214.607953 164.980106 
L 220.127264 173.52492 
L 225.646574 181.38966 
L 231.165885 187.371856 
L 236.685196 190.557001 
L 242.204506 190.457435 
L 247.723817 187.086314 
L 253.243128 180.955415 
L 258.762438 172.997069 
L 264.281749 164.422114 
L 269.80106 156.535476 
L 275.32037 150.537443 
L 280.839681 147.340893 
L 286.358992 147.43228 
L 291.878302 150.797559 
L 297.397613 156.924303 
L 302.916924 164.879705 
L 308.436234 173.452582 
L 313.955545 181.337761 
L 319.474856 187.334773 
L 324.994166 190.530615 
L 330.513477 190.438739 
L 336.032788 187.073127 
L 341.552098 180.946159 
L 347.071409 172.990611 
L 352.59072 164.417642 
L 358.11003 156.532409 
L 363.629341 150.535369 
L 369.148652 147.339519 
L 374.667962 147.431401 
L 380.187273 150.797029 
L 385.706584 156.924018 
L 391.225894 164.879594 
L 396.745205 173.452595 
L 402.264516 181.440813 
L 407.783826 187.84215 
L 413.303137 191.988461 
L 418.822448 193.595754 
L 424.341758 192.742379 
L 429.861069 189.795965 
L 435.38038 185.313313 
L 440.89969 179.935182 
L 446.419001 174.292665 
L 451.938312 168.935393 
" style="fill: none; stroke: #e29400; stroke-width: 2; stroke-linecap: square"/>
   </g>
   <g id="line2d_18">
    <path d="M 98.702429 168.935393 
L 104.22174 163.072858 
L 109.74105 157.238485 
L 115.260361 151.443924 
L 120.779672 145.701029 
L 126.298982 140.021826 
L 131.818293 134.418468 
L 137.337604 128.90318 
L 142.856914 123.488205 
L 148.376225 118.185737 
L 153.895536 113.007869 
L 159.414846 107.966535 
L 164.934157 103.073455 
L 170.453468 98.340083 
L 175.972778 93.777567 
L 181.492089 89.396701 
L 187.0114 85.207889 
L 192.53071 81.221108 
L 198.050021 77.445879 
L 203.569332 73.891232 
L 209.088642 70.565682 
L 214.607953 67.477208 
L 220.127264 64.633223 
L 225.646574 62.040559 
L 231.165885 59.70545 
L 236.685196 57.63351 
L 242.204506 55.829724 
L 247.723817 54.298433 
L 253.243128 53.043321 
L 258.762438 52.067409 
L 264.281749 51.373047 
L 269.80106 50.961907 
L 275.32037 50.834977 
L 280.839681 50.992562 
L 286.358992 51.434284 
L 291.878302 52.159076 
L 297.397613 53.165194 
L 302.916924 54.450212 
L 308.436234 56.011035 
L 313.955545 57.843904 
L 319.474856 59.944401 
L 324.994166 62.307467 
L 330.513477 64.927409 
L 336.032788 67.797916 
L 341.552098 70.912071 
L 347.071409 74.262374 
L 352.59072 77.840751 
L 358.11003 81.638584 
L 363.629341 85.646722 
L 369.148652 89.85551 
L 374.667962 94.254808 
L 380.187273 98.834018 
L 385.706584 103.582108 
L 391.225894 108.48764 
L 396.745205 113.538796 
L 402.264516 118.723082 
L 407.783826 124.027209 
L 413.303137 129.437023 
L 418.822448 134.93753 
L 424.341758 140.513003 
L 429.861069 146.147144 
L 435.38038 151.82328 
L 440.89969 157.524564 
L 446.419001 163.234156 
L 451.938312 168.935393 
" style="fill: none; stroke: #1e90ff; stroke-width: 2; stroke-linecap: square"/>
   </g>
   <g id="patch_3">
    <path d="M 86.702429 291.357661 
L 86.702429 46.513125 
" style="fill: none; stroke: #5a5758; stroke-width: 0.8; stroke-linejoin: miter; stroke-linecap: square"/>
   </g>
   <g id="patch_4">
    <path d="M 98.702429 303.357661 
L 451.938312 303.357661 
" style="fill: none; stroke: #5a5758; stroke-width: 0.8; stroke-linejoin: miter; stroke-linecap: square"/>
   </g>
   <g id="legend_1">
    <g id="line2d_19">
     <path d="M 86.009562 20.7 
L 104.009562 20.7 
L 122.009562 20.7 
" style="fill: none; stroke-dasharray: 7.4,3.2; stroke-dashoffset: 0; stroke: #e29400; stroke-width: 2"/>
    </g>
    <g id="text_17">
     <!-- Initial guess -->
     <g style="fill: #5a5758" transform="translate(136.409562 27) scale(0.18 -0.18)">
      <defs>
       <path id="CMUBright-Roman-49" d="M 627 0 
L 627 4448 
L 1075 4448 
L 1075 0 
L 627 0 
z
" transform="scale(0.015625)"/>
       <path id="CMUBright-Roman-6e" d="M 512 0 
L 512 3021 
L 909 3021 
L 909 2400 
Q 1030 2682 1273 2877 
Q 1517 3072 1869 3072 
Q 2125 3072 2307 2992 
Q 2490 2912 2579 2809 
Q 2669 2707 2720 2540 
Q 2771 2374 2777 2272 
Q 2784 2170 2784 2016 
L 2784 0 
L 2374 0 
L 2374 1990 
Q 2374 2106 2371 2176 
Q 2368 2246 2329 2368 
Q 2291 2490 2220 2563 
Q 2150 2637 2006 2694 
Q 1862 2752 1658 2752 
Q 1370 2752 1149 2518 
Q 928 2285 928 1677 
L 928 0 
L 512 0 
z
" transform="scale(0.015625)"/>
       <path id="CMUBright-Roman-69" d="M 509 4019 
L 509 4422 
L 912 4422 
L 912 4019 
L 509 4019 
z
M 512 0 
L 512 3021 
L 915 3021 
L 915 0 
L 512 0 
z
" transform="scale(0.015625)"/>
       <path id="CMUBright-Roman-74" d="M 122 2701 
L 122 3021 
L 736 3021 
L 736 3885 
L 1126 3885 
L 1126 3021 
L 2118 3021 
L 2118 2701 
L 1126 2701 
L 1126 883 
Q 1126 282 1491 282 
Q 1568 282 1638 291 
Q 1709 301 1769 323 
Q 1830 346 1878 365 
Q 1926 384 1974 416 
Q 2022 448 2048 464 
Q 2074 480 2109 512 
Q 2144 544 2150 544 
L 2234 230 
Q 1779 -51 1261 -51 
Q 730 -51 730 838 
L 730 2701 
L 122 2701 
z
" transform="scale(0.015625)"/>
       <path id="CMUBright-Roman-61" d="M 352 736 
Q 352 896 435 1046 
Q 518 1197 707 1347 
Q 896 1498 1283 1590 
Q 1670 1683 2214 1696 
L 2214 1965 
Q 2214 2381 2042 2579 
Q 1856 2803 1568 2803 
Q 1331 2803 1107 2736 
Q 883 2669 809 2624 
Q 736 2579 557 2470 
L 525 2829 
Q 1043 3104 1574 3104 
Q 2054 3104 2326 2806 
Q 2598 2509 2624 2144 
L 2630 1926 
L 2630 0 
L 2227 0 
L 2227 442 
Q 1830 -51 1107 -51 
L 1062 -51 
Q 710 -51 531 205 
Q 352 461 352 736 
z
M 749 749 
Q 749 518 950 393 
Q 1152 269 1408 269 
Q 1523 269 1644 297 
Q 1766 326 1904 390 
Q 2042 454 2128 595 
Q 2214 736 2214 928 
L 2214 1498 
Q 1568 1491 1158 1286 
Q 749 1082 749 749 
z
" transform="scale(0.015625)"/>
       <path id="CMUBright-Roman-6c" d="M 512 0 
L 512 4448 
L 915 4448 
L 915 0 
L 512 0 
z
" transform="scale(0.015625)"/>
       <path id="CMUBright-Roman-20" transform="scale(0.015625)"/>
       <path id="CMUBright-Roman-67" d="M 294 1517 
Q 294 2176 675 2624 
Q 1056 3072 1555 3072 
Q 2074 3072 2381 2515 
L 2381 3072 
L 2784 3072 
L 2784 58 
Q 2784 -499 2461 -838 
Q 2138 -1178 1645 -1178 
Q 1056 -1178 461 -890 
L 461 -544 
Q 653 -640 771 -694 
Q 890 -749 1133 -803 
Q 1376 -858 1632 -858 
Q 1933 -858 2153 -627 
Q 2374 -397 2374 77 
L 2374 576 
L 2368 800 
Q 2266 538 2051 323 
Q 1837 109 1485 109 
Q 1005 109 649 515 
Q 294 922 294 1517 
z
M 710 1517 
Q 710 1050 1001 739 
Q 1293 429 1664 429 
Q 1862 429 2009 537 
Q 2157 646 2230 828 
Q 2304 1011 2339 1200 
Q 2374 1389 2374 1600 
L 2381 1600 
L 2381 2022 
Q 2381 2253 2214 2502 
Q 2048 2752 1741 2752 
Q 1331 2752 1020 2393 
Q 710 2035 710 1517 
z
" transform="scale(0.015625)"/>
       <path id="CMUBright-Roman-75" d="M 512 851 
L 512 3021 
L 928 3021 
L 928 781 
Q 928 486 1037 368 
Q 1146 250 1517 250 
Q 1875 250 2124 477 
Q 2374 704 2374 1120 
L 2374 3021 
L 2784 3021 
L 2784 0 
L 2381 0 
L 2381 550 
Q 2214 269 1910 109 
Q 1606 -51 1254 -51 
Q 1005 -51 845 29 
Q 685 109 617 262 
Q 550 416 531 541 
Q 512 666 512 851 
z
" transform="scale(0.015625)"/>
       <path id="CMUBright-Roman-65" d="M 269 1536 
Q 269 2163 646 2630 
Q 1024 3098 1587 3098 
Q 1786 3098 1968 3037 
Q 2150 2976 2342 2829 
Q 2534 2682 2652 2365 
Q 2771 2048 2771 1600 
L 653 1600 
L 653 1549 
Q 653 966 966 617 
Q 1280 269 1690 269 
Q 2234 269 2726 710 
L 2758 358 
Q 2266 -51 1690 -51 
Q 1101 -51 685 406 
Q 269 864 269 1536 
z
M 685 1856 
L 2426 1856 
Q 2381 2342 2134 2560 
Q 1888 2778 1587 2778 
Q 1261 2778 1008 2515 
Q 755 2253 685 1856 
z
" transform="scale(0.015625)"/>
       <path id="CMUBright-Roman-73" d="M 186 250 
L 250 621 
Q 787 282 1325 282 
Q 1715 282 1881 442 
Q 2048 602 2048 806 
Q 2048 998 1910 1120 
Q 1773 1242 1606 1299 
Q 1536 1318 1235 1372 
Q 934 1427 726 1523 
Q 518 1619 371 1818 
Q 224 2022 224 2253 
Q 224 2400 272 2531 
Q 320 2662 429 2800 
Q 538 2938 765 3021 
Q 992 3104 1312 3104 
L 1331 3104 
Q 1818 3104 2304 2886 
L 2240 2534 
Q 1747 2784 1267 2784 
Q 890 2784 742 2633 
Q 595 2483 595 2304 
Q 595 2163 697 2038 
Q 800 1914 998 1856 
Q 1037 1843 1344 1782 
Q 1651 1722 1760 1683 
Q 2029 1587 2224 1372 
Q 2419 1158 2419 845 
Q 2419 499 2172 224 
Q 1926 -51 1331 -51 
Q 736 -51 186 250 
z
" transform="scale(0.015625)"/>
      </defs>
      <use xlink:href="#CMUBright-Roman-49"/>
      <use xlink:href="#CMUBright-Roman-6e" x="26.699997"/>
      <use xlink:href="#CMUBright-Roman-69" x="78.399994"/>
      <use xlink:href="#CMUBright-Roman-74" x="100.899979"/>
      <use xlink:href="#CMUBright-Roman-69" x="138.799973"/>
      <use xlink:href="#CMUBright-Roman-61" x="161.299957"/>
      <use xlink:href="#CMUBright-Roman-6c" x="210.499954"/>
      <use xlink:href="#CMUBright-Roman-20" x="232.999939"/>
      <use xlink:href="#CMUBright-Roman-67" x="266.299927"/>
      <use xlink:href="#CMUBright-Roman-75" x="317.999924"/>
      <use xlink:href="#CMUBright-Roman-65" x="369.699921"/>
      <use xlink:href="#CMUBright-Roman-73" x="416.399918"/>
      <use xlink:href="#CMUBright-Roman-73" x="456.599915"/>
     </g>
    </g>
    <g id="line2d_20">
     <path d="M 243.838624 20.7 
L 261.838624 20.7 
L 279.838624 20.7 
" style="fill: none; stroke: #e29400; stroke-width: 2; stroke-linecap: square"/>
    </g>
    <g id="text_18">
     <!-- After 10 iterations -->
     <g style="fill: #5a5758" transform="translate(294.238624 27) scale(0.18 -0.18)">
      <defs>
       <path id="CMUBright-Roman-41" d="M 186 0 
L 1914 4499 
L 2400 4499 
L 4128 0 
L 3661 0 
L 3142 1344 
L 1114 1344 
L 602 0 
L 186 0 
z
M 1248 1683 
L 3014 1683 
L 2234 3744 
L 2131 4032 
L 1248 1683 
z
" transform="scale(0.015625)"/>
       <path id="CMUBright-Roman-66" d="M 179 2701 
L 179 3021 
L 723 3021 
L 723 3430 
Q 723 3597 729 3680 
Q 736 3763 819 3939 
Q 902 4115 1069 4256 
Q 1363 4499 1798 4499 
Q 2022 4499 2323 4448 
L 2323 4083 
Q 2029 4173 1779 4173 
Q 1523 4173 1321 4067 
Q 1120 3962 1120 3712 
L 1120 3021 
L 1920 3021 
L 1920 2701 
L 1133 2701 
L 1133 0 
L 723 0 
L 723 2701 
L 179 2701 
z
" transform="scale(0.015625)"/>
       <path id="CMUBright-Roman-72" d="M 512 0 
L 512 3021 
L 896 3021 
L 896 2534 
L 902 2234 
Q 954 2362 1043 2490 
Q 1133 2618 1273 2755 
Q 1414 2893 1632 2979 
Q 1850 3066 2112 3072 
L 2112 2714 
Q 1907 2707 1708 2643 
Q 1510 2579 1324 2444 
Q 1139 2310 1027 2070 
Q 915 1830 915 1510 
L 915 0 
L 512 0 
z
" transform="scale(0.015625)"/>
       <path id="CMUBright-Roman-6f" d="M 256 1510 
Q 256 2182 675 2640 
Q 1094 3098 1677 3098 
Q 2272 3098 2681 2627 
Q 3091 2157 3091 1510 
Q 3091 838 2668 393 
Q 2246 -51 1677 -51 
Q 1088 -51 672 406 
Q 256 864 256 1510 
z
M 666 1587 
Q 666 1190 771 915 
Q 877 640 1046 512 
Q 1216 384 1369 333 
Q 1523 282 1677 282 
Q 1843 282 2006 342 
Q 2170 403 2330 537 
Q 2490 672 2586 937 
Q 2682 1203 2682 1568 
Q 2682 1914 2586 2163 
Q 2490 2413 2330 2541 
Q 2170 2669 2006 2723 
Q 1843 2778 1676 2778 
Q 1510 2778 1347 2723 
Q 1184 2669 1024 2544 
Q 864 2419 765 2172 
Q 666 1926 666 1587 
z
" transform="scale(0.015625)"/>
      </defs>
      <use xlink:href="#CMUBright-Roman-41"/>
      <use xlink:href="#CMUBright-Roman-66" x="67.499985"/>
      <use xlink:href="#CMUBright-Roman-74" x="99.599976"/>
      <use xlink:href="#CMUBright-Roman-65" x="137.499969"/>
      <use xlink:href="#CMUBright-Roman-72" x="184.199966"/>
      <use xlink:href="#CMUBright-Roman-20" x="218.799957"/>
      <use xlink:href="#CMUBright-Roman-31" x="252.099945"/>
      <use xlink:href="#CMUBright-Roman-30" x="304.59993"/>
      <use xlink:href="#CMUBright-Roman-20" x="357.099915"/>
      <use xlink:href="#CMUBright-Roman-69" x="390.399902"/>
      <use xlink:href="#CMUBright-Roman-74" x="412.899887"/>
      <use xlink:href="#CMUBright-Roman-65" x="450.799881"/>
      <use xlink:href="#CMUBright-Roman-72" x="497.499878"/>
      <use xlink:href="#CMUBright-Roman-61" x="532.099869"/>
      <use xlink:href="#CMUBright-Roman-74" x="581.299866"/>
      <use xlink:href="#CMUBright-Roman-69" x="619.19986"/>
      <use xlink:href="#CMUBright-Roman-6f" x="641.699844"/>
      <use xlink:href="#CMUBright-Roman-6e" x="694.199829"/>
      <use xlink:href="#CMUBright-Roman-73" x="745.899826"/>
     </g>
    </g>
   </g>
  </g>
 </g>
</svg>