<?xml version="1.0" encoding="utf-8" standalone="no"?>
<!DOCTYPE svg PUBLIC "-//W3C//DTD SVG 1.1//EN"
  "http://www.w3.org/Graphics/SVG/1.1/DTD/svg11.dtd">
<svg xmlns:xlink="http://www.w3.org/1999/xlink" width="872.39952pt" height="440.39952pt" viewBox="0 0 872.39952 440.39952" xmlns="http://www.w3.org/2000/svg" version="1.1">
 <metadata>
  <rdf:RDF xmlns:dc="http://purl.org/dc/elements/1.1/" xmlns:cc="http://creativecommons.org/ns#" xmlns:rdf="http://www.w3.org/1999/02/22-rdf-syntax-ns#">
   <cc:Work>
    <dc:type rdf:resource="http://purl.org/dc/dcmitype/StillImage"/>
    <dc:date>2024-10-28T15:17:08.052373</dc:date>
    <dc:format>image/svg+xml</dc:format>
    <dc:creator>
     <cc:Agent>
      <dc:title>Matplotlib v3.9.2, https://matplotlib.org/</dc:title>
     </cc:Agent>
    </dc:creator>
   </cc:Work>
  </rdf:RDF>
 </metadata>
 <defs>
  <style type="text/css">*{stroke-linejoin: round; stroke-linecap: butt}</style>
 </defs>
 <g id="figure_1">
  <g id="patch_1">
   <path d="M 0 440.39952 
L 872.39952 440.39952 
L 872.39952 0 
L 0 0 
z
" style="fill: #ffffff"/>
  </g>
  <g id="axes_1">
   <g id="patch_2">
    <path d="M 71.457863 375.777661 
L 443.638041 375.777661 
L 443.638041 12.410415 
L 71.457863 12.410415 
z
" style="fill: #ffffff"/>
   </g>
   <g id="matplotlib.axis_1">
    <g id="xtick_1">
     <g id="line2d_1">
      <defs>
       <path id="mafb66b1e29" d="M 0 0 
L 0 3.5 
" style="stroke: #5a5758; stroke-width: 0.8"/>
      </defs>
      <g>
       <use xlink:href="#mafb66b1e29" x="71.457863" y="387.777661" style="fill: #5a5758; stroke: #5a5758; stroke-width: 0.8"/>
      </g>
     </g>
     <g id="text_1">
      <!-- 0 -->
      <g style="fill: #5a5758" transform="translate(67.521938 405.198491) scale(0.14994 -0.14994)">
       <defs>
        <path id="CMUBright-Roman-30" d="M 333 1984 
L 333 2086 
Q 333 2291 339 2438 
Q 346 2586 371 2832 
Q 397 3078 461 3267 
Q 525 3456 621 3657 
Q 717 3859 880 4006 
Q 1043 4154 1261 4230 
Q 1446 4301 1677 4301 
Q 1856 4301 2025 4256 
Q 2195 4211 2380 4070 
Q 2566 3930 2704 3709 
Q 2842 3488 2931 3104 
Q 3021 2720 3021 2214 
Q 3021 1683 2982 1347 
Q 2944 1011 2803 685 
Q 2618 250 2307 70 
Q 1997 -109 1677 -109 
Q 1498 -109 1328 -64 
Q 1158 -19 972 121 
Q 787 262 649 483 
Q 512 704 422 1091 
Q 333 1478 333 1984 
z
M 742 2413 
Q 742 2374 745 2326 
Q 749 2278 749 2272 
L 749 2150 
Q 749 1779 758 1548 
Q 768 1318 838 1014 
Q 909 710 1037 538 
Q 1286 218 1677 218 
Q 2086 218 2330 557 
Q 2451 730 2518 1037 
Q 2586 1344 2595 1568 
Q 2605 1792 2605 2163 
L 2605 2272 
Q 2605 2278 2608 2323 
Q 2611 2368 2611 2406 
Q 2611 3302 2336 3661 
Q 2099 3981 1677 3981 
Q 1242 3981 1005 3642 
Q 742 3264 742 2413 
z
" transform="scale(0.015625)"/>
       </defs>
       <use xlink:href="#CMUBright-Roman-30"/>
      </g>
     </g>
    </g>
    <g id="xtick_2">
     <g id="line2d_2">
      <g>
       <use xlink:href="#mafb66b1e29" x="145.908788" y="387.777661" style="fill: #5a5758; stroke: #5a5758; stroke-width: 0.8"/>
      </g>
     </g>
     <g id="text_2">
      <!-- 1000 -->
      <g style="fill: #5a5758" transform="translate(130.165088 405.198491) scale(0.14994 -0.14994)">
       <defs>
        <path id="CMUBright-Roman-31" d="M 672 3558 
L 672 3885 
Q 1427 3885 1862 4301 
L 1965 4301 
L 1965 320 
L 2803 320 
L 2803 0 
L 710 0 
L 710 320 
L 1549 320 
L 1549 3744 
Q 1178 3558 672 3558 
z
" transform="scale(0.015625)"/>
       </defs>
       <use xlink:href="#CMUBright-Roman-31"/>
       <use xlink:href="#CMUBright-Roman-30" x="52.499985"/>
       <use xlink:href="#CMUBright-Roman-30" x="104.999969"/>
       <use xlink:href="#CMUBright-Roman-30" x="157.499954"/>
      </g>
     </g>
    </g>
    <g id="xtick_3">
     <g id="line2d_3">
      <g>
       <use xlink:href="#mafb66b1e29" x="220.359714" y="387.777661" style="fill: #5a5758; stroke: #5a5758; stroke-width: 0.8"/>
      </g>
     </g>
     <g id="text_3">
      <!-- 2000 -->
      <g style="fill: #5a5758" transform="translate(204.616014 405.198491) scale(0.14994 -0.14994)">
       <defs>
        <path id="CMUBright-Roman-32" d="M 275 3226 
Q 595 4301 1587 4301 
L 1594 4301 
Q 2214 4294 2617 3923 
Q 3021 3552 3021 2989 
Q 3021 2746 2937 2531 
Q 2854 2317 2668 2115 
Q 2483 1914 2384 1821 
Q 2285 1728 2061 1549 
Q 1754 1299 1642 1203 
Q 1530 1107 698 358 
L 3021 358 
L 3021 0 
L 333 0 
L 333 339 
L 1683 1562 
Q 2144 1965 2368 2278 
Q 2592 2592 2592 2982 
Q 2592 3418 2278 3690 
Q 1965 3962 1498 3962 
Q 1069 3962 854 3693 
Q 640 3424 512 2938 
L 275 3226 
z
" transform="scale(0.015625)"/>
       </defs>
       <use xlink:href="#CMUBright-Roman-32"/>
       <use xlink:href="#CMUBright-Roman-30" x="52.499985"/>
       <use xlink:href="#CMUBright-Roman-30" x="104.999969"/>
       <use xlink:href="#CMUBright-Roman-30" x="157.499954"/>
      </g>
     </g>
    </g>
    <g id="xtick_4">
     <g id="line2d_4">
      <g>
       <use xlink:href="#mafb66b1e29" x="294.81064" y="387.777661" style="fill: #5a5758; stroke: #5a5758; stroke-width: 0.8"/>
      </g>
     </g>
     <g id="text_4">
      <!-- 3000 -->
      <g style="fill: #5a5758" transform="translate(279.06694 405.198491) scale(0.14994 -0.14994)">
       <defs>
        <path id="CMUBright-Roman-33" d="M 282 653 
Q 282 666 285 685 
Q 288 704 304 774 
Q 320 845 339 941 
Q 557 640 861 464 
Q 1165 288 1341 256 
Q 1517 224 1683 224 
Q 2112 224 2368 486 
Q 2624 749 2624 1165 
Q 2624 1574 2381 1824 
Q 2138 2074 1773 2099 
L 1555 2106 
L 1114 2106 
L 1114 2426 
Q 1709 2470 1862 2528 
Q 2099 2618 2281 2838 
Q 2464 3059 2464 3360 
Q 2464 3642 2256 3811 
Q 2048 3981 1702 3981 
Q 973 3981 570 3258 
L 371 3539 
Q 845 4301 1702 4301 
Q 2202 4301 2544 4025 
Q 2886 3750 2886 3360 
Q 2886 3059 2704 2761 
Q 2522 2464 2106 2272 
Q 2579 2144 2825 1833 
Q 3072 1523 3072 1158 
Q 3072 666 2685 278 
Q 2298 -109 1690 -109 
Q 1402 -109 1126 -9 
Q 851 90 675 221 
Q 499 352 390 473 
Q 282 595 282 653 
z
" transform="scale(0.015625)"/>
       </defs>
       <use xlink:href="#CMUBright-Roman-33"/>
       <use xlink:href="#CMUBright-Roman-30" x="52.499985"/>
       <use xlink:href="#CMUBright-Roman-30" x="104.999969"/>
       <use xlink:href="#CMUBright-Roman-30" x="157.499954"/>
      </g>
     </g>
    </g>
    <g id="xtick_5">
     <g id="line2d_5">
      <g>
       <use xlink:href="#mafb66b1e29" x="369.261566" y="387.777661" style="fill: #5a5758; stroke: #5a5758; stroke-width: 0.8"/>
      </g>
     </g>
     <g id="text_5">
      <!-- 4000 -->
      <g style="fill: #5a5758" transform="translate(353.517866 405.198491) scale(0.14994 -0.14994)">
       <defs>
        <path id="CMUBright-Roman-34" d="M 186 1158 
L 186 1504 
L 1952 4250 
L 2438 4250 
L 2438 1498 
L 3168 1498 
L 3168 1158 
L 2438 1158 
L 2438 0 
L 2035 0 
L 2035 1158 
L 186 1158 
z
M 602 1498 
L 2054 1498 
L 2054 3885 
Q 1971 3667 1606 3085 
L 602 1498 
z
" transform="scale(0.015625)"/>
       </defs>
       <use xlink:href="#CMUBright-Roman-34"/>
       <use xlink:href="#CMUBright-Roman-30" x="52.499985"/>
       <use xlink:href="#CMUBright-Roman-30" x="104.999969"/>
       <use xlink:href="#CMUBright-Roman-30" x="157.499954"/>
      </g>
     </g>
    </g>
    <g id="text_6">
     <!-- Iterations -->
     <g style="fill: #5a5758" transform="translate(221.519827 428.212958) scale(0.18 -0.18)">
      <defs>
       <path id="CMUBright-SemiBold-49" d="M 512 0 
L 512 4448 
L 1184 4448 
L 1184 0 
L 512 0 
z
" transform="scale(0.015625)"/>
       <path id="CMUBright-SemiBold-74" d="M 122 2541 
L 122 3021 
L 646 3021 
L 646 3885 
L 1222 3885 
L 1222 3021 
L 2118 3021 
L 2118 2541 
L 1222 2541 
L 1222 1075 
Q 1222 448 1555 448 
Q 1805 448 2106 672 
L 2234 211 
Q 1754 -51 1197 -51 
Q 634 -51 634 1005 
L 634 2541 
L 122 2541 
z
" transform="scale(0.015625)"/>
       <path id="CMUBright-SemiBold-65" d="M 186 1530 
Q 186 2189 605 2646 
Q 1024 3104 1606 3104 
Q 1766 3104 1920 3069 
Q 2074 3034 2243 2931 
Q 2413 2829 2534 2669 
Q 2656 2509 2739 2233 
Q 2822 1958 2822 1600 
L 762 1600 
L 762 1536 
Q 762 1062 1040 745 
Q 1318 429 1709 429 
Q 2240 429 2739 794 
L 2784 275 
Q 2278 -51 1709 -51 
Q 1043 -51 614 419 
Q 186 890 186 1530 
z
M 838 1978 
L 2298 1978 
Q 2144 2618 1600 2618 
Q 1363 2618 1148 2448 
Q 934 2278 838 1978 
z
" transform="scale(0.015625)"/>
       <path id="CMUBright-SemiBold-72" d="M 416 0 
L 416 3021 
L 992 3021 
L 992 2368 
Q 1370 3059 2112 3072 
L 2112 2528 
Q 1939 2528 1769 2480 
Q 1600 2432 1421 2326 
Q 1242 2221 1130 2013 
Q 1018 1805 1018 1517 
L 1018 0 
L 416 0 
z
" transform="scale(0.015625)"/>
       <path id="CMUBright-SemiBold-61" d="M 250 851 
Q 250 1274 771 1498 
Q 1293 1722 2112 1747 
L 2112 1971 
Q 2112 2234 2048 2355 
Q 1894 2650 1568 2650 
Q 1242 2643 1037 2566 
Q 832 2490 557 2291 
L 512 2829 
Q 1043 3104 1581 3104 
Q 2061 3104 2377 2822 
Q 2694 2541 2726 2144 
L 2733 1933 
L 2733 0 
L 2131 0 
L 2131 230 
L 2125 410 
Q 1946 186 1648 67 
Q 1350 -51 1043 -51 
Q 666 -51 458 233 
Q 250 518 250 851 
z
M 845 864 
Q 845 672 1008 550 
Q 1171 429 1408 429 
Q 1626 429 1811 525 
Q 1997 621 2074 781 
Q 2112 864 2112 1043 
L 2112 1446 
Q 1523 1421 1184 1270 
Q 845 1120 845 864 
z
" transform="scale(0.015625)"/>
       <path id="CMUBright-SemiBold-69" d="M 414 3859 
L 414 4461 
L 1016 4461 
L 1016 3859 
L 414 3859 
z
M 416 0 
L 416 3021 
L 1018 3021 
L 1018 0 
L 416 0 
z
" transform="scale(0.015625)"/>
       <path id="CMUBright-SemiBold-6f" d="M 630 390 
Q 186 832 186 1504 
Q 186 2176 627 2637 
Q 1069 3098 1677 3098 
Q 2310 3098 2739 2618 
Q 3168 2138 3168 1498 
Q 3168 838 2726 393 
Q 2285 -51 1677 -51 
Q 1075 -51 630 390 
z
M 800 1594 
Q 800 998 1037 717 
Q 1267 448 1677 448 
Q 2061 448 2291 685 
Q 2554 954 2554 1606 
Q 2554 2150 2307 2384 
Q 2061 2618 1677 2618 
Q 800 2618 800 1594 
z
" transform="scale(0.015625)"/>
       <path id="CMUBright-SemiBold-6e" d="M 410 0 
L 410 3021 
L 998 3021 
L 998 2714 
L 1005 2496 
Q 1344 3072 1971 3072 
Q 2227 3072 2409 2995 
Q 2592 2918 2681 2816 
Q 2771 2714 2822 2547 
Q 2874 2381 2880 2275 
Q 2886 2170 2886 2016 
L 2886 0 
L 2272 0 
L 2272 2022 
Q 2272 2131 2259 2204 
Q 2246 2278 2192 2380 
Q 2138 2483 2000 2537 
Q 1862 2592 1651 2592 
Q 1453 2592 1315 2493 
Q 1178 2394 1120 2237 
Q 1062 2080 1043 1961 
Q 1024 1843 1024 1728 
L 1024 0 
L 410 0 
z
" transform="scale(0.015625)"/>
       <path id="CMUBright-SemiBold-73" d="M 186 250 
L 282 800 
Q 787 448 1318 448 
Q 1613 448 1737 569 
Q 1862 691 1862 838 
Q 1862 986 1753 1078 
Q 1645 1171 1517 1206 
Q 1389 1242 1190 1280 
Q 992 1318 902 1350 
Q 634 1440 429 1661 
Q 224 1882 224 2202 
Q 224 2349 269 2486 
Q 314 2624 422 2774 
Q 531 2925 764 3014 
Q 998 3104 1331 3104 
Q 1818 3104 2323 2886 
L 2227 2362 
Q 1747 2624 1261 2624 
Q 998 2624 889 2515 
Q 781 2406 781 2272 
Q 781 2170 857 2077 
Q 934 1984 1062 1939 
Q 1069 1939 1408 1865 
Q 1747 1792 1914 1702 
Q 2419 1421 2419 890 
Q 2419 525 2172 237 
Q 1926 -51 1325 -51 
Q 730 -51 186 250 
z
" transform="scale(0.015625)"/>
      </defs>
      <use xlink:href="#CMUBright-SemiBold-49"/>
      <use xlink:href="#CMUBright-SemiBold-74" x="26.699997"/>
      <use xlink:href="#CMUBright-SemiBold-65" x="64.599991"/>
      <use xlink:href="#CMUBright-SemiBold-72" x="111.699982"/>
      <use xlink:href="#CMUBright-SemiBold-61" x="146.299973"/>
      <use xlink:href="#CMUBright-SemiBold-74" x="195.499969"/>
      <use xlink:href="#CMUBright-SemiBold-69" x="233.399963"/>
      <use xlink:href="#CMUBright-SemiBold-6f" x="255.899948"/>
      <use xlink:href="#CMUBright-SemiBold-6e" x="308.399933"/>
      <use xlink:href="#CMUBright-SemiBold-73" x="360.09993"/>
     </g>
    </g>
   </g>
   <g id="matplotlib.axis_2">
    <g id="ytick_1">
     <g id="line2d_6">
      <defs>
       <path id="mcd3761cc1b" d="M 0 0 
L -3.5 0 
" style="stroke: #5a5758; stroke-width: 0.8"/>
      </defs>
      <g>
       <use xlink:href="#mcd3761cc1b" x="59.457863" y="342.328156" style="fill: #5a5758; stroke: #5a5758; stroke-width: 0.8"/>
      </g>
     </g>
     <g id="text_7">
      <!-- $\mathdefault{10^{0}}$ -->
      <g style="fill: #5a5758" transform="translate(30.716563 347.538571) scale(0.14994 -0.14994)">
       <use xlink:href="#CMUBright-Roman-31" transform="translate(0 0.915625)"/>
       <use xlink:href="#CMUBright-Roman-30" transform="translate(52.499985 0.915625)"/>
       <use xlink:href="#CMUBright-Roman-30" transform="translate(105.826024 33.957813) scale(0.7)"/>
      </g>
     </g>
    </g>
    <g id="ytick_2">
     <g id="line2d_7">
      <g>
       <use xlink:href="#mcd3761cc1b" x="59.457863" y="232.355575" style="fill: #5a5758; stroke: #5a5758; stroke-width: 0.8"/>
      </g>
     </g>
     <g id="text_8">
      <!-- $\mathdefault{10^{1}}$ -->
      <g style="fill: #5a5758" transform="translate(30.716563 237.56599) scale(0.14994 -0.14994)">
       <use xlink:href="#CMUBright-Roman-31" transform="translate(0 0.915625)"/>
       <use xlink:href="#CMUBright-Roman-30" transform="translate(52.499985 0.915625)"/>
       <use xlink:href="#CMUBright-Roman-31" transform="translate(105.826024 33.957813) scale(0.7)"/>
      </g>
     </g>
    </g>
    <g id="ytick_3">
     <g id="line2d_8">
      <g>
       <use xlink:href="#mcd3761cc1b" x="59.457863" y="122.382995" style="fill: #5a5758; stroke: #5a5758; stroke-width: 0.8"/>
      </g>
     </g>
     <g id="text_9">
      <!-- $\mathdefault{10^{2}}$ -->
      <g style="fill: #5a5758" transform="translate(30.716563 127.59341) scale(0.14994 -0.14994)">
       <use xlink:href="#CMUBright-Roman-31" transform="translate(0 0.915625)"/>
       <use xlink:href="#CMUBright-Roman-30" transform="translate(52.499985 0.915625)"/>
       <use xlink:href="#CMUBright-Roman-32" transform="translate(105.826024 33.957813) scale(0.7)"/>
      </g>
     </g>
    </g>
    <g id="ytick_4">
     <g id="line2d_9">
      <g>
       <use xlink:href="#mcd3761cc1b" x="59.457863" y="12.410415" style="fill: #5a5758; stroke: #5a5758; stroke-width: 0.8"/>
      </g>
     </g>
     <g id="text_10">
      <!-- $\mathdefault{10^{3}}$ -->
      <g style="fill: #5a5758" transform="translate(30.716563 17.62083) scale(0.14994 -0.14994)">
       <use xlink:href="#CMUBright-Roman-31" transform="translate(0 0.915625)"/>
       <use xlink:href="#CMUBright-Roman-30" transform="translate(52.499985 0.915625)"/>
       <use xlink:href="#CMUBright-Roman-33" transform="translate(105.826024 33.957813) scale(0.7)"/>
      </g>
     </g>
    </g>
    <g id="ytick_5">
     <g id="line2d_10">
      <defs>
       <path id="m64c980737f" d="M 0 0 
L -2 0 
" style="stroke: #5a5758; stroke-width: 0.6"/>
      </defs>
      <g>
       <use xlink:href="#m64c980737f" x="59.457863" y="375.433201" style="fill: #5a5758; stroke: #5a5758; stroke-width: 0.6"/>
      </g>
     </g>
    </g>
    <g id="ytick_6">
     <g id="line2d_11">
      <g>
       <use xlink:href="#m64c980737f" x="59.457863" y="366.725435" style="fill: #5a5758; stroke: #5a5758; stroke-width: 0.6"/>
      </g>
     </g>
    </g>
    <g id="ytick_7">
     <g id="line2d_12">
      <g>
       <use xlink:href="#m64c980737f" x="59.457863" y="359.363124" style="fill: #5a5758; stroke: #5a5758; stroke-width: 0.6"/>
      </g>
     </g>
    </g>
    <g id="ytick_8">
     <g id="line2d_13">
      <g>
       <use xlink:href="#m64c980737f" x="59.457863" y="352.9856" style="fill: #5a5758; stroke: #5a5758; stroke-width: 0.6"/>
      </g>
     </g>
    </g>
    <g id="ytick_9">
     <g id="line2d_14">
      <g>
       <use xlink:href="#m64c980737f" x="59.457863" y="347.360225" style="fill: #5a5758; stroke: #5a5758; stroke-width: 0.6"/>
      </g>
     </g>
    </g>
    <g id="ytick_10">
     <g id="line2d_15">
      <g>
       <use xlink:href="#m64c980737f" x="59.457863" y="309.22311" style="fill: #5a5758; stroke: #5a5758; stroke-width: 0.6"/>
      </g>
     </g>
    </g>
    <g id="ytick_11">
     <g id="line2d_16">
      <g>
       <use xlink:href="#m64c980737f" x="59.457863" y="289.8579" style="fill: #5a5758; stroke: #5a5758; stroke-width: 0.6"/>
      </g>
     </g>
    </g>
    <g id="ytick_12">
     <g id="line2d_17">
      <g>
       <use xlink:href="#m64c980737f" x="59.457863" y="276.118065" style="fill: #5a5758; stroke: #5a5758; stroke-width: 0.6"/>
      </g>
     </g>
    </g>
    <g id="ytick_13">
     <g id="line2d_18">
      <g>
       <use xlink:href="#m64c980737f" x="59.457863" y="265.460621" style="fill: #5a5758; stroke: #5a5758; stroke-width: 0.6"/>
      </g>
     </g>
    </g>
    <g id="ytick_14">
     <g id="line2d_19">
      <g>
       <use xlink:href="#m64c980737f" x="59.457863" y="256.752855" style="fill: #5a5758; stroke: #5a5758; stroke-width: 0.6"/>
      </g>
     </g>
    </g>
    <g id="ytick_15">
     <g id="line2d_20">
      <g>
       <use xlink:href="#m64c980737f" x="59.457863" y="249.390544" style="fill: #5a5758; stroke: #5a5758; stroke-width: 0.6"/>
      </g>
     </g>
    </g>
    <g id="ytick_16">
     <g id="line2d_21">
      <g>
       <use xlink:href="#m64c980737f" x="59.457863" y="243.01302" style="fill: #5a5758; stroke: #5a5758; stroke-width: 0.6"/>
      </g>
     </g>
    </g>
    <g id="ytick_17">
     <g id="line2d_22">
      <g>
       <use xlink:href="#m64c980737f" x="59.457863" y="237.387645" style="fill: #5a5758; stroke: #5a5758; stroke-width: 0.6"/>
      </g>
     </g>
    </g>
    <g id="ytick_18">
     <g id="line2d_23">
      <g>
       <use xlink:href="#m64c980737f" x="59.457863" y="199.25053" style="fill: #5a5758; stroke: #5a5758; stroke-width: 0.6"/>
      </g>
     </g>
    </g>
    <g id="ytick_19">
     <g id="line2d_24">
      <g>
       <use xlink:href="#m64c980737f" x="59.457863" y="179.88532" style="fill: #5a5758; stroke: #5a5758; stroke-width: 0.6"/>
      </g>
     </g>
    </g>
    <g id="ytick_20">
     <g id="line2d_25">
      <g>
       <use xlink:href="#m64c980737f" x="59.457863" y="166.145485" style="fill: #5a5758; stroke: #5a5758; stroke-width: 0.6"/>
      </g>
     </g>
    </g>
    <g id="ytick_21">
     <g id="line2d_26">
      <g>
       <use xlink:href="#m64c980737f" x="59.457863" y="155.488041" style="fill: #5a5758; stroke: #5a5758; stroke-width: 0.6"/>
      </g>
     </g>
    </g>
    <g id="ytick_22">
     <g id="line2d_27">
      <g>
       <use xlink:href="#m64c980737f" x="59.457863" y="146.780275" style="fill: #5a5758; stroke: #5a5758; stroke-width: 0.6"/>
      </g>
     </g>
    </g>
    <g id="ytick_23">
     <g id="line2d_28">
      <g>
       <use xlink:href="#m64c980737f" x="59.457863" y="139.417963" style="fill: #5a5758; stroke: #5a5758; stroke-width: 0.6"/>
      </g>
     </g>
    </g>
    <g id="ytick_24">
     <g id="line2d_29">
      <g>
       <use xlink:href="#m64c980737f" x="59.457863" y="133.040439" style="fill: #5a5758; stroke: #5a5758; stroke-width: 0.6"/>
      </g>
     </g>
    </g>
    <g id="ytick_25">
     <g id="line2d_30">
      <g>
       <use xlink:href="#m64c980737f" x="59.457863" y="127.415065" style="fill: #5a5758; stroke: #5a5758; stroke-width: 0.6"/>
      </g>
     </g>
    </g>
    <g id="ytick_26">
     <g id="line2d_31">
      <g>
       <use xlink:href="#m64c980737f" x="59.457863" y="89.27795" style="fill: #5a5758; stroke: #5a5758; stroke-width: 0.6"/>
      </g>
     </g>
    </g>
    <g id="ytick_27">
     <g id="line2d_32">
      <g>
       <use xlink:href="#m64c980737f" x="59.457863" y="69.91274" style="fill: #5a5758; stroke: #5a5758; stroke-width: 0.6"/>
      </g>
     </g>
    </g>
    <g id="ytick_28">
     <g id="line2d_33">
      <g>
       <use xlink:href="#m64c980737f" x="59.457863" y="56.172905" style="fill: #5a5758; stroke: #5a5758; stroke-width: 0.6"/>
      </g>
     </g>
    </g>
    <g id="ytick_29">
     <g id="line2d_34">
      <g>
       <use xlink:href="#m64c980737f" x="59.457863" y="45.51546" style="fill: #5a5758; stroke: #5a5758; stroke-width: 0.6"/>
      </g>
     </g>
    </g>
    <g id="ytick_30">
     <g id="line2d_35">
      <g>
       <use xlink:href="#m64c980737f" x="59.457863" y="36.807694" style="fill: #5a5758; stroke: #5a5758; stroke-width: 0.6"/>
      </g>
     </g>
    </g>
    <g id="ytick_31">
     <g id="line2d_36">
      <g>
       <use xlink:href="#m64c980737f" x="59.457863" y="29.445383" style="fill: #5a5758; stroke: #5a5758; stroke-width: 0.6"/>
      </g>
     </g>
    </g>
    <g id="ytick_32">
     <g id="line2d_37">
      <g>
       <use xlink:href="#m64c980737f" x="59.457863" y="23.067859" style="fill: #5a5758; stroke: #5a5758; stroke-width: 0.6"/>
      </g>
     </g>
    </g>
    <g id="ytick_33">
     <g id="line2d_38">
      <g>
       <use xlink:href="#m64c980737f" x="59.457863" y="17.442484" style="fill: #5a5758; stroke: #5a5758; stroke-width: 0.6"/>
      </g>
     </g>
    </g>
    <g id="text_11">
     <!-- Residual norm -->
     <g style="fill: #5a5758" transform="translate(19.71 248.534194) rotate(-90) scale(0.18 -0.18)">
      <defs>
       <path id="CMUBright-SemiBold-52" d="M 518 0 
L 518 4448 
L 2086 4448 
Q 2803 4448 3283 4166 
Q 3571 3994 3740 3741 
Q 3910 3488 3910 3206 
Q 3910 2810 3593 2496 
Q 3277 2182 2803 2061 
L 4102 0 
L 3430 0 
L 2208 1984 
L 1171 1984 
L 1171 0 
L 518 0 
z
M 1171 2464 
L 2054 2464 
Q 2477 2464 2758 2541 
Q 3040 2618 3181 2842 
Q 3283 3002 3283 3200 
Q 3283 3558 2995 3750 
Q 2714 3936 2086 3936 
L 1178 3936 
L 1171 3725 
L 1171 2464 
z
" transform="scale(0.015625)"/>
       <path id="CMUBright-SemiBold-64" d="M 224 1517 
Q 224 2150 544 2611 
Q 864 3072 1350 3072 
Q 1856 3072 2285 2701 
L 2285 4448 
L 2886 4448 
L 2886 0 
L 2272 0 
L 2272 378 
Q 1856 -51 1344 -51 
Q 864 -51 544 409 
Q 224 870 224 1517 
z
M 838 1427 
Q 851 966 1024 730 
Q 1248 429 1670 429 
Q 1830 429 1971 505 
Q 2112 582 2157 633 
Q 2202 685 2272 774 
L 2272 2349 
Q 2042 2592 1741 2592 
Q 1331 2592 1082 2336 
Q 838 2086 838 1562 
L 838 1427 
z
" transform="scale(0.015625)"/>
       <path id="CMUBright-SemiBold-75" d="M 410 838 
L 410 3021 
L 1024 3021 
L 1024 883 
Q 1030 570 1069 506 
Q 1139 403 1510 403 
Q 1888 403 2064 601 
Q 2240 800 2266 998 
Q 2272 1062 2272 1197 
L 2272 3021 
L 2886 3021 
L 2886 0 
L 2285 0 
L 2285 480 
Q 1830 -51 1088 -51 
Q 858 -51 710 29 
Q 563 109 502 262 
Q 442 416 426 537 
Q 410 659 410 838 
z
" transform="scale(0.015625)"/>
       <path id="CMUBright-SemiBold-6c" d="M 416 0 
L 416 4448 
L 1018 4448 
L 1018 0 
L 416 0 
z
" transform="scale(0.015625)"/>
       <path id="CMUBright-SemiBold-20" transform="scale(0.015625)"/>
       <path id="CMUBright-SemiBold-6d" d="M 410 0 
L 410 3021 
L 998 3021 
L 998 2714 
L 1005 2496 
Q 1344 3072 1971 3072 
Q 2080 3072 2176 3059 
Q 2272 3046 2345 3024 
Q 2419 3002 2483 2966 
Q 2547 2931 2592 2899 
Q 2637 2867 2675 2819 
Q 2714 2771 2736 2739 
Q 2758 2707 2784 2656 
Q 2810 2605 2816 2582 
Q 2822 2560 2838 2518 
Q 2854 2477 2854 2470 
Q 3187 3072 3840 3072 
Q 4090 3072 4272 2995 
Q 4454 2918 4544 2819 
Q 4634 2720 4685 2557 
Q 4736 2394 4745 2285 
Q 4755 2176 4755 2016 
L 4755 0 
L 4141 0 
L 4141 1984 
Q 4128 2278 4045 2394 
Q 3898 2592 3507 2592 
Q 3264 2592 3078 2390 
Q 2893 2189 2893 1728 
L 2893 0 
L 2272 0 
L 2272 1984 
Q 2266 2266 2195 2374 
Q 2054 2592 1645 2592 
Q 1402 2592 1213 2390 
Q 1024 2189 1024 1728 
L 1024 0 
L 410 0 
z
" transform="scale(0.015625)"/>
      </defs>
      <use xlink:href="#CMUBright-SemiBold-52"/>
      <use xlink:href="#CMUBright-SemiBold-65" x="67.099991"/>
      <use xlink:href="#CMUBright-SemiBold-73" x="114.199982"/>
      <use xlink:href="#CMUBright-SemiBold-69" x="154.399979"/>
      <use xlink:href="#CMUBright-SemiBold-64" x="176.899963"/>
      <use xlink:href="#CMUBright-SemiBold-75" x="228.59996"/>
      <use xlink:href="#CMUBright-SemiBold-61" x="280.299957"/>
      <use xlink:href="#CMUBright-SemiBold-6c" x="329.499954"/>
      <use xlink:href="#CMUBright-SemiBold-20" x="351.999939"/>
      <use xlink:href="#CMUBright-SemiBold-6e" x="385.299927"/>
      <use xlink:href="#CMUBright-SemiBold-6f" x="436.999924"/>
      <use xlink:href="#CMUBright-SemiBold-72" x="489.499908"/>
      <use xlink:href="#CMUBright-SemiBold-6d" x="524.099899"/>
     </g>
    </g>
   </g>
   <g id="line2d_39">
    <path d="M 71.457863 375.433201 
L 443.638041 375.433201 
" style="fill: none; stroke-dasharray: 7.4,3.2; stroke-dashoffset: 0; stroke: #808080; stroke-opacity: 0.7; stroke-width: 2"/>
   </g>
   <g id="line2d_40">
    <path d="M 71.457863 44.304948 
L 71.681215 105.181635 
L 72.05347 135.627334 
L 72.500175 154.326804 
L 73.095783 169.817798 
L 73.765841 181.711593 
L 74.584801 192.300676 
L 75.478213 201.08032 
L 76.520525 209.130251 
L 77.637289 216.075558 
L 78.902955 222.544357 
L 80.243072 228.263338 
L 81.73209 233.64113 
L 83.29556 238.472325 
L 85.007931 243.044689 
L 86.794753 247.200373 
L 88.730477 251.147223 
L 90.815103 254.883516 
L 92.97418 258.298387 
L 95.207708 261.428276 
L 97.590138 264.388439 
L 100.121469 267.173153 
L 102.801702 269.777286 
L 105.630838 272.209696 
L 108.608875 274.47672 
L 111.959166 276.73583 
L 115.681713 278.959631 
L 119.702063 281.096627 
L 124.392471 283.330975 
L 129.604036 285.573787 
L 135.932364 288.054204 
L 145.23873 291.385154 
L 154.619547 294.490255 
L 163.330305 297.218386 
L 184.176564 303.388339 
L 204.129413 309.000873 
L 242.992796 319.400039 
L 261.605527 324.167099 
L 268.678365 325.941623 
L 279.994906 328.748721 
L 289.747977 331.126652 
L 328.388008 340.110039 
L 343.79935 343.503954 
L 368.889312 348.747405 
L 391.075688 353.089674 
L 414.899984 357.433025 
L 443.638041 362.244631 
L 443.638041 362.244631 
" style="fill: none; stroke: #e29400; stroke-width: 2; stroke-linecap: square"/>
   </g>
   <g id="line2d_41">
    <path d="M 71.457863 44.304948 
L 71.755666 137.984022 
L 72.05347 166.792662 
L 72.500175 188.677938 
L 73.021332 204.077801 
L 73.69139 217.344752 
L 74.4359 227.844611 
L 75.329311 237.241962 
L 76.297173 245.078302 
L 77.339486 251.792317 
L 78.5307 258.007661 
L 79.796366 263.432536 
L 81.136483 268.228935 
L 82.55105 272.505778 
L 84.040069 276.338889 
L 85.677989 279.936829 
L 87.390361 283.154082 
L 89.177183 286.047311 
L 91.112907 288.768159 
L 93.271984 291.418871 
L 95.728864 294.073651 
L 98.558 296.793511 
L 101.908291 299.697453 
L 106.003092 302.943159 
L 111.140206 306.721784 
L 117.840789 311.362658 
L 127.147155 317.520517 
L 142.111791 327.124446 
L 184.251015 353.796631 
L 218.498441 375.467307 
L 218.498441 375.467307 
" style="fill: none; stroke: #414487; stroke-width: 2; stroke-linecap: square"/>
   </g>
   <g id="line2d_42">
    <path d="M 71.457863 44.304948 
L 71.681215 94.440213 
L 72.127921 183.937597 
L 72.425725 208.018859 
L 72.87243 225.341593 
L 73.468038 239.500365 
L 74.138096 250.386749 
L 74.957056 259.977588 
L 75.850467 267.768494 
L 76.818329 274.259136 
L 77.860642 279.742561 
L 78.977406 284.423687 
L 80.168621 288.475 
L 81.508738 292.245727 
L 83.072207 295.959389 
L 84.93348 299.785288 
L 87.241459 304.002617 
L 90.219496 308.964502 
L 94.388748 315.448884 
L 101.387135 325.863976 
L 135.113404 375.525546 
L 135.113404 375.525546 
" style="fill: none; stroke: #32648e; stroke-width: 2; stroke-linecap: square"/>
   </g>
   <g id="line2d_43">
    <path d="M 71.457863 44.304948 
L 71.532313 45.743197 
L 72.723528 216.795029 
L 73.095783 241.54454 
L 73.468038 253.133033 
L 73.989194 262.853288 
L 74.659252 271.571471 
L 75.478213 279.284808 
L 76.371624 285.51534 
L 77.339486 290.707341 
L 78.45625 295.495283 
L 79.796366 300.26608 
L 81.508738 305.526634 
L 83.816716 311.869583 
L 87.464812 321.173302 
L 108.906678 375.04576 
L 109.130031 375.612452 
L 109.130031 375.612452 
" style="fill: none; stroke: #26828e; stroke-width: 2; stroke-linecap: square"/>
   </g>
   <g id="line2d_44">
    <path d="M 71.457863 44.304948 
L 71.532313 36.866731 
L 74.733703 257.222094 
L 75.329311 283.956843 
L 75.776016 295.225532 
L 76.222722 301.553782 
L 76.818329 306.751565 
L 77.786191 312.89705 
L 79.498563 322.14112 
L 83.221109 342.152064 
L 88.060419 369.748239 
L 89.102732 375.777661 
L 89.102732 375.777661 
" style="fill: none; stroke: #1f9f88; stroke-width: 2; stroke-linecap: square"/>
   </g>
   <g id="line2d_45">
    <path d="M 71.457863 44.304948 
L 71.532313 34.833744 
L 71.606764 38.701447 
L 76.222722 272.803339 
L 76.967231 299.950365 
L 77.562838 313.748116 
L 78.083995 321.170669 
L 78.902955 329.312292 
L 80.838679 343.615956 
L 84.486775 372.653489 
L 84.859029 375.663687 
L 84.859029 375.663687 
" style="fill: none; stroke: #3bbb75; stroke-width: 2; stroke-linecap: square"/>
   </g>
   <g id="line2d_46">
    <path d="M 71.457863 44.304948 
L 71.606764 22.417286 
L 78.754053 22.417286 
L 78.902955 44.304948 
L 79.051857 22.417286 
L 86.199146 22.417286 
L 86.348048 44.304948 
L 86.49695 22.417286 
L 93.644238 22.417286 
L 93.79314 44.304948 
L 93.942042 22.417286 
L 101.089331 22.417286 
L 101.238233 44.304948 
L 101.387135 22.417286 
L 108.534424 22.417286 
L 108.683325 44.304948 
L 108.832227 22.417286 
L 115.979516 22.417286 
L 116.128418 44.304948 
L 116.27732 22.417286 
L 123.424609 22.417286 
L 123.573511 44.304948 
L 123.722413 22.417286 
L 130.869701 22.417286 
L 131.018603 44.304948 
L 131.167505 22.417286 
L 138.314794 22.417286 
L 138.463696 44.304948 
L 138.612598 22.417286 
L 145.759887 22.417286 
L 145.908788 44.304948 
L 146.05769 22.417286 
L 153.204979 22.417286 
L 153.353881 44.304948 
L 153.502783 22.417286 
L 160.650072 22.417286 
L 160.798974 44.304948 
L 160.947875 22.417286 
L 168.095164 22.417286 
L 168.244066 44.304948 
L 168.392968 22.417286 
L 175.540257 22.417286 
L 175.689159 44.304948 
L 175.838061 22.417286 
L 182.98535 22.417286 
L 183.134251 44.304948 
L 183.283153 22.417286 
L 190.430442 22.417286 
L 190.579344 44.304948 
L 190.728246 22.417286 
L 197.875535 22.417286 
L 198.024437 44.304948 
L 198.173338 22.417286 
L 205.320627 22.417286 
L 205.469529 44.304948 
L 205.618431 22.417286 
L 212.76572 22.417286 
L 212.914622 44.304948 
L 213.063524 22.417286 
L 220.210813 22.417286 
L 220.359714 44.304948 
L 220.508616 22.417286 
L 227.655905 22.417286 
L 227.804807 44.304948 
L 227.953709 22.417286 
L 235.100998 22.417286 
L 235.2499 44.304948 
L 235.398801 22.417286 
L 242.54609 22.417286 
L 242.694992 44.304948 
L 242.843894 22.417286 
L 249.991183 22.417286 
L 250.140085 44.304948 
L 250.288987 22.417286 
L 257.436275 22.417286 
L 257.585177 44.304948 
L 257.734079 22.417286 
L 264.881368 22.417286 
L 265.03027 44.304948 
L 265.179172 22.417286 
L 272.326461 22.417286 
L 272.475363 44.304948 
L 272.624264 22.417286 
L 279.771553 22.417286 
L 279.920455 44.304948 
L 280.069357 22.417286 
L 287.216646 22.417286 
L 287.365548 44.304948 
L 287.51445 22.417286 
L 294.661738 22.417286 
L 294.81064 44.304948 
L 294.959542 22.417286 
L 302.106831 22.417286 
L 302.255733 44.304948 
L 302.404635 22.417286 
L 309.551924 22.417286 
L 309.700825 44.304948 
L 309.849727 22.417286 
L 316.997016 22.417286 
L 317.145918 44.304948 
L 317.29482 22.417286 
L 324.442109 22.417286 
L 324.591011 44.304948 
L 324.739913 22.417286 
L 331.887201 22.417286 
L 332.036103 44.304948 
L 332.185005 22.417286 
L 339.332294 22.417286 
L 339.481196 44.304948 
L 339.630098 22.417286 
L 346.777387 22.417286 
L 346.926288 44.304948 
L 347.07519 22.417286 
L 354.222479 22.417286 
L 354.371381 44.304948 
L 354.520283 22.417286 
L 361.667572 22.417286 
L 361.816474 44.304948 
L 361.965375 22.417286 
L 369.112664 22.417286 
L 369.261566 44.304948 
L 369.410468 22.417286 
L 376.557757 22.417286 
L 376.706659 44.304948 
L 376.855561 22.417286 
L 384.00285 22.417286 
L 384.151751 44.304948 
L 384.300653 22.417286 
L 391.447942 22.417286 
L 391.596844 44.304948 
L 391.745746 22.417286 
L 398.893035 22.417286 
L 399.041937 44.304948 
L 399.190838 22.417286 
L 406.338127 22.417286 
L 406.487029 44.304948 
L 406.635931 22.417286 
L 413.78322 22.417286 
L 413.932122 44.304948 
L 414.081024 22.417286 
L 421.228313 22.417286 
L 421.377214 44.304948 
L 421.526116 22.417286 
L 428.673405 22.417286 
L 428.822307 44.304948 
L 428.971209 22.417286 
L 436.118498 22.417286 
L 436.2674 44.304948 
L 436.416301 22.417286 
L 443.56359 22.417286 
L 443.638041 33.693409 
L 443.638041 33.693409 
" style="fill: none; stroke: #7ad151; stroke-width: 2; stroke-linecap: square"/>
   </g>
   <g id="patch_3">
    <path d="M 59.457863 375.777661 
L 59.457863 12.410415 
" style="fill: none; stroke: #5a5758; stroke-width: 0.8; stroke-linejoin: miter; stroke-linecap: square"/>
   </g>
   <g id="patch_4">
    <path d="M 71.457863 387.777661 
L 443.638041 387.777661 
" style="fill: none; stroke: #5a5758; stroke-width: 0.8; stroke-linejoin: miter; stroke-linecap: square"/>
   </g>
   <g id="legend_1">
    <g id="line2d_47">
     <path d="M 272.818041 118.771069 
L 290.818041 118.771069 
L 308.818041 118.771069 
" style="fill: none; stroke: #e29400; stroke-width: 2; stroke-linecap: square"/>
    </g>
    <g id="text_12">
     <!-- Jacobi -->
     <g style="fill: #e29400" transform="translate(323.218041 125.071069) scale(0.18 -0.18)">
      <defs>
       <path id="CMUBright-Roman-4a" d="M 275 160 
L 346 563 
Q 819 224 1254 224 
Q 1517 224 1705 294 
Q 1894 365 1980 451 
Q 2067 538 2115 672 
Q 2163 806 2166 864 
Q 2170 922 2170 1005 
L 2170 4448 
L 2611 4448 
L 2611 992 
Q 2611 736 2540 541 
Q 2470 346 2355 224 
Q 2240 102 2083 25 
Q 1926 -51 1766 -80 
Q 1606 -109 1427 -109 
Q 864 -109 275 160 
z
" transform="scale(0.015625)"/>
       <path id="CMUBright-Roman-61" d="M 352 736 
Q 352 896 435 1046 
Q 518 1197 707 1347 
Q 896 1498 1283 1590 
Q 1670 1683 2214 1696 
L 2214 1965 
Q 2214 2381 2042 2579 
Q 1856 2803 1568 2803 
Q 1331 2803 1107 2736 
Q 883 2669 809 2624 
Q 736 2579 557 2470 
L 525 2829 
Q 1043 3104 1574 3104 
Q 2054 3104 2326 2806 
Q 2598 2509 2624 2144 
L 2630 1926 
L 2630 0 
L 2227 0 
L 2227 442 
Q 1830 -51 1107 -51 
L 1062 -51 
Q 710 -51 531 205 
Q 352 461 352 736 
z
M 749 749 
Q 749 518 950 393 
Q 1152 269 1408 269 
Q 1523 269 1644 297 
Q 1766 326 1904 390 
Q 2042 454 2128 595 
Q 2214 736 2214 928 
L 2214 1498 
Q 1568 1491 1158 1286 
Q 749 1082 749 749 
z
" transform="scale(0.015625)"/>
       <path id="CMUBright-Roman-63" d="M 294 1517 
Q 294 2157 691 2630 
Q 1088 3104 1709 3104 
Q 2042 3104 2250 3046 
Q 2458 2989 2758 2829 
L 2694 2477 
Q 2502 2592 2403 2640 
Q 2304 2688 2125 2729 
Q 1946 2771 1709 2771 
Q 1254 2771 982 2432 
Q 710 2093 710 1523 
Q 717 915 1008 598 
Q 1299 282 1696 282 
Q 1958 282 2192 365 
Q 2426 448 2525 518 
Q 2624 589 2765 710 
L 2797 352 
Q 2304 -51 1690 -51 
Q 1107 -51 700 403 
Q 294 858 294 1517 
z
" transform="scale(0.015625)"/>
       <path id="CMUBright-Roman-6f" d="M 256 1510 
Q 256 2182 675 2640 
Q 1094 3098 1677 3098 
Q 2272 3098 2681 2627 
Q 3091 2157 3091 1510 
Q 3091 838 2668 393 
Q 2246 -51 1677 -51 
Q 1088 -51 672 406 
Q 256 864 256 1510 
z
M 666 1587 
Q 666 1190 771 915 
Q 877 640 1046 512 
Q 1216 384 1369 333 
Q 1523 282 1677 282 
Q 1843 282 2006 342 
Q 2170 403 2330 537 
Q 2490 672 2586 937 
Q 2682 1203 2682 1568 
Q 2682 1914 2586 2163 
Q 2490 2413 2330 2541 
Q 2170 2669 2006 2723 
Q 1843 2778 1676 2778 
Q 1510 2778 1347 2723 
Q 1184 2669 1024 2544 
Q 864 2419 765 2172 
Q 666 1926 666 1587 
z
" transform="scale(0.015625)"/>
       <path id="CMUBright-Roman-62" d="M 512 0 
L 512 4448 
L 915 4448 
L 915 2592 
Q 1312 3072 1875 3072 
Q 2349 3072 2675 2621 
Q 3002 2170 3002 1523 
Q 3002 858 2634 403 
Q 2266 -51 1754 -51 
Q 1261 -51 928 422 
L 928 0 
L 512 0 
z
M 922 838 
Q 922 634 1107 451 
Q 1293 269 1555 269 
Q 1728 269 1891 326 
Q 2054 384 2220 512 
Q 2387 640 2489 896 
Q 2592 1152 2592 1510 
Q 2592 1882 2493 2147 
Q 2394 2413 2234 2534 
Q 2074 2656 1926 2704 
Q 1779 2752 1632 2752 
Q 1293 2752 1050 2490 
Q 954 2362 941 2333 
Q 928 2304 928 2195 
L 928 928 
Q 928 909 925 883 
Q 922 858 922 838 
z
" transform="scale(0.015625)"/>
       <path id="CMUBright-Roman-69" d="M 509 4019 
L 509 4422 
L 912 4422 
L 912 4019 
L 509 4019 
z
M 512 0 
L 512 3021 
L 915 3021 
L 915 0 
L 512 0 
z
" transform="scale(0.015625)"/>
      </defs>
      <use xlink:href="#CMUBright-Roman-4a"/>
      <use xlink:href="#CMUBright-Roman-61" x="48.299988"/>
      <use xlink:href="#CMUBright-Roman-63" x="97.499985"/>
      <use xlink:href="#CMUBright-Roman-6f" x="144.199982"/>
      <use xlink:href="#CMUBright-Roman-62" x="196.699966"/>
      <use xlink:href="#CMUBright-Roman-69" x="248.399963"/>
     </g>
    </g>
    <g id="line2d_48">
     <path d="M 272.818041 143.377632 
L 290.818041 143.377632 
L 308.818041 143.377632 
" style="fill: none; stroke: #414487; stroke-width: 2; stroke-linecap: square"/>
    </g>
    <g id="text_13">
     <!-- GS, $\omega$ = 1.00 -->
     <g style="fill: #5a5758" transform="translate(323.218041 149.677632) scale(0.18 -0.18)">
      <defs>
       <path id="CMUBright-Roman-47" d="M 518 2221 
Q 518 2829 777 3357 
Q 1037 3885 1529 4217 
Q 2022 4550 2637 4550 
L 2650 4550 
Q 3309 4550 3968 4243 
L 3891 3802 
Q 3699 3930 3580 3997 
Q 3462 4064 3203 4137 
Q 2944 4211 2650 4211 
Q 1914 4211 1440 3622 
Q 966 3034 966 2221 
Q 966 1389 1449 809 
Q 1933 230 2624 230 
Q 3040 230 3610 403 
L 3610 1760 
L 2605 1760 
L 2605 2099 
L 4026 2099 
L 4026 205 
Q 3328 -109 2630 -109 
Q 1741 -109 1129 572 
Q 518 1254 518 2221 
z
" transform="scale(0.015625)"/>
       <path id="CMUBright-Roman-53" d="M 294 339 
L 371 781 
Q 1082 256 1843 256 
Q 2342 256 2643 531 
Q 2944 806 2944 1152 
Q 2944 1402 2781 1622 
Q 2618 1843 2323 1958 
Q 2176 2016 1769 2096 
Q 1363 2176 1059 2317 
Q 755 2458 557 2746 
Q 365 3014 365 3341 
Q 365 3808 781 4179 
Q 1197 4550 1882 4550 
Q 2515 4550 3110 4243 
L 3034 3802 
Q 2848 3930 2745 3990 
Q 2643 4051 2400 4124 
Q 2157 4198 1882 4198 
Q 1389 4198 1081 3958 
Q 774 3718 774 3392 
Q 774 3168 931 2973 
Q 1088 2778 1376 2669 
Q 1491 2630 1910 2534 
Q 2330 2438 2438 2394 
Q 2899 2221 3126 1885 
Q 3354 1549 3354 1197 
Q 3354 678 2925 284 
Q 2496 -109 1837 -109 
Q 1030 -109 294 339 
z
" transform="scale(0.015625)"/>
       <path id="CMUBright-Roman-2c" d="M 678 0 
L 678 499 
L 1184 499 
L 1184 186 
L 1178 0 
L 934 -710 
L 678 -710 
L 832 0 
L 678 0 
z
" transform="scale(0.015625)"/>
       <path id="CMUBright-Roman-20" transform="scale(0.015625)"/>
       <path id="CMUBright-Roman-3c9" d="M 262 1286 
Q 262 2182 1107 3021 
L 1600 3021 
Q 1178 2573 1018 2330 
Q 678 1805 678 1280 
Q 678 851 867 566 
Q 1056 282 1357 282 
Q 1619 282 1833 531 
Q 2048 781 2048 1344 
L 2048 1920 
L 2426 1920 
L 2426 1344 
Q 2426 781 2640 531 
Q 2854 282 3117 282 
Q 3418 282 3606 566 
Q 3795 851 3795 1280 
Q 3795 1632 3628 1993 
Q 3462 2355 3305 2544 
Q 3149 2733 2931 2963 
Q 2893 3002 2874 3021 
L 3366 3021 
Q 4211 2182 4211 1286 
Q 4211 742 3900 345 
Q 3590 -51 3117 -51 
Q 2586 -51 2234 525 
Q 1933 -51 1357 -51 
Q 883 -51 572 345 
Q 262 742 262 1286 
z
" transform="scale(0.015625)"/>
       <path id="CMUBright-Roman-3d" d="M 378 1062 
Q 378 1229 576 1229 
L 3533 1229 
Q 3725 1222 3725 1062 
Q 3725 909 3514 909 
L 589 909 
Q 378 909 378 1062 
z
M 378 2304 
Q 378 2470 582 2470 
L 3533 2470 
Q 3725 2464 3725 2304 
Q 3725 2150 3514 2150 
L 589 2150 
Q 378 2150 378 2304 
z
" transform="scale(0.015625)"/>
       <path id="CMUBright-Roman-2e" d="M 678 0 
L 678 499 
L 1178 499 
L 1178 0 
L 678 0 
z
" transform="scale(0.015625)"/>
      </defs>
      <use xlink:href="#CMUBright-Roman-47" transform="translate(0 0.90625)"/>
      <use xlink:href="#CMUBright-Roman-53" transform="translate(69.999985 0.90625)"/>
      <use xlink:href="#CMUBright-Roman-2c" transform="translate(128.299973 0.90625)"/>
      <use xlink:href="#CMUBright-Roman-20" transform="translate(157.499969 0.90625)"/>
      <use xlink:href="#CMUBright-Roman-3c9" transform="translate(190.799957 0.90625)"/>
      <use xlink:href="#CMUBright-Roman-20" transform="translate(260.799942 0.90625)"/>
      <use xlink:href="#CMUBright-Roman-3d" transform="translate(294.09993 0.90625)"/>
      <use xlink:href="#CMUBright-Roman-20" transform="translate(358.299927 0.90625)"/>
      <use xlink:href="#CMUBright-Roman-31" transform="translate(391.599915 0.90625)"/>
      <use xlink:href="#CMUBright-Roman-2e" transform="translate(444.099899 0.90625)"/>
      <use xlink:href="#CMUBright-Roman-30" transform="translate(473.299896 0.90625)"/>
      <use xlink:href="#CMUBright-Roman-30" transform="translate(525.799881 0.90625)"/>
     </g>
    </g>
    <g id="line2d_49">
     <path d="M 272.818041 167.984194 
L 290.818041 167.984194 
L 308.818041 167.984194 
" style="fill: none; stroke: #32648e; stroke-width: 2; stroke-linecap: square"/>
    </g>
    <g id="text_14">
     <!-- GS, $\omega$ = 1.40 -->
     <g style="fill: #5a5758" transform="translate(323.218041 174.284194) scale(0.18 -0.18)">
      <use xlink:href="#CMUBright-Roman-47" transform="translate(0 0.90625)"/>
      <use xlink:href="#CMUBright-Roman-53" transform="translate(69.999985 0.90625)"/>
      <use xlink:href="#CMUBright-Roman-2c" transform="translate(128.299973 0.90625)"/>
      <use xlink:href="#CMUBright-Roman-20" transform="translate(157.499969 0.90625)"/>
      <use xlink:href="#CMUBright-Roman-3c9" transform="translate(190.799957 0.90625)"/>
      <use xlink:href="#CMUBright-Roman-20" transform="translate(260.799942 0.90625)"/>
      <use xlink:href="#CMUBright-Roman-3d" transform="translate(294.09993 0.90625)"/>
      <use xlink:href="#CMUBright-Roman-20" transform="translate(358.299927 0.90625)"/>
      <use xlink:href="#CMUBright-Roman-31" transform="translate(391.599915 0.90625)"/>
      <use xlink:href="#CMUBright-Roman-2e" transform="translate(444.099899 0.90625)"/>
      <use xlink:href="#CMUBright-Roman-34" transform="translate(473.299896 0.90625)"/>
      <use xlink:href="#CMUBright-Roman-30" transform="translate(525.799881 0.90625)"/>
     </g>
    </g>
    <g id="line2d_50">
     <path d="M 272.818041 192.590757 
L 290.818041 192.590757 
L 308.818041 192.590757 
" style="fill: none; stroke: #26828e; stroke-width: 2; stroke-linecap: square"/>
    </g>
    <g id="text_15">
     <!-- GS, $\omega$ = 1.60 -->
     <g style="fill: #5a5758" transform="translate(323.218041 198.890757) scale(0.18 -0.18)">
      <defs>
       <path id="CMUBright-Roman-36" d="M 346 2061 
Q 346 3072 864 3686 
Q 1382 4301 2074 4301 
L 2086 4301 
Q 2426 4301 2797 4179 
L 2797 3846 
Q 2374 3981 2074 3981 
L 2061 3981 
Q 1478 3981 1123 3491 
Q 768 3002 768 2208 
Q 768 2195 771 2166 
Q 774 2138 774 2125 
Q 928 2445 1238 2665 
Q 1549 2886 1952 2886 
Q 2387 2886 2682 2483 
Q 3008 2029 3008 1408 
Q 3008 768 2618 326 
Q 2240 -109 1690 -109 
Q 1510 -109 1340 -57 
Q 1171 -6 985 141 
Q 800 288 662 521 
Q 525 755 435 1152 
Q 346 1549 346 2061 
z
M 794 1389 
Q 813 1171 854 1004 
Q 896 838 985 643 
Q 1075 448 1254 336 
Q 1434 224 1690 224 
Q 2138 224 2381 550 
Q 2515 736 2550 921 
Q 2586 1107 2586 1434 
Q 2586 1645 2573 1776 
Q 2560 1907 2480 2089 
Q 2400 2272 2253 2400 
Q 2054 2566 1728 2566 
Q 1325 2566 1062 2265 
Q 800 1965 800 1555 
Q 800 1440 806 1389 
L 794 1389 
z
" transform="scale(0.015625)"/>
      </defs>
      <use xlink:href="#CMUBright-Roman-47" transform="translate(0 0.90625)"/>
      <use xlink:href="#CMUBright-Roman-53" transform="translate(69.999985 0.90625)"/>
      <use xlink:href="#CMUBright-Roman-2c" transform="translate(128.299973 0.90625)"/>
      <use xlink:href="#CMUBright-Roman-20" transform="translate(157.499969 0.90625)"/>
      <use xlink:href="#CMUBright-Roman-3c9" transform="translate(190.799957 0.90625)"/>
      <use xlink:href="#CMUBright-Roman-20" transform="translate(260.799942 0.90625)"/>
      <use xlink:href="#CMUBright-Roman-3d" transform="translate(294.09993 0.90625)"/>
      <use xlink:href="#CMUBright-Roman-20" transform="translate(358.299927 0.90625)"/>
      <use xlink:href="#CMUBright-Roman-31" transform="translate(391.599915 0.90625)"/>
      <use xlink:href="#CMUBright-Roman-2e" transform="translate(444.099899 0.90625)"/>
      <use xlink:href="#CMUBright-Roman-36" transform="translate(473.299896 0.90625)"/>
      <use xlink:href="#CMUBright-Roman-30" transform="translate(525.799881 0.90625)"/>
     </g>
    </g>
    <g id="line2d_51">
     <path d="M 272.818041 217.197319 
L 290.818041 217.197319 
L 308.818041 217.197319 
" style="fill: none; stroke: #1f9f88; stroke-width: 2; stroke-linecap: square"/>
    </g>
    <g id="text_16">
     <!-- GS, $\omega$ = 1.80 -->
     <g style="fill: #5a5758" transform="translate(323.218041 223.497319) scale(0.18 -0.18)">
      <defs>
       <path id="CMUBright-Roman-38" d="M 275 1158 
Q 275 1517 518 1817 
Q 762 2118 1248 2266 
Q 909 2349 640 2598 
Q 371 2848 371 3206 
Q 371 3642 745 3971 
Q 1120 4301 1677 4301 
Q 2221 4301 2601 3981 
Q 2982 3661 2982 3213 
Q 2982 2918 2787 2684 
Q 2592 2451 2285 2323 
L 2099 2266 
Q 2464 2176 2768 1885 
Q 3072 1594 3072 1158 
Q 3072 646 2665 268 
Q 2259 -109 1670 -109 
Q 1075 -109 675 275 
Q 275 659 275 1158 
z
M 698 1158 
Q 698 704 970 464 
Q 1242 224 1670 224 
Q 2118 224 2384 470 
Q 2650 717 2650 1165 
Q 2650 1619 2371 1862 
Q 2093 2106 1670 2106 
Q 1280 2106 989 1878 
Q 698 1651 698 1158 
z
M 755 3206 
Q 755 2886 982 2656 
Q 1210 2426 1670 2426 
Q 2093 2426 2342 2634 
Q 2592 2842 2592 3206 
Q 2592 3507 2387 3744 
Q 2182 3981 1683 3981 
Q 1171 3981 963 3744 
Q 755 3507 755 3206 
z
" transform="scale(0.015625)"/>
      </defs>
      <use xlink:href="#CMUBright-Roman-47" transform="translate(0 0.90625)"/>
      <use xlink:href="#CMUBright-Roman-53" transform="translate(69.999985 0.90625)"/>
      <use xlink:href="#CMUBright-Roman-2c" transform="translate(128.299973 0.90625)"/>
      <use xlink:href="#CMUBright-Roman-20" transform="translate(157.499969 0.90625)"/>
      <use xlink:href="#CMUBright-Roman-3c9" transform="translate(190.799957 0.90625)"/>
      <use xlink:href="#CMUBright-Roman-20" transform="translate(260.799942 0.90625)"/>
      <use xlink:href="#CMUBright-Roman-3d" transform="translate(294.09993 0.90625)"/>
      <use xlink:href="#CMUBright-Roman-20" transform="translate(358.299927 0.90625)"/>
      <use xlink:href="#CMUBright-Roman-31" transform="translate(391.599915 0.90625)"/>
      <use xlink:href="#CMUBright-Roman-2e" transform="translate(444.099899 0.90625)"/>
      <use xlink:href="#CMUBright-Roman-38" transform="translate(473.299896 0.90625)"/>
      <use xlink:href="#CMUBright-Roman-30" transform="translate(525.799881 0.90625)"/>
     </g>
    </g>
    <g id="line2d_52">
     <path d="M 272.818041 241.803882 
L 290.818041 241.803882 
L 308.818041 241.803882 
" style="fill: none; stroke: #3bbb75; stroke-width: 2; stroke-linecap: square"/>
    </g>
    <g id="text_17">
     <!-- GS, $\omega$ = 1.85 -->
     <g style="fill: #5a5758" transform="translate(323.218041 248.103882) scale(0.18 -0.18)">
      <defs>
       <path id="CMUBright-Roman-35" d="M 301 518 
L 486 819 
Q 896 224 1581 224 
Q 1971 224 2268 473 
Q 2566 723 2566 1312 
Q 2566 1626 2489 1846 
Q 2413 2067 2285 2176 
Q 2157 2285 2032 2329 
Q 1907 2374 1773 2374 
Q 1210 2374 941 1901 
L 582 1901 
L 582 4192 
L 2797 4192 
L 2797 3853 
L 973 3853 
L 973 2381 
Q 1325 2701 1779 2701 
Q 2285 2701 2653 2291 
Q 3021 1882 3021 1306 
Q 3021 723 2601 307 
Q 2182 -109 1574 -109 
Q 813 -109 301 518 
z
" transform="scale(0.015625)"/>
      </defs>
      <use xlink:href="#CMUBright-Roman-47" transform="translate(0 0.90625)"/>
      <use xlink:href="#CMUBright-Roman-53" transform="translate(69.999985 0.90625)"/>
      <use xlink:href="#CMUBright-Roman-2c" transform="translate(128.299973 0.90625)"/>
      <use xlink:href="#CMUBright-Roman-20" transform="translate(157.499969 0.90625)"/>
      <use xlink:href="#CMUBright-Roman-3c9" transform="translate(190.799957 0.90625)"/>
      <use xlink:href="#CMUBright-Roman-20" transform="translate(260.799942 0.90625)"/>
      <use xlink:href="#CMUBright-Roman-3d" transform="translate(294.09993 0.90625)"/>
      <use xlink:href="#CMUBright-Roman-20" transform="translate(358.299927 0.90625)"/>
      <use xlink:href="#CMUBright-Roman-31" transform="translate(391.599915 0.90625)"/>
      <use xlink:href="#CMUBright-Roman-2e" transform="translate(444.099899 0.90625)"/>
      <use xlink:href="#CMUBright-Roman-38" transform="translate(473.299896 0.90625)"/>
      <use xlink:href="#CMUBright-Roman-35" transform="translate(525.799881 0.90625)"/>
     </g>
    </g>
    <g id="line2d_53">
     <path d="M 272.818041 266.410444 
L 290.818041 266.410444 
L 308.818041 266.410444 
" style="fill: none; stroke: #7ad151; stroke-width: 2; stroke-linecap: square"/>
    </g>
    <g id="text_18">
     <!-- GS, $\omega$ = 2.00 -->
     <g style="fill: #5a5758" transform="translate(323.218041 272.710444) scale(0.18 -0.18)">
      <use xlink:href="#CMUBright-Roman-47" transform="translate(0 0.90625)"/>
      <use xlink:href="#CMUBright-Roman-53" transform="translate(69.999985 0.90625)"/>
      <use xlink:href="#CMUBright-Roman-2c" transform="translate(128.299973 0.90625)"/>
      <use xlink:href="#CMUBright-Roman-20" transform="translate(157.499969 0.90625)"/>
      <use xlink:href="#CMUBright-Roman-3c9" transform="translate(190.799957 0.90625)"/>
      <use xlink:href="#CMUBright-Roman-20" transform="translate(260.799942 0.90625)"/>
      <use xlink:href="#CMUBright-Roman-3d" transform="translate(294.09993 0.90625)"/>
      <use xlink:href="#CMUBright-Roman-20" transform="translate(358.299927 0.90625)"/>
      <use xlink:href="#CMUBright-Roman-32" transform="translate(391.599915 0.90625)"/>
      <use xlink:href="#CMUBright-Roman-2e" transform="translate(444.099899 0.90625)"/>
      <use xlink:href="#CMUBright-Roman-30" transform="translate(473.299896 0.90625)"/>
      <use xlink:href="#CMUBright-Roman-30" transform="translate(525.799881 0.90625)"/>
     </g>
    </g>
   </g>
  </g>
  <g id="axes_2">
   <g id="patch_5">
    <path d="M 493.019341 375.777661 
L 865.19952 375.777661 
L 865.19952 12.410415 
L 493.019341 12.410415 
z
" style="fill: #ffffff"/>
   </g>
   <g id="matplotlib.axis_3">
    <g id="xtick_6">
     <g id="line2d_54">
      <g>
       <use xlink:href="#mafb66b1e29" x="542.157668" y="387.777661" style="fill: #5a5758; stroke: #5a5758; stroke-width: 0.8"/>
      </g>
     </g>
     <g id="text_19">
      <!-- 1 -->
      <g style="fill: #5a5758" transform="translate(538.221743 405.198491) scale(0.14994 -0.14994)">
       <use xlink:href="#CMUBright-Roman-31"/>
      </g>
     </g>
    </g>
    <g id="xtick_7">
     <g id="line2d_55">
      <g>
       <use xlink:href="#mafb66b1e29" x="591.297705" y="387.777661" style="fill: #5a5758; stroke: #5a5758; stroke-width: 0.8"/>
      </g>
     </g>
     <g id="text_20">
      <!-- 2 -->
      <g style="fill: #5a5758" transform="translate(587.36178 405.198491) scale(0.14994 -0.14994)">
       <use xlink:href="#CMUBright-Roman-32"/>
      </g>
     </g>
    </g>
    <g id="xtick_8">
     <g id="line2d_56">
      <g>
       <use xlink:href="#mafb66b1e29" x="640.437742" y="387.777661" style="fill: #5a5758; stroke: #5a5758; stroke-width: 0.8"/>
      </g>
     </g>
     <g id="text_21">
      <!-- 3 -->
      <g style="fill: #5a5758" transform="translate(636.501817 405.198491) scale(0.14994 -0.14994)">
       <use xlink:href="#CMUBright-Roman-33"/>
      </g>
     </g>
    </g>
    <g id="xtick_9">
     <g id="line2d_57">
      <g>
       <use xlink:href="#mafb66b1e29" x="689.577779" y="387.777661" style="fill: #5a5758; stroke: #5a5758; stroke-width: 0.8"/>
      </g>
     </g>
     <g id="text_22">
      <!-- 4 -->
      <g style="fill: #5a5758" transform="translate(685.641854 405.198491) scale(0.14994 -0.14994)">
       <use xlink:href="#CMUBright-Roman-34"/>
      </g>
     </g>
    </g>
    <g id="xtick_10">
     <g id="line2d_58">
      <g>
       <use xlink:href="#mafb66b1e29" x="738.717816" y="387.777661" style="fill: #5a5758; stroke: #5a5758; stroke-width: 0.8"/>
      </g>
     </g>
     <g id="text_23">
      <!-- 5 -->
      <g style="fill: #5a5758" transform="translate(734.781891 405.198491) scale(0.14994 -0.14994)">
       <use xlink:href="#CMUBright-Roman-35"/>
      </g>
     </g>
    </g>
    <g id="xtick_11">
     <g id="line2d_59">
      <g>
       <use xlink:href="#mafb66b1e29" x="787.857853" y="387.777661" style="fill: #5a5758; stroke: #5a5758; stroke-width: 0.8"/>
      </g>
     </g>
     <g id="text_24">
      <!-- 6 -->
      <g style="fill: #5a5758" transform="translate(783.921928 405.198491) scale(0.14994 -0.14994)">
       <use xlink:href="#CMUBright-Roman-36"/>
      </g>
     </g>
    </g>
    <g id="xtick_12">
     <g id="line2d_60">
      <g>
       <use xlink:href="#mafb66b1e29" x="836.99789" y="387.777661" style="fill: #5a5758; stroke: #5a5758; stroke-width: 0.8"/>
      </g>
     </g>
     <g id="text_25">
      <!-- 7 -->
      <g style="fill: #5a5758" transform="translate(833.061965 405.198491) scale(0.14994 -0.14994)">
       <defs>
        <path id="CMUBright-Roman-37" d="M 275 3840 
L 275 4192 
L 3072 4192 
L 3072 3853 
Q 2400 3149 1958 2147 
Q 1517 1146 1517 -51 
L 1088 -51 
Q 1088 1030 1523 2048 
Q 1958 3066 2797 3840 
L 275 3840 
z
" transform="scale(0.015625)"/>
       </defs>
       <use xlink:href="#CMUBright-Roman-37"/>
      </g>
     </g>
    </g>
    <g id="text_26">
     <!-- Time (s) -->
     <g style="fill: #5a5758" transform="translate(645.090837 429.202958) scale(0.18 -0.18)">
      <defs>
       <path id="CMUBright-SemiBold-54" d="M 237 3910 
L 237 4416 
L 4390 4416 
L 4390 3910 
L 2650 3910 
L 2650 0 
L 1978 0 
L 1978 3910 
L 237 3910 
z
" transform="scale(0.015625)"/>
       <path id="CMUBright-SemiBold-28" d="M 1747 -1421 
Q 499 -358 499 1690 
Q 499 3738 1747 4800 
L 2234 4800 
Q 2086 4653 1990 4544 
Q 1894 4435 1708 4147 
Q 1523 3859 1411 3552 
Q 1299 3245 1206 2752 
Q 1114 2259 1114 1689 
Q 1114 1120 1206 627 
Q 1299 134 1411 -173 
Q 1523 -480 1708 -768 
Q 1894 -1056 1990 -1165 
Q 2086 -1274 2234 -1421 
L 1747 -1421 
z
" transform="scale(0.015625)"/>
       <path id="CMUBright-SemiBold-29" d="M 371 -1421 
Q 525 -1267 614 -1164 
Q 704 -1062 893 -768 
Q 1082 -474 1194 -173 
Q 1306 128 1398 624 
Q 1491 1120 1491 1690 
Q 1491 2246 1404 2732 
Q 1318 3219 1206 3523 
Q 1094 3827 921 4105 
Q 749 4384 646 4502 
Q 544 4621 416 4755 
Q 384 4787 371 4800 
L 851 4800 
Q 2106 3731 2106 1689 
Q 2106 -352 851 -1421 
L 371 -1421 
z
" transform="scale(0.015625)"/>
      </defs>
      <use xlink:href="#CMUBright-SemiBold-54"/>
      <use xlink:href="#CMUBright-SemiBold-69" x="72.499985"/>
      <use xlink:href="#CMUBright-SemiBold-6d" x="94.999969"/>
      <use xlink:href="#CMUBright-SemiBold-65" x="175.799957"/>
      <use xlink:href="#CMUBright-SemiBold-20" x="222.899948"/>
      <use xlink:href="#CMUBright-SemiBold-28" x="256.199936"/>
      <use xlink:href="#CMUBright-SemiBold-73" x="296.999924"/>
      <use xlink:href="#CMUBright-SemiBold-29" x="337.199921"/>
     </g>
    </g>
   </g>
   <g id="matplotlib.axis_4">
    <g id="ytick_34">
     <g id="line2d_61">
      <g>
       <use xlink:href="#mcd3761cc1b" x="481.019341" y="342.328156" style="fill: #5a5758; stroke: #5a5758; stroke-width: 0.8"/>
      </g>
     </g>
     <g id="text_27">
      <!-- $\mathdefault{10^{0}}$ -->
      <g style="fill: #5a5758" transform="translate(452.278041 347.538571) scale(0.14994 -0.14994)">
       <use xlink:href="#CMUBright-Roman-31" transform="translate(0 0.915625)"/>
       <use xlink:href="#CMUBright-Roman-30" transform="translate(52.499985 0.915625)"/>
       <use xlink:href="#CMUBright-Roman-30" transform="translate(105.826024 33.957813) scale(0.7)"/>
      </g>
     </g>
    </g>
    <g id="ytick_35">
     <g id="line2d_62">
      <g>
       <use xlink:href="#mcd3761cc1b" x="481.019341" y="232.355575" style="fill: #5a5758; stroke: #5a5758; stroke-width: 0.8"/>
      </g>
     </g>
     <g id="text_28">
      <!-- $\mathdefault{10^{1}}$ -->
      <g style="fill: #5a5758" transform="translate(452.278041 237.56599) scale(0.14994 -0.14994)">
       <use xlink:href="#CMUBright-Roman-31" transform="translate(0 0.915625)"/>
       <use xlink:href="#CMUBright-Roman-30" transform="translate(52.499985 0.915625)"/>
       <use xlink:href="#CMUBright-Roman-31" transform="translate(105.826024 33.957813) scale(0.7)"/>
      </g>
     </g>
    </g>
    <g id="ytick_36">
     <g id="line2d_63">
      <g>
       <use xlink:href="#mcd3761cc1b" x="481.019341" y="122.382995" style="fill: #5a5758; stroke: #5a5758; stroke-width: 0.8"/>
      </g>
     </g>
     <g id="text_29">
      <!-- $\mathdefault{10^{2}}$ -->
      <g style="fill: #5a5758" transform="translate(452.278041 127.59341) scale(0.14994 -0.14994)">
       <use xlink:href="#CMUBright-Roman-31" transform="translate(0 0.915625)"/>
       <use xlink:href="#CMUBright-Roman-30" transform="translate(52.499985 0.915625)"/>
       <use xlink:href="#CMUBright-Roman-32" transform="translate(105.826024 33.957813) scale(0.7)"/>
      </g>
     </g>
    </g>
    <g id="ytick_37">
     <g id="line2d_64">
      <g>
       <use xlink:href="#mcd3761cc1b" x="481.019341" y="12.410415" style="fill: #5a5758; stroke: #5a5758; stroke-width: 0.8"/>
      </g>
     </g>
     <g id="text_30">
      <!-- $\mathdefault{10^{3}}$ -->
      <g style="fill: #5a5758" transform="translate(452.278041 17.62083) scale(0.14994 -0.14994)">
       <use xlink:href="#CMUBright-Roman-31" transform="translate(0 0.915625)"/>
       <use xlink:href="#CMUBright-Roman-30" transform="translate(52.499985 0.915625)"/>
       <use xlink:href="#CMUBright-Roman-33" transform="translate(105.826024 33.957813) scale(0.7)"/>
      </g>
     </g>
    </g>
    <g id="ytick_38">
     <g id="line2d_65">
      <g>
       <use xlink:href="#m64c980737f" x="481.019341" y="375.433201" style="fill: #5a5758; stroke: #5a5758; stroke-width: 0.6"/>
      </g>
     </g>
    </g>
    <g id="ytick_39">
     <g id="line2d_66">
      <g>
       <use xlink:href="#m64c980737f" x="481.019341" y="366.725435" style="fill: #5a5758; stroke: #5a5758; stroke-width: 0.6"/>
      </g>
     </g>
    </g>
    <g id="ytick_40">
     <g id="line2d_67">
      <g>
       <use xlink:href="#m64c980737f" x="481.019341" y="359.363124" style="fill: #5a5758; stroke: #5a5758; stroke-width: 0.6"/>
      </g>
     </g>
    </g>
    <g id="ytick_41">
     <g id="line2d_68">
      <g>
       <use xlink:href="#m64c980737f" x="481.019341" y="352.9856" style="fill: #5a5758; stroke: #5a5758; stroke-width: 0.6"/>
      </g>
     </g>
    </g>
    <g id="ytick_42">
     <g id="line2d_69">
      <g>
       <use xlink:href="#m64c980737f" x="481.019341" y="347.360225" style="fill: #5a5758; stroke: #5a5758; stroke-width: 0.6"/>
      </g>
     </g>
    </g>
    <g id="ytick_43">
     <g id="line2d_70">
      <g>
       <use xlink:href="#m64c980737f" x="481.019341" y="309.22311" style="fill: #5a5758; stroke: #5a5758; stroke-width: 0.6"/>
      </g>
     </g>
    </g>
    <g id="ytick_44">
     <g id="line2d_71">
      <g>
       <use xlink:href="#m64c980737f" x="481.019341" y="289.8579" style="fill: #5a5758; stroke: #5a5758; stroke-width: 0.6"/>
      </g>
     </g>
    </g>
    <g id="ytick_45">
     <g id="line2d_72">
      <g>
       <use xlink:href="#m64c980737f" x="481.019341" y="276.118065" style="fill: #5a5758; stroke: #5a5758; stroke-width: 0.6"/>
      </g>
     </g>
    </g>
    <g id="ytick_46">
     <g id="line2d_73">
      <g>
       <use xlink:href="#m64c980737f" x="481.019341" y="265.460621" style="fill: #5a5758; stroke: #5a5758; stroke-width: 0.6"/>
      </g>
     </g>
    </g>
    <g id="ytick_47">
     <g id="line2d_74">
      <g>
       <use xlink:href="#m64c980737f" x="481.019341" y="256.752855" style="fill: #5a5758; stroke: #5a5758; stroke-width: 0.6"/>
      </g>
     </g>
    </g>
    <g id="ytick_48">
     <g id="line2d_75">
      <g>
       <use xlink:href="#m64c980737f" x="481.019341" y="249.390544" style="fill: #5a5758; stroke: #5a5758; stroke-width: 0.6"/>
      </g>
     </g>
    </g>
    <g id="ytick_49">
     <g id="line2d_76">
      <g>
       <use xlink:href="#m64c980737f" x="481.019341" y="243.01302" style="fill: #5a5758; stroke: #5a5758; stroke-width: 0.6"/>
      </g>
     </g>
    </g>
    <g id="ytick_50">
     <g id="line2d_77">
      <g>
       <use xlink:href="#m64c980737f" x="481.019341" y="237.387645" style="fill: #5a5758; stroke: #5a5758; stroke-width: 0.6"/>
      </g>
     </g>
    </g>
    <g id="ytick_51">
     <g id="line2d_78">
      <g>
       <use xlink:href="#m64c980737f" x="481.019341" y="199.25053" style="fill: #5a5758; stroke: #5a5758; stroke-width: 0.6"/>
      </g>
     </g>
    </g>
    <g id="ytick_52">
     <g id="line2d_79">
      <g>
       <use xlink:href="#m64c980737f" x="481.019341" y="179.88532" style="fill: #5a5758; stroke: #5a5758; stroke-width: 0.6"/>
      </g>
     </g>
    </g>
    <g id="ytick_53">
     <g id="line2d_80">
      <g>
       <use xlink:href="#m64c980737f" x="481.019341" y="166.145485" style="fill: #5a5758; stroke: #5a5758; stroke-width: 0.6"/>
      </g>
     </g>
    </g>
    <g id="ytick_54">
     <g id="line2d_81">
      <g>
       <use xlink:href="#m64c980737f" x="481.019341" y="155.488041" style="fill: #5a5758; stroke: #5a5758; stroke-width: 0.6"/>
      </g>
     </g>
    </g>
    <g id="ytick_55">
     <g id="line2d_82">
      <g>
       <use xlink:href="#m64c980737f" x="481.019341" y="146.780275" style="fill: #5a5758; stroke: #5a5758; stroke-width: 0.6"/>
      </g>
     </g>
    </g>
    <g id="ytick_56">
     <g id="line2d_83">
      <g>
       <use xlink:href="#m64c980737f" x="481.019341" y="139.417963" style="fill: #5a5758; stroke: #5a5758; stroke-width: 0.6"/>
      </g>
     </g>
    </g>
    <g id="ytick_57">
     <g id="line2d_84">
      <g>
       <use xlink:href="#m64c980737f" x="481.019341" y="133.040439" style="fill: #5a5758; stroke: #5a5758; stroke-width: 0.6"/>
      </g>
     </g>
    </g>
    <g id="ytick_58">
     <g id="line2d_85">
      <g>
       <use xlink:href="#m64c980737f" x="481.019341" y="127.415065" style="fill: #5a5758; stroke: #5a5758; stroke-width: 0.6"/>
      </g>
     </g>
    </g>
    <g id="ytick_59">
     <g id="line2d_86">
      <g>
       <use xlink:href="#m64c980737f" x="481.019341" y="89.27795" style="fill: #5a5758; stroke: #5a5758; stroke-width: 0.6"/>
      </g>
     </g>
    </g>
    <g id="ytick_60">
     <g id="line2d_87">
      <g>
       <use xlink:href="#m64c980737f" x="481.019341" y="69.91274" style="fill: #5a5758; stroke: #5a5758; stroke-width: 0.6"/>
      </g>
     </g>
    </g>
    <g id="ytick_61">
     <g id="line2d_88">
      <g>
       <use xlink:href="#m64c980737f" x="481.019341" y="56.172905" style="fill: #5a5758; stroke: #5a5758; stroke-width: 0.6"/>
      </g>
     </g>
    </g>
    <g id="ytick_62">
     <g id="line2d_89">
      <g>
       <use xlink:href="#m64c980737f" x="481.019341" y="45.51546" style="fill: #5a5758; stroke: #5a5758; stroke-width: 0.6"/>
      </g>
     </g>
    </g>
    <g id="ytick_63">
     <g id="line2d_90">
      <g>
       <use xlink:href="#m64c980737f" x="481.019341" y="36.807694" style="fill: #5a5758; stroke: #5a5758; stroke-width: 0.6"/>
      </g>
     </g>
    </g>
    <g id="ytick_64">
     <g id="line2d_91">
      <g>
       <use xlink:href="#m64c980737f" x="481.019341" y="29.445383" style="fill: #5a5758; stroke: #5a5758; stroke-width: 0.6"/>
      </g>
     </g>
    </g>
    <g id="ytick_65">
     <g id="line2d_92">
      <g>
       <use xlink:href="#m64c980737f" x="481.019341" y="23.067859" style="fill: #5a5758; stroke: #5a5758; stroke-width: 0.6"/>
      </g>
     </g>
    </g>
    <g id="ytick_66">
     <g id="line2d_93">
      <g>
       <use xlink:href="#m64c980737f" x="481.019341" y="17.442484" style="fill: #5a5758; stroke: #5a5758; stroke-width: 0.6"/>
      </g>
     </g>
    </g>
   </g>
   <g id="line2d_94">
    <path d="M 493.019341 375.433201 
L 865.19952 375.433201 
" style="fill: none; stroke-dasharray: 7.4,3.2; stroke-dashoffset: 0; stroke: #808080; stroke-opacity: 0.7; stroke-width: 2"/>
   </g>
   <g id="line2d_95">
    <path d="M 493.023254 44.304948 
L 502.246056 77.4088 
L 502.988364 93.95973 
L 503.289263 126.320831 
L 503.735978 149.112155 
L 504.399672 168.212161 
L 505.049295 180.570817 
L 505.910519 192.300676 
L 506.762687 201.08032 
L 507.681494 208.613324 
L 508.818007 216.075558 
L 510.025717 222.544357 
L 511.236484 227.97005 
L 512.517079 232.888518 
L 514.144534 238.257803 
L 515.701366 242.672304 
L 517.984689 248.157678 
L 519.687208 251.710564 
L 521.597111 255.256774 
L 523.289179 257.964157 
L 525.129548 260.528108 
L 528.268248 264.647894 
L 528.781522 265.159053 
L 529.804074 265.904793 
L 532.685927 268.944897 
L 534.93668 271.030663 
L 537.846006 273.433555 
L 541.502105 276.061846 
L 544.533289 278.01303 
L 548.277244 280.137001 
L 554.401238 283.161622 
L 559.549859 285.45102 
L 564.252222 287.376339 
L 574.453454 291.206487 
L 585.836726 295.060617 
L 596.729464 298.490513 
L 611.559167 302.961557 
L 649.272349 313.720149 
L 650.968623 314.180565 
L 691.967388 325.024893 
L 703.928031 328.085875 
L 721.723929 332.575351 
L 775.29042 344.992168 
L 784.128518 346.914099 
L 792.084433 348.611679 
L 808.96819 352.045058 
L 817.235373 353.665869 
L 826.308316 355.41524 
L 842.841721 358.410874 
L 865.19952 362.244631 
L 865.19952 362.244631 
" style="fill: none; stroke: #e29400; stroke-width: 2; stroke-linecap: square"/>
   </g>
   <g id="line2d_96">
    <path d="M 493.021462 44.304948 
L 493.163154 210.595974 
L 493.414776 250.017257 
L 493.755158 271.662269 
L 494.165765 285.128602 
L 494.661488 294.598127 
L 495.269813 302.256701 
L 496.873145 318.96968 
L 501.553553 364.676878 
L 502.652363 375.467307 
L 502.652363 375.467307 
" style="fill: none; stroke: #414487; stroke-width: 2; stroke-linecap: square"/>
   </g>
   <g id="line2d_97">
    <path d="M 493.019704 44.304948 
L 493.224662 255.989771 
L 493.492968 283.272718 
L 493.848768 298.313732 
L 494.461662 314.08778 
L 496.802393 367.167516 
L 497.167765 375.525546 
L 497.167765 375.525546 
" style="fill: none; stroke: #32648e; stroke-width: 2; stroke-linecap: square"/>
   </g>
   <g id="line2d_98">
    <path d="M 493.019435 44.304948 
L 493.039059 80.989447 
L 493.228224 271.571471 
L 493.481826 295.782991 
L 493.964556 317.431457 
L 495.476704 375.612452 
L 495.476704 375.612452 
" style="fill: none; stroke: #26828e; stroke-width: 2; stroke-linecap: square"/>
   </g>
   <g id="line2d_99">
    <path d="M 493.019353 44.304948 
L 493.024438 36.866731 
L 493.087129 105.650513 
L 493.379277 307.803048 
L 494.082524 368.458178 
L 494.17235 375.777661 
L 494.17235 375.777661 
" style="fill: none; stroke: #1f9f88; stroke-width: 2; stroke-linecap: square"/>
   </g>
   <g id="line2d_100">
    <path d="M 493.019505 44.304948 
L 493.024707 34.833744 
L 493.101692 96.705194 
L 493.499025 328.79231 
L 493.889914 375.663687 
L 493.889914 375.663687 
" style="fill: none; stroke: #3bbb75; stroke-width: 2; stroke-linecap: square"/>
   </g>
   <g id="line2d_101">
    <path d="M 493.019341 44.304948 
L 493.12967 22.417286 
L 493.531478 22.417286 
L 493.541437 44.304948 
L 493.641409 22.417286 
L 494.039667 22.417286 
L 494.049532 44.304948 
L 494.148754 22.417286 
L 494.533375 22.417286 
L 494.543451 44.304948 
L 494.641911 22.417286 
L 495.028266 22.417286 
L 495.038166 44.304948 
L 495.137599 22.417286 
L 495.581514 22.417286 
L 495.594648 44.304948 
L 495.687321 22.417286 
L 496.157163 22.417286 
L 496.168586 44.304948 
L 496.266566 22.417286 
L 496.732941 22.417286 
L 496.744364 44.304948 
L 496.841606 22.417286 
L 497.308754 22.417286 
L 497.320236 44.304948 
L 497.418204 22.417286 
L 497.886734 22.417286 
L 497.898825 44.304948 
L 497.995353 22.417286 
L 498.461223 22.417286 
L 498.473841 44.304948 
L 498.571458 22.417286 
L 499.034998 22.417286 
L 499.046538 44.304948 
L 499.143557 22.417286 
L 499.611244 22.417286 
L 499.622738 44.304948 
L 499.720694 22.417286 
L 500.188112 22.417286 
L 500.200273 44.304948 
L 500.298124 22.417286 
L 500.765893 22.417286 
L 500.777339 44.304948 
L 500.8715 22.417286 
L 501.346357 22.417286 
L 501.359045 44.304948 
L 501.45214 22.417286 
L 501.940587 22.417286 
L 501.952362 44.304948 
L 502.048502 22.417286 
L 502.504802 22.417286 
L 502.516131 44.304948 
L 502.614451 22.417286 
L 503.078799 22.417286 
L 503.090198 44.304948 
L 503.187135 22.417286 
L 503.646949 22.417286 
L 503.658407 44.304948 
L 503.755825 22.417286 
L 504.216166 22.417286 
L 504.228831 44.304948 
L 504.321609 22.417286 
L 504.780533 22.417286 
L 504.7913 44.304948 
L 504.887733 22.417286 
L 505.321561 22.417286 
L 505.332305 44.304948 
L 505.428996 22.417286 
L 505.865062 22.417286 
L 505.875571 44.304948 
L 505.973609 22.417286 
L 506.434302 22.417286 
L 506.445713 44.304948 
L 506.543752 22.417286 
L 506.984176 22.417286 
L 506.996021 44.304948 
L 507.092841 22.417286 
L 507.523658 22.417286 
L 507.534343 44.304948 
L 507.630378 22.417286 
L 508.060187 22.417286 
L 508.070896 44.304948 
L 508.167013 22.417286 
L 508.594104 22.417286 
L 508.604813 44.304948 
L 508.7025 22.417286 
L 509.132145 22.417286 
L 509.142842 44.304948 
L 509.240306 22.417286 
L 509.669952 22.417286 
L 509.681773 44.304948 
L 509.778043 22.417286 
L 510.202275 22.417286 
L 510.212011 44.304948 
L 510.310741 22.417286 
L 510.693406 22.417286 
L 510.703142 44.304948 
L 510.800688 22.417286 
L 511.191097 22.417286 
L 511.201559 44.304948 
L 511.299821 22.417286 
L 511.681981 22.417286 
L 511.691717 44.304948 
L 511.79067 22.417286 
L 512.173264 22.417286 
L 512.187194 44.304948 
L 512.281039 22.417286 
L 512.669784 22.417286 
L 512.679555 44.304948 
L 512.778789 22.417286 
L 513.161289 22.417286 
L 513.171763 44.304948 
L 513.269755 22.417286 
L 513.654575 22.417286 
L 513.664335 44.304948 
L 513.763299 22.417286 
L 514.146678 22.417286 
L 514.156613 44.304948 
L 514.254629 22.417286 
L 514.642999 22.417286 
L 514.654434 44.304948 
L 514.74993 22.417286 
L 515.201332 22.417286 
L 515.211794 44.304948 
L 515.311285 22.417286 
L 515.696902 22.417286 
L 515.70672 44.304948 
L 515.805907 22.417286 
L 516.191138 22.417286 
L 516.201131 44.304948 
L 516.299838 22.417286 
L 516.700826 22.417286 
L 516.711312 44.304948 
L 516.809889 22.417286 
L 517.194452 22.417286 
L 517.205149 44.304948 
L 517.304394 22.417286 
L 517.688558 22.417286 
L 517.698364 44.304948 
L 517.796216 22.417286 
L 518.182114 22.417286 
L 518.192014 44.304948 
L 518.290369 22.417286 
L 518.681094 22.417286 
L 518.6909 44.304948 
L 518.788927 22.417286 
L 519.174228 22.417286 
L 519.183987 44.304948 
L 519.282975 22.417286 
L 519.666424 22.417286 
L 519.671697 33.693409 
L 519.671697 33.693409 
" style="fill: none; stroke: #7ad151; stroke-width: 2; stroke-linecap: square"/>
   </g>
   <g id="patch_6">
    <path d="M 481.019341 375.777661 
L 481.019341 12.410415 
" style="fill: none; stroke: #5a5758; stroke-width: 0.8; stroke-linejoin: miter; stroke-linecap: square"/>
   </g>
   <g id="patch_7">
    <path d="M 493.019341 387.777661 
L 865.19952 387.777661 
" style="fill: none; stroke: #5a5758; stroke-width: 0.8; stroke-linejoin: miter; stroke-linecap: square"/>
   </g>
  </g>
 </g>
</svg>