<?xml version="1.0" encoding="utf-8" standalone="no"?>
<!DOCTYPE svg PUBLIC "-//W3C//DTD SVG 1.1//EN"
  "http://www.w3.org/Graphics/SVG/1.1/DTD/svg11.dtd">
<svg xmlns:xlink="http://www.w3.org/1999/xlink" width="872.446393pt" height="440.906765pt" viewBox="0 0 872.446393 440.906765" xmlns="http://www.w3.org/2000/svg" version="1.1">
 <metadata>
  <rdf:RDF xmlns:dc="http://purl.org/dc/elements/1.1/" xmlns:cc="http://creativecommons.org/ns#" xmlns:rdf="http://www.w3.org/1999/02/22-rdf-syntax-ns#">
   <cc:Work>
    <dc:type rdf:resource="http://purl.org/dc/dcmitype/StillImage"/>
    <dc:date>2024-09-09T15:49:43.881248</dc:date>
    <dc:format>image/svg+xml</dc:format>
    <dc:creator>
     <cc:Agent>
      <dc:title>Matplotlib v3.9.2, https://matplotlib.org/</dc:title>
     </cc:Agent>
    </dc:creator>
   </cc:Work>
  </rdf:RDF>
 </metadata>
 <defs>
  <style type="text/css">*{stroke-linejoin: round; stroke-linecap: butt}</style>
 </defs>
 <g id="figure_1">
  <g id="patch_1">
   <path d="M 0 440.906765 
L 872.446393 440.906765 
L 872.446393 0 
L 0 0 
z
" style="fill: #ffffff"/>
  </g>
  <g id="axes_1">
   <g id="patch_2">
    <path d="M 77.005643 376.284906 
L 442.049864 376.284906 
L 442.049864 59.320041 
L 77.005643 59.320041 
z
" style="fill: #ffffff"/>
   </g>
   <g id="matplotlib.axis_1">
    <g id="xtick_1">
     <g id="line2d_1">
      <defs>
       <path id="m88bf7abd09" d="M 0 0 
L 0 3.5 
" style="stroke: #5a5758; stroke-width: 0.8"/>
      </defs>
      <g>
       <use xlink:href="#m88bf7abd09" x="77.005643" y="388.284906" style="fill: #5a5758; stroke: #5a5758; stroke-width: 0.8"/>
      </g>
     </g>
     <g id="text_1">
      <!-- 0 -->
      <g style="fill: #5a5758" transform="translate(73.069718 405.705736) scale(0.14994 -0.14994)">
       <defs>
        <path id="CMUBright-Roman-30" d="M 333 1984 
L 333 2086 
Q 333 2291 339 2438 
Q 346 2586 371 2832 
Q 397 3078 461 3267 
Q 525 3456 621 3657 
Q 717 3859 880 4006 
Q 1043 4154 1261 4230 
Q 1446 4301 1677 4301 
Q 1856 4301 2025 4256 
Q 2195 4211 2380 4070 
Q 2566 3930 2704 3709 
Q 2842 3488 2931 3104 
Q 3021 2720 3021 2214 
Q 3021 1683 2982 1347 
Q 2944 1011 2803 685 
Q 2618 250 2307 70 
Q 1997 -109 1677 -109 
Q 1498 -109 1328 -64 
Q 1158 -19 972 121 
Q 787 262 649 483 
Q 512 704 422 1091 
Q 333 1478 333 1984 
z
M 742 2413 
Q 742 2374 745 2326 
Q 749 2278 749 2272 
L 749 2150 
Q 749 1779 758 1548 
Q 768 1318 838 1014 
Q 909 710 1037 538 
Q 1286 218 1677 218 
Q 2086 218 2330 557 
Q 2451 730 2518 1037 
Q 2586 1344 2595 1568 
Q 2605 1792 2605 2163 
L 2605 2272 
Q 2605 2278 2608 2323 
Q 2611 2368 2611 2406 
Q 2611 3302 2336 3661 
Q 2099 3981 1677 3981 
Q 1242 3981 1005 3642 
Q 742 3264 742 2413 
z
" transform="scale(0.015625)"/>
       </defs>
       <use xlink:href="#CMUBright-Roman-30"/>
      </g>
     </g>
    </g>
    <g id="xtick_2">
     <g id="line2d_2">
      <g>
       <use xlink:href="#m88bf7abd09" x="159.557479" y="388.284906" style="fill: #5a5758; stroke: #5a5758; stroke-width: 0.8"/>
      </g>
     </g>
     <g id="text_2">
      <!-- 1000 -->
      <g style="fill: #5a5758" transform="translate(143.813779 405.705736) scale(0.14994 -0.14994)">
       <defs>
        <path id="CMUBright-Roman-31" d="M 672 3558 
L 672 3885 
Q 1427 3885 1862 4301 
L 1965 4301 
L 1965 320 
L 2803 320 
L 2803 0 
L 710 0 
L 710 320 
L 1549 320 
L 1549 3744 
Q 1178 3558 672 3558 
z
" transform="scale(0.015625)"/>
       </defs>
       <use xlink:href="#CMUBright-Roman-31"/>
       <use xlink:href="#CMUBright-Roman-30" x="52.499985"/>
       <use xlink:href="#CMUBright-Roman-30" x="104.999969"/>
       <use xlink:href="#CMUBright-Roman-30" x="157.499954"/>
      </g>
     </g>
    </g>
    <g id="xtick_3">
     <g id="line2d_3">
      <g>
       <use xlink:href="#m88bf7abd09" x="242.109316" y="388.284906" style="fill: #5a5758; stroke: #5a5758; stroke-width: 0.8"/>
      </g>
     </g>
     <g id="text_3">
      <!-- 2000 -->
      <g style="fill: #5a5758" transform="translate(226.365616 405.705736) scale(0.14994 -0.14994)">
       <defs>
        <path id="CMUBright-Roman-32" d="M 275 3226 
Q 595 4301 1587 4301 
L 1594 4301 
Q 2214 4294 2617 3923 
Q 3021 3552 3021 2989 
Q 3021 2746 2937 2531 
Q 2854 2317 2668 2115 
Q 2483 1914 2384 1821 
Q 2285 1728 2061 1549 
Q 1754 1299 1642 1203 
Q 1530 1107 698 358 
L 3021 358 
L 3021 0 
L 333 0 
L 333 339 
L 1683 1562 
Q 2144 1965 2368 2278 
Q 2592 2592 2592 2982 
Q 2592 3418 2278 3690 
Q 1965 3962 1498 3962 
Q 1069 3962 854 3693 
Q 640 3424 512 2938 
L 275 3226 
z
" transform="scale(0.015625)"/>
       </defs>
       <use xlink:href="#CMUBright-Roman-32"/>
       <use xlink:href="#CMUBright-Roman-30" x="52.499985"/>
       <use xlink:href="#CMUBright-Roman-30" x="104.999969"/>
       <use xlink:href="#CMUBright-Roman-30" x="157.499954"/>
      </g>
     </g>
    </g>
    <g id="xtick_4">
     <g id="line2d_4">
      <g>
       <use xlink:href="#m88bf7abd09" x="324.661152" y="388.284906" style="fill: #5a5758; stroke: #5a5758; stroke-width: 0.8"/>
      </g>
     </g>
     <g id="text_4">
      <!-- 3000 -->
      <g style="fill: #5a5758" transform="translate(308.917452 405.705736) scale(0.14994 -0.14994)">
       <defs>
        <path id="CMUBright-Roman-33" d="M 282 653 
Q 282 666 285 685 
Q 288 704 304 774 
Q 320 845 339 941 
Q 557 640 861 464 
Q 1165 288 1341 256 
Q 1517 224 1683 224 
Q 2112 224 2368 486 
Q 2624 749 2624 1165 
Q 2624 1574 2381 1824 
Q 2138 2074 1773 2099 
L 1555 2106 
L 1114 2106 
L 1114 2426 
Q 1709 2470 1862 2528 
Q 2099 2618 2281 2838 
Q 2464 3059 2464 3360 
Q 2464 3642 2256 3811 
Q 2048 3981 1702 3981 
Q 973 3981 570 3258 
L 371 3539 
Q 845 4301 1702 4301 
Q 2202 4301 2544 4025 
Q 2886 3750 2886 3360 
Q 2886 3059 2704 2761 
Q 2522 2464 2106 2272 
Q 2579 2144 2825 1833 
Q 3072 1523 3072 1158 
Q 3072 666 2685 278 
Q 2298 -109 1690 -109 
Q 1402 -109 1126 -9 
Q 851 90 675 221 
Q 499 352 390 473 
Q 282 595 282 653 
z
" transform="scale(0.015625)"/>
       </defs>
       <use xlink:href="#CMUBright-Roman-33"/>
       <use xlink:href="#CMUBright-Roman-30" x="52.499985"/>
       <use xlink:href="#CMUBright-Roman-30" x="104.999969"/>
       <use xlink:href="#CMUBright-Roman-30" x="157.499954"/>
      </g>
     </g>
    </g>
    <g id="xtick_5">
     <g id="line2d_5">
      <g>
       <use xlink:href="#m88bf7abd09" x="407.212989" y="388.284906" style="fill: #5a5758; stroke: #5a5758; stroke-width: 0.8"/>
      </g>
     </g>
     <g id="text_5">
      <!-- 4000 -->
      <g style="fill: #5a5758" transform="translate(391.469289 405.705736) scale(0.14994 -0.14994)">
       <defs>
        <path id="CMUBright-Roman-34" d="M 186 1158 
L 186 1504 
L 1952 4250 
L 2438 4250 
L 2438 1498 
L 3168 1498 
L 3168 1158 
L 2438 1158 
L 2438 0 
L 2035 0 
L 2035 1158 
L 186 1158 
z
M 602 1498 
L 2054 1498 
L 2054 3885 
Q 1971 3667 1606 3085 
L 602 1498 
z
" transform="scale(0.015625)"/>
       </defs>
       <use xlink:href="#CMUBright-Roman-34"/>
       <use xlink:href="#CMUBright-Roman-30" x="52.499985"/>
       <use xlink:href="#CMUBright-Roman-30" x="104.999969"/>
       <use xlink:href="#CMUBright-Roman-30" x="157.499954"/>
      </g>
     </g>
    </g>
    <g id="text_6">
     <!-- Iterations -->
     <g style="fill: #5a5758" transform="translate(223.499628 428.720203) scale(0.18 -0.18)">
      <defs>
       <path id="CMUBright-SemiBold-49" d="M 512 0 
L 512 4448 
L 1184 4448 
L 1184 0 
L 512 0 
z
" transform="scale(0.015625)"/>
       <path id="CMUBright-SemiBold-74" d="M 122 2541 
L 122 3021 
L 646 3021 
L 646 3885 
L 1222 3885 
L 1222 3021 
L 2118 3021 
L 2118 2541 
L 1222 2541 
L 1222 1075 
Q 1222 448 1555 448 
Q 1805 448 2106 672 
L 2234 211 
Q 1754 -51 1197 -51 
Q 634 -51 634 1005 
L 634 2541 
L 122 2541 
z
" transform="scale(0.015625)"/>
       <path id="CMUBright-SemiBold-65" d="M 186 1530 
Q 186 2189 605 2646 
Q 1024 3104 1606 3104 
Q 1766 3104 1920 3069 
Q 2074 3034 2243 2931 
Q 2413 2829 2534 2669 
Q 2656 2509 2739 2233 
Q 2822 1958 2822 1600 
L 762 1600 
L 762 1536 
Q 762 1062 1040 745 
Q 1318 429 1709 429 
Q 2240 429 2739 794 
L 2784 275 
Q 2278 -51 1709 -51 
Q 1043 -51 614 419 
Q 186 890 186 1530 
z
M 838 1978 
L 2298 1978 
Q 2144 2618 1600 2618 
Q 1363 2618 1148 2448 
Q 934 2278 838 1978 
z
" transform="scale(0.015625)"/>
       <path id="CMUBright-SemiBold-72" d="M 416 0 
L 416 3021 
L 992 3021 
L 992 2368 
Q 1370 3059 2112 3072 
L 2112 2528 
Q 1939 2528 1769 2480 
Q 1600 2432 1421 2326 
Q 1242 2221 1130 2013 
Q 1018 1805 1018 1517 
L 1018 0 
L 416 0 
z
" transform="scale(0.015625)"/>
       <path id="CMUBright-SemiBold-61" d="M 250 851 
Q 250 1274 771 1498 
Q 1293 1722 2112 1747 
L 2112 1971 
Q 2112 2234 2048 2355 
Q 1894 2650 1568 2650 
Q 1242 2643 1037 2566 
Q 832 2490 557 2291 
L 512 2829 
Q 1043 3104 1581 3104 
Q 2061 3104 2377 2822 
Q 2694 2541 2726 2144 
L 2733 1933 
L 2733 0 
L 2131 0 
L 2131 230 
L 2125 410 
Q 1946 186 1648 67 
Q 1350 -51 1043 -51 
Q 666 -51 458 233 
Q 250 518 250 851 
z
M 845 864 
Q 845 672 1008 550 
Q 1171 429 1408 429 
Q 1626 429 1811 525 
Q 1997 621 2074 781 
Q 2112 864 2112 1043 
L 2112 1446 
Q 1523 1421 1184 1270 
Q 845 1120 845 864 
z
" transform="scale(0.015625)"/>
       <path id="CMUBright-SemiBold-69" d="M 414 3859 
L 414 4461 
L 1016 4461 
L 1016 3859 
L 414 3859 
z
M 416 0 
L 416 3021 
L 1018 3021 
L 1018 0 
L 416 0 
z
" transform="scale(0.015625)"/>
       <path id="CMUBright-SemiBold-6f" d="M 630 390 
Q 186 832 186 1504 
Q 186 2176 627 2637 
Q 1069 3098 1677 3098 
Q 2310 3098 2739 2618 
Q 3168 2138 3168 1498 
Q 3168 838 2726 393 
Q 2285 -51 1677 -51 
Q 1075 -51 630 390 
z
M 800 1594 
Q 800 998 1037 717 
Q 1267 448 1677 448 
Q 2061 448 2291 685 
Q 2554 954 2554 1606 
Q 2554 2150 2307 2384 
Q 2061 2618 1677 2618 
Q 800 2618 800 1594 
z
" transform="scale(0.015625)"/>
       <path id="CMUBright-SemiBold-6e" d="M 410 0 
L 410 3021 
L 998 3021 
L 998 2714 
L 1005 2496 
Q 1344 3072 1971 3072 
Q 2227 3072 2409 2995 
Q 2592 2918 2681 2816 
Q 2771 2714 2822 2547 
Q 2874 2381 2880 2275 
Q 2886 2170 2886 2016 
L 2886 0 
L 2272 0 
L 2272 2022 
Q 2272 2131 2259 2204 
Q 2246 2278 2192 2380 
Q 2138 2483 2000 2537 
Q 1862 2592 1651 2592 
Q 1453 2592 1315 2493 
Q 1178 2394 1120 2237 
Q 1062 2080 1043 1961 
Q 1024 1843 1024 1728 
L 1024 0 
L 410 0 
z
" transform="scale(0.015625)"/>
       <path id="CMUBright-SemiBold-73" d="M 186 250 
L 282 800 
Q 787 448 1318 448 
Q 1613 448 1737 569 
Q 1862 691 1862 838 
Q 1862 986 1753 1078 
Q 1645 1171 1517 1206 
Q 1389 1242 1190 1280 
Q 992 1318 902 1350 
Q 634 1440 429 1661 
Q 224 1882 224 2202 
Q 224 2349 269 2486 
Q 314 2624 422 2774 
Q 531 2925 764 3014 
Q 998 3104 1331 3104 
Q 1818 3104 2323 2886 
L 2227 2362 
Q 1747 2624 1261 2624 
Q 998 2624 889 2515 
Q 781 2406 781 2272 
Q 781 2170 857 2077 
Q 934 1984 1062 1939 
Q 1069 1939 1408 1865 
Q 1747 1792 1914 1702 
Q 2419 1421 2419 890 
Q 2419 525 2172 237 
Q 1926 -51 1325 -51 
Q 730 -51 186 250 
z
" transform="scale(0.015625)"/>
      </defs>
      <use xlink:href="#CMUBright-SemiBold-49"/>
      <use xlink:href="#CMUBright-SemiBold-74" x="26.699997"/>
      <use xlink:href="#CMUBright-SemiBold-65" x="64.599991"/>
      <use xlink:href="#CMUBright-SemiBold-72" x="111.699982"/>
      <use xlink:href="#CMUBright-SemiBold-61" x="146.299973"/>
      <use xlink:href="#CMUBright-SemiBold-74" x="195.499969"/>
      <use xlink:href="#CMUBright-SemiBold-69" x="233.399963"/>
      <use xlink:href="#CMUBright-SemiBold-6f" x="255.899948"/>
      <use xlink:href="#CMUBright-SemiBold-6e" x="308.399933"/>
      <use xlink:href="#CMUBright-SemiBold-73" x="360.09993"/>
     </g>
    </g>
   </g>
   <g id="matplotlib.axis_2">
    <g id="ytick_1">
     <g id="line2d_6">
      <defs>
       <path id="m3793f93de4" d="M 0 0 
L -3.5 0 
" style="stroke: #5a5758; stroke-width: 0.8"/>
      </defs>
      <g>
       <use xlink:href="#m3793f93de4" x="65.005643" y="342.753674" style="fill: #5a5758; stroke: #5a5758; stroke-width: 0.8"/>
      </g>
     </g>
     <g id="text_7">
      <!-- $\mathdefault{10^{1}}$ -->
      <g style="fill: #5a5758" transform="translate(36.264343 347.964089) scale(0.14994 -0.14994)">
       <use xlink:href="#CMUBright-Roman-31" transform="translate(0 0.915625)"/>
       <use xlink:href="#CMUBright-Roman-30" transform="translate(52.499985 0.915625)"/>
       <use xlink:href="#CMUBright-Roman-31" transform="translate(105.826024 33.957813) scale(0.7)"/>
      </g>
     </g>
    </g>
    <g id="ytick_2">
     <g id="line2d_7">
      <g>
       <use xlink:href="#m3793f93de4" x="65.005643" y="291.220286" style="fill: #5a5758; stroke: #5a5758; stroke-width: 0.8"/>
      </g>
     </g>
     <g id="text_8">
      <!-- $\mathdefault{10^{3}}$ -->
      <g style="fill: #5a5758" transform="translate(36.264343 296.430701) scale(0.14994 -0.14994)">
       <use xlink:href="#CMUBright-Roman-31" transform="translate(0 0.915625)"/>
       <use xlink:href="#CMUBright-Roman-30" transform="translate(52.499985 0.915625)"/>
       <use xlink:href="#CMUBright-Roman-33" transform="translate(105.826024 33.957813) scale(0.7)"/>
      </g>
     </g>
    </g>
    <g id="ytick_3">
     <g id="line2d_8">
      <g>
       <use xlink:href="#m3793f93de4" x="65.005643" y="239.686898" style="fill: #5a5758; stroke: #5a5758; stroke-width: 0.8"/>
      </g>
     </g>
     <g id="text_9">
      <!-- $\mathdefault{10^{5}}$ -->
      <g style="fill: #5a5758" transform="translate(36.264343 244.897313) scale(0.14994 -0.14994)">
       <defs>
        <path id="CMUBright-Roman-35" d="M 301 518 
L 486 819 
Q 896 224 1581 224 
Q 1971 224 2268 473 
Q 2566 723 2566 1312 
Q 2566 1626 2489 1846 
Q 2413 2067 2285 2176 
Q 2157 2285 2032 2329 
Q 1907 2374 1773 2374 
Q 1210 2374 941 1901 
L 582 1901 
L 582 4192 
L 2797 4192 
L 2797 3853 
L 973 3853 
L 973 2381 
Q 1325 2701 1779 2701 
Q 2285 2701 2653 2291 
Q 3021 1882 3021 1306 
Q 3021 723 2601 307 
Q 2182 -109 1574 -109 
Q 813 -109 301 518 
z
" transform="scale(0.015625)"/>
       </defs>
       <use xlink:href="#CMUBright-Roman-31" transform="translate(0 0.107813)"/>
       <use xlink:href="#CMUBright-Roman-30" transform="translate(52.499985 0.107813)"/>
       <use xlink:href="#CMUBright-Roman-35" transform="translate(105.826024 33.15) scale(0.7)"/>
      </g>
     </g>
    </g>
    <g id="ytick_4">
     <g id="line2d_9">
      <g>
       <use xlink:href="#m3793f93de4" x="65.005643" y="188.15351" style="fill: #5a5758; stroke: #5a5758; stroke-width: 0.8"/>
      </g>
     </g>
     <g id="text_10">
      <!-- $\mathdefault{10^{7}}$ -->
      <g style="fill: #5a5758" transform="translate(36.264343 193.363925) scale(0.14994 -0.14994)">
       <defs>
        <path id="CMUBright-Roman-37" d="M 275 3840 
L 275 4192 
L 3072 4192 
L 3072 3853 
Q 2400 3149 1958 2147 
Q 1517 1146 1517 -51 
L 1088 -51 
Q 1088 1030 1523 2048 
Q 1958 3066 2797 3840 
L 275 3840 
z
" transform="scale(0.015625)"/>
       </defs>
       <use xlink:href="#CMUBright-Roman-31" transform="translate(0 0.107813)"/>
       <use xlink:href="#CMUBright-Roman-30" transform="translate(52.499985 0.107813)"/>
       <use xlink:href="#CMUBright-Roman-37" transform="translate(105.826024 33.15) scale(0.7)"/>
      </g>
     </g>
    </g>
    <g id="ytick_5">
     <g id="line2d_10">
      <g>
       <use xlink:href="#m3793f93de4" x="65.005643" y="136.620123" style="fill: #5a5758; stroke: #5a5758; stroke-width: 0.8"/>
      </g>
     </g>
     <g id="text_11">
      <!-- $\mathdefault{10^{9}}$ -->
      <g style="fill: #5a5758" transform="translate(36.264343 141.830538) scale(0.14994 -0.14994)">
       <defs>
        <path id="CMUBright-Roman-39" d="M 346 2803 
Q 346 3443 768 3885 
Q 1158 4301 1696 4301 
Q 1875 4301 2038 4253 
Q 2202 4205 2384 4061 
Q 2566 3917 2700 3686 
Q 2835 3456 2921 3053 
Q 3008 2650 3008 2125 
Q 3008 1171 2537 531 
Q 2067 -109 1382 -109 
Q 909 -109 486 186 
L 653 480 
L 723 435 
Q 794 384 838 358 
Q 883 333 969 297 
Q 1056 262 1158 243 
Q 1261 224 1376 224 
Q 1690 224 1933 381 
Q 2176 538 2313 797 
Q 2451 1056 2518 1357 
Q 2586 1658 2586 1984 
L 2586 2074 
Q 2438 1754 2121 1530 
Q 1805 1306 1402 1306 
Q 973 1306 678 1709 
Q 346 2157 346 2803 
z
M 768 2656 
Q 768 2240 966 1936 
Q 1165 1632 1632 1632 
Q 2035 1632 2297 1936 
Q 2560 2240 2560 2656 
Q 2560 2752 2554 2803 
L 2566 2803 
Q 2522 3462 2272 3721 
Q 2022 3981 1696 3981 
Q 1242 3981 986 3648 
Q 768 3366 768 2822 
L 768 2656 
z
" transform="scale(0.015625)"/>
       </defs>
       <use xlink:href="#CMUBright-Roman-31" transform="translate(0 0.915625)"/>
       <use xlink:href="#CMUBright-Roman-30" transform="translate(52.499985 0.915625)"/>
       <use xlink:href="#CMUBright-Roman-39" transform="translate(105.826024 33.957813) scale(0.7)"/>
      </g>
     </g>
    </g>
    <g id="ytick_6">
     <g id="line2d_11">
      <g>
       <use xlink:href="#m3793f93de4" x="65.005643" y="85.086735" style="fill: #5a5758; stroke: #5a5758; stroke-width: 0.8"/>
      </g>
     </g>
     <g id="text_12">
      <!-- $\mathdefault{10^{11}}$ -->
      <g style="fill: #5a5758" transform="translate(30.716563 90.29715) scale(0.14994 -0.14994)">
       <use xlink:href="#CMUBright-Roman-31" transform="translate(0 0.915625)"/>
       <use xlink:href="#CMUBright-Roman-30" transform="translate(52.499985 0.915625)"/>
       <use xlink:href="#CMUBright-Roman-31" transform="translate(105.826024 33.957813) scale(0.7)"/>
       <use xlink:href="#CMUBright-Roman-31" transform="translate(142.576013 33.957813) scale(0.7)"/>
      </g>
     </g>
    </g>
    <g id="text_13">
     <!-- Residual norm -->
     <g style="fill: #5a5758" transform="translate(19.71 272.24263) rotate(-90) scale(0.18 -0.18)">
      <defs>
       <path id="CMUBright-SemiBold-52" d="M 518 0 
L 518 4448 
L 2086 4448 
Q 2803 4448 3283 4166 
Q 3571 3994 3740 3741 
Q 3910 3488 3910 3206 
Q 3910 2810 3593 2496 
Q 3277 2182 2803 2061 
L 4102 0 
L 3430 0 
L 2208 1984 
L 1171 1984 
L 1171 0 
L 518 0 
z
M 1171 2464 
L 2054 2464 
Q 2477 2464 2758 2541 
Q 3040 2618 3181 2842 
Q 3283 3002 3283 3200 
Q 3283 3558 2995 3750 
Q 2714 3936 2086 3936 
L 1178 3936 
L 1171 3725 
L 1171 2464 
z
" transform="scale(0.015625)"/>
       <path id="CMUBright-SemiBold-64" d="M 224 1517 
Q 224 2150 544 2611 
Q 864 3072 1350 3072 
Q 1856 3072 2285 2701 
L 2285 4448 
L 2886 4448 
L 2886 0 
L 2272 0 
L 2272 378 
Q 1856 -51 1344 -51 
Q 864 -51 544 409 
Q 224 870 224 1517 
z
M 838 1427 
Q 851 966 1024 730 
Q 1248 429 1670 429 
Q 1830 429 1971 505 
Q 2112 582 2157 633 
Q 2202 685 2272 774 
L 2272 2349 
Q 2042 2592 1741 2592 
Q 1331 2592 1082 2336 
Q 838 2086 838 1562 
L 838 1427 
z
" transform="scale(0.015625)"/>
       <path id="CMUBright-SemiBold-75" d="M 410 838 
L 410 3021 
L 1024 3021 
L 1024 883 
Q 1030 570 1069 506 
Q 1139 403 1510 403 
Q 1888 403 2064 601 
Q 2240 800 2266 998 
Q 2272 1062 2272 1197 
L 2272 3021 
L 2886 3021 
L 2886 0 
L 2285 0 
L 2285 480 
Q 1830 -51 1088 -51 
Q 858 -51 710 29 
Q 563 109 502 262 
Q 442 416 426 537 
Q 410 659 410 838 
z
" transform="scale(0.015625)"/>
       <path id="CMUBright-SemiBold-6c" d="M 416 0 
L 416 4448 
L 1018 4448 
L 1018 0 
L 416 0 
z
" transform="scale(0.015625)"/>
       <path id="CMUBright-SemiBold-20" transform="scale(0.015625)"/>
       <path id="CMUBright-SemiBold-6d" d="M 410 0 
L 410 3021 
L 998 3021 
L 998 2714 
L 1005 2496 
Q 1344 3072 1971 3072 
Q 2080 3072 2176 3059 
Q 2272 3046 2345 3024 
Q 2419 3002 2483 2966 
Q 2547 2931 2592 2899 
Q 2637 2867 2675 2819 
Q 2714 2771 2736 2739 
Q 2758 2707 2784 2656 
Q 2810 2605 2816 2582 
Q 2822 2560 2838 2518 
Q 2854 2477 2854 2470 
Q 3187 3072 3840 3072 
Q 4090 3072 4272 2995 
Q 4454 2918 4544 2819 
Q 4634 2720 4685 2557 
Q 4736 2394 4745 2285 
Q 4755 2176 4755 2016 
L 4755 0 
L 4141 0 
L 4141 1984 
Q 4128 2278 4045 2394 
Q 3898 2592 3507 2592 
Q 3264 2592 3078 2390 
Q 2893 2189 2893 1728 
L 2893 0 
L 2272 0 
L 2272 1984 
Q 2266 2266 2195 2374 
Q 2054 2592 1645 2592 
Q 1402 2592 1213 2390 
Q 1024 2189 1024 1728 
L 1024 0 
L 410 0 
z
" transform="scale(0.015625)"/>
      </defs>
      <use xlink:href="#CMUBright-SemiBold-52"/>
      <use xlink:href="#CMUBright-SemiBold-65" x="67.099991"/>
      <use xlink:href="#CMUBright-SemiBold-73" x="114.199982"/>
      <use xlink:href="#CMUBright-SemiBold-69" x="154.399979"/>
      <use xlink:href="#CMUBright-SemiBold-64" x="176.899963"/>
      <use xlink:href="#CMUBright-SemiBold-75" x="228.59996"/>
      <use xlink:href="#CMUBright-SemiBold-61" x="280.299957"/>
      <use xlink:href="#CMUBright-SemiBold-6c" x="329.499954"/>
      <use xlink:href="#CMUBright-SemiBold-20" x="351.999939"/>
      <use xlink:href="#CMUBright-SemiBold-6e" x="385.299927"/>
      <use xlink:href="#CMUBright-SemiBold-6f" x="436.999924"/>
      <use xlink:href="#CMUBright-SemiBold-72" x="489.499908"/>
      <use xlink:href="#CMUBright-SemiBold-6d" x="524.099899"/>
     </g>
    </g>
   </g>
   <g id="line2d_12">
    <path d="M 77.005643 376.276915 
L 442.049864 376.276915 
" style="fill: none; stroke-dasharray: 7.4,3.2; stroke-dashoffset: 0; stroke: #808080; stroke-opacity: 0.7; stroke-width: 2"/>
   </g>
   <g id="line2d_13">
    <path d="M 77.005643 298.693209 
L 77.253298 312.956683 
L 77.583505 319.070741 
L 78.078816 323.882882 
L 78.656679 327.330875 
L 79.399646 330.344455 
L 80.225164 332.763017 
L 81.215786 334.958773 
L 82.371512 336.944526 
L 83.692341 338.742938 
L 85.178274 340.377416 
L 86.911863 341.936793 
L 88.893107 343.405498 
L 91.122007 344.779442 
L 93.763665 346.138484 
L 96.818083 347.449698 
L 100.28526 348.692716 
L 104.247749 349.876063 
L 108.7881 350.996924 
L 113.988865 352.048561 
L 120.180253 353.06522 
L 127.69247 354.064538 
L 137.433587 355.123712 
L 150.889536 356.347026 
L 170.949632 357.928759 
L 204.300574 360.310662 
L 278.349572 365.32499 
L 442.049864 376.281857 
L 442.049864 376.281857 
" style="fill: none; stroke: #e29400; stroke-width: 2; stroke-linecap: square"/>
   </g>
   <g id="line2d_14">
    <path d="M 77.005643 298.693209 
L 77.33585 320.642317 
L 77.666057 327.392213 
L 78.161368 332.519956 
L 78.739231 336.128161 
L 79.399646 338.943847 
L 80.225164 341.482068 
L 81.133234 343.572204 
L 82.206408 345.479701 
L 83.444686 347.205976 
L 84.848067 348.763985 
L 86.416552 350.169921 
L 88.232692 351.493339 
L 90.296488 352.716624 
L 92.690491 353.866506 
L 95.414702 354.921601 
L 98.634224 355.925172 
L 102.679264 356.940964 
L 107.962581 358.024146 
L 115.474798 359.318993 
L 127.032055 361.063849 
L 147.670015 363.923019 
L 222.709634 373.966428 
L 240.04552 376.284906 
L 240.04552 376.284906 
" style="fill: none; stroke: #414487; stroke-width: 2; stroke-linecap: square"/>
   </g>
   <g id="line2d_15">
    <path d="M 77.005643 298.693209 
L 77.748609 319.671867 
L 78.491576 333.332823 
L 78.986887 338.817855 
L 79.482198 341.794244 
L 80.06006 343.842015 
L 80.885579 345.858591 
L 81.876201 347.684879 
L 83.031927 349.349421 
L 84.352756 350.85603 
L 85.838689 352.211197 
L 87.489726 353.421863 
L 89.388418 354.54029 
L 91.617318 355.590274 
L 94.341528 356.61664 
L 97.808705 357.673974 
L 102.596712 358.887701 
L 109.778722 360.460802 
L 121.913842 362.863936 
L 152.210366 368.567204 
L 193.403732 376.278163 
L 193.403732 376.278163 
" style="fill: none; stroke: #2a788e; stroke-width: 2; stroke-linecap: square"/>
   </g>
   <g id="line2d_16">
    <path d="M 77.005643 298.693209 
L 77.170746 299.309959 
L 77.33585 298.328739 
L 77.748609 293.50715 
L 78.904335 276.46297 
L 81.958753 227.296064 
L 89.883729 98.973933 
L 90.461592 94.055518 
L 90.874351 92.070674 
L 91.204558 91.393314 
L 91.369662 91.349868 
L 91.534766 91.498006 
L 91.782421 92.069932 
L 92.112629 93.461482 
L 92.60794 96.821974 
L 93.185802 102.529819 
L 93.928769 112.424839 
L 94.836839 127.976727 
L 95.910013 150.607719 
L 97.148291 181.602199 
L 98.634224 224.596893 
L 100.367812 281.387761 
L 102.679264 358.184813 
L 102.926919 359.476156 
L 103.174575 359.799768 
L 103.752438 359.99693 
L 110.108929 361.486344 
L 125.298467 364.816966 
L 178.874609 376.284733 
L 178.874609 376.284733 
" style="fill: none; stroke: #22a884; stroke-width: 2; stroke-linecap: square"/>
   </g>
   <g id="line2d_17">
    <path d="M 77.005643 298.693209 
L 77.088194 296.907776 
L 77.170746 294.765264 
L 77.253298 291.978222 
L 77.33585 288.949474 
L 77.418402 285.759688 
L 77.500954 282.472434 
L 77.583505 279.114416 
L 77.666057 275.704617 
L 77.748609 272.254565 
L 77.831161 268.772557 
L 77.913713 265.264467 
L 77.996265 261.734712 
L 78.078816 258.186661 
L 78.161368 254.622956 
L 78.24392 251.045704 
L 78.326472 247.456611 
L 78.409024 243.857082 
L 78.491576 240.248285 
L 78.574127 236.631202 
L 78.656679 233.006666 
L 78.739231 229.375391 
L 78.821783 225.737994 
L 78.904335 222.09501 
L 78.986887 218.446907 
L 79.069438 214.794096 
L 79.15199 211.136942 
L 79.234542 207.475766 
L 79.317094 203.810859 
L 79.399646 200.142478 
L 79.482198 196.470855 
L 79.564749 192.796201 
L 79.647301 189.118707 
L 79.729853 185.438544 
L 79.812405 181.75587 
L 79.894957 178.070829 
L 79.977509 174.383553 
L 80.06006 170.694164 
L 80.142612 167.002772 
L 80.225164 163.309482 
L 80.307716 159.614387 
L 80.390268 155.917577 
L 80.47282 152.219133 
L 80.555371 148.519131 
L 80.637923 144.817643 
L 80.720475 141.114735 
L 80.803027 137.410468 
L 80.885579 133.704901 
L 80.968131 129.998088 
L 81.050682 126.290079 
L 81.133234 122.580924 
L 81.215786 118.870666 
L 81.298338 115.159349 
L 81.38089 111.447012 
L 81.463442 107.733693 
L 81.545994 104.019428 
L 81.628545 100.304252 
L 81.711097 96.588195 
L 81.793649 92.871288 
L 81.876201 89.153561 
L 81.958753 85.435041 
L 82.041305 81.715753 
L 82.123856 77.995723 
L 82.206408 74.274974 
L 82.28896 70.553528 
L 82.371512 66.831408 
L 82.454064 63.108633 
L 82.536616 59.385223 
L 82.619167 55.661197 
L 82.701719 51.936573 
L 82.784271 48.211368 
L 82.866823 44.485598 
L 82.949375 40.759279 
L 83.031927 37.032426 
L 83.114478 33.305053 
L 83.19703 29.577175 
L 83.279582 25.848805 
L 83.362134 22.119955 
L 83.444686 18.390638 
L 83.527238 14.660866 
L 83.609789 10.930649 
L 83.692341 7.2 
" style="fill: none; stroke: #7ad151; stroke-width: 2; stroke-linecap: square"/>
   </g>
   <g id="patch_3">
    <path d="M 65.005643 376.284906 
L 65.005643 59.320041 
" style="fill: none; stroke: #5a5758; stroke-width: 0.8; stroke-linejoin: miter; stroke-linecap: square"/>
   </g>
   <g id="patch_4">
    <path d="M 77.005643 388.284906 
L 442.049864 388.284906 
" style="fill: none; stroke: #5a5758; stroke-width: 0.8; stroke-linejoin: miter; stroke-linecap: square"/>
   </g>
   <g id="legend_1">
    <g id="line2d_18">
     <path d="M 271.229864 81.820041 
L 289.229864 81.820041 
L 307.229864 81.820041 
" style="fill: none; stroke: #e29400; stroke-width: 2; stroke-linecap: square"/>
    </g>
    <g id="text_14">
     <!-- Jacobi -->
     <g style="fill: #e29400" transform="translate(321.629864 88.120041) scale(0.18 -0.18)">
      <defs>
       <path id="CMUBright-Roman-4a" d="M 275 160 
L 346 563 
Q 819 224 1254 224 
Q 1517 224 1705 294 
Q 1894 365 1980 451 
Q 2067 538 2115 672 
Q 2163 806 2166 864 
Q 2170 922 2170 1005 
L 2170 4448 
L 2611 4448 
L 2611 992 
Q 2611 736 2540 541 
Q 2470 346 2355 224 
Q 2240 102 2083 25 
Q 1926 -51 1766 -80 
Q 1606 -109 1427 -109 
Q 864 -109 275 160 
z
" transform="scale(0.015625)"/>
       <path id="CMUBright-Roman-61" d="M 352 736 
Q 352 896 435 1046 
Q 518 1197 707 1347 
Q 896 1498 1283 1590 
Q 1670 1683 2214 1696 
L 2214 1965 
Q 2214 2381 2042 2579 
Q 1856 2803 1568 2803 
Q 1331 2803 1107 2736 
Q 883 2669 809 2624 
Q 736 2579 557 2470 
L 525 2829 
Q 1043 3104 1574 3104 
Q 2054 3104 2326 2806 
Q 2598 2509 2624 2144 
L 2630 1926 
L 2630 0 
L 2227 0 
L 2227 442 
Q 1830 -51 1107 -51 
L 1062 -51 
Q 710 -51 531 205 
Q 352 461 352 736 
z
M 749 749 
Q 749 518 950 393 
Q 1152 269 1408 269 
Q 1523 269 1644 297 
Q 1766 326 1904 390 
Q 2042 454 2128 595 
Q 2214 736 2214 928 
L 2214 1498 
Q 1568 1491 1158 1286 
Q 749 1082 749 749 
z
" transform="scale(0.015625)"/>
       <path id="CMUBright-Roman-63" d="M 294 1517 
Q 294 2157 691 2630 
Q 1088 3104 1709 3104 
Q 2042 3104 2250 3046 
Q 2458 2989 2758 2829 
L 2694 2477 
Q 2502 2592 2403 2640 
Q 2304 2688 2125 2729 
Q 1946 2771 1709 2771 
Q 1254 2771 982 2432 
Q 710 2093 710 1523 
Q 717 915 1008 598 
Q 1299 282 1696 282 
Q 1958 282 2192 365 
Q 2426 448 2525 518 
Q 2624 589 2765 710 
L 2797 352 
Q 2304 -51 1690 -51 
Q 1107 -51 700 403 
Q 294 858 294 1517 
z
" transform="scale(0.015625)"/>
       <path id="CMUBright-Roman-6f" d="M 256 1510 
Q 256 2182 675 2640 
Q 1094 3098 1677 3098 
Q 2272 3098 2681 2627 
Q 3091 2157 3091 1510 
Q 3091 838 2668 393 
Q 2246 -51 1677 -51 
Q 1088 -51 672 406 
Q 256 864 256 1510 
z
M 666 1587 
Q 666 1190 771 915 
Q 877 640 1046 512 
Q 1216 384 1369 333 
Q 1523 282 1677 282 
Q 1843 282 2006 342 
Q 2170 403 2330 537 
Q 2490 672 2586 937 
Q 2682 1203 2682 1568 
Q 2682 1914 2586 2163 
Q 2490 2413 2330 2541 
Q 2170 2669 2006 2723 
Q 1843 2778 1676 2778 
Q 1510 2778 1347 2723 
Q 1184 2669 1024 2544 
Q 864 2419 765 2172 
Q 666 1926 666 1587 
z
" transform="scale(0.015625)"/>
       <path id="CMUBright-Roman-62" d="M 512 0 
L 512 4448 
L 915 4448 
L 915 2592 
Q 1312 3072 1875 3072 
Q 2349 3072 2675 2621 
Q 3002 2170 3002 1523 
Q 3002 858 2634 403 
Q 2266 -51 1754 -51 
Q 1261 -51 928 422 
L 928 0 
L 512 0 
z
M 922 838 
Q 922 634 1107 451 
Q 1293 269 1555 269 
Q 1728 269 1891 326 
Q 2054 384 2220 512 
Q 2387 640 2489 896 
Q 2592 1152 2592 1510 
Q 2592 1882 2493 2147 
Q 2394 2413 2234 2534 
Q 2074 2656 1926 2704 
Q 1779 2752 1632 2752 
Q 1293 2752 1050 2490 
Q 954 2362 941 2333 
Q 928 2304 928 2195 
L 928 928 
Q 928 909 925 883 
Q 922 858 922 838 
z
" transform="scale(0.015625)"/>
       <path id="CMUBright-Roman-69" d="M 509 4019 
L 509 4422 
L 912 4422 
L 912 4019 
L 509 4019 
z
M 512 0 
L 512 3021 
L 915 3021 
L 915 0 
L 512 0 
z
" transform="scale(0.015625)"/>
      </defs>
      <use xlink:href="#CMUBright-Roman-4a"/>
      <use xlink:href="#CMUBright-Roman-61" x="48.299988"/>
      <use xlink:href="#CMUBright-Roman-63" x="97.499985"/>
      <use xlink:href="#CMUBright-Roman-6f" x="144.199982"/>
      <use xlink:href="#CMUBright-Roman-62" x="196.699966"/>
      <use xlink:href="#CMUBright-Roman-69" x="248.399963"/>
     </g>
    </g>
    <g id="line2d_19">
     <path d="M 271.229864 106.426603 
L 289.229864 106.426603 
L 307.229864 106.426603 
" style="fill: none; stroke: #414487; stroke-width: 2; stroke-linecap: square"/>
    </g>
    <g id="text_15">
     <!-- GS, $\omega$ = 1.00 -->
     <g style="fill: #5a5758" transform="translate(321.629864 112.726603) scale(0.18 -0.18)">
      <defs>
       <path id="CMUBright-Roman-47" d="M 518 2221 
Q 518 2829 777 3357 
Q 1037 3885 1529 4217 
Q 2022 4550 2637 4550 
L 2650 4550 
Q 3309 4550 3968 4243 
L 3891 3802 
Q 3699 3930 3580 3997 
Q 3462 4064 3203 4137 
Q 2944 4211 2650 4211 
Q 1914 4211 1440 3622 
Q 966 3034 966 2221 
Q 966 1389 1449 809 
Q 1933 230 2624 230 
Q 3040 230 3610 403 
L 3610 1760 
L 2605 1760 
L 2605 2099 
L 4026 2099 
L 4026 205 
Q 3328 -109 2630 -109 
Q 1741 -109 1129 572 
Q 518 1254 518 2221 
z
" transform="scale(0.015625)"/>
       <path id="CMUBright-Roman-53" d="M 294 339 
L 371 781 
Q 1082 256 1843 256 
Q 2342 256 2643 531 
Q 2944 806 2944 1152 
Q 2944 1402 2781 1622 
Q 2618 1843 2323 1958 
Q 2176 2016 1769 2096 
Q 1363 2176 1059 2317 
Q 755 2458 557 2746 
Q 365 3014 365 3341 
Q 365 3808 781 4179 
Q 1197 4550 1882 4550 
Q 2515 4550 3110 4243 
L 3034 3802 
Q 2848 3930 2745 3990 
Q 2643 4051 2400 4124 
Q 2157 4198 1882 4198 
Q 1389 4198 1081 3958 
Q 774 3718 774 3392 
Q 774 3168 931 2973 
Q 1088 2778 1376 2669 
Q 1491 2630 1910 2534 
Q 2330 2438 2438 2394 
Q 2899 2221 3126 1885 
Q 3354 1549 3354 1197 
Q 3354 678 2925 284 
Q 2496 -109 1837 -109 
Q 1030 -109 294 339 
z
" transform="scale(0.015625)"/>
       <path id="CMUBright-Roman-2c" d="M 678 0 
L 678 499 
L 1184 499 
L 1184 186 
L 1178 0 
L 934 -710 
L 678 -710 
L 832 0 
L 678 0 
z
" transform="scale(0.015625)"/>
       <path id="CMUBright-Roman-20" transform="scale(0.015625)"/>
       <path id="CMUBright-Roman-3c9" d="M 262 1286 
Q 262 2182 1107 3021 
L 1600 3021 
Q 1178 2573 1018 2330 
Q 678 1805 678 1280 
Q 678 851 867 566 
Q 1056 282 1357 282 
Q 1619 282 1833 531 
Q 2048 781 2048 1344 
L 2048 1920 
L 2426 1920 
L 2426 1344 
Q 2426 781 2640 531 
Q 2854 282 3117 282 
Q 3418 282 3606 566 
Q 3795 851 3795 1280 
Q 3795 1632 3628 1993 
Q 3462 2355 3305 2544 
Q 3149 2733 2931 2963 
Q 2893 3002 2874 3021 
L 3366 3021 
Q 4211 2182 4211 1286 
Q 4211 742 3900 345 
Q 3590 -51 3117 -51 
Q 2586 -51 2234 525 
Q 1933 -51 1357 -51 
Q 883 -51 572 345 
Q 262 742 262 1286 
z
" transform="scale(0.015625)"/>
       <path id="CMUBright-Roman-3d" d="M 378 1062 
Q 378 1229 576 1229 
L 3533 1229 
Q 3725 1222 3725 1062 
Q 3725 909 3514 909 
L 589 909 
Q 378 909 378 1062 
z
M 378 2304 
Q 378 2470 582 2470 
L 3533 2470 
Q 3725 2464 3725 2304 
Q 3725 2150 3514 2150 
L 589 2150 
Q 378 2150 378 2304 
z
" transform="scale(0.015625)"/>
       <path id="CMUBright-Roman-2e" d="M 678 0 
L 678 499 
L 1178 499 
L 1178 0 
L 678 0 
z
" transform="scale(0.015625)"/>
      </defs>
      <use xlink:href="#CMUBright-Roman-47" transform="translate(0 0.90625)"/>
      <use xlink:href="#CMUBright-Roman-53" transform="translate(69.999985 0.90625)"/>
      <use xlink:href="#CMUBright-Roman-2c" transform="translate(128.299973 0.90625)"/>
      <use xlink:href="#CMUBright-Roman-20" transform="translate(157.499969 0.90625)"/>
      <use xlink:href="#CMUBright-Roman-3c9" transform="translate(190.799957 0.90625)"/>
      <use xlink:href="#CMUBright-Roman-20" transform="translate(260.799942 0.90625)"/>
      <use xlink:href="#CMUBright-Roman-3d" transform="translate(294.09993 0.90625)"/>
      <use xlink:href="#CMUBright-Roman-20" transform="translate(358.299927 0.90625)"/>
      <use xlink:href="#CMUBright-Roman-31" transform="translate(391.599915 0.90625)"/>
      <use xlink:href="#CMUBright-Roman-2e" transform="translate(444.099899 0.90625)"/>
      <use xlink:href="#CMUBright-Roman-30" transform="translate(473.299896 0.90625)"/>
      <use xlink:href="#CMUBright-Roman-30" transform="translate(525.799881 0.90625)"/>
     </g>
    </g>
    <g id="line2d_20">
     <path d="M 271.229864 131.033166 
L 289.229864 131.033166 
L 307.229864 131.033166 
" style="fill: none; stroke: #2a788e; stroke-width: 2; stroke-linecap: square"/>
    </g>
    <g id="text_16">
     <!-- GS, $\omega$ = 1.40 -->
     <g style="fill: #5a5758" transform="translate(321.629864 137.333166) scale(0.18 -0.18)">
      <use xlink:href="#CMUBright-Roman-47" transform="translate(0 0.90625)"/>
      <use xlink:href="#CMUBright-Roman-53" transform="translate(69.999985 0.90625)"/>
      <use xlink:href="#CMUBright-Roman-2c" transform="translate(128.299973 0.90625)"/>
      <use xlink:href="#CMUBright-Roman-20" transform="translate(157.499969 0.90625)"/>
      <use xlink:href="#CMUBright-Roman-3c9" transform="translate(190.799957 0.90625)"/>
      <use xlink:href="#CMUBright-Roman-20" transform="translate(260.799942 0.90625)"/>
      <use xlink:href="#CMUBright-Roman-3d" transform="translate(294.09993 0.90625)"/>
      <use xlink:href="#CMUBright-Roman-20" transform="translate(358.299927 0.90625)"/>
      <use xlink:href="#CMUBright-Roman-31" transform="translate(391.599915 0.90625)"/>
      <use xlink:href="#CMUBright-Roman-2e" transform="translate(444.099899 0.90625)"/>
      <use xlink:href="#CMUBright-Roman-34" transform="translate(473.299896 0.90625)"/>
      <use xlink:href="#CMUBright-Roman-30" transform="translate(525.799881 0.90625)"/>
     </g>
    </g>
    <g id="line2d_21">
     <path d="M 271.229864 155.639728 
L 289.229864 155.639728 
L 307.229864 155.639728 
" style="fill: none; stroke: #22a884; stroke-width: 2; stroke-linecap: square"/>
    </g>
    <g id="text_17">
     <!-- GS, $\omega$ = 1.60 -->
     <g style="fill: #5a5758" transform="translate(321.629864 161.939728) scale(0.18 -0.18)">
      <defs>
       <path id="CMUBright-Roman-36" d="M 346 2061 
Q 346 3072 864 3686 
Q 1382 4301 2074 4301 
L 2086 4301 
Q 2426 4301 2797 4179 
L 2797 3846 
Q 2374 3981 2074 3981 
L 2061 3981 
Q 1478 3981 1123 3491 
Q 768 3002 768 2208 
Q 768 2195 771 2166 
Q 774 2138 774 2125 
Q 928 2445 1238 2665 
Q 1549 2886 1952 2886 
Q 2387 2886 2682 2483 
Q 3008 2029 3008 1408 
Q 3008 768 2618 326 
Q 2240 -109 1690 -109 
Q 1510 -109 1340 -57 
Q 1171 -6 985 141 
Q 800 288 662 521 
Q 525 755 435 1152 
Q 346 1549 346 2061 
z
M 794 1389 
Q 813 1171 854 1004 
Q 896 838 985 643 
Q 1075 448 1254 336 
Q 1434 224 1690 224 
Q 2138 224 2381 550 
Q 2515 736 2550 921 
Q 2586 1107 2586 1434 
Q 2586 1645 2573 1776 
Q 2560 1907 2480 2089 
Q 2400 2272 2253 2400 
Q 2054 2566 1728 2566 
Q 1325 2566 1062 2265 
Q 800 1965 800 1555 
Q 800 1440 806 1389 
L 794 1389 
z
" transform="scale(0.015625)"/>
      </defs>
      <use xlink:href="#CMUBright-Roman-47" transform="translate(0 0.90625)"/>
      <use xlink:href="#CMUBright-Roman-53" transform="translate(69.999985 0.90625)"/>
      <use xlink:href="#CMUBright-Roman-2c" transform="translate(128.299973 0.90625)"/>
      <use xlink:href="#CMUBright-Roman-20" transform="translate(157.499969 0.90625)"/>
      <use xlink:href="#CMUBright-Roman-3c9" transform="translate(190.799957 0.90625)"/>
      <use xlink:href="#CMUBright-Roman-20" transform="translate(260.799942 0.90625)"/>
      <use xlink:href="#CMUBright-Roman-3d" transform="translate(294.09993 0.90625)"/>
      <use xlink:href="#CMUBright-Roman-20" transform="translate(358.299927 0.90625)"/>
      <use xlink:href="#CMUBright-Roman-31" transform="translate(391.599915 0.90625)"/>
      <use xlink:href="#CMUBright-Roman-2e" transform="translate(444.099899 0.90625)"/>
      <use xlink:href="#CMUBright-Roman-36" transform="translate(473.299896 0.90625)"/>
      <use xlink:href="#CMUBright-Roman-30" transform="translate(525.799881 0.90625)"/>
     </g>
    </g>
    <g id="line2d_22">
     <path d="M 271.229864 180.246291 
L 289.229864 180.246291 
L 307.229864 180.246291 
" style="fill: none; stroke: #7ad151; stroke-width: 2; stroke-linecap: square"/>
    </g>
    <g id="text_18">
     <!-- GS, $\omega$ = 1.80 -->
     <g style="fill: #5a5758" transform="translate(321.629864 186.546291) scale(0.18 -0.18)">
      <defs>
       <path id="CMUBright-Roman-38" d="M 275 1158 
Q 275 1517 518 1817 
Q 762 2118 1248 2266 
Q 909 2349 640 2598 
Q 371 2848 371 3206 
Q 371 3642 745 3971 
Q 1120 4301 1677 4301 
Q 2221 4301 2601 3981 
Q 2982 3661 2982 3213 
Q 2982 2918 2787 2684 
Q 2592 2451 2285 2323 
L 2099 2266 
Q 2464 2176 2768 1885 
Q 3072 1594 3072 1158 
Q 3072 646 2665 268 
Q 2259 -109 1670 -109 
Q 1075 -109 675 275 
Q 275 659 275 1158 
z
M 698 1158 
Q 698 704 970 464 
Q 1242 224 1670 224 
Q 2118 224 2384 470 
Q 2650 717 2650 1165 
Q 2650 1619 2371 1862 
Q 2093 2106 1670 2106 
Q 1280 2106 989 1878 
Q 698 1651 698 1158 
z
M 755 3206 
Q 755 2886 982 2656 
Q 1210 2426 1670 2426 
Q 2093 2426 2342 2634 
Q 2592 2842 2592 3206 
Q 2592 3507 2387 3744 
Q 2182 3981 1683 3981 
Q 1171 3981 963 3744 
Q 755 3507 755 3206 
z
" transform="scale(0.015625)"/>
      </defs>
      <use xlink:href="#CMUBright-Roman-47" transform="translate(0 0.90625)"/>
      <use xlink:href="#CMUBright-Roman-53" transform="translate(69.999985 0.90625)"/>
      <use xlink:href="#CMUBright-Roman-2c" transform="translate(128.299973 0.90625)"/>
      <use xlink:href="#CMUBright-Roman-20" transform="translate(157.499969 0.90625)"/>
      <use xlink:href="#CMUBright-Roman-3c9" transform="translate(190.799957 0.90625)"/>
      <use xlink:href="#CMUBright-Roman-20" transform="translate(260.799942 0.90625)"/>
      <use xlink:href="#CMUBright-Roman-3d" transform="translate(294.09993 0.90625)"/>
      <use xlink:href="#CMUBright-Roman-20" transform="translate(358.299927 0.90625)"/>
      <use xlink:href="#CMUBright-Roman-31" transform="translate(391.599915 0.90625)"/>
      <use xlink:href="#CMUBright-Roman-2e" transform="translate(444.099899 0.90625)"/>
      <use xlink:href="#CMUBright-Roman-38" transform="translate(473.299896 0.90625)"/>
      <use xlink:href="#CMUBright-Roman-30" transform="translate(525.799881 0.90625)"/>
     </g>
    </g>
   </g>
  </g>
  <g id="axes_2">
   <g id="patch_5">
    <path d="M 496.978944 376.284906 
L 862.023165 376.284906 
L 862.023165 59.320041 
L 496.978944 59.320041 
z
" style="fill: #ffffff"/>
   </g>
   <g id="matplotlib.axis_3">
    <g id="xtick_6">
     <g id="line2d_23">
      <g>
       <use xlink:href="#m88bf7abd09" x="547.498981" y="388.284906" style="fill: #5a5758; stroke: #5a5758; stroke-width: 0.8"/>
      </g>
     </g>
     <g id="text_19">
      <!-- 0.02 -->
      <g style="fill: #5a5758" transform="translate(533.501848 405.705736) scale(0.14994 -0.14994)">
       <use xlink:href="#CMUBright-Roman-30"/>
       <use xlink:href="#CMUBright-Roman-2e" x="52.499985"/>
       <use xlink:href="#CMUBright-Roman-30" x="81.699982"/>
       <use xlink:href="#CMUBright-Roman-32" x="134.199966"/>
      </g>
     </g>
    </g>
    <g id="xtick_7">
     <g id="line2d_24">
      <g>
       <use xlink:href="#m88bf7abd09" x="598.124028" y="388.284906" style="fill: #5a5758; stroke: #5a5758; stroke-width: 0.8"/>
      </g>
     </g>
     <g id="text_20">
      <!-- 0.04 -->
      <g style="fill: #5a5758" transform="translate(584.126895 405.705736) scale(0.14994 -0.14994)">
       <use xlink:href="#CMUBright-Roman-30"/>
       <use xlink:href="#CMUBright-Roman-2e" x="52.499985"/>
       <use xlink:href="#CMUBright-Roman-30" x="81.699982"/>
       <use xlink:href="#CMUBright-Roman-34" x="134.199966"/>
      </g>
     </g>
    </g>
    <g id="xtick_8">
     <g id="line2d_25">
      <g>
       <use xlink:href="#m88bf7abd09" x="648.749074" y="388.284906" style="fill: #5a5758; stroke: #5a5758; stroke-width: 0.8"/>
      </g>
     </g>
     <g id="text_21">
      <!-- 0.06 -->
      <g style="fill: #5a5758" transform="translate(634.751941 405.705736) scale(0.14994 -0.14994)">
       <use xlink:href="#CMUBright-Roman-30"/>
       <use xlink:href="#CMUBright-Roman-2e" x="52.499985"/>
       <use xlink:href="#CMUBright-Roman-30" x="81.699982"/>
       <use xlink:href="#CMUBright-Roman-36" x="134.199966"/>
      </g>
     </g>
    </g>
    <g id="xtick_9">
     <g id="line2d_26">
      <g>
       <use xlink:href="#m88bf7abd09" x="699.374121" y="388.284906" style="fill: #5a5758; stroke: #5a5758; stroke-width: 0.8"/>
      </g>
     </g>
     <g id="text_22">
      <!-- 0.08 -->
      <g style="fill: #5a5758" transform="translate(685.376987 405.705736) scale(0.14994 -0.14994)">
       <use xlink:href="#CMUBright-Roman-30"/>
       <use xlink:href="#CMUBright-Roman-2e" x="52.499985"/>
       <use xlink:href="#CMUBright-Roman-30" x="81.699982"/>
       <use xlink:href="#CMUBright-Roman-38" x="134.199966"/>
      </g>
     </g>
    </g>
    <g id="xtick_10">
     <g id="line2d_27">
      <g>
       <use xlink:href="#m88bf7abd09" x="749.999167" y="388.284906" style="fill: #5a5758; stroke: #5a5758; stroke-width: 0.8"/>
      </g>
     </g>
     <g id="text_23">
      <!-- 0.10 -->
      <g style="fill: #5a5758" transform="translate(736.002034 405.705736) scale(0.14994 -0.14994)">
       <use xlink:href="#CMUBright-Roman-30"/>
       <use xlink:href="#CMUBright-Roman-2e" x="52.499985"/>
       <use xlink:href="#CMUBright-Roman-31" x="81.699982"/>
       <use xlink:href="#CMUBright-Roman-30" x="134.199966"/>
      </g>
     </g>
    </g>
    <g id="xtick_11">
     <g id="line2d_28">
      <g>
       <use xlink:href="#m88bf7abd09" x="800.624214" y="388.284906" style="fill: #5a5758; stroke: #5a5758; stroke-width: 0.8"/>
      </g>
     </g>
     <g id="text_24">
      <!-- 0.12 -->
      <g style="fill: #5a5758" transform="translate(786.62708 405.705736) scale(0.14994 -0.14994)">
       <use xlink:href="#CMUBright-Roman-30"/>
       <use xlink:href="#CMUBright-Roman-2e" x="52.499985"/>
       <use xlink:href="#CMUBright-Roman-31" x="81.699982"/>
       <use xlink:href="#CMUBright-Roman-32" x="134.199966"/>
      </g>
     </g>
    </g>
    <g id="xtick_12">
     <g id="line2d_29">
      <g>
       <use xlink:href="#m88bf7abd09" x="851.24926" y="388.284906" style="fill: #5a5758; stroke: #5a5758; stroke-width: 0.8"/>
      </g>
     </g>
     <g id="text_25">
      <!-- 0.14 -->
      <g style="fill: #5a5758" transform="translate(837.252127 405.705736) scale(0.14994 -0.14994)">
       <use xlink:href="#CMUBright-Roman-30"/>
       <use xlink:href="#CMUBright-Roman-2e" x="52.499985"/>
       <use xlink:href="#CMUBright-Roman-31" x="81.699982"/>
       <use xlink:href="#CMUBright-Roman-34" x="134.199966"/>
      </g>
     </g>
    </g>
    <g id="text_26">
     <!-- Time (s) -->
     <g style="fill: #5a5758" transform="translate(645.48246 429.710203) scale(0.18 -0.18)">
      <defs>
       <path id="CMUBright-SemiBold-54" d="M 237 3910 
L 237 4416 
L 4390 4416 
L 4390 3910 
L 2650 3910 
L 2650 0 
L 1978 0 
L 1978 3910 
L 237 3910 
z
" transform="scale(0.015625)"/>
       <path id="CMUBright-SemiBold-28" d="M 1747 -1421 
Q 499 -358 499 1690 
Q 499 3738 1747 4800 
L 2234 4800 
Q 2086 4653 1990 4544 
Q 1894 4435 1708 4147 
Q 1523 3859 1411 3552 
Q 1299 3245 1206 2752 
Q 1114 2259 1114 1689 
Q 1114 1120 1206 627 
Q 1299 134 1411 -173 
Q 1523 -480 1708 -768 
Q 1894 -1056 1990 -1165 
Q 2086 -1274 2234 -1421 
L 1747 -1421 
z
" transform="scale(0.015625)"/>
       <path id="CMUBright-SemiBold-29" d="M 371 -1421 
Q 525 -1267 614 -1164 
Q 704 -1062 893 -768 
Q 1082 -474 1194 -173 
Q 1306 128 1398 624 
Q 1491 1120 1491 1690 
Q 1491 2246 1404 2732 
Q 1318 3219 1206 3523 
Q 1094 3827 921 4105 
Q 749 4384 646 4502 
Q 544 4621 416 4755 
Q 384 4787 371 4800 
L 851 4800 
Q 2106 3731 2106 1689 
Q 2106 -352 851 -1421 
L 371 -1421 
z
" transform="scale(0.015625)"/>
      </defs>
      <use xlink:href="#CMUBright-SemiBold-54"/>
      <use xlink:href="#CMUBright-SemiBold-69" x="72.499985"/>
      <use xlink:href="#CMUBright-SemiBold-6d" x="94.999969"/>
      <use xlink:href="#CMUBright-SemiBold-65" x="175.799957"/>
      <use xlink:href="#CMUBright-SemiBold-20" x="222.899948"/>
      <use xlink:href="#CMUBright-SemiBold-28" x="256.199936"/>
      <use xlink:href="#CMUBright-SemiBold-73" x="296.999924"/>
      <use xlink:href="#CMUBright-SemiBold-29" x="337.199921"/>
     </g>
    </g>
   </g>
   <g id="matplotlib.axis_4">
    <g id="ytick_7">
     <g id="line2d_30">
      <g>
       <use xlink:href="#m3793f93de4" x="484.978944" y="342.753674" style="fill: #5a5758; stroke: #5a5758; stroke-width: 0.8"/>
      </g>
     </g>
     <g id="text_27">
      <!-- $\mathdefault{10^{1}}$ -->
      <g style="fill: #5a5758" transform="translate(456.237644 347.964089) scale(0.14994 -0.14994)">
       <use xlink:href="#CMUBright-Roman-31" transform="translate(0 0.915625)"/>
       <use xlink:href="#CMUBright-Roman-30" transform="translate(52.499985 0.915625)"/>
       <use xlink:href="#CMUBright-Roman-31" transform="translate(105.826024 33.957813) scale(0.7)"/>
      </g>
     </g>
    </g>
    <g id="ytick_8">
     <g id="line2d_31">
      <g>
       <use xlink:href="#m3793f93de4" x="484.978944" y="291.220286" style="fill: #5a5758; stroke: #5a5758; stroke-width: 0.8"/>
      </g>
     </g>
     <g id="text_28">
      <!-- $\mathdefault{10^{3}}$ -->
      <g style="fill: #5a5758" transform="translate(456.237644 296.430701) scale(0.14994 -0.14994)">
       <use xlink:href="#CMUBright-Roman-31" transform="translate(0 0.915625)"/>
       <use xlink:href="#CMUBright-Roman-30" transform="translate(52.499985 0.915625)"/>
       <use xlink:href="#CMUBright-Roman-33" transform="translate(105.826024 33.957813) scale(0.7)"/>
      </g>
     </g>
    </g>
    <g id="ytick_9">
     <g id="line2d_32">
      <g>
       <use xlink:href="#m3793f93de4" x="484.978944" y="239.686898" style="fill: #5a5758; stroke: #5a5758; stroke-width: 0.8"/>
      </g>
     </g>
     <g id="text_29">
      <!-- $\mathdefault{10^{5}}$ -->
      <g style="fill: #5a5758" transform="translate(456.237644 244.897313) scale(0.14994 -0.14994)">
       <use xlink:href="#CMUBright-Roman-31" transform="translate(0 0.107813)"/>
       <use xlink:href="#CMUBright-Roman-30" transform="translate(52.499985 0.107813)"/>
       <use xlink:href="#CMUBright-Roman-35" transform="translate(105.826024 33.15) scale(0.7)"/>
      </g>
     </g>
    </g>
    <g id="ytick_10">
     <g id="line2d_33">
      <g>
       <use xlink:href="#m3793f93de4" x="484.978944" y="188.15351" style="fill: #5a5758; stroke: #5a5758; stroke-width: 0.8"/>
      </g>
     </g>
     <g id="text_30">
      <!-- $\mathdefault{10^{7}}$ -->
      <g style="fill: #5a5758" transform="translate(456.237644 193.363925) scale(0.14994 -0.14994)">
       <use xlink:href="#CMUBright-Roman-31" transform="translate(0 0.107813)"/>
       <use xlink:href="#CMUBright-Roman-30" transform="translate(52.499985 0.107813)"/>
       <use xlink:href="#CMUBright-Roman-37" transform="translate(105.826024 33.15) scale(0.7)"/>
      </g>
     </g>
    </g>
    <g id="ytick_11">
     <g id="line2d_34">
      <g>
       <use xlink:href="#m3793f93de4" x="484.978944" y="136.620123" style="fill: #5a5758; stroke: #5a5758; stroke-width: 0.8"/>
      </g>
     </g>
     <g id="text_31">
      <!-- $\mathdefault{10^{9}}$ -->
      <g style="fill: #5a5758" transform="translate(456.237644 141.830538) scale(0.14994 -0.14994)">
       <use xlink:href="#CMUBright-Roman-31" transform="translate(0 0.915625)"/>
       <use xlink:href="#CMUBright-Roman-30" transform="translate(52.499985 0.915625)"/>
       <use xlink:href="#CMUBright-Roman-39" transform="translate(105.826024 33.957813) scale(0.7)"/>
      </g>
     </g>
    </g>
    <g id="ytick_12">
     <g id="line2d_35">
      <g>
       <use xlink:href="#m3793f93de4" x="484.978944" y="85.086735" style="fill: #5a5758; stroke: #5a5758; stroke-width: 0.8"/>
      </g>
     </g>
     <g id="text_32">
      <!-- $\mathdefault{10^{11}}$ -->
      <g style="fill: #5a5758" transform="translate(450.689864 90.29715) scale(0.14994 -0.14994)">
       <use xlink:href="#CMUBright-Roman-31" transform="translate(0 0.915625)"/>
       <use xlink:href="#CMUBright-Roman-30" transform="translate(52.499985 0.915625)"/>
       <use xlink:href="#CMUBright-Roman-31" transform="translate(105.826024 33.957813) scale(0.7)"/>
       <use xlink:href="#CMUBright-Roman-31" transform="translate(142.576013 33.957813) scale(0.7)"/>
      </g>
     </g>
    </g>
   </g>
   <g id="line2d_36">
    <path d="M 496.978944 376.276915 
L 862.023165 376.276915 
" style="fill: none; stroke-dasharray: 7.4,3.2; stroke-dashoffset: 0; stroke: #808080; stroke-opacity: 0.7; stroke-width: 2"/>
   </g>
   <g id="line2d_37">
    <path d="M 497.165424 298.693209 
L 497.548042 312.956683 
L 497.971094 319.070741 
L 498.487084 323.249671 
L 499.097824 326.482149 
L 499.911942 329.455992 
L 500.821413 331.87851 
L 501.822615 333.93396 
L 502.928223 335.724617 
L 504.234795 337.433007 
L 504.984942 338.222737 
L 506.398334 339.601935 
L 508.407377 341.232552 
L 510.418835 342.58283 
L 512.918522 343.995391 
L 515.645124 345.274934 
L 518.651145 346.479834 
L 522.752515 347.858823 
L 527.10675 349.061005 
L 531.640827 350.118232 
L 536.724087 351.106688 
L 542.540597 352.063619 
L 548.646182 352.878426 
L 556.99014 353.830735 
L 569.052246 354.949177 
L 583.453509 356.06398 
L 610.790742 358.113025 
L 633.696493 360.190529 
L 676.329372 363.861503 
L 680.613602 364.227791 
L 751.096084 370.228207 
L 822.440965 376.281857 
L 822.440965 376.281857 
" style="fill: none; stroke: #e29400; stroke-width: 2; stroke-linecap: square"/>
   </g>
   <g id="line2d_38">
    <path d="M 497.022999 298.693209 
L 497.629514 317.598216 
L 498.001872 322.889252 
L 498.555883 327.392213 
L 499.115325 330.333746 
L 499.848575 333.139661 
L 500.762873 335.698196 
L 501.673551 337.655376 
L 504.645173 341.905773 
L 506.277031 343.572204 
L 507.551618 344.658355 
L 508.55282 345.348898 
L 510.72179 346.784003 
L 512.926971 347.982075 
L 515.814707 349.316466 
L 518.87625 350.495501 
L 522.366276 351.600945 
L 526.892508 352.80421 
L 531.771786 353.866506 
L 537.080151 354.805307 
L 543.68 355.760353 
L 551.50314 356.691623 
L 562.076417 357.723012 
L 576.541047 358.899237 
L 596.568718 360.313981 
L 652.016265 363.833601 
L 732.936239 368.736512 
L 841.603824 375.26911 
L 862.023165 376.284906 
L 862.023165 376.284906 
" style="fill: none; stroke: #414487; stroke-width: 2; stroke-linecap: square"/>
   </g>
   <g id="line2d_39">
    <path d="M 497.012136 298.693209 
L 498.393542 313.981071 
L 499.533549 323.155671 
L 500.662693 330.797717 
L 502.295154 338.115148 
L 502.978313 340.016344 
L 503.656644 341.409875 
L 504.563701 342.781908 
L 505.692242 344.076439 
L 507.271595 345.502343 
L 509.087519 346.830159 
L 510.909478 347.94836 
L 517.108605 350.85603 
L 520.395253 352.005268 
L 524.494209 353.200002 
L 528.750677 354.225498 
L 533.225612 355.075258 
L 540.044531 356.147059 
L 546.832068 356.993248 
L 557.568894 358.116141 
L 570.950849 359.305197 
L 592.481832 361.001407 
L 630.396568 363.761729 
L 756.908973 372.599151 
L 809.259974 376.278163 
L 809.259974 376.278163 
" style="fill: none; stroke: #2a788e; stroke-width: 2; stroke-linecap: square"/>
   </g>
   <g id="line2d_40">
    <path d="M 497.007308 298.693209 
L 497.459931 299.309959 
L 497.683829 298.948778 
L 498.128003 297.52408 
L 499.018162 293.50715 
L 500.350685 286.49421 
L 503.926408 266.082058 
L 509.447807 232.706707 
L 530.570222 103.915786 
L 531.669192 98.973933 
L 532.549091 95.861422 
L 533.922048 92.71119 
L 534.580464 91.82642 
L 535.020414 91.488158 
L 535.464588 91.347383 
L 535.905141 91.400254 
L 536.34328 91.642577 
L 536.998679 92.351578 
L 537.660112 93.461482 
L 538.541822 95.538124 
L 539.425946 98.263589 
L 540.536985 102.529819 
L 541.856834 108.82563 
L 543.444033 117.665098 
L 544.984762 127.976727 
L 546.749993 141.40087 
L 548.742742 158.395386 
L 550.935852 179.389609 
L 553.842296 209.62851 
L 556.71072 242.79856 
L 560.048665 284.248101 
L 563.597835 331.691109 
L 564.933375 349.342721 
L 565.606878 355.853003 
L 566.057087 358.184813 
L 566.498847 359.23014 
L 566.941815 359.637001 
L 567.602645 359.843324 
L 569.585738 360.058231 
L 583.561535 361.317335 
L 710.977979 372.468462 
L 740.455819 375.03008 
L 754.840787 376.284733 
L 754.840787 376.284733 
" style="fill: none; stroke: #22a884; stroke-width: 2; stroke-linecap: square"/>
   </g>
   <g id="line2d_41">
    <path d="M 496.978944 298.693209 
L 497.191978 296.907776 
L 497.449672 294.765264 
L 497.650033 291.978222 
L 497.868499 288.949474 
L 498.065843 285.759688 
L 498.278274 282.472434 
L 498.473204 279.114416 
L 498.686842 275.704617 
L 498.882375 272.254565 
L 499.092996 268.772557 
L 499.286718 265.264467 
L 499.498546 261.734712 
L 499.691665 258.186661 
L 499.902889 254.622956 
L 500.097216 251.045704 
L 500.312061 247.456611 
L 500.509404 243.857082 
L 500.721836 240.248285 
L 500.916765 236.631202 
L 501.128593 233.006666 
L 501.322919 229.375391 
L 501.532936 225.737994 
L 501.726055 222.09501 
L 501.936073 218.446907 
L 502.130399 214.794096 
L 502.343434 211.136942 
L 502.53776 207.475766 
L 502.748984 203.810859 
L 502.944517 200.142478 
L 503.153931 196.470855 
L 503.346447 192.796201 
L 503.557671 189.118707 
L 503.751393 185.438544 
L 503.962014 181.75587 
L 504.153926 178.070829 
L 504.36515 174.383553 
L 504.55827 170.694164 
L 504.769494 167.002772 
L 504.963217 163.309482 
L 505.175044 159.614387 
L 505.368767 155.917577 
L 505.579991 152.219133 
L 505.775524 148.519131 
L 505.986145 144.817643 
L 506.181075 141.114735 
L 506.391695 137.410468 
L 506.586625 133.704901 
L 506.797246 129.998088 
L 506.992175 126.290079 
L 507.2034 122.580924 
L 507.398933 118.870666 
L 507.643349 115.159349 
L 507.840693 111.447012 
L 508.054331 107.733693 
L 508.249864 104.019428 
L 508.459882 100.304252 
L 508.654811 96.588195 
L 508.864828 92.871288 
L 509.058551 89.153561 
L 509.267965 85.435041 
L 509.461688 81.715753 
L 509.672912 77.995723 
L 509.866634 74.274974 
L 510.077255 70.553528 
L 510.273392 66.831408 
L 510.487633 63.108633 
L 510.680753 59.385223 
L 510.891977 55.661197 
L 511.085699 51.936573 
L 511.301148 48.211368 
L 511.49306 44.485598 
L 511.706095 40.759279 
L 511.899214 37.032426 
L 512.109231 33.305053 
L 512.303558 29.577175 
L 512.517799 25.848805 
L 512.713332 22.119955 
L 512.92335 18.390638 
L 513.117072 14.660866 
L 513.330107 10.930649 
L 513.522019 7.2 
" style="fill: none; stroke: #7ad151; stroke-width: 2; stroke-linecap: square"/>
   </g>
   <g id="patch_6">
    <path d="M 484.978944 376.284906 
L 484.978944 59.320041 
" style="fill: none; stroke: #5a5758; stroke-width: 0.8; stroke-linejoin: miter; stroke-linecap: square"/>
   </g>
   <g id="patch_7">
    <path d="M 496.978944 388.284906 
L 862.023165 388.284906 
" style="fill: none; stroke: #5a5758; stroke-width: 0.8; stroke-linejoin: miter; stroke-linecap: square"/>
   </g>
  </g>
 </g>
</svg>