<?xml version="1.0" encoding="utf-8" standalone="no"?>
<!DOCTYPE svg PUBLIC "-//W3C//DTD SVG 1.1//EN"
  "http://www.w3.org/Graphics/SVG/1.1/DTD/svg11.dtd">
<svg xmlns:xlink="http://www.w3.org/1999/xlink" width="469.19952pt" height="353.99952pt" viewBox="0 0 469.19952 353.99952" xmlns="http://www.w3.org/2000/svg" version="1.1">
 <metadata>
  <rdf:RDF xmlns:dc="http://purl.org/dc/elements/1.1/" xmlns:cc="http://creativecommons.org/ns#" xmlns:rdf="http://www.w3.org/1999/02/22-rdf-syntax-ns#">
   <cc:Work>
    <dc:type rdf:resource="http://purl.org/dc/dcmitype/StillImage"/>
    <dc:date>2024-10-28T15:18:01.649669</dc:date>
    <dc:format>image/svg+xml</dc:format>
    <dc:creator>
     <cc:Agent>
      <dc:title>Matplotlib v3.9.2, https://matplotlib.org/</dc:title>
     </cc:Agent>
    </dc:creator>
   </cc:Work>
  </rdf:RDF>
 </metadata>
 <defs>
  <style type="text/css">*{stroke-linejoin: round; stroke-linecap: butt}</style>
 </defs>
 <g id="figure_1">
  <g id="patch_1">
   <path d="M 0 353.99952 
L 469.19952 353.99952 
L 469.19952 0 
L 0 0 
z
" style="fill: #ffffff"/>
  </g>
  <g id="axes_1">
   <g id="patch_2">
    <path d="M 63.682417 291.357661 
L 448.002387 291.357661 
L 448.002387 28.212 
L 63.682417 28.212 
z
" style="fill: #ffffff"/>
   </g>
   <g id="matplotlib.axis_1">
    <g id="xtick_1">
     <g id="line2d_1">
      <defs>
       <path id="m4cf6f2f402" d="M 0 0 
L 0 3.5 
" style="stroke: #5a5758; stroke-width: 0.8"/>
      </defs>
      <g>
       <use xlink:href="#m4cf6f2f402" x="63.682417" y="303.357661" style="fill: #5a5758; stroke: #5a5758; stroke-width: 0.8"/>
      </g>
     </g>
     <g id="text_1">
      <!-- 0.00 -->
      <g style="fill: #5a5758" transform="translate(49.685283 320.778491) scale(0.14994 -0.14994)">
       <defs>
        <path id="CMUBright-Roman-30" d="M 333 1984 
L 333 2086 
Q 333 2291 339 2438 
Q 346 2586 371 2832 
Q 397 3078 461 3267 
Q 525 3456 621 3657 
Q 717 3859 880 4006 
Q 1043 4154 1261 4230 
Q 1446 4301 1677 4301 
Q 1856 4301 2025 4256 
Q 2195 4211 2380 4070 
Q 2566 3930 2704 3709 
Q 2842 3488 2931 3104 
Q 3021 2720 3021 2214 
Q 3021 1683 2982 1347 
Q 2944 1011 2803 685 
Q 2618 250 2307 70 
Q 1997 -109 1677 -109 
Q 1498 -109 1328 -64 
Q 1158 -19 972 121 
Q 787 262 649 483 
Q 512 704 422 1091 
Q 333 1478 333 1984 
z
M 742 2413 
Q 742 2374 745 2326 
Q 749 2278 749 2272 
L 749 2150 
Q 749 1779 758 1548 
Q 768 1318 838 1014 
Q 909 710 1037 538 
Q 1286 218 1677 218 
Q 2086 218 2330 557 
Q 2451 730 2518 1037 
Q 2586 1344 2595 1568 
Q 2605 1792 2605 2163 
L 2605 2272 
Q 2605 2278 2608 2323 
Q 2611 2368 2611 2406 
Q 2611 3302 2336 3661 
Q 2099 3981 1677 3981 
Q 1242 3981 1005 3642 
Q 742 3264 742 2413 
z
" transform="scale(0.015625)"/>
        <path id="CMUBright-Roman-2e" d="M 678 0 
L 678 499 
L 1178 499 
L 1178 0 
L 678 0 
z
" transform="scale(0.015625)"/>
       </defs>
       <use xlink:href="#CMUBright-Roman-30"/>
       <use xlink:href="#CMUBright-Roman-2e" x="52.499985"/>
       <use xlink:href="#CMUBright-Roman-30" x="81.699982"/>
       <use xlink:href="#CMUBright-Roman-30" x="134.199966"/>
      </g>
     </g>
    </g>
    <g id="xtick_2">
     <g id="line2d_2">
      <g>
       <use xlink:href="#m4cf6f2f402" x="111.722413" y="303.357661" style="fill: #5a5758; stroke: #5a5758; stroke-width: 0.8"/>
      </g>
     </g>
     <g id="text_2">
      <!-- 0.25 -->
      <g style="fill: #5a5758" transform="translate(97.72528 320.778491) scale(0.14994 -0.14994)">
       <defs>
        <path id="CMUBright-Roman-32" d="M 275 3226 
Q 595 4301 1587 4301 
L 1594 4301 
Q 2214 4294 2617 3923 
Q 3021 3552 3021 2989 
Q 3021 2746 2937 2531 
Q 2854 2317 2668 2115 
Q 2483 1914 2384 1821 
Q 2285 1728 2061 1549 
Q 1754 1299 1642 1203 
Q 1530 1107 698 358 
L 3021 358 
L 3021 0 
L 333 0 
L 333 339 
L 1683 1562 
Q 2144 1965 2368 2278 
Q 2592 2592 2592 2982 
Q 2592 3418 2278 3690 
Q 1965 3962 1498 3962 
Q 1069 3962 854 3693 
Q 640 3424 512 2938 
L 275 3226 
z
" transform="scale(0.015625)"/>
        <path id="CMUBright-Roman-35" d="M 301 518 
L 486 819 
Q 896 224 1581 224 
Q 1971 224 2268 473 
Q 2566 723 2566 1312 
Q 2566 1626 2489 1846 
Q 2413 2067 2285 2176 
Q 2157 2285 2032 2329 
Q 1907 2374 1773 2374 
Q 1210 2374 941 1901 
L 582 1901 
L 582 4192 
L 2797 4192 
L 2797 3853 
L 973 3853 
L 973 2381 
Q 1325 2701 1779 2701 
Q 2285 2701 2653 2291 
Q 3021 1882 3021 1306 
Q 3021 723 2601 307 
Q 2182 -109 1574 -109 
Q 813 -109 301 518 
z
" transform="scale(0.015625)"/>
       </defs>
       <use xlink:href="#CMUBright-Roman-30"/>
       <use xlink:href="#CMUBright-Roman-2e" x="52.499985"/>
       <use xlink:href="#CMUBright-Roman-32" x="81.699982"/>
       <use xlink:href="#CMUBright-Roman-35" x="134.199966"/>
      </g>
     </g>
    </g>
    <g id="xtick_3">
     <g id="line2d_3">
      <g>
       <use xlink:href="#m4cf6f2f402" x="159.762409" y="303.357661" style="fill: #5a5758; stroke: #5a5758; stroke-width: 0.8"/>
      </g>
     </g>
     <g id="text_3">
      <!-- 0.50 -->
      <g style="fill: #5a5758" transform="translate(145.765276 320.778491) scale(0.14994 -0.14994)">
       <use xlink:href="#CMUBright-Roman-30"/>
       <use xlink:href="#CMUBright-Roman-2e" x="52.499985"/>
       <use xlink:href="#CMUBright-Roman-35" x="81.699982"/>
       <use xlink:href="#CMUBright-Roman-30" x="134.199966"/>
      </g>
     </g>
    </g>
    <g id="xtick_4">
     <g id="line2d_4">
      <g>
       <use xlink:href="#m4cf6f2f402" x="207.802405" y="303.357661" style="fill: #5a5758; stroke: #5a5758; stroke-width: 0.8"/>
      </g>
     </g>
     <g id="text_4">
      <!-- 0.75 -->
      <g style="fill: #5a5758" transform="translate(193.805272 320.778491) scale(0.14994 -0.14994)">
       <defs>
        <path id="CMUBright-Roman-37" d="M 275 3840 
L 275 4192 
L 3072 4192 
L 3072 3853 
Q 2400 3149 1958 2147 
Q 1517 1146 1517 -51 
L 1088 -51 
Q 1088 1030 1523 2048 
Q 1958 3066 2797 3840 
L 275 3840 
z
" transform="scale(0.015625)"/>
       </defs>
       <use xlink:href="#CMUBright-Roman-30"/>
       <use xlink:href="#CMUBright-Roman-2e" x="52.499985"/>
       <use xlink:href="#CMUBright-Roman-37" x="81.699982"/>
       <use xlink:href="#CMUBright-Roman-35" x="134.199966"/>
      </g>
     </g>
    </g>
    <g id="xtick_5">
     <g id="line2d_5">
      <g>
       <use xlink:href="#m4cf6f2f402" x="255.842402" y="303.357661" style="fill: #5a5758; stroke: #5a5758; stroke-width: 0.8"/>
      </g>
     </g>
     <g id="text_5">
      <!-- 1.00 -->
      <g style="fill: #5a5758" transform="translate(241.845268 320.778491) scale(0.14994 -0.14994)">
       <defs>
        <path id="CMUBright-Roman-31" d="M 672 3558 
L 672 3885 
Q 1427 3885 1862 4301 
L 1965 4301 
L 1965 320 
L 2803 320 
L 2803 0 
L 710 0 
L 710 320 
L 1549 320 
L 1549 3744 
Q 1178 3558 672 3558 
z
" transform="scale(0.015625)"/>
       </defs>
       <use xlink:href="#CMUBright-Roman-31"/>
       <use xlink:href="#CMUBright-Roman-2e" x="52.499985"/>
       <use xlink:href="#CMUBright-Roman-30" x="81.699982"/>
       <use xlink:href="#CMUBright-Roman-30" x="134.199966"/>
      </g>
     </g>
    </g>
    <g id="xtick_6">
     <g id="line2d_6">
      <g>
       <use xlink:href="#m4cf6f2f402" x="303.882398" y="303.357661" style="fill: #5a5758; stroke: #5a5758; stroke-width: 0.8"/>
      </g>
     </g>
     <g id="text_6">
      <!-- 1.25 -->
      <g style="fill: #5a5758" transform="translate(289.885265 320.778491) scale(0.14994 -0.14994)">
       <use xlink:href="#CMUBright-Roman-31"/>
       <use xlink:href="#CMUBright-Roman-2e" x="52.499985"/>
       <use xlink:href="#CMUBright-Roman-32" x="81.699982"/>
       <use xlink:href="#CMUBright-Roman-35" x="134.199966"/>
      </g>
     </g>
    </g>
    <g id="xtick_7">
     <g id="line2d_7">
      <g>
       <use xlink:href="#m4cf6f2f402" x="351.922394" y="303.357661" style="fill: #5a5758; stroke: #5a5758; stroke-width: 0.8"/>
      </g>
     </g>
     <g id="text_7">
      <!-- 1.50 -->
      <g style="fill: #5a5758" transform="translate(337.925261 320.778491) scale(0.14994 -0.14994)">
       <use xlink:href="#CMUBright-Roman-31"/>
       <use xlink:href="#CMUBright-Roman-2e" x="52.499985"/>
       <use xlink:href="#CMUBright-Roman-35" x="81.699982"/>
       <use xlink:href="#CMUBright-Roman-30" x="134.199966"/>
      </g>
     </g>
    </g>
    <g id="xtick_8">
     <g id="line2d_8">
      <g>
       <use xlink:href="#m4cf6f2f402" x="399.96239" y="303.357661" style="fill: #5a5758; stroke: #5a5758; stroke-width: 0.8"/>
      </g>
     </g>
     <g id="text_8">
      <!-- 1.75 -->
      <g style="fill: #5a5758" transform="translate(385.965257 320.778491) scale(0.14994 -0.14994)">
       <use xlink:href="#CMUBright-Roman-31"/>
       <use xlink:href="#CMUBright-Roman-2e" x="52.499985"/>
       <use xlink:href="#CMUBright-Roman-37" x="81.699982"/>
       <use xlink:href="#CMUBright-Roman-35" x="134.199966"/>
      </g>
     </g>
    </g>
    <g id="xtick_9">
     <g id="line2d_9">
      <g>
       <use xlink:href="#m4cf6f2f402" x="448.002387" y="303.357661" style="fill: #5a5758; stroke: #5a5758; stroke-width: 0.8"/>
      </g>
     </g>
     <g id="text_9">
      <!-- 2.00 -->
      <g style="fill: #5a5758" transform="translate(434.005253 320.778491) scale(0.14994 -0.14994)">
       <use xlink:href="#CMUBright-Roman-32"/>
       <use xlink:href="#CMUBright-Roman-2e" x="52.499985"/>
       <use xlink:href="#CMUBright-Roman-30" x="81.699982"/>
       <use xlink:href="#CMUBright-Roman-30" x="134.199966"/>
      </g>
     </g>
    </g>
    <g id="text_10">
     <!-- $x$ -->
     <g style="fill: #5a5758" transform="translate(251.702402 343.792957) scale(0.18 -0.18)">
      <defs>
       <path id="CMUBright-SemiBold-78" d="M 0 0 
L 1184 1562 
L 1184 1568 
L 38 3021 
L 698 3021 
L 1446 2022 
L 2163 3021 
L 2816 3021 
L 1709 1568 
L 1709 1562 
L 2931 0 
L 2272 0 
L 1446 1197 
L 1440 1197 
L 653 0 
L 0 0 
z
" transform="scale(0.015625)"/>
      </defs>
      <use xlink:href="#CMUBright-SemiBold-78" transform="translate(0 0.796875)"/>
     </g>
    </g>
   </g>
   <g id="matplotlib.axis_2">
    <g id="ytick_1">
     <g id="line2d_10">
      <defs>
       <path id="mc123b5d3bd" d="M 0 0 
L -3.5 0 
" style="stroke: #5a5758; stroke-width: 0.8"/>
      </defs>
      <g>
       <use xlink:href="#mc123b5d3bd" x="51.682417" y="291.357661" style="fill: #5a5758; stroke: #5a5758; stroke-width: 0.8"/>
      </g>
     </g>
     <g id="text_11">
      <!-- 0.0 -->
      <g style="fill: #5a5758" transform="translate(24.56 296.568076) scale(0.14994 -0.14994)">
       <use xlink:href="#CMUBright-Roman-30"/>
       <use xlink:href="#CMUBright-Roman-2e" x="52.499985"/>
       <use xlink:href="#CMUBright-Roman-30" x="81.699982"/>
      </g>
     </g>
    </g>
    <g id="ytick_2">
     <g id="line2d_11">
      <g>
       <use xlink:href="#mc123b5d3bd" x="51.682417" y="238.728529" style="fill: #5a5758; stroke: #5a5758; stroke-width: 0.8"/>
      </g>
     </g>
     <g id="text_12">
      <!-- 0.2 -->
      <g style="fill: #5a5758" transform="translate(24.56 243.938944) scale(0.14994 -0.14994)">
       <use xlink:href="#CMUBright-Roman-30"/>
       <use xlink:href="#CMUBright-Roman-2e" x="52.499985"/>
       <use xlink:href="#CMUBright-Roman-32" x="81.699982"/>
      </g>
     </g>
    </g>
    <g id="ytick_3">
     <g id="line2d_12">
      <g>
       <use xlink:href="#mc123b5d3bd" x="51.682417" y="186.099397" style="fill: #5a5758; stroke: #5a5758; stroke-width: 0.8"/>
      </g>
     </g>
     <g id="text_13">
      <!-- 0.4 -->
      <g style="fill: #5a5758" transform="translate(24.56 191.309812) scale(0.14994 -0.14994)">
       <defs>
        <path id="CMUBright-Roman-34" d="M 186 1158 
L 186 1504 
L 1952 4250 
L 2438 4250 
L 2438 1498 
L 3168 1498 
L 3168 1158 
L 2438 1158 
L 2438 0 
L 2035 0 
L 2035 1158 
L 186 1158 
z
M 602 1498 
L 2054 1498 
L 2054 3885 
Q 1971 3667 1606 3085 
L 602 1498 
z
" transform="scale(0.015625)"/>
       </defs>
       <use xlink:href="#CMUBright-Roman-30"/>
       <use xlink:href="#CMUBright-Roman-2e" x="52.499985"/>
       <use xlink:href="#CMUBright-Roman-34" x="81.699982"/>
      </g>
     </g>
    </g>
    <g id="ytick_4">
     <g id="line2d_13">
      <g>
       <use xlink:href="#mc123b5d3bd" x="51.682417" y="133.470264" style="fill: #5a5758; stroke: #5a5758; stroke-width: 0.8"/>
      </g>
     </g>
     <g id="text_14">
      <!-- 0.6 -->
      <g style="fill: #5a5758" transform="translate(24.56 138.680679) scale(0.14994 -0.14994)">
       <defs>
        <path id="CMUBright-Roman-36" d="M 346 2061 
Q 346 3072 864 3686 
Q 1382 4301 2074 4301 
L 2086 4301 
Q 2426 4301 2797 4179 
L 2797 3846 
Q 2374 3981 2074 3981 
L 2061 3981 
Q 1478 3981 1123 3491 
Q 768 3002 768 2208 
Q 768 2195 771 2166 
Q 774 2138 774 2125 
Q 928 2445 1238 2665 
Q 1549 2886 1952 2886 
Q 2387 2886 2682 2483 
Q 3008 2029 3008 1408 
Q 3008 768 2618 326 
Q 2240 -109 1690 -109 
Q 1510 -109 1340 -57 
Q 1171 -6 985 141 
Q 800 288 662 521 
Q 525 755 435 1152 
Q 346 1549 346 2061 
z
M 794 1389 
Q 813 1171 854 1004 
Q 896 838 985 643 
Q 1075 448 1254 336 
Q 1434 224 1690 224 
Q 2138 224 2381 550 
Q 2515 736 2550 921 
Q 2586 1107 2586 1434 
Q 2586 1645 2573 1776 
Q 2560 1907 2480 2089 
Q 2400 2272 2253 2400 
Q 2054 2566 1728 2566 
Q 1325 2566 1062 2265 
Q 800 1965 800 1555 
Q 800 1440 806 1389 
L 794 1389 
z
" transform="scale(0.015625)"/>
       </defs>
       <use xlink:href="#CMUBright-Roman-30"/>
       <use xlink:href="#CMUBright-Roman-2e" x="52.499985"/>
       <use xlink:href="#CMUBright-Roman-36" x="81.699982"/>
      </g>
     </g>
    </g>
    <g id="ytick_5">
     <g id="line2d_14">
      <g>
       <use xlink:href="#mc123b5d3bd" x="51.682417" y="80.841132" style="fill: #5a5758; stroke: #5a5758; stroke-width: 0.8"/>
      </g>
     </g>
     <g id="text_15">
      <!-- 0.8 -->
      <g style="fill: #5a5758" transform="translate(24.56 86.051547) scale(0.14994 -0.14994)">
       <defs>
        <path id="CMUBright-Roman-38" d="M 275 1158 
Q 275 1517 518 1817 
Q 762 2118 1248 2266 
Q 909 2349 640 2598 
Q 371 2848 371 3206 
Q 371 3642 745 3971 
Q 1120 4301 1677 4301 
Q 2221 4301 2601 3981 
Q 2982 3661 2982 3213 
Q 2982 2918 2787 2684 
Q 2592 2451 2285 2323 
L 2099 2266 
Q 2464 2176 2768 1885 
Q 3072 1594 3072 1158 
Q 3072 646 2665 268 
Q 2259 -109 1670 -109 
Q 1075 -109 675 275 
Q 275 659 275 1158 
z
M 698 1158 
Q 698 704 970 464 
Q 1242 224 1670 224 
Q 2118 224 2384 470 
Q 2650 717 2650 1165 
Q 2650 1619 2371 1862 
Q 2093 2106 1670 2106 
Q 1280 2106 989 1878 
Q 698 1651 698 1158 
z
M 755 3206 
Q 755 2886 982 2656 
Q 1210 2426 1670 2426 
Q 2093 2426 2342 2634 
Q 2592 2842 2592 3206 
Q 2592 3507 2387 3744 
Q 2182 3981 1683 3981 
Q 1171 3981 963 3744 
Q 755 3507 755 3206 
z
" transform="scale(0.015625)"/>
       </defs>
       <use xlink:href="#CMUBright-Roman-30"/>
       <use xlink:href="#CMUBright-Roman-2e" x="52.499985"/>
       <use xlink:href="#CMUBright-Roman-38" x="81.699982"/>
      </g>
     </g>
    </g>
    <g id="ytick_6">
     <g id="line2d_15">
      <g>
       <use xlink:href="#mc123b5d3bd" x="51.682417" y="28.212" style="fill: #5a5758; stroke: #5a5758; stroke-width: 0.8"/>
      </g>
     </g>
     <g id="text_16">
      <!-- 1.0 -->
      <g style="fill: #5a5758" transform="translate(24.56 33.422415) scale(0.14994 -0.14994)">
       <use xlink:href="#CMUBright-Roman-31"/>
       <use xlink:href="#CMUBright-Roman-2e" x="52.499985"/>
       <use xlink:href="#CMUBright-Roman-30" x="81.699982"/>
      </g>
     </g>
    </g>
    <g id="text_17">
     <!-- $u$ -->
     <g style="fill: #5a5758" transform="translate(7.2 156.778268) scale(0.18 -0.18)">
      <defs>
       <path id="CMUBright-SemiBold-75" d="M 410 838 
L 410 3021 
L 1024 3021 
L 1024 883 
Q 1030 570 1069 506 
Q 1139 403 1510 403 
Q 1888 403 2064 601 
Q 2240 800 2266 998 
Q 2272 1062 2272 1197 
L 2272 3021 
L 2886 3021 
L 2886 0 
L 2285 0 
L 2285 480 
Q 1830 -51 1088 -51 
Q 858 -51 710 29 
Q 563 109 502 262 
Q 442 416 426 537 
Q 410 659 410 838 
z
" transform="scale(0.015625)"/>
      </defs>
      <use xlink:href="#CMUBright-SemiBold-75" transform="translate(0 0.796875)"/>
     </g>
    </g>
   </g>
   <g id="line2d_16">
    <path d="M 63.682417 291.357661 
L 82.898415 265.043095 
L 102.114414 238.728529 
L 121.330412 212.413963 
L 140.546411 186.099397 
L 159.762409 159.78483 
L 178.978408 133.470264 
L 198.194406 107.155698 
L 217.410405 80.841132 
L 236.626403 54.526566 
L 255.842402 28.212 
L 275.0584 54.526566 
L 294.274399 80.841132 
L 313.490397 107.155698 
L 332.706396 133.470264 
L 351.922394 159.78483 
L 371.138393 186.099397 
L 390.354391 212.413963 
L 409.57039 238.728529 
L 428.786388 265.043095 
L 448.002387 291.357661 
" style="fill: none; stroke: #808080; stroke-opacity: 0.5; stroke-width: 2; stroke-linecap: square"/>
    <defs>
     <path id="m8b51108703" d="M 0 3 
C 0.795609 3 1.55874 2.683901 2.12132 2.12132 
C 2.683901 1.55874 3 0.795609 3 0 
C 3 -0.795609 2.683901 -1.55874 2.12132 -2.12132 
C 1.55874 -2.683901 0.795609 -3 0 -3 
C -0.795609 -3 -1.55874 -2.683901 -2.12132 -2.12132 
C -2.683901 -1.55874 -3 -0.795609 -3 0 
C -3 0.795609 -2.683901 1.55874 -2.12132 2.12132 
C -1.55874 2.683901 -0.795609 3 0 3 
z
" style="stroke: #ffffff; stroke-opacity: 0.5"/>
    </defs>
    <g>
     <use xlink:href="#m8b51108703" x="63.682417" y="291.357661" style="fill: #808080; fill-opacity: 0.5; stroke: #ffffff; stroke-opacity: 0.5"/>
     <use xlink:href="#m8b51108703" x="82.898415" y="265.043095" style="fill: #808080; fill-opacity: 0.5; stroke: #ffffff; stroke-opacity: 0.5"/>
     <use xlink:href="#m8b51108703" x="102.114414" y="238.728529" style="fill: #808080; fill-opacity: 0.5; stroke: #ffffff; stroke-opacity: 0.5"/>
     <use xlink:href="#m8b51108703" x="121.330412" y="212.413963" style="fill: #808080; fill-opacity: 0.5; stroke: #ffffff; stroke-opacity: 0.5"/>
     <use xlink:href="#m8b51108703" x="140.546411" y="186.099397" style="fill: #808080; fill-opacity: 0.5; stroke: #ffffff; stroke-opacity: 0.5"/>
     <use xlink:href="#m8b51108703" x="159.762409" y="159.78483" style="fill: #808080; fill-opacity: 0.5; stroke: #ffffff; stroke-opacity: 0.5"/>
     <use xlink:href="#m8b51108703" x="178.978408" y="133.470264" style="fill: #808080; fill-opacity: 0.5; stroke: #ffffff; stroke-opacity: 0.5"/>
     <use xlink:href="#m8b51108703" x="198.194406" y="107.155698" style="fill: #808080; fill-opacity: 0.5; stroke: #ffffff; stroke-opacity: 0.5"/>
     <use xlink:href="#m8b51108703" x="217.410405" y="80.841132" style="fill: #808080; fill-opacity: 0.5; stroke: #ffffff; stroke-opacity: 0.5"/>
     <use xlink:href="#m8b51108703" x="236.626403" y="54.526566" style="fill: #808080; fill-opacity: 0.5; stroke: #ffffff; stroke-opacity: 0.5"/>
     <use xlink:href="#m8b51108703" x="255.842402" y="28.212" style="fill: #808080; fill-opacity: 0.5; stroke: #ffffff; stroke-opacity: 0.5"/>
     <use xlink:href="#m8b51108703" x="275.0584" y="54.526566" style="fill: #808080; fill-opacity: 0.5; stroke: #ffffff; stroke-opacity: 0.5"/>
     <use xlink:href="#m8b51108703" x="294.274399" y="80.841132" style="fill: #808080; fill-opacity: 0.5; stroke: #ffffff; stroke-opacity: 0.5"/>
     <use xlink:href="#m8b51108703" x="313.490397" y="107.155698" style="fill: #808080; fill-opacity: 0.5; stroke: #ffffff; stroke-opacity: 0.5"/>
     <use xlink:href="#m8b51108703" x="332.706396" y="133.470264" style="fill: #808080; fill-opacity: 0.5; stroke: #ffffff; stroke-opacity: 0.5"/>
     <use xlink:href="#m8b51108703" x="351.922394" y="159.78483" style="fill: #808080; fill-opacity: 0.5; stroke: #ffffff; stroke-opacity: 0.5"/>
     <use xlink:href="#m8b51108703" x="371.138393" y="186.099397" style="fill: #808080; fill-opacity: 0.5; stroke: #ffffff; stroke-opacity: 0.5"/>
     <use xlink:href="#m8b51108703" x="390.354391" y="212.413963" style="fill: #808080; fill-opacity: 0.5; stroke: #ffffff; stroke-opacity: 0.5"/>
     <use xlink:href="#m8b51108703" x="409.57039" y="238.728529" style="fill: #808080; fill-opacity: 0.5; stroke: #ffffff; stroke-opacity: 0.5"/>
     <use xlink:href="#m8b51108703" x="428.786388" y="265.043095" style="fill: #808080; fill-opacity: 0.5; stroke: #ffffff; stroke-opacity: 0.5"/>
     <use xlink:href="#m8b51108703" x="448.002387" y="291.357661" style="fill: #808080; fill-opacity: 0.5; stroke: #ffffff; stroke-opacity: 0.5"/>
    </g>
   </g>
   <g id="patch_3">
    <path d="M 51.682417 291.357661 
L 51.682417 28.212 
" style="fill: none; stroke: #5a5758; stroke-width: 0.8; stroke-linejoin: miter; stroke-linecap: square"/>
   </g>
   <g id="patch_4">
    <path d="M 63.682417 303.357661 
L 448.002387 303.357661 
" style="fill: none; stroke: #5a5758; stroke-width: 0.8; stroke-linejoin: miter; stroke-linecap: square"/>
   </g>
   <g id="text_18">
    <!-- Initial condition -->
    <g style="fill: #5a5758" transform="translate(184.991027 22.212) scale(0.216 -0.216)">
     <defs>
      <path id="CMUBright-Roman-49" d="M 627 0 
L 627 4448 
L 1075 4448 
L 1075 0 
L 627 0 
z
" transform="scale(0.015625)"/>
      <path id="CMUBright-Roman-6e" d="M 512 0 
L 512 3021 
L 909 3021 
L 909 2400 
Q 1030 2682 1273 2877 
Q 1517 3072 1869 3072 
Q 2125 3072 2307 2992 
Q 2490 2912 2579 2809 
Q 2669 2707 2720 2540 
Q 2771 2374 2777 2272 
Q 2784 2170 2784 2016 
L 2784 0 
L 2374 0 
L 2374 1990 
Q 2374 2106 2371 2176 
Q 2368 2246 2329 2368 
Q 2291 2490 2220 2563 
Q 2150 2637 2006 2694 
Q 1862 2752 1658 2752 
Q 1370 2752 1149 2518 
Q 928 2285 928 1677 
L 928 0 
L 512 0 
z
" transform="scale(0.015625)"/>
      <path id="CMUBright-Roman-69" d="M 509 4019 
L 509 4422 
L 912 4422 
L 912 4019 
L 509 4019 
z
M 512 0 
L 512 3021 
L 915 3021 
L 915 0 
L 512 0 
z
" transform="scale(0.015625)"/>
      <path id="CMUBright-Roman-74" d="M 122 2701 
L 122 3021 
L 736 3021 
L 736 3885 
L 1126 3885 
L 1126 3021 
L 2118 3021 
L 2118 2701 
L 1126 2701 
L 1126 883 
Q 1126 282 1491 282 
Q 1568 282 1638 291 
Q 1709 301 1769 323 
Q 1830 346 1878 365 
Q 1926 384 1974 416 
Q 2022 448 2048 464 
Q 2074 480 2109 512 
Q 2144 544 2150 544 
L 2234 230 
Q 1779 -51 1261 -51 
Q 730 -51 730 838 
L 730 2701 
L 122 2701 
z
" transform="scale(0.015625)"/>
      <path id="CMUBright-Roman-61" d="M 352 736 
Q 352 896 435 1046 
Q 518 1197 707 1347 
Q 896 1498 1283 1590 
Q 1670 1683 2214 1696 
L 2214 1965 
Q 2214 2381 2042 2579 
Q 1856 2803 1568 2803 
Q 1331 2803 1107 2736 
Q 883 2669 809 2624 
Q 736 2579 557 2470 
L 525 2829 
Q 1043 3104 1574 3104 
Q 2054 3104 2326 2806 
Q 2598 2509 2624 2144 
L 2630 1926 
L 2630 0 
L 2227 0 
L 2227 442 
Q 1830 -51 1107 -51 
L 1062 -51 
Q 710 -51 531 205 
Q 352 461 352 736 
z
M 749 749 
Q 749 518 950 393 
Q 1152 269 1408 269 
Q 1523 269 1644 297 
Q 1766 326 1904 390 
Q 2042 454 2128 595 
Q 2214 736 2214 928 
L 2214 1498 
Q 1568 1491 1158 1286 
Q 749 1082 749 749 
z
" transform="scale(0.015625)"/>
      <path id="CMUBright-Roman-6c" d="M 512 0 
L 512 4448 
L 915 4448 
L 915 0 
L 512 0 
z
" transform="scale(0.015625)"/>
      <path id="CMUBright-Roman-20" transform="scale(0.015625)"/>
      <path id="CMUBright-Roman-63" d="M 294 1517 
Q 294 2157 691 2630 
Q 1088 3104 1709 3104 
Q 2042 3104 2250 3046 
Q 2458 2989 2758 2829 
L 2694 2477 
Q 2502 2592 2403 2640 
Q 2304 2688 2125 2729 
Q 1946 2771 1709 2771 
Q 1254 2771 982 2432 
Q 710 2093 710 1523 
Q 717 915 1008 598 
Q 1299 282 1696 282 
Q 1958 282 2192 365 
Q 2426 448 2525 518 
Q 2624 589 2765 710 
L 2797 352 
Q 2304 -51 1690 -51 
Q 1107 -51 700 403 
Q 294 858 294 1517 
z
" transform="scale(0.015625)"/>
      <path id="CMUBright-Roman-6f" d="M 256 1510 
Q 256 2182 675 2640 
Q 1094 3098 1677 3098 
Q 2272 3098 2681 2627 
Q 3091 2157 3091 1510 
Q 3091 838 2668 393 
Q 2246 -51 1677 -51 
Q 1088 -51 672 406 
Q 256 864 256 1510 
z
M 666 1587 
Q 666 1190 771 915 
Q 877 640 1046 512 
Q 1216 384 1369 333 
Q 1523 282 1677 282 
Q 1843 282 2006 342 
Q 2170 403 2330 537 
Q 2490 672 2586 937 
Q 2682 1203 2682 1568 
Q 2682 1914 2586 2163 
Q 2490 2413 2330 2541 
Q 2170 2669 2006 2723 
Q 1843 2778 1676 2778 
Q 1510 2778 1347 2723 
Q 1184 2669 1024 2544 
Q 864 2419 765 2172 
Q 666 1926 666 1587 
z
" transform="scale(0.015625)"/>
      <path id="CMUBright-Roman-64" d="M 294 1510 
Q 294 2189 659 2630 
Q 1024 3072 1504 3072 
Q 2016 3072 2381 2624 
L 2381 4448 
L 2784 4448 
L 2784 0 
L 2374 0 
L 2374 269 
L 2368 467 
Q 2016 -51 1459 -51 
Q 966 -51 630 413 
Q 294 877 294 1510 
z
M 710 1510 
Q 710 1139 809 876 
Q 909 614 1065 492 
Q 1222 371 1369 320 
Q 1517 269 1664 269 
Q 2022 269 2259 582 
Q 2278 614 2304 652 
Q 2330 691 2339 707 
Q 2349 723 2358 752 
Q 2368 781 2371 816 
Q 2374 851 2374 902 
L 2374 2253 
Q 2374 2438 2179 2595 
Q 1984 2752 1722 2752 
Q 1619 2752 1504 2726 
Q 1389 2701 1241 2621 
Q 1094 2541 982 2413 
Q 870 2285 790 2048 
Q 710 1811 710 1510 
z
" transform="scale(0.015625)"/>
     </defs>
     <use xlink:href="#CMUBright-Roman-49"/>
     <use xlink:href="#CMUBright-Roman-6e" x="26.699997"/>
     <use xlink:href="#CMUBright-Roman-69" x="78.399994"/>
     <use xlink:href="#CMUBright-Roman-74" x="100.899979"/>
     <use xlink:href="#CMUBright-Roman-69" x="138.799973"/>
     <use xlink:href="#CMUBright-Roman-61" x="161.299957"/>
     <use xlink:href="#CMUBright-Roman-6c" x="210.499954"/>
     <use xlink:href="#CMUBright-Roman-20" x="232.999939"/>
     <use xlink:href="#CMUBright-Roman-63" x="266.299927"/>
     <use xlink:href="#CMUBright-Roman-6f" x="312.999924"/>
     <use xlink:href="#CMUBright-Roman-6e" x="365.499908"/>
     <use xlink:href="#CMUBright-Roman-64" x="417.199905"/>
     <use xlink:href="#CMUBright-Roman-69" x="468.899902"/>
     <use xlink:href="#CMUBright-Roman-74" x="491.399887"/>
     <use xlink:href="#CMUBright-Roman-69" x="529.299881"/>
     <use xlink:href="#CMUBright-Roman-6f" x="551.799866"/>
     <use xlink:href="#CMUBright-Roman-6e" x="604.29985"/>
    </g>
   </g>
  </g>
 </g>
</svg>