<?xml version="1.0" encoding="utf-8" standalone="no"?>
<!DOCTYPE svg PUBLIC "-//W3C//DTD SVG 1.1//EN"
  "http://www.w3.org/Graphics/SVG/1.1/DTD/svg11.dtd">
<svg xmlns:xlink="http://www.w3.org/1999/xlink" width="728.39952pt" height="440.39952pt" viewBox="0 0 728.39952 440.39952" xmlns="http://www.w3.org/2000/svg" version="1.1">
 <metadata>
  <rdf:RDF xmlns:dc="http://purl.org/dc/elements/1.1/" xmlns:cc="http://creativecommons.org/ns#" xmlns:rdf="http://www.w3.org/1999/02/22-rdf-syntax-ns#">
   <cc:Work>
    <dc:type rdf:resource="http://purl.org/dc/dcmitype/StillImage"/>
    <dc:date>2024-11-20T11:08:49.059777</dc:date>
    <dc:format>image/svg+xml</dc:format>
    <dc:creator>
     <cc:Agent>
      <dc:title>Matplotlib v3.9.2, https://matplotlib.org/</dc:title>
     </cc:Agent>
    </dc:creator>
   </cc:Work>
  </rdf:RDF>
 </metadata>
 <defs>
  <style type="text/css">*{stroke-linejoin: round; stroke-linecap: butt}</style>
 </defs>
 <g id="figure_1">
  <g id="patch_1">
   <path d="M 0 440.39952 
L 728.39952 440.39952 
L 728.39952 0 
L 0 0 
z
" style="fill: #ffffff"/>
  </g>
  <g id="axes_1">
   <g id="patch_2">
    <path d="M 74.29185 377.757661 
L 717.263595 377.757661 
L 717.263595 12.410415 
L 74.29185 12.410415 
z
" style="fill: #ffffff"/>
   </g>
   <g id="PolyCollection_1">
    <defs>
     <path id="m96cedc3fff" d="M 74.29185 -62.641859 
L 74.29185 -62.641859 
L 75.899279 -62.641859 
L 77.506709 -62.641859 
L 79.114138 -62.641859 
L 80.721567 -62.641859 
L 82.328997 -62.641859 
L 83.936426 -62.641859 
L 85.543856 -62.641859 
L 87.151285 -62.641859 
L 88.758714 -62.641859 
L 90.366144 -62.641859 
L 91.973573 -62.641859 
L 93.581002 -62.641859 
L 95.188432 -62.641859 
L 96.795861 -62.641859 
L 98.40329 -62.641859 
L 100.01072 -62.641859 
L 101.618149 -62.641859 
L 103.225579 -62.641859 
L 104.833008 -62.641859 
L 106.440437 -62.641859 
L 108.047867 -62.641859 
L 109.655296 -62.641859 
L 111.262725 -62.641859 
L 112.870155 -62.641859 
L 114.477584 -62.641859 
L 116.085013 -62.641859 
L 117.692443 -62.641859 
L 119.299872 -62.641859 
L 120.907302 -62.641859 
L 122.514731 -62.641859 
L 124.12216 -62.641859 
L 125.72959 -62.641859 
L 127.337019 -62.641859 
L 128.944448 -62.641859 
L 130.551878 -62.641859 
L 132.159307 -62.641859 
L 133.766736 -62.641859 
L 135.374166 -62.641859 
L 136.981595 -62.641859 
L 138.589024 -62.641859 
L 140.196454 -62.641859 
L 141.803883 -62.641859 
L 143.411313 -62.641859 
L 145.018742 -62.641859 
L 146.626171 -62.641859 
L 148.233601 -62.641859 
L 149.84103 -62.641859 
L 151.448459 -62.641859 
L 153.055889 -62.641859 
L 154.663318 -62.641859 
L 156.270747 -62.641859 
L 157.878177 -62.641859 
L 159.485606 -62.641859 
L 161.093036 -62.641859 
L 162.700465 -62.641859 
L 164.307894 -62.641859 
L 165.915324 -62.641859 
L 167.522753 -62.641859 
L 169.130182 -62.641859 
L 170.737612 -62.641859 
L 172.345041 -62.641859 
L 173.95247 -62.641859 
L 175.5599 -62.641859 
L 177.167329 -62.641859 
L 178.774759 -62.641859 
L 180.382188 -62.641859 
L 181.989617 -62.641859 
L 183.597047 -62.641859 
L 185.204476 -62.641859 
L 186.811905 -62.641859 
L 188.419335 -62.641859 
L 190.026764 -62.641859 
L 191.634193 -62.641859 
L 193.241623 -62.641859 
L 194.849052 -62.641859 
L 196.456482 -62.641859 
L 198.063911 -62.641859 
L 199.67134 -62.641859 
L 201.27877 -62.641859 
L 202.886199 -62.641859 
L 204.493628 -62.641859 
L 206.101058 -62.641859 
L 207.708487 -62.641859 
L 209.315916 -62.641859 
L 210.923346 -62.641859 
L 212.530775 -62.641859 
L 214.138205 -62.641859 
L 215.745634 -62.641859 
L 217.353063 -62.641859 
L 218.960493 -62.641859 
L 220.567922 -62.641859 
L 222.175351 -62.641859 
L 223.782781 -62.641859 
L 225.39021 -62.641859 
L 226.997639 -62.641859 
L 228.605069 -62.641859 
L 230.212498 -62.641859 
L 231.819928 -62.641859 
L 233.427357 -62.641859 
L 235.034786 -62.641859 
L 236.642216 -62.641859 
L 238.249645 -62.641859 
L 239.857074 -62.641859 
L 241.464504 -62.641859 
L 243.071933 -62.641859 
L 244.679362 -62.641859 
L 246.286792 -62.641859 
L 247.894221 -62.641859 
L 249.501651 -62.641859 
L 251.10908 -62.641859 
L 252.716509 -62.641859 
L 254.323939 -62.641859 
L 255.931368 -62.641859 
L 257.538797 -62.641859 
L 259.146227 -62.641859 
L 260.753656 -62.641859 
L 262.361085 -62.641859 
L 263.968515 -62.641859 
L 265.575944 -62.641859 
L 267.183373 -62.641859 
L 268.790803 -62.641859 
L 270.398232 -62.641859 
L 272.005662 -62.641859 
L 273.613091 -62.641859 
L 275.22052 -62.641859 
L 276.82795 -62.641859 
L 278.435379 -62.641859 
L 280.042808 -62.641859 
L 281.650238 -62.641859 
L 283.257667 -62.641859 
L 284.865096 -62.641859 
L 286.472526 -62.641859 
L 288.079955 -62.641859 
L 289.687385 -62.641859 
L 291.294814 -62.641859 
L 292.902243 -62.641859 
L 294.509673 -62.641859 
L 296.117102 -62.641859 
L 297.724531 -62.641859 
L 299.331961 -62.641859 
L 300.93939 -62.641859 
L 302.546819 -62.641859 
L 304.154249 -62.641859 
L 305.761678 -62.641859 
L 307.369108 -62.641859 
L 308.976537 -62.641859 
L 310.583966 -62.641859 
L 312.191396 -62.641859 
L 313.798825 -62.641859 
L 315.406254 -62.641859 
L 317.013684 -62.641859 
L 318.621113 -62.641859 
L 320.228542 -62.641859 
L 321.835972 -62.641859 
L 323.443401 -62.641859 
L 325.050831 -62.641859 
L 326.65826 -62.641859 
L 328.265689 -62.641859 
L 329.873119 -62.641859 
L 331.480548 -62.641859 
L 333.087977 -62.641859 
L 334.695407 -62.641859 
L 336.302836 -62.641859 
L 337.910265 -62.641859 
L 339.517695 -62.641859 
L 341.125124 -62.641859 
L 342.732554 -62.641859 
L 344.339983 -62.641859 
L 345.947412 -62.641859 
L 347.554842 -62.641859 
L 349.162271 -62.641859 
L 350.7697 -62.641859 
L 352.37713 -62.641859 
L 353.984559 -62.641859 
L 355.591988 -62.641859 
L 357.199418 -62.641859 
L 358.806847 -62.641859 
L 360.414277 -62.641859 
L 362.021706 -62.641859 
L 363.629135 -62.641859 
L 365.236565 -62.641859 
L 366.843994 -62.641859 
L 368.451423 -62.641859 
L 370.058853 -62.641859 
L 371.666282 -62.641859 
L 373.273711 -62.641859 
L 374.881141 -62.641859 
L 376.48857 -62.641859 
L 378.096 -62.641859 
L 379.703429 -62.641859 
L 381.310858 -62.641859 
L 382.918288 -62.641859 
L 384.525717 -62.641859 
L 386.133146 -62.641859 
L 387.740576 -62.641859 
L 389.348005 -62.641859 
L 390.955434 -62.641859 
L 392.562864 -62.641859 
L 394.170293 -62.641859 
L 395.777722 -62.641859 
L 397.385152 -62.641859 
L 398.992581 -62.641859 
L 400.600011 -62.641859 
L 402.20744 -62.641859 
L 403.814869 -62.641859 
L 405.422299 -62.641859 
L 407.029728 -62.641859 
L 408.637157 -62.641859 
L 410.244587 -62.641859 
L 411.852016 -62.641859 
L 413.459445 -62.641859 
L 415.066875 -62.641859 
L 416.674304 -62.641859 
L 418.281734 -62.641859 
L 419.889163 -62.641859 
L 421.496592 -62.641859 
L 423.104022 -62.641859 
L 424.711451 -62.641859 
L 426.31888 -62.641859 
L 427.92631 -62.641859 
L 429.533739 -62.641859 
L 431.141168 -62.641859 
L 432.748598 -62.641859 
L 434.356027 -62.641859 
L 435.963457 -62.641859 
L 437.570886 -62.641859 
L 439.178315 -62.641859 
L 440.785745 -62.641859 
L 442.393174 -62.641859 
L 444.000603 -62.641859 
L 445.608033 -62.641859 
L 447.215462 -62.641859 
L 448.822891 -62.641859 
L 450.430321 -62.641859 
L 452.03775 -62.641859 
L 453.64518 -62.641859 
L 455.252609 -62.641859 
L 456.860038 -62.641859 
L 458.467468 -62.641859 
L 460.074897 -62.641859 
L 461.682326 -62.641859 
L 463.289756 -62.641859 
L 464.897185 -62.641859 
L 466.504614 -62.641859 
L 468.112044 -62.641859 
L 469.719473 -62.641859 
L 471.326903 -62.641859 
L 472.934332 -62.641859 
L 474.541761 -62.641859 
L 476.149191 -62.641859 
L 477.75662 -62.641859 
L 479.364049 -62.641859 
L 480.971479 -62.641859 
L 482.578908 -62.641859 
L 484.186337 -62.641859 
L 485.793767 -62.641859 
L 487.401196 -62.641859 
L 489.008626 -62.641859 
L 490.616055 -62.641859 
L 492.223484 -62.641859 
L 493.830914 -62.641859 
L 495.438343 -62.641859 
L 497.045772 -62.641859 
L 498.653202 -62.641859 
L 500.260631 -62.641859 
L 501.86806 -62.641859 
L 503.47549 -62.641859 
L 505.082919 -62.641859 
L 506.690349 -62.641859 
L 508.297778 -62.641859 
L 509.905207 -62.641859 
L 511.512637 -62.641859 
L 513.120066 -62.641859 
L 514.727495 -62.641859 
L 516.334925 -62.641859 
L 517.942354 -62.641859 
L 519.549783 -62.641859 
L 521.157213 -62.641859 
L 522.764642 -62.641859 
L 524.372071 -62.641859 
L 525.979501 -62.641859 
L 527.58693 -62.641859 
L 529.19436 -62.641859 
L 530.801789 -62.641859 
L 532.409218 -62.641859 
L 534.016648 -62.641859 
L 535.624077 -62.641859 
L 537.231506 -62.641859 
L 538.838936 -62.641859 
L 540.446365 -62.641859 
L 542.053794 -62.641859 
L 543.661224 -62.641859 
L 545.268653 -62.641859 
L 546.876083 -62.641859 
L 548.483512 -62.641859 
L 550.090941 -62.641859 
L 551.698371 -62.641859 
L 553.3058 -62.641859 
L 554.913229 -62.641859 
L 556.520659 -62.641859 
L 558.128088 -62.641859 
L 559.735517 -62.641859 
L 561.342947 -62.641859 
L 562.950376 -62.641859 
L 564.557806 -62.641859 
L 566.165235 -62.641859 
L 567.772664 -62.641859 
L 569.380094 -62.641859 
L 570.987523 -62.641859 
L 572.594952 -62.641859 
L 574.202382 -62.641859 
L 575.809811 -62.641859 
L 577.41724 -62.641859 
L 579.02467 -62.641859 
L 580.632099 -62.641859 
L 582.239529 -62.641859 
L 583.846958 -62.641859 
L 585.454387 -62.641859 
L 587.061817 -62.641859 
L 588.669246 -62.641859 
L 590.276675 -62.641859 
L 591.884105 -62.641859 
L 593.491534 -62.641859 
L 595.098963 -62.641859 
L 596.706393 -62.641859 
L 598.313822 -62.641859 
L 599.921252 -62.641859 
L 601.528681 -62.641859 
L 603.13611 -62.641859 
L 604.74354 -62.641859 
L 606.350969 -62.641859 
L 607.958398 -62.641859 
L 609.565828 -62.641859 
L 611.173257 -62.641859 
L 612.780686 -62.641859 
L 614.388116 -62.641859 
L 615.995545 -62.641859 
L 617.602975 -62.641859 
L 619.210404 -62.641859 
L 620.817833 -62.641859 
L 622.425263 -62.641859 
L 624.032692 -62.641859 
L 625.640121 -62.641859 
L 627.247551 -62.641859 
L 628.85498 -62.641859 
L 630.462409 -62.641859 
L 632.069839 -62.641859 
L 633.677268 -62.641859 
L 635.284698 -62.641859 
L 636.892127 -62.641859 
L 638.499556 -62.641859 
L 640.106986 -62.641859 
L 641.714415 -62.641859 
L 643.321844 -62.641859 
L 644.929274 -62.641859 
L 646.536703 -62.641859 
L 648.144132 -62.641859 
L 649.751562 -62.641859 
L 651.358991 -62.641859 
L 652.96642 -62.641859 
L 654.57385 -62.641859 
L 656.181279 -62.641859 
L 657.788709 -62.641859 
L 659.396138 -62.641859 
L 661.003567 -62.641859 
L 662.610997 -62.641859 
L 664.218426 -62.641859 
L 665.825855 -62.641859 
L 667.433285 -62.641859 
L 669.040714 -62.641859 
L 670.648143 -62.641859 
L 672.255573 -62.641859 
L 673.863002 -62.641859 
L 675.470432 -62.641859 
L 677.077861 -62.641859 
L 678.68529 -62.641859 
L 680.29272 -62.641859 
L 681.900149 -62.641859 
L 683.507578 -62.641859 
L 685.115008 -62.641859 
L 686.722437 -62.641859 
L 688.329866 -62.641859 
L 689.937296 -62.641859 
L 691.544725 -62.641859 
L 693.152155 -62.641859 
L 694.759584 -62.641859 
L 696.367013 -62.641859 
L 697.974443 -62.641859 
L 699.581872 -62.641859 
L 701.189301 -62.641859 
L 702.796731 -62.641859 
L 704.40416 -62.641859 
L 706.011589 -62.641859 
L 707.619019 -62.641859 
L 709.226448 -62.641859 
L 710.833878 -62.641859 
L 712.441307 -62.641859 
L 714.048736 -62.641859 
L 715.656166 -62.641859 
L 717.263595 -62.641859 
L 717.263595 -427.989105 
L 717.263595 -427.989105 
L 715.656166 -427.989105 
L 714.048736 -427.989105 
L 712.441307 -427.989105 
L 710.833878 -427.989105 
L 709.226448 -427.989105 
L 707.619019 -427.989105 
L 706.011589 -427.989105 
L 704.40416 -427.989105 
L 702.796731 -427.989105 
L 701.189301 -427.989105 
L 699.581872 -427.989105 
L 697.974443 -427.989105 
L 696.367013 -427.989105 
L 694.759584 -427.989105 
L 693.152155 -427.989105 
L 691.544725 -427.989105 
L 689.937296 -427.989105 
L 688.329866 -427.989105 
L 686.722437 -427.989105 
L 685.115008 -427.989105 
L 683.507578 -427.989105 
L 681.900149 -427.989105 
L 680.29272 -427.989105 
L 678.68529 -427.989105 
L 677.077861 -427.989105 
L 675.470432 -427.989105 
L 673.863002 -427.989105 
L 672.255573 -427.989105 
L 670.648143 -427.989105 
L 669.040714 -427.989105 
L 667.433285 -427.989105 
L 665.825855 -427.989105 
L 664.218426 -427.989105 
L 662.610997 -427.989105 
L 661.003567 -427.989105 
L 659.396138 -427.989105 
L 657.788709 -427.989105 
L 656.181279 -427.989105 
L 654.57385 -427.989105 
L 652.96642 -427.989105 
L 651.358991 -427.989105 
L 649.751562 -427.989105 
L 648.144132 -427.989105 
L 646.536703 -427.989105 
L 644.929274 -427.989105 
L 643.321844 -427.989105 
L 641.714415 -427.989105 
L 640.106986 -427.989105 
L 638.499556 -427.989105 
L 636.892127 -427.989105 
L 635.284698 -427.989105 
L 633.677268 -427.989105 
L 632.069839 -427.989105 
L 630.462409 -427.989105 
L 628.85498 -427.989105 
L 627.247551 -427.989105 
L 625.640121 -427.989105 
L 624.032692 -427.989105 
L 622.425263 -427.989105 
L 620.817833 -427.989105 
L 619.210404 -427.989105 
L 617.602975 -427.989105 
L 615.995545 -427.989105 
L 614.388116 -427.989105 
L 612.780686 -427.989105 
L 611.173257 -427.989105 
L 609.565828 -427.989105 
L 607.958398 -427.989105 
L 606.350969 -427.989105 
L 604.74354 -427.989105 
L 603.13611 -427.989105 
L 601.528681 -427.989105 
L 599.921252 -427.989105 
L 598.313822 -427.989105 
L 596.706393 -427.989105 
L 595.098963 -427.989105 
L 593.491534 -427.989105 
L 591.884105 -427.989105 
L 590.276675 -427.989105 
L 588.669246 -427.989105 
L 587.061817 -427.989105 
L 585.454387 -427.989105 
L 583.846958 -427.989105 
L 582.239529 -427.989105 
L 580.632099 -427.989105 
L 579.02467 -427.989105 
L 577.41724 -427.989105 
L 575.809811 -427.989105 
L 574.202382 -427.989105 
L 572.594952 -427.989105 
L 570.987523 -427.989105 
L 569.380094 -427.989105 
L 567.772664 -427.989105 
L 566.165235 -427.989105 
L 564.557806 -427.989105 
L 562.950376 -427.989105 
L 561.342947 -427.989105 
L 559.735517 -427.989105 
L 558.128088 -427.989105 
L 556.520659 -427.989105 
L 554.913229 -427.989105 
L 553.3058 -427.989105 
L 551.698371 -427.989105 
L 550.090941 -427.989105 
L 548.483512 -427.989105 
L 546.876083 -427.989105 
L 545.268653 -427.989105 
L 543.661224 -427.989105 
L 542.053794 -427.989105 
L 540.446365 -427.989105 
L 538.838936 -427.989105 
L 537.231506 -427.989105 
L 535.624077 -427.989105 
L 534.016648 -427.989105 
L 532.409218 -427.989105 
L 530.801789 -427.989105 
L 529.19436 -427.989105 
L 527.58693 -427.989105 
L 525.979501 -427.989105 
L 524.372071 -427.989105 
L 522.764642 -427.989105 
L 521.157213 -427.989105 
L 519.549783 -427.989105 
L 517.942354 -427.989105 
L 516.334925 -427.989105 
L 514.727495 -427.989105 
L 513.120066 -427.989105 
L 511.512637 -427.989105 
L 509.905207 -427.989105 
L 508.297778 -427.989105 
L 506.690349 -427.989105 
L 505.082919 -427.989105 
L 503.47549 -427.989105 
L 501.86806 -427.989105 
L 500.260631 -427.989105 
L 498.653202 -427.989105 
L 497.045772 -427.989105 
L 495.438343 -427.989105 
L 493.830914 -427.989105 
L 492.223484 -427.989105 
L 490.616055 -427.989105 
L 489.008626 -427.989105 
L 487.401196 -427.989105 
L 485.793767 -427.989105 
L 484.186337 -427.989105 
L 482.578908 -427.989105 
L 480.971479 -427.989105 
L 479.364049 -427.989105 
L 477.75662 -427.989105 
L 476.149191 -427.989105 
L 474.541761 -427.989105 
L 472.934332 -427.989105 
L 471.326903 -427.989105 
L 469.719473 -427.989105 
L 468.112044 -427.989105 
L 466.504614 -427.989105 
L 464.897185 -427.989105 
L 463.289756 -427.989105 
L 461.682326 -427.989105 
L 460.074897 -427.989105 
L 458.467468 -427.989105 
L 456.860038 -427.989105 
L 455.252609 -427.989105 
L 453.64518 -427.989105 
L 452.03775 -427.989105 
L 450.430321 -427.989105 
L 448.822891 -427.989105 
L 447.215462 -427.989105 
L 445.608033 -427.989105 
L 444.000603 -427.989105 
L 442.393174 -427.989105 
L 440.785745 -427.989105 
L 439.178315 -427.989105 
L 437.570886 -427.989105 
L 435.963457 -427.989105 
L 434.356027 -427.989105 
L 432.748598 -427.989105 
L 431.141168 -427.989105 
L 429.533739 -427.989105 
L 427.92631 -427.989105 
L 426.31888 -427.989105 
L 424.711451 -427.989105 
L 423.104022 -427.989105 
L 421.496592 -427.989105 
L 419.889163 -427.989105 
L 418.281734 -427.989105 
L 416.674304 -427.989105 
L 415.066875 -427.989105 
L 413.459445 -427.989105 
L 411.852016 -427.989105 
L 410.244587 -427.989105 
L 408.637157 -427.989105 
L 407.029728 -427.989105 
L 405.422299 -427.989105 
L 403.814869 -427.989105 
L 402.20744 -427.989105 
L 400.600011 -427.989105 
L 398.992581 -427.989105 
L 397.385152 -427.989105 
L 395.777722 -427.989105 
L 394.170293 -427.989105 
L 392.562864 -427.989105 
L 390.955434 -427.989105 
L 389.348005 -427.989105 
L 387.740576 -427.989105 
L 386.133146 -427.989105 
L 384.525717 -427.989105 
L 382.918288 -427.989105 
L 381.310858 -427.989105 
L 379.703429 -427.989105 
L 378.096 -427.989105 
L 376.48857 -427.989105 
L 374.881141 -427.989105 
L 373.273711 -427.989105 
L 371.666282 -427.989105 
L 370.058853 -427.989105 
L 368.451423 -427.989105 
L 366.843994 -427.989105 
L 365.236565 -427.989105 
L 363.629135 -427.989105 
L 362.021706 -427.989105 
L 360.414277 -427.989105 
L 358.806847 -427.989105 
L 357.199418 -427.989105 
L 355.591988 -427.989105 
L 353.984559 -427.989105 
L 352.37713 -427.989105 
L 350.7697 -427.989105 
L 349.162271 -427.989105 
L 347.554842 -427.989105 
L 345.947412 -427.989105 
L 344.339983 -427.989105 
L 342.732554 -427.989105 
L 341.125124 -427.989105 
L 339.517695 -427.989105 
L 337.910265 -427.989105 
L 336.302836 -427.989105 
L 334.695407 -427.989105 
L 333.087977 -427.989105 
L 331.480548 -427.989105 
L 329.873119 -427.989105 
L 328.265689 -427.989105 
L 326.65826 -427.989105 
L 325.050831 -427.989105 
L 323.443401 -427.989105 
L 321.835972 -427.989105 
L 320.228542 -427.989105 
L 318.621113 -427.989105 
L 317.013684 -427.989105 
L 315.406254 -427.989105 
L 313.798825 -427.989105 
L 312.191396 -427.989105 
L 310.583966 -427.989105 
L 308.976537 -427.989105 
L 307.369108 -427.989105 
L 305.761678 -427.989105 
L 304.154249 -427.989105 
L 302.546819 -427.989105 
L 300.93939 -427.989105 
L 299.331961 -427.989105 
L 297.724531 -427.989105 
L 296.117102 -427.989105 
L 294.509673 -427.989105 
L 292.902243 -427.989105 
L 291.294814 -427.989105 
L 289.687385 -427.989105 
L 288.079955 -427.989105 
L 286.472526 -427.989105 
L 284.865096 -427.989105 
L 283.257667 -427.989105 
L 281.650238 -427.989105 
L 280.042808 -427.989105 
L 278.435379 -427.989105 
L 276.82795 -427.989105 
L 275.22052 -427.989105 
L 273.613091 -427.989105 
L 272.005662 -427.989105 
L 270.398232 -427.989105 
L 268.790803 -427.989105 
L 267.183373 -427.989105 
L 265.575944 -427.989105 
L 263.968515 -427.989105 
L 262.361085 -427.989105 
L 260.753656 -427.989105 
L 259.146227 -427.989105 
L 257.538797 -427.989105 
L 255.931368 -427.989105 
L 254.323939 -427.989105 
L 252.716509 -427.989105 
L 251.10908 -427.989105 
L 249.501651 -427.989105 
L 247.894221 -427.989105 
L 246.286792 -427.989105 
L 244.679362 -427.989105 
L 243.071933 -427.989105 
L 241.464504 -427.989105 
L 239.857074 -427.989105 
L 238.249645 -427.989105 
L 236.642216 -427.989105 
L 235.034786 -427.989105 
L 233.427357 -424.335633 
L 231.819928 -420.68216 
L 230.212498 -417.028688 
L 228.605069 -413.375215 
L 226.997639 -409.721743 
L 225.39021 -406.06827 
L 223.782781 -402.414798 
L 222.175351 -398.761325 
L 220.567922 -395.107853 
L 218.960493 -391.45438 
L 217.353063 -387.800908 
L 215.745634 -384.147435 
L 214.138205 -380.493963 
L 212.530775 -376.840491 
L 210.923346 -373.187018 
L 209.315916 -369.533546 
L 207.708487 -365.880073 
L 206.101058 -362.226601 
L 204.493628 -358.573128 
L 202.886199 -354.919656 
L 201.27877 -351.266183 
L 199.67134 -347.612711 
L 198.063911 -343.959238 
L 196.456482 -340.305766 
L 194.849052 -336.652294 
L 193.241623 -332.998821 
L 191.634193 -329.345349 
L 190.026764 -325.691876 
L 188.419335 -322.038404 
L 186.811905 -318.384931 
L 185.204476 -314.731459 
L 183.597047 -311.077986 
L 181.989617 -307.424514 
L 180.382188 -303.771041 
L 178.774759 -300.117569 
L 177.167329 -296.464096 
L 175.5599 -292.810624 
L 173.95247 -289.157152 
L 172.345041 -285.503679 
L 170.737612 -281.850207 
L 169.130182 -278.196734 
L 167.522753 -274.543262 
L 165.915324 -270.889789 
L 164.307894 -267.236317 
L 162.700465 -263.582844 
L 161.093036 -259.929372 
L 159.485606 -256.275899 
L 157.878177 -252.622427 
L 156.270747 -248.968954 
L 154.663318 -245.315482 
L 153.055889 -241.66201 
L 151.448459 -238.008537 
L 149.84103 -234.355065 
L 148.233601 -230.701592 
L 146.626171 -227.04812 
L 145.018742 -223.394647 
L 143.411313 -219.741175 
L 141.803883 -216.087702 
L 140.196454 -212.43423 
L 138.589024 -208.780757 
L 136.981595 -205.127285 
L 135.374166 -201.473813 
L 133.766736 -197.82034 
L 132.159307 -194.166868 
L 130.551878 -190.513395 
L 128.944448 -186.859923 
L 127.337019 -183.20645 
L 125.72959 -179.552978 
L 124.12216 -175.899505 
L 122.514731 -172.246033 
L 120.907302 -168.59256 
L 119.299872 -164.939088 
L 117.692443 -161.285615 
L 116.085013 -157.632143 
L 114.477584 -153.978671 
L 112.870155 -150.325198 
L 111.262725 -146.671726 
L 109.655296 -143.018253 
L 108.047867 -139.364781 
L 106.440437 -135.711308 
L 104.833008 -132.057836 
L 103.225579 -128.404363 
L 101.618149 -124.750891 
L 100.01072 -121.097418 
L 98.40329 -117.443946 
L 96.795861 -113.790473 
L 95.188432 -110.137001 
L 93.581002 -106.483529 
L 91.973573 -102.830056 
L 90.366144 -99.176584 
L 88.758714 -95.523111 
L 87.151285 -91.869639 
L 85.543856 -88.216166 
L 83.936426 -84.562694 
L 82.328997 -80.909221 
L 80.721567 -77.255749 
L 79.114138 -73.602276 
L 77.506709 -69.948804 
L 75.899279 -66.295332 
L 74.29185 -62.641859 
z
" style="stroke: #1e90ff; stroke-opacity: 0.5"/>
    </defs>
    <g clip-path="url(#p4d0000f921)">
     <use xlink:href="#m96cedc3fff" x="0" y="440.39952" style="fill: #1e90ff; fill-opacity: 0.5; stroke: #1e90ff; stroke-opacity: 0.5"/>
    </g>
   </g>
   <g id="PolyCollection_2">
    <defs>
     <path id="m824293bc97" d="M 74.29185 -62.641859 
L 74.29185 -62.641859 
L 75.899279 -64.468595 
L 77.506709 -66.295332 
L 79.114138 -68.122068 
L 80.721567 -69.948804 
L 82.328997 -71.77554 
L 83.936426 -73.602276 
L 85.543856 -75.429013 
L 87.151285 -77.255749 
L 88.758714 -79.082485 
L 90.366144 -80.909221 
L 91.973573 -82.735958 
L 93.581002 -84.562694 
L 95.188432 -86.38943 
L 96.795861 -88.216166 
L 98.40329 -90.042903 
L 100.01072 -91.869639 
L 101.618149 -93.696375 
L 103.225579 -95.523111 
L 104.833008 -97.349847 
L 106.440437 -99.176584 
L 108.047867 -101.00332 
L 109.655296 -102.830056 
L 111.262725 -104.656792 
L 112.870155 -106.483529 
L 114.477584 -108.310265 
L 116.085013 -110.137001 
L 117.692443 -111.963737 
L 119.299872 -113.790473 
L 120.907302 -115.61721 
L 122.514731 -117.443946 
L 124.12216 -119.270682 
L 125.72959 -121.097418 
L 127.337019 -122.924155 
L 128.944448 -124.750891 
L 130.551878 -126.577627 
L 132.159307 -128.404363 
L 133.766736 -130.2311 
L 135.374166 -132.057836 
L 136.981595 -133.884572 
L 138.589024 -135.711308 
L 140.196454 -137.538044 
L 141.803883 -139.364781 
L 143.411313 -141.191517 
L 145.018742 -143.018253 
L 146.626171 -144.844989 
L 148.233601 -146.671726 
L 149.84103 -148.498462 
L 151.448459 -150.325198 
L 153.055889 -152.151934 
L 154.663318 -153.978671 
L 156.270747 -155.805407 
L 157.878177 -157.632143 
L 159.485606 -159.458879 
L 161.093036 -161.285615 
L 162.700465 -163.112352 
L 164.307894 -164.939088 
L 165.915324 -166.765824 
L 167.522753 -168.59256 
L 169.130182 -170.419297 
L 170.737612 -172.246033 
L 172.345041 -174.072769 
L 173.95247 -175.899505 
L 175.5599 -177.726242 
L 177.167329 -179.552978 
L 178.774759 -181.379714 
L 180.382188 -183.20645 
L 181.989617 -185.033186 
L 183.597047 -186.859923 
L 185.204476 -188.686659 
L 186.811905 -190.513395 
L 188.419335 -192.340131 
L 190.026764 -194.166868 
L 191.634193 -195.993604 
L 193.241623 -197.82034 
L 194.849052 -199.647076 
L 196.456482 -201.473813 
L 198.063911 -203.300549 
L 199.67134 -205.127285 
L 201.27877 -206.954021 
L 202.886199 -208.780757 
L 204.493628 -210.607494 
L 206.101058 -212.43423 
L 207.708487 -214.260966 
L 209.315916 -216.087702 
L 210.923346 -217.914439 
L 212.530775 -219.741175 
L 214.138205 -221.567911 
L 215.745634 -223.394647 
L 217.353063 -225.221384 
L 218.960493 -227.04812 
L 220.567922 -228.874856 
L 222.175351 -230.701592 
L 223.782781 -232.528328 
L 225.39021 -234.355065 
L 226.997639 -236.181801 
L 228.605069 -238.008537 
L 230.212498 -239.835273 
L 231.819928 -241.66201 
L 233.427357 -243.488746 
L 235.034786 -245.315482 
L 236.642216 -245.315482 
L 238.249645 -245.315482 
L 239.857074 -245.315482 
L 241.464504 -245.315482 
L 243.071933 -245.315482 
L 244.679362 -245.315482 
L 246.286792 -245.315482 
L 247.894221 -245.315482 
L 249.501651 -245.315482 
L 251.10908 -245.315482 
L 252.716509 -245.315482 
L 254.323939 -245.315482 
L 255.931368 -245.315482 
L 257.538797 -245.315482 
L 259.146227 -245.315482 
L 260.753656 -245.315482 
L 262.361085 -245.315482 
L 263.968515 -245.315482 
L 265.575944 -245.315482 
L 267.183373 -245.315482 
L 268.790803 -245.315482 
L 270.398232 -245.315482 
L 272.005662 -245.315482 
L 273.613091 -245.315482 
L 275.22052 -245.315482 
L 276.82795 -245.315482 
L 278.435379 -245.315482 
L 280.042808 -245.315482 
L 281.650238 -245.315482 
L 283.257667 -245.315482 
L 284.865096 -245.315482 
L 286.472526 -245.315482 
L 288.079955 -245.315482 
L 289.687385 -245.315482 
L 291.294814 -245.315482 
L 292.902243 -245.315482 
L 294.509673 -245.315482 
L 296.117102 -245.315482 
L 297.724531 -245.315482 
L 299.331961 -245.315482 
L 300.93939 -245.315482 
L 302.546819 -245.315482 
L 304.154249 -245.315482 
L 305.761678 -245.315482 
L 307.369108 -245.315482 
L 308.976537 -245.315482 
L 310.583966 -245.315482 
L 312.191396 -245.315482 
L 313.798825 -245.315482 
L 315.406254 -245.315482 
L 317.013684 -245.315482 
L 318.621113 -245.315482 
L 320.228542 -245.315482 
L 321.835972 -245.315482 
L 323.443401 -245.315482 
L 325.050831 -245.315482 
L 326.65826 -245.315482 
L 328.265689 -245.315482 
L 329.873119 -245.315482 
L 331.480548 -245.315482 
L 333.087977 -245.315482 
L 334.695407 -245.315482 
L 336.302836 -245.315482 
L 337.910265 -245.315482 
L 339.517695 -245.315482 
L 341.125124 -245.315482 
L 342.732554 -245.315482 
L 344.339983 -245.315482 
L 345.947412 -245.315482 
L 347.554842 -245.315482 
L 349.162271 -245.315482 
L 350.7697 -245.315482 
L 352.37713 -245.315482 
L 353.984559 -245.315482 
L 355.591988 -245.315482 
L 357.199418 -245.315482 
L 358.806847 -245.315482 
L 360.414277 -245.315482 
L 362.021706 -245.315482 
L 363.629135 -245.315482 
L 365.236565 -245.315482 
L 366.843994 -245.315482 
L 368.451423 -245.315482 
L 370.058853 -245.315482 
L 371.666282 -245.315482 
L 373.273711 -245.315482 
L 374.881141 -245.315482 
L 376.48857 -245.315482 
L 378.096 -245.315482 
L 379.703429 -245.315482 
L 381.310858 -245.315482 
L 382.918288 -245.315482 
L 384.525717 -245.315482 
L 386.133146 -245.315482 
L 387.740576 -245.315482 
L 389.348005 -245.315482 
L 390.955434 -245.315482 
L 392.562864 -245.315482 
L 394.170293 -245.315482 
L 395.777722 -245.315482 
L 397.385152 -245.315482 
L 398.992581 -245.315482 
L 400.600011 -245.315482 
L 402.20744 -245.315482 
L 403.814869 -245.315482 
L 405.422299 -245.315482 
L 407.029728 -245.315482 
L 408.637157 -245.315482 
L 410.244587 -245.315482 
L 411.852016 -245.315482 
L 413.459445 -245.315482 
L 415.066875 -245.315482 
L 416.674304 -245.315482 
L 418.281734 -245.315482 
L 419.889163 -245.315482 
L 421.496592 -245.315482 
L 423.104022 -245.315482 
L 424.711451 -245.315482 
L 426.31888 -245.315482 
L 427.92631 -245.315482 
L 429.533739 -245.315482 
L 431.141168 -245.315482 
L 432.748598 -245.315482 
L 434.356027 -245.315482 
L 435.963457 -245.315482 
L 437.570886 -245.315482 
L 439.178315 -245.315482 
L 440.785745 -245.315482 
L 442.393174 -245.315482 
L 444.000603 -245.315482 
L 445.608033 -245.315482 
L 447.215462 -245.315482 
L 448.822891 -245.315482 
L 450.430321 -245.315482 
L 452.03775 -245.315482 
L 453.64518 -245.315482 
L 455.252609 -245.315482 
L 456.860038 -245.315482 
L 458.467468 -245.315482 
L 460.074897 -245.315482 
L 461.682326 -245.315482 
L 463.289756 -245.315482 
L 464.897185 -245.315482 
L 466.504614 -245.315482 
L 468.112044 -245.315482 
L 469.719473 -245.315482 
L 471.326903 -245.315482 
L 472.934332 -245.315482 
L 474.541761 -245.315482 
L 476.149191 -245.315482 
L 477.75662 -245.315482 
L 479.364049 -245.315482 
L 480.971479 -245.315482 
L 482.578908 -245.315482 
L 484.186337 -245.315482 
L 485.793767 -245.315482 
L 487.401196 -245.315482 
L 489.008626 -245.315482 
L 490.616055 -245.315482 
L 492.223484 -245.315482 
L 493.830914 -245.315482 
L 495.438343 -245.315482 
L 497.045772 -245.315482 
L 498.653202 -245.315482 
L 500.260631 -245.315482 
L 501.86806 -245.315482 
L 503.47549 -245.315482 
L 505.082919 -245.315482 
L 506.690349 -245.315482 
L 508.297778 -245.315482 
L 509.905207 -245.315482 
L 511.512637 -245.315482 
L 513.120066 -245.315482 
L 514.727495 -245.315482 
L 516.334925 -245.315482 
L 517.942354 -245.315482 
L 519.549783 -245.315482 
L 521.157213 -245.315482 
L 522.764642 -245.315482 
L 524.372071 -245.315482 
L 525.979501 -245.315482 
L 527.58693 -245.315482 
L 529.19436 -245.315482 
L 530.801789 -245.315482 
L 532.409218 -245.315482 
L 534.016648 -245.315482 
L 535.624077 -245.315482 
L 537.231506 -245.315482 
L 538.838936 -245.315482 
L 540.446365 -245.315482 
L 542.053794 -245.315482 
L 543.661224 -245.315482 
L 545.268653 -245.315482 
L 546.876083 -245.315482 
L 548.483512 -245.315482 
L 550.090941 -245.315482 
L 551.698371 -245.315482 
L 553.3058 -245.315482 
L 554.913229 -245.315482 
L 556.520659 -245.315482 
L 558.128088 -245.315482 
L 559.735517 -245.315482 
L 561.342947 -245.315482 
L 562.950376 -245.315482 
L 564.557806 -245.315482 
L 566.165235 -245.315482 
L 567.772664 -245.315482 
L 569.380094 -245.315482 
L 570.987523 -245.315482 
L 572.594952 -245.315482 
L 574.202382 -245.315482 
L 575.809811 -245.315482 
L 577.41724 -245.315482 
L 579.02467 -245.315482 
L 580.632099 -245.315482 
L 582.239529 -245.315482 
L 583.846958 -245.315482 
L 585.454387 -245.315482 
L 587.061817 -245.315482 
L 588.669246 -245.315482 
L 590.276675 -245.315482 
L 591.884105 -245.315482 
L 593.491534 -245.315482 
L 595.098963 -245.315482 
L 596.706393 -245.315482 
L 598.313822 -245.315482 
L 599.921252 -245.315482 
L 601.528681 -245.315482 
L 603.13611 -245.315482 
L 604.74354 -245.315482 
L 606.350969 -245.315482 
L 607.958398 -245.315482 
L 609.565828 -245.315482 
L 611.173257 -245.315482 
L 612.780686 -245.315482 
L 614.388116 -245.315482 
L 615.995545 -245.315482 
L 617.602975 -245.315482 
L 619.210404 -245.315482 
L 620.817833 -245.315482 
L 622.425263 -245.315482 
L 624.032692 -245.315482 
L 625.640121 -245.315482 
L 627.247551 -245.315482 
L 628.85498 -245.315482 
L 630.462409 -245.315482 
L 632.069839 -245.315482 
L 633.677268 -245.315482 
L 635.284698 -245.315482 
L 636.892127 -245.315482 
L 638.499556 -245.315482 
L 640.106986 -245.315482 
L 641.714415 -245.315482 
L 643.321844 -245.315482 
L 644.929274 -245.315482 
L 646.536703 -245.315482 
L 648.144132 -245.315482 
L 649.751562 -245.315482 
L 651.358991 -245.315482 
L 652.96642 -245.315482 
L 654.57385 -245.315482 
L 656.181279 -245.315482 
L 657.788709 -245.315482 
L 659.396138 -245.315482 
L 661.003567 -245.315482 
L 662.610997 -245.315482 
L 664.218426 -245.315482 
L 665.825855 -245.315482 
L 667.433285 -245.315482 
L 669.040714 -245.315482 
L 670.648143 -245.315482 
L 672.255573 -245.315482 
L 673.863002 -245.315482 
L 675.470432 -245.315482 
L 677.077861 -245.315482 
L 678.68529 -245.315482 
L 680.29272 -245.315482 
L 681.900149 -245.315482 
L 683.507578 -245.315482 
L 685.115008 -245.315482 
L 686.722437 -245.315482 
L 688.329866 -245.315482 
L 689.937296 -245.315482 
L 691.544725 -245.315482 
L 693.152155 -245.315482 
L 694.759584 -245.315482 
L 696.367013 -245.315482 
L 697.974443 -245.315482 
L 699.581872 -245.315482 
L 701.189301 -245.315482 
L 702.796731 -245.315482 
L 704.40416 -245.315482 
L 706.011589 -245.315482 
L 707.619019 -245.315482 
L 709.226448 -245.315482 
L 710.833878 -245.315482 
L 712.441307 -245.315482 
L 714.048736 -245.315482 
L 715.656166 -245.315482 
L 717.263595 -245.315482 
L 717.263595 -427.989105 
L 717.263595 -427.989105 
L 715.656166 -427.989105 
L 714.048736 -427.989105 
L 712.441307 -427.989105 
L 710.833878 -427.989105 
L 709.226448 -427.989105 
L 707.619019 -427.989105 
L 706.011589 -427.989105 
L 704.40416 -427.989105 
L 702.796731 -427.989105 
L 701.189301 -427.989105 
L 699.581872 -427.989105 
L 697.974443 -427.989105 
L 696.367013 -427.989105 
L 694.759584 -427.989105 
L 693.152155 -427.989105 
L 691.544725 -427.989105 
L 689.937296 -427.989105 
L 688.329866 -427.989105 
L 686.722437 -427.989105 
L 685.115008 -427.989105 
L 683.507578 -427.989105 
L 681.900149 -427.989105 
L 680.29272 -427.989105 
L 678.68529 -427.989105 
L 677.077861 -427.989105 
L 675.470432 -427.989105 
L 673.863002 -427.989105 
L 672.255573 -427.989105 
L 670.648143 -427.989105 
L 669.040714 -427.989105 
L 667.433285 -427.989105 
L 665.825855 -427.989105 
L 664.218426 -427.989105 
L 662.610997 -427.989105 
L 661.003567 -427.989105 
L 659.396138 -427.989105 
L 657.788709 -427.989105 
L 656.181279 -427.989105 
L 654.57385 -427.989105 
L 652.96642 -427.989105 
L 651.358991 -427.989105 
L 649.751562 -427.989105 
L 648.144132 -427.989105 
L 646.536703 -427.989105 
L 644.929274 -427.989105 
L 643.321844 -427.989105 
L 641.714415 -427.989105 
L 640.106986 -427.989105 
L 638.499556 -427.989105 
L 636.892127 -427.989105 
L 635.284698 -427.989105 
L 633.677268 -427.989105 
L 632.069839 -427.989105 
L 630.462409 -427.989105 
L 628.85498 -427.989105 
L 627.247551 -427.989105 
L 625.640121 -427.989105 
L 624.032692 -427.989105 
L 622.425263 -427.989105 
L 620.817833 -427.989105 
L 619.210404 -427.989105 
L 617.602975 -427.989105 
L 615.995545 -427.989105 
L 614.388116 -427.989105 
L 612.780686 -427.989105 
L 611.173257 -427.989105 
L 609.565828 -427.989105 
L 607.958398 -427.989105 
L 606.350969 -427.989105 
L 604.74354 -427.989105 
L 603.13611 -427.989105 
L 601.528681 -427.989105 
L 599.921252 -427.989105 
L 598.313822 -427.989105 
L 596.706393 -427.989105 
L 595.098963 -427.989105 
L 593.491534 -427.989105 
L 591.884105 -427.989105 
L 590.276675 -427.989105 
L 588.669246 -427.989105 
L 587.061817 -427.989105 
L 585.454387 -427.989105 
L 583.846958 -427.989105 
L 582.239529 -427.989105 
L 580.632099 -427.989105 
L 579.02467 -427.989105 
L 577.41724 -427.989105 
L 575.809811 -427.989105 
L 574.202382 -427.989105 
L 572.594952 -427.989105 
L 570.987523 -427.989105 
L 569.380094 -427.989105 
L 567.772664 -427.989105 
L 566.165235 -427.989105 
L 564.557806 -427.989105 
L 562.950376 -427.989105 
L 561.342947 -427.989105 
L 559.735517 -427.989105 
L 558.128088 -427.989105 
L 556.520659 -427.989105 
L 554.913229 -427.989105 
L 553.3058 -427.989105 
L 551.698371 -427.989105 
L 550.090941 -427.989105 
L 548.483512 -427.989105 
L 546.876083 -427.989105 
L 545.268653 -427.989105 
L 543.661224 -427.989105 
L 542.053794 -427.989105 
L 540.446365 -427.989105 
L 538.838936 -427.989105 
L 537.231506 -427.989105 
L 535.624077 -427.989105 
L 534.016648 -427.989105 
L 532.409218 -427.989105 
L 530.801789 -427.989105 
L 529.19436 -427.989105 
L 527.58693 -427.989105 
L 525.979501 -427.989105 
L 524.372071 -427.989105 
L 522.764642 -427.989105 
L 521.157213 -427.989105 
L 519.549783 -427.989105 
L 517.942354 -427.989105 
L 516.334925 -427.989105 
L 514.727495 -427.989105 
L 513.120066 -427.989105 
L 511.512637 -427.989105 
L 509.905207 -427.989105 
L 508.297778 -427.989105 
L 506.690349 -427.989105 
L 505.082919 -427.989105 
L 503.47549 -427.989105 
L 501.86806 -427.989105 
L 500.260631 -427.989105 
L 498.653202 -427.989105 
L 497.045772 -427.989105 
L 495.438343 -427.989105 
L 493.830914 -427.989105 
L 492.223484 -427.989105 
L 490.616055 -427.989105 
L 489.008626 -427.989105 
L 487.401196 -427.989105 
L 485.793767 -427.989105 
L 484.186337 -427.989105 
L 482.578908 -427.989105 
L 480.971479 -427.989105 
L 479.364049 -427.989105 
L 477.75662 -427.989105 
L 476.149191 -427.989105 
L 474.541761 -427.989105 
L 472.934332 -427.989105 
L 471.326903 -427.989105 
L 469.719473 -427.989105 
L 468.112044 -427.989105 
L 466.504614 -427.989105 
L 464.897185 -427.989105 
L 463.289756 -427.989105 
L 461.682326 -427.989105 
L 460.074897 -427.989105 
L 458.467468 -427.989105 
L 456.860038 -427.989105 
L 455.252609 -427.989105 
L 453.64518 -427.989105 
L 452.03775 -427.989105 
L 450.430321 -427.989105 
L 448.822891 -427.989105 
L 447.215462 -427.989105 
L 445.608033 -427.989105 
L 444.000603 -427.989105 
L 442.393174 -427.989105 
L 440.785745 -427.989105 
L 439.178315 -427.989105 
L 437.570886 -427.989105 
L 435.963457 -427.989105 
L 434.356027 -427.989105 
L 432.748598 -427.989105 
L 431.141168 -427.989105 
L 429.533739 -427.989105 
L 427.92631 -427.989105 
L 426.31888 -427.989105 
L 424.711451 -427.989105 
L 423.104022 -427.989105 
L 421.496592 -427.989105 
L 419.889163 -427.989105 
L 418.281734 -427.989105 
L 416.674304 -427.989105 
L 415.066875 -427.989105 
L 413.459445 -427.989105 
L 411.852016 -427.989105 
L 410.244587 -427.989105 
L 408.637157 -427.989105 
L 407.029728 -427.989105 
L 405.422299 -427.989105 
L 403.814869 -427.989105 
L 402.20744 -427.989105 
L 400.600011 -427.989105 
L 398.992581 -427.989105 
L 397.385152 -427.989105 
L 395.777722 -427.989105 
L 394.170293 -426.162369 
L 392.562864 -424.335633 
L 390.955434 -422.508896 
L 389.348005 -420.68216 
L 387.740576 -418.855424 
L 386.133146 -417.028688 
L 384.525717 -415.201951 
L 382.918288 -413.375215 
L 381.310858 -411.548479 
L 379.703429 -409.721743 
L 378.096 -407.895006 
L 376.48857 -406.06827 
L 374.881141 -404.241534 
L 373.273711 -402.414798 
L 371.666282 -400.588062 
L 370.058853 -398.761325 
L 368.451423 -396.934589 
L 366.843994 -395.107853 
L 365.236565 -393.281117 
L 363.629135 -391.45438 
L 362.021706 -389.627644 
L 360.414277 -387.800908 
L 358.806847 -385.974172 
L 357.199418 -384.147435 
L 355.591988 -382.320699 
L 353.984559 -380.493963 
L 352.37713 -378.667227 
L 350.7697 -376.840491 
L 349.162271 -375.013754 
L 347.554842 -373.187018 
L 345.947412 -371.360282 
L 344.339983 -369.533546 
L 342.732554 -367.706809 
L 341.125124 -365.880073 
L 339.517695 -364.053337 
L 337.910265 -362.226601 
L 336.302836 -360.399865 
L 334.695407 -358.573128 
L 333.087977 -356.746392 
L 331.480548 -354.919656 
L 329.873119 -353.09292 
L 328.265689 -351.266183 
L 326.65826 -349.439447 
L 325.050831 -347.612711 
L 323.443401 -345.785975 
L 321.835972 -343.959238 
L 320.228542 -342.132502 
L 318.621113 -340.305766 
L 317.013684 -338.47903 
L 315.406254 -336.652294 
L 313.798825 -334.825557 
L 312.191396 -332.998821 
L 310.583966 -331.172085 
L 308.976537 -329.345349 
L 307.369108 -327.518612 
L 305.761678 -325.691876 
L 304.154249 -323.86514 
L 302.546819 -322.038404 
L 300.93939 -320.211667 
L 299.331961 -318.384931 
L 297.724531 -316.558195 
L 296.117102 -314.731459 
L 294.509673 -312.904723 
L 292.902243 -311.077986 
L 291.294814 -309.25125 
L 289.687385 -307.424514 
L 288.079955 -305.597778 
L 286.472526 -303.771041 
L 284.865096 -301.944305 
L 283.257667 -300.117569 
L 281.650238 -298.290833 
L 280.042808 -296.464096 
L 278.435379 -294.63736 
L 276.82795 -292.810624 
L 275.22052 -290.983888 
L 273.613091 -289.157152 
L 272.005662 -287.330415 
L 270.398232 -285.503679 
L 268.790803 -283.676943 
L 267.183373 -281.850207 
L 265.575944 -280.02347 
L 263.968515 -278.196734 
L 262.361085 -276.369998 
L 260.753656 -274.543262 
L 259.146227 -272.716525 
L 257.538797 -270.889789 
L 255.931368 -269.063053 
L 254.323939 -267.236317 
L 252.716509 -265.409581 
L 251.10908 -263.582844 
L 249.501651 -261.756108 
L 247.894221 -259.929372 
L 246.286792 -258.102636 
L 244.679362 -256.275899 
L 243.071933 -254.449163 
L 241.464504 -252.622427 
L 239.857074 -250.795691 
L 238.249645 -248.968954 
L 236.642216 -247.142218 
L 235.034786 -245.315482 
L 233.427357 -245.315482 
L 231.819928 -245.315482 
L 230.212498 -245.315482 
L 228.605069 -245.315482 
L 226.997639 -245.315482 
L 225.39021 -245.315482 
L 223.782781 -245.315482 
L 222.175351 -245.315482 
L 220.567922 -245.315482 
L 218.960493 -245.315482 
L 217.353063 -245.315482 
L 215.745634 -245.315482 
L 214.138205 -245.315482 
L 212.530775 -245.315482 
L 210.923346 -245.315482 
L 209.315916 -245.315482 
L 207.708487 -245.315482 
L 206.101058 -245.315482 
L 204.493628 -245.315482 
L 202.886199 -245.315482 
L 201.27877 -245.315482 
L 199.67134 -245.315482 
L 198.063911 -245.315482 
L 196.456482 -245.315482 
L 194.849052 -245.315482 
L 193.241623 -245.315482 
L 191.634193 -245.315482 
L 190.026764 -245.315482 
L 188.419335 -245.315482 
L 186.811905 -245.315482 
L 185.204476 -245.315482 
L 183.597047 -245.315482 
L 181.989617 -245.315482 
L 180.382188 -245.315482 
L 178.774759 -245.315482 
L 177.167329 -245.315482 
L 175.5599 -245.315482 
L 173.95247 -245.315482 
L 172.345041 -245.315482 
L 170.737612 -245.315482 
L 169.130182 -245.315482 
L 167.522753 -245.315482 
L 165.915324 -245.315482 
L 164.307894 -245.315482 
L 162.700465 -245.315482 
L 161.093036 -245.315482 
L 159.485606 -245.315482 
L 157.878177 -245.315482 
L 156.270747 -245.315482 
L 154.663318 -245.315482 
L 153.055889 -241.66201 
L 151.448459 -238.008537 
L 149.84103 -234.355065 
L 148.233601 -230.701592 
L 146.626171 -227.04812 
L 145.018742 -223.394647 
L 143.411313 -219.741175 
L 141.803883 -216.087702 
L 140.196454 -212.43423 
L 138.589024 -208.780757 
L 136.981595 -205.127285 
L 135.374166 -201.473813 
L 133.766736 -197.82034 
L 132.159307 -194.166868 
L 130.551878 -190.513395 
L 128.944448 -186.859923 
L 127.337019 -183.20645 
L 125.72959 -179.552978 
L 124.12216 -175.899505 
L 122.514731 -172.246033 
L 120.907302 -168.59256 
L 119.299872 -164.939088 
L 117.692443 -161.285615 
L 116.085013 -157.632143 
L 114.477584 -153.978671 
L 112.870155 -150.325198 
L 111.262725 -146.671726 
L 109.655296 -143.018253 
L 108.047867 -139.364781 
L 106.440437 -135.711308 
L 104.833008 -132.057836 
L 103.225579 -128.404363 
L 101.618149 -124.750891 
L 100.01072 -121.097418 
L 98.40329 -117.443946 
L 96.795861 -113.790473 
L 95.188432 -110.137001 
L 93.581002 -106.483529 
L 91.973573 -102.830056 
L 90.366144 -99.176584 
L 88.758714 -95.523111 
L 87.151285 -91.869639 
L 85.543856 -88.216166 
L 83.936426 -84.562694 
L 82.328997 -80.909221 
L 80.721567 -77.255749 
L 79.114138 -73.602276 
L 77.506709 -69.948804 
L 75.899279 -66.295332 
L 74.29185 -62.641859 
z
" style="stroke: #00a650; stroke-opacity: 0.5"/>
    </defs>
    <g clip-path="url(#p4d0000f921)">
     <use xlink:href="#m824293bc97" x="0" y="440.39952" style="fill: #00a650; fill-opacity: 0.5; stroke: #00a650; stroke-opacity: 0.5"/>
    </g>
   </g>
   <g id="matplotlib.axis_1">
    <g id="xtick_1">
     <g id="line2d_1">
      <defs>
       <path id="mbc7e661c63" d="M 0 0 
L 0 3.5 
" style="stroke: #5a5758; stroke-width: 0.8"/>
      </defs>
      <g>
       <use xlink:href="#mbc7e661c63" x="74.29185" y="389.757661" style="fill: #5a5758; stroke: #5a5758; stroke-width: 0.8"/>
      </g>
     </g>
     <g id="text_1">
      <!-- 0 -->
      <g style="fill: #5a5758" transform="translate(70.355925 407.178491) scale(0.14994 -0.14994)">
       <defs>
        <path id="CMUBright-Roman-30" d="M 333 1984 
L 333 2086 
Q 333 2291 339 2438 
Q 346 2586 371 2832 
Q 397 3078 461 3267 
Q 525 3456 621 3657 
Q 717 3859 880 4006 
Q 1043 4154 1261 4230 
Q 1446 4301 1677 4301 
Q 1856 4301 2025 4256 
Q 2195 4211 2380 4070 
Q 2566 3930 2704 3709 
Q 2842 3488 2931 3104 
Q 3021 2720 3021 2214 
Q 3021 1683 2982 1347 
Q 2944 1011 2803 685 
Q 2618 250 2307 70 
Q 1997 -109 1677 -109 
Q 1498 -109 1328 -64 
Q 1158 -19 972 121 
Q 787 262 649 483 
Q 512 704 422 1091 
Q 333 1478 333 1984 
z
M 742 2413 
Q 742 2374 745 2326 
Q 749 2278 749 2272 
L 749 2150 
Q 749 1779 758 1548 
Q 768 1318 838 1014 
Q 909 710 1037 538 
Q 1286 218 1677 218 
Q 2086 218 2330 557 
Q 2451 730 2518 1037 
Q 2586 1344 2595 1568 
Q 2605 1792 2605 2163 
L 2605 2272 
Q 2605 2278 2608 2323 
Q 2611 2368 2611 2406 
Q 2611 3302 2336 3661 
Q 2099 3981 1677 3981 
Q 1242 3981 1005 3642 
Q 742 3264 742 2413 
z
" transform="scale(0.015625)"/>
       </defs>
       <use xlink:href="#CMUBright-Roman-30"/>
      </g>
     </g>
    </g>
    <g id="xtick_2">
     <g id="line2d_2">
      <g>
       <use xlink:href="#mbc7e661c63" x="235.034786" y="389.757661" style="fill: #5a5758; stroke: #5a5758; stroke-width: 0.8"/>
      </g>
     </g>
     <g id="text_2">
      <!-- 1 -->
      <g style="fill: #5a5758" transform="translate(231.098861 407.178491) scale(0.14994 -0.14994)">
       <defs>
        <path id="CMUBright-Roman-31" d="M 672 3558 
L 672 3885 
Q 1427 3885 1862 4301 
L 1965 4301 
L 1965 320 
L 2803 320 
L 2803 0 
L 710 0 
L 710 320 
L 1549 320 
L 1549 3744 
Q 1178 3558 672 3558 
z
" transform="scale(0.015625)"/>
       </defs>
       <use xlink:href="#CMUBright-Roman-31"/>
      </g>
     </g>
    </g>
    <g id="xtick_3">
     <g id="line2d_3">
      <g>
       <use xlink:href="#mbc7e661c63" x="395.777722" y="389.757661" style="fill: #5a5758; stroke: #5a5758; stroke-width: 0.8"/>
      </g>
     </g>
     <g id="text_3">
      <!-- 2 -->
      <g style="fill: #5a5758" transform="translate(391.841797 407.178491) scale(0.14994 -0.14994)">
       <defs>
        <path id="CMUBright-Roman-32" d="M 275 3226 
Q 595 4301 1587 4301 
L 1594 4301 
Q 2214 4294 2617 3923 
Q 3021 3552 3021 2989 
Q 3021 2746 2937 2531 
Q 2854 2317 2668 2115 
Q 2483 1914 2384 1821 
Q 2285 1728 2061 1549 
Q 1754 1299 1642 1203 
Q 1530 1107 698 358 
L 3021 358 
L 3021 0 
L 333 0 
L 333 339 
L 1683 1562 
Q 2144 1965 2368 2278 
Q 2592 2592 2592 2982 
Q 2592 3418 2278 3690 
Q 1965 3962 1498 3962 
Q 1069 3962 854 3693 
Q 640 3424 512 2938 
L 275 3226 
z
" transform="scale(0.015625)"/>
       </defs>
       <use xlink:href="#CMUBright-Roman-32"/>
      </g>
     </g>
    </g>
    <g id="xtick_4">
     <g id="line2d_4">
      <g>
       <use xlink:href="#mbc7e661c63" x="717.263595" y="389.757661" style="fill: #5a5758; stroke: #5a5758; stroke-width: 0.8"/>
      </g>
     </g>
     <g id="text_4">
      <!-- 4 -->
      <g style="fill: #5a5758" transform="translate(713.32767 407.178491) scale(0.14994 -0.14994)">
       <defs>
        <path id="CMUBright-Roman-34" d="M 186 1158 
L 186 1504 
L 1952 4250 
L 2438 4250 
L 2438 1498 
L 3168 1498 
L 3168 1158 
L 2438 1158 
L 2438 0 
L 2035 0 
L 2035 1158 
L 186 1158 
z
M 602 1498 
L 2054 1498 
L 2054 3885 
Q 1971 3667 1606 3085 
L 602 1498 
z
" transform="scale(0.015625)"/>
       </defs>
       <use xlink:href="#CMUBright-Roman-34"/>
      </g>
     </g>
    </g>
    <g id="text_5">
     <!-- $r$ -->
     <g style="fill: #5a5758" transform="translate(392.627723 430.192957) scale(0.18 -0.18)">
      <defs>
       <path id="CMUBright-SemiBold-72" d="M 416 0 
L 416 3021 
L 992 3021 
L 992 2368 
Q 1370 3059 2112 3072 
L 2112 2528 
Q 1939 2528 1769 2480 
Q 1600 2432 1421 2326 
Q 1242 2221 1130 2013 
Q 1018 1805 1018 1517 
L 1018 0 
L 416 0 
z
" transform="scale(0.015625)"/>
      </defs>
      <use xlink:href="#CMUBright-SemiBold-72"/>
     </g>
    </g>
   </g>
   <g id="matplotlib.axis_2">
    <g id="ytick_1">
     <g id="line2d_5">
      <defs>
       <path id="mde5ebdfa37" d="M 0 0 
L -3.5 0 
" style="stroke: #5a5758; stroke-width: 0.8"/>
      </defs>
      <g>
       <use xlink:href="#mde5ebdfa37" x="62.29185" y="377.757661" style="fill: #5a5758; stroke: #5a5758; stroke-width: 0.8"/>
      </g>
     </g>
     <g id="text_6">
      <!-- 0 -->
      <g style="fill: #5a5758" transform="translate(47.42 382.968076) scale(0.14994 -0.14994)">
       <use xlink:href="#CMUBright-Roman-30"/>
      </g>
     </g>
    </g>
    <g id="ytick_2">
     <g id="line2d_6">
      <g>
       <use xlink:href="#mde5ebdfa37" x="62.29185" y="195.084038" style="fill: #5a5758; stroke: #5a5758; stroke-width: 0.8"/>
      </g>
     </g>
     <g id="text_7">
      <!-- 1 -->
      <g style="fill: #5a5758" transform="translate(47.42 200.294453) scale(0.14994 -0.14994)">
       <use xlink:href="#CMUBright-Roman-31"/>
      </g>
     </g>
    </g>
    <g id="ytick_3">
     <g id="line2d_7">
      <g>
       <use xlink:href="#mde5ebdfa37" x="62.29185" y="12.410415" style="fill: #5a5758; stroke: #5a5758; stroke-width: 0.8"/>
      </g>
     </g>
     <g id="text_8">
      <!-- 2 -->
      <g style="fill: #5a5758" transform="translate(47.42 17.62083) scale(0.14994 -0.14994)">
       <use xlink:href="#CMUBright-Roman-32"/>
      </g>
     </g>
    </g>
    <g id="text_9">
     <!-- $\phi(r)$ -->
     <g style="fill: #5a5758" transform="translate(7.2 190.944038) scale(0.18 -0.18)">
      <defs>
       <path id="STIXNonUnicode-Regular-e1b1" d="M 2246 4333 
L 2246 2950 
Q 2995 2944 3398 2496 
Q 3802 2048 3802 1433 
Q 3802 819 3398 374 
Q 2995 -70 2246 -77 
L 2246 -1229 
L 1792 -1382 
L 1734 -1350 
L 1734 -77 
Q 986 -70 582 374 
Q 179 819 179 1434 
Q 179 2054 582 2499 
Q 986 2944 1734 2950 
L 1734 4192 
L 2202 4378 
L 2246 4333 
z
M 2240 2496 
L 2240 378 
Q 2758 384 3027 678 
Q 3296 973 3296 1446 
Q 3296 1894 3005 2188 
Q 2714 2483 2240 2496 
z
M 1741 378 
L 1741 2496 
Q 1222 2490 953 2202 
Q 685 1914 685 1446 
Q 685 973 953 678 
Q 1222 384 1741 378 
z
" transform="scale(0.015625)"/>
       <path id="CMUBright-SemiBold-28" d="M 1747 -1421 
Q 499 -358 499 1690 
Q 499 3738 1747 4800 
L 2234 4800 
Q 2086 4653 1990 4544 
Q 1894 4435 1708 4147 
Q 1523 3859 1411 3552 
Q 1299 3245 1206 2752 
Q 1114 2259 1114 1689 
Q 1114 1120 1206 627 
Q 1299 134 1411 -173 
Q 1523 -480 1708 -768 
Q 1894 -1056 1990 -1165 
Q 2086 -1274 2234 -1421 
L 1747 -1421 
z
" transform="scale(0.015625)"/>
       <path id="CMUBright-SemiBold-29" d="M 371 -1421 
Q 525 -1267 614 -1164 
Q 704 -1062 893 -768 
Q 1082 -474 1194 -173 
Q 1306 128 1398 624 
Q 1491 1120 1491 1690 
Q 1491 2246 1404 2732 
Q 1318 3219 1206 3523 
Q 1094 3827 921 4105 
Q 749 4384 646 4502 
Q 544 4621 416 4755 
Q 384 4787 371 4800 
L 851 4800 
Q 2106 3731 2106 1689 
Q 2106 -352 851 -1421 
L 371 -1421 
z
" transform="scale(0.015625)"/>
      </defs>
      <use xlink:href="#STIXNonUnicode-Regular-e1b1"/>
      <use xlink:href="#CMUBright-SemiBold-28" transform="translate(62.199997 0)"/>
      <use xlink:href="#CMUBright-SemiBold-72" transform="translate(102.999985 0)"/>
      <use xlink:href="#CMUBright-SemiBold-29" transform="translate(137.599976 0)"/>
     </g>
    </g>
   </g>
   <g id="patch_3">
    <path d="M 62.29185 377.757661 
L 62.29185 12.410415 
" style="fill: none; stroke: #5a5758; stroke-width: 0.8; stroke-linejoin: miter; stroke-linecap: square"/>
   </g>
   <g id="patch_4">
    <path d="M 74.29185 389.757661 
L 717.263595 389.757661 
" style="fill: none; stroke: #5a5758; stroke-width: 0.8; stroke-linejoin: miter; stroke-linecap: square"/>
   </g>
   <g id="text_10">
    <!-- TVD -->
    <g style="fill: #5a5758" transform="translate(556.520659 354.479361) scale(0.3 -0.3)">
     <defs>
      <path id="CMUBright-Roman-54" d="M 237 4090 
L 237 4429 
L 4390 4429 
L 4390 4090 
L 2541 4090 
L 2541 0 
L 2093 0 
L 2093 4090 
L 237 4090 
z
" transform="scale(0.015625)"/>
      <path id="CMUBright-Roman-56" d="M 90 4448 
L 563 4448 
L 2093 646 
L 2176 416 
L 2733 1824 
L 3795 4448 
L 4218 4448 
L 2406 -32 
L 1907 -32 
L 90 4448 
z
" transform="scale(0.015625)"/>
      <path id="CMUBright-Roman-44" d="M 627 0 
L 627 4448 
L 2253 4448 
Q 2778 4448 3200 4240 
Q 3622 4032 3875 3696 
Q 4128 3360 4262 2973 
Q 4397 2586 4397 2189 
Q 4397 1312 3853 704 
Q 3309 96 2560 13 
Q 2451 0 2227 0 
L 627 0 
z
M 1069 339 
L 2144 339 
Q 2560 339 2886 460 
Q 3213 582 3411 771 
Q 3610 960 3734 1213 
Q 3859 1466 3907 1702 
Q 3955 1939 3955 2189 
Q 3955 2445 3907 2688 
Q 3859 2931 3734 3193 
Q 3610 3456 3411 3651 
Q 3213 3846 2886 3974 
Q 2560 4102 2144 4102 
L 1069 4102 
L 1069 339 
z
" transform="scale(0.015625)"/>
     </defs>
     <use xlink:href="#CMUBright-Roman-54"/>
     <use xlink:href="#CMUBright-Roman-56" x="72.499985"/>
     <use xlink:href="#CMUBright-Roman-44" x="139.999969"/>
    </g>
   </g>
   <g id="text_11">
    <!-- Second-order -->
    <g style="fill: #5a5758" transform="translate(532.378364 51.527777) scale(0.3 -0.3)">
     <defs>
      <path id="CMUBright-Roman-53" d="M 294 339 
L 371 781 
Q 1082 256 1843 256 
Q 2342 256 2643 531 
Q 2944 806 2944 1152 
Q 2944 1402 2781 1622 
Q 2618 1843 2323 1958 
Q 2176 2016 1769 2096 
Q 1363 2176 1059 2317 
Q 755 2458 557 2746 
Q 365 3014 365 3341 
Q 365 3808 781 4179 
Q 1197 4550 1882 4550 
Q 2515 4550 3110 4243 
L 3034 3802 
Q 2848 3930 2745 3990 
Q 2643 4051 2400 4124 
Q 2157 4198 1882 4198 
Q 1389 4198 1081 3958 
Q 774 3718 774 3392 
Q 774 3168 931 2973 
Q 1088 2778 1376 2669 
Q 1491 2630 1910 2534 
Q 2330 2438 2438 2394 
Q 2899 2221 3126 1885 
Q 3354 1549 3354 1197 
Q 3354 678 2925 284 
Q 2496 -109 1837 -109 
Q 1030 -109 294 339 
z
" transform="scale(0.015625)"/>
      <path id="CMUBright-Roman-65" d="M 269 1536 
Q 269 2163 646 2630 
Q 1024 3098 1587 3098 
Q 1786 3098 1968 3037 
Q 2150 2976 2342 2829 
Q 2534 2682 2652 2365 
Q 2771 2048 2771 1600 
L 653 1600 
L 653 1549 
Q 653 966 966 617 
Q 1280 269 1690 269 
Q 2234 269 2726 710 
L 2758 358 
Q 2266 -51 1690 -51 
Q 1101 -51 685 406 
Q 269 864 269 1536 
z
M 685 1856 
L 2426 1856 
Q 2381 2342 2134 2560 
Q 1888 2778 1587 2778 
Q 1261 2778 1008 2515 
Q 755 2253 685 1856 
z
" transform="scale(0.015625)"/>
      <path id="CMUBright-Roman-63" d="M 294 1517 
Q 294 2157 691 2630 
Q 1088 3104 1709 3104 
Q 2042 3104 2250 3046 
Q 2458 2989 2758 2829 
L 2694 2477 
Q 2502 2592 2403 2640 
Q 2304 2688 2125 2729 
Q 1946 2771 1709 2771 
Q 1254 2771 982 2432 
Q 710 2093 710 1523 
Q 717 915 1008 598 
Q 1299 282 1696 282 
Q 1958 282 2192 365 
Q 2426 448 2525 518 
Q 2624 589 2765 710 
L 2797 352 
Q 2304 -51 1690 -51 
Q 1107 -51 700 403 
Q 294 858 294 1517 
z
" transform="scale(0.015625)"/>
      <path id="CMUBright-Roman-6f" d="M 256 1510 
Q 256 2182 675 2640 
Q 1094 3098 1677 3098 
Q 2272 3098 2681 2627 
Q 3091 2157 3091 1510 
Q 3091 838 2668 393 
Q 2246 -51 1677 -51 
Q 1088 -51 672 406 
Q 256 864 256 1510 
z
M 666 1587 
Q 666 1190 771 915 
Q 877 640 1046 512 
Q 1216 384 1369 333 
Q 1523 282 1677 282 
Q 1843 282 2006 342 
Q 2170 403 2330 537 
Q 2490 672 2586 937 
Q 2682 1203 2682 1568 
Q 2682 1914 2586 2163 
Q 2490 2413 2330 2541 
Q 2170 2669 2006 2723 
Q 1843 2778 1676 2778 
Q 1510 2778 1347 2723 
Q 1184 2669 1024 2544 
Q 864 2419 765 2172 
Q 666 1926 666 1587 
z
" transform="scale(0.015625)"/>
      <path id="CMUBright-Roman-6e" d="M 512 0 
L 512 3021 
L 909 3021 
L 909 2400 
Q 1030 2682 1273 2877 
Q 1517 3072 1869 3072 
Q 2125 3072 2307 2992 
Q 2490 2912 2579 2809 
Q 2669 2707 2720 2540 
Q 2771 2374 2777 2272 
Q 2784 2170 2784 2016 
L 2784 0 
L 2374 0 
L 2374 1990 
Q 2374 2106 2371 2176 
Q 2368 2246 2329 2368 
Q 2291 2490 2220 2563 
Q 2150 2637 2006 2694 
Q 1862 2752 1658 2752 
Q 1370 2752 1149 2518 
Q 928 2285 928 1677 
L 928 0 
L 512 0 
z
" transform="scale(0.015625)"/>
      <path id="CMUBright-Roman-64" d="M 294 1510 
Q 294 2189 659 2630 
Q 1024 3072 1504 3072 
Q 2016 3072 2381 2624 
L 2381 4448 
L 2784 4448 
L 2784 0 
L 2374 0 
L 2374 269 
L 2368 467 
Q 2016 -51 1459 -51 
Q 966 -51 630 413 
Q 294 877 294 1510 
z
M 710 1510 
Q 710 1139 809 876 
Q 909 614 1065 492 
Q 1222 371 1369 320 
Q 1517 269 1664 269 
Q 2022 269 2259 582 
Q 2278 614 2304 652 
Q 2330 691 2339 707 
Q 2349 723 2358 752 
Q 2368 781 2371 816 
Q 2374 851 2374 902 
L 2374 2253 
Q 2374 2438 2179 2595 
Q 1984 2752 1722 2752 
Q 1619 2752 1504 2726 
Q 1389 2701 1241 2621 
Q 1094 2541 982 2413 
Q 870 2285 790 2048 
Q 710 1811 710 1510 
z
" transform="scale(0.015625)"/>
      <path id="CMUBright-Roman-2d" d="M 70 1350 
L 70 1670 
L 1862 1670 
L 1862 1350 
L 70 1350 
z
" transform="scale(0.015625)"/>
      <path id="CMUBright-Roman-72" d="M 512 0 
L 512 3021 
L 896 3021 
L 896 2534 
L 902 2234 
Q 954 2362 1043 2490 
Q 1133 2618 1273 2755 
Q 1414 2893 1632 2979 
Q 1850 3066 2112 3072 
L 2112 2714 
Q 1907 2707 1708 2643 
Q 1510 2579 1324 2444 
Q 1139 2310 1027 2070 
Q 915 1830 915 1510 
L 915 0 
L 512 0 
z
" transform="scale(0.015625)"/>
     </defs>
     <use xlink:href="#CMUBright-Roman-53"/>
     <use xlink:href="#CMUBright-Roman-65" x="58.299988"/>
     <use xlink:href="#CMUBright-Roman-63" x="104.999985"/>
     <use xlink:href="#CMUBright-Roman-6f" x="151.699982"/>
     <use xlink:href="#CMUBright-Roman-6e" x="204.199966"/>
     <use xlink:href="#CMUBright-Roman-64" x="255.899963"/>
     <use xlink:href="#CMUBright-Roman-2d" x="307.59996"/>
     <use xlink:href="#CMUBright-Roman-6f" x="342.599945"/>
     <use xlink:href="#CMUBright-Roman-72" x="395.09993"/>
     <use xlink:href="#CMUBright-Roman-64" x="429.699921"/>
     <use xlink:href="#CMUBright-Roman-65" x="481.399918"/>
     <use xlink:href="#CMUBright-Roman-72" x="528.099915"/>
    </g>
   </g>
  </g>
 </g>
 <defs>
  <clipPath id="p4d0000f921">
   <rect x="74.29185" y="12.410415" width="642.971745" height="365.347246"/>
  </clipPath>
 </defs>
</svg>