<?xml version="1.0" encoding="utf-8" standalone="no"?>
<!DOCTYPE svg PUBLIC "-//W3C//DTD SVG 1.1//EN"
  "http://www.w3.org/Graphics/SVG/1.1/DTD/svg11.dtd">
<svg xmlns:xlink="http://www.w3.org/1999/xlink" width="728.39952pt" height="1088.39952pt" viewBox="0 0 728.39952 1088.39952" xmlns="http://www.w3.org/2000/svg" version="1.1">
 <metadata>
  <rdf:RDF xmlns:dc="http://purl.org/dc/elements/1.1/" xmlns:cc="http://creativecommons.org/ns#" xmlns:rdf="http://www.w3.org/1999/02/22-rdf-syntax-ns#">
   <cc:Work>
    <dc:type rdf:resource="http://purl.org/dc/dcmitype/StillImage"/>
    <dc:date>2024-11-20T14:23:37.257146</dc:date>
    <dc:format>image/svg+xml</dc:format>
    <dc:creator>
     <cc:Agent>
      <dc:title>Matplotlib v3.9.2, https://matplotlib.org/</dc:title>
     </cc:Agent>
    </dc:creator>
   </cc:Work>
  </rdf:RDF>
 </metadata>
 <defs>
  <style type="text/css">*{stroke-linejoin: round; stroke-linecap: butt}</style>
 </defs>
 <g id="figure_1">
  <g id="patch_1">
   <path d="M 0 1088.39952 
L 728.39952 1088.39952 
L 728.39952 0 
L 0 0 
z
" style="fill: #ffffff"/>
  </g>
  <g id="axes_1">
   <g id="patch_2">
    <path d="M 63.682417 161.688811 
L 711.138312 161.688811 
L 711.138312 28.212 
L 63.682417 28.212 
z
" style="fill: #ffffff"/>
   </g>
   <g id="matplotlib.axis_1">
    <g id="xtick_1">
     <g id="line2d_1">
      <defs>
       <path id="m22cc099dab" d="M 0 0 
L 0 3.5 
" style="stroke: #5a5758; stroke-width: 0.8"/>
      </defs>
      <g>
       <use xlink:href="#m22cc099dab" x="63.682417" y="173.688811" style="fill: #5a5758; stroke: #5a5758; stroke-width: 0.8"/>
      </g>
     </g>
     <g id="text_1">
      <!-- 0.0 -->
      <g style="fill: #5a5758" transform="translate(53.621208 191.109641) scale(0.14994 -0.14994)">
       <defs>
        <path id="CMUBright-Roman-30" d="M 333 1984 
L 333 2086 
Q 333 2291 339 2438 
Q 346 2586 371 2832 
Q 397 3078 461 3267 
Q 525 3456 621 3657 
Q 717 3859 880 4006 
Q 1043 4154 1261 4230 
Q 1446 4301 1677 4301 
Q 1856 4301 2025 4256 
Q 2195 4211 2380 4070 
Q 2566 3930 2704 3709 
Q 2842 3488 2931 3104 
Q 3021 2720 3021 2214 
Q 3021 1683 2982 1347 
Q 2944 1011 2803 685 
Q 2618 250 2307 70 
Q 1997 -109 1677 -109 
Q 1498 -109 1328 -64 
Q 1158 -19 972 121 
Q 787 262 649 483 
Q 512 704 422 1091 
Q 333 1478 333 1984 
z
M 742 2413 
Q 742 2374 745 2326 
Q 749 2278 749 2272 
L 749 2150 
Q 749 1779 758 1548 
Q 768 1318 838 1014 
Q 909 710 1037 538 
Q 1286 218 1677 218 
Q 2086 218 2330 557 
Q 2451 730 2518 1037 
Q 2586 1344 2595 1568 
Q 2605 1792 2605 2163 
L 2605 2272 
Q 2605 2278 2608 2323 
Q 2611 2368 2611 2406 
Q 2611 3302 2336 3661 
Q 2099 3981 1677 3981 
Q 1242 3981 1005 3642 
Q 742 3264 742 2413 
z
" transform="scale(0.015625)"/>
        <path id="CMUBright-Roman-2e" d="M 678 0 
L 678 499 
L 1178 499 
L 1178 0 
L 678 0 
z
" transform="scale(0.015625)"/>
       </defs>
       <use xlink:href="#CMUBright-Roman-30"/>
       <use xlink:href="#CMUBright-Roman-2e" x="52.499985"/>
       <use xlink:href="#CMUBright-Roman-30" x="81.699982"/>
      </g>
     </g>
    </g>
    <g id="xtick_2">
     <g id="line2d_2">
      <g>
       <use xlink:href="#m22cc099dab" x="193.173596" y="173.688811" style="fill: #5a5758; stroke: #5a5758; stroke-width: 0.8"/>
      </g>
     </g>
     <g id="text_2">
      <!-- 0.2 -->
      <g style="fill: #5a5758" transform="translate(183.112387 191.109641) scale(0.14994 -0.14994)">
       <defs>
        <path id="CMUBright-Roman-32" d="M 275 3226 
Q 595 4301 1587 4301 
L 1594 4301 
Q 2214 4294 2617 3923 
Q 3021 3552 3021 2989 
Q 3021 2746 2937 2531 
Q 2854 2317 2668 2115 
Q 2483 1914 2384 1821 
Q 2285 1728 2061 1549 
Q 1754 1299 1642 1203 
Q 1530 1107 698 358 
L 3021 358 
L 3021 0 
L 333 0 
L 333 339 
L 1683 1562 
Q 2144 1965 2368 2278 
Q 2592 2592 2592 2982 
Q 2592 3418 2278 3690 
Q 1965 3962 1498 3962 
Q 1069 3962 854 3693 
Q 640 3424 512 2938 
L 275 3226 
z
" transform="scale(0.015625)"/>
       </defs>
       <use xlink:href="#CMUBright-Roman-30"/>
       <use xlink:href="#CMUBright-Roman-2e" x="52.499985"/>
       <use xlink:href="#CMUBright-Roman-32" x="81.699982"/>
      </g>
     </g>
    </g>
    <g id="xtick_3">
     <g id="line2d_3">
      <g>
       <use xlink:href="#m22cc099dab" x="322.664775" y="173.688811" style="fill: #5a5758; stroke: #5a5758; stroke-width: 0.8"/>
      </g>
     </g>
     <g id="text_3">
      <!-- 0.4 -->
      <g style="fill: #5a5758" transform="translate(312.603566 191.109641) scale(0.14994 -0.14994)">
       <defs>
        <path id="CMUBright-Roman-34" d="M 186 1158 
L 186 1504 
L 1952 4250 
L 2438 4250 
L 2438 1498 
L 3168 1498 
L 3168 1158 
L 2438 1158 
L 2438 0 
L 2035 0 
L 2035 1158 
L 186 1158 
z
M 602 1498 
L 2054 1498 
L 2054 3885 
Q 1971 3667 1606 3085 
L 602 1498 
z
" transform="scale(0.015625)"/>
       </defs>
       <use xlink:href="#CMUBright-Roman-30"/>
       <use xlink:href="#CMUBright-Roman-2e" x="52.499985"/>
       <use xlink:href="#CMUBright-Roman-34" x="81.699982"/>
      </g>
     </g>
    </g>
    <g id="xtick_4">
     <g id="line2d_4">
      <g>
       <use xlink:href="#m22cc099dab" x="452.155954" y="173.688811" style="fill: #5a5758; stroke: #5a5758; stroke-width: 0.8"/>
      </g>
     </g>
     <g id="text_4">
      <!-- 0.6 -->
      <g style="fill: #5a5758" transform="translate(442.094745 191.109641) scale(0.14994 -0.14994)">
       <defs>
        <path id="CMUBright-Roman-36" d="M 346 2061 
Q 346 3072 864 3686 
Q 1382 4301 2074 4301 
L 2086 4301 
Q 2426 4301 2797 4179 
L 2797 3846 
Q 2374 3981 2074 3981 
L 2061 3981 
Q 1478 3981 1123 3491 
Q 768 3002 768 2208 
Q 768 2195 771 2166 
Q 774 2138 774 2125 
Q 928 2445 1238 2665 
Q 1549 2886 1952 2886 
Q 2387 2886 2682 2483 
Q 3008 2029 3008 1408 
Q 3008 768 2618 326 
Q 2240 -109 1690 -109 
Q 1510 -109 1340 -57 
Q 1171 -6 985 141 
Q 800 288 662 521 
Q 525 755 435 1152 
Q 346 1549 346 2061 
z
M 794 1389 
Q 813 1171 854 1004 
Q 896 838 985 643 
Q 1075 448 1254 336 
Q 1434 224 1690 224 
Q 2138 224 2381 550 
Q 2515 736 2550 921 
Q 2586 1107 2586 1434 
Q 2586 1645 2573 1776 
Q 2560 1907 2480 2089 
Q 2400 2272 2253 2400 
Q 2054 2566 1728 2566 
Q 1325 2566 1062 2265 
Q 800 1965 800 1555 
Q 800 1440 806 1389 
L 794 1389 
z
" transform="scale(0.015625)"/>
       </defs>
       <use xlink:href="#CMUBright-Roman-30"/>
       <use xlink:href="#CMUBright-Roman-2e" x="52.499985"/>
       <use xlink:href="#CMUBright-Roman-36" x="81.699982"/>
      </g>
     </g>
    </g>
    <g id="xtick_5">
     <g id="line2d_5">
      <g>
       <use xlink:href="#m22cc099dab" x="581.647133" y="173.688811" style="fill: #5a5758; stroke: #5a5758; stroke-width: 0.8"/>
      </g>
     </g>
     <g id="text_5">
      <!-- 0.8 -->
      <g style="fill: #5a5758" transform="translate(571.585924 191.109641) scale(0.14994 -0.14994)">
       <defs>
        <path id="CMUBright-Roman-38" d="M 275 1158 
Q 275 1517 518 1817 
Q 762 2118 1248 2266 
Q 909 2349 640 2598 
Q 371 2848 371 3206 
Q 371 3642 745 3971 
Q 1120 4301 1677 4301 
Q 2221 4301 2601 3981 
Q 2982 3661 2982 3213 
Q 2982 2918 2787 2684 
Q 2592 2451 2285 2323 
L 2099 2266 
Q 2464 2176 2768 1885 
Q 3072 1594 3072 1158 
Q 3072 646 2665 268 
Q 2259 -109 1670 -109 
Q 1075 -109 675 275 
Q 275 659 275 1158 
z
M 698 1158 
Q 698 704 970 464 
Q 1242 224 1670 224 
Q 2118 224 2384 470 
Q 2650 717 2650 1165 
Q 2650 1619 2371 1862 
Q 2093 2106 1670 2106 
Q 1280 2106 989 1878 
Q 698 1651 698 1158 
z
M 755 3206 
Q 755 2886 982 2656 
Q 1210 2426 1670 2426 
Q 2093 2426 2342 2634 
Q 2592 2842 2592 3206 
Q 2592 3507 2387 3744 
Q 2182 3981 1683 3981 
Q 1171 3981 963 3744 
Q 755 3507 755 3206 
z
" transform="scale(0.015625)"/>
       </defs>
       <use xlink:href="#CMUBright-Roman-30"/>
       <use xlink:href="#CMUBright-Roman-2e" x="52.499985"/>
       <use xlink:href="#CMUBright-Roman-38" x="81.699982"/>
      </g>
     </g>
    </g>
    <g id="xtick_6">
     <g id="line2d_6">
      <g>
       <use xlink:href="#m22cc099dab" x="711.138312" y="173.688811" style="fill: #5a5758; stroke: #5a5758; stroke-width: 0.8"/>
      </g>
     </g>
     <g id="text_6">
      <!-- 1.0 -->
      <g style="fill: #5a5758" transform="translate(701.077103 191.109641) scale(0.14994 -0.14994)">
       <defs>
        <path id="CMUBright-Roman-31" d="M 672 3558 
L 672 3885 
Q 1427 3885 1862 4301 
L 1965 4301 
L 1965 320 
L 2803 320 
L 2803 0 
L 710 0 
L 710 320 
L 1549 320 
L 1549 3744 
Q 1178 3558 672 3558 
z
" transform="scale(0.015625)"/>
       </defs>
       <use xlink:href="#CMUBright-Roman-31"/>
       <use xlink:href="#CMUBright-Roman-2e" x="52.499985"/>
       <use xlink:href="#CMUBright-Roman-30" x="81.699982"/>
      </g>
     </g>
    </g>
    <g id="text_7">
     <!-- $x$ -->
     <g style="fill: #5a5758" transform="translate(383.270364 214.124108) scale(0.18 -0.18)">
      <defs>
       <path id="CMUBright-SemiBold-78" d="M 0 0 
L 1184 1562 
L 1184 1568 
L 38 3021 
L 698 3021 
L 1446 2022 
L 2163 3021 
L 2816 3021 
L 1709 1568 
L 1709 1562 
L 2931 0 
L 2272 0 
L 1446 1197 
L 1440 1197 
L 653 0 
L 0 0 
z
" transform="scale(0.015625)"/>
      </defs>
      <use xlink:href="#CMUBright-SemiBold-78" transform="translate(0 0.796875)"/>
     </g>
    </g>
   </g>
   <g id="matplotlib.axis_2">
    <g id="ytick_1">
     <g id="line2d_7">
      <defs>
       <path id="m16b08dbb5f" d="M 0 0 
L -3.5 0 
" style="stroke: #5a5758; stroke-width: 0.8"/>
      </defs>
      <g>
       <use xlink:href="#m16b08dbb5f" x="51.682417" y="150.565743" style="fill: #5a5758; stroke: #5a5758; stroke-width: 0.8"/>
      </g>
     </g>
     <g id="text_8">
      <!-- 0.0 -->
      <g style="fill: #5a5758" transform="translate(24.56 155.776158) scale(0.14994 -0.14994)">
       <use xlink:href="#CMUBright-Roman-30"/>
       <use xlink:href="#CMUBright-Roman-2e" x="52.499985"/>
       <use xlink:href="#CMUBright-Roman-30" x="81.699982"/>
      </g>
     </g>
    </g>
    <g id="ytick_2">
     <g id="line2d_8">
      <g>
       <use xlink:href="#m16b08dbb5f" x="51.682417" y="94.950405" style="fill: #5a5758; stroke: #5a5758; stroke-width: 0.8"/>
      </g>
     </g>
     <g id="text_9">
      <!-- 0.5 -->
      <g style="fill: #5a5758" transform="translate(24.56 100.16082) scale(0.14994 -0.14994)">
       <defs>
        <path id="CMUBright-Roman-35" d="M 301 518 
L 486 819 
Q 896 224 1581 224 
Q 1971 224 2268 473 
Q 2566 723 2566 1312 
Q 2566 1626 2489 1846 
Q 2413 2067 2285 2176 
Q 2157 2285 2032 2329 
Q 1907 2374 1773 2374 
Q 1210 2374 941 1901 
L 582 1901 
L 582 4192 
L 2797 4192 
L 2797 3853 
L 973 3853 
L 973 2381 
Q 1325 2701 1779 2701 
Q 2285 2701 2653 2291 
Q 3021 1882 3021 1306 
Q 3021 723 2601 307 
Q 2182 -109 1574 -109 
Q 813 -109 301 518 
z
" transform="scale(0.015625)"/>
       </defs>
       <use xlink:href="#CMUBright-Roman-30"/>
       <use xlink:href="#CMUBright-Roman-2e" x="52.499985"/>
       <use xlink:href="#CMUBright-Roman-35" x="81.699982"/>
      </g>
     </g>
    </g>
    <g id="ytick_3">
     <g id="line2d_9">
      <g>
       <use xlink:href="#m16b08dbb5f" x="51.682417" y="39.335068" style="fill: #5a5758; stroke: #5a5758; stroke-width: 0.8"/>
      </g>
     </g>
     <g id="text_10">
      <!-- 1.0 -->
      <g style="fill: #5a5758" transform="translate(24.56 44.545483) scale(0.14994 -0.14994)">
       <use xlink:href="#CMUBright-Roman-31"/>
       <use xlink:href="#CMUBright-Roman-2e" x="52.499985"/>
       <use xlink:href="#CMUBright-Roman-30" x="81.699982"/>
      </g>
     </g>
    </g>
    <g id="text_11">
     <!-- $u$ -->
     <g style="fill: #5a5758" transform="translate(7.2 91.943843) scale(0.18 -0.18)">
      <defs>
       <path id="CMUBright-SemiBold-75" d="M 410 838 
L 410 3021 
L 1024 3021 
L 1024 883 
Q 1030 570 1069 506 
Q 1139 403 1510 403 
Q 1888 403 2064 601 
Q 2240 800 2266 998 
Q 2272 1062 2272 1197 
L 2272 3021 
L 2886 3021 
L 2886 0 
L 2285 0 
L 2285 480 
Q 1830 -51 1088 -51 
Q 858 -51 710 29 
Q 563 109 502 262 
Q 442 416 426 537 
Q 410 659 410 838 
z
" transform="scale(0.015625)"/>
      </defs>
      <use xlink:href="#CMUBright-SemiBold-75" transform="translate(0 0.796875)"/>
     </g>
    </g>
   </g>
   <g id="line2d_10">
    <path d="M 63.682417 150.565743 
L 69.077882 150.565743 
L 74.473348 150.565743 
L 79.868814 150.565743 
L 85.26428 150.565743 
L 90.659746 150.565743 
L 96.055211 39.335068 
L 101.450677 39.335068 
L 106.846143 39.335068 
L 112.241609 39.335068 
L 117.637074 39.335068 
L 123.03254 39.335068 
L 128.428006 39.335068 
L 133.823472 39.335068 
L 139.218938 39.335068 
L 144.614403 39.335068 
L 150.009869 39.335068 
L 155.405335 39.335068 
L 160.800801 39.335068 
L 166.196267 39.335068 
L 171.591732 39.335068 
L 176.987198 39.335068 
L 182.382664 39.335068 
L 187.77813 39.335068 
L 193.173596 39.335068 
L 198.569061 150.565743 
L 203.964527 150.565743 
L 209.359993 150.565743 
L 214.755459 150.565743 
L 220.150925 150.565743 
L 225.54639 150.565743 
L 230.941856 150.565743 
L 236.337322 150.565743 
L 241.732788 150.565743 
L 247.128254 150.565743 
L 252.523719 150.565743 
L 257.919185 150.565743 
L 263.314651 147.211728 
L 268.710117 137.554226 
L 274.105582 122.758074 
L 279.501048 104.607908 
L 284.896514 85.292903 
L 290.29198 67.142737 
L 295.687446 52.346585 
L 301.082911 42.689083 
L 306.478377 39.335068 
L 311.873843 42.689083 
L 317.269309 52.346585 
L 322.664775 67.142737 
L 328.06024 85.292903 
L 333.455706 104.607908 
L 338.851172 122.758074 
L 344.246638 137.554226 
L 349.642104 147.211728 
L 355.037569 150.565743 
L 360.433035 150.565743 
L 365.828501 150.565743 
L 371.223967 150.565743 
L 376.619433 150.565743 
L 382.014898 150.565743 
L 387.410364 150.565743 
L 392.80583 150.565743 
L 398.201296 150.565743 
L 403.596762 150.565743 
L 408.992227 150.565743 
L 414.387693 150.565743 
L 419.783159 150.565743 
L 425.178625 138.206779 
L 430.57409 125.847815 
L 435.969556 113.488851 
L 441.365022 101.129887 
L 446.760488 88.770923 
L 452.155954 76.41196 
L 457.551419 64.052996 
L 462.946885 51.694032 
L 468.342351 39.335068 
L 473.737817 51.694032 
L 479.133283 64.052996 
L 484.528748 76.41196 
L 489.924214 88.770923 
L 495.31968 101.129887 
L 500.715146 113.488851 
L 506.110612 125.847815 
L 511.506077 138.206779 
L 516.901543 150.565743 
L 522.297009 150.565743 
L 527.692475 150.565743 
L 533.087941 150.565743 
L 538.483406 150.565743 
L 543.878872 150.565743 
L 549.274338 150.565743 
L 554.669804 150.565743 
L 560.06527 150.565743 
L 565.460735 150.565743 
L 570.856201 150.565743 
L 576.251667 150.565743 
L 581.647133 150.565743 
L 587.042598 99.608429 
L 592.438064 80.652885 
L 597.83353 67.659293 
L 603.228996 58.079726 
L 608.624462 50.92459 
L 614.019927 45.696457 
L 619.415393 42.116275 
L 624.810859 40.023809 
L 630.206325 39.335068 
L 635.601791 40.023809 
L 640.997256 42.116275 
L 646.392722 45.696457 
L 651.788188 50.92459 
L 657.183654 58.079726 
L 662.57912 67.659293 
L 667.974585 80.652885 
L 673.370051 99.608429 
L 678.765517 150.565743 
L 684.160983 150.565743 
L 689.556449 150.565743 
L 694.951914 150.565743 
L 700.34738 150.565743 
L 705.742846 150.565743 
L 711.138312 150.565743 
" style="fill: none; stroke: #5a5758; stroke-opacity: 0.7; stroke-width: 2; stroke-linecap: square"/>
   </g>
   <g id="line2d_11">
    <path d="M 63.682417 106.934975 
L 69.077882 105.383287 
L 74.473348 103.108162 
L 79.868814 100.188127 
L 85.26428 96.729722 
L 90.659746 92.862029 
L 96.055211 88.730362 
L 101.450677 84.489536 
L 106.846143 80.297129 
L 112.241609 76.307108 
L 117.637074 72.664094 
L 123.03254 69.498485 
L 128.428006 66.922512 
L 133.823472 65.02725 
L 139.218938 63.880501 
L 144.614403 63.525445 
L 150.009869 63.979957 
L 155.405335 65.236465 
L 160.800801 67.262336 
L 166.196267 70.000755 
L 171.591732 73.372158 
L 176.987198 77.276301 
L 182.382664 81.595021 
L 187.77813 86.195756 
L 193.173596 90.935827 
L 198.569061 95.667395 
L 203.964527 100.242981 
L 209.359993 104.521305 
L 214.755459 108.373198 
L 220.150925 111.68726 
L 225.54639 114.374969 
L 230.941856 116.37492 
L 236.337322 117.655943 
L 241.732788 118.218876 
L 247.128254 118.096831 
L 252.523719 117.353905 
L 257.919185 116.082296 
L 263.314651 114.397939 
L 268.710117 112.434814 
L 274.105582 110.338193 
L 279.501048 108.257148 
L 284.896514 106.33675 
L 290.29198 104.710393 
L 295.687446 103.49273 
L 301.082911 102.773672 
L 306.478377 102.61384 
L 311.873843 103.041788 
L 317.269309 104.053138 
L 322.664775 105.611674 
L 328.06024 107.652241 
L 333.455706 110.085192 
L 338.851172 112.801995 
L 344.246638 115.681568 
L 349.642104 118.596862 
L 355.037569 121.421292 
L 360.433035 124.03463 
L 365.828501 126.328122 
L 371.223967 128.208666 
L 376.619433 129.602005 
L 382.014898 130.454969 
L 387.410364 130.736845 
L 392.80583 130.439985 
L 398.201296 129.579722 
L 403.596762 128.193685 
L 408.992227 126.340493 
L 414.387693 124.09783 
L 419.783159 121.559842 
L 425.178625 118.833838 
L 430.57409 116.036258 
L 435.969556 113.287989 
L 441.365022 110.709134 
L 446.760488 108.413465 
L 452.155954 106.502822 
L 457.551419 105.06181 
L 462.946885 104.153151 
L 468.342351 103.814026 
L 473.737817 104.053695 
L 479.133283 104.852595 
L 484.528748 106.162997 
L 489.924214 107.911195 
L 495.31968 110.001071 
L 500.715146 112.318796 
L 506.110612 114.738367 
L 511.506077 117.127618 
L 516.901543 119.354378 
L 522.297009 121.292464 
L 527.692475 122.827235 
L 533.087941 123.860507 
L 538.483406 124.314686 
L 543.878872 124.136011 
L 549.274338 123.296851 
L 554.669804 121.79702 
L 560.06527 119.664077 
L 565.460735 116.952608 
L 570.856201 113.742479 
L 576.251667 110.136065 
L 581.647133 106.254515 
L 587.042598 102.233113 
L 592.438064 98.21588 
L 597.83353 94.34958 
L 603.228996 90.777383 
L 608.624462 87.632435 
L 614.019927 85.031651 
L 619.415393 83.070035 
L 624.810859 81.815831 
L 630.206325 81.306782 
L 635.601791 81.547715 
L 640.997256 82.509627 
L 646.392722 84.13037 
L 651.788188 86.316944 
L 657.183654 88.94934 
L 662.57912 91.885778 
L 667.974585 94.969127 
L 673.370051 98.03419 
L 678.765517 100.915519 
L 684.160983 103.45534 
L 689.556449 105.511188 
L 694.951914 106.962818 
L 700.34738 107.718015 
L 705.742846 107.716971 
L 711.138312 106.934975 
" style="fill: none; stroke: #e29400; stroke-width: 2; stroke-linecap: square"/>
   </g>
   <g id="patch_3">
    <path d="M 51.682417 161.688811 
L 51.682417 28.212 
" style="fill: none; stroke: #5a5758; stroke-width: 0.8; stroke-linejoin: miter; stroke-linecap: square"/>
   </g>
   <g id="patch_4">
    <path d="M 63.682417 173.688811 
L 711.138312 173.688811 
" style="fill: none; stroke: #5a5758; stroke-width: 0.8; stroke-linejoin: miter; stroke-linecap: square"/>
   </g>
   <g id="text_12">
    <!-- Upwind -->
    <g style="fill: #5a5758" transform="translate(353.280677 22.212) scale(0.216 -0.216)">
     <defs>
      <path id="CMUBright-Roman-55" d="M 627 1581 
L 627 4448 
L 1075 4448 
L 1075 1549 
Q 1075 717 1594 397 
Q 1862 230 2221 230 
Q 2400 230 2569 278 
Q 2739 326 2937 454 
Q 3136 582 3257 860 
Q 3379 1139 3379 1536 
L 3379 4448 
L 3795 4448 
L 3795 1549 
Q 3795 774 3312 332 
Q 2829 -109 2221 -109 
Q 1632 -109 1184 275 
Q 736 659 646 1242 
Q 627 1357 627 1581 
z
" transform="scale(0.015625)"/>
      <path id="CMUBright-Roman-70" d="M 512 -1069 
L 512 3021 
L 915 3021 
L 915 2586 
Q 1318 3072 1888 3072 
Q 2355 3072 2678 2621 
Q 3002 2170 3002 1523 
Q 3002 826 2621 387 
Q 2240 -51 1754 -51 
Q 1530 -51 1328 61 
Q 1126 173 1075 237 
Q 1024 301 928 422 
L 928 -1069 
L 512 -1069 
z
M 928 832 
Q 928 634 1110 451 
Q 1293 269 1555 269 
Q 1971 269 2281 630 
Q 2592 992 2592 1517 
Q 2592 2022 2304 2384 
Q 2016 2746 1619 2746 
Q 1286 2746 1056 2490 
Q 960 2368 944 2333 
Q 928 2298 928 2189 
L 928 832 
z
" transform="scale(0.015625)"/>
      <path id="CMUBright-Roman-77" d="M 90 3021 
L 493 3021 
Q 1126 941 1254 416 
Q 1274 557 1517 1370 
L 2016 3021 
L 2387 3021 
Q 3066 762 3162 416 
L 3264 794 
L 3936 3021 
L 4326 3021 
L 3398 -19 
L 2938 -19 
L 2458 1574 
Q 2202 2509 2182 2611 
Q 2131 2246 1434 -19 
L 1018 -19 
L 90 3021 
z
" transform="scale(0.015625)"/>
      <path id="CMUBright-Roman-69" d="M 509 4019 
L 509 4422 
L 912 4422 
L 912 4019 
L 509 4019 
z
M 512 0 
L 512 3021 
L 915 3021 
L 915 0 
L 512 0 
z
" transform="scale(0.015625)"/>
      <path id="CMUBright-Roman-6e" d="M 512 0 
L 512 3021 
L 909 3021 
L 909 2400 
Q 1030 2682 1273 2877 
Q 1517 3072 1869 3072 
Q 2125 3072 2307 2992 
Q 2490 2912 2579 2809 
Q 2669 2707 2720 2540 
Q 2771 2374 2777 2272 
Q 2784 2170 2784 2016 
L 2784 0 
L 2374 0 
L 2374 1990 
Q 2374 2106 2371 2176 
Q 2368 2246 2329 2368 
Q 2291 2490 2220 2563 
Q 2150 2637 2006 2694 
Q 1862 2752 1658 2752 
Q 1370 2752 1149 2518 
Q 928 2285 928 1677 
L 928 0 
L 512 0 
z
" transform="scale(0.015625)"/>
      <path id="CMUBright-Roman-64" d="M 294 1510 
Q 294 2189 659 2630 
Q 1024 3072 1504 3072 
Q 2016 3072 2381 2624 
L 2381 4448 
L 2784 4448 
L 2784 0 
L 2374 0 
L 2374 269 
L 2368 467 
Q 2016 -51 1459 -51 
Q 966 -51 630 413 
Q 294 877 294 1510 
z
M 710 1510 
Q 710 1139 809 876 
Q 909 614 1065 492 
Q 1222 371 1369 320 
Q 1517 269 1664 269 
Q 2022 269 2259 582 
Q 2278 614 2304 652 
Q 2330 691 2339 707 
Q 2349 723 2358 752 
Q 2368 781 2371 816 
Q 2374 851 2374 902 
L 2374 2253 
Q 2374 2438 2179 2595 
Q 1984 2752 1722 2752 
Q 1619 2752 1504 2726 
Q 1389 2701 1241 2621 
Q 1094 2541 982 2413 
Q 870 2285 790 2048 
Q 710 1811 710 1510 
z
" transform="scale(0.015625)"/>
     </defs>
     <use xlink:href="#CMUBright-Roman-55"/>
     <use xlink:href="#CMUBright-Roman-70" x="69.199982"/>
     <use xlink:href="#CMUBright-Roman-77" x="120.899979"/>
     <use xlink:href="#CMUBright-Roman-69" x="190.09996"/>
     <use xlink:href="#CMUBright-Roman-6e" x="212.599945"/>
     <use xlink:href="#CMUBright-Roman-64" x="264.299942"/>
    </g>
   </g>
  </g>
  <g id="axes_2">
   <g id="patch_5">
    <path d="M 63.682417 377.619961 
L 711.138312 377.619961 
L 711.138312 244.14315 
L 63.682417 244.14315 
z
" style="fill: #ffffff"/>
   </g>
   <g id="matplotlib.axis_3">
    <g id="xtick_7">
     <g id="line2d_12">
      <g>
       <use xlink:href="#m22cc099dab" x="63.682417" y="389.619961" style="fill: #5a5758; stroke: #5a5758; stroke-width: 0.8"/>
      </g>
     </g>
     <g id="text_13">
      <!-- 0.0 -->
      <g style="fill: #5a5758" transform="translate(53.621208 407.040791) scale(0.14994 -0.14994)">
       <use xlink:href="#CMUBright-Roman-30"/>
       <use xlink:href="#CMUBright-Roman-2e" x="52.499985"/>
       <use xlink:href="#CMUBright-Roman-30" x="81.699982"/>
      </g>
     </g>
    </g>
    <g id="xtick_8">
     <g id="line2d_13">
      <g>
       <use xlink:href="#m22cc099dab" x="193.173596" y="389.619961" style="fill: #5a5758; stroke: #5a5758; stroke-width: 0.8"/>
      </g>
     </g>
     <g id="text_14">
      <!-- 0.2 -->
      <g style="fill: #5a5758" transform="translate(183.112387 407.040791) scale(0.14994 -0.14994)">
       <use xlink:href="#CMUBright-Roman-30"/>
       <use xlink:href="#CMUBright-Roman-2e" x="52.499985"/>
       <use xlink:href="#CMUBright-Roman-32" x="81.699982"/>
      </g>
     </g>
    </g>
    <g id="xtick_9">
     <g id="line2d_14">
      <g>
       <use xlink:href="#m22cc099dab" x="322.664775" y="389.619961" style="fill: #5a5758; stroke: #5a5758; stroke-width: 0.8"/>
      </g>
     </g>
     <g id="text_15">
      <!-- 0.4 -->
      <g style="fill: #5a5758" transform="translate(312.603566 407.040791) scale(0.14994 -0.14994)">
       <use xlink:href="#CMUBright-Roman-30"/>
       <use xlink:href="#CMUBright-Roman-2e" x="52.499985"/>
       <use xlink:href="#CMUBright-Roman-34" x="81.699982"/>
      </g>
     </g>
    </g>
    <g id="xtick_10">
     <g id="line2d_15">
      <g>
       <use xlink:href="#m22cc099dab" x="452.155954" y="389.619961" style="fill: #5a5758; stroke: #5a5758; stroke-width: 0.8"/>
      </g>
     </g>
     <g id="text_16">
      <!-- 0.6 -->
      <g style="fill: #5a5758" transform="translate(442.094745 407.040791) scale(0.14994 -0.14994)">
       <use xlink:href="#CMUBright-Roman-30"/>
       <use xlink:href="#CMUBright-Roman-2e" x="52.499985"/>
       <use xlink:href="#CMUBright-Roman-36" x="81.699982"/>
      </g>
     </g>
    </g>
    <g id="xtick_11">
     <g id="line2d_16">
      <g>
       <use xlink:href="#m22cc099dab" x="581.647133" y="389.619961" style="fill: #5a5758; stroke: #5a5758; stroke-width: 0.8"/>
      </g>
     </g>
     <g id="text_17">
      <!-- 0.8 -->
      <g style="fill: #5a5758" transform="translate(571.585924 407.040791) scale(0.14994 -0.14994)">
       <use xlink:href="#CMUBright-Roman-30"/>
       <use xlink:href="#CMUBright-Roman-2e" x="52.499985"/>
       <use xlink:href="#CMUBright-Roman-38" x="81.699982"/>
      </g>
     </g>
    </g>
    <g id="xtick_12">
     <g id="line2d_17">
      <g>
       <use xlink:href="#m22cc099dab" x="711.138312" y="389.619961" style="fill: #5a5758; stroke: #5a5758; stroke-width: 0.8"/>
      </g>
     </g>
     <g id="text_18">
      <!-- 1.0 -->
      <g style="fill: #5a5758" transform="translate(701.077103 407.040791) scale(0.14994 -0.14994)">
       <use xlink:href="#CMUBright-Roman-31"/>
       <use xlink:href="#CMUBright-Roman-2e" x="52.499985"/>
       <use xlink:href="#CMUBright-Roman-30" x="81.699982"/>
      </g>
     </g>
    </g>
    <g id="text_19">
     <!-- $x$ -->
     <g style="fill: #5a5758" transform="translate(383.270364 430.055257) scale(0.18 -0.18)">
      <use xlink:href="#CMUBright-SemiBold-78" transform="translate(0 0.796875)"/>
     </g>
    </g>
   </g>
   <g id="matplotlib.axis_4">
    <g id="ytick_4">
     <g id="line2d_18">
      <g>
       <use xlink:href="#m16b08dbb5f" x="51.682417" y="366.496893" style="fill: #5a5758; stroke: #5a5758; stroke-width: 0.8"/>
      </g>
     </g>
     <g id="text_20">
      <!-- 0.0 -->
      <g style="fill: #5a5758" transform="translate(24.56 371.707308) scale(0.14994 -0.14994)">
       <use xlink:href="#CMUBright-Roman-30"/>
       <use xlink:href="#CMUBright-Roman-2e" x="52.499985"/>
       <use xlink:href="#CMUBright-Roman-30" x="81.699982"/>
      </g>
     </g>
    </g>
    <g id="ytick_5">
     <g id="line2d_19">
      <g>
       <use xlink:href="#m16b08dbb5f" x="51.682417" y="310.881555" style="fill: #5a5758; stroke: #5a5758; stroke-width: 0.8"/>
      </g>
     </g>
     <g id="text_21">
      <!-- 0.5 -->
      <g style="fill: #5a5758" transform="translate(24.56 316.09197) scale(0.14994 -0.14994)">
       <use xlink:href="#CMUBright-Roman-30"/>
       <use xlink:href="#CMUBright-Roman-2e" x="52.499985"/>
       <use xlink:href="#CMUBright-Roman-35" x="81.699982"/>
      </g>
     </g>
    </g>
    <g id="ytick_6">
     <g id="line2d_20">
      <g>
       <use xlink:href="#m16b08dbb5f" x="51.682417" y="255.266218" style="fill: #5a5758; stroke: #5a5758; stroke-width: 0.8"/>
      </g>
     </g>
     <g id="text_22">
      <!-- 1.0 -->
      <g style="fill: #5a5758" transform="translate(24.56 260.476633) scale(0.14994 -0.14994)">
       <use xlink:href="#CMUBright-Roman-31"/>
       <use xlink:href="#CMUBright-Roman-2e" x="52.499985"/>
       <use xlink:href="#CMUBright-Roman-30" x="81.699982"/>
      </g>
     </g>
    </g>
    <g id="text_23">
     <!-- $u$ -->
     <g style="fill: #5a5758" transform="translate(7.2 307.874993) scale(0.18 -0.18)">
      <use xlink:href="#CMUBright-SemiBold-75" transform="translate(0 0.796875)"/>
     </g>
    </g>
   </g>
   <g id="line2d_21">
    <path d="M 63.682417 366.496893 
L 69.077882 366.496893 
L 74.473348 366.496893 
L 79.868814 366.496893 
L 85.26428 366.496893 
L 90.659746 366.496893 
L 96.055211 255.266218 
L 101.450677 255.266218 
L 106.846143 255.266218 
L 112.241609 255.266218 
L 117.637074 255.266218 
L 123.03254 255.266218 
L 128.428006 255.266218 
L 133.823472 255.266218 
L 139.218938 255.266218 
L 144.614403 255.266218 
L 150.009869 255.266218 
L 155.405335 255.266218 
L 160.800801 255.266218 
L 166.196267 255.266218 
L 171.591732 255.266218 
L 176.987198 255.266218 
L 182.382664 255.266218 
L 187.77813 255.266218 
L 193.173596 255.266218 
L 198.569061 366.496893 
L 203.964527 366.496893 
L 209.359993 366.496893 
L 214.755459 366.496893 
L 220.150925 366.496893 
L 225.54639 366.496893 
L 230.941856 366.496893 
L 236.337322 366.496893 
L 241.732788 366.496893 
L 247.128254 366.496893 
L 252.523719 366.496893 
L 257.919185 366.496893 
L 263.314651 363.142878 
L 268.710117 353.485376 
L 274.105582 338.689224 
L 279.501048 320.539058 
L 284.896514 301.224053 
L 290.29198 283.073887 
L 295.687446 268.277735 
L 301.082911 258.620233 
L 306.478377 255.266218 
L 311.873843 258.620233 
L 317.269309 268.277735 
L 322.664775 283.073887 
L 328.06024 301.224053 
L 333.455706 320.539058 
L 338.851172 338.689224 
L 344.246638 353.485376 
L 349.642104 363.142878 
L 355.037569 366.496893 
L 360.433035 366.496893 
L 365.828501 366.496893 
L 371.223967 366.496893 
L 376.619433 366.496893 
L 382.014898 366.496893 
L 387.410364 366.496893 
L 392.80583 366.496893 
L 398.201296 366.496893 
L 403.596762 366.496893 
L 408.992227 366.496893 
L 414.387693 366.496893 
L 419.783159 366.496893 
L 425.178625 354.137929 
L 430.57409 341.778965 
L 435.969556 329.420001 
L 441.365022 317.061037 
L 446.760488 304.702073 
L 452.155954 292.34311 
L 457.551419 279.984146 
L 462.946885 267.625182 
L 468.342351 255.266218 
L 473.737817 267.625182 
L 479.133283 279.984146 
L 484.528748 292.34311 
L 489.924214 304.702073 
L 495.31968 317.061037 
L 500.715146 329.420001 
L 506.110612 341.778965 
L 511.506077 354.137929 
L 516.901543 366.496893 
L 522.297009 366.496893 
L 527.692475 366.496893 
L 533.087941 366.496893 
L 538.483406 366.496893 
L 543.878872 366.496893 
L 549.274338 366.496893 
L 554.669804 366.496893 
L 560.06527 366.496893 
L 565.460735 366.496893 
L 570.856201 366.496893 
L 576.251667 366.496893 
L 581.647133 366.496893 
L 587.042598 315.539579 
L 592.438064 296.584035 
L 597.83353 283.590443 
L 603.228996 274.010876 
L 608.624462 266.85574 
L 614.019927 261.627607 
L 619.415393 258.047425 
L 624.810859 255.954959 
L 630.206325 255.266218 
L 635.601791 255.954959 
L 640.997256 258.047425 
L 646.392722 261.627607 
L 651.788188 266.85574 
L 657.183654 274.010876 
L 662.57912 283.590443 
L 667.974585 296.584035 
L 673.370051 315.539579 
L 678.765517 366.496893 
L 684.160983 366.496893 
L 689.556449 366.496893 
L 694.951914 366.496893 
L 700.34738 366.496893 
L 705.742846 366.496893 
L 711.138312 366.496893 
" style="fill: none; stroke: #5a5758; stroke-opacity: 0.7; stroke-width: 2; stroke-linecap: square"/>
   </g>
   <g id="line2d_22">
    <path d="M 63.682417 375.976798 
L 69.077882 362.700635 
L 74.473348 345.489422 
L 79.868814 326.509912 
L 85.26428 308.375171 
L 90.659746 293.487745 
L 96.055211 283.337092 
L 101.450677 278.038277 
L 106.846143 276.316433 
L 112.241609 275.96353 
L 117.637074 274.606812 
L 123.03254 270.5139 
L 128.428006 263.158468 
L 133.823472 253.37111 
L 139.218938 243.053396 
L 144.614403 234.578516 
L 150.009869 230.09102 
L 155.405335 230.928561 
L 160.800801 237.326142 
L 166.196267 248.456645 
L 171.591732 262.750853 
L 176.987198 278.363496 
L 182.382664 293.6313 
L 187.77813 307.402178 
L 193.173596 319.178043 
L 198.569061 329.075593 
L 203.964527 337.647966 
L 209.359993 345.623079 
L 214.755459 353.615097 
L 220.150925 361.867253 
L 225.54639 370.087789 
L 230.941856 377.433093 
L 236.337322 382.660793 
L 241.732788 384.423749 
L 247.128254 381.625358 
L 252.523719 373.73396 
L 257.919185 360.971244 
L 263.314651 344.334897 
L 268.710117 325.463929 
L 274.105582 306.386147 
L 279.501048 289.198946 
L 284.896514 275.737895 
L 290.29198 267.291161 
L 295.687446 264.417747 
L 301.082911 266.911914 
L 306.478377 273.919663 
L 311.873843 284.167462 
L 317.269309 296.231013 
L 322.664775 308.770436 
L 328.06024 320.686789 
L 333.455706 331.195063 
L 338.851172 339.838377 
L 344.246638 346.475052 
L 349.642104 351.257004 
L 355.037569 354.596587 
L 360.433035 357.102841 
L 365.828501 359.46688 
L 371.223967 362.293827 
L 376.619433 365.91104 
L 382.014898 370.214385 
L 387.410364 374.623911 
L 392.80583 378.191235 
L 398.201296 379.8384 
L 403.596762 378.643439 
L 408.992227 374.062741 
L 414.387693 366.016469 
L 419.783159 354.842013 
L 425.178625 341.190446 
L 430.57409 325.953107 
L 435.969556 310.250823 
L 441.365022 295.437359 
L 446.760488 283.02395 
L 452.155954 274.461708 
L 457.551419 270.809147 
L 462.946885 272.404941 
L 468.342351 278.699317 
L 473.737817 288.346062 
L 479.133283 299.547402 
L 484.528748 310.535609 
L 489.924214 320.022917 
L 495.31968 327.475302 
L 500.715146 333.143338 
L 506.110612 337.869274 
L 511.506077 342.745397 
L 516.901543 348.716037 
L 522.297009 356.212782 
L 527.692475 364.911275 
L 533.087941 373.6974 
L 538.483406 380.903641 
L 543.878872 384.796893 
L 549.274338 384.178601 
L 554.669804 378.858323 
L 560.06527 369.761933 
L 565.460735 358.572563 
L 570.856201 347.028726 
L 576.251667 336.200767 
L 581.647133 326.11127 
L 587.042598 315.911023 
L 592.438064 304.537704 
L 597.83353 291.52044 
L 603.228996 277.499333 
L 608.624462 264.166466 
L 614.019927 253.637794 
L 619.415393 247.572248 
L 624.810859 246.495103 
L 630.206325 249.67463 
L 635.601791 255.600661 
L 640.997256 262.788841 
L 646.392722 270.469869 
L 651.788188 278.810096 
L 657.183654 288.589986 
L 662.57912 300.567866 
L 667.974585 314.901095 
L 673.370051 330.913971 
L 678.765517 347.265617 
L 684.160983 362.344198 
L 689.556449 374.634881 
L 694.951914 382.904553 
L 700.34738 386.224661 
L 705.742846 383.977519 
L 711.138312 375.976798 
" style="fill: none; stroke: #e29400; stroke-width: 2; stroke-linecap: square"/>
   </g>
   <g id="patch_6">
    <path d="M 51.682417 377.619961 
L 51.682417 244.14315 
" style="fill: none; stroke: #5a5758; stroke-width: 0.8; stroke-linejoin: miter; stroke-linecap: square"/>
   </g>
   <g id="patch_7">
    <path d="M 63.682417 389.619961 
L 711.138312 389.619961 
" style="fill: none; stroke: #5a5758; stroke-width: 0.8; stroke-linejoin: miter; stroke-linecap: square"/>
   </g>
   <g id="text_24">
    <!-- Lax-Wendroff -->
    <g style="fill: #5a5758" transform="translate(324.252302 238.14315) scale(0.216 -0.216)">
     <defs>
      <path id="CMUBright-Roman-4c" d="M 627 0 
L 627 4448 
L 1075 4448 
L 1075 339 
L 3347 339 
L 3347 0 
L 627 0 
z
" transform="scale(0.015625)"/>
      <path id="CMUBright-Roman-61" d="M 352 736 
Q 352 896 435 1046 
Q 518 1197 707 1347 
Q 896 1498 1283 1590 
Q 1670 1683 2214 1696 
L 2214 1965 
Q 2214 2381 2042 2579 
Q 1856 2803 1568 2803 
Q 1331 2803 1107 2736 
Q 883 2669 809 2624 
Q 736 2579 557 2470 
L 525 2829 
Q 1043 3104 1574 3104 
Q 2054 3104 2326 2806 
Q 2598 2509 2624 2144 
L 2630 1926 
L 2630 0 
L 2227 0 
L 2227 442 
Q 1830 -51 1107 -51 
L 1062 -51 
Q 710 -51 531 205 
Q 352 461 352 736 
z
M 749 749 
Q 749 518 950 393 
Q 1152 269 1408 269 
Q 1523 269 1644 297 
Q 1766 326 1904 390 
Q 2042 454 2128 595 
Q 2214 736 2214 928 
L 2214 1498 
Q 1568 1491 1158 1286 
Q 749 1082 749 749 
z
" transform="scale(0.015625)"/>
      <path id="CMUBright-Roman-78" d="M 0 0 
L 1261 1555 
L 1261 1562 
L 38 3021 
L 499 3021 
L 1446 1850 
L 2362 3021 
L 2816 3021 
L 1626 1555 
L 2931 0 
L 2470 0 
L 1446 1325 
L 1440 1325 
L 454 0 
L 0 0 
z
" transform="scale(0.015625)"/>
      <path id="CMUBright-Roman-2d" d="M 70 1350 
L 70 1670 
L 1862 1670 
L 1862 1350 
L 70 1350 
z
" transform="scale(0.015625)"/>
      <path id="CMUBright-Roman-57" d="M 90 4448 
L 525 4448 
L 1338 1734 
Q 1670 595 1702 416 
L 1766 691 
L 2112 1894 
L 2874 4448 
L 3322 4448 
L 4026 2131 
Q 4480 570 4512 416 
Q 4531 538 4915 1843 
L 5696 4448 
L 6086 4448 
L 4730 -32 
L 4269 -32 
L 3290 3238 
L 3110 3872 
L 3078 4032 
L 3027 3789 
L 2701 2662 
L 1894 -32 
L 1446 -32 
L 90 4448 
z
" transform="scale(0.015625)"/>
      <path id="CMUBright-Roman-65" d="M 269 1536 
Q 269 2163 646 2630 
Q 1024 3098 1587 3098 
Q 1786 3098 1968 3037 
Q 2150 2976 2342 2829 
Q 2534 2682 2652 2365 
Q 2771 2048 2771 1600 
L 653 1600 
L 653 1549 
Q 653 966 966 617 
Q 1280 269 1690 269 
Q 2234 269 2726 710 
L 2758 358 
Q 2266 -51 1690 -51 
Q 1101 -51 685 406 
Q 269 864 269 1536 
z
M 685 1856 
L 2426 1856 
Q 2381 2342 2134 2560 
Q 1888 2778 1587 2778 
Q 1261 2778 1008 2515 
Q 755 2253 685 1856 
z
" transform="scale(0.015625)"/>
      <path id="CMUBright-Roman-72" d="M 512 0 
L 512 3021 
L 896 3021 
L 896 2534 
L 902 2234 
Q 954 2362 1043 2490 
Q 1133 2618 1273 2755 
Q 1414 2893 1632 2979 
Q 1850 3066 2112 3072 
L 2112 2714 
Q 1907 2707 1708 2643 
Q 1510 2579 1324 2444 
Q 1139 2310 1027 2070 
Q 915 1830 915 1510 
L 915 0 
L 512 0 
z
" transform="scale(0.015625)"/>
      <path id="CMUBright-Roman-6f" d="M 256 1510 
Q 256 2182 675 2640 
Q 1094 3098 1677 3098 
Q 2272 3098 2681 2627 
Q 3091 2157 3091 1510 
Q 3091 838 2668 393 
Q 2246 -51 1677 -51 
Q 1088 -51 672 406 
Q 256 864 256 1510 
z
M 666 1587 
Q 666 1190 771 915 
Q 877 640 1046 512 
Q 1216 384 1369 333 
Q 1523 282 1677 282 
Q 1843 282 2006 342 
Q 2170 403 2330 537 
Q 2490 672 2586 937 
Q 2682 1203 2682 1568 
Q 2682 1914 2586 2163 
Q 2490 2413 2330 2541 
Q 2170 2669 2006 2723 
Q 1843 2778 1676 2778 
Q 1510 2778 1347 2723 
Q 1184 2669 1024 2544 
Q 864 2419 765 2172 
Q 666 1926 666 1587 
z
" transform="scale(0.015625)"/>
      <path id="CMUBright-Roman-66" d="M 179 2701 
L 179 3021 
L 723 3021 
L 723 3430 
Q 723 3597 729 3680 
Q 736 3763 819 3939 
Q 902 4115 1069 4256 
Q 1363 4499 1798 4499 
Q 2022 4499 2323 4448 
L 2323 4083 
Q 2029 4173 1779 4173 
Q 1523 4173 1321 4067 
Q 1120 3962 1120 3712 
L 1120 3021 
L 1920 3021 
L 1920 2701 
L 1133 2701 
L 1133 0 
L 723 0 
L 723 2701 
L 179 2701 
z
" transform="scale(0.015625)"/>
     </defs>
     <use xlink:href="#CMUBright-Roman-4c"/>
     <use xlink:href="#CMUBright-Roman-61" x="56.699997"/>
     <use xlink:href="#CMUBright-Roman-78" x="105.899994"/>
     <use xlink:href="#CMUBright-Roman-2d" x="151.699982"/>
     <use xlink:href="#CMUBright-Roman-57" x="186.699966"/>
     <use xlink:href="#CMUBright-Roman-65" x="283.399948"/>
     <use xlink:href="#CMUBright-Roman-6e" x="330.099945"/>
     <use xlink:href="#CMUBright-Roman-64" x="381.799942"/>
     <use xlink:href="#CMUBright-Roman-72" x="433.499939"/>
     <use xlink:href="#CMUBright-Roman-6f" x="468.09993"/>
     <use xlink:href="#CMUBright-Roman-66" x="520.599915"/>
     <use xlink:href="#CMUBright-Roman-66" x="552.699905"/>
    </g>
   </g>
  </g>
  <g id="axes_3">
   <g id="patch_8">
    <path d="M 63.682417 593.551111 
L 711.138312 593.551111 
L 711.138312 460.0743 
L 63.682417 460.0743 
z
" style="fill: #ffffff"/>
   </g>
   <g id="matplotlib.axis_5">
    <g id="xtick_13">
     <g id="line2d_23">
      <g>
       <use xlink:href="#m22cc099dab" x="63.682417" y="605.551111" style="fill: #5a5758; stroke: #5a5758; stroke-width: 0.8"/>
      </g>
     </g>
     <g id="text_25">
      <!-- 0.0 -->
      <g style="fill: #5a5758" transform="translate(53.621208 622.971941) scale(0.14994 -0.14994)">
       <use xlink:href="#CMUBright-Roman-30"/>
       <use xlink:href="#CMUBright-Roman-2e" x="52.499985"/>
       <use xlink:href="#CMUBright-Roman-30" x="81.699982"/>
      </g>
     </g>
    </g>
    <g id="xtick_14">
     <g id="line2d_24">
      <g>
       <use xlink:href="#m22cc099dab" x="193.173596" y="605.551111" style="fill: #5a5758; stroke: #5a5758; stroke-width: 0.8"/>
      </g>
     </g>
     <g id="text_26">
      <!-- 0.2 -->
      <g style="fill: #5a5758" transform="translate(183.112387 622.971941) scale(0.14994 -0.14994)">
       <use xlink:href="#CMUBright-Roman-30"/>
       <use xlink:href="#CMUBright-Roman-2e" x="52.499985"/>
       <use xlink:href="#CMUBright-Roman-32" x="81.699982"/>
      </g>
     </g>
    </g>
    <g id="xtick_15">
     <g id="line2d_25">
      <g>
       <use xlink:href="#m22cc099dab" x="322.664775" y="605.551111" style="fill: #5a5758; stroke: #5a5758; stroke-width: 0.8"/>
      </g>
     </g>
     <g id="text_27">
      <!-- 0.4 -->
      <g style="fill: #5a5758" transform="translate(312.603566 622.971941) scale(0.14994 -0.14994)">
       <use xlink:href="#CMUBright-Roman-30"/>
       <use xlink:href="#CMUBright-Roman-2e" x="52.499985"/>
       <use xlink:href="#CMUBright-Roman-34" x="81.699982"/>
      </g>
     </g>
    </g>
    <g id="xtick_16">
     <g id="line2d_26">
      <g>
       <use xlink:href="#m22cc099dab" x="452.155954" y="605.551111" style="fill: #5a5758; stroke: #5a5758; stroke-width: 0.8"/>
      </g>
     </g>
     <g id="text_28">
      <!-- 0.6 -->
      <g style="fill: #5a5758" transform="translate(442.094745 622.971941) scale(0.14994 -0.14994)">
       <use xlink:href="#CMUBright-Roman-30"/>
       <use xlink:href="#CMUBright-Roman-2e" x="52.499985"/>
       <use xlink:href="#CMUBright-Roman-36" x="81.699982"/>
      </g>
     </g>
    </g>
    <g id="xtick_17">
     <g id="line2d_27">
      <g>
       <use xlink:href="#m22cc099dab" x="581.647133" y="605.551111" style="fill: #5a5758; stroke: #5a5758; stroke-width: 0.8"/>
      </g>
     </g>
     <g id="text_29">
      <!-- 0.8 -->
      <g style="fill: #5a5758" transform="translate(571.585924 622.971941) scale(0.14994 -0.14994)">
       <use xlink:href="#CMUBright-Roman-30"/>
       <use xlink:href="#CMUBright-Roman-2e" x="52.499985"/>
       <use xlink:href="#CMUBright-Roman-38" x="81.699982"/>
      </g>
     </g>
    </g>
    <g id="xtick_18">
     <g id="line2d_28">
      <g>
       <use xlink:href="#m22cc099dab" x="711.138312" y="605.551111" style="fill: #5a5758; stroke: #5a5758; stroke-width: 0.8"/>
      </g>
     </g>
     <g id="text_30">
      <!-- 1.0 -->
      <g style="fill: #5a5758" transform="translate(701.077103 622.971941) scale(0.14994 -0.14994)">
       <use xlink:href="#CMUBright-Roman-31"/>
       <use xlink:href="#CMUBright-Roman-2e" x="52.499985"/>
       <use xlink:href="#CMUBright-Roman-30" x="81.699982"/>
      </g>
     </g>
    </g>
    <g id="text_31">
     <!-- $x$ -->
     <g style="fill: #5a5758" transform="translate(383.270364 645.986407) scale(0.18 -0.18)">
      <use xlink:href="#CMUBright-SemiBold-78" transform="translate(0 0.796875)"/>
     </g>
    </g>
   </g>
   <g id="matplotlib.axis_6">
    <g id="ytick_7">
     <g id="line2d_29">
      <g>
       <use xlink:href="#m16b08dbb5f" x="51.682417" y="582.428043" style="fill: #5a5758; stroke: #5a5758; stroke-width: 0.8"/>
      </g>
     </g>
     <g id="text_32">
      <!-- 0.0 -->
      <g style="fill: #5a5758" transform="translate(24.56 587.638458) scale(0.14994 -0.14994)">
       <use xlink:href="#CMUBright-Roman-30"/>
       <use xlink:href="#CMUBright-Roman-2e" x="52.499985"/>
       <use xlink:href="#CMUBright-Roman-30" x="81.699982"/>
      </g>
     </g>
    </g>
    <g id="ytick_8">
     <g id="line2d_30">
      <g>
       <use xlink:href="#m16b08dbb5f" x="51.682417" y="526.812705" style="fill: #5a5758; stroke: #5a5758; stroke-width: 0.8"/>
      </g>
     </g>
     <g id="text_33">
      <!-- 0.5 -->
      <g style="fill: #5a5758" transform="translate(24.56 532.02312) scale(0.14994 -0.14994)">
       <use xlink:href="#CMUBright-Roman-30"/>
       <use xlink:href="#CMUBright-Roman-2e" x="52.499985"/>
       <use xlink:href="#CMUBright-Roman-35" x="81.699982"/>
      </g>
     </g>
    </g>
    <g id="ytick_9">
     <g id="line2d_31">
      <g>
       <use xlink:href="#m16b08dbb5f" x="51.682417" y="471.197368" style="fill: #5a5758; stroke: #5a5758; stroke-width: 0.8"/>
      </g>
     </g>
     <g id="text_34">
      <!-- 1.0 -->
      <g style="fill: #5a5758" transform="translate(24.56 476.407783) scale(0.14994 -0.14994)">
       <use xlink:href="#CMUBright-Roman-31"/>
       <use xlink:href="#CMUBright-Roman-2e" x="52.499985"/>
       <use xlink:href="#CMUBright-Roman-30" x="81.699982"/>
      </g>
     </g>
    </g>
    <g id="text_35">
     <!-- $u$ -->
     <g style="fill: #5a5758" transform="translate(7.2 523.806143) scale(0.18 -0.18)">
      <use xlink:href="#CMUBright-SemiBold-75" transform="translate(0 0.796875)"/>
     </g>
    </g>
   </g>
   <g id="line2d_32">
    <path d="M 63.682417 582.428043 
L 69.077882 582.428043 
L 74.473348 582.428043 
L 79.868814 582.428043 
L 85.26428 582.428043 
L 90.659746 582.428043 
L 96.055211 471.197368 
L 101.450677 471.197368 
L 106.846143 471.197368 
L 112.241609 471.197368 
L 117.637074 471.197368 
L 123.03254 471.197368 
L 128.428006 471.197368 
L 133.823472 471.197368 
L 139.218938 471.197368 
L 144.614403 471.197368 
L 150.009869 471.197368 
L 155.405335 471.197368 
L 160.800801 471.197368 
L 166.196267 471.197368 
L 171.591732 471.197368 
L 176.987198 471.197368 
L 182.382664 471.197368 
L 187.77813 471.197368 
L 193.173596 471.197368 
L 198.569061 582.428043 
L 203.964527 582.428043 
L 209.359993 582.428043 
L 214.755459 582.428043 
L 220.150925 582.428043 
L 225.54639 582.428043 
L 230.941856 582.428043 
L 236.337322 582.428043 
L 241.732788 582.428043 
L 247.128254 582.428043 
L 252.523719 582.428043 
L 257.919185 582.428043 
L 263.314651 579.074028 
L 268.710117 569.416526 
L 274.105582 554.620374 
L 279.501048 536.470208 
L 284.896514 517.155203 
L 290.29198 499.005037 
L 295.687446 484.208885 
L 301.082911 474.551383 
L 306.478377 471.197368 
L 311.873843 474.551383 
L 317.269309 484.208885 
L 322.664775 499.005037 
L 328.06024 517.155203 
L 333.455706 536.470208 
L 338.851172 554.620374 
L 344.246638 569.416526 
L 349.642104 579.074028 
L 355.037569 582.428043 
L 360.433035 582.428043 
L 365.828501 582.428043 
L 371.223967 582.428043 
L 376.619433 582.428043 
L 382.014898 582.428043 
L 387.410364 582.428043 
L 392.80583 582.428043 
L 398.201296 582.428043 
L 403.596762 582.428043 
L 408.992227 582.428043 
L 414.387693 582.428043 
L 419.783159 582.428043 
L 425.178625 570.069079 
L 430.57409 557.710115 
L 435.969556 545.351151 
L 441.365022 532.992187 
L 446.760488 520.633223 
L 452.155954 508.27426 
L 457.551419 495.915296 
L 462.946885 483.556332 
L 468.342351 471.197368 
L 473.737817 483.556332 
L 479.133283 495.915296 
L 484.528748 508.27426 
L 489.924214 520.633223 
L 495.31968 532.992187 
L 500.715146 545.351151 
L 506.110612 557.710115 
L 511.506077 570.069079 
L 516.901543 582.428043 
L 522.297009 582.428043 
L 527.692475 582.428043 
L 533.087941 582.428043 
L 538.483406 582.428043 
L 543.878872 582.428043 
L 549.274338 582.428043 
L 554.669804 582.428043 
L 560.06527 582.428043 
L 565.460735 582.428043 
L 570.856201 582.428043 
L 576.251667 582.428043 
L 581.647133 582.428043 
L 587.042598 531.470729 
L 592.438064 512.515185 
L 597.83353 499.521593 
L 603.228996 489.942026 
L 608.624462 482.78689 
L 614.019927 477.558757 
L 619.415393 473.978575 
L 624.810859 471.886109 
L 630.206325 471.197368 
L 635.601791 471.886109 
L 640.997256 473.978575 
L 646.392722 477.558757 
L 651.788188 482.78689 
L 657.183654 489.942026 
L 662.57912 499.521593 
L 667.974585 512.515185 
L 673.370051 531.470729 
L 678.765517 582.428043 
L 684.160983 582.428043 
L 689.556449 582.428043 
L 694.951914 582.428043 
L 700.34738 582.428043 
L 705.742846 582.428043 
L 711.138312 582.428043 
" style="fill: none; stroke: #5a5758; stroke-opacity: 0.7; stroke-width: 2; stroke-linecap: square"/>
   </g>
   <g id="line2d_33">
    <path d="M 63.682417 571.333195 
L 69.077882 569.676364 
L 74.473348 565.993584 
L 79.868814 559.563046 
L 85.26428 549.787041 
L 90.659746 536.27768 
L 96.055211 519.72699 
L 101.450677 505.464374 
L 106.846143 494.609727 
L 112.241609 486.668882 
L 117.637074 481.110205 
L 123.03254 477.428977 
L 128.428006 475.178091 
L 133.823472 473.971939 
L 139.218938 473.473828 
L 144.614403 473.376437 
L 150.009869 473.472585 
L 155.405335 473.967617 
L 160.800801 475.167285 
L 166.196267 477.404615 
L 171.591732 481.05773 
L 176.987198 486.55944 
L 182.382664 494.388441 
L 187.77813 505.031151 
L 193.173596 518.90715 
L 198.569061 535.393318 
L 203.964527 549.277522 
L 209.359993 559.772684 
L 214.755459 567.217583 
L 220.150925 572.082142 
L 225.54639 574.897643 
L 230.941856 576.217025 
L 236.337322 576.597391 
L 241.732788 576.529927 
L 247.128254 575.872545 
L 252.523719 574.074684 
L 257.919185 570.581632 
L 263.314651 564.837838 
L 268.710117 556.295103 
L 274.105582 544.437799 
L 279.501048 529.795602 
L 284.896514 518.023227 
L 290.29198 510.115765 
L 295.687446 505.612516 
L 301.082911 503.688856 
L 306.478377 503.307617 
L 311.873843 503.684319 
L 317.269309 505.595463 
L 322.664775 510.068167 
L 328.06024 517.904005 
L 333.455706 529.518065 
L 338.851172 543.899314 
L 344.246638 555.651893 
L 349.642104 564.361552 
L 355.037569 570.584023 
L 360.433035 574.845693 
L 365.828501 577.60652 
L 371.223967 579.251784 
L 376.619433 580.101645 
L 382.014898 580.429004 
L 387.410364 580.478293 
L 392.80583 580.356318 
L 398.201296 579.877281 
L 403.596762 578.801662 
L 408.992227 576.868934 
L 414.387693 573.781103 
L 419.783159 569.187869 
L 425.178625 562.679094 
L 430.57409 553.791773 
L 435.969556 542.039598 
L 441.365022 529.02987 
L 446.760488 518.967828 
L 452.155954 512.248478 
L 457.551419 508.43554 
L 462.946885 506.810301 
L 468.342351 506.489273 
L 473.737817 506.809243 
L 479.133283 508.432926 
L 484.528748 512.24617 
L 489.924214 518.973443 
L 495.31968 529.063246 
L 500.715146 542.164015 
L 506.110612 554.064689 
L 511.506077 563.006487 
L 516.901543 569.438545 
L 522.297009 573.805112 
L 527.692475 576.527553 
L 533.087941 578.003281 
L 538.483406 578.612583 
L 543.878872 578.727817 
L 549.274338 578.592044 
L 554.669804 577.935723 
L 560.06527 576.375244 
L 565.460735 573.510681 
L 570.856201 568.919958 
L 576.251667 562.162473 
L 581.647133 552.797705 
L 587.042598 540.423864 
L 592.438064 525.06755 
L 597.83353 510.700925 
L 603.228996 499.74118 
L 608.624462 491.968994 
L 614.019927 486.970628 
L 619.415393 484.202014 
L 624.810859 483.038938 
L 630.206325 482.811923 
L 635.601791 483.045559 
L 640.997256 484.225004 
L 646.392722 487.027876 
L 651.788188 492.096678 
L 657.183654 500.010845 
L 662.57912 511.246928 
L 667.974585 526.128842 
L 673.370051 541.652061 
L 678.765517 553.643492 
L 684.160983 562.10905 
L 689.556449 567.494228 
L 694.951914 570.408169 
L 700.34738 571.567666 
L 705.742846 571.749749 
L 711.138312 571.333195 
" style="fill: none; stroke: #e29400; stroke-width: 2; stroke-linecap: square"/>
   </g>
   <g id="patch_9">
    <path d="M 51.682417 593.551111 
L 51.682417 460.0743 
" style="fill: none; stroke: #5a5758; stroke-width: 0.8; stroke-linejoin: miter; stroke-linecap: square"/>
   </g>
   <g id="patch_10">
    <path d="M 63.682417 605.551111 
L 711.138312 605.551111 
" style="fill: none; stroke: #5a5758; stroke-width: 0.8; stroke-linejoin: miter; stroke-linecap: square"/>
   </g>
   <g id="text_36">
    <!-- Minmod -->
    <g style="fill: #5a5758" transform="translate(349.880364 454.0743) scale(0.216 -0.216)">
     <defs>
      <path id="CMUBright-Roman-4d" d="M 646 0 
L 646 4448 
L 1235 4448 
L 2528 1274 
L 2822 518 
L 2912 774 
L 4397 4448 
L 4992 4448 
L 4992 0 
L 4589 0 
L 4589 4032 
L 4090 2752 
L 3008 109 
L 2624 109 
L 1280 3418 
L 1050 4032 
L 1050 0 
L 646 0 
z
" transform="scale(0.015625)"/>
      <path id="CMUBright-Roman-6d" d="M 512 0 
L 512 3021 
L 909 3021 
L 909 2400 
Q 1011 2650 1251 2861 
Q 1491 3072 1875 3072 
Q 2138 3072 2320 2998 
Q 2502 2925 2592 2797 
Q 2682 2669 2710 2595 
Q 2739 2522 2765 2413 
Q 2771 2394 2771 2387 
Q 2886 2650 3123 2861 
Q 3360 3072 3744 3072 
Q 4000 3072 4182 2992 
Q 4365 2912 4454 2813 
Q 4544 2714 4592 2544 
Q 4640 2374 4646 2272 
Q 4653 2170 4653 2016 
L 4653 0 
L 4243 0 
L 4243 1990 
Q 4243 2106 4236 2176 
Q 4230 2246 4192 2368 
Q 4154 2490 4083 2563 
Q 4013 2637 3869 2694 
Q 3725 2752 3520 2752 
Q 3174 2752 2982 2470 
Q 2790 2189 2790 1728 
L 2790 0 
L 2374 0 
L 2374 1990 
Q 2374 2106 2371 2176 
Q 2368 2246 2329 2368 
Q 2291 2490 2220 2563 
Q 2150 2637 2006 2694 
Q 1862 2752 1658 2752 
Q 1312 2752 1117 2470 
Q 922 2189 922 1728 
Q 922 1715 925 1702 
Q 928 1690 928 1677 
L 928 0 
L 512 0 
z
" transform="scale(0.015625)"/>
     </defs>
     <use xlink:href="#CMUBright-Roman-4d"/>
     <use xlink:href="#CMUBright-Roman-69" x="88.299988"/>
     <use xlink:href="#CMUBright-Roman-6e" x="110.799973"/>
     <use xlink:href="#CMUBright-Roman-6d" x="162.499969"/>
     <use xlink:href="#CMUBright-Roman-6f" x="243.299957"/>
     <use xlink:href="#CMUBright-Roman-64" x="295.799942"/>
    </g>
   </g>
  </g>
  <g id="axes_4">
   <g id="patch_11">
    <path d="M 63.682417 809.826511 
L 711.138312 809.826511 
L 711.138312 676.3497 
L 63.682417 676.3497 
z
" style="fill: #ffffff"/>
   </g>
   <g id="matplotlib.axis_7">
    <g id="xtick_19">
     <g id="line2d_34">
      <g>
       <use xlink:href="#m22cc099dab" x="63.682417" y="821.826511" style="fill: #5a5758; stroke: #5a5758; stroke-width: 0.8"/>
      </g>
     </g>
     <g id="text_37">
      <!-- 0.0 -->
      <g style="fill: #5a5758" transform="translate(53.621208 839.247341) scale(0.14994 -0.14994)">
       <use xlink:href="#CMUBright-Roman-30"/>
       <use xlink:href="#CMUBright-Roman-2e" x="52.499985"/>
       <use xlink:href="#CMUBright-Roman-30" x="81.699982"/>
      </g>
     </g>
    </g>
    <g id="xtick_20">
     <g id="line2d_35">
      <g>
       <use xlink:href="#m22cc099dab" x="193.173596" y="821.826511" style="fill: #5a5758; stroke: #5a5758; stroke-width: 0.8"/>
      </g>
     </g>
     <g id="text_38">
      <!-- 0.2 -->
      <g style="fill: #5a5758" transform="translate(183.112387 839.247341) scale(0.14994 -0.14994)">
       <use xlink:href="#CMUBright-Roman-30"/>
       <use xlink:href="#CMUBright-Roman-2e" x="52.499985"/>
       <use xlink:href="#CMUBright-Roman-32" x="81.699982"/>
      </g>
     </g>
    </g>
    <g id="xtick_21">
     <g id="line2d_36">
      <g>
       <use xlink:href="#m22cc099dab" x="322.664775" y="821.826511" style="fill: #5a5758; stroke: #5a5758; stroke-width: 0.8"/>
      </g>
     </g>
     <g id="text_39">
      <!-- 0.4 -->
      <g style="fill: #5a5758" transform="translate(312.603566 839.247341) scale(0.14994 -0.14994)">
       <use xlink:href="#CMUBright-Roman-30"/>
       <use xlink:href="#CMUBright-Roman-2e" x="52.499985"/>
       <use xlink:href="#CMUBright-Roman-34" x="81.699982"/>
      </g>
     </g>
    </g>
    <g id="xtick_22">
     <g id="line2d_37">
      <g>
       <use xlink:href="#m22cc099dab" x="452.155954" y="821.826511" style="fill: #5a5758; stroke: #5a5758; stroke-width: 0.8"/>
      </g>
     </g>
     <g id="text_40">
      <!-- 0.6 -->
      <g style="fill: #5a5758" transform="translate(442.094745 839.247341) scale(0.14994 -0.14994)">
       <use xlink:href="#CMUBright-Roman-30"/>
       <use xlink:href="#CMUBright-Roman-2e" x="52.499985"/>
       <use xlink:href="#CMUBright-Roman-36" x="81.699982"/>
      </g>
     </g>
    </g>
    <g id="xtick_23">
     <g id="line2d_38">
      <g>
       <use xlink:href="#m22cc099dab" x="581.647133" y="821.826511" style="fill: #5a5758; stroke: #5a5758; stroke-width: 0.8"/>
      </g>
     </g>
     <g id="text_41">
      <!-- 0.8 -->
      <g style="fill: #5a5758" transform="translate(571.585924 839.247341) scale(0.14994 -0.14994)">
       <use xlink:href="#CMUBright-Roman-30"/>
       <use xlink:href="#CMUBright-Roman-2e" x="52.499985"/>
       <use xlink:href="#CMUBright-Roman-38" x="81.699982"/>
      </g>
     </g>
    </g>
    <g id="xtick_24">
     <g id="line2d_39">
      <g>
       <use xlink:href="#m22cc099dab" x="711.138312" y="821.826511" style="fill: #5a5758; stroke: #5a5758; stroke-width: 0.8"/>
      </g>
     </g>
     <g id="text_42">
      <!-- 1.0 -->
      <g style="fill: #5a5758" transform="translate(701.077103 839.247341) scale(0.14994 -0.14994)">
       <use xlink:href="#CMUBright-Roman-31"/>
       <use xlink:href="#CMUBright-Roman-2e" x="52.499985"/>
       <use xlink:href="#CMUBright-Roman-30" x="81.699982"/>
      </g>
     </g>
    </g>
    <g id="text_43">
     <!-- $x$ -->
     <g style="fill: #5a5758" transform="translate(383.270364 862.261807) scale(0.18 -0.18)">
      <use xlink:href="#CMUBright-SemiBold-78" transform="translate(0 0.796875)"/>
     </g>
    </g>
   </g>
   <g id="matplotlib.axis_8">
    <g id="ytick_10">
     <g id="line2d_40">
      <g>
       <use xlink:href="#m16b08dbb5f" x="51.682417" y="798.703443" style="fill: #5a5758; stroke: #5a5758; stroke-width: 0.8"/>
      </g>
     </g>
     <g id="text_44">
      <!-- 0.0 -->
      <g style="fill: #5a5758" transform="translate(24.56 803.913858) scale(0.14994 -0.14994)">
       <use xlink:href="#CMUBright-Roman-30"/>
       <use xlink:href="#CMUBright-Roman-2e" x="52.499985"/>
       <use xlink:href="#CMUBright-Roman-30" x="81.699982"/>
      </g>
     </g>
    </g>
    <g id="ytick_11">
     <g id="line2d_41">
      <g>
       <use xlink:href="#m16b08dbb5f" x="51.682417" y="743.088105" style="fill: #5a5758; stroke: #5a5758; stroke-width: 0.8"/>
      </g>
     </g>
     <g id="text_45">
      <!-- 0.5 -->
      <g style="fill: #5a5758" transform="translate(24.56 748.29852) scale(0.14994 -0.14994)">
       <use xlink:href="#CMUBright-Roman-30"/>
       <use xlink:href="#CMUBright-Roman-2e" x="52.499985"/>
       <use xlink:href="#CMUBright-Roman-35" x="81.699982"/>
      </g>
     </g>
    </g>
    <g id="ytick_12">
     <g id="line2d_42">
      <g>
       <use xlink:href="#m16b08dbb5f" x="51.682417" y="687.472768" style="fill: #5a5758; stroke: #5a5758; stroke-width: 0.8"/>
      </g>
     </g>
     <g id="text_46">
      <!-- 1.0 -->
      <g style="fill: #5a5758" transform="translate(24.56 692.683183) scale(0.14994 -0.14994)">
       <use xlink:href="#CMUBright-Roman-31"/>
       <use xlink:href="#CMUBright-Roman-2e" x="52.499985"/>
       <use xlink:href="#CMUBright-Roman-30" x="81.699982"/>
      </g>
     </g>
    </g>
    <g id="text_47">
     <!-- $u$ -->
     <g style="fill: #5a5758" transform="translate(7.2 740.081543) scale(0.18 -0.18)">
      <use xlink:href="#CMUBright-SemiBold-75" transform="translate(0 0.796875)"/>
     </g>
    </g>
   </g>
   <g id="line2d_43">
    <path d="M 63.682417 798.703443 
L 69.077882 798.703443 
L 74.473348 798.703443 
L 79.868814 798.703443 
L 85.26428 798.703443 
L 90.659746 798.703443 
L 96.055211 687.472768 
L 101.450677 687.472768 
L 106.846143 687.472768 
L 112.241609 687.472768 
L 117.637074 687.472768 
L 123.03254 687.472768 
L 128.428006 687.472768 
L 133.823472 687.472768 
L 139.218938 687.472768 
L 144.614403 687.472768 
L 150.009869 687.472768 
L 155.405335 687.472768 
L 160.800801 687.472768 
L 166.196267 687.472768 
L 171.591732 687.472768 
L 176.987198 687.472768 
L 182.382664 687.472768 
L 187.77813 687.472768 
L 193.173596 687.472768 
L 198.569061 798.703443 
L 203.964527 798.703443 
L 209.359993 798.703443 
L 214.755459 798.703443 
L 220.150925 798.703443 
L 225.54639 798.703443 
L 230.941856 798.703443 
L 236.337322 798.703443 
L 241.732788 798.703443 
L 247.128254 798.703443 
L 252.523719 798.703443 
L 257.919185 798.703443 
L 263.314651 795.349428 
L 268.710117 785.691926 
L 274.105582 770.895774 
L 279.501048 752.745608 
L 284.896514 733.430603 
L 290.29198 715.280437 
L 295.687446 700.484285 
L 301.082911 690.826783 
L 306.478377 687.472768 
L 311.873843 690.826783 
L 317.269309 700.484285 
L 322.664775 715.280437 
L 328.06024 733.430603 
L 333.455706 752.745608 
L 338.851172 770.895774 
L 344.246638 785.691926 
L 349.642104 795.349428 
L 355.037569 798.703443 
L 360.433035 798.703443 
L 365.828501 798.703443 
L 371.223967 798.703443 
L 376.619433 798.703443 
L 382.014898 798.703443 
L 387.410364 798.703443 
L 392.80583 798.703443 
L 398.201296 798.703443 
L 403.596762 798.703443 
L 408.992227 798.703443 
L 414.387693 798.703443 
L 419.783159 798.703443 
L 425.178625 786.344479 
L 430.57409 773.985515 
L 435.969556 761.626551 
L 441.365022 749.267587 
L 446.760488 736.908623 
L 452.155954 724.54966 
L 457.551419 712.190696 
L 462.946885 699.831732 
L 468.342351 687.472768 
L 473.737817 699.831732 
L 479.133283 712.190696 
L 484.528748 724.54966 
L 489.924214 736.908623 
L 495.31968 749.267587 
L 500.715146 761.626551 
L 506.110612 773.985515 
L 511.506077 786.344479 
L 516.901543 798.703443 
L 522.297009 798.703443 
L 527.692475 798.703443 
L 533.087941 798.703443 
L 538.483406 798.703443 
L 543.878872 798.703443 
L 549.274338 798.703443 
L 554.669804 798.703443 
L 560.06527 798.703443 
L 565.460735 798.703443 
L 570.856201 798.703443 
L 576.251667 798.703443 
L 581.647133 798.703443 
L 587.042598 747.746129 
L 592.438064 728.790585 
L 597.83353 715.796993 
L 603.228996 706.217426 
L 608.624462 699.06229 
L 614.019927 693.834157 
L 619.415393 690.253975 
L 624.810859 688.161509 
L 630.206325 687.472768 
L 635.601791 688.161509 
L 640.997256 690.253975 
L 646.392722 693.834157 
L 651.788188 699.06229 
L 657.183654 706.217426 
L 662.57912 715.796993 
L 667.974585 728.790585 
L 673.370051 747.746129 
L 678.765517 798.703443 
L 684.160983 798.703443 
L 689.556449 798.703443 
L 694.951914 798.703443 
L 700.34738 798.703443 
L 705.742846 798.703443 
L 711.138312 798.703443 
" style="fill: none; stroke: #5a5758; stroke-opacity: 0.7; stroke-width: 2; stroke-linecap: square"/>
   </g>
   <g id="line2d_44">
    <path d="M 63.682417 798.635737 
L 69.077882 798.60611 
L 74.473348 798.404856 
L 79.868814 797.190649 
L 85.26428 790.060848 
L 90.659746 760.561368 
L 96.055211 725.790091 
L 101.450677 696.147709 
L 106.846143 688.960626 
L 112.241609 687.72793 
L 117.637074 687.516571 
L 123.03254 687.480378 
L 128.428006 687.474216 
L 133.823472 687.473194 
L 139.218938 687.473043 
L 144.614403 687.47303 
L 150.009869 687.473043 
L 155.405335 687.473194 
L 160.800801 687.474216 
L 166.196267 687.480374 
L 171.591732 687.516543 
L 176.987198 687.727748 
L 182.382664 688.959462 
L 187.77813 696.140321 
L 193.173596 725.747977 
L 198.569061 760.458839 
L 203.964527 790.043234 
L 209.359993 797.21453 
L 214.755459 798.442901 
L 220.150925 798.652105 
L 225.54639 798.686839 
L 230.941856 798.692002 
L 236.337322 798.692446 
L 241.732788 798.692045 
L 247.128254 798.687214 
L 252.523719 798.654795 
L 257.919185 798.46119 
L 263.314651 797.335602 
L 268.710117 790.829598 
L 274.105582 771.546625 
L 279.501048 749.997947 
L 284.896514 728.249772 
L 290.29198 707.267418 
L 295.687446 698.252055 
L 301.082911 696.896159 
L 306.478377 696.782301 
L 311.873843 696.896168 
L 317.269309 698.252137 
L 322.664775 707.268002 
L 328.06024 728.247059 
L 333.455706 749.990322 
L 338.851172 771.53317 
L 344.246638 790.816836 
L 349.642104 797.336691 
L 355.037569 798.466245 
L 360.433035 798.661899 
L 365.828501 798.695716 
L 371.223967 798.701497 
L 376.619433 798.70244 
L 382.014898 798.702565 
L 387.410364 798.702568 
L 392.80583 798.702482 
L 398.201296 798.701783 
L 403.596762 798.697463 
L 408.992227 798.672321 
L 414.387693 798.52797 
L 419.783159 797.701171 
L 425.178625 792.966014 
L 430.57409 778.927982 
L 435.969556 763.114384 
L 441.365022 746.925144 
L 446.760488 730.444088 
L 452.155954 713.967316 
L 457.551419 706.059742 
L 462.946885 704.869909 
L 468.342351 704.769921 
L 473.737817 704.869907 
L 479.133283 706.059733 
L 484.528748 713.967324 
L 489.924214 730.444778 
L 495.31968 746.92682 
L 500.715146 763.117456 
L 506.110612 778.933127 
L 511.506077 792.970884 
L 516.901543 797.700669 
L 522.297009 798.525931 
L 527.692475 798.669503 
L 533.087941 798.69412 
L 538.483406 798.698078 
L 543.878872 798.698556 
L 549.274338 798.698513 
L 554.669804 798.697555 
L 560.06527 798.690524 
L 565.460735 798.647334 
L 570.856201 798.39264 
L 576.251667 796.904715 
L 581.647133 788.230297 
L 587.042598 766.27869 
L 592.438064 742.787415 
L 597.83353 719.288986 
L 603.228996 697.796089 
L 608.624462 690.070576 
L 614.019927 688.7535 
L 619.415393 688.534705 
L 624.810859 688.502265 
L 630.206325 688.499557 
L 635.601791 688.502254 
L 640.997256 688.534614 
L 646.392722 688.752922 
L 651.788188 690.067081 
L 657.183654 697.775186 
L 662.57912 719.288696 
L 667.974585 742.827163 
L 673.370051 766.365633 
L 678.765517 788.313554 
L 684.160983 796.890611 
L 689.556449 798.353966 
L 694.951914 798.597939 
L 700.34738 798.634713 
L 705.742846 798.638121 
L 711.138312 798.635737 
" style="fill: none; stroke: #e29400; stroke-width: 2; stroke-linecap: square"/>
   </g>
   <g id="patch_12">
    <path d="M 51.682417 809.826511 
L 51.682417 676.3497 
" style="fill: none; stroke: #5a5758; stroke-width: 0.8; stroke-linejoin: miter; stroke-linecap: square"/>
   </g>
   <g id="patch_13">
    <path d="M 63.682417 821.826511 
L 711.138312 821.826511 
" style="fill: none; stroke: #5a5758; stroke-width: 0.8; stroke-linejoin: miter; stroke-linecap: square"/>
   </g>
   <g id="text_48">
    <!-- Superbee -->
    <g style="fill: #5a5758" transform="translate(345.494552 670.3497) scale(0.216 -0.216)">
     <defs>
      <path id="CMUBright-Roman-53" d="M 294 339 
L 371 781 
Q 1082 256 1843 256 
Q 2342 256 2643 531 
Q 2944 806 2944 1152 
Q 2944 1402 2781 1622 
Q 2618 1843 2323 1958 
Q 2176 2016 1769 2096 
Q 1363 2176 1059 2317 
Q 755 2458 557 2746 
Q 365 3014 365 3341 
Q 365 3808 781 4179 
Q 1197 4550 1882 4550 
Q 2515 4550 3110 4243 
L 3034 3802 
Q 2848 3930 2745 3990 
Q 2643 4051 2400 4124 
Q 2157 4198 1882 4198 
Q 1389 4198 1081 3958 
Q 774 3718 774 3392 
Q 774 3168 931 2973 
Q 1088 2778 1376 2669 
Q 1491 2630 1910 2534 
Q 2330 2438 2438 2394 
Q 2899 2221 3126 1885 
Q 3354 1549 3354 1197 
Q 3354 678 2925 284 
Q 2496 -109 1837 -109 
Q 1030 -109 294 339 
z
" transform="scale(0.015625)"/>
      <path id="CMUBright-Roman-75" d="M 512 851 
L 512 3021 
L 928 3021 
L 928 781 
Q 928 486 1037 368 
Q 1146 250 1517 250 
Q 1875 250 2124 477 
Q 2374 704 2374 1120 
L 2374 3021 
L 2784 3021 
L 2784 0 
L 2381 0 
L 2381 550 
Q 2214 269 1910 109 
Q 1606 -51 1254 -51 
Q 1005 -51 845 29 
Q 685 109 617 262 
Q 550 416 531 541 
Q 512 666 512 851 
z
" transform="scale(0.015625)"/>
      <path id="CMUBright-Roman-62" d="M 512 0 
L 512 4448 
L 915 4448 
L 915 2592 
Q 1312 3072 1875 3072 
Q 2349 3072 2675 2621 
Q 3002 2170 3002 1523 
Q 3002 858 2634 403 
Q 2266 -51 1754 -51 
Q 1261 -51 928 422 
L 928 0 
L 512 0 
z
M 922 838 
Q 922 634 1107 451 
Q 1293 269 1555 269 
Q 1728 269 1891 326 
Q 2054 384 2220 512 
Q 2387 640 2489 896 
Q 2592 1152 2592 1510 
Q 2592 1882 2493 2147 
Q 2394 2413 2234 2534 
Q 2074 2656 1926 2704 
Q 1779 2752 1632 2752 
Q 1293 2752 1050 2490 
Q 954 2362 941 2333 
Q 928 2304 928 2195 
L 928 928 
Q 928 909 925 883 
Q 922 858 922 838 
z
" transform="scale(0.015625)"/>
     </defs>
     <use xlink:href="#CMUBright-Roman-53"/>
     <use xlink:href="#CMUBright-Roman-75" x="58.299988"/>
     <use xlink:href="#CMUBright-Roman-70" x="109.999985"/>
     <use xlink:href="#CMUBright-Roman-65" x="161.699982"/>
     <use xlink:href="#CMUBright-Roman-72" x="208.399979"/>
     <use xlink:href="#CMUBright-Roman-62" x="242.999969"/>
     <use xlink:href="#CMUBright-Roman-65" x="294.699966"/>
     <use xlink:href="#CMUBright-Roman-65" x="341.399963"/>
    </g>
   </g>
  </g>
  <g id="axes_5">
   <g id="patch_14">
    <path d="M 63.682417 1025.757661 
L 711.138312 1025.757661 
L 711.138312 892.28085 
L 63.682417 892.28085 
z
" style="fill: #ffffff"/>
   </g>
   <g id="matplotlib.axis_9">
    <g id="xtick_25">
     <g id="line2d_45">
      <g>
       <use xlink:href="#m22cc099dab" x="63.682417" y="1037.757661" style="fill: #5a5758; stroke: #5a5758; stroke-width: 0.8"/>
      </g>
     </g>
     <g id="text_49">
      <!-- 0.0 -->
      <g style="fill: #5a5758" transform="translate(53.621208 1055.178491) scale(0.14994 -0.14994)">
       <use xlink:href="#CMUBright-Roman-30"/>
       <use xlink:href="#CMUBright-Roman-2e" x="52.499985"/>
       <use xlink:href="#CMUBright-Roman-30" x="81.699982"/>
      </g>
     </g>
    </g>
    <g id="xtick_26">
     <g id="line2d_46">
      <g>
       <use xlink:href="#m22cc099dab" x="193.173596" y="1037.757661" style="fill: #5a5758; stroke: #5a5758; stroke-width: 0.8"/>
      </g>
     </g>
     <g id="text_50">
      <!-- 0.2 -->
      <g style="fill: #5a5758" transform="translate(183.112387 1055.178491) scale(0.14994 -0.14994)">
       <use xlink:href="#CMUBright-Roman-30"/>
       <use xlink:href="#CMUBright-Roman-2e" x="52.499985"/>
       <use xlink:href="#CMUBright-Roman-32" x="81.699982"/>
      </g>
     </g>
    </g>
    <g id="xtick_27">
     <g id="line2d_47">
      <g>
       <use xlink:href="#m22cc099dab" x="322.664775" y="1037.757661" style="fill: #5a5758; stroke: #5a5758; stroke-width: 0.8"/>
      </g>
     </g>
     <g id="text_51">
      <!-- 0.4 -->
      <g style="fill: #5a5758" transform="translate(312.603566 1055.178491) scale(0.14994 -0.14994)">
       <use xlink:href="#CMUBright-Roman-30"/>
       <use xlink:href="#CMUBright-Roman-2e" x="52.499985"/>
       <use xlink:href="#CMUBright-Roman-34" x="81.699982"/>
      </g>
     </g>
    </g>
    <g id="xtick_28">
     <g id="line2d_48">
      <g>
       <use xlink:href="#m22cc099dab" x="452.155954" y="1037.757661" style="fill: #5a5758; stroke: #5a5758; stroke-width: 0.8"/>
      </g>
     </g>
     <g id="text_52">
      <!-- 0.6 -->
      <g style="fill: #5a5758" transform="translate(442.094745 1055.178491) scale(0.14994 -0.14994)">
       <use xlink:href="#CMUBright-Roman-30"/>
       <use xlink:href="#CMUBright-Roman-2e" x="52.499985"/>
       <use xlink:href="#CMUBright-Roman-36" x="81.699982"/>
      </g>
     </g>
    </g>
    <g id="xtick_29">
     <g id="line2d_49">
      <g>
       <use xlink:href="#m22cc099dab" x="581.647133" y="1037.757661" style="fill: #5a5758; stroke: #5a5758; stroke-width: 0.8"/>
      </g>
     </g>
     <g id="text_53">
      <!-- 0.8 -->
      <g style="fill: #5a5758" transform="translate(571.585924 1055.178491) scale(0.14994 -0.14994)">
       <use xlink:href="#CMUBright-Roman-30"/>
       <use xlink:href="#CMUBright-Roman-2e" x="52.499985"/>
       <use xlink:href="#CMUBright-Roman-38" x="81.699982"/>
      </g>
     </g>
    </g>
    <g id="xtick_30">
     <g id="line2d_50">
      <g>
       <use xlink:href="#m22cc099dab" x="711.138312" y="1037.757661" style="fill: #5a5758; stroke: #5a5758; stroke-width: 0.8"/>
      </g>
     </g>
     <g id="text_54">
      <!-- 1.0 -->
      <g style="fill: #5a5758" transform="translate(701.077103 1055.178491) scale(0.14994 -0.14994)">
       <use xlink:href="#CMUBright-Roman-31"/>
       <use xlink:href="#CMUBright-Roman-2e" x="52.499985"/>
       <use xlink:href="#CMUBright-Roman-30" x="81.699982"/>
      </g>
     </g>
    </g>
    <g id="text_55">
     <!-- $x$ -->
     <g style="fill: #5a5758" transform="translate(383.270364 1078.192957) scale(0.18 -0.18)">
      <use xlink:href="#CMUBright-SemiBold-78" transform="translate(0 0.796875)"/>
     </g>
    </g>
   </g>
   <g id="matplotlib.axis_10">
    <g id="ytick_13">
     <g id="line2d_51">
      <g>
       <use xlink:href="#m16b08dbb5f" x="51.682417" y="1014.634593" style="fill: #5a5758; stroke: #5a5758; stroke-width: 0.8"/>
      </g>
     </g>
     <g id="text_56">
      <!-- 0.0 -->
      <g style="fill: #5a5758" transform="translate(24.56 1019.845008) scale(0.14994 -0.14994)">
       <use xlink:href="#CMUBright-Roman-30"/>
       <use xlink:href="#CMUBright-Roman-2e" x="52.499985"/>
       <use xlink:href="#CMUBright-Roman-30" x="81.699982"/>
      </g>
     </g>
    </g>
    <g id="ytick_14">
     <g id="line2d_52">
      <g>
       <use xlink:href="#m16b08dbb5f" x="51.682417" y="959.019255" style="fill: #5a5758; stroke: #5a5758; stroke-width: 0.8"/>
      </g>
     </g>
     <g id="text_57">
      <!-- 0.5 -->
      <g style="fill: #5a5758" transform="translate(24.56 964.22967) scale(0.14994 -0.14994)">
       <use xlink:href="#CMUBright-Roman-30"/>
       <use xlink:href="#CMUBright-Roman-2e" x="52.499985"/>
       <use xlink:href="#CMUBright-Roman-35" x="81.699982"/>
      </g>
     </g>
    </g>
    <g id="ytick_15">
     <g id="line2d_53">
      <g>
       <use xlink:href="#m16b08dbb5f" x="51.682417" y="903.403918" style="fill: #5a5758; stroke: #5a5758; stroke-width: 0.8"/>
      </g>
     </g>
     <g id="text_58">
      <!-- 1.0 -->
      <g style="fill: #5a5758" transform="translate(24.56 908.614333) scale(0.14994 -0.14994)">
       <use xlink:href="#CMUBright-Roman-31"/>
       <use xlink:href="#CMUBright-Roman-2e" x="52.499985"/>
       <use xlink:href="#CMUBright-Roman-30" x="81.699982"/>
      </g>
     </g>
    </g>
    <g id="text_59">
     <!-- $u$ -->
     <g style="fill: #5a5758" transform="translate(7.2 956.012693) scale(0.18 -0.18)">
      <use xlink:href="#CMUBright-SemiBold-75" transform="translate(0 0.796875)"/>
     </g>
    </g>
   </g>
   <g id="line2d_54">
    <path d="M 63.682417 1014.634593 
L 69.077882 1014.634593 
L 74.473348 1014.634593 
L 79.868814 1014.634593 
L 85.26428 1014.634593 
L 90.659746 1014.634593 
L 96.055211 903.403918 
L 101.450677 903.403918 
L 106.846143 903.403918 
L 112.241609 903.403918 
L 117.637074 903.403918 
L 123.03254 903.403918 
L 128.428006 903.403918 
L 133.823472 903.403918 
L 139.218938 903.403918 
L 144.614403 903.403918 
L 150.009869 903.403918 
L 155.405335 903.403918 
L 160.800801 903.403918 
L 166.196267 903.403918 
L 171.591732 903.403918 
L 176.987198 903.403918 
L 182.382664 903.403918 
L 187.77813 903.403918 
L 193.173596 903.403918 
L 198.569061 1014.634593 
L 203.964527 1014.634593 
L 209.359993 1014.634593 
L 214.755459 1014.634593 
L 220.150925 1014.634593 
L 225.54639 1014.634593 
L 230.941856 1014.634593 
L 236.337322 1014.634593 
L 241.732788 1014.634593 
L 247.128254 1014.634593 
L 252.523719 1014.634593 
L 257.919185 1014.634593 
L 263.314651 1011.280578 
L 268.710117 1001.623076 
L 274.105582 986.826924 
L 279.501048 968.676758 
L 284.896514 949.361753 
L 290.29198 931.211587 
L 295.687446 916.415435 
L 301.082911 906.757933 
L 306.478377 903.403918 
L 311.873843 906.757933 
L 317.269309 916.415435 
L 322.664775 931.211587 
L 328.06024 949.361753 
L 333.455706 968.676758 
L 338.851172 986.826924 
L 344.246638 1001.623076 
L 349.642104 1011.280578 
L 355.037569 1014.634593 
L 360.433035 1014.634593 
L 365.828501 1014.634593 
L 371.223967 1014.634593 
L 376.619433 1014.634593 
L 382.014898 1014.634593 
L 387.410364 1014.634593 
L 392.80583 1014.634593 
L 398.201296 1014.634593 
L 403.596762 1014.634593 
L 408.992227 1014.634593 
L 414.387693 1014.634593 
L 419.783159 1014.634593 
L 425.178625 1002.275629 
L 430.57409 989.916665 
L 435.969556 977.557701 
L 441.365022 965.198737 
L 446.760488 952.839773 
L 452.155954 940.48081 
L 457.551419 928.121846 
L 462.946885 915.762882 
L 468.342351 903.403918 
L 473.737817 915.762882 
L 479.133283 928.121846 
L 484.528748 940.48081 
L 489.924214 952.839773 
L 495.31968 965.198737 
L 500.715146 977.557701 
L 506.110612 989.916665 
L 511.506077 1002.275629 
L 516.901543 1014.634593 
L 522.297009 1014.634593 
L 527.692475 1014.634593 
L 533.087941 1014.634593 
L 538.483406 1014.634593 
L 543.878872 1014.634593 
L 549.274338 1014.634593 
L 554.669804 1014.634593 
L 560.06527 1014.634593 
L 565.460735 1014.634593 
L 570.856201 1014.634593 
L 576.251667 1014.634593 
L 581.647133 1014.634593 
L 587.042598 963.677279 
L 592.438064 944.721735 
L 597.83353 931.728143 
L 603.228996 922.148576 
L 608.624462 914.99344 
L 614.019927 909.765307 
L 619.415393 906.185125 
L 624.810859 904.092659 
L 630.206325 903.403918 
L 635.601791 904.092659 
L 640.997256 906.185125 
L 646.392722 909.765307 
L 651.788188 914.99344 
L 657.183654 922.148576 
L 662.57912 931.728143 
L 667.974585 944.721735 
L 673.370051 963.677279 
L 678.765517 1014.634593 
L 684.160983 1014.634593 
L 689.556449 1014.634593 
L 694.951914 1014.634593 
L 700.34738 1014.634593 
L 705.742846 1014.634593 
L 711.138312 1014.634593 
" style="fill: none; stroke: #5a5758; stroke-opacity: 0.7; stroke-width: 2; stroke-linecap: square"/>
   </g>
   <g id="line2d_55">
    <path d="M 63.682417 1012.238627 
L 69.077882 1011.243821 
L 74.473348 1008.051551 
L 79.868814 1000.791475 
L 85.26428 987.868774 
L 90.659746 969.565748 
L 96.055211 949.052821 
L 101.450677 930.862482 
L 106.846143 917.885952 
L 112.241609 910.204273 
L 117.637074 906.293659 
L 123.03254 904.530459 
L 128.428006 903.818137 
L 133.823472 903.567301 
L 139.218938 903.499661 
L 144.614403 903.491523 
L 150.009869 903.499676 
L 155.405335 903.567388 
L 160.800801 903.818512 
L 166.196267 904.531846 
L 171.591732 906.297857 
L 176.987198 910.213479 
L 182.382664 917.894888 
L 187.77813 930.835247 
L 193.173596 948.902398 
L 198.569061 969.204802 
L 203.964527 987.345368 
L 209.359993 1000.350766 
L 214.755459 1008.007736 
L 220.150925 1011.78766 
L 225.54639 1013.341729 
L 230.941856 1013.832179 
L 236.337322 1013.918226 
L 241.732788 1013.893519 
L 247.128254 1013.637128 
L 252.523719 1012.700463 
L 257.919185 1010.300186 
L 263.314651 1005.226336 
L 268.710117 995.996265 
L 274.105582 981.695798 
L 279.501048 963.517027 
L 284.896514 945.425961 
L 290.29198 931.959645 
L 295.687446 924.838124 
L 301.082911 922.452146 
L 306.478377 922.141679 
L 311.873843 922.453309 
L 317.269309 924.843739 
L 322.664775 931.975258 
L 328.06024 945.451056 
L 333.455706 963.52483 
L 338.851172 981.633887 
L 344.246638 995.834495 
L 349.642104 1005.003555 
L 355.037569 1010.11672 
L 360.433035 1012.668919 
L 365.828501 1013.828383 
L 371.223967 1014.302043 
L 376.619433 1014.464771 
L 382.014898 1014.502762 
L 387.410364 1014.50459 
L 392.80583 1014.479953 
L 398.201296 1014.359008 
L 403.596762 1013.998491 
L 408.992227 1013.131733 
L 414.387693 1011.289157 
L 419.783159 1007.719788 
L 425.178625 1001.408262 
L 430.57409 991.383223 
L 435.969556 977.502137 
L 441.365022 961.405584 
L 446.760488 946.449153 
L 452.155954 935.795884 
L 457.551419 930.288945 
L 462.946885 928.45966 
L 468.342351 928.221971 
L 473.737817 928.45953 
L 479.133283 930.288159 
L 484.528748 935.792638 
L 489.924214 946.44012 
L 495.31968 961.390923 
L 500.715146 977.494253 
L 506.110612 991.404875 
L 511.506077 1001.474396 
L 516.901543 1007.819314 
L 522.297009 1011.382945 
L 527.692475 1013.16785 
L 533.087941 1013.936169 
L 538.483406 1014.19012 
L 543.878872 1014.235462 
L 549.274338 1014.220702 
L 554.669804 1014.069582 
L 560.06527 1013.501816 
L 565.460735 1011.982656 
L 570.856201 1008.607789 
L 576.251667 1002.116669 
L 581.647133 991.307562 
L 587.042598 975.976712 
L 592.438064 957.797569 
L 597.83353 939.986862 
L 603.228996 925.595196 
L 608.624462 915.969333 
L 614.019927 910.662624 
L 619.415393 908.338766 
L 624.810859 907.628741 
L 630.206325 907.538922 
L 635.601791 907.628346 
L 640.997256 908.336639 
L 646.392722 910.654943 
L 651.788188 915.949055 
L 657.183654 925.562607 
L 662.57912 939.982847 
L 667.974585 957.931686 
L 673.370051 976.368382 
L 678.765517 991.93029 
L 684.160983 1002.708619 
L 689.556449 1008.785995 
L 694.951914 1011.470501 
L 700.34738 1012.284433 
L 705.742846 1012.382401 
L 711.138312 1012.238627 
" style="fill: none; stroke: #e29400; stroke-width: 2; stroke-linecap: square"/>
   </g>
   <g id="patch_15">
    <path d="M 51.682417 1025.757661 
L 51.682417 892.28085 
" style="fill: none; stroke: #5a5758; stroke-width: 0.8; stroke-linejoin: miter; stroke-linecap: square"/>
   </g>
   <g id="patch_16">
    <path d="M 63.682417 1037.757661 
L 711.138312 1037.757661 
" style="fill: none; stroke: #5a5758; stroke-width: 0.8; stroke-linejoin: miter; stroke-linecap: square"/>
   </g>
   <g id="text_60">
    <!-- Van Leer -->
    <g style="fill: #5a5758" transform="translate(345.678489 886.28085) scale(0.216 -0.216)">
     <defs>
      <path id="CMUBright-Roman-56" d="M 90 4448 
L 563 4448 
L 2093 646 
L 2176 416 
L 2733 1824 
L 3795 4448 
L 4218 4448 
L 2406 -32 
L 1907 -32 
L 90 4448 
z
" transform="scale(0.015625)"/>
      <path id="CMUBright-Roman-20" transform="scale(0.015625)"/>
     </defs>
     <use xlink:href="#CMUBright-Roman-56"/>
     <use xlink:href="#CMUBright-Roman-61" x="67.499985"/>
     <use xlink:href="#CMUBright-Roman-6e" x="116.699982"/>
     <use xlink:href="#CMUBright-Roman-20" x="168.399979"/>
     <use xlink:href="#CMUBright-Roman-4c" x="201.699966"/>
     <use xlink:href="#CMUBright-Roman-65" x="258.399963"/>
     <use xlink:href="#CMUBright-Roman-65" x="305.09996"/>
     <use xlink:href="#CMUBright-Roman-72" x="351.799957"/>
    </g>
   </g>
  </g>
 </g>
</svg>