<?xml version="1.0" encoding="utf-8" standalone="no"?>
<!DOCTYPE svg PUBLIC "-//W3C//DTD SVG 1.1//EN"
  "http://www.w3.org/Graphics/SVG/1.1/DTD/svg11.dtd">
<svg xmlns:xlink="http://www.w3.org/1999/xlink" width="469.19952pt" height="353.99952pt" viewBox="0 0 469.19952 353.99952" xmlns="http://www.w3.org/2000/svg" version="1.1">
 <metadata>
  <rdf:RDF xmlns:dc="http://purl.org/dc/elements/1.1/" xmlns:cc="http://creativecommons.org/ns#" xmlns:rdf="http://www.w3.org/1999/02/22-rdf-syntax-ns#">
   <cc:Work>
    <dc:type rdf:resource="http://purl.org/dc/dcmitype/StillImage"/>
    <dc:date>2024-09-16T14:56:46.557381</dc:date>
    <dc:format>image/svg+xml</dc:format>
    <dc:creator>
     <cc:Agent>
      <dc:title>Matplotlib v3.9.2, https://matplotlib.org/</dc:title>
     </cc:Agent>
    </dc:creator>
   </cc:Work>
  </rdf:RDF>
 </metadata>
 <defs>
  <style type="text/css">*{stroke-linejoin: round; stroke-linecap: butt}</style>
 </defs>
 <g id="figure_1">
  <g id="patch_1">
   <path d="M 0 353.99952 
L 469.19952 353.99952 
L 469.19952 0 
L 0 0 
z
" style="fill: #ffffff"/>
  </g>
  <g id="axes_1">
   <g id="patch_2">
    <path d="M 137.03013 291.357661 
L 458.99952 291.357661 
L 458.99952 10.2 
L 137.03013 10.2 
z
" style="fill: #ffffff"/>
   </g>
   <g id="matplotlib.axis_1">
    <g id="xtick_1">
     <g id="line2d_1">
      <defs>
       <path id="mfd933070fe" d="M 0 0 
L 0 3.5 
" style="stroke: #5a5758; stroke-width: 0.8"/>
      </defs>
      <g>
       <use xlink:href="#mfd933070fe" x="137.03013" y="303.357661" style="fill: #5a5758; stroke: #5a5758; stroke-width: 0.8"/>
      </g>
     </g>
     <g id="text_1">
      <!-- 0 -->
      <g style="fill: #5a5758" transform="translate(133.094205 320.778491) scale(0.14994 -0.14994)">
       <defs>
        <path id="CMUBright-Roman-30" d="M 333 1984 
L 333 2086 
Q 333 2291 339 2438 
Q 346 2586 371 2832 
Q 397 3078 461 3267 
Q 525 3456 621 3657 
Q 717 3859 880 4006 
Q 1043 4154 1261 4230 
Q 1446 4301 1677 4301 
Q 1856 4301 2025 4256 
Q 2195 4211 2380 4070 
Q 2566 3930 2704 3709 
Q 2842 3488 2931 3104 
Q 3021 2720 3021 2214 
Q 3021 1683 2982 1347 
Q 2944 1011 2803 685 
Q 2618 250 2307 70 
Q 1997 -109 1677 -109 
Q 1498 -109 1328 -64 
Q 1158 -19 972 121 
Q 787 262 649 483 
Q 512 704 422 1091 
Q 333 1478 333 1984 
z
M 742 2413 
Q 742 2374 745 2326 
Q 749 2278 749 2272 
L 749 2150 
Q 749 1779 758 1548 
Q 768 1318 838 1014 
Q 909 710 1037 538 
Q 1286 218 1677 218 
Q 2086 218 2330 557 
Q 2451 730 2518 1037 
Q 2586 1344 2595 1568 
Q 2605 1792 2605 2163 
L 2605 2272 
Q 2605 2278 2608 2323 
Q 2611 2368 2611 2406 
Q 2611 3302 2336 3661 
Q 2099 3981 1677 3981 
Q 1242 3981 1005 3642 
Q 742 3264 742 2413 
z
" transform="scale(0.015625)"/>
       </defs>
       <use xlink:href="#CMUBright-Roman-30"/>
      </g>
     </g>
    </g>
    <g id="xtick_2">
     <g id="line2d_2">
      <g>
       <use xlink:href="#mfd933070fe" x="221.758917" y="303.357661" style="fill: #5a5758; stroke: #5a5758; stroke-width: 0.8"/>
      </g>
     </g>
     <g id="text_2">
      <!-- 5 -->
      <g style="fill: #5a5758" transform="translate(217.822992 320.778491) scale(0.14994 -0.14994)">
       <defs>
        <path id="CMUBright-Roman-35" d="M 301 518 
L 486 819 
Q 896 224 1581 224 
Q 1971 224 2268 473 
Q 2566 723 2566 1312 
Q 2566 1626 2489 1846 
Q 2413 2067 2285 2176 
Q 2157 2285 2032 2329 
Q 1907 2374 1773 2374 
Q 1210 2374 941 1901 
L 582 1901 
L 582 4192 
L 2797 4192 
L 2797 3853 
L 973 3853 
L 973 2381 
Q 1325 2701 1779 2701 
Q 2285 2701 2653 2291 
Q 3021 1882 3021 1306 
Q 3021 723 2601 307 
Q 2182 -109 1574 -109 
Q 813 -109 301 518 
z
" transform="scale(0.015625)"/>
       </defs>
       <use xlink:href="#CMUBright-Roman-35"/>
      </g>
     </g>
    </g>
    <g id="xtick_3">
     <g id="line2d_3">
      <g>
       <use xlink:href="#mfd933070fe" x="306.487704" y="303.357661" style="fill: #5a5758; stroke: #5a5758; stroke-width: 0.8"/>
      </g>
     </g>
     <g id="text_3">
      <!-- 10 -->
      <g style="fill: #5a5758" transform="translate(298.615854 320.778491) scale(0.14994 -0.14994)">
       <defs>
        <path id="CMUBright-Roman-31" d="M 672 3558 
L 672 3885 
Q 1427 3885 1862 4301 
L 1965 4301 
L 1965 320 
L 2803 320 
L 2803 0 
L 710 0 
L 710 320 
L 1549 320 
L 1549 3744 
Q 1178 3558 672 3558 
z
" transform="scale(0.015625)"/>
       </defs>
       <use xlink:href="#CMUBright-Roman-31"/>
       <use xlink:href="#CMUBright-Roman-30" x="52.499985"/>
      </g>
     </g>
    </g>
    <g id="xtick_4">
     <g id="line2d_4">
      <g>
       <use xlink:href="#mfd933070fe" x="391.216491" y="303.357661" style="fill: #5a5758; stroke: #5a5758; stroke-width: 0.8"/>
      </g>
     </g>
     <g id="text_4">
      <!-- 15 -->
      <g style="fill: #5a5758" transform="translate(383.344641 320.778491) scale(0.14994 -0.14994)">
       <use xlink:href="#CMUBright-Roman-31"/>
       <use xlink:href="#CMUBright-Roman-35" x="52.499985"/>
      </g>
     </g>
    </g>
    <g id="text_5">
     <!-- Iteration -->
     <g style="fill: #5a5758" transform="translate(265.604981 343.792957) scale(0.18 -0.18)">
      <defs>
       <path id="CMUBright-SemiBold-49" d="M 512 0 
L 512 4448 
L 1184 4448 
L 1184 0 
L 512 0 
z
" transform="scale(0.015625)"/>
       <path id="CMUBright-SemiBold-74" d="M 122 2541 
L 122 3021 
L 646 3021 
L 646 3885 
L 1222 3885 
L 1222 3021 
L 2118 3021 
L 2118 2541 
L 1222 2541 
L 1222 1075 
Q 1222 448 1555 448 
Q 1805 448 2106 672 
L 2234 211 
Q 1754 -51 1197 -51 
Q 634 -51 634 1005 
L 634 2541 
L 122 2541 
z
" transform="scale(0.015625)"/>
       <path id="CMUBright-SemiBold-65" d="M 186 1530 
Q 186 2189 605 2646 
Q 1024 3104 1606 3104 
Q 1766 3104 1920 3069 
Q 2074 3034 2243 2931 
Q 2413 2829 2534 2669 
Q 2656 2509 2739 2233 
Q 2822 1958 2822 1600 
L 762 1600 
L 762 1536 
Q 762 1062 1040 745 
Q 1318 429 1709 429 
Q 2240 429 2739 794 
L 2784 275 
Q 2278 -51 1709 -51 
Q 1043 -51 614 419 
Q 186 890 186 1530 
z
M 838 1978 
L 2298 1978 
Q 2144 2618 1600 2618 
Q 1363 2618 1148 2448 
Q 934 2278 838 1978 
z
" transform="scale(0.015625)"/>
       <path id="CMUBright-SemiBold-72" d="M 416 0 
L 416 3021 
L 992 3021 
L 992 2368 
Q 1370 3059 2112 3072 
L 2112 2528 
Q 1939 2528 1769 2480 
Q 1600 2432 1421 2326 
Q 1242 2221 1130 2013 
Q 1018 1805 1018 1517 
L 1018 0 
L 416 0 
z
" transform="scale(0.015625)"/>
       <path id="CMUBright-SemiBold-61" d="M 250 851 
Q 250 1274 771 1498 
Q 1293 1722 2112 1747 
L 2112 1971 
Q 2112 2234 2048 2355 
Q 1894 2650 1568 2650 
Q 1242 2643 1037 2566 
Q 832 2490 557 2291 
L 512 2829 
Q 1043 3104 1581 3104 
Q 2061 3104 2377 2822 
Q 2694 2541 2726 2144 
L 2733 1933 
L 2733 0 
L 2131 0 
L 2131 230 
L 2125 410 
Q 1946 186 1648 67 
Q 1350 -51 1043 -51 
Q 666 -51 458 233 
Q 250 518 250 851 
z
M 845 864 
Q 845 672 1008 550 
Q 1171 429 1408 429 
Q 1626 429 1811 525 
Q 1997 621 2074 781 
Q 2112 864 2112 1043 
L 2112 1446 
Q 1523 1421 1184 1270 
Q 845 1120 845 864 
z
" transform="scale(0.015625)"/>
       <path id="CMUBright-SemiBold-69" d="M 414 3859 
L 414 4461 
L 1016 4461 
L 1016 3859 
L 414 3859 
z
M 416 0 
L 416 3021 
L 1018 3021 
L 1018 0 
L 416 0 
z
" transform="scale(0.015625)"/>
       <path id="CMUBright-SemiBold-6f" d="M 630 390 
Q 186 832 186 1504 
Q 186 2176 627 2637 
Q 1069 3098 1677 3098 
Q 2310 3098 2739 2618 
Q 3168 2138 3168 1498 
Q 3168 838 2726 393 
Q 2285 -51 1677 -51 
Q 1075 -51 630 390 
z
M 800 1594 
Q 800 998 1037 717 
Q 1267 448 1677 448 
Q 2061 448 2291 685 
Q 2554 954 2554 1606 
Q 2554 2150 2307 2384 
Q 2061 2618 1677 2618 
Q 800 2618 800 1594 
z
" transform="scale(0.015625)"/>
       <path id="CMUBright-SemiBold-6e" d="M 410 0 
L 410 3021 
L 998 3021 
L 998 2714 
L 1005 2496 
Q 1344 3072 1971 3072 
Q 2227 3072 2409 2995 
Q 2592 2918 2681 2816 
Q 2771 2714 2822 2547 
Q 2874 2381 2880 2275 
Q 2886 2170 2886 2016 
L 2886 0 
L 2272 0 
L 2272 2022 
Q 2272 2131 2259 2204 
Q 2246 2278 2192 2380 
Q 2138 2483 2000 2537 
Q 1862 2592 1651 2592 
Q 1453 2592 1315 2493 
Q 1178 2394 1120 2237 
Q 1062 2080 1043 1961 
Q 1024 1843 1024 1728 
L 1024 0 
L 410 0 
z
" transform="scale(0.015625)"/>
      </defs>
      <use xlink:href="#CMUBright-SemiBold-49"/>
      <use xlink:href="#CMUBright-SemiBold-74" x="26.699997"/>
      <use xlink:href="#CMUBright-SemiBold-65" x="64.599991"/>
      <use xlink:href="#CMUBright-SemiBold-72" x="111.699982"/>
      <use xlink:href="#CMUBright-SemiBold-61" x="146.299973"/>
      <use xlink:href="#CMUBright-SemiBold-74" x="195.499969"/>
      <use xlink:href="#CMUBright-SemiBold-69" x="233.399963"/>
      <use xlink:href="#CMUBright-SemiBold-6f" x="255.899948"/>
      <use xlink:href="#CMUBright-SemiBold-6e" x="308.399933"/>
     </g>
    </g>
   </g>
   <g id="matplotlib.axis_2">
    <g id="ytick_1">
     <g id="line2d_5">
      <defs>
       <path id="mf3ceb3c2aa" d="M 0 0 
L -3.5 0 
" style="stroke: #5a5758; stroke-width: 0.8"/>
      </defs>
      <g>
       <use xlink:href="#mf3ceb3c2aa" x="125.03013" y="247.092852" style="fill: #5a5758; stroke: #5a5758; stroke-width: 0.8"/>
      </g>
     </g>
     <g id="text_6">
      <!-- $\mathdefault{10^{-10}}$ -->
      <g style="fill: #5a5758" transform="translate(83.99375 252.303267) scale(0.14994 -0.14994)">
       <defs>
        <path id="CMUBright-Roman-2212" d="M 378 1690 
Q 378 1856 602 1856 
L 3526 1856 
Q 3725 1850 3725 1690 
Q 3725 1530 3520 1530 
L 582 1530 
Q 378 1530 378 1690 
z
" transform="scale(0.015625)"/>
       </defs>
       <use xlink:href="#CMUBright-Roman-31" transform="translate(0 0.915625)"/>
       <use xlink:href="#CMUBright-Roman-30" transform="translate(52.499985 0.915625)"/>
       <use xlink:href="#CMUBright-Roman-2212" transform="translate(105.826024 33.957813) scale(0.7)"/>
       <use xlink:href="#CMUBright-Roman-31" transform="translate(150.766022 33.957813) scale(0.7)"/>
       <use xlink:href="#CMUBright-Roman-30" transform="translate(187.516011 33.957813) scale(0.7)"/>
      </g>
     </g>
    </g>
    <g id="ytick_2">
     <g id="line2d_6">
      <g>
       <use xlink:href="#mf3ceb3c2aa" x="125.03013" y="200.802541" style="fill: #5a5758; stroke: #5a5758; stroke-width: 0.8"/>
      </g>
     </g>
     <g id="text_7">
      <!-- $\mathdefault{10^{-8}}$ -->
      <g style="fill: #5a5758" transform="translate(89.54153 206.012956) scale(0.14994 -0.14994)">
       <defs>
        <path id="CMUBright-Roman-38" d="M 275 1158 
Q 275 1517 518 1817 
Q 762 2118 1248 2266 
Q 909 2349 640 2598 
Q 371 2848 371 3206 
Q 371 3642 745 3971 
Q 1120 4301 1677 4301 
Q 2221 4301 2601 3981 
Q 2982 3661 2982 3213 
Q 2982 2918 2787 2684 
Q 2592 2451 2285 2323 
L 2099 2266 
Q 2464 2176 2768 1885 
Q 3072 1594 3072 1158 
Q 3072 646 2665 268 
Q 2259 -109 1670 -109 
Q 1075 -109 675 275 
Q 275 659 275 1158 
z
M 698 1158 
Q 698 704 970 464 
Q 1242 224 1670 224 
Q 2118 224 2384 470 
Q 2650 717 2650 1165 
Q 2650 1619 2371 1862 
Q 2093 2106 1670 2106 
Q 1280 2106 989 1878 
Q 698 1651 698 1158 
z
M 755 3206 
Q 755 2886 982 2656 
Q 1210 2426 1670 2426 
Q 2093 2426 2342 2634 
Q 2592 2842 2592 3206 
Q 2592 3507 2387 3744 
Q 2182 3981 1683 3981 
Q 1171 3981 963 3744 
Q 755 3507 755 3206 
z
" transform="scale(0.015625)"/>
       </defs>
       <use xlink:href="#CMUBright-Roman-31" transform="translate(0 0.915625)"/>
       <use xlink:href="#CMUBright-Roman-30" transform="translate(52.499985 0.915625)"/>
       <use xlink:href="#CMUBright-Roman-2212" transform="translate(105.826024 33.957813) scale(0.7)"/>
       <use xlink:href="#CMUBright-Roman-38" transform="translate(150.766022 33.957813) scale(0.7)"/>
      </g>
     </g>
    </g>
    <g id="ytick_3">
     <g id="line2d_7">
      <g>
       <use xlink:href="#mf3ceb3c2aa" x="125.03013" y="154.51223" style="fill: #5a5758; stroke: #5a5758; stroke-width: 0.8"/>
      </g>
     </g>
     <g id="text_8">
      <!-- $\mathdefault{10^{-6}}$ -->
      <g style="fill: #5a5758" transform="translate(89.54153 159.722645) scale(0.14994 -0.14994)">
       <defs>
        <path id="CMUBright-Roman-36" d="M 346 2061 
Q 346 3072 864 3686 
Q 1382 4301 2074 4301 
L 2086 4301 
Q 2426 4301 2797 4179 
L 2797 3846 
Q 2374 3981 2074 3981 
L 2061 3981 
Q 1478 3981 1123 3491 
Q 768 3002 768 2208 
Q 768 2195 771 2166 
Q 774 2138 774 2125 
Q 928 2445 1238 2665 
Q 1549 2886 1952 2886 
Q 2387 2886 2682 2483 
Q 3008 2029 3008 1408 
Q 3008 768 2618 326 
Q 2240 -109 1690 -109 
Q 1510 -109 1340 -57 
Q 1171 -6 985 141 
Q 800 288 662 521 
Q 525 755 435 1152 
Q 346 1549 346 2061 
z
M 794 1389 
Q 813 1171 854 1004 
Q 896 838 985 643 
Q 1075 448 1254 336 
Q 1434 224 1690 224 
Q 2138 224 2381 550 
Q 2515 736 2550 921 
Q 2586 1107 2586 1434 
Q 2586 1645 2573 1776 
Q 2560 1907 2480 2089 
Q 2400 2272 2253 2400 
Q 2054 2566 1728 2566 
Q 1325 2566 1062 2265 
Q 800 1965 800 1555 
Q 800 1440 806 1389 
L 794 1389 
z
" transform="scale(0.015625)"/>
       </defs>
       <use xlink:href="#CMUBright-Roman-31" transform="translate(0 0.915625)"/>
       <use xlink:href="#CMUBright-Roman-30" transform="translate(52.499985 0.915625)"/>
       <use xlink:href="#CMUBright-Roman-2212" transform="translate(105.826024 33.957813) scale(0.7)"/>
       <use xlink:href="#CMUBright-Roman-36" transform="translate(150.766022 33.957813) scale(0.7)"/>
      </g>
     </g>
    </g>
    <g id="ytick_4">
     <g id="line2d_8">
      <g>
       <use xlink:href="#mf3ceb3c2aa" x="125.03013" y="108.221919" style="fill: #5a5758; stroke: #5a5758; stroke-width: 0.8"/>
      </g>
     </g>
     <g id="text_9">
      <!-- $\mathdefault{10^{-4}}$ -->
      <g style="fill: #5a5758" transform="translate(89.54153 113.432334) scale(0.14994 -0.14994)">
       <defs>
        <path id="CMUBright-Roman-34" d="M 186 1158 
L 186 1504 
L 1952 4250 
L 2438 4250 
L 2438 1498 
L 3168 1498 
L 3168 1158 
L 2438 1158 
L 2438 0 
L 2035 0 
L 2035 1158 
L 186 1158 
z
M 602 1498 
L 2054 1498 
L 2054 3885 
Q 1971 3667 1606 3085 
L 602 1498 
z
" transform="scale(0.015625)"/>
       </defs>
       <use xlink:href="#CMUBright-Roman-31" transform="translate(0 0.473438)"/>
       <use xlink:href="#CMUBright-Roman-30" transform="translate(52.499985 0.473438)"/>
       <use xlink:href="#CMUBright-Roman-2212" transform="translate(105.826024 33.515625) scale(0.7)"/>
       <use xlink:href="#CMUBright-Roman-34" transform="translate(150.766022 33.515625) scale(0.7)"/>
      </g>
     </g>
    </g>
    <g id="ytick_5">
     <g id="line2d_9">
      <g>
       <use xlink:href="#mf3ceb3c2aa" x="125.03013" y="61.931607" style="fill: #5a5758; stroke: #5a5758; stroke-width: 0.8"/>
      </g>
     </g>
     <g id="text_10">
      <!-- $\mathdefault{10^{-2}}$ -->
      <g style="fill: #5a5758" transform="translate(89.54153 67.142022) scale(0.14994 -0.14994)">
       <defs>
        <path id="CMUBright-Roman-32" d="M 275 3226 
Q 595 4301 1587 4301 
L 1594 4301 
Q 2214 4294 2617 3923 
Q 3021 3552 3021 2989 
Q 3021 2746 2937 2531 
Q 2854 2317 2668 2115 
Q 2483 1914 2384 1821 
Q 2285 1728 2061 1549 
Q 1754 1299 1642 1203 
Q 1530 1107 698 358 
L 3021 358 
L 3021 0 
L 333 0 
L 333 339 
L 1683 1562 
Q 2144 1965 2368 2278 
Q 2592 2592 2592 2982 
Q 2592 3418 2278 3690 
Q 1965 3962 1498 3962 
Q 1069 3962 854 3693 
Q 640 3424 512 2938 
L 275 3226 
z
" transform="scale(0.015625)"/>
       </defs>
       <use xlink:href="#CMUBright-Roman-31" transform="translate(0 0.915625)"/>
       <use xlink:href="#CMUBright-Roman-30" transform="translate(52.499985 0.915625)"/>
       <use xlink:href="#CMUBright-Roman-2212" transform="translate(105.826024 33.957813) scale(0.7)"/>
       <use xlink:href="#CMUBright-Roman-32" transform="translate(150.766022 33.957813) scale(0.7)"/>
      </g>
     </g>
    </g>
    <g id="ytick_6">
     <g id="line2d_10">
      <g>
       <use xlink:href="#mf3ceb3c2aa" x="125.03013" y="15.641296" style="fill: #5a5758; stroke: #5a5758; stroke-width: 0.8"/>
      </g>
     </g>
     <g id="text_11">
      <!-- $\mathdefault{10^{0}}$ -->
      <g style="fill: #5a5758" transform="translate(96.28883 20.851711) scale(0.14994 -0.14994)">
       <use xlink:href="#CMUBright-Roman-31" transform="translate(0 0.915625)"/>
       <use xlink:href="#CMUBright-Roman-30" transform="translate(52.499985 0.915625)"/>
       <use xlink:href="#CMUBright-Roman-30" transform="translate(105.826024 33.957813) scale(0.7)"/>
      </g>
     </g>
    </g>
    <g id="text_12">
     <!-- abs(f(x)) -->
     <g style="fill: #5a5758" transform="translate(7.2 146.782268) scale(0.18 -0.18)">
      <defs>
       <path id="CMUBright-SemiBold-62" d="M 416 0 
L 416 4448 
L 1018 4448 
L 1018 2675 
Q 1466 3072 2074 3072 
Q 2509 3072 2793 2611 
Q 3078 2150 3078 1530 
Q 3078 851 2720 400 
Q 2362 -51 1856 -51 
Q 1414 -51 1030 333 
L 1030 0 
L 416 0 
z
M 1030 832 
Q 1030 659 1193 544 
Q 1357 429 1562 429 
Q 1690 429 1821 457 
Q 1952 486 2118 601 
Q 2285 717 2368 909 
Q 2464 1133 2464 1530 
Q 2464 2118 2227 2362 
Q 2003 2592 1632 2592 
Q 1555 2592 1488 2582 
Q 1421 2573 1366 2550 
Q 1312 2528 1270 2509 
Q 1229 2490 1184 2454 
Q 1139 2419 1120 2403 
Q 1101 2387 1062 2355 
L 1030 2323 
L 1030 832 
z
" transform="scale(0.015625)"/>
       <path id="CMUBright-SemiBold-73" d="M 186 250 
L 282 800 
Q 787 448 1318 448 
Q 1613 448 1737 569 
Q 1862 691 1862 838 
Q 1862 986 1753 1078 
Q 1645 1171 1517 1206 
Q 1389 1242 1190 1280 
Q 992 1318 902 1350 
Q 634 1440 429 1661 
Q 224 1882 224 2202 
Q 224 2349 269 2486 
Q 314 2624 422 2774 
Q 531 2925 764 3014 
Q 998 3104 1331 3104 
Q 1818 3104 2323 2886 
L 2227 2362 
Q 1747 2624 1261 2624 
Q 998 2624 889 2515 
Q 781 2406 781 2272 
Q 781 2170 857 2077 
Q 934 1984 1062 1939 
Q 1069 1939 1408 1865 
Q 1747 1792 1914 1702 
Q 2419 1421 2419 890 
Q 2419 525 2172 237 
Q 1926 -51 1325 -51 
Q 730 -51 186 250 
z
" transform="scale(0.015625)"/>
       <path id="CMUBright-SemiBold-28" d="M 1747 -1421 
Q 499 -358 499 1690 
Q 499 3738 1747 4800 
L 2234 4800 
Q 2086 4653 1990 4544 
Q 1894 4435 1708 4147 
Q 1523 3859 1411 3552 
Q 1299 3245 1206 2752 
Q 1114 2259 1114 1689 
Q 1114 1120 1206 627 
Q 1299 134 1411 -173 
Q 1523 -480 1708 -768 
Q 1894 -1056 1990 -1165 
Q 2086 -1274 2234 -1421 
L 1747 -1421 
z
" transform="scale(0.015625)"/>
       <path id="CMUBright-SemiBold-66" d="M 179 2541 
L 179 3021 
L 627 3021 
L 627 3360 
Q 627 3654 700 3852 
Q 774 4051 1005 4237 
Q 1318 4499 1792 4499 
Q 2022 4499 2323 4448 
L 2323 3904 
Q 2010 4013 1779 4013 
Q 1562 4013 1389 3920 
Q 1216 3827 1216 3610 
L 1216 3021 
L 1920 3021 
L 1920 2541 
L 1229 2541 
L 1229 0 
L 627 0 
L 627 2541 
L 179 2541 
z
" transform="scale(0.015625)"/>
       <path id="CMUBright-SemiBold-78" d="M 0 0 
L 1184 1562 
L 1184 1568 
L 38 3021 
L 698 3021 
L 1446 2022 
L 2163 3021 
L 2816 3021 
L 1709 1568 
L 1709 1562 
L 2931 0 
L 2272 0 
L 1446 1197 
L 1440 1197 
L 653 0 
L 0 0 
z
" transform="scale(0.015625)"/>
       <path id="CMUBright-SemiBold-29" d="M 371 -1421 
Q 525 -1267 614 -1164 
Q 704 -1062 893 -768 
Q 1082 -474 1194 -173 
Q 1306 128 1398 624 
Q 1491 1120 1491 1690 
Q 1491 2246 1404 2732 
Q 1318 3219 1206 3523 
Q 1094 3827 921 4105 
Q 749 4384 646 4502 
Q 544 4621 416 4755 
Q 384 4787 371 4800 
L 851 4800 
Q 2106 3731 2106 1689 
Q 2106 -352 851 -1421 
L 371 -1421 
z
" transform="scale(0.015625)"/>
      </defs>
      <use xlink:href="#CMUBright-SemiBold-61"/>
      <use xlink:href="#CMUBright-SemiBold-62" x="49.199997"/>
      <use xlink:href="#CMUBright-SemiBold-73" x="100.899994"/>
      <use xlink:href="#CMUBright-SemiBold-28" x="141.099991"/>
      <use xlink:href="#CMUBright-SemiBold-66" x="181.899979"/>
      <use xlink:href="#CMUBright-SemiBold-28" x="213.999969"/>
      <use xlink:href="#CMUBright-SemiBold-78" x="254.799957"/>
      <use xlink:href="#CMUBright-SemiBold-29" x="300.599945"/>
      <use xlink:href="#CMUBright-SemiBold-29" x="341.399933"/>
     </g>
    </g>
   </g>
   <g id="line2d_11">
    <path d="M 137.03013 19.99124 
L 153.975887 30.806382 
L 170.921645 35.908673 
L 187.867402 43.823324 
L 204.813159 50.320758 
L 221.758917 57.52404 
L 238.704674 64.373708 
L 255.650432 71.400011 
L 272.596189 78.337953 
L 289.541946 85.320065 
L 306.487704 92.280089 
L 323.433461 99.251156 
L 340.379218 106.216702 
L 357.324976 113.185008 
L 374.270733 120.151934 
L 391.216491 127.11955 
L 408.162248 134.086821 
L 425.108005 141.054265 
L 442.053763 148.021622 
L 458.99952 154.989023 
" style="fill: none; stroke: #e29400; stroke-width: 2; stroke-linecap: square"/>
    <defs>
     <path id="m63206683b9" d="M 0 3 
C 0.795609 3 1.55874 2.683901 2.12132 2.12132 
C 2.683901 1.55874 3 0.795609 3 0 
C 3 -0.795609 2.683901 -1.55874 2.12132 -2.12132 
C 1.55874 -2.683901 0.795609 -3 0 -3 
C -0.795609 -3 -1.55874 -2.683901 -2.12132 -2.12132 
C -2.683901 -1.55874 -3 -0.795609 -3 0 
C -3 0.795609 -2.683901 1.55874 -2.12132 2.12132 
C -1.55874 2.683901 -0.795609 3 0 3 
z
" style="stroke: #ffffff"/>
    </defs>
    <g>
     <use xlink:href="#m63206683b9" x="137.03013" y="19.99124" style="fill: #e29400; stroke: #ffffff"/>
     <use xlink:href="#m63206683b9" x="153.975887" y="30.806382" style="fill: #e29400; stroke: #ffffff"/>
     <use xlink:href="#m63206683b9" x="170.921645" y="35.908673" style="fill: #e29400; stroke: #ffffff"/>
     <use xlink:href="#m63206683b9" x="187.867402" y="43.823324" style="fill: #e29400; stroke: #ffffff"/>
     <use xlink:href="#m63206683b9" x="204.813159" y="50.320758" style="fill: #e29400; stroke: #ffffff"/>
     <use xlink:href="#m63206683b9" x="221.758917" y="57.52404" style="fill: #e29400; stroke: #ffffff"/>
     <use xlink:href="#m63206683b9" x="238.704674" y="64.373708" style="fill: #e29400; stroke: #ffffff"/>
     <use xlink:href="#m63206683b9" x="255.650432" y="71.400011" style="fill: #e29400; stroke: #ffffff"/>
     <use xlink:href="#m63206683b9" x="272.596189" y="78.337953" style="fill: #e29400; stroke: #ffffff"/>
     <use xlink:href="#m63206683b9" x="289.541946" y="85.320065" style="fill: #e29400; stroke: #ffffff"/>
     <use xlink:href="#m63206683b9" x="306.487704" y="92.280089" style="fill: #e29400; stroke: #ffffff"/>
     <use xlink:href="#m63206683b9" x="323.433461" y="99.251156" style="fill: #e29400; stroke: #ffffff"/>
     <use xlink:href="#m63206683b9" x="340.379218" y="106.216702" style="fill: #e29400; stroke: #ffffff"/>
     <use xlink:href="#m63206683b9" x="357.324976" y="113.185008" style="fill: #e29400; stroke: #ffffff"/>
     <use xlink:href="#m63206683b9" x="374.270733" y="120.151934" style="fill: #e29400; stroke: #ffffff"/>
     <use xlink:href="#m63206683b9" x="391.216491" y="127.11955" style="fill: #e29400; stroke: #ffffff"/>
     <use xlink:href="#m63206683b9" x="408.162248" y="134.086821" style="fill: #e29400; stroke: #ffffff"/>
     <use xlink:href="#m63206683b9" x="425.108005" y="141.054265" style="fill: #e29400; stroke: #ffffff"/>
     <use xlink:href="#m63206683b9" x="442.053763" y="148.021622" style="fill: #e29400; stroke: #ffffff"/>
     <use xlink:href="#m63206683b9" x="458.99952" y="154.989023" style="fill: #e29400; stroke: #ffffff"/>
    </g>
   </g>
   <g id="line2d_12">
    <path d="M 137.03013 10.2 
L 153.975887 23.787564 
L 170.921645 43.604302 
L 187.867402 79.333037 
L 204.813159 150.01587 
L 221.758917 291.357661 
" style="fill: none; stroke: #1e90ff; stroke-width: 2; stroke-linecap: square"/>
    <defs>
     <path id="meaabcf3a00" d="M 0 3 
C 0.795609 3 1.55874 2.683901 2.12132 2.12132 
C 2.683901 1.55874 3 0.795609 3 0 
C 3 -0.795609 2.683901 -1.55874 2.12132 -2.12132 
C 1.55874 -2.683901 0.795609 -3 0 -3 
C -0.795609 -3 -1.55874 -2.683901 -2.12132 -2.12132 
C -2.683901 -1.55874 -3 -0.795609 -3 0 
C -3 0.795609 -2.683901 1.55874 -2.12132 2.12132 
C -1.55874 2.683901 -0.795609 3 0 3 
z
" style="stroke: #ffffff"/>
    </defs>
    <g>
     <use xlink:href="#meaabcf3a00" x="137.03013" y="10.2" style="fill: #1e90ff; stroke: #ffffff"/>
     <use xlink:href="#meaabcf3a00" x="153.975887" y="23.787564" style="fill: #1e90ff; stroke: #ffffff"/>
     <use xlink:href="#meaabcf3a00" x="170.921645" y="43.604302" style="fill: #1e90ff; stroke: #ffffff"/>
     <use xlink:href="#meaabcf3a00" x="187.867402" y="79.333037" style="fill: #1e90ff; stroke: #ffffff"/>
     <use xlink:href="#meaabcf3a00" x="204.813159" y="150.01587" style="fill: #1e90ff; stroke: #ffffff"/>
     <use xlink:href="#meaabcf3a00" x="221.758917" y="291.357661" style="fill: #1e90ff; stroke: #ffffff"/>
    </g>
   </g>
   <g id="line2d_13">
    <path d="M 137.03013 154.51223 
L 458.99952 154.51223 
" clip-path="url(#p961d1c2c85)" style="fill: none; stroke-dasharray: 7.4,3.2; stroke-dashoffset: 0; stroke: #808080; stroke-width: 2"/>
   </g>
   <g id="patch_3">
    <path d="M 125.03013 291.357661 
L 125.03013 10.2 
" style="fill: none; stroke: #5a5758; stroke-width: 0.8; stroke-linejoin: miter; stroke-linecap: square"/>
   </g>
   <g id="patch_4">
    <path d="M 137.03013 303.357661 
L 458.99952 303.357661 
" style="fill: none; stroke: #5a5758; stroke-width: 0.8; stroke-linejoin: miter; stroke-linecap: square"/>
   </g>
   <g id="legend_1">
    <g id="line2d_14">
     <path d="M 261.373583 216.637973 
L 279.373583 216.637973 
L 297.373583 216.637973 
" style="fill: none; stroke: #e29400; stroke-width: 2; stroke-linecap: square"/>
     <g>
      <use xlink:href="#m63206683b9" x="279.373583" y="216.637973" style="fill: #e29400; stroke: #ffffff"/>
     </g>
    </g>
    <g id="text_13">
     <!-- Bisection -->
     <g style="fill: #e29400" transform="translate(311.773583 222.937973) scale(0.18 -0.18)">
      <defs>
       <path id="CMUBright-Roman-42" d="M 634 0 
L 634 4448 
L 2067 4448 
Q 2534 4448 2896 4336 
Q 3258 4224 3450 4048 
Q 3642 3872 3738 3686 
Q 3834 3501 3834 3328 
Q 3834 3226 3795 3117 
Q 3757 3008 3651 2851 
Q 3546 2694 3293 2553 
Q 3040 2413 2669 2323 
Q 3226 2246 3622 1939 
Q 4019 1632 4019 1203 
Q 4019 742 3596 406 
Q 3174 70 2579 13 
Q 2464 0 2240 0 
L 634 0 
z
M 1062 339 
L 2086 339 
Q 2848 339 3222 611 
Q 3597 883 3597 1210 
Q 3597 1350 3513 1500 
Q 3430 1651 3257 1801 
Q 3085 1952 2758 2051 
Q 2432 2150 2010 2150 
L 1069 2150 
L 1062 1901 
L 1062 339 
z
M 1062 2470 
L 1888 2470 
Q 2323 2490 2544 2534 
Q 2765 2579 3034 2746 
Q 3424 2989 3424 3315 
Q 3424 3603 3043 3852 
Q 2662 4102 1901 4102 
L 1069 4102 
L 1062 3872 
L 1062 2470 
z
" transform="scale(0.015625)"/>
       <path id="CMUBright-Roman-69" d="M 509 4019 
L 509 4422 
L 912 4422 
L 912 4019 
L 509 4019 
z
M 512 0 
L 512 3021 
L 915 3021 
L 915 0 
L 512 0 
z
" transform="scale(0.015625)"/>
       <path id="CMUBright-Roman-73" d="M 186 250 
L 250 621 
Q 787 282 1325 282 
Q 1715 282 1881 442 
Q 2048 602 2048 806 
Q 2048 998 1910 1120 
Q 1773 1242 1606 1299 
Q 1536 1318 1235 1372 
Q 934 1427 726 1523 
Q 518 1619 371 1818 
Q 224 2022 224 2253 
Q 224 2400 272 2531 
Q 320 2662 429 2800 
Q 538 2938 765 3021 
Q 992 3104 1312 3104 
L 1331 3104 
Q 1818 3104 2304 2886 
L 2240 2534 
Q 1747 2784 1267 2784 
Q 890 2784 742 2633 
Q 595 2483 595 2304 
Q 595 2163 697 2038 
Q 800 1914 998 1856 
Q 1037 1843 1344 1782 
Q 1651 1722 1760 1683 
Q 2029 1587 2224 1372 
Q 2419 1158 2419 845 
Q 2419 499 2172 224 
Q 1926 -51 1331 -51 
Q 736 -51 186 250 
z
" transform="scale(0.015625)"/>
       <path id="CMUBright-Roman-65" d="M 269 1536 
Q 269 2163 646 2630 
Q 1024 3098 1587 3098 
Q 1786 3098 1968 3037 
Q 2150 2976 2342 2829 
Q 2534 2682 2652 2365 
Q 2771 2048 2771 1600 
L 653 1600 
L 653 1549 
Q 653 966 966 617 
Q 1280 269 1690 269 
Q 2234 269 2726 710 
L 2758 358 
Q 2266 -51 1690 -51 
Q 1101 -51 685 406 
Q 269 864 269 1536 
z
M 685 1856 
L 2426 1856 
Q 2381 2342 2134 2560 
Q 1888 2778 1587 2778 
Q 1261 2778 1008 2515 
Q 755 2253 685 1856 
z
" transform="scale(0.015625)"/>
       <path id="CMUBright-Roman-63" d="M 294 1517 
Q 294 2157 691 2630 
Q 1088 3104 1709 3104 
Q 2042 3104 2250 3046 
Q 2458 2989 2758 2829 
L 2694 2477 
Q 2502 2592 2403 2640 
Q 2304 2688 2125 2729 
Q 1946 2771 1709 2771 
Q 1254 2771 982 2432 
Q 710 2093 710 1523 
Q 717 915 1008 598 
Q 1299 282 1696 282 
Q 1958 282 2192 365 
Q 2426 448 2525 518 
Q 2624 589 2765 710 
L 2797 352 
Q 2304 -51 1690 -51 
Q 1107 -51 700 403 
Q 294 858 294 1517 
z
" transform="scale(0.015625)"/>
       <path id="CMUBright-Roman-74" d="M 122 2701 
L 122 3021 
L 736 3021 
L 736 3885 
L 1126 3885 
L 1126 3021 
L 2118 3021 
L 2118 2701 
L 1126 2701 
L 1126 883 
Q 1126 282 1491 282 
Q 1568 282 1638 291 
Q 1709 301 1769 323 
Q 1830 346 1878 365 
Q 1926 384 1974 416 
Q 2022 448 2048 464 
Q 2074 480 2109 512 
Q 2144 544 2150 544 
L 2234 230 
Q 1779 -51 1261 -51 
Q 730 -51 730 838 
L 730 2701 
L 122 2701 
z
" transform="scale(0.015625)"/>
       <path id="CMUBright-Roman-6f" d="M 256 1510 
Q 256 2182 675 2640 
Q 1094 3098 1677 3098 
Q 2272 3098 2681 2627 
Q 3091 2157 3091 1510 
Q 3091 838 2668 393 
Q 2246 -51 1677 -51 
Q 1088 -51 672 406 
Q 256 864 256 1510 
z
M 666 1587 
Q 666 1190 771 915 
Q 877 640 1046 512 
Q 1216 384 1369 333 
Q 1523 282 1677 282 
Q 1843 282 2006 342 
Q 2170 403 2330 537 
Q 2490 672 2586 937 
Q 2682 1203 2682 1568 
Q 2682 1914 2586 2163 
Q 2490 2413 2330 2541 
Q 2170 2669 2006 2723 
Q 1843 2778 1676 2778 
Q 1510 2778 1347 2723 
Q 1184 2669 1024 2544 
Q 864 2419 765 2172 
Q 666 1926 666 1587 
z
" transform="scale(0.015625)"/>
       <path id="CMUBright-Roman-6e" d="M 512 0 
L 512 3021 
L 909 3021 
L 909 2400 
Q 1030 2682 1273 2877 
Q 1517 3072 1869 3072 
Q 2125 3072 2307 2992 
Q 2490 2912 2579 2809 
Q 2669 2707 2720 2540 
Q 2771 2374 2777 2272 
Q 2784 2170 2784 2016 
L 2784 0 
L 2374 0 
L 2374 1990 
Q 2374 2106 2371 2176 
Q 2368 2246 2329 2368 
Q 2291 2490 2220 2563 
Q 2150 2637 2006 2694 
Q 1862 2752 1658 2752 
Q 1370 2752 1149 2518 
Q 928 2285 928 1677 
L 928 0 
L 512 0 
z
" transform="scale(0.015625)"/>
      </defs>
      <use xlink:href="#CMUBright-Roman-42"/>
      <use xlink:href="#CMUBright-Roman-69" x="68.699982"/>
      <use xlink:href="#CMUBright-Roman-73" x="91.199966"/>
      <use xlink:href="#CMUBright-Roman-65" x="131.399963"/>
      <use xlink:href="#CMUBright-Roman-63" x="178.09996"/>
      <use xlink:href="#CMUBright-Roman-74" x="224.799957"/>
      <use xlink:href="#CMUBright-Roman-69" x="262.699951"/>
      <use xlink:href="#CMUBright-Roman-6f" x="285.199936"/>
      <use xlink:href="#CMUBright-Roman-6e" x="337.699921"/>
     </g>
    </g>
    <g id="line2d_15">
     <path d="M 261.373583 241.244536 
L 279.373583 241.244536 
L 297.373583 241.244536 
" style="fill: none; stroke: #1e90ff; stroke-width: 2; stroke-linecap: square"/>
     <g>
      <use xlink:href="#meaabcf3a00" x="279.373583" y="241.244536" style="fill: #1e90ff; stroke: #ffffff"/>
     </g>
    </g>
    <g id="text_14">
     <!-- Newton-Raphson -->
     <g style="fill: #1e90ff" transform="translate(311.773583 247.544536) scale(0.18 -0.18)">
      <defs>
       <path id="CMUBright-Roman-4e" d="M 640 0 
L 640 4448 
L 1267 4448 
L 3488 371 
L 3488 4448 
L 3891 4448 
L 3891 0 
L 3264 0 
L 1043 4077 
L 1043 0 
L 640 0 
z
" transform="scale(0.015625)"/>
       <path id="CMUBright-Roman-77" d="M 90 3021 
L 493 3021 
Q 1126 941 1254 416 
Q 1274 557 1517 1370 
L 2016 3021 
L 2387 3021 
Q 3066 762 3162 416 
L 3264 794 
L 3936 3021 
L 4326 3021 
L 3398 -19 
L 2938 -19 
L 2458 1574 
Q 2202 2509 2182 2611 
Q 2131 2246 1434 -19 
L 1018 -19 
L 90 3021 
z
" transform="scale(0.015625)"/>
       <path id="CMUBright-Roman-2d" d="M 70 1350 
L 70 1670 
L 1862 1670 
L 1862 1350 
L 70 1350 
z
" transform="scale(0.015625)"/>
       <path id="CMUBright-Roman-52" d="M 627 0 
L 627 4448 
L 2099 4448 
Q 2579 4448 2947 4329 
Q 3315 4211 3513 4022 
Q 3712 3834 3811 3635 
Q 3910 3437 3910 3245 
Q 3910 2925 3692 2669 
Q 3475 2413 3209 2285 
Q 2944 2157 2675 2112 
L 4102 0 
L 3654 0 
L 2272 2061 
L 1069 2061 
L 1069 0 
L 627 0 
z
M 1069 2387 
L 2080 2387 
Q 2797 2387 3155 2630 
Q 3494 2861 3494 3245 
Q 3494 3552 3225 3805 
Q 2957 4058 2349 4096 
Q 2259 4102 2074 4102 
L 1069 4102 
L 1069 2387 
z
" transform="scale(0.015625)"/>
       <path id="CMUBright-Roman-61" d="M 352 736 
Q 352 896 435 1046 
Q 518 1197 707 1347 
Q 896 1498 1283 1590 
Q 1670 1683 2214 1696 
L 2214 1965 
Q 2214 2381 2042 2579 
Q 1856 2803 1568 2803 
Q 1331 2803 1107 2736 
Q 883 2669 809 2624 
Q 736 2579 557 2470 
L 525 2829 
Q 1043 3104 1574 3104 
Q 2054 3104 2326 2806 
Q 2598 2509 2624 2144 
L 2630 1926 
L 2630 0 
L 2227 0 
L 2227 442 
Q 1830 -51 1107 -51 
L 1062 -51 
Q 710 -51 531 205 
Q 352 461 352 736 
z
M 749 749 
Q 749 518 950 393 
Q 1152 269 1408 269 
Q 1523 269 1644 297 
Q 1766 326 1904 390 
Q 2042 454 2128 595 
Q 2214 736 2214 928 
L 2214 1498 
Q 1568 1491 1158 1286 
Q 749 1082 749 749 
z
" transform="scale(0.015625)"/>
       <path id="CMUBright-Roman-70" d="M 512 -1069 
L 512 3021 
L 915 3021 
L 915 2586 
Q 1318 3072 1888 3072 
Q 2355 3072 2678 2621 
Q 3002 2170 3002 1523 
Q 3002 826 2621 387 
Q 2240 -51 1754 -51 
Q 1530 -51 1328 61 
Q 1126 173 1075 237 
Q 1024 301 928 422 
L 928 -1069 
L 512 -1069 
z
M 928 832 
Q 928 634 1110 451 
Q 1293 269 1555 269 
Q 1971 269 2281 630 
Q 2592 992 2592 1517 
Q 2592 2022 2304 2384 
Q 2016 2746 1619 2746 
Q 1286 2746 1056 2490 
Q 960 2368 944 2333 
Q 928 2298 928 2189 
L 928 832 
z
" transform="scale(0.015625)"/>
       <path id="CMUBright-Roman-68" d="M 512 0 
L 512 4448 
L 915 4448 
L 915 2694 
L 922 2419 
Q 1024 2662 1257 2867 
Q 1491 3072 1869 3072 
Q 2125 3072 2307 2995 
Q 2490 2918 2579 2816 
Q 2669 2714 2720 2547 
Q 2771 2381 2777 2275 
Q 2784 2170 2784 2016 
L 2784 0 
L 2374 0 
L 2374 1990 
Q 2374 2106 2371 2176 
Q 2368 2246 2329 2368 
Q 2291 2490 2220 2563 
Q 2150 2637 2006 2694 
Q 1862 2752 1658 2752 
Q 1370 2752 1149 2518 
Q 928 2285 928 1677 
L 928 0 
L 512 0 
z
" transform="scale(0.015625)"/>
      </defs>
      <use xlink:href="#CMUBright-Roman-4e"/>
      <use xlink:href="#CMUBright-Roman-65" x="70.799988"/>
      <use xlink:href="#CMUBright-Roman-77" x="117.499985"/>
      <use xlink:href="#CMUBright-Roman-74" x="186.699966"/>
      <use xlink:href="#CMUBright-Roman-6f" x="224.59996"/>
      <use xlink:href="#CMUBright-Roman-6e" x="277.099945"/>
      <use xlink:href="#CMUBright-Roman-2d" x="328.799942"/>
      <use xlink:href="#CMUBright-Roman-52" x="363.799927"/>
      <use xlink:href="#CMUBright-Roman-61" x="430.899918"/>
      <use xlink:href="#CMUBright-Roman-70" x="480.099915"/>
      <use xlink:href="#CMUBright-Roman-68" x="531.799911"/>
      <use xlink:href="#CMUBright-Roman-73" x="583.499908"/>
      <use xlink:href="#CMUBright-Roman-6f" x="623.699905"/>
      <use xlink:href="#CMUBright-Roman-6e" x="676.19989"/>
     </g>
    </g>
    <g id="line2d_16">
     <path d="M 261.373583 265.851098 
L 279.373583 265.851098 
L 297.373583 265.851098 
" style="fill: none; stroke-dasharray: 7.4,3.2; stroke-dashoffset: 0; stroke: #808080; stroke-width: 2"/>
    </g>
    <g id="text_15">
     <!-- Tolerance -->
     <g style="fill: #808080" transform="translate(311.773583 272.151098) scale(0.18 -0.18)">
      <defs>
       <path id="CMUBright-Roman-54" d="M 237 4090 
L 237 4429 
L 4390 4429 
L 4390 4090 
L 2541 4090 
L 2541 0 
L 2093 0 
L 2093 4090 
L 237 4090 
z
" transform="scale(0.015625)"/>
       <path id="CMUBright-Roman-6c" d="M 512 0 
L 512 4448 
L 915 4448 
L 915 0 
L 512 0 
z
" transform="scale(0.015625)"/>
       <path id="CMUBright-Roman-72" d="M 512 0 
L 512 3021 
L 896 3021 
L 896 2534 
L 902 2234 
Q 954 2362 1043 2490 
Q 1133 2618 1273 2755 
Q 1414 2893 1632 2979 
Q 1850 3066 2112 3072 
L 2112 2714 
Q 1907 2707 1708 2643 
Q 1510 2579 1324 2444 
Q 1139 2310 1027 2070 
Q 915 1830 915 1510 
L 915 0 
L 512 0 
z
" transform="scale(0.015625)"/>
      </defs>
      <use xlink:href="#CMUBright-Roman-54"/>
      <use xlink:href="#CMUBright-Roman-6f" x="72.499985"/>
      <use xlink:href="#CMUBright-Roman-6c" x="124.999969"/>
      <use xlink:href="#CMUBright-Roman-65" x="147.499954"/>
      <use xlink:href="#CMUBright-Roman-72" x="194.199951"/>
      <use xlink:href="#CMUBright-Roman-61" x="228.799942"/>
      <use xlink:href="#CMUBright-Roman-6e" x="277.999939"/>
      <use xlink:href="#CMUBright-Roman-63" x="329.699936"/>
      <use xlink:href="#CMUBright-Roman-65" x="376.399933"/>
     </g>
    </g>
   </g>
  </g>
 </g>
 <defs>
  <clipPath id="p961d1c2c85">
   <rect x="137.03013" y="10.2" width="321.96939" height="281.157661"/>
  </clipPath>
 </defs>
</svg>